<svg xmlns="http://www.w3.org/2000/svg" width="80" height="47" viewBox="0 0 80 47" fill="none">
<path d="M20.4505 46.9391C19.844 46.9391 19.3002 46.5835 19.0702 46.0293L0.123091 2.10175C-0.0755821 1.63121 -0.0337561 1.09793 0.248568 0.67967C0.530893 0.250955 1.00143 0 1.50334 0H40.6732C41.5098 0 42.179 0.67967 42.179 1.50573C42.179 2.33179 41.5098 3.01146 40.6732 3.01146H3.79331L20.4505 41.6167L32.8623 12.7151H21.9248C21.0883 12.7151 20.4191 12.0354 20.4191 11.2093C20.4191 10.3833 21.0988 9.7036 21.9248 9.7036H35.1522C35.6541 9.7036 36.1351 9.95455 36.407 10.3833C36.6893 10.8015 36.7312 11.3453 36.5325 11.8053L21.8412 46.0189C21.6007 46.5731 21.0569 46.9391 20.4505 46.9391Z" fill="black"/>
<path d="M40.6733 46.9391C39.8368 46.9391 39.1675 46.2594 39.1675 45.4333V11.2093C39.1675 10.3728 39.8472 9.70361 40.6733 9.70361C41.5098 9.70361 42.179 10.3833 42.179 11.2093V45.4229C42.179 46.2594 41.5098 46.9391 40.6733 46.9391Z" fill="black"/>
<path d="M24.4657 18.3092H16.3619C15.6195 18.3092 15.0235 17.7132 15.0235 16.9708C15.0235 16.2283 15.6195 15.6323 16.3619 15.6323H24.4657C25.2081 15.6323 25.8041 16.2283 25.8041 16.9708C25.8041 17.7132 25.2081 18.3092 24.4657 18.3092Z" fill="black"/>
<path d="M51.297 17.985C50.8578 17.985 50.4814 17.8281 50.1677 17.504C49.854 17.1903 49.6867 16.8138 49.6867 16.3747C49.6867 15.9355 49.8436 15.5591 50.1677 15.2349C50.4814 14.9108 50.8578 14.7539 51.297 14.7539C51.7362 14.7539 52.1126 14.9108 52.4263 15.2349C52.74 15.5591 52.9073 15.9355 52.9073 16.3747C52.9073 16.8138 52.7505 17.1903 52.4263 17.504C52.1022 17.8281 51.7257 17.985 51.297 17.985ZM49.9167 28.065V19.0097H52.6668V28.065H49.9167Z" fill="black"/>
<path d="M54.6849 28.0647V22.8574C54.6849 22.1045 54.8626 21.4249 55.2286 20.8079C55.5946 20.2015 56.1174 19.71 56.7866 19.344C57.4663 18.9781 58.261 18.8003 59.1916 18.8003C60.1327 18.8003 60.9378 18.9781 61.5966 19.344C62.2658 19.71 62.7677 20.2015 63.1232 20.8079C63.4788 21.4249 63.6565 22.1045 63.6565 22.8574V28.0647H60.9169V22.9306C60.9169 22.6169 60.8437 22.3241 60.6869 22.0523C60.53 21.7908 60.3209 21.5713 60.0595 21.4144C59.7981 21.2576 59.4949 21.1739 59.1707 21.1739C58.8256 21.1739 58.5224 21.2576 58.261 21.4144C57.9996 21.5713 57.7904 21.7804 57.6336 22.0523C57.4768 22.3137 57.4036 22.6064 57.4036 22.9306V28.0647H54.6849Z" fill="black"/>
<path d="M69.3448 28.2738C68.5397 28.2738 67.8391 28.0647 67.2326 27.6569C66.6157 27.2491 66.1452 26.6845 65.8001 25.9943C65.455 25.2938 65.2877 24.4991 65.2877 23.6207C65.2877 22.7006 65.4864 21.8849 65.8837 21.1635C66.2811 20.442 66.8562 19.8669 67.5881 19.4381C68.3201 19.0199 69.188 18.8003 70.1918 18.8003C71.2061 18.8003 72.0635 19.0094 72.7745 19.4277C73.4856 19.8459 74.0293 20.4106 74.4162 21.1425C74.8031 21.864 74.9913 22.6796 74.9913 23.5684V28.0647H72.3145V26.6217H72.2413C72.074 26.9354 71.8648 27.2282 71.6034 27.4792C71.342 27.7301 71.0283 27.9288 70.6623 28.0752C70.2859 28.2007 69.8467 28.2738 69.3448 28.2738ZM70.1604 25.9107C70.5682 25.9107 70.9342 25.8061 71.2479 25.597C71.5616 25.3879 71.8021 25.1055 71.9589 24.7396C72.1262 24.3736 72.2099 23.9658 72.2099 23.5266C72.2099 23.0874 72.1262 22.7006 71.9589 22.345C71.7916 21.9895 71.5511 21.7176 71.2479 21.5085C70.9342 21.2994 70.5787 21.1948 70.1604 21.1948C69.7422 21.1948 69.3657 21.2994 69.052 21.5085C68.7384 21.7176 68.4979 21.9895 68.3305 22.345C68.1632 22.7006 68.0796 23.0874 68.0796 23.5266C68.0796 23.9762 68.1632 24.384 68.3305 24.7396C68.4979 25.1055 68.7384 25.3879 69.052 25.597C69.3657 25.8061 69.7317 25.9107 70.1604 25.9107Z" fill="black"/>
<path d="M78.3896 17.9847C77.9505 17.9847 77.574 17.8279 77.2604 17.5037C76.9467 17.19 76.7794 16.8136 76.7794 16.3744C76.7794 15.9352 76.9362 15.5588 77.2604 15.2347C77.574 14.9105 77.9505 14.7537 78.3896 14.7537C78.8288 14.7537 79.2053 14.9105 79.5189 15.2347C79.8326 15.5588 79.9999 15.9352 79.9999 16.3744C79.9999 16.8136 79.8431 17.19 79.5189 17.5037C79.2053 17.8279 78.8288 17.9847 78.3896 17.9847ZM77.0199 28.0647V19.0094H79.7699V28.0647H77.0199Z" fill="black"/>
</svg>