<svg id="_7-eleven" data-name="7-eleven" xmlns="http://www.w3.org/2000/svg" viewBox="0 0 73.96 71.86"><defs><style>.cls-1{fill:#fff;}.cls-2{fill:#158061;}.cls-3{fill:#f28220;}.cls-4{fill:#eb1a2d;}</style></defs><path class="cls-1" d="M143,25.24h73.27v71H143Z" transform="translate(-142.59 -24.7)"/><path class="cls-2" d="M142.59,24.7h74V96.56h-74Z" transform="translate(-142.59 -24.7)"/><path class="cls-1" d="M188.19,91.83v2.88H170.45V91.82H157c-1.31,0-2.38-1.37-2.38-3.06L149,32A3,3,0,0,1,152,28.9H206.2A3,3,0,0,1,209.12,32l-5.55,56.8c0,1.69-1.07,3.06-2.38,3.06Z" transform="translate(-142.59 -24.7)"/><path class="cls-3" d="M158.91,37.21h36.31c-3.57,1.34-14.46,8.71-17.17,13.67H158.94l0-13.67Z" transform="translate(-142.59 -24.7)"/><path class="cls-4" d="M187.85,76.37c-.52,4.94-.54,11-.54,17.3H171.57a171,171,0,0,1,.79-17.3Z" transform="translate(-142.59 -24.7)"/><path class="cls-2" d="M163.5,69.22v1.91H161v1.92h2.52v2.2h-5.75V65h5.75V67.3H161v1.92Zm13.38,0v1.91h-2.5v1.92h2.5v2.2h-5.74V65h5.74V67.3h-2.5v1.92Zm14.75,0v1.91h-2.52v1.92h2.52v2.2h-5.76V65h5.76V67.3h-2.52v1.92ZM167.82,65v8h2.51v2.2h-5.75V65Zm13.71,6.91L180.3,65h-2.83l1.61,10.23h4.16L185.18,65h-2.4ZM193,65h3.11V75.25H193Z" transform="translate(-142.59 -24.7)"/><path class="cls-2" d="M196.1,68.06c.17-1.12,1.76-.82,1.76-.18v7.37H201V66.58c0-1.84-2.59-2.58-4.86-1l0,2.44Z" transform="translate(-142.59 -24.7)"/><path class="cls-4" d="M189.31,63.58c.32-3.91,5.68-10.31,10.87-12V36.49c-14.29,6.4-23.57,16.07-25.58,27.05Z" transform="translate(-142.59 -24.7)"/></svg>