<svg id="Abitab" xmlns="http://www.w3.org/2000/svg" viewBox="0 0 224.03 60.43"><defs><style>.cls-1{fill:#fff;}.cls-2{fill:#132b6e;}.cls-3{fill:#c02a3b;}.cls-4{fill:none;}</style></defs><path class="cls-1" d="M92.91,34.43l0,0h.06Z" transform="translate(-62.03 -26.31)"/><path class="cls-2" d="M123.78,56.52c0,16.69-13.82,30.21-30.88,30.21S62,73.21,62,56.52,75.85,26.31,92.9,26.31,123.78,39.84,123.78,56.52Z" transform="translate(-62.03 -26.31)"/><path class="cls-3" d="M115.35,56.49a22.26,22.26,0,0,0-22.41-22l20.43,31.05A21.57,21.57,0,0,0,115.35,56.49Z" transform="translate(-62.03 -26.31)"/><path class="cls-3" d="M79.28,74.06a22.91,22.91,0,0,0,27,.08L92.84,54.06Z" transform="translate(-62.03 -26.31)"/><path class="cls-3" d="M92.84,34.48a22.26,22.26,0,0,0-22.51,22,21.59,21.59,0,0,0,2.11,9.32L92.88,34.48Z" transform="translate(-62.03 -26.31)"/><path class="cls-1" d="M113.37,65.53,92.94,34.48h-.06L72.44,65.81a22.14,22.14,0,0,0,6.84,8.25l13.56-20,13.44,20.08A22.14,22.14,0,0,0,113.37,65.53Z" transform="translate(-62.03 -26.31)"/><path class="cls-2" d="M164.84,73h-9.31l-.42-5h-10l-2.39,5H132.46L149.82,42.2H160ZM154.5,61.4l-.94-11.2h-.09l-5.28,11.2Z" transform="translate(-62.03 -26.31)"/><path class="cls-2" d="M180.78,52.29a10.62,10.62,0,0,1,2.8-1.61,10,10,0,0,1,3.35-.48,6.79,6.79,0,0,1,5.8,2.6,10.88,10.88,0,0,1,2,6.71,16.82,16.82,0,0,1-2.94,9.63A9,9,0,0,1,184,73.48a8,8,0,0,1-7.38-4.17L175.79,73h-7.95l6.54-30.75h8.54Zm1,15.42c1.23,0,2.3-.77,3.2-2.32a11.45,11.45,0,0,0,1.35-5.84c0-2.52-1-3.77-3-3.77-1.45,0-2.62.83-3.5,2.5a11.7,11.7,0,0,0-1.32,5.53,3.93,3.93,0,0,0,1,2.91A3.17,3.17,0,0,0,181.81,67.71Z" transform="translate(-62.03 -26.31)"/><path class="cls-2" d="M229.88,50.7l-1.3,6.1h-4.46l-1.64,7.87a3.38,3.38,0,0,0-.17,1.07c0,1,.67,1.51,2,1.51a17.47,17.47,0,0,0,2.64-.4L225.67,73a47.19,47.19,0,0,1-5.66.53c-2.4,0-4.09-.57-5.09-1.72a5.61,5.61,0,0,1-1.5-3.76,26,26,0,0,1,.61-3.58l1.59-7.62h-3.06l1.26-6.1h3.12l.74-3.48,9.54-4.76-1.76,8.24Z" transform="translate(-62.03 -26.31)"/><path class="cls-2" d="M233.18,56.8a7.65,7.65,0,0,1,3.53-4.88q2.76-1.72,8.55-1.72c4.38,0,7.33.54,8.86,1.64a5.55,5.55,0,0,1,2.3,4.8,34.13,34.13,0,0,1-1.16,6.9,33.22,33.22,0,0,0-1.07,6.33,9.41,9.41,0,0,0,.55,3.08h-8.33a12,12,0,0,1-.29-2.53,10.85,10.85,0,0,1-7.49,3.06q-4.22,0-6.06-2a6.51,6.51,0,0,1-1.85-4.58,5.87,5.87,0,0,1,1.65-4.5,8.56,8.56,0,0,1,4.06-2.11,55.55,55.55,0,0,1,6.58-1,32.1,32.1,0,0,0,5-.77,6.74,6.74,0,0,0,.26-1.51,1.54,1.54,0,0,0-.85-1.35,4.48,4.48,0,0,0-2.26-.5,5.25,5.25,0,0,0-2.38.47,4,4,0,0,0-1.6,2ZM247,63q-5.9,1-6.92,1.74a2.17,2.17,0,0,0-1,1.79,2.08,2.08,0,0,0,.74,1.68,2.77,2.77,0,0,0,1.88.62,5,5,0,0,0,3.2-1.31A7.2,7.2,0,0,0,247,63Z" transform="translate(-62.03 -26.31)"/><path class="cls-2" d="M272.15,52.29a10.62,10.62,0,0,1,2.8-1.61,10,10,0,0,1,3.34-.48,6.78,6.78,0,0,1,5.8,2.6,10.82,10.82,0,0,1,2,6.71,16.82,16.82,0,0,1-2.94,9.63,9,9,0,0,1-7.76,4.34A8,8,0,0,1,268,69.31L267.16,73h-8l6.54-30.75h8.54Zm1,15.42c1.23,0,2.29-.77,3.2-2.32a11.45,11.45,0,0,0,1.35-5.84c0-2.52-1-3.77-3-3.77-1.45,0-2.62.83-3.5,2.5a11.7,11.7,0,0,0-1.32,5.53,3.93,3.93,0,0,0,1,2.91A3.15,3.15,0,0,0,273.18,67.71Z" transform="translate(-62.03 -26.31)"/><polygon class="cls-2" points="134.69 46.65 143.28 46.65 148.06 24.39 139.46 24.39 134.69 46.65"/><path class="cls-4" d="M204.86,45.54a17.62,17.62,0,0,1-.18-2.14H202A4.14,4.14,0,0,0,204.86,45.54Z" transform="translate(-62.03 -26.31)"/><path class="cls-4" d="M208.46,45.7a17.82,17.82,0,0,0,.19-2.3h-3.14a20,20,0,0,0,.19,2.33,7.67,7.67,0,0,0,1.29.1A8.64,8.64,0,0,0,208.46,45.7Z" transform="translate(-62.03 -26.31)"/><path class="cls-4" d="M202,42.62h2.66a20.34,20.34,0,0,1,.15-2.14A4.11,4.11,0,0,0,202,42.62Z" transform="translate(-62.03 -26.31)"/><path class="cls-4" d="M205.66,40.29a20.64,20.64,0,0,0-.16,2.33h3.15a18,18,0,0,0-.15-2.29,8.52,8.52,0,0,0-2.84,0Z" transform="translate(-62.03 -26.31)"/><path class="cls-4" d="M211.71,41a5.05,5.05,0,0,0-2.82-2.68,13,13,0,0,1,.32,1.33A5.61,5.61,0,0,1,211.71,41Z" transform="translate(-62.03 -26.31)"/><path class="cls-4" d="M209.34,40.54a17.15,17.15,0,0,1,.14,2.08H212A4,4,0,0,0,209.34,40.54Z" transform="translate(-62.03 -26.31)"/><path class="cls-4" d="M212,43.4h-2.48a19.43,19.43,0,0,1-.17,2.09A4,4,0,0,0,212,43.4Z" transform="translate(-62.03 -26.31)"/><path class="cls-4" d="M207,46.63a10.57,10.57,0,0,1-1.14-.07,8.49,8.49,0,0,0,.35,1.21,6.84,6.84,0,0,0,.79,0,5.33,5.33,0,0,0,1-.09,8,8,0,0,0,.35-1.2A9.68,9.68,0,0,1,207,46.63Z" transform="translate(-62.03 -26.31)"/><path class="cls-4" d="M202.44,45.15a5.05,5.05,0,0,0,2.88,2.4A10,10,0,0,1,205,46.4,5.9,5.9,0,0,1,202.44,45.15Z" transform="translate(-62.03 -26.31)"/><path class="cls-4" d="M209.15,46.35a10.37,10.37,0,0,1-.28,1.13,5.06,5.06,0,0,0,2.66-2.32A5.86,5.86,0,0,1,209.15,46.35Z" transform="translate(-62.03 -26.31)"/><path class="cls-4" d="M207,39.39a8.86,8.86,0,0,1,1.38.11,8.9,8.9,0,0,0-.37-1.41,5.66,5.66,0,0,0-1-.09,5.32,5.32,0,0,0-.81.06,8.47,8.47,0,0,0-.39,1.41A9.42,9.42,0,0,1,207,39.39Z" transform="translate(-62.03 -26.31)"/><path class="cls-4" d="M205,39.63a11.3,11.3,0,0,1,.33-1.36,5.08,5.08,0,0,0-3,2.76A5.73,5.73,0,0,1,205,39.63Z" transform="translate(-62.03 -26.31)"/><path class="cls-3" d="M208.53,37.4a5.73,5.73,0,0,0-1-.18l-.52,0h-.33a6.8,6.8,0,0,0-1,.13,5.67,5.67,0,0,0,1,11.2H207a4.52,4.52,0,0,0,.52,0,6.78,6.78,0,0,0,1-.17,5.62,5.62,0,0,0,0-11Zm.95,5.22a17.15,17.15,0,0,0-.14-2.08A4,4,0,0,1,212,42.62Zm-.83,0H205.5a20.64,20.64,0,0,1,.16-2.33,8.52,8.52,0,0,1,2.84,0A18,18,0,0,1,208.65,42.62Zm-4,0H202a4.11,4.11,0,0,1,2.81-2.14A20.34,20.34,0,0,0,204.67,42.62Zm0,.78a17.62,17.62,0,0,0,.18,2.14A4.14,4.14,0,0,1,202,43.4Zm.83,0h3.14a17.82,17.82,0,0,1-.19,2.3,8.64,8.64,0,0,1-1.47.13,7.67,7.67,0,0,1-1.29-.1A20,20,0,0,1,205.51,43.4Zm4,0H212a4,4,0,0,1-2.65,2.09A19.43,19.43,0,0,0,209.48,43.4ZM211.71,41a5.61,5.61,0,0,0-2.5-1.35,13,13,0,0,0-.32-1.33A5.05,5.05,0,0,1,211.71,41ZM207,38a5.66,5.66,0,0,1,1,.09,8.9,8.9,0,0,1,.37,1.41,8.86,8.86,0,0,0-1.38-.11,9.42,9.42,0,0,0-1.2.08,8.47,8.47,0,0,1,.39-1.41A5.32,5.32,0,0,1,207,38Zm-1.7.27a11.3,11.3,0,0,0-.33,1.36,5.73,5.73,0,0,0-2.7,1.4A5.08,5.08,0,0,1,205.29,38.27Zm-2.85,6.88A5.9,5.9,0,0,0,205,46.4a10,10,0,0,0,.31,1.15A5.05,5.05,0,0,1,202.44,45.15ZM207,47.82a6.84,6.84,0,0,1-.79,0,8.49,8.49,0,0,1-.35-1.21,10.57,10.57,0,0,0,1.14.07,9.68,9.68,0,0,0,1.33-.1,8,8,0,0,1-.35,1.2A5.33,5.33,0,0,1,207,47.82Zm1.88-.34a10.37,10.37,0,0,0,.28-1.13,5.86,5.86,0,0,0,2.38-1.19A5.06,5.06,0,0,1,208.87,47.48Z" transform="translate(-62.03 -26.31)"/></svg>