<svg id="Adyen" xmlns="http://www.w3.org/2000/svg" viewBox="0 0 254.97 82.23"><defs><style>.cls-1{fill:#2b9245;}</style></defs><path class="cls-1" d="M88.51,40.74H53.42V52H76.48A2.52,2.52,0,0,1,79,54.53V74.34H74a2.51,2.51,0,0,1-2.5-2.51V57.54H61.69a9,9,0,0,0-9,9v10a9,9,0,0,0,9,9H97.54V49.77A9,9,0,0,0,88.51,40.74Z" transform="translate(-52.66 -21.94)"/><path class="cls-1" d="M131.39,74.34h-5a2.52,2.52,0,0,1-2.51-2.51V40.74h-9.77a9,9,0,0,0-9,9V76.59a9,9,0,0,0,9,9h35.85V21.94h-18.8Z" transform="translate(-52.66 -21.94)"/><path class="cls-1" d="M183.78,74.34h-5a2.52,2.52,0,0,1-2.51-2.51V40.74h-18.8V76.59a9,9,0,0,0,9,9h17.29v5.51H158.21v13h35.35a9,9,0,0,0,9-9V40.74H183.78Z" transform="translate(-52.66 -21.94)"/><path class="cls-1" d="M246,40.74h-36.1V76.59a9,9,0,0,0,9,9h35.35V74.34H231.17a2.52,2.52,0,0,1-2.51-2.51V52h5a2.51,2.51,0,0,1,2.5,2.51V68.82H246a9,9,0,0,0,9-9v-10A9,9,0,0,0,246,40.74Z" transform="translate(-52.66 -21.94)"/><path class="cls-1" d="M298.36,40.74H262.51V85.62h18.8V52h5a2.52,2.52,0,0,1,2.51,2.51V85.62h18.8V49.77A9.37,9.37,0,0,0,298.36,40.74Z" transform="translate(-52.66 -21.94)"/></svg>