<svg id="Affirm" xmlns="http://www.w3.org/2000/svg" viewBox="0 0 166.73 66.53"><defs><style>.cls-1{fill:#121111;}.cls-1,.cls-2{fill-rule:evenodd;}.cls-2{fill:#2a99b6;}</style></defs><path class="cls-1" d="M119.16,58.7a22.63,22.63,0,0,0-12.55,4.38l2.59,5.42a14.88,14.88,0,0,1,9.25-3.82c3.14,0,4.86,1,4.86,3.14,0,1.44-1.16,2.15-3.31,2.43-8.13,1-14.5,3.27-14.5,9.53,0,4.94,3.54,8,9,8a10.7,10.7,0,0,0,9.12-5.06V87H131V69.06C131,61.69,125.86,58.7,119.16,58.7ZM116.41,82c-2.07,0-3.1-1-3.1-2.67,0-3.11,3.46-4.15,9.8-4.82C123.15,78.66,120.32,82,116.41,82Zm83.71-17.89V59.5h-7.33V87h7.85V73.72c0-6.3,3.78-8.13,6.45-8.13a6.07,6.07,0,0,1,3.35,1l1.43-7.25a8.81,8.81,0,0,0-3.5-.64c-4,0-6.58,1.79-8.25,5.42Zm48.17-5.42a11,11,0,0,0-8.89,4.82c-1.51-3.07-4.66-4.82-8.49-4.82a9.17,9.17,0,0,0-8.36,4.94V59.5H215V87h7.85V72.8c0-5.06,2.67-7.49,5.14-7.49,2.23,0,4.3,1.44,4.3,5.18V87h7.89V72.8c0-5.14,2.59-7.49,5.18-7.49,2.07,0,4.26,1.52,4.26,5.14V87h7.85V68c0-6.17-4.14-9.28-9.16-9.28Zm-89.57-1.24v2H146.81V56.71c0-3.63,2.07-4.66,3.87-4.66a7.42,7.42,0,0,1,3.5.87l2.43-5.54a14,14,0,0,0-6.93-1.59c-5,0-10.72,2.83-10.72,11.71v2h-4.54v6.05H139V87h7.85V65.55h11.91V87h7.85V65.55h7.13v-6h-7.13V56.71c0-3.63,2.07-4.66,3.87-4.66a7.7,7.7,0,0,1,3.5.87l2.43-5.54a13.63,13.63,0,0,0-6.93-1.59C164.46,45.75,158.72,48.58,158.72,57.46Zm19.65,2h7.84V87h-7.84Z" transform="translate(-105.5 -21.21)"/><path class="cls-2" d="M224.1,21.21c-21.19,0-40.08,14.7-45.42,33.62h7.69c4.47-14.1,19.64-26.45,37.73-26.45,22,0,41,16.73,41,42.79A53.73,53.73,0,0,1,262.87,87h7.45l.08-.24a62.93,62.93,0,0,0,1.83-15.54c0-29-21.16-50-48.13-50" transform="translate(-105.5 -21.21)"/></svg>