<svg id="afterpay" xmlns="http://www.w3.org/2000/svg" viewBox="0 0 255.41 49.09"><path d="M301.36,43.34l-7.69-4.4-7.8-4.47a7.75,7.75,0,0,0-11.61,6.71v1a1.51,1.51,0,0,0,.78,1.34l3.62,2.06a1.5,1.5,0,0,0,2.25-1.31V41.89a1.53,1.53,0,0,1,2.29-1.33l7.11,4.09,7.1,4.07a1.52,1.52,0,0,1,0,2.64l-7.1,4.07-7.11,4.09a1.53,1.53,0,0,1-2.29-1.33V57a7.74,7.74,0,0,0-11.6-6.71l-7.81,4.47-7.69,4.4a7.76,7.76,0,0,0,0,13.45L261.5,77l7.81,4.47a7.75,7.75,0,0,0,11.6-6.72v-1a1.51,1.51,0,0,0-.78-1.33l-3.62-2.07a1.51,1.51,0,0,0-2.25,1.31v2.38A1.54,1.54,0,0,1,272,75.4l-7.11-4.09-7.09-4.07a1.52,1.52,0,0,1,0-2.65l7.09-4.07L272,56.43a1.54,1.54,0,0,1,2.29,1.34V59a7.75,7.75,0,0,0,11.61,6.71l7.8-4.47,7.69-4.4A7.76,7.76,0,0,0,301.36,43.34Z" transform="translate(-49.84 -33.43)"/><path d="M250.9,44.81,232.89,82h-7.47l6.74-13.9L221.55,44.81h7.67L236,60.41l7.42-15.6Z" transform="translate(-49.84 -33.43)"/><path d="M70.85,58a7.19,7.19,0,1,0-14.36,0,7.19,7.19,0,1,0,14.36,0m.07,13.21V67.79a10.58,10.58,0,0,1-8.34,3.85c-7.25,0-12.74-5.8-12.74-13.63s5.71-13.67,12.89-13.67a10.59,10.59,0,0,1,8.19,3.8V44.81h6.49V71.22Z" transform="translate(-49.84 -33.43)"/><path d="M109,65.35c-2.27,0-2.92-.85-2.92-3.07V50.56h4.18V44.81h-4.18V38.36H99.42v6.45H90.83V42.18c0-2.22.85-3.06,3.18-3.06h1.47V34h-3.2c-5.49,0-8.09,1.8-8.09,7.29v3.54H80.5v5.73h3.69V71.22h6.64V50.56h8.59V63.5c0,5.38,2.06,7.72,7.44,7.72h3.43V65.35Z" transform="translate(-49.84 -33.43)"/><path d="M132.85,55.63a6.33,6.33,0,0,0-6.56-5.49,6.51,6.51,0,0,0-6.64,5.49Zm-13.27,4.12a6.57,6.57,0,0,0,6.82,6.13,7,7,0,0,0,6.23-3.42h6.82c-1.57,5.6-6.6,9.18-13.2,9.18-8,0-13.58-5.6-13.58-13.58A13.35,13.35,0,0,1,126.4,44.32c7.87,0,13.59,5.8,13.59,13.74a8.57,8.57,0,0,1-.16,1.69Z" transform="translate(-49.84 -33.43)"/><path d="M182.32,58a7.19,7.19,0,1,0-7.19,7.56A7.33,7.33,0,0,0,182.32,58M161.4,82V44.81h6.49v3.42a10.49,10.49,0,0,1,8.33-3.91C183.36,44.32,189,50.19,189,58s-5.71,13.67-12.89,13.67a10.18,10.18,0,0,1-8-3.54V82H161.4Z" transform="translate(-49.84 -33.43)"/><path d="M212.37,58A7.19,7.19,0,1,0,198,58a7.19,7.19,0,1,0,14.36,0m.07,13.21V67.79a10.58,10.58,0,0,1-8.34,3.85c-7.25,0-12.74-5.8-12.74-13.63s5.72-13.67,12.9-13.67a10.57,10.57,0,0,1,8.18,3.8V44.81h6.49V71.22Z" transform="translate(-49.84 -33.43)"/><path d="M149.68,47.39a6.54,6.54,0,0,1,5.71-3.07,6.47,6.47,0,0,1,2.85.6v6.73a8.37,8.37,0,0,0-4.69-1.2c-2.25.31-3.67,2.36-3.67,5.12V71.19h-6.71V44.81h6.49v2.58Z" transform="translate(-49.84 -33.43)"/></svg>