<svg id="Alipay" xmlns="http://www.w3.org/2000/svg" viewBox="0 0 261.44 65.92"><defs><style>.cls-1{fill:#2270b1;}.cls-2{fill:#fff;}</style></defs><path class="cls-1" d="M103.59,20.85H59.16A10.51,10.51,0,0,0,48.69,31.41v44.8A10.52,10.52,0,0,0,59.16,86.77h44.43a10.51,10.51,0,0,0,10.47-10.56V31.41a10.51,10.51,0,0,0-10.47-10.56" transform="translate(-48.69 -20.85)"/><path class="cls-2" d="M66.35,71.54c-10.17,0-13.17-8.08-8.15-12.49,1.68-1.5,4.75-2.23,6.38-2.39,6-.6,11.63,1.72,18.23,5-4.64,6.1-10.55,9.91-16.46,9.91m36.16-9.3c-2.62-.88-6.13-2.23-10-3.66a53.64,53.64,0,0,0,5.45-13.9H85.05V40h15.78V37.39H85.05v-7.8H78.6a1.1,1.1,0,0,0-1.13,1.12v6.68h-16V40h16v4.68H64.29v2.61H89.86a46.48,46.48,0,0,1-3.69,9.08c-8.29-2.76-17.14-5-22.7-3.62a13,13,0,0,0-7.19,4.11C50.1,64.44,54.53,76,67.57,76c7.71,0,15.14-4.34,20.9-11.48,8.59,4.16,25.59,11.31,25.59,11.31V65.59s-2.14-.17-11.55-3.35" transform="translate(-48.69 -20.85)"/><path class="cls-1" d="M190.63,30.5c0,3.41,2.49,5.7,6,5.7s6-2.29,6-5.7a6,6,0,0,0-11.94,0" transform="translate(-48.69 -20.85)"/><path d="M174,74.11h10.36V26.23H174ZM140.71,57.52l6.17-21.32h.26L153,57.52ZM155.8,27.87H141.89L126.35,74.11h9.58l2.62-9H155l2.49,9h12.27Zm35.61,46.24h10.37V39H191.41ZM310.07,39l.07-.06h-9.78L294.2,60.34h-.33L286.79,39H275.18l14,35.29L283.31,85v.27h9.12ZM221,68.08a11.17,11.17,0,0,1-3.54-.52v-19a10.2,10.2,0,0,1,6.16-2.22c3.87,0,7,3.08,7,9.64,0,8.39-4.53,12.13-9.58,12.13m6.56-29.84c-3.81,0-6.76,1.44-10.1,4.2V39H207.09v46.3h10.37V73.79a22.48,22.48,0,0,0,6,.78c9.25,0,17.58-6.82,17.58-18.95,0-10.89-6-17.38-13.51-17.38m35.22,27.35c-2.75,1.51-4.33,2.1-6.16,2.1-2.5,0-4.07-1.64-4.07-4.27a3.71,3.71,0,0,1,1-2.75c1.25-1.25,3.68-2.17,9.25-3.48Zm10.36-.26V50.63c0-8-4.72-12.39-13.05-12.39-5.31,0-9,.91-15.67,2.95l1.83,8.07c6.1-2.76,8.79-3.94,11.61-3.94,3.41,0,4.92,2.43,4.92,6.17v.26c-11.87,2.23-15.54,3.47-17.84,5.77a9.52,9.52,0,0,0-2.43,6.95,10,10,0,0,0,10.17,10.37c3.67,0,6.62-1.38,10.63-4.4l.72,3.68h10.36Z" transform="translate(-48.69 -20.85)"/></svg>