<svg id="ApplePay" xmlns="http://www.w3.org/2000/svg" viewBox="0 0 159.79 65.61"><path d="M131.05,30.52c-1.88,2.22-4.87,4-7.87,3.71A11.12,11.12,0,0,1,126,26.09a11.75,11.75,0,0,1,7.8-4,11.83,11.83,0,0,1-2.74,8.46m2.71,4.31c-4.34-.25-8,2.46-10.11,2.46S118.41,35,115,35a12.85,12.85,0,0,0-10.89,6.62c-4.68,8.06-1.22,20,3.31,26.53,2.21,3.25,4.87,6.81,8.36,6.68,3.31-.12,4.62-2.15,8.62-2.15s5.18,2.15,8.68,2.09,5.89-3.25,8.11-6.49a28.36,28.36,0,0,0,3.62-7.46,11.76,11.76,0,0,1-7.05-10.71c-.07-6.68,5.46-9.86,5.71-10a12.34,12.34,0,0,0-9.68-5.24m25.07-9V74.44h7.55V57.8h10.46c9.55,0,16.26-6.55,16.26-16s-6.59-16-16-16Zm7.55,6.36h8.71c6.55,0,10.3,3.5,10.3,9.65s-3.75,9.67-10.33,9.67h-8.68ZM206.9,74.81c4.74,0,9.14-2.4,11.14-6.21h.15v5.84h7V50.22c0-7-5.62-11.55-14.27-11.55-8,0-13.95,4.59-14.17,10.89h6.81c.56-3,3.34-5,7.14-5,4.62,0,7.21,2.15,7.21,6.12V53.4l-9.42.56c-8.77.53-13.52,4.12-13.52,10.36S199.87,74.81,206.9,74.81Zm2-5.77c-4,0-6.58-1.94-6.58-4.9s2.46-4.84,7.18-5.12l8.39-.53v2.74C217.91,65.79,214,69,208.92,69Zm25.6,18.63c7.37,0,10.83-2.81,13.86-11.33l13.26-37.2H254l-8.89,28.74h-.16L236,39.14h-7.9l12.8,35.42-.69,2.16c-1.15,3.65-3,5-6.37,5-.59,0-1.74-.06-2.21-.12v5.83a20,20,0,0,0,2.87.19Z" transform="translate(-101.85 -22.06)"/></svg>