<svg id="APS" xmlns="http://www.w3.org/2000/svg" viewBox="0 0 268.66 26.74"><path d="M129.6,66.15a.45.45,0,0,1-.51-.51V48.52a.45.45,0,0,1,.51-.51h1.12a.53.53,0,0,1,.58.51l.13.81a6.37,6.37,0,0,1,4.3-1.7,4.72,4.72,0,0,1,3.89,1.79,7.64,7.64,0,0,1,1.43,4.88,7.83,7.83,0,0,1-1.5,5,4.89,4.89,0,0,1-4,1.88,5.67,5.67,0,0,1-3.94-1.5v6a.45.45,0,0,1-.51.51Zm5.37-7c2.34,0,3.51-1.57,3.51-4.73a6.07,6.07,0,0,0-.86-3.58,3,3,0,0,0-2.6-1.17,5.68,5.68,0,0,0-3.41,1.17v7.09A5.56,5.56,0,0,0,135,59.15Z" transform="translate(-45.82 -43.79)" style="fill:#4fa925"/><path d="M146.46,61.24a4,4,0,0,1-2.88-1,4,4,0,0,1,.24-5.72,5.36,5.36,0,0,1,3.56-1.11,13.67,13.67,0,0,1,3.21.43V52.13A2.49,2.49,0,0,0,150,50.2a3.17,3.17,0,0,0-2.12-.56,11.79,11.79,0,0,0-3.44.51,3.63,3.63,0,0,1-.73.18c-.21,0-.31-.16-.31-.46v-.69a.86.86,0,0,1,.1-.48.91.91,0,0,1,.41-.28,8.31,8.31,0,0,1,2-.57,13,13,0,0,1,2.4-.22,5.35,5.35,0,0,1,3.56,1A3.88,3.88,0,0,1,153,51.7v8.7a.45.45,0,0,1-.51.51h-1.1a.52.52,0,0,1-.56-.48l-.12-.84a7.13,7.13,0,0,1-2,1.22A5.94,5.94,0,0,1,146.46,61.24Zm.61-1.91a5.19,5.19,0,0,0,1.76-.33,6.51,6.51,0,0,0,1.76-1V55.44a11.59,11.59,0,0,0-2.7-.33c-1.92,0-2.88.74-2.88,2.21a2,2,0,0,0,.54,1.49A2.06,2.06,0,0,0,147.07,59.33Z" transform="translate(-45.82 -43.79)" style="fill:#4fa925"/><path d="M156.79,66.45a5.83,5.83,0,0,1-1.45-.17.68.68,0,0,1-.42-.26,1,1,0,0,1-.11-.51v-.66c0-.32.13-.48.38-.48a2.63,2.63,0,0,1,.38,0,4.07,4.07,0,0,0,.69,0,2.24,2.24,0,0,0,1.49-.47,4,4,0,0,0,1-1.67l.48-1.29L154.3,48.93a1.92,1.92,0,0,1-.18-.61c0-.21.12-.31.36-.31H156a.87.87,0,0,1,.56.13,1.3,1.3,0,0,1,.31.56l3.56,9.87,3.43-9.87a1.42,1.42,0,0,1,.31-.56.87.87,0,0,1,.56-.13h1.42c.24,0,.36.1.36.31a1.92,1.92,0,0,1-.18.61l-5.59,14.24a6.19,6.19,0,0,1-1.61,2.52A3.52,3.52,0,0,1,156.79,66.45Z" transform="translate(-45.82 -43.79)" style="fill:#4fa925"/><path d="M168.54,60.91a.44.44,0,0,1-.5-.51V48.52a.44.44,0,0,1,.5-.51h1.12a.76.76,0,0,1,.4.1.65.65,0,0,1,.19.39l.15.81a8.41,8.41,0,0,1,4.76-1.68,3.18,3.18,0,0,1,3.2,1.81,8.58,8.58,0,0,1,5-1.81,3.56,3.56,0,0,1,2.7,1,4,4,0,0,1,.94,2.83V60.4a.45.45,0,0,1-.51.51H185a.45.45,0,0,1-.51-.51V52.16a3,3,0,0,0-.48-1.88,1.83,1.83,0,0,0-1.53-.61,7.19,7.19,0,0,0-3.74,1.14,2.34,2.34,0,0,1,0,.38V60.4a.45.45,0,0,1-.51.51h-1.5a.45.45,0,0,1-.51-.51V52.16a2.94,2.94,0,0,0-.49-1.88,1.81,1.81,0,0,0-1.52-.61,6.94,6.94,0,0,0-3.72,1.11V60.4a.45.45,0,0,1-.5.51Z" transform="translate(-45.82 -43.79)" style="fill:#4fa925"/><path d="M195.61,61.29a6.14,6.14,0,0,1-4.73-1.73,7.26,7.26,0,0,1-1.6-5.11,7.28,7.28,0,0,1,1.6-5,5.71,5.71,0,0,1,4.48-1.79A4.86,4.86,0,0,1,199.07,49a5.39,5.39,0,0,1,1.3,3.86,11.69,11.69,0,0,1-.13,1.65.68.68,0,0,1-.17.41.55.55,0,0,1-.36.1h-8a4.57,4.57,0,0,0,1.08,3.23,4.34,4.34,0,0,0,3.19,1,9.75,9.75,0,0,0,1.46-.1,12.28,12.28,0,0,0,1.77-.43l.31-.09a.66.66,0,0,1,.23,0c.22,0,.33.15.33.46v.71a.89.89,0,0,1-.1.47,1.22,1.22,0,0,1-.44.29,9,9,0,0,1-1.82.54A11.62,11.62,0,0,1,195.61,61.29Zm2.44-8a5.17,5.17,0,0,0,0-.66,3.3,3.3,0,0,0-.73-2.34,2.72,2.72,0,0,0-2.12-.79,3.25,3.25,0,0,0-2.49,1,4.43,4.43,0,0,0-1,2.84Z" transform="translate(-45.82 -43.79)" style="fill:#4fa925"/><path d="M203.09,60.91a.45.45,0,0,1-.51-.51V48.52a.45.45,0,0,1,.51-.51h1.12a.7.7,0,0,1,.39.1.56.56,0,0,1,.19.39l.16.94A8.32,8.32,0,0,1,210,47.63a3.83,3.83,0,0,1,2.83,1,3.89,3.89,0,0,1,1,2.84V60.4a.45.45,0,0,1-.51.51h-1.5a.44.44,0,0,1-.5-.51V52.29a3,3,0,0,0-.55-2,2.17,2.17,0,0,0-1.72-.63A7,7,0,0,0,205.1,51V60.4a.45.45,0,0,1-.51.51Z" transform="translate(-45.82 -43.79)" style="fill:#4fa925"/><path d="M221.23,61.09q-3.61,0-3.62-3.62V50h-1.83a.45.45,0,0,1-.51-.51v-.83a.56.56,0,0,1,.12-.38.79.79,0,0,1,.44-.18l1.86,0,0-3.15a.49.49,0,0,1,.53-.51h1.37a.45.45,0,0,1,.51.51V48h2.19a.45.45,0,0,1,.51.51v1a.45.45,0,0,1-.51.51h-2.19v7.35a1.71,1.71,0,0,0,.42,1.32,2.16,2.16,0,0,0,1.44.38,6.48,6.48,0,0,0,1.19-.13,3.27,3.27,0,0,1,.51-.07A.32.32,0,0,1,224,59a.7.7,0,0,1,.08.37V60a.92.92,0,0,1-.1.49.72.72,0,0,1-.41.27A7.64,7.64,0,0,1,221.23,61.09Z" transform="translate(-45.82 -43.79)" style="fill:#4fa925"/><path d="M235.67,61.29a10,10,0,0,1-3.84-.71,1.13,1.13,0,0,1-.42-.28.85.85,0,0,1-.11-.48V59.1c0-.3.1-.46.3-.46a2.59,2.59,0,0,1,.64.16,11.62,11.62,0,0,0,3.49.53,3.14,3.14,0,0,0,1.89-.48,1.64,1.64,0,0,0,.65-1.4,1.31,1.31,0,0,0-.39-1,4.4,4.4,0,0,0-1.44-.77l-2.16-.81c-1.89-.7-2.83-1.88-2.83-3.56a3.24,3.24,0,0,1,1.29-2.67,5.25,5.25,0,0,1,3.37-1,9.23,9.23,0,0,1,3.23.59.81.81,0,0,1,.43.26.79.79,0,0,1,.13.5v.69q0,.45-.33.45A2.4,2.4,0,0,1,239,50a9.16,9.16,0,0,0-2.75-.41c-1.62,0-2.44.55-2.44,1.65a1.39,1.39,0,0,0,.41,1,5.24,5.24,0,0,0,1.6.83l2,.77A5.23,5.23,0,0,1,240,55.27a3.18,3.18,0,0,1,.66,2.08,3.47,3.47,0,0,1-1.35,2.87A5.62,5.62,0,0,1,235.67,61.29Z" transform="translate(-45.82 -43.79)" style="fill:#4fa925"/><path d="M248.27,61.29a6.13,6.13,0,0,1-4.73-1.73,7.27,7.27,0,0,1-1.61-5.11,7.29,7.29,0,0,1,1.61-5A5.69,5.69,0,0,1,248,47.63,4.9,4.9,0,0,1,251.73,49,5.39,5.39,0,0,1,253,52.85a11.66,11.66,0,0,1-.12,1.65.75.75,0,0,1-.17.41.61.61,0,0,1-.37.1h-8a4.62,4.62,0,0,0,1.09,3.23,4.33,4.33,0,0,0,3.19,1,9.85,9.85,0,0,0,1.46-.1,12.28,12.28,0,0,0,1.77-.43l.3-.09a.7.7,0,0,1,.23,0c.22,0,.33.15.33.46v.71a.8.8,0,0,1-.1.47,1.16,1.16,0,0,1-.43.29,9.18,9.18,0,0,1-1.82.54A11.62,11.62,0,0,1,248.27,61.29Zm2.44-8a5.66,5.66,0,0,0,0-.66,3.34,3.34,0,0,0-.72-2.34,2.73,2.73,0,0,0-2.13-.79,3.28,3.28,0,0,0-2.49,1,4.55,4.55,0,0,0-1,2.84Z" transform="translate(-45.82 -43.79)" style="fill:#4fa925"/><path d="M255.75,60.91a.45.45,0,0,1-.51-.51V48.52a.45.45,0,0,1,.51-.51h1.11a.74.74,0,0,1,.4.1.6.6,0,0,1,.19.39l.18,1.42a9.34,9.34,0,0,1,1.29-1.17,4.69,4.69,0,0,1,1.26-.64,4.86,4.86,0,0,1,1.39-.2c.2,0,.41,0,.61,0a.41.41,0,0,1,.43.45v1.38a.4.4,0,0,1-.45.45,3.24,3.24,0,0,1-.45,0,3.38,3.38,0,0,0-.47,0,5.22,5.22,0,0,0-3.49,1.23v9a.44.44,0,0,1-.5.51Z" transform="translate(-45.82 -43.79)" style="fill:#4fa925"/><path d="M268.9,60.91a1,1,0,0,1-.53-.1,1.28,1.28,0,0,1-.34-.59l-4.5-11.29c0-.1-.07-.21-.12-.31a.74.74,0,0,1-.06-.28c0-.22.13-.33.38-.33h1.5a1.11,1.11,0,0,1,.54.1,1.39,1.39,0,0,1,.33.59l3.48,9.92,3.49-9.92a1.39,1.39,0,0,1,.33-.59,1.09,1.09,0,0,1,.53-.1h1.4c.26,0,.38.11.38.33a.74.74,0,0,1-.06.28c0,.1-.08.21-.11.31l-4.48,11.29a1.28,1.28,0,0,1-.34.59,1.06,1.06,0,0,1-.53.1Z" transform="translate(-45.82 -43.79)" style="fill:#4fa925"/><path d="M278.56,46.84a1.53,1.53,0,0,1-1.15-.42,1.66,1.66,0,0,1,0-2.21,1.53,1.53,0,0,1,1.15-.42,1.57,1.57,0,0,1,1.16.42,1.66,1.66,0,0,1,0,2.21A1.57,1.57,0,0,1,278.56,46.84Zm-.76,14.07a.45.45,0,0,1-.51-.51V48.52a.45.45,0,0,1,.51-.51h1.5a.45.45,0,0,1,.51.51V60.4a.45.45,0,0,1-.51.51Z" transform="translate(-45.82 -43.79)" style="fill:#4fa925"/><path d="M288.23,61.19a5.93,5.93,0,0,1-4.59-1.72,7,7,0,0,1-1.59-5,7,7,0,0,1,1.64-5,6,6,0,0,1,4.64-1.77,7.63,7.63,0,0,1,2.7.49.78.78,0,0,1,.39.25.83.83,0,0,1,.12.51v.69c0,.33-.11.5-.33.5a1.64,1.64,0,0,1-.41-.07,7.29,7.29,0,0,0-2.11-.31,3.89,3.89,0,0,0-3.08,1.08,5.17,5.17,0,0,0-.94,3.45v.33a5.09,5.09,0,0,0,.95,3.4,3.83,3.83,0,0,0,3,1.08,8.17,8.17,0,0,0,2.29-.36,1.62,1.62,0,0,1,.38-.07c.22,0,.33.17.33.5v.69a1,1,0,0,1-.1.48.84.84,0,0,1-.41.28A7.25,7.25,0,0,1,288.23,61.19Z" transform="translate(-45.82 -43.79)" style="fill:#4fa925"/><path d="M299,61.29a6.16,6.16,0,0,1-4.73-1.73,7.26,7.26,0,0,1-1.6-5.11,7.28,7.28,0,0,1,1.6-5,5.71,5.71,0,0,1,4.48-1.79A4.86,4.86,0,0,1,302.47,49a5.35,5.35,0,0,1,1.3,3.86,10.37,10.37,0,0,1-.13,1.65.69.69,0,0,1-.16.41.61.61,0,0,1-.37.1h-8a4.66,4.66,0,0,0,1.08,3.23,4.35,4.35,0,0,0,3.2,1,9.85,9.85,0,0,0,1.46-.1,12.6,12.6,0,0,0,1.77-.43l.3-.09a.7.7,0,0,1,.23,0c.22,0,.33.15.33.46v.71a.8.8,0,0,1-.1.47,1.16,1.16,0,0,1-.43.29,9.18,9.18,0,0,1-1.82.54A11.73,11.73,0,0,1,299,61.29Zm2.45-8c0-.14,0-.36,0-.66a3.34,3.34,0,0,0-.72-2.34,2.74,2.74,0,0,0-2.13-.79,3.25,3.25,0,0,0-2.49,1,4.55,4.55,0,0,0-1,2.84Z" transform="translate(-45.82 -43.79)" style="fill:#4fa925"/><path d="M309.55,61.29a10,10,0,0,1-3.85-.71,1.13,1.13,0,0,1-.42-.28.85.85,0,0,1-.11-.48V59.1c0-.3.1-.46.31-.46a2.66,2.66,0,0,1,.63.16,11.62,11.62,0,0,0,3.49.53,3.14,3.14,0,0,0,1.89-.48,1.64,1.64,0,0,0,.65-1.4,1.31,1.31,0,0,0-.39-1,4.4,4.4,0,0,0-1.44-.77l-2.16-.81c-1.89-.7-2.83-1.88-2.83-3.56a3.24,3.24,0,0,1,1.29-2.67,5.25,5.25,0,0,1,3.37-1,9.23,9.23,0,0,1,3.23.59.81.81,0,0,1,.43.26.79.79,0,0,1,.13.5v.69q0,.45-.33.45a2.4,2.4,0,0,1-.59-.12,9.15,9.15,0,0,0-2.74-.41c-1.63,0-2.45.55-2.45,1.65a1.39,1.39,0,0,0,.41,1,5.37,5.37,0,0,0,1.6.83l2,.77a5.23,5.23,0,0,1,2.16,1.38,3.18,3.18,0,0,1,.66,2.08,3.47,3.47,0,0,1-1.35,2.87A5.61,5.61,0,0,1,309.55,61.29Z" transform="translate(-45.82 -43.79)" style="fill:#4fa925"/><path d="M93,65.54c-4.42,3.26-10.82,5-16.33,5a29.51,29.51,0,0,1-20-7.61c-.42-.37,0-.88.45-.59a40.19,40.19,0,0,0,20,5.29,39.69,39.69,0,0,0,15.22-3.11c.75-.32,1.38.49.65,1Z" transform="translate(-45.82 -43.79)" style="fill:#111525;fill-rule:evenodd"/><path d="M94.8,63.44c-.56-.72-3.73-.34-5.15-.17-.44,0-.5-.32-.11-.6,2.52-1.77,6.67-1.26,7.15-.67s-.13,4.76-2.5,6.74c-.36.3-.71.14-.55-.26.53-1.33,1.73-4.31,1.16-5Z" transform="translate(-45.82 -43.79)" style="fill:#111525;fill-rule:evenodd"/><path d="M89.75,50.13V48.41a.42.42,0,0,1,.43-.44h7.74a.43.43,0,0,1,.44.43v1.48A2.38,2.38,0,0,1,97.78,51l-4,5.72a8.51,8.51,0,0,1,4.41,1,.76.76,0,0,1,.41.67v1.84c0,.25-.27.55-.57.39a8.9,8.9,0,0,0-8.16,0c-.27.14-.55-.15-.55-.4V58.41a2.1,2.1,0,0,1,.28-1.19l4.64-6.65h-4a.43.43,0,0,1-.44-.44Z" transform="translate(-45.82 -43.79)" style="fill:#111525;fill-rule:evenodd"/><path d="M105,50.21c-1.74,0-1.85,2.36-1.85,3.84s0,4.62,1.83,4.62,1.91-2.54,1.91-4.09a11.43,11.43,0,0,0-.35-3.2A1.48,1.48,0,0,0,105,50.21Zm0-2.46c3.49,0,5.38,3,5.38,6.81s-2.09,6.6-5.38,6.6-5.29-3-5.29-6.73,1.88-6.68,5.29-6.68Z" transform="translate(-45.82 -43.79)" style="fill:#111525;fill-rule:evenodd"/><path d="M86,60.88a.51.51,0,0,1-.56,0,6.2,6.2,0,0,1-1.35-1.57,4.64,4.64,0,0,1-3.88,1.71,3.34,3.34,0,0,1-3.52-3.66,4,4,0,0,1,2.51-3.85,16.19,16.19,0,0,1,4.42-.81,4.12,4.12,0,0,0-.28-2A1.64,1.64,0,0,0,82,50.13a1.79,1.79,0,0,0-1.89,1.38c0,.26-.24.48-.44.46l-2.25-.25a.41.41,0,0,1-.35-.49c.52-2.76,3-3.6,5.26-3.6a5.36,5.36,0,0,1,3.54,1.17c1.14,1.07,1,2.5,1,4.05v3.66a3.19,3.19,0,0,0,.89,2.18c.15.22.19.47,0,.63-.48.4-1.8,1.56-1.8,1.56Zm-2.38-5.74a4.56,4.56,0,0,1-.44,2.5,1.9,1.9,0,0,1-1.62,1.07c-.91,0-1.44-.69-1.44-1.71,0-2,1.8-2.37,3.5-2.37v.51Z" transform="translate(-45.82 -43.79)" style="fill:#111525;fill-rule:evenodd"/><path d="M55.12,60.88a.51.51,0,0,1-.56,0,6.05,6.05,0,0,1-1.34-1.57,4.67,4.67,0,0,1-3.88,1.71,3.34,3.34,0,0,1-3.52-3.66,4,4,0,0,1,2.51-3.85,16.05,16.05,0,0,1,4.42-.81,4.16,4.16,0,0,0-.29-2,1.63,1.63,0,0,0-1.32-.61,1.79,1.79,0,0,0-1.88,1.38c0,.26-.24.48-.44.46l-2.26-.25a.41.41,0,0,1-.35-.49c.53-2.76,3-3.6,5.26-3.6A5.34,5.34,0,0,1,55,48.8c1.15,1.07,1,2.5,1,4.05v3.66a3.19,3.19,0,0,0,.89,2.18.45.45,0,0,1,0,.63c-.48.4-1.81,1.56-1.81,1.56Zm-2.37-5.74a4.65,4.65,0,0,1-.44,2.5,1.93,1.93,0,0,1-1.63,1.07c-.9,0-1.43-.69-1.43-1.71,0-2,1.8-2.37,3.5-2.37v.51Z" transform="translate(-45.82 -43.79)" style="fill:#111525;fill-rule:evenodd"/><path d="M62,54.07c0-1.39-.07-3.33,1.62-3.33s1.45,2,1.45,3.33v6.4a.46.46,0,0,0,.43.44h2.35a.45.45,0,0,0,.45-.44v-6.4a7.35,7.35,0,0,1,.22-2.31,1.55,1.55,0,0,1,1.4-1,1.24,1.24,0,0,1,1.39,1,15.4,15.4,0,0,1,.06,2.26v6.4a.46.46,0,0,0,.43.44h2.35a.45.45,0,0,0,.45-.44V52.85c0-1.29.15-2.77-.59-3.78A3.47,3.47,0,0,0,68,50a3.24,3.24,0,0,0-6.15,0h0V48.44A.44.44,0,0,0,61.4,48H59.21a.44.44,0,0,0-.44.44v12a.44.44,0,0,0,.44.44h2.35a.44.44,0,0,0,.44-.44v-6.4Z" transform="translate(-45.82 -43.79)" style="fill:#111525;fill-rule:evenodd"/><path d="M115.38,60.47a.44.44,0,0,1-.44.44h-2.35a.44.44,0,0,1-.43-.44v-12a.44.44,0,0,1,.43-.44h2.18a.44.44,0,0,1,.44.34v1.85h0c.66-1.66,1.58-2.44,3.21-2.44a3.08,3.08,0,0,1,2.74,1.42,7.61,7.61,0,0,1,.62,3.76v7.6a.45.45,0,0,1-.45.38H119a.45.45,0,0,1-.42-.38v-7.3c0-2.44-.93-2.51-1.47-2.51a1.63,1.63,0,0,0-1.36,1,5.57,5.57,0,0,0-.38,2.3v6.5Z" transform="translate(-45.82 -43.79)" style="fill:#111525;fill-rule:evenodd"/></svg>