<svg id="Argencard" xmlns="http://www.w3.org/2000/svg" xmlns:xlink="http://www.w3.org/1999/xlink" viewBox="0 0 71.58 72.2"><defs><style>.cls-1{fill:none;}.cls-2{clip-path:url(#clip-path);}.cls-3{fill:#fa100c;}.cls-3,.cls-5{fill-rule:evenodd;}.cls-4{clip-path:url(#clip-path-2);}.cls-5{fill:#1b1918;}</style><clipPath id="clip-path" transform="translate(-143.49 -25.2)"><rect class="cls-1" x="143.43" y="24.7" width="71.55" height="51.34"/></clipPath><clipPath id="clip-path-2" transform="translate(-143.49 -25.2)"><rect class="cls-1" x="144.5" y="80.32" width="70.48" height="17.11"/></clipPath></defs><g id="surface1"><g class="cls-2"><path class="cls-3" d="M194.43,61.55,184.34,75.48c-2.76-.61-40.42,5.91-40.85-26.52.5-7.19,3.08-24.29,35.41-23.73,23.24-.51,29.35,8,28.57,7.05a24.34,24.34,0,0,1,7.6,13.11V75.48H197.31V39.29l-34.57,0,0,22.4Z" transform="translate(-143.49 -25.2)"/></g><g class="cls-4"><path class="cls-5" d="M154.6,92.93a3.51,3.51,0,0,1,.12.55.31.31,0,0,1-.07.3.45.45,0,0,1-.31.13,5.36,5.36,0,0,1-.64,0l-.65,0a1.31,1.31,0,0,1-.35-.06.34.34,0,0,1-.18-.12,1.38,1.38,0,0,1-.08-.2L151.73,91h-4l-.66,2.44a1.85,1.85,0,0,1-.09.23.42.42,0,0,1-.17.15,1.81,1.81,0,0,1-.34.07l-.57,0a4.47,4.47,0,0,1-.59,0,.47.47,0,0,1-.3-.14.46.46,0,0,1-.05-.32,2.71,2.71,0,0,1,.12-.54l3.27-11.08a1.14,1.14,0,0,1,.12-.27.41.41,0,0,1,.2-.16,1.79,1.79,0,0,1,.4-.06l.67,0,.78,0a2.12,2.12,0,0,1,.44.06.41.41,0,0,1,.23.17.72.72,0,0,1,.12.29Zm-4.87-9.16h0l-1.5,5.31h3Zm10.92,2c0,.23,0,.42,0,.56a2.21,2.21,0,0,1,0,.36.3.3,0,0,1-.09.17.19.19,0,0,1-.13,0,.42.42,0,0,1-.15,0l-.18-.07-.23-.07a1.1,1.1,0,0,0-.27,0,.84.84,0,0,0-.34.08,1.63,1.63,0,0,0-.36.26,3.46,3.46,0,0,0-.39.47c-.13.19-.27.43-.43.71v5.37a.33.33,0,0,1,0,.17.43.43,0,0,1-.17.12,1.56,1.56,0,0,1-.32.07,3.34,3.34,0,0,1-.5,0,3.43,3.43,0,0,1-.5,0,1.61,1.61,0,0,1-.31-.07.32.32,0,0,1-.17-.12.34.34,0,0,1,0-.17V84.93a.38.38,0,0,1,0-.16.31.31,0,0,1,.15-.12.86.86,0,0,1,.27-.08,2.68,2.68,0,0,1,.42,0,2.76,2.76,0,0,1,.44,0,.79.79,0,0,1,.27.08.3.3,0,0,1,.13.12.27.27,0,0,1,0,.16V86a7.61,7.61,0,0,1,.54-.79,2.92,2.92,0,0,1,.49-.5,1.27,1.27,0,0,1,.45-.25,1.54,1.54,0,0,1,.46-.08l.23,0a1,1,0,0,1,.25,0l.23.07a.49.49,0,0,1,.15.09l.07.11a1.57,1.57,0,0,1,0,.16c0,.07,0,.17,0,.31Zm7.67-.2a2,2,0,0,1-.09.68c-.06.15-.13.22-.22.22h-.86a1.64,1.64,0,0,1,.26.53,2.43,2.43,0,0,1,.08.61,4,4,0,0,1-.22,1.34,2.58,2.58,0,0,1-1.57,1.59,3.52,3.52,0,0,1-1.25.21,2.13,2.13,0,0,1-.67-.1,1.59,1.59,0,0,1-.49-.24,1.49,1.49,0,0,0-.18.3,1,1,0,0,0-.07.38.55.55,0,0,0,.21.47,1,1,0,0,0,.58.19l1.78.08a3.71,3.71,0,0,1,1.11.21,2.41,2.41,0,0,1,.82.5,2.29,2.29,0,0,1,.51.78,3,3,0,0,1,.17,1,3.07,3.07,0,0,1-.24,1.21,2.59,2.59,0,0,1-.71,1,3.32,3.32,0,0,1-1.19.66,5.32,5.32,0,0,1-1.68.24,6.14,6.14,0,0,1-1.59-.17,3.38,3.38,0,0,1-1.08-.48,1.88,1.88,0,0,1-.62-.74,2.26,2.26,0,0,1-.19-.94,2.37,2.37,0,0,1,.07-.61,2.2,2.2,0,0,1,.2-.56,2.66,2.66,0,0,1,.34-.51,6.23,6.23,0,0,1,.44-.46,1.56,1.56,0,0,1-.54-.6,1.85,1.85,0,0,1-.19-.84,2.4,2.4,0,0,1,.22-1,3.46,3.46,0,0,1,.57-.84,2.9,2.9,0,0,1-.46-.81,3.64,3.64,0,0,1-.17-1.18,3.82,3.82,0,0,1,.23-1.35,3,3,0,0,1,.62-1,2.59,2.59,0,0,1,1-.63,3.49,3.49,0,0,1,1.23-.22,4.54,4.54,0,0,1,.66,0,4.68,4.68,0,0,1,.59.13H168c.09,0,.17.08.22.22A2,2,0,0,1,168.32,85.54Zm-2.65,2a1.67,1.67,0,0,0-.32-1.08,1.15,1.15,0,0,0-.93-.39,1.25,1.25,0,0,0-.53.12,1.13,1.13,0,0,0-.39.33,1.47,1.47,0,0,0-.22.49,2.12,2.12,0,0,0-.08.57,1.6,1.6,0,0,0,.33,1,1.16,1.16,0,0,0,.91.38,1.13,1.13,0,0,0,.54-.12.91.91,0,0,0,.38-.32,1.25,1.25,0,0,0,.23-.46A1.77,1.77,0,0,0,165.67,87.57Zm.49,6.88a.81.81,0,0,0-.3-.67,1.37,1.37,0,0,0-.81-.25l-1.47,0a2.09,2.09,0,0,0-.33.35,2.21,2.21,0,0,0-.21.33.88.88,0,0,0-.1.3,1.39,1.39,0,0,0,0,.3.81.81,0,0,0,.41.73,2.87,2.87,0,0,0,2,.14,1.41,1.41,0,0,0,.51-.3.87.87,0,0,0,.28-.41A1.27,1.27,0,0,0,166.16,94.45ZM176.26,89a1.09,1.09,0,0,1-.16.66.58.58,0,0,1-.47.21h-4.45a4.37,4.37,0,0,0,.11,1,2.13,2.13,0,0,0,.35.76,1.58,1.58,0,0,0,.63.48,2.27,2.27,0,0,0,.91.17,4.4,4.4,0,0,0,.95-.1,4.73,4.73,0,0,0,.71-.2c.2-.07.37-.14.5-.2a.82.82,0,0,1,.32-.1.21.21,0,0,1,.12,0,.23.23,0,0,1,.08.12,1.09,1.09,0,0,1,0,.25c0,.1,0,.24,0,.4s0,.26,0,.36,0,.18,0,.26a.69.69,0,0,1,0,.17.42.42,0,0,1-.09.14.81.81,0,0,1-.29.19,6.27,6.27,0,0,1-.61.23c-.24.07-.52.13-.84.19a6.49,6.49,0,0,1-1,.08,4.71,4.71,0,0,1-1.71-.29,3.06,3.06,0,0,1-1.22-.88,3.93,3.93,0,0,1-.74-1.49,8.64,8.64,0,0,1-.23-2.1,7.73,7.73,0,0,1,.25-2.07,4.48,4.48,0,0,1,.74-1.57,3.24,3.24,0,0,1,1.17-1,3.61,3.61,0,0,1,1.56-.34,3.54,3.54,0,0,1,1.57.32,2.81,2.81,0,0,1,1.07.89,3.68,3.68,0,0,1,.62,1.34,6.78,6.78,0,0,1,.19,1.67Zm-2-.69a2.8,2.8,0,0,0-.34-1.61,1.29,1.29,0,0,0-1.16-.59,1.25,1.25,0,0,0-.68.18,1.5,1.5,0,0,0-.48.46,2.35,2.35,0,0,0-.3.7,4.57,4.57,0,0,0-.12.86ZM185,93.55a.34.34,0,0,1,0,.17.37.37,0,0,1-.17.12,1.44,1.44,0,0,1-.31.07,3.63,3.63,0,0,1-.5,0,3.43,3.43,0,0,1-.5,0,1.42,1.42,0,0,1-.32-.07.3.3,0,0,1-.16-.12.34.34,0,0,1-.05-.17V88.63a4.27,4.27,0,0,0-.08-1,2,2,0,0,0-.22-.61,1.07,1.07,0,0,0-.39-.4,1,1,0,0,0-.54-.14,1.24,1.24,0,0,0-.8.34,5.14,5.14,0,0,0-.83,1v5.73a.34.34,0,0,1-.05.17.37.37,0,0,1-.17.12,1.56,1.56,0,0,1-.32.07,3.34,3.34,0,0,1-.5,0,3.19,3.19,0,0,1-.49,0,1.73,1.73,0,0,1-.32-.07.32.32,0,0,1-.17-.12.34.34,0,0,1,0-.17V84.93a.38.38,0,0,1,0-.16.31.31,0,0,1,.15-.12.93.93,0,0,1,.28-.08,2.56,2.56,0,0,1,.42,0,2.69,2.69,0,0,1,.43,0,.72.72,0,0,1,.27.08.26.26,0,0,1,.13.12.27.27,0,0,1,0,.16v1A4.9,4.9,0,0,1,181,84.77a2.4,2.4,0,0,1,1.3-.39,2.51,2.51,0,0,1,1.27.3,2.35,2.35,0,0,1,.82.78,3.4,3.4,0,0,1,.45,1.17,7.31,7.31,0,0,1,.15,1.6Zm7.55-1.38c0,.18,0,.32,0,.43s0,.21,0,.28a.74.74,0,0,1-.05.19.56.56,0,0,1-.13.18,1.33,1.33,0,0,1-.34.27,2.42,2.42,0,0,1-.53.29,4.6,4.6,0,0,1-.66.2,3.65,3.65,0,0,1-.74.08,3.44,3.44,0,0,1-1.5-.31,3,3,0,0,1-1.09-.91,4.19,4.19,0,0,1-.66-1.48,7.43,7.43,0,0,1-.23-2,8.18,8.18,0,0,1,.27-2.24,4.38,4.38,0,0,1,.77-1.56,3.1,3.1,0,0,1,1.16-.92,3.59,3.59,0,0,1,1.48-.29,3.39,3.39,0,0,1,.64.06,2.72,2.72,0,0,1,.59.19,2.06,2.06,0,0,1,.49.26,1.27,1.27,0,0,1,.31.25.78.78,0,0,1,.13.18.56.56,0,0,1,0,.18,1.84,1.84,0,0,1,0,.29c0,.11,0,.25,0,.41a2.82,2.82,0,0,1-.08.79c-.06.15-.13.22-.21.22a.44.44,0,0,1-.3-.13l-.37-.3a2.45,2.45,0,0,0-.51-.3,1.68,1.68,0,0,0-.7-.14,1.35,1.35,0,0,0-1.23.73,4.37,4.37,0,0,0-.43,2.14,6.46,6.46,0,0,0,.11,1.23,2.9,2.9,0,0,0,.32.89,1.27,1.27,0,0,0,.52.53,1.44,1.44,0,0,0,.73.18,1.68,1.68,0,0,0,.74-.15,2.51,2.51,0,0,0,.53-.33l.39-.33a.38.38,0,0,1,.26-.15.16.16,0,0,1,.12,0,.38.38,0,0,1,.08.18c0,.09,0,.2.05.34S192.5,92,192.5,92.17Zm7.63,1.41a.26.26,0,0,1-.09.21.48.48,0,0,1-.25.11,2.42,2.42,0,0,1-.53,0,2.3,2.3,0,0,1-.53,0,.45.45,0,0,1-.24-.11.33.33,0,0,1-.07-.21v-.69a3.33,3.33,0,0,1-1,.89,2.61,2.61,0,0,1-1.28.32,3.08,3.08,0,0,1-1.07-.18,2.34,2.34,0,0,1-1.4-1.4,3.51,3.51,0,0,1-.19-1.22,3.29,3.29,0,0,1,.24-1.31,2.39,2.39,0,0,1,.75-.92,3.28,3.28,0,0,1,1.24-.53,7.24,7.24,0,0,1,1.71-.18h.71v-.52a3,3,0,0,0-.07-.71,1.1,1.1,0,0,0-.23-.5.86.86,0,0,0-.42-.3,1.83,1.83,0,0,0-.66-.1,2.94,2.94,0,0,0-.93.13,5.42,5.42,0,0,0-.71.3c-.21.11-.38.21-.52.3a.73.73,0,0,1-.34.14.23.23,0,0,1-.17-.07.56.56,0,0,1-.11-.19,1.8,1.8,0,0,1-.07-.31,2.62,2.62,0,0,1,0-.41,2,2,0,0,1,0-.47.77.77,0,0,1,.16-.31,1.17,1.17,0,0,1,.4-.31,3.81,3.81,0,0,1,.67-.32,5.61,5.61,0,0,1,.84-.24,4.76,4.76,0,0,1,.94-.09,4.88,4.88,0,0,1,1.47.2,2.35,2.35,0,0,1,1,.61,2.47,2.47,0,0,1,.58,1.06,5.74,5.74,0,0,1,.18,1.53Zm-2-3.69h-.78a4.19,4.19,0,0,0-.86.08,1.68,1.68,0,0,0-.57.27,1,1,0,0,0-.33.42,1.6,1.6,0,0,0-.1.56,1.2,1.2,0,0,0,.29.85,1,1,0,0,0,.81.31,1.3,1.3,0,0,0,.8-.26,3.36,3.36,0,0,0,.74-.76Zm8.78-4.15a4.45,4.45,0,0,1,0,.56,1.47,1.47,0,0,1-.05.36.38.38,0,0,1-.08.17.22.22,0,0,1-.14,0,.43.43,0,0,1-.14,0l-.19-.07L206,86.7a1.17,1.17,0,0,0-.27,0,.89.89,0,0,0-.35.08,2.27,2.27,0,0,0-.36.26,2.85,2.85,0,0,0-.38.47,7.74,7.74,0,0,0-.43.71v5.37a.34.34,0,0,1-.05.17.32.32,0,0,1-.17.12,1.61,1.61,0,0,1-.31.07,3.53,3.53,0,0,1-.5,0,3.34,3.34,0,0,1-.5,0,1.73,1.73,0,0,1-.32-.07.32.32,0,0,1-.17-.12.34.34,0,0,1,0-.17V84.93a.28.28,0,0,1,0-.16.24.24,0,0,1,.14-.12.93.93,0,0,1,.28-.08,2.56,2.56,0,0,1,.42,0,2.89,2.89,0,0,1,.44,0,.73.73,0,0,1,.26.08.22.22,0,0,1,.13.12.27.27,0,0,1,0,.16V86a9.45,9.45,0,0,1,.55-.79,3.33,3.33,0,0,1,.48-.5,1.31,1.31,0,0,1,.46-.25,1.48,1.48,0,0,1,.46-.08l.23,0a1.23,1.23,0,0,1,.25,0l.23.07a.66.66,0,0,1,.15.09.6.6,0,0,1,.06.11,1.23,1.23,0,0,1,0,.16c0,.07,0,.17,0,.31S206.88,85.5,206.88,85.74Zm8,7.81a.34.34,0,0,1,0,.18.28.28,0,0,1-.14.12,1.15,1.15,0,0,1-.27.07l-.41,0-.42,0a1.15,1.15,0,0,1-.27-.07.31.31,0,0,1-.15-.12.34.34,0,0,1,0-.18v-1A4.89,4.89,0,0,1,212,93.7a2.44,2.44,0,0,1-1.37.4,2.57,2.57,0,0,1-1.42-.38,2.92,2.92,0,0,1-.94-1,5.07,5.07,0,0,1-.53-1.51,9.78,9.78,0,0,1-.16-1.82,9.29,9.29,0,0,1,.21-2.07,5.2,5.2,0,0,1,.61-1.57,2.79,2.79,0,0,1,1-1,2.71,2.71,0,0,1,1.37-.35,2.13,2.13,0,0,1,1.12.3,4.22,4.22,0,0,1,1,.86V80.88a.31.31,0,0,1,0-.17.32.32,0,0,1,.16-.14,1.48,1.48,0,0,1,.32-.08,3.28,3.28,0,0,1,.49,0,3.58,3.58,0,0,1,.51,0,1.26,1.26,0,0,1,.3.08.35.35,0,0,1,.17.14.25.25,0,0,1,0,.17Zm-2-5.76a4.73,4.73,0,0,0-.85-1,1.3,1.3,0,0,0-.85-.35,1.07,1.07,0,0,0-.69.24,1.8,1.8,0,0,0-.47.63,4.33,4.33,0,0,0-.26.88,6.63,6.63,0,0,0-.08,1,7.12,7.12,0,0,0,.07,1,3.86,3.86,0,0,0,.24.92,1.8,1.8,0,0,0,.45.64,1,1,0,0,0,.7.24,1.23,1.23,0,0,0,.42-.07,1.9,1.9,0,0,0,.41-.23,3.62,3.62,0,0,0,.43-.44,5.79,5.79,0,0,0,.48-.65Z" transform="translate(-143.49 -25.2)"/></g></g></svg>