<svg id="Aura" xmlns="http://www.w3.org/2000/svg" viewBox="0 0 109.12 72.06"><defs><style>.cls-1,.cls-4{fill:#1a0876;}.cls-1,.cls-2,.cls-3{fill-rule:evenodd;}.cls-2{fill:#f7f719;}.cls-3{fill:#fa0f0c;}.cls-4{stroke:#1a0876;stroke-miterlimit:22.93;stroke-width:0.22px;}</style></defs><path class="cls-1" d="M121.5,24.59h109l.12,34c-13.16-5-55-17-109.12-2.05Z" transform="translate(-121.5 -24.59)"/><path class="cls-2" d="M121.5,96.65h109V69.47C210.84,62.89,175.89,53,121.5,67Z" transform="translate(-121.5 -24.59)"/><path class="cls-3" d="M230.5,69.47C210.84,62.89,175.89,53,121.5,67V56.51c54.09-14.93,96-2.95,109.12,2.05Z" transform="translate(-121.5 -24.59)"/><path class="cls-2" d="M156.22,50.11c2.7-7.46,8.87-13.89,19.59-13.81s17.88,6.18,19.82,14.2A187.35,187.35,0,0,0,156.22,50.11Z" transform="translate(-121.5 -24.59)"/><path class="cls-4" d="M145.85,82.88,153.15,72h2.71l7.78,10.87h-2.87l-2.22-3.29h-8l-2.08,3.29Zm5.48-4.46h6.45l-2-3a23,23,0,0,1-1.34-2.26,10.31,10.31,0,0,1-1,2.08l-2.09,3.19Zm25.07,4.46V81.73A6.63,6.63,0,0,1,172,83.06a9.62,9.62,0,0,1-2.27-.26,4.22,4.22,0,0,1-1.57-.68,2.06,2.06,0,0,1-.72-1,3.77,3.77,0,0,1-.14-1.24V75h2.33v4.36a4.71,4.71,0,0,0,.14,1.41,1.61,1.61,0,0,0,.93.83,4.61,4.61,0,0,0,1.77.3,6.35,6.35,0,0,0,2-.3,2.13,2.13,0,0,0,1.68-2.38V75h2.34v7.87Zm7.75,0V75h2.1V76.2a4.44,4.44,0,0,1,1.48-1.11,4.22,4.22,0,0,1,1.5-.26,7.12,7.12,0,0,1,2.4.43l-.81,1.24a5.08,5.08,0,0,0-1.71-.29,3.32,3.32,0,0,0-1.37.26,1.73,1.73,0,0,0-.87.73,3.17,3.17,0,0,0-.39,1.56v4.12Zm19.88-1a11.09,11.09,0,0,1-2.5.89,11.72,11.72,0,0,1-2.57.26,7.8,7.8,0,0,1-3.49-.63,1.87,1.87,0,0,1-1.22-1.62,1.49,1.49,0,0,1,.47-1.06,3.15,3.15,0,0,1,1.2-.77,8.57,8.57,0,0,1,1.68-.44c.46-.06,1.15-.13,2.07-.2a35.2,35.2,0,0,0,4.16-.46c0-.18,0-.3,0-.34a1.17,1.17,0,0,0-.67-1.15,5.91,5.91,0,0,0-2.65-.46,6.64,6.64,0,0,0-2.43.33,2.15,2.15,0,0,0-1.16,1.17l-2.28-.18a2.87,2.87,0,0,1,1-1.35,5.49,5.49,0,0,1,2.06-.8,16.08,16.08,0,0,1,3.13-.27,14.77,14.77,0,0,1,2.86.23,4.75,4.75,0,0,1,1.62.6,1.9,1.9,0,0,1,.73.91,4.79,4.79,0,0,1,.11,1.23v1.78a10.84,10.84,0,0,0,.15,2.36,2.35,2.35,0,0,0,.59.94h-2.44a2,2,0,0,1-.46-1Zm-.2-3a27.64,27.64,0,0,1-3.81.51,13.11,13.11,0,0,0-2,.26,2,2,0,0,0-.92.44.83.83,0,0,0-.33.63c0,.36.24.65.71.89a4.69,4.69,0,0,0,2.07.36,7.92,7.92,0,0,0,2.39-.34,3.36,3.36,0,0,0,1.55-.93,2,2,0,0,0,.37-1.33Z" transform="translate(-121.5 -24.59)"/></svg>