<svg id="Bancoomeva" xmlns="http://www.w3.org/2000/svg" viewBox="0 0 226.23 61.84"><defs><style>.cls-1{fill:#138148;}.cls-2{fill:#c9252c;}</style></defs><path class="cls-1" d="M66.37,69.18c10.57-31.24,30.84-48,30.84-48,10.93,14.31,15.41,25.7,15.41,25.7a202.77,202.77,0,0,0-13.7-18.84C76.18,47.77,66.37,69.18,66.37,69.18" transform="translate(-66.37 -21.21)"/><path class="cls-2" d="M68.08,82.89c10.58-31.25,30.84-48,30.84-48,10.93,14.32,15.42,25.7,15.42,25.7a204.54,204.54,0,0,0-13.7-18.84C77.89,61.48,68.08,82.89,68.08,82.89" transform="translate(-66.37 -21.21)"/><path class="cls-1" d="M286.66,75.81c0,.17,0,.35,0,.51a3.86,3.86,0,0,1-.09.49,3.13,3.13,0,0,1-.64,1.08,3.44,3.44,0,0,1-1.06.77,3.27,3.27,0,0,1-1.33.29,2.72,2.72,0,0,1-1.17-.24,1.9,1.9,0,0,1-.82-.74,2.45,2.45,0,0,1-.3-1.24A2.35,2.35,0,0,1,282,75a4.45,4.45,0,0,1,1.94-.92,12.94,12.94,0,0,1,2.77-.27Zm5.63-4.25a11.35,11.35,0,0,0-.4-3.14,6.8,6.8,0,0,0-1.36-2.58A6.26,6.26,0,0,0,288,64.09a10.59,10.59,0,0,0-3.91-.64,16.27,16.27,0,0,0-5.56.92,11.69,11.69,0,0,0-1.72.76l1.08,3.75a7.35,7.35,0,0,1,1.46-.7,9.69,9.69,0,0,1,1.78-.51,9,9,0,0,1,1.92-.2,5.62,5.62,0,0,1,1.75.23,2.72,2.72,0,0,1,1,.6,1.92,1.92,0,0,1,.5.8,2.38,2.38,0,0,1,.13.82v.23a21.52,21.52,0,0,0-4.51.43,11,11,0,0,0-3.46,1.32,6,6,0,0,0-3,5.4,5.81,5.81,0,0,0,.42,2.16,5.51,5.51,0,0,0,1.19,1.83,5.68,5.68,0,0,0,1.9,1.28,6.72,6.72,0,0,0,2.54.48,7.77,7.77,0,0,0,3.06-.59,6,6,0,0,0,2.3-1.71H287l.34,1.87h5.25a8.78,8.78,0,0,1-.18-1.23c-.05-.48-.08-1-.11-1.56s0-1.13,0-1.72Zm-35.48-7.65,6.82,18.71h5.82l7-18.71h-6.12l-2.41,8.69c-.22.79-.4,1.57-.57,2.31s-.31,1.48-.47,2.24h-.11c-.15-.74-.31-1.49-.48-2.23s-.36-1.53-.59-2.32l-2.53-8.69Zm-11.58,7.23a6.29,6.29,0,0,1,.29-1.24,4.59,4.59,0,0,1,.66-1.23,3.27,3.27,0,0,1,1.08-.94,3.56,3.56,0,0,1,3.22,0,2.88,2.88,0,0,1,1,1A3.84,3.84,0,0,1,252,70a5.25,5.25,0,0,1,.14,1.19Zm12.11,4c0-.22.08-.54.12-.94s.06-.86.06-1.36a13.46,13.46,0,0,0-.28-2.76,10.26,10.26,0,0,0-.91-2.54,7.41,7.41,0,0,0-1.6-2.09A7,7,0,0,0,252.37,64a8.92,8.92,0,0,0-3.19-.53,9.92,9.92,0,0,0-3.48.58A8.34,8.34,0,0,0,243,65.63a9.21,9.21,0,0,0-1.86,2.28,10.57,10.57,0,0,0-1.1,2.7,12.2,12.2,0,0,0-.36,2.87,10.38,10.38,0,0,0,1.19,5.07,7.87,7.87,0,0,0,3.39,3.29A11.79,11.79,0,0,0,249.72,83a21.91,21.91,0,0,0,3.61-.29,14.76,14.76,0,0,0,3.16-.9l-.77-3.94a13.59,13.59,0,0,1-2.42.6,16.72,16.72,0,0,1-2.74.2,8.29,8.29,0,0,1-2-.22,5.57,5.57,0,0,1-1.64-.65,3.56,3.56,0,0,1-1.17-1.11,3.18,3.18,0,0,1-.51-1.57Zm-48.11,7.49h5.66V71.72a5.06,5.06,0,0,1,.05-.77,2.6,2.6,0,0,1,.18-.73,3.73,3.73,0,0,1,.53-.94,2.87,2.87,0,0,1,.9-.79,2.52,2.52,0,0,1,1.29-.33,2.37,2.37,0,0,1,1.54.5,2.89,2.89,0,0,1,.89,1.38,6.69,6.69,0,0,1,.29,2.06V82.62h5.66v-11a6.93,6.93,0,0,1,.05-.77c0-.26.09-.5.14-.71a3.63,3.63,0,0,1,.59-1,2.67,2.67,0,0,1,.91-.72,2.53,2.53,0,0,1,1.22-.28,2.27,2.27,0,0,1,2.08,1.12,6,6,0,0,1,.68,3.16V82.62h5.66v-11a12.74,12.74,0,0,0-.47-3.65,7.19,7.19,0,0,0-1.33-2.54,5.49,5.49,0,0,0-2-1.48,6.49,6.49,0,0,0-2.51-.48,7,7,0,0,0-3.56.92,6.66,6.66,0,0,0-1.3,1,9.49,9.49,0,0,0-1.15,1.33h-.08A4.93,4.93,0,0,0,224,65a5,5,0,0,0-1.75-1.11,6,6,0,0,0-2.24-.4,7.13,7.13,0,0,0-2.11.29,6.14,6.14,0,0,0-1.61.74,5.68,5.68,0,0,0-1.16,1,6.29,6.29,0,0,0-.78,1h-.12L214,63.91h-4.94c0,.84.08,1.75.11,2.74s0,2.06,0,3.23ZM197,67.62a3.1,3.1,0,0,1,1.69.48,3.56,3.56,0,0,1,1.15,1.28,6.32,6.32,0,0,1,.66,1.8,9.64,9.64,0,0,1,.21,2,8.9,8.9,0,0,1-.45,3,4.51,4.51,0,0,1-1.28,2,3,3,0,0,1-2,.71,3.15,3.15,0,0,1-2.1-.74,4.48,4.48,0,0,1-1.29-2,8.91,8.91,0,0,1-.44-2.89,10,10,0,0,1,.21-2,6.15,6.15,0,0,1,.67-1.8,3.61,3.61,0,0,1,1.19-1.29,3.19,3.19,0,0,1,1.76-.49m.19-4.17a11.41,11.41,0,0,0-4.12.7,8.71,8.71,0,0,0-5.2,5.13,11.63,11.63,0,0,0-.71,4.12,10.8,10.8,0,0,0,.74,4.06,8.6,8.6,0,0,0,2,3,9.06,9.06,0,0,0,3.07,1.9,11.4,11.4,0,0,0,6.78.27,9.87,9.87,0,0,0,2.69-1.16,8.54,8.54,0,0,0,2.2-2,9.35,9.35,0,0,0,1.49-2.8,12.16,12.16,0,0,0,.54-3.67,11,11,0,0,0-.69-3.9,8.71,8.71,0,0,0-1.94-3,8.45,8.45,0,0,0-3-2,10.58,10.58,0,0,0-3.9-.7m-21.69,4.17a3.14,3.14,0,0,1,1.7.48,3.63,3.63,0,0,1,1.14,1.28,6.32,6.32,0,0,1,.66,1.8,9.64,9.64,0,0,1,.21,2,8.9,8.9,0,0,1-.45,3,4.34,4.34,0,0,1-1.28,2,3,3,0,0,1-2,.71,3.16,3.16,0,0,1-2.1-.74,4.48,4.48,0,0,1-1.29-2,8.91,8.91,0,0,1-.44-2.89,10,10,0,0,1,.21-2,6.44,6.44,0,0,1,.67-1.8,3.7,3.7,0,0,1,1.19-1.29,3.19,3.19,0,0,1,1.76-.49m.19-4.17a11.45,11.45,0,0,0-4.12.7,8.66,8.66,0,0,0-5.19,5.13,11.41,11.41,0,0,0-.72,4.12,10.8,10.8,0,0,0,.75,4.06,8.57,8.57,0,0,0,2,3,9.06,9.06,0,0,0,3.07,1.9,11.4,11.4,0,0,0,6.78.27A9.61,9.61,0,0,0,181,81.5a8.38,8.38,0,0,0,2.2-2,9.35,9.35,0,0,0,1.49-2.8,11.56,11.56,0,0,0,.54-3.67,10.61,10.61,0,0,0-.69-3.9,8.56,8.56,0,0,0-1.94-3,8.45,8.45,0,0,0-3-2,10.58,10.58,0,0,0-3.9-.7M164.45,77.84a7.36,7.36,0,0,1-1.48.45,9.37,9.37,0,0,1-1.85.16,5.66,5.66,0,0,1-2-.34,4.92,4.92,0,0,1-1.64-1,4.62,4.62,0,0,1-1.09-1.64,6.11,6.11,0,0,1-.41-2.26,5.87,5.87,0,0,1,.61-2.73,4.47,4.47,0,0,1,1.74-1.84A5.32,5.32,0,0,1,161,68a11.46,11.46,0,0,1,1.94.17,5.81,5.81,0,0,1,1.31.41l.92-4.33a10.85,10.85,0,0,0-1.35-.39,12.52,12.52,0,0,0-1.53-.25c-.52,0-1-.08-1.56-.08a12.62,12.62,0,0,0-4.61.78,9.45,9.45,0,0,0-3.36,2.14,9.07,9.07,0,0,0-2.05,3.16,10.72,10.72,0,0,0-.7,3.87,10.21,10.21,0,0,0,1.23,5.08,8.29,8.29,0,0,0,3.43,3.31A11.25,11.25,0,0,0,159.94,83a17.35,17.35,0,0,0,2.1-.12,15,15,0,0,0,1.79-.31,7.32,7.32,0,0,0,1.31-.45Zm-34.32,4.78H136V71.83c0-.27,0-.53,0-.78a3.11,3.11,0,0,1,.15-.68,3.64,3.64,0,0,1,.61-1,3,3,0,0,1,1-.82,3.08,3.08,0,0,1,1.4-.33,2.73,2.73,0,0,1,1.7.52,2.84,2.84,0,0,1,.95,1.42,6.73,6.73,0,0,1,.3,2.12V82.62h5.82V71.56a11.55,11.55,0,0,0-.52-3.58,6.79,6.79,0,0,0-1.4-2.53A5.78,5.78,0,0,0,143.86,64a7,7,0,0,0-2.66-.48,7.6,7.6,0,0,0-2.12.29,6.69,6.69,0,0,0-1.66.76,6.53,6.53,0,0,0-1.22,1,5.79,5.79,0,0,0-.78,1h-.12l-.27-2.6H130c0,.84.08,1.75.11,2.74s0,2.06,0,3.23Zm-8.78-6.81a4.24,4.24,0,0,1,0,.51,3.86,3.86,0,0,1-.09.49,3,3,0,0,1-.64,1.08,3.44,3.44,0,0,1-1.06.77,3.19,3.19,0,0,1-1.32.29,2.8,2.8,0,0,1-1.18-.24,2,2,0,0,1-.82-.74,2.55,2.55,0,0,1-.3-1.24,2.32,2.32,0,0,1,.73-1.76,4.39,4.39,0,0,1,1.94-.92,12.81,12.81,0,0,1,2.77-.27ZM127,71.56a11.35,11.35,0,0,0-.4-3.14,6.79,6.79,0,0,0-1.35-2.58,6.3,6.3,0,0,0-2.53-1.75,10.55,10.55,0,0,0-3.91-.64,16.27,16.27,0,0,0-5.56.92,11.51,11.51,0,0,0-1.71.76l1.07,3.75a7.35,7.35,0,0,1,1.46-.7,9.8,9.8,0,0,1,1.79-.51,8.82,8.82,0,0,1,1.92-.2,5.59,5.59,0,0,1,1.74.23,2.77,2.77,0,0,1,1,.6,2,2,0,0,1,.5.8,2.37,2.37,0,0,1,.12.82v.23a21.52,21.52,0,0,0-4.51.43,11,11,0,0,0-3.46,1.32A6.37,6.37,0,0,0,111,74.14a6.27,6.27,0,0,0-.78,3.16,5.8,5.8,0,0,0,.41,2.16,5.51,5.51,0,0,0,1.19,1.83,5.68,5.68,0,0,0,1.9,1.28,6.76,6.76,0,0,0,2.54.48,7.77,7.77,0,0,0,3.06-.59,6,6,0,0,0,2.31-1.71h.11l.34,1.87h5.25a8.78,8.78,0,0,1-.18-1.23c0-.48-.08-1-.1-1.56s0-1.13,0-1.72Zm-31.75-.34h2a9.41,9.41,0,0,1,2,.2,5.53,5.53,0,0,1,1.67.64A3.14,3.14,0,0,1,102,73.17a3.31,3.31,0,0,1,.41,1.65,3.6,3.6,0,0,1-.41,1.73A3.11,3.11,0,0,1,101,77.71a5,5,0,0,1-1.58.65,7.8,7.8,0,0,1-1.9.21H96.18a8.44,8.44,0,0,1-1-.07Zm0-10.19c.22,0,.52-.07.92-.1s.92,0,1.56,0a5.28,5.28,0,0,1,3.06.75,2.61,2.61,0,0,1,1.08,2.23,2.73,2.73,0,0,1-.53,1.67,3.37,3.37,0,0,1-1.58,1.11,7.76,7.76,0,0,1-2.6.4H95.22ZM89.43,82.51c.66.1,1.52.18,2.58.26s2.31.12,3.74.12a32.91,32.91,0,0,0,4.49-.27,16.32,16.32,0,0,0,3.33-.79,8.41,8.41,0,0,0,2.33-1.27,8.22,8.22,0,0,0,1.41-1.48,7.07,7.07,0,0,0,.93-1.84,7,7,0,0,0,.33-2.2A6.18,6.18,0,0,0,106.09,70a7.52,7.52,0,0,0-2.65-1.24v-.08a7.43,7.43,0,0,0,2.4-1.41,5.28,5.28,0,0,0,1.85-4.06A5.77,5.77,0,0,0,107.3,61a5.27,5.27,0,0,0-1.07-1.71,6,6,0,0,0-1.6-1.22,8.83,8.83,0,0,0-2-.87,12.94,12.94,0,0,0-2.47-.46c-.92-.09-2-.12-3.14-.12-1,0-2,0-2.92.07s-1.84.12-2.65.2-1.45.17-2,.26Z" transform="translate(-66.37 -21.21)"/></svg>