<svg id="Banco_Nacional_de_Bolivia" data-name="Banco Nacional de Bolivia" xmlns="http://www.w3.org/2000/svg" xmlns:xlink="http://www.w3.org/1999/xlink" viewBox="0 0 208.86 59.74"><defs><style>.cls-1{fill:none;}.cls-2{clip-path:url(#clip-path);}.cls-3{fill:#299a57;}</style><clipPath id="clip-path" transform="translate(-72.73 -29.76)"><rect class="cls-1" x="72.73" y="29.76" width="208.86" height="59.74"/></clipPath></defs><g id="g37"><g id="g39"><g class="cls-2"><g id="g41"><g id="g47"><path id="path49" class="cls-3" d="M125.06,55.12c0,7.1,0,14,0,20.94a5.83,5.83,0,0,1-1.23,3.86,3.48,3.48,0,0,1-2.72,1c-1.65.06-3.31,0-5,0-.75,0-1-.3-1-1.07,0-11.19,0-22.39,0-33.58a6.56,6.56,0,0,0-3.4-6c-.16-.1-.47-.08-.47-.43s0-1.42,0-1.42c2.27,0,5.48,0,7.74,0a11.35,11.35,0,0,1,5.37,1.67c2.41,1.39,3.9,3.61,5.49,5.76,1.71,2.32,3.48,4.6,5.2,6.91q3.18,4.27,6.31,8.57c1.16,1.59,2.3,3.19,3.45,4.78.08.11.25.14.51.29v-1c0-8.64,0-17.27,0-25.89,0-.85.24-1.11,1.09-1.09,1.27,0,2.55,0,3.84,0a4.45,4.45,0,0,1,4,2.05,4.5,4.5,0,0,1,.68,2q0,18.72,0,37.43c0,.74-.25,1-1,1-1.81-.07-3.65,0-5.45-.19a9.81,9.81,0,0,1-5-2.33c-2.88-2.37-4.7-5.64-7-8.47-2-2.42-3.89-4.94-5.81-7.43s-3.7-4.86-5.63-7.4" transform="translate(-72.73 -29.76)"/></g><g id="g51"><path id="path53" class="cls-3" d="M102.08,69.12c-.81,2.28-2.57,2.72-4.52,2.88-1.79.14-3.59,0-5.39,0-2,0-3.9,0-5.85,0-.51,0-.67-.08-.65-.7.07-2.24,0-4.49,0-6.73,0-.61.11-.85.8-.85,3.69,0,7.39,0,11.09,0a4.51,4.51,0,0,1,3.81,1.57,3.8,3.8,0,0,1,.69,3.76M85.64,55.21v-8H95a6.33,6.33,0,0,1,3.72,1.18,3.75,3.75,0,0,1,.86,4.67,3.81,3.81,0,0,1-3.28,2.18c-3.53,0-7-.06-10.57,0l0,0m25.49,9A8,8,0,0,0,109.76,62a13.45,13.45,0,0,0-5.05-3.34l.51-.39a16.94,16.94,0,0,0,2.85-2.68,8.22,8.22,0,0,0,1.49-3.52,10.26,10.26,0,0,0-3.41-10.35,12.75,12.75,0,0,0-5.4-2.7,17.1,17.1,0,0,0-4.58-.59c-8.21-.08-17.65,0-22.48,0h-1c0,.62,0,1.24,0,1.87a4.61,4.61,0,0,1,1.36.22c1.69.87,1.89,2.63,1.9,4.14.09,11.71.06,23.42,0,35.13,0,.86.24,1.17,1.13,1.16,6.74-.08,13.49-.06,20.24-.2a27.15,27.15,0,0,0,5.74-.77,12.25,12.25,0,0,0,5.16-2.63,9.92,9.92,0,0,0,3.74-7.56,11.85,11.85,0,0,0-.92-5.62" transform="translate(-72.73 -29.76)"/></g><g id="g55"><path id="path57" class="cls-3" d="M186.2,69.17c-.82,2.29-2.57,2.72-4.52,2.88-1.79.14-3.6,0-5.4,0s-3.89,0-5.84,0c-.51,0-.68-.08-.66-.7.08-2.24.06-4.48,0-6.73,0-.61.1-.85.79-.84,3.7,0,7.4,0,11.1,0a4.51,4.51,0,0,1,3.8,1.58,3.75,3.75,0,0,1,.7,3.75M169.76,55.26v-8h9.31a6.29,6.29,0,0,1,3.72,1.19,3.75,3.75,0,0,1,.86,4.67,3.81,3.81,0,0,1-3.28,2.18c-3.53,0-7.06-.07-10.58,0l0,0m25.48,9a7.89,7.89,0,0,0-1.36-2.13,13.31,13.31,0,0,0-5-3.33l.51-.4a17.26,17.26,0,0,0,2.85-2.67,8.25,8.25,0,0,0,1.49-3.53,10.9,10.9,0,0,0-.45-6.3,10.69,10.69,0,0,0-3-4,12.7,12.7,0,0,0-5.41-2.71,17,17,0,0,0-4.57-.59c-8.22-.08-17.66,0-22.48,0h-1v1.87a4.63,4.63,0,0,1,1.37.22c1.69.87,1.89,2.63,1.9,4.15.09,11.7.06,23.42,0,35.12,0,.87.25,1.17,1.14,1.16,6.74-.08,13.49-.06,20.24-.19a27.16,27.16,0,0,0,5.74-.78,12.25,12.25,0,0,0,5.16-2.63,9.93,9.93,0,0,0,3.74-7.55,11.76,11.76,0,0,0-.93-5.63" transform="translate(-72.73 -29.76)"/></g><path id="path59" class="cls-3" d="M209.7,89.5h-2.59V29.76h2.59Z" transform="translate(-72.73 -29.76)"/><g id="g61"><path id="path63" class="cls-3" d="M223.22,47.11a4,4,0,0,0,.85-.1,2,2,0,0,0,.71-.33,1.64,1.64,0,0,0,.5-.55,1.57,1.57,0,0,0,.18-.77,1.62,1.62,0,0,0-.22-.9,1.64,1.64,0,0,0-.58-.53,2.56,2.56,0,0,0-.81-.25,5.46,5.46,0,0,0-.9-.07h-1.18V47l.27,0,.38,0,.42,0h.38m-.74-4.45.56,0a4,4,0,0,0,.54,0,3.73,3.73,0,0,0,.61-.26,2.38,2.38,0,0,0,.51-.37,1.57,1.57,0,0,0,.35-.49,1.32,1.32,0,0,0,.13-.6,1.5,1.5,0,0,0-.17-.74,1.38,1.38,0,0,0-.46-.47,2.1,2.1,0,0,0-.65-.25,3.64,3.64,0,0,0-.74-.07l-.82,0a3.3,3.3,0,0,0-.57.06v3.23Zm3.89-2a2.07,2.07,0,0,1-.11.69,2.24,2.24,0,0,1-.32.66,2.41,2.41,0,0,1-.56.54,2.55,2.55,0,0,1-.8.35v0a4.12,4.12,0,0,1,.78.23,2.15,2.15,0,0,1,.66.45,2.25,2.25,0,0,1,.46.69,2.4,2.4,0,0,1,.18,1,2.43,2.43,0,0,1-.31,1.26,2.6,2.6,0,0,1-.8.88,3.74,3.74,0,0,1-1.13.5,5.2,5.2,0,0,1-1.3.16h-.55c-.2,0-.42,0-.65,0l-.68-.05a4.24,4.24,0,0,1-.59-.1V38.56c.33-.05.72-.1,1.16-.13s.93-.06,1.46-.06a6.53,6.53,0,0,1,1.07.09,3,3,0,0,1,1,.34,2.07,2.07,0,0,1,.74.7,2.11,2.11,0,0,1,.29,1.15" transform="translate(-72.73 -29.76)"/></g><g id="g65"><path id="path67" class="cls-3" d="M230.89,47.13a2.07,2.07,0,0,0,.68-.1,1.53,1.53,0,0,0,.51-.26,1.31,1.31,0,0,0,.36-.34,1.28,1.28,0,0,0,.21-.37V44.94l-.38,0h-.39a7.22,7.22,0,0,0-.82.05,2.84,2.84,0,0,0-.71.17,1.27,1.27,0,0,0-.48.36.81.81,0,0,0-.19.56,1,1,0,0,0,.34.78,1.28,1.28,0,0,0,.87.3M229,41.69a4.28,4.28,0,0,1,1.2-.46,6.74,6.74,0,0,1,1.43-.14,3,3,0,0,1,1.14.18,1.59,1.59,0,0,1,1,1.17,3.68,3.68,0,0,1,.07.73c0,.55,0,1.08,0,1.59s0,1,0,1.47,0,.65,0,1a5,5,0,0,0,.15.82h-.8l-.29-1h-.06a2.59,2.59,0,0,1-.31.38,1.85,1.85,0,0,1-.44.32,2.35,2.35,0,0,1-.6.24,3,3,0,0,1-.77.09,2.37,2.37,0,0,1-.81-.13,1.81,1.81,0,0,1-.64-.39,2,2,0,0,1-.43-.6,2,2,0,0,1-.15-.8,1.92,1.92,0,0,1,.24-1,1.71,1.71,0,0,1,.69-.64,3.6,3.6,0,0,1,1-.34,9.57,9.57,0,0,1,1.37-.1h.37a2.31,2.31,0,0,1,.37,0,6.66,6.66,0,0,0,0-.73,1.46,1.46,0,0,0-.3-1.05,1.5,1.5,0,0,0-1.08-.3,4.77,4.77,0,0,0-.5,0,3.89,3.89,0,0,0-.54.1,4.61,4.61,0,0,0-.53.15,3.62,3.62,0,0,0-.44.2Z" transform="translate(-72.73 -29.76)"/></g><g id="g69"><path id="path71" class="cls-3" d="M240.76,48V44.11a3.29,3.29,0,0,0-.3-1.59,1.17,1.17,0,0,0-1.12-.54,1.81,1.81,0,0,0-1.19.39,2,2,0,0,0-.65,1V48h-1.09V41.19h.76l.2.83h.06a2.37,2.37,0,0,1,.87-.71,2.84,2.84,0,0,1,1.31-.28,3.23,3.23,0,0,1,1,.13,1.57,1.57,0,0,1,.7.45,2.33,2.33,0,0,1,.42.88,6,6,0,0,1,.14,1.39V48Z" transform="translate(-72.73 -29.76)"/></g><g id="g73"><path id="path75" class="cls-3" d="M249.07,47.53a3,3,0,0,1-1,.45,4.06,4.06,0,0,1-1.16.16,3.25,3.25,0,0,1-1.33-.25,2.33,2.33,0,0,1-.89-.72,3,3,0,0,1-.5-1.13,6,6,0,0,1-.16-1.46,4,4,0,0,1,.76-2.63A2.68,2.68,0,0,1,247,41a5,5,0,0,1,1.11.1,3.76,3.76,0,0,1,.82.29l-.31.94a3,3,0,0,0-.69-.28,3.12,3.12,0,0,0-.82-.1c-1.28,0-1.92.87-1.92,2.6a4.49,4.49,0,0,0,.1,1,2.46,2.46,0,0,0,.34.83,1.79,1.79,0,0,0,.62.57,1.89,1.89,0,0,0,1,.22,2.41,2.41,0,0,0,.87-.15,2.31,2.31,0,0,0,.63-.34Z" transform="translate(-72.73 -29.76)"/></g><g id="g77"><path id="path79" class="cls-3" d="M251.6,44.58a5.38,5.38,0,0,0,.1,1,2.75,2.75,0,0,0,.32.82,1.73,1.73,0,0,0,.57.57,1.57,1.57,0,0,0,.86.22c1.23,0,1.84-.86,1.84-2.61a4.65,4.65,0,0,0-.1-1,2.57,2.57,0,0,0-.32-.83,1.59,1.59,0,0,0-1.42-.77c-1.23,0-1.85.86-1.85,2.6m-1.12,0a4,4,0,0,1,.76-2.63,2.73,2.73,0,0,1,2.21-.92,3.21,3.21,0,0,1,1.32.25,2.38,2.38,0,0,1,.93.72,3.21,3.21,0,0,1,.54,1.13,5.43,5.43,0,0,1,.18,1.45,4,4,0,0,1-.77,2.64,2.7,2.7,0,0,1-2.2.92,3.39,3.39,0,0,1-1.33-.25,2.43,2.43,0,0,1-.92-.72,3.06,3.06,0,0,1-.55-1.13,5.52,5.52,0,0,1-.17-1.46" transform="translate(-72.73 -29.76)"/></g><g id="g81"><path id="path83" class="cls-3" d="M222.36,58l-.74-1.37h-.05l.14,1.37v6.21h-1.06V54.61h.59l4.55,6.33.7,1.31h.07l-.15-1.31V54.76h1.06V64.4h-.6Z" transform="translate(-72.73 -29.76)"/></g><g id="g85"><path id="path87" class="cls-3" d="M232.1,63.41a2,2,0,0,0,.67-.1,1.81,1.81,0,0,0,.52-.26,1.68,1.68,0,0,0,.36-.34,1.57,1.57,0,0,0,.21-.37V61.22l-.39,0h-.38a5.47,5.47,0,0,0-.82.05,2.74,2.74,0,0,0-.71.17,1.28,1.28,0,0,0-.49.35.88.88,0,0,0-.18.57,1,1,0,0,0,.34.78,1.26,1.26,0,0,0,.87.3M230.17,58a3.8,3.8,0,0,1,1.2-.46,6.67,6.67,0,0,1,1.43-.15,2.74,2.74,0,0,1,1.13.19,1.47,1.47,0,0,1,.65.5,1.63,1.63,0,0,1,.3.67,3.63,3.63,0,0,1,.08.73c0,.54,0,1.07,0,1.59s0,1,0,1.46,0,.65,0,1a4.09,4.09,0,0,0,.15.83h-.8l-.29-1h-.07a2,2,0,0,1-.3.37,1.64,1.64,0,0,1-.44.33,3.4,3.4,0,0,1-.6.24,3,3,0,0,1-.77.09,2.37,2.37,0,0,1-.81-.13,1.81,1.81,0,0,1-.64-.39,1.84,1.84,0,0,1-.43-.6,2.11,2.11,0,0,1,.09-1.8,1.75,1.75,0,0,1,.68-.64,3.48,3.48,0,0,1,1.06-.34,8.19,8.19,0,0,1,1.36-.1h.38l.37,0a6.7,6.7,0,0,0,0-.74,1.45,1.45,0,0,0-.3-1,1.52,1.52,0,0,0-1.08-.3,3,3,0,0,0-.5,0l-.54.09-.53.16a3,3,0,0,0-.44.2Z" transform="translate(-72.73 -29.76)"/></g><g id="g89"><path id="path91" class="cls-3" d="M242.24,63.81a2.84,2.84,0,0,1-1,.45,4.47,4.47,0,0,1-1.17.16,3.32,3.32,0,0,1-1.33-.25,2.4,2.4,0,0,1-.89-.72,3.44,3.44,0,0,1-.5-1.13,6.55,6.55,0,0,1-.15-1.46,4,4,0,0,1,.76-2.64,2.66,2.66,0,0,1,2.18-.91,5.13,5.13,0,0,1,1.11.1,3.45,3.45,0,0,1,.82.29l-.31.94a2.93,2.93,0,0,0-.7-.28,3,3,0,0,0-.81-.1c-1.28,0-1.93.86-1.93,2.6a4.55,4.55,0,0,0,.11,1,2.23,2.23,0,0,0,.34.82,1.73,1.73,0,0,0,.62.58,2,2,0,0,0,1,.22,2.41,2.41,0,0,0,.87-.15,2.62,2.62,0,0,0,.63-.34Z" transform="translate(-72.73 -29.76)"/></g><path id="path93" class="cls-3" d="M244.58,57.47h1.08v6.78h-1.08Zm-.23-2.06a.76.76,0,0,1,.21-.54.68.68,0,0,1,.53-.22.78.78,0,0,1,.56.22.74.74,0,0,1,.23.54.65.65,0,0,1-.23.51.81.81,0,0,1-.56.21.71.71,0,0,1-.53-.21.66.66,0,0,1-.21-.51" transform="translate(-72.73 -29.76)"/><g id="g95"><path id="path97" class="cls-3" d="M249.34,60.86a4.49,4.49,0,0,0,.1,1,2.57,2.57,0,0,0,.32.83,1.6,1.6,0,0,0,1.42.79c1.23,0,1.85-.86,1.85-2.61a4.64,4.64,0,0,0-.11-1,2.47,2.47,0,0,0-.31-.83,1.69,1.69,0,0,0-.57-.56,1.66,1.66,0,0,0-.86-.21c-1.23,0-1.84.86-1.84,2.6m-1.13,0a4,4,0,0,1,.77-2.64,2.7,2.7,0,0,1,2.2-.91,3.14,3.14,0,0,1,1.32.25,2.38,2.38,0,0,1,.93.72A2.92,2.92,0,0,1,254,59.4a5.56,5.56,0,0,1,.18,1.46,4,4,0,0,1-.76,2.64,2.73,2.73,0,0,1-2.21.92,3.31,3.31,0,0,1-1.32-.25,2.38,2.38,0,0,1-.93-.72,3.29,3.29,0,0,1-.54-1.13,5.51,5.51,0,0,1-.18-1.46" transform="translate(-72.73 -29.76)"/></g><g id="g99"><path id="path101" class="cls-3" d="M260.83,64.25V60.39a3.35,3.35,0,0,0-.31-1.6,1.19,1.19,0,0,0-1.12-.53,1.82,1.82,0,0,0-1.18.38,2,2,0,0,0-.66,1v4.64h-1.09V57.47h.76l.21.83h.05a2.59,2.59,0,0,1,.87-.72,3,3,0,0,1,1.31-.27,3.23,3.23,0,0,1,1,.13,1.42,1.42,0,0,1,.7.45,2.33,2.33,0,0,1,.42.88,5.9,5.9,0,0,1,.14,1.39v4.09Z" transform="translate(-72.73 -29.76)"/></g><g id="g103"><path id="path105" class="cls-3" d="M266.32,63.41a2.07,2.07,0,0,0,.68-.1,1.75,1.75,0,0,0,.51-.26,1.47,1.47,0,0,0,.36-.34,1.28,1.28,0,0,0,.21-.37V61.22l-.38,0h-.39a5.56,5.56,0,0,0-.82.05,2.66,2.66,0,0,0-.7.17,1.21,1.21,0,0,0-.49.35.84.84,0,0,0-.19.57,1,1,0,0,0,.34.78,1.28,1.28,0,0,0,.87.3M264.39,58a4,4,0,0,1,1.2-.46,6.76,6.76,0,0,1,1.44-.15,2.77,2.77,0,0,1,1.13.19,1.59,1.59,0,0,1,.65.5,1.63,1.63,0,0,1,.3.67,3.61,3.61,0,0,1,.07.73c0,.54,0,1.07,0,1.59s0,1,0,1.46,0,.65,0,1a4.92,4.92,0,0,0,.15.83h-.8l-.28-1h-.07a2.1,2.1,0,0,1-.31.37,1.64,1.64,0,0,1-.44.33,3.4,3.4,0,0,1-.6.24,3,3,0,0,1-.77.09,2.37,2.37,0,0,1-.81-.13,1.9,1.9,0,0,1-.64-.39,2,2,0,0,1-.43-.6,2.07,2.07,0,0,1-.15-.8,1.92,1.92,0,0,1,.24-1,1.71,1.71,0,0,1,.69-.64,3.32,3.32,0,0,1,1.05-.34,8.32,8.32,0,0,1,1.37-.1h.37a2.31,2.31,0,0,1,.37,0,6.7,6.7,0,0,0,0-.74,1.5,1.5,0,0,0-.29-1,1.54,1.54,0,0,0-1.09-.3,2.85,2.85,0,0,0-.49,0l-.55.09-.53.16a3.62,3.62,0,0,0-.44.2Z" transform="translate(-72.73 -29.76)"/></g><g id="g107"><path id="path109" class="cls-3" d="M273.05,62.58a1.08,1.08,0,0,0,.16.68.55.55,0,0,0,.46.21l.38,0a2.42,2.42,0,0,0,.46-.12l.13.85a2.65,2.65,0,0,1-.61.18,4.63,4.63,0,0,1-.67.07A1.31,1.31,0,0,1,272,62.9V54.76h1.09Z" transform="translate(-72.73 -29.76)"/></g><g id="g111"><path id="path113" class="cls-3" d="M223,79.74a1.6,1.6,0,0,0,1.1-.36,1.88,1.88,0,0,0,.55-1.09V74.93a1.42,1.42,0,0,0-.55-.27,3.18,3.18,0,0,0-.83-.08,1.85,1.85,0,0,0-1.47.61,3,3,0,0,0-.53,2,5.56,5.56,0,0,0,.09,1,2.57,2.57,0,0,0,.29.81,1.55,1.55,0,0,0,.54.54,1.57,1.57,0,0,0,.81.19m2.74-1.54c0,.46,0,.88,0,1.25a6.73,6.73,0,0,0,.12,1.11h-.73l-.27-1h0a2.36,2.36,0,0,1-.79.78,2.29,2.29,0,0,1-1.21.31,2.38,2.38,0,0,1-2-.85,4.37,4.37,0,0,1-.66-2.67,3.78,3.78,0,0,1,.82-2.64,2.91,2.91,0,0,1,2.26-.9,5.3,5.3,0,0,1,.79.05,4.34,4.34,0,0,1,.63.18V71h1.09Z" transform="translate(-72.73 -29.76)"/></g><g id="g115"><path id="path117" class="cls-3" d="M231.07,74.54a1.89,1.89,0,0,0-1.29.42,2.09,2.09,0,0,0-.57,1.43h3.36a2.1,2.1,0,0,0-.39-1.44,1.46,1.46,0,0,0-1.11-.41M233.4,80a3,3,0,0,1-1,.51,4.26,4.26,0,0,1-1.3.19,3.29,3.29,0,0,1-1.35-.25,2.21,2.21,0,0,1-.93-.72,3,3,0,0,1-.55-1.12,5.91,5.91,0,0,1-.17-1.46,4,4,0,0,1,.77-2.65,2.76,2.76,0,0,1,2.21-.9,4.05,4.05,0,0,1,.92.1,1.93,1.93,0,0,1,1.43,1.19,3.54,3.54,0,0,1,.23,1.38,7.3,7.3,0,0,1-.08,1h-4.36a4.24,4.24,0,0,0,.12,1.06,2.36,2.36,0,0,0,.38.78,1.8,1.8,0,0,0,.68.49,2.71,2.71,0,0,0,1,.16,2.74,2.74,0,0,0,.92-.16,1.84,1.84,0,0,0,.69-.38Z" transform="translate(-72.73 -29.76)"/></g><g id="g119"><path id="path121" class="cls-3" d="M242.87,79.66a3.33,3.33,0,0,0,.84-.1,2.36,2.36,0,0,0,.72-.32,1.83,1.83,0,0,0,.49-.55,1.61,1.61,0,0,0,.18-.78,1.47,1.47,0,0,0-.8-1.42,2.57,2.57,0,0,0-.81-.26,6.8,6.8,0,0,0-.89-.07h-1.18v3.41a1.3,1.3,0,0,0,.27,0l.38,0,.42,0h.38m-.75-4.45h.56l.54,0a3.73,3.73,0,0,0,.61-.26,2.78,2.78,0,0,0,.51-.37,1.57,1.57,0,0,0,.35-.49,1.38,1.38,0,0,0,.13-.6,1.47,1.47,0,0,0-.17-.74,1.27,1.27,0,0,0-.45-.47,1.93,1.93,0,0,0-.66-.25,3.65,3.65,0,0,0-.74-.08c-.3,0-.57,0-.82,0a3.05,3.05,0,0,0-.56.06v3.22Zm3.89-2a2.16,2.16,0,0,1-.11.69,2.51,2.51,0,0,1-.32.66,2.19,2.19,0,0,1-.56.53,2.56,2.56,0,0,1-.8.36v0a2.93,2.93,0,0,1,.78.23,2.15,2.15,0,0,1,.66.45,2.25,2.25,0,0,1,.46.69,2.35,2.35,0,0,1,.18,1A2.47,2.47,0,0,1,246,79.1a2.6,2.6,0,0,1-.8.88,3.74,3.74,0,0,1-1.13.5,5.71,5.71,0,0,1-1.3.16h-.54l-.66,0c-.22,0-.45,0-.67-.06a3.12,3.12,0,0,1-.6-.1V71.12c.33-.06.72-.1,1.17-.14s.92,0,1.45,0A6.74,6.74,0,0,1,244,71a3,3,0,0,1,1,.33,2,2,0,0,1,1,1.86" transform="translate(-72.73 -29.76)"/></g><g id="g123"><path id="path125" class="cls-3" d="M249.46,77.14a4.62,4.62,0,0,0,.1,1,2.57,2.57,0,0,0,.32.83,1.73,1.73,0,0,0,.57.57,1.62,1.62,0,0,0,.85.21c1.23,0,1.85-.86,1.85-2.6a4.58,4.58,0,0,0-.1-1,2.71,2.71,0,0,0-.32-.83,1.69,1.69,0,0,0-.57-.56,1.66,1.66,0,0,0-.86-.21c-1.23,0-1.84.86-1.84,2.6m-1.13,0a4,4,0,0,1,.77-2.64,2.71,2.71,0,0,1,2.2-.91,3.22,3.22,0,0,1,1.33.25,2.34,2.34,0,0,1,.93.72,3.16,3.16,0,0,1,.54,1.12,6,6,0,0,1,.18,1.46,4,4,0,0,1-.77,2.64,2.72,2.72,0,0,1-2.21.91,3.21,3.21,0,0,1-1.32-.25,2.41,2.41,0,0,1-.93-.71,3.29,3.29,0,0,1-.54-1.13,5.56,5.56,0,0,1-.18-1.46" transform="translate(-72.73 -29.76)"/></g><g id="g127"><path id="path129" class="cls-3" d="M257.8,78.86a1.17,1.17,0,0,0,.16.68.56.56,0,0,0,.47.2,2.62,2.62,0,0,0,.38,0,2.87,2.87,0,0,0,.46-.12l.12.85a2.71,2.71,0,0,1-.6.18,4.59,4.59,0,0,1-.68.06,1.46,1.46,0,0,1-1-.34,1.5,1.5,0,0,1-.39-1.17V71h1.08Z" transform="translate(-72.73 -29.76)"/></g><path id="path131" class="cls-3" d="M261.4,73.75h1.08v6.78H261.4Zm-.23-2.06a.76.76,0,0,1,.21-.54.68.68,0,0,1,.53-.22.78.78,0,0,1,.56.22.74.74,0,0,1,.23.54.66.66,0,0,1-.23.51.81.81,0,0,1-.56.21.71.71,0,0,1-.53-.21.68.68,0,0,1-.21-.51" transform="translate(-72.73 -29.76)"/><g id="g133"><path id="path135" class="cls-3" d="M267.36,77.72l.38,1.29h0l.34-1.31,1.51-4h1.17l-2.89,6.93h-.46l-2.94-6.93h1.25Z" transform="translate(-72.73 -29.76)"/></g><path id="path137" class="cls-3" d="M272.79,73.75h1.09v6.78h-1.09Zm-.23-2.06a.76.76,0,0,1,.21-.54.7.7,0,0,1,.54-.22.75.75,0,0,1,.55.22.74.74,0,0,1,.23.54.66.66,0,0,1-.23.51.79.79,0,0,1-.55.21.73.73,0,0,1-.54-.21.68.68,0,0,1-.21-.51" transform="translate(-72.73 -29.76)"/><g id="g139"><path id="path141" class="cls-3" d="M278.62,79.69a2,2,0,0,0,.68-.1,2.3,2.3,0,0,0,.52-.26,1.71,1.71,0,0,0,.36-.35,1.68,1.68,0,0,0,.21-.36V77.49l-.39,0h-.39a7.38,7.38,0,0,0-.82,0,2.65,2.65,0,0,0-.7.18,1.21,1.21,0,0,0-.49.35.88.88,0,0,0-.19.56,1,1,0,0,0,.34.78,1.24,1.24,0,0,0,.87.31m-1.92-5.44a3.8,3.8,0,0,1,1.2-.46,6.6,6.6,0,0,1,1.43-.15,2.74,2.74,0,0,1,1.13.19,1.6,1.6,0,0,1,.65.49,1.73,1.73,0,0,1,.3.68,3.55,3.55,0,0,1,.08.73c0,.54,0,1.07-.05,1.59s0,1,0,1.46,0,.65,0,1a4.92,4.92,0,0,0,.15.83h-.8l-.28-1h-.07a1.74,1.74,0,0,1-.31.37,1.94,1.94,0,0,1-.44.33,2.9,2.9,0,0,1-.59.23,2.68,2.68,0,0,1-.78.1,2.28,2.28,0,0,1-.8-.14,1.83,1.83,0,0,1-.65-.38,1.75,1.75,0,0,1-.42-.61,1.84,1.84,0,0,1-.16-.8,1.89,1.89,0,0,1,.24-1,1.78,1.78,0,0,1,.69-.64,3.39,3.39,0,0,1,1.06-.34,8.11,8.11,0,0,1,1.36-.1H280l.38,0c0-.27,0-.51,0-.73a1.44,1.44,0,0,0-.3-1,1.53,1.53,0,0,0-1.09-.3l-.49,0-.54.1c-.19,0-.37.1-.53.16a2.34,2.34,0,0,0-.45.2Z" transform="translate(-72.73 -29.76)"/></g></g></g></g></g></svg>