<svg id="Banco_Do_Brasil" data-name="Banco Do Brasil" xmlns="http://www.w3.org/2000/svg" viewBox="0 0 271.37 45.97"><defs><style>.cls-1{fill:#ffff01;}.cls-2{fill:#0b3d91;fill-rule:evenodd;}</style></defs><polygon class="cls-1" points="0 0 271.37 0 271.37 45.97 0 45.97 0 0 0 0 0 0"/><path class="cls-2" d="M55.33,71.72l3.59-2.39,3.6,2.39-7.19,4.79V71.72Zm34.48-24.9-3.59,2.4-3.59-2.4L89.81,42v4.79Zm0,18.2L72.57,76.51,55.33,65,75.81,51.37l3.59,2.4-16.53,11,10.06,6.7,4.67-3.11L74,66l8.62-5.75L89.81,65ZM55.33,53.53,72.57,42l17.24,11.5L69.34,67.17l-3.59-2.39,16.52-11L72.21,47.06l-4.67,3.11,3.6,2.4-8.62,5.75-7.19-4.79Z" transform="translate(-42.69 -36.29)"/><path class="cls-2" d="M96.71,63.26v7.5h9.4c2.25,0,7.85-.26,7.85-6.08a10.76,10.76,0,0,0-.08-1.42H108a5.58,5.58,0,0,1,0,.72c0,3.21-2.66,3.25-3.84,3.25h-1.75v-4Zm19.67,0-2.29,7.5h4.72L120,66.59h5.08l1.15,4.17h5L129,63.26h-4.77l.11.44h-3.63l.09-.44Zm16,0v7.5h4.06v-7.5Zm6.17,0,3.13,7.5h5.64v-7.5h-4.07v.85l-.35-.85Zm10.71,0c.05,4.7.65,8.05,7.14,8.05,4.15,0,6.58-1.65,6.58-6.78h-4.73c-.06,1.52-.08,3.91-1.85,3.91s-2.21-1-2.29-5.18Zm15.14,0c.1,4.31.9,8.05,7.3,8.05s7.21-3.74,7.31-8h-4.91c-.09,3.6-.55,5.18-2.4,5.18s-2.31-1.58-2.4-5.18Zm19.82,0v7.5h7.15c6,0,6.89-4.3,7-7.49h-4.85c-.14,3.32-.75,4.63-2.71,4.63H189V63.26Zm15.94,0c.1,4.3.88,8.05,7.31,8.05s7.21-3.75,7.31-8.05h-4.91c-.09,3.61-.54,5.19-2.4,5.19s-2.31-1.58-2.4-5.19Zm19.58,0v7.5h9.4c2.26,0,7.85-.25,7.85-6.08a10.76,10.76,0,0,0-.08-1.42h-5.75a6.06,6.06,0,0,1,0,.75c0,3.22-2.17,3.25-3.13,3.25H225.5v-4Zm18.84,0v7.49h4.9V63.26Zm6.91,0,3.25,7.49h7.85l1.18-4.16h5.07L264,70.75h11.39c3.15,0,6.33-.42,6.33-5.29a4.53,4.53,0,0,0-.52-2.2h-7.1c1.46.69,2.59,1.4,2.59,2.51a1.91,1.91,0,0,1-2.08,2.13h-6.46l-1.39-4.64h-4.78l.11.45h-3.63l.1-.45h-4.44l-1.79,5.8-2.63-5.8Zm38,0v7.5h4.79v-7.5Zm7.59,0v7.5h10.37V67.91h-5.58V63.26Z" transform="translate(-42.69 -36.29)"/><path class="cls-2" d="M102.49,63.26V60.74l1.16,0h.74c2.46,0,3.45,1,3.65,2.56h5.84c-.3-2.38-1.5-4-4.67-4.4a4.91,4.91,0,0,0,4.33-5.13c0-4.9-3.35-5.95-7.4-5.95H96.71V63.26Zm18.29,0L122.42,56l1.79,7.26H129L125.59,52h-5.74l-3.47,11.31Zm15.62,0v-5l2.11,5h4.35L138.12,52h-5.78V63.26Zm10.88,0V52h-4.07V63.26Zm6.79,0c0-.56,0-1.18,0-1.86,0-6,.46-7,2.22-7,1.26,0,1.82,1,1.82,3.51h4.7c.18-4.12-2.11-6.38-6.64-6.38-6.74,0-6.94,4.28-6.94,9.91v1.86Zm15.19,0c0-.57,0-1.19,0-1.86,0-4.92.28-7,2.42-7s2.42,2.12,2.42,7c0,.67,0,1.29,0,1.86H179c0-.61,0-1.23,0-1.86,0-5.08,0-9.91-7.32-9.91s-7.32,4.83-7.32,9.91c0,.63,0,1.25,0,1.87Zm19.69,0V54.82h1.94c2.62,0,2.62,3.06,2.62,6.54,0,.69,0,1.33,0,1.9h4.85c0-.77,0-1.48,0-2,0-5.88-1.08-9.33-6.83-9.33h-7.32V63.26Zm16.08,0c0-.55,0-1.16,0-1.82,0-4.89.28-7,2.42-7s2.42,2.12,2.42,7c0,.66,0,1.27,0,1.82h4.91c0-.6,0-1.21,0-1.82,0-5,0-9.87-7.32-9.87s-7.32,4.82-7.32,9.87c0,.61,0,1.22,0,1.82Zm20.47,0V60.77l1.46,0h1.19c2,0,2.8.94,3,2.53h5.75c-.29-2.38-1.5-4-4.67-4.4a4.89,4.89,0,0,0,4.33-5.13c0-4.9-3.34-5.95-7.39-5.95H219.7V63.26Zm17.94,0V54.84h1.63a2.6,2.6,0,0,1,2.58,2.86c0,1.56-.78,2.85-2,2.77l-1.37,0,1.21,2.77h4.21l-.7-1.55c2.44-.46,3.41-2,3.42-4.84,0-3.2-1.91-4.92-4.88-4.92h-9V63.26Zm15.08,0L260.15,56l1.79,7.25h4.78L263.32,52h-5.73l-3.51,11.31Zm22.64,0c-1.79-3.34-7.63-3.41-7.63-6.43a1.88,1.88,0,0,1,2.14-2H280V51.94H273.9c-5,0-6.28,2.27-6.28,5.21,0,3.62,3.77,4.85,6.44,6.11Zm7.09,0V52h-4.79V63.26Zm7.59,0V52h-4.79V63.26ZM102.49,57.19V51.31h2.08a3,3,0,0,1,3.22,2.93,2.77,2.77,0,0,1-2.92,2.93h-2l-.43,0Zm123,0V51.35h2.8a2.69,2.69,0,0,1,2.62,2.93c0,2.22-1.39,2.92-2.38,2.92H227l-1.45,0Z" transform="translate(-42.69 -36.29)"/></svg>