<svg id="Banco_Bice" data-name="Banco Bice" xmlns="http://www.w3.org/2000/svg" viewBox="0 0 278.47 36.58"><defs><style>.cls-1{fill:#003c6f;}</style></defs><path class="cls-1" d="M77.68,61.58H42.16V68H77.68Zm0,8.94H42.16V76.9H77.68Zm227.05-1.63V64.34h14v-8h-14V51.67h15.46V42.75H294.91V77.69h25.73v-8.8Zm-227-16.25H42.16V59H77.68Zm122.54-4.79c4,0,4.7,3.51,4.7,12.57S204.24,73,200.22,73s-4.68-3.45-4.68-12.57.66-12.57,4.68-12.57m0,30.18c10.23,0,11.52-7.31,11.52-17.61s-1.29-17.59-11.52-17.59-11.5,7.31-11.5,17.59S190,78,200.22,78m26.54-8.82V62.83h5.73c2.17,0,3.22,1.08,3.22,3.11,0,2.65-1.66,3.27-3.57,3.27Zm0-18h4.82c1.88,0,3.13.62,3.13,2.35,0,2.21-1.21,2.84-3.13,2.84h-4.82ZM245.21,67c0-4.86-2.27-7.4-4.84-8.62a7.45,7.45,0,0,0,3.33-6.68c0-3.61-1.72-8.91-9.82-8.91H217.26V77.69h17.2c5.42,0,10.75-3.68,10.75-10.73M145,53.63h.1l8.34,23.74h7.76V43.49H155v23.2h-.09l-8.25-23.2h-7.86V77.37H145ZM175.79,78c9,0,10.76-6.32,10.76-13.62h-6.83c0,7.3-1.8,8.58-4.27,8.58-2.93,0-4.35-1.84-4.35-12.09,0-9.59.81-13,4.25-13,3.09,0,4.08,2.13,4.08,7.07h6.83c0-4.94-.72-12.09-10.47-12.09-10.24,0-11.51,7.31-11.51,17.59S165.55,78,175.79,78M77.68,43.71H42.16v6.38H77.68Zm199.5,34.8c9,0,13.91-7.56,13.91-14.6v-.3h-9.6l0,.27c-.56,3.23-1.73,5.45-4.51,5.45-3.95,0-5.36-4.43-5.36-9.1s1.41-9.12,5.36-9.12c3.46,0,4.28,3.48,4.46,4.77l0,.27H291l0-.33c-.81-8.72-5.39-13.84-13.79-13.89-9.42,0-15.41,7.37-15.41,18.3,0,10.21,5.52,18.28,15.41,18.28m-153-29.14h.1l3.27,15.23h-6.64Zm-4.45,20.82h9l1.57,7.18h7.1l-9-33.88h-8.43l-9,33.88h7.1ZM258,42.75h-9.83V77.69H258Zm-163,29.58V62.13h3c3,0,5.21,1.14,5.21,5.07s-2.22,5.13-5.5,5.13Zm0-23.81h2.47c3.37,0,4.94,1.18,4.94,4.41s-1.72,4.46-5.46,4.46h-2ZM110.2,67.45c0-4.51-2.41-7.35-6.15-7.88v-.09c3.36-.95,5.12-3.75,5.12-7.4,0-6.51-4-8.59-9.62-8.59H88.14V77.37h11.5c8,0,10.56-4.6,10.56-9.92" transform="translate(-42.16 -41.93)"/></svg>