<svg id="Banco_Procredit" data-name="Banco Procredit" xmlns="http://www.w3.org/2000/svg" viewBox="0 0 204.7 58.99"><defs><style>.cls-1{fill:#2065a0;}.cls-2{fill:#8a2586;}.cls-3{fill:#f0dc27;}.cls-4{fill:#2c8d73;}.cls-5{fill:#d66e2a;}.cls-6{fill:#bb1e2b;}</style></defs><path class="cls-1" d="M97.64,29.62h3.28A30,30,0,0,1,117.76,36a29.14,29.14,0,0,1,6.94,7.86,25.45,25.45,0,0,0-7.07-6.57,25.77,25.77,0,0,0-15.08-3.72,29.22,29.22,0,0,0-8.37,1.77,27.67,27.67,0,0,0-14.08,8,26.44,26.44,0,0,0-3.25,4.27,26,26,0,0,0-2.73,20.73,25.31,25.31,0,0,0,3.28,7.12A27.64,27.64,0,0,0,90.17,86a28.72,28.72,0,0,0,16.94,1.45,10.5,10.5,0,0,1,1.23-.2,30.45,30.45,0,0,1-16.9.34A29.62,29.62,0,0,1,69.62,60.71V57.45a32.19,32.19,0,0,1,1-6,29.58,29.58,0,0,1,10.6-15.75A30,30,0,0,1,97.64,29.62Z" transform="translate(-69.62 -29.62)"/><path class="cls-2" d="M94.18,35.33a29.22,29.22,0,0,1,8.37-1.77,25.77,25.77,0,0,1,15.08,3.72,25.45,25.45,0,0,1,7.07,6.57A26.24,26.24,0,0,1,129.25,60a6.19,6.19,0,0,1,0-1.29,21.15,21.15,0,0,0-4.54-13,17.34,17.34,0,0,0-11.33-6.18,24.2,24.2,0,0,0-11-1.36,27.69,27.69,0,0,0-4.43.84A29.52,29.52,0,0,0,81,51.79a28.45,28.45,0,0,0-4.36,16,27.42,27.42,0,0,1,2.08-18.23A28.69,28.69,0,0,1,94.18,35.33Z" transform="translate(-69.62 -29.62)"/><path class="cls-3" d="M97.93,39a27.69,27.69,0,0,1,4.43-.84c.48.82.94,1.64,1.39,2.48a27.43,27.43,0,0,0-3.59,1.49C99.43,41.06,98.69,40,97.93,39Z" transform="translate(-69.62 -29.62)"/><path class="cls-3" d="M76.85,47.64a26.44,26.44,0,0,1,3.25-4.27c.44.57.88,1.14,1.34,1.69a29,29,0,0,0-2.72,4.5C78.09,48.92,77.49,48.26,76.85,47.64Z" transform="translate(-69.62 -29.62)"/><path class="cls-3" d="M102.5,45.72a25.13,25.13,0,0,1,3.31-1.28c1,2,2,4,2.89,6.11a25.38,25.38,0,0,0-2.63,1.26Q104.36,48.72,102.5,45.72Z" transform="translate(-69.62 -29.62)"/><path class="cls-3" d="M81,51.79A29.24,29.24,0,0,1,83.81,48q2.1,2.48,4.29,4.89A36.75,36.75,0,0,0,86,56.38C84.28,54.88,82.64,53.33,81,51.79Z" transform="translate(-69.62 -29.62)"/><path class="cls-3" d="M107.93,55.29a24.07,24.07,0,0,1,2.43-.84,87.48,87.48,0,0,1,3.11,8.94,16.77,16.77,0,0,0-1.64.57C110.7,61,109.33,58.14,107.93,55.29Z" transform="translate(-69.62 -29.62)"/><path class="cls-3" d="M88.51,58.56c.65-1,1.36-2,2.1-3,1.69,1.77,3.45,3.48,5.23,5.15-.58.77-1.14,1.57-1.65,2.39Q91.3,60.9,88.51,58.56Z" transform="translate(-69.62 -29.62)"/><path class="cls-3" d="M96.19,64.58c.51-.7,1.06-1.39,1.63-2,2.34,2.11,4.74,4.13,7.19,6.1-.38.4-.74.81-1.09,1.23Q100,67.34,96.19,64.58Z" transform="translate(-69.62 -29.62)"/><path class="cls-3" d="M112.69,66.13q.69-.27,1.41-.48A73,73,0,0,1,116,76.13C114.9,72.79,114,69.41,112.69,66.13Z" transform="translate(-69.62 -29.62)"/><path class="cls-3" d="M74.12,68.37c.25.19.49.39.73.59a33.22,33.22,0,0,0,7.58,5,17.29,17.29,0,0,0,.69,3.33,17.56,17.56,0,0,1,0-3,44.2,44.2,0,0,0,7,2.53,15.26,15.26,0,0,0,.39,2.86A37.52,37.52,0,0,1,77.4,75.49,25.31,25.31,0,0,1,74.12,68.37Z" transform="translate(-69.62 -29.62)"/><path class="cls-3" d="M105.9,71.11c.31-.36.62-.7.94-1,2.85,2.24,5.79,4.37,8.68,6.56C112.24,74.92,109.05,73.05,105.9,71.11Z" transform="translate(-69.62 -29.62)"/><path class="cls-3" d="M102.63,78.55a50.16,50.16,0,0,0,12.56-1.46,34.22,34.22,0,0,1-12.5,3.13A9.3,9.3,0,0,1,102.63,78.55Z" transform="translate(-69.62 -29.62)"/><path class="cls-3" d="M91.43,77.17a48,48,0,0,0,8.85,1.3,10.44,10.44,0,0,0,.1,1.85,60.23,60.23,0,0,1-8.8-.48A15.89,15.89,0,0,1,91.43,77.17Z" transform="translate(-69.62 -29.62)"/><path class="cls-4" d="M103.75,40.62a22.41,22.41,0,0,1,9.64-1.12,17.34,17.34,0,0,1,11.33,6.18,21.15,21.15,0,0,1,4.54,13,6.19,6.19,0,0,0,0,1.29,24.64,24.64,0,0,1-.49,4.69,16.19,16.19,0,0,0-1-9.26,11.7,11.7,0,0,0-2.69-3.69,14.59,14.59,0,0,0-6.65-6.66,17.28,17.28,0,0,0-12.65-.63,25.13,25.13,0,0,0-3.31,1.28,32.94,32.94,0,0,0-11.89,9.84c-.74,1-1.45,2-2.1,3a34.45,34.45,0,0,0-5.37,15.72,17.56,17.56,0,0,0,0,3,17.29,17.29,0,0,1-.69-3.33A30.34,30.34,0,0,1,86,56.38a36.75,36.75,0,0,1,2.12-3.51,32.77,32.77,0,0,1,12.06-10.76A27.43,27.43,0,0,1,103.75,40.62Z" transform="translate(-69.62 -29.62)"/><path class="cls-5" d="M108.7,50.55a20.75,20.75,0,0,1,8.36-1.71,12.44,12.44,0,0,1,8,2.89,11.7,11.7,0,0,1,2.69,3.69,16.19,16.19,0,0,1,1,9.26,28,28,0,0,1-5.3,11.76,2.09,2.09,0,0,1,.43-1.39,14.73,14.73,0,0,0,1.3-2.68,17.76,17.76,0,0,0,1-11,10.12,10.12,0,0,0-5.58-6.7c-3.21-1.41-6.89-1.14-10.2-.2a24.07,24.07,0,0,0-2.43.84,26.9,26.9,0,0,0-10.11,7.24c-.57.66-1.12,1.35-1.63,2a23.25,23.25,0,0,0-4.76,12.59,15.89,15.89,0,0,0,.15,2.67,12,12,0,0,0,3,6.27,11.17,11.17,0,0,1-4.05-6.44,15.26,15.26,0,0,1-.39-2.86A24.49,24.49,0,0,1,94.19,63.1c.51-.82,1.07-1.62,1.65-2.39a32.86,32.86,0,0,1,10.23-8.9A25.38,25.38,0,0,1,108.7,50.55Z" transform="translate(-69.62 -29.62)"/><path class="cls-6" d="M113.47,63.39a11.07,11.07,0,0,1,7.47.21,6.71,6.71,0,0,1,3.75,4.46,11.08,11.08,0,0,1-.8,7,2.09,2.09,0,0,0-.43,1.39c-.48.62-.93,1.25-1.45,1.83,1.54-2.43,2.62-5.39,1.93-8.28a6,6,0,0,0-3.35-4.1,9.58,9.58,0,0,0-6.49-.24q-.72.21-1.41.48a17.39,17.39,0,0,0-5.85,4c-.32.33-.63.67-.94,1a13.45,13.45,0,0,0-3.27,7.44,9.3,9.3,0,0,0,.06,1.67,6.17,6.17,0,0,0,2.47,4.18,7.9,7.9,0,0,0,5.32,1.25,20.1,20.1,0,0,0,4.3-1.09,15.14,15.14,0,0,1-6.9,1.7,7.75,7.75,0,0,1-5.66-2.19,6.93,6.93,0,0,1-1.84-3.75,10.44,10.44,0,0,1-.1-1.85,15.17,15.17,0,0,1,3.64-8.61c.35-.42.71-.83,1.09-1.23A20.14,20.14,0,0,1,111.83,64,16.77,16.77,0,0,1,113.47,63.39Z" transform="translate(-69.62 -29.62)"/><path class="cls-6" d="M231.14,64.54a6.39,6.39,0,0,1,6.39.69c-.48.59-1,1.14-1.49,1.72a3.89,3.89,0,0,0-4.12-.5,5.81,5.81,0,0,0-2.71,3,14,14,0,0,0-1.14,4.93,3.19,3.19,0,0,0,1.47,3.09c1.51.78,3.29.18,4.61-.7.31.57.61,1.15.94,1.7A7.92,7.92,0,0,1,229,79.73a4.54,4.54,0,0,1-3.39-3,10.49,10.49,0,0,1,.46-6.52A9,9,0,0,1,231.14,64.54Z" transform="translate(-69.62 -29.62)"/><path class="cls-6" d="M143,64.3c1.8,0,3.6,0,5.39,0a4,4,0,0,1,3.16,1.38,3.67,3.67,0,0,1-.54,4.6,4.85,4.85,0,0,1-2,1.17,3.19,3.19,0,0,1,2,1.76,4.73,4.73,0,0,1-1.55,5,5.93,5.93,0,0,1-4.06,1.33h-5.65C140.85,74.5,141.93,69.4,143,64.3Zm2.05,2.2c-.27,1.38-.58,2.74-.84,4.12a17.73,17.73,0,0,0,3.34-.16A2.36,2.36,0,0,0,149,67C147.86,66.13,146.36,66.63,145.09,66.5Zm-2.3,11a13.68,13.68,0,0,0,3.73-.23,2.9,2.9,0,0,0,1.81-3.37,1.56,1.56,0,0,0-1.43-1.09c-1-.1-2.08,0-3.11,0C143.45,74.34,143.12,75.92,142.79,77.5Z" transform="translate(-69.62 -29.62)"/><path class="cls-6" d="M199,64.3c1.64,0,3.28,0,4.92,0a4.67,4.67,0,0,1,3.54,1.37,4.37,4.37,0,0,1,.5,3.93,5.6,5.6,0,0,1-3.48,3.75c-1.56.61-3.27.41-4.91.47-.4,1.93-.81,3.85-1.23,5.78h-2.6C196.8,74.5,197.92,69.4,199,64.3Zm2.15,2.11c-.36,1.75-.72,3.49-1.12,5.23a20.45,20.45,0,0,0,2.93,0,3.22,3.22,0,0,0,2.43-2.93,1.82,1.82,0,0,0-1-2A10,10,0,0,0,201.15,66.41Z" transform="translate(-69.62 -29.62)"/><path class="cls-6" d="M260.77,65.64c.69,0,1.37.22,2.05.32-.69,3.37-1.42,6.72-2.13,10.08-.18,1.09-.61,2.27-.14,3.34-.61.13-1.22.27-1.82.44a2.51,2.51,0,0,1-.41-1.25,4.29,4.29,0,0,1-2,1.16,3.15,3.15,0,0,1-2.8-.62,3.73,3.73,0,0,1-.83-2.62A7.54,7.54,0,0,1,255,71a5,5,0,0,1,4.84-.88C260.12,68.6,260.49,67.13,260.77,65.64Zm-4.23,6.48A5.69,5.69,0,0,0,255.13,75a4.58,4.58,0,0,0,0,2.49,1.15,1.15,0,0,0,1.57.5,3.44,3.44,0,0,0,1.8-1.64c.34-1.48.66-3,.95-4.44A2.59,2.59,0,0,0,256.54,72.12Z" transform="translate(-69.62 -29.62)"/><path class="cls-6" d="M266.18,65.89a1.42,1.42,0,1,1-.49,2.38A1.42,1.42,0,0,1,266.18,65.89Z" transform="translate(-69.62 -29.62)"/><path class="cls-6" d="M270.59,67.63c.75-.15,1.51-.34,2.26-.51-.31.94-.57,1.9-.8,2.87h2.27v.19a10.35,10.35,0,0,0-.76,1.33h-1.84c-.36,1.79-.76,3.58-1.12,5.37,0,.42-.18.93.15,1.26.49.35,1.13.11,1.66,0,0,.45,0,.89,0,1.34a4.18,4.18,0,0,1-3.41,0,2,2,0,0,1-.57-2.24c.36-1.93.81-3.84,1.2-5.77h-1.08c.11-.51.21-1,.31-1.53h1.08A17.17,17.17,0,0,1,270.59,67.63Z" transform="translate(-69.62 -29.62)"/><path class="cls-6" d="M209.57,70.48c.66-.29,1.33-.55,2-.84a5.45,5.45,0,0,1,.2,1.75c.87-1,2.21-2.06,3.62-1.48-.32.66-.63,1.33-.92,2-1.23-.52-2.29.6-2.89,1.53-.49,2-.88,4.11-1.33,6.16h-2.12c.46-2.3,1-4.59,1.45-6.9A4.76,4.76,0,0,0,209.57,70.48Z" transform="translate(-69.62 -29.62)"/><path class="cls-6" d="M156.18,70.29a6.31,6.31,0,0,1,5.45.14c-.58,2.11-1,4.27-1.4,6.42a1.92,1.92,0,0,0,.41,1.82c-.6.44-1.18.89-1.79,1.31a2.53,2.53,0,0,1-.72-1.5,3.48,3.48,0,0,1-3.87,1.18,2.54,2.54,0,0,1-1.45-2.23C152.59,74.72,153.66,71.62,156.18,70.29Zm.58,1.68a5.35,5.35,0,0,0-1.68,3.41,4.37,4.37,0,0,0,0,2.27,1.09,1.09,0,0,0,1.5.33,3.1,3.1,0,0,0,1.71-2.15c.29-1.41.6-2.81.92-4.21A2.62,2.62,0,0,0,156.76,72Z" transform="translate(-69.62 -29.62)"/><path class="cls-6" d="M163.9,70.49c.66-.3,1.33-.57,2-.83a4.15,4.15,0,0,1,.18,1.68,4.72,4.72,0,0,1,3-1.56,2,2,0,0,1,2.17,1.07,6,6,0,0,1-.2,3.06c-.41,1.89-.81,3.79-1.22,5.69h-2.11c.46-2.26,1-4.51,1.42-6.77.07-.41.16-1.06-.36-1.21a2.53,2.53,0,0,0-2.16.89c-.31.34-.76.64-.83,1.13l-1.26,6h-2.1c.46-2.25.95-4.48,1.41-6.72A4.88,4.88,0,0,0,163.9,70.49Z" transform="translate(-69.62 -29.62)"/><path class="cls-6" d="M176,70.36a4,4,0,0,1,4.91.38c-.39.46-.78.93-1.14,1.43a2.43,2.43,0,0,0-2.23-.62,3,3,0,0,0-1.67,1.9,9.18,9.18,0,0,0-.67,3c0,.65.22,1.46.91,1.65a3.13,3.13,0,0,0,2.7-.94c.26.45.52.91.77,1.37a5.25,5.25,0,0,1-3.38,1.27,3.11,3.11,0,0,1-2.74-1.17,5,5,0,0,1-.37-3.79A7.09,7.09,0,0,1,176,70.36Z" transform="translate(-69.62 -29.62)"/><path class="cls-6" d="M185.25,69.93a4.4,4.4,0,0,1,3.46.37A3,3,0,0,1,190,72.69a7.75,7.75,0,0,1-1.48,5.23,5,5,0,0,1-5.47,1.7,2.87,2.87,0,0,1-1.84-2.34A7.7,7.7,0,0,1,182.41,72,5.12,5.12,0,0,1,185.25,69.93Zm.34,1.62a2.85,2.85,0,0,0-1.22,1.21,8.08,8.08,0,0,0-1,3.73,1.74,1.74,0,0,0,.64,1.55,1.91,1.91,0,0,0,2.31-.57,6.71,6.71,0,0,0,1.32-3.67,2.91,2.91,0,0,0-.32-2A1.56,1.56,0,0,0,185.59,71.55Z" transform="translate(-69.62 -29.62)"/><path class="cls-6" d="M218.76,69.91a4.51,4.51,0,0,1,3.27.31,2.93,2.93,0,0,1,1.38,2.23,8.22,8.22,0,0,1-.91,4.65,5.13,5.13,0,0,1-3.68,2.68,4,4,0,0,1-3.19-.65,3.12,3.12,0,0,1-1-2.08,7.72,7.72,0,0,1,1.18-5A5.18,5.18,0,0,1,218.76,69.91Zm.56,1.53c-1.27.39-1.83,1.76-2.16,2.94a6.15,6.15,0,0,0-.17,3,1.57,1.57,0,0,0,2.44.41A5.3,5.3,0,0,0,221,74.65a5.38,5.38,0,0,0,0-2.46A1.38,1.38,0,0,0,219.32,71.44Z" transform="translate(-69.62 -29.62)"/><path class="cls-6" d="M238,70.48c.65-.28,1.32-.53,2-.83a3.26,3.26,0,0,1,.17,1.83c.87-1,2.23-2.13,3.68-1.59-.3.68-.61,1.34-.92,2-1.07-.46-2,.4-2.64,1.18a2.56,2.56,0,0,0-.48,1.35q-.54,2.58-1.1,5.18h-2.12c.47-2.24,1-4.47,1.43-6.7A5.21,5.21,0,0,0,238,70.48Z" transform="translate(-69.62 -29.62)"/><path class="cls-6" d="M245.29,71a4.63,4.63,0,0,1,5.11-.82,2.69,2.69,0,0,1,.21,4.26c-1.41,1.19-3.42,1.23-5.16,1a3,3,0,0,0,.13,2,1.82,1.82,0,0,0,2,.71,4.86,4.86,0,0,0,2.24-1c.22.46.44.91.65,1.37a6.18,6.18,0,0,1-2.93,1.28,4.22,4.22,0,0,1-3.46-.79,3.83,3.83,0,0,1-1-3.1A7.56,7.56,0,0,1,245.29,71Zm2.34.45A3.33,3.33,0,0,0,245.81,74a5.43,5.43,0,0,0,2.88-.35,1.32,1.32,0,0,0,.51-1.84C248.87,71.27,248.15,71.32,247.63,71.44Z" transform="translate(-69.62 -29.62)"/><path class="cls-6" d="M265,70.09c.71-.13,1.43-.21,2.15-.32-.67,3.28-1.37,6.55-2.06,9.83h-2.18c.6-2.89,1.23-5.77,1.83-8.65A2.27,2.27,0,0,1,265,70.09Z" transform="translate(-69.62 -29.62)"/></svg>