<svg id="Banco_Popular" data-name="Banco Popular" xmlns="http://www.w3.org/2000/svg" viewBox="0 0 210.28 51.23"><defs><style>.cls-1{fill:#be2636;}</style></defs><g id="g3086"><path id="path3061" class="cls-1" d="M74.09,34.85V60c0,13.83,0,25.21.06,25.25s11.68,0,25.87,0h25.75V34.91H100Zm33.4,1.81,16.42.06v6.06c0,3.34,0,6.15,0,6.22s-.33,0-1-.22c-.49-.2-2.26-.89-4-1.53l-4.07-1.53-2.78-1c-1-.38-2.25-.88-2.77-1.07s-1.76-.7-2.77-1.08-2.34-.85-3-1.08l-2.2-.85-2.1-.79-1.81-.68-5.15-1.92a9.55,9.55,0,0,1-1.19-.51C91.07,36.67,98,36.65,107.49,36.66ZM89,49.34c.08,0,1,.36,2,.79l2.83,1.25,2.15,1c.6.27,1.63.75,2.26,1s1.8.75,2.55,1.08l2,.9c.37.16.93.42,1.24.57l1.7.73a7.3,7.3,0,0,1,1.19.63c.06.1.07.07-1.53.68l-2,.79-2,.73c-.58.22-1.13.46-1.24.51s-.64.23-1.14.4-1,.34-1.07.4c-.28.12-3.2,1.25-4.13,1.58a14.9,14.9,0,0,0-1.53.57c-.2.09-.56.24-.85.34a3.07,3.07,0,0,0-.68.28c-.1.08-.11,1.73-.11,7.64,0,7.17,0,7.59.17,7.59s3.09-1.17,4.13-1.64c.26-.12.87-.33,1.36-.51,1.17-.45,6-2.46,6.45-2.66.19-.09.69-.25,1.08-.4s.84-.32,1-.4c.44-.2,3.14-1.3,3.9-1.58.35-.13.87-.37,1.19-.51s.9-.38,1.25-.51.73-.32.9-.4l1.42-.56c.6-.24,1.24-.49,1.41-.57s.78-.34,1.36-.56c1.47-.58,5.72-2.26,6.23-2.5.7-.32,1.19-.5,1.3-.39s.07,3.72.06,8.94v8.78l-17.44,0c-9.59,0-17.51,0-17.55,0s0-7.67,0-17C88.87,51.8,88.91,49.34,89,49.34Z" transform="translate(-74.09 -34.23)"/><g id="g3073"><path id="path3055" class="cls-1" d="M209.89,57.58a12.08,12.08,0,0,1-4.37-1.45A10.65,10.65,0,0,1,200.2,49a17.23,17.23,0,0,1,0-5.6,11.62,11.62,0,0,1,7.31-8,16.18,16.18,0,0,1,6.17-.66c3.58.1,5.34.37,6.77,1.06.77.37.78.41.34,1.86l-.32,1h-.84a1.89,1.89,0,0,1-1.63-.61,9,9,0,0,0-5.6-2,9.15,9.15,0,0,0-6.7,4.76,13.46,13.46,0,0,0,.1,10.67,8.8,8.8,0,0,0,5.2,4.12,9.53,9.53,0,0,0,7.8-1.64,1.51,1.51,0,0,1,1.21-.35l.65,0,0,.69c0,.91-.22,1.23-.9,1.62a13.78,13.78,0,0,1-4.6,1.43,23.65,23.65,0,0,1-5.24,0Z" transform="translate(-74.09 -34.23)"/><path id="path3045" class="cls-1" d="M236.49,34.23a15,15,0,0,0-6.05.94A8.55,8.55,0,0,0,227,37.46a12.87,12.87,0,0,0-3.5,5.91,19.36,19.36,0,0,0-.06,5.38,8.92,8.92,0,0,0,3.16,5.45,12.43,12.43,0,0,0,6.72,3.09,23.26,23.26,0,0,0,7.94-.4,14.82,14.82,0,0,0,4.17-2.09,10,10,0,0,0,4.3-8.67,11.89,11.89,0,0,0-3-8.27C244.59,35.3,241.59,34.22,236.49,34.23Zm-.13,1.48a5.55,5.55,0,0,1,2.28.27,7.81,7.81,0,0,1,2.83,1.54,9,9,0,0,1,3,4.17,8.63,8.63,0,0,1,.53,3.7,12.53,12.53,0,0,1-.8,4.77,9.21,9.21,0,0,1-5.31,5.52,10.16,10.16,0,0,1-3.37.33,9.12,9.12,0,0,1-3.56-1.41,9.49,9.49,0,0,1-3-3.49c-.09-.23-.21-.54-.27-.68s-.24-.91-.47-1.81a15.32,15.32,0,0,1,0-4.17,14.75,14.75,0,0,1,2.83-6.25,6.26,6.26,0,0,1,2.82-2.09A5,5,0,0,1,236.36,35.71Z" transform="translate(-74.09 -34.23)"/><path id="path3041" class="cls-1" d="M161,62.27a18.57,18.57,0,0,0-3.76.4A10.18,10.18,0,0,0,151.57,66a11.37,11.37,0,0,0-3.09,8.61c.18,3.26.91,5.22,2.62,6.93a12.66,12.66,0,0,0,7.39,3.69,22.14,22.14,0,0,0,8.41-.47,13.69,13.69,0,0,0,6-4.17,9.81,9.81,0,0,0,1.82-5.17,12.51,12.51,0,0,0-2.16-8.74c-2-2.63-3.78-3.63-7.46-4.24A23.49,23.49,0,0,0,161,62.27Zm.41,1.41a8.73,8.73,0,0,1,4.3,1.14,13,13,0,0,1,2.69,2.49A9.39,9.39,0,0,1,170.06,72a11.21,11.21,0,0,1-.34,4.7c-.8,3.39-3,6.11-5.78,7a9.77,9.77,0,0,1-3.29.33,8.4,8.4,0,0,1-3.9-1.68c-4.14-3.1-4.7-10.05-1.21-15.26a7.1,7.1,0,0,1,4.5-3.3A5.73,5.73,0,0,1,161.39,63.68Z" transform="translate(-74.09 -34.23)"/><path id="path3037" class="cls-1" d="M206.11,85.4c-3.68-.49-5.17-1.36-6.4-3.77a11.69,11.69,0,0,1-.91-2.39c-.3-1.18-.3-1.22-.3-8.79V62.84h4.37l.06,7.73c.07,7.58.07,7.76.35,8.72a5.16,5.16,0,0,0,1.57,2.76,6.38,6.38,0,0,0,5.26,1.81,7,7,0,0,0,2.26-.65c1.67-.81,2.73-2.59,3.23-5.37a70.3,70.3,0,0,0,.18-8v-7h3.38l0,7.64c0,7.54,0,7.65-.33,8.76a6.61,6.61,0,0,1-.4,1.24.49.49,0,0,0-.11.27,8.94,8.94,0,0,1-1.85,2.69A7.7,7.7,0,0,1,213.6,85a20.86,20.86,0,0,1-5,.48c-1.14,0-2.23,0-2.44-.06Z" transform="translate(-74.09 -34.23)"/><path id="path3027" class="cls-1" d="M130.05,35V57h4.57c5.57,0,6.12-.06,8.07-1,2.45-1.2,3.37-2.71,3.36-5.58a4,4,0,0,0-.4-2.29,4.48,4.48,0,0,0-.74-1.14,9.38,9.38,0,0,0-3-1.48c-.85-.27-1.2-.47-.8-.47a6.41,6.41,0,0,0,2.55-1.55,5.32,5.32,0,0,0,1.55-4.77,3.39,3.39,0,0,0-2.42-3c-1.44-.54-2.35-.6-7.74-.6Zm4.17,1.27H135a12.4,12.4,0,0,1,3.7.47A3.13,3.13,0,0,1,141.08,40c0,2.23-1.28,3.69-3.63,4.3a9.32,9.32,0,0,1-2,.21h-1.28V40.41Zm.61,9.69a12,12,0,0,1,4.7.94,4.59,4.59,0,0,1,2.09,4.64,5.17,5.17,0,0,1-3.57,3.83,7.63,7.63,0,0,1-2.82.2l-1-.07V46.06Z" transform="translate(-74.09 -34.23)"/><path id="path3021" class="cls-1" d="M160.17,34.43a2.79,2.79,0,0,0-1,.07c-.21.11-.78,1.17-2.9,5.78-.39.86-.85,1.94-1.07,2.42s-.75,1.56-1.14,2.42l-1.15,2.49c-.24.51-.71,1.56-1.07,2.35L150,54c-.65,1.42-1.21,2.65-1.21,2.75s.27.21,1.89.21h1.88l.2-.34c.11-.21.41-1,.67-1.75.49-1.34,1.66-4.51,2.22-5.92l.34-.8h3.29l3.37-.07.13.47c.11.22.52,1.13.87,2s.75,1.81.88,2.08.52,1.26.87,2.15c1,2.43.58,2.16,3.36,2.16,1.93,0,2.36,0,2.36-.14a8.31,8.31,0,0,0-.81-2.08c-.23-.5-.4-.91-.4-.94s-.33-.63-.68-1.35a14.49,14.49,0,0,1-.6-1.41s-.26-.62-.61-1.35-.6-1.38-.6-1.41-.24-.44-.47-.94L166.29,46c-.1-.24-.39-.94-.67-1.55s-.54-1.12-.54-1.14-.26-.62-.6-1.35-.61-1.38-.61-1.41-.19-.41-.4-.88-.52-1.13-.67-1.47c-.72-1.6-1.13-2.52-1.41-3.1l-.34-.67Zm-.8,6.19a8,8,0,0,1,1.14,2.22c.15.37.35.93.47,1.21.35.76,1,2.36,1,2.42s-1.15,0-2.55,0a13.84,13.84,0,0,1-2.56-.07,8.23,8.23,0,0,1,.47-1.28c.28-.63.82-1.91,1.21-2.82A10.09,10.09,0,0,1,159.37,40.62Z" transform="translate(-74.09 -34.23)"/><path id="path3017" class="cls-1" d="M174.91,56.89s-.08-5-.08-11.11v-11h3l2.35,2.52,4.23,4.52c1,1.11,2.23,2.4,2.69,2.88s1.72,1.83,2.8,3A25.08,25.08,0,0,0,192,49.84c.14,0,.17-1.21.2-7.49l0-7.52,1.66,0,1.65,0,0,11.07,0,11.07-1.24,0L193,57l-.56-.6c-.67-.7-5.34-5.75-7.81-8.44l-3.12-3.38c-.77-.82-1.75-1.89-2.2-2.39a3.94,3.94,0,0,0-.94-.86c-.08,0-.14,2.77-.18,7.81l-.07,7.79-1.56,0a8.47,8.47,0,0,1-1.66,0Z" transform="translate(-74.09 -34.23)"/><path id="path3015" class="cls-1" d="M129.92,62.81l-.07,10.69c0,5.86,0,10.87.07,11.09l.06.4h2.09c2.06,0,2.08,0,2.15-.26s.07-2.46.07-5V75h.33c.16,0,1.19-.11,2.36-.14a11.17,11.17,0,0,0,5-1c2.91-1.37,3.9-2.72,3.9-5.58,0-2.09-.54-3.4-1.68-4.23a5.26,5.26,0,0,0-2.42-1c-1-.23-1.51-.24-6.52-.2Zm4.43,1.27h1.89a8.25,8.25,0,0,1,2.55.2,4.21,4.21,0,0,1,2.42,3.23A5.43,5.43,0,0,1,138.12,73a5.8,5.8,0,0,1-2.22.2h-1.61l.06-4.57Z" transform="translate(-74.09 -34.23)"/><path id="path3011" class="cls-1" d="M178.26,62.81v11c0,6.06,0,11.11.07,11.16s1,0,2.22,0h2.08l.07-5V75l.4-.06c.23,0,1.33-.11,2.42-.14A10.89,10.89,0,0,0,191.91,73a5.09,5.09,0,0,0,1.48-1.28c.81-1.1,1-1.78.94-3.63s-.22-2.63-1.14-3.63A4.79,4.79,0,0,0,190.37,63c-.89-.23-1.41-.2-6.53-.2Zm6,1.21a6.07,6.07,0,0,1,3.69.67,4.29,4.29,0,0,1,1.75,3.49,5.49,5.49,0,0,1-2.82,4.71,5,5,0,0,1-2.42.34l-1.75.06.07-4.63V64.08Z" transform="translate(-74.09 -34.23)"/><path id="path3007" class="cls-1" d="M225.45,84.7c0-.15,0-5.14,0-11.07l0-10.79h4.12L229.63,73l.06,10.16h2.75c1.51,0,3.41-.06,4.24-.14a12.83,12.83,0,0,1,1.68-.08c.15,0,.19.25.19,1v1L232,85l-6.51,0-.07-.28Z" transform="translate(-74.09 -34.23)"/><path id="path3005" class="cls-1" d="M251.49,62.4c-.47.08-.59.41-1,1.35-.22.47-.67,1.44-1,2.15s-.61,1.25-.61,1.28-.76,1.62-1.68,3.56c-.33.71-.6,1.32-.6,1.34s-.2.51-.47,1.08-.85,1.76-1.28,2.69-.89,2.08-1.08,2.49-.71,1.49-1.14,2.42-1,2.12-1.28,2.69a6,6,0,0,0-.47,1.28c0,.23.12.26,1.89.26h1.81l.2-.4c.11-.23.4-1.07.68-1.81.45-1.26,1.61-4.2,2.28-5.92l.27-.74,3.3.07c2.78,0,3.34,0,3.42.2.21.37.75,1.59,1.75,4.1.56,1.41,1.09,2.75,1.21,3s.37.75.47,1l.21.47h2.35a10.12,10.12,0,0,0,2.42-.13,8.43,8.43,0,0,0-.67-1.82l-1-2.21c-.19-.44-3-6.62-3.63-8-.13-.27-.55-1.32-1-2.35s-1-2.18-1.21-2.55c-.54-1.19-.89-2-1.62-3.64a12.13,12.13,0,0,0-.87-1.74,2.34,2.34,0,0,0-1-.14A5.93,5.93,0,0,0,251.49,62.4Zm15.13.41v11c0,6,0,10.94,0,11s.62.16,2.21.14H271l.06-5c0-2.94.07-5,.14-5A26,26,0,0,1,273,77.13c1,1.18,2.79,3.42,4,5L279.32,85l2.56-.06a17.16,17.16,0,0,0,2.49-.07,2.75,2.75,0,0,0-.47-.81c-.3-.36-1.4-1.63-2.42-2.89s-2.05-2.47-2.22-2.69-.94-1.23-1.75-2.22a15.33,15.33,0,0,1-1.48-2c0-.09.15-.23.34-.27a12.36,12.36,0,0,0,1.61-.4l.67-.27A8.7,8.7,0,0,0,281,71.75,4.66,4.66,0,0,0,282.42,69a5.21,5.21,0,0,0-1.35-4.5A4.93,4.93,0,0,0,278.32,63c-.92-.23-1.37-.23-6.32-.2Zm4.5,1.27h1.48a9.06,9.06,0,0,1,2.15.27,5.23,5.23,0,0,1,2.36,1.41c1.56,2,1,4.69-1.28,6.26a6,6,0,0,1-3,1c-1.22.14-1.48.12-1.68,0s-.16-1.06-.14-4.51Zm-19.63,4.58c.1,0,.35.48.74,1.47.14.38.39,1,.6,1.48A26.36,26.36,0,0,1,254,74.37a32.39,32.39,0,0,1-5,.07c-.06-.07.14-.54.81-2,.13-.28.32-.77.47-1.14A13.58,13.58,0,0,1,251.49,68.66Z" transform="translate(-74.09 -34.23)"/></g></g></svg>