<svg id="Banco_Colpatria" data-name="Banco Colpatria" xmlns="http://www.w3.org/2000/svg" viewBox="0 0 114.21 75.87"><defs><style>.cls-1{fill:none;}.cls-2{fill:#fff;fill-rule:evenodd;}.cls-3{fill:#de1620;}</style></defs><rect class="cls-1" width="114.2" height="75.86"/><path class="cls-2" d="M142.13,45.56c0-14.08,19-25.49,42.38-25.49S226.9,31.48,226.9,45.56,207.93,71,184.51,71s-42.38-11.41-42.38-25.44" transform="translate(-127.28 -20.07)"/><path class="cls-3" d="M176.81,36.41a23,23,0,0,1,6.09-.83c8.62,0,15.53,4.47,15.53,9.92,0,2.92-2.11,6.25-6.3,9.27a23.47,23.47,0,0,1-6.08.84c-8.62,0-15.54-4.51-15.54-10,0-2.9,2.12-6.23,6.3-9.24m37.09-9.13c8,4.64,12.93,11.12,12.93,18.29,0,14.08-19,25.47-42.36,25.47a63.64,63.64,0,0,1-23.63-4.33,170.78,170.78,0,0,0,20.63.47c10.79-.63,37.16-5.74,37.16-19.21,0-11.25-20.66-14.82-28.67-14.39a52.83,52.83,0,0,0-11.93,2A46.13,46.13,0,0,1,191.63,30s14.16-3.37,22.27-2.68M142.11,45.57c0-14,19-25.44,42.36-25.44a63.75,63.75,0,0,1,23.62,4.31A174.3,174.3,0,0,0,187.48,24c-10.79.61-37.16,5.76-37.16,19.19C150.32,54.47,171,58,179,57.56a51.82,51.82,0,0,0,11.95-2A45.75,45.75,0,0,1,177.3,61.2S163.16,64.55,155,63.9c-8-4.63-12.92-11.14-12.92-18.33" transform="translate(-127.28 -20.07)"/><path d="M141,79.78a8.86,8.86,0,0,0-3.66-.81,10.17,10.17,0,0,0-9.72,8.45,6.91,6.91,0,0,0,1.63,6,7.58,7.58,0,0,0,5.63,2.36,12.88,12.88,0,0,0,3.77-.74l.76-5a5.6,5.6,0,0,1-3.83,1.7c-2.58,0-4-1.83-3.63-4.36A5.06,5.06,0,0,1,136.89,83a3.78,3.78,0,0,1,3.36,1.77Zm9.86-.92c-4.58,0-9.33,3.4-10.07,8.24-.79,5.18,2.34,8.84,7.47,8.84a10.24,10.24,0,0,0,10.16-8.84c.74-4.84-3-8.24-7.56-8.24m-.61,4a3.72,3.72,0,0,1,3.85,4.22,5.53,5.53,0,0,1-5.23,4.78c-2.47,0-4.2-2-3.77-4.78a5.38,5.38,0,0,1,5.15-4.22M165,79.4h-4.15l-2.44,16h9.1l.55-3.53h-5Zm3.63,16h4.13l.82-5.31H176c3.61,0,5.89-1.66,6.48-5.43s-1.57-5.27-5-5.27h-6.34Zm6.08-12.66h.7c1.6,0,3,0,2.66,2s-1.77,1.95-3.28,1.95h-.7Zm15.44,9.87.61,2.79h4.41l-3.54-16h-4.54l-8.57,16H183l1.53-2.79Zm-.64-3.18h-3.44l2.49-5.1ZM203,82.92h3.43L207,79.4H196l-.54,3.52h3.43l-1.92,12.49h4.15Zm12,5.93a5.26,5.26,0,0,0,4.19-4.53c.52-3.42-1.64-4.92-4.79-4.92h-6.2l-2.45,16h4.15l.94-6.17,3,6.17H219Zm-3.14-6.27h.4c1.36,0,2.84.26,2.57,2s-1.82,2-3.18,2h-.4Zm14.41-3.18h-4.14l-2.45,16h4.15Zm10.18,13.22.61,2.79h4.42l-3.56-16h-4.51l-8.59,16h4.4l1.53-2.79Zm-.63-3.18h-3.45l2.49-5.1Z" transform="translate(-127.28 -20.07)"/></svg>