<svg id="Banco_Av_Villas" data-name="Banco Av Villas" xmlns="http://www.w3.org/2000/svg" viewBox="0 0 284.37 39.68"><defs><style>.cls-1{fill:#fa0f0c;}.cls-2{fill:#1a3990;}.cls-3{fill:#fff;}</style></defs><path class="cls-1" d="M107.66,66.65a8.42,8.42,0,0,1-3.43,5.11,9.85,9.85,0,0,1-3,1.43,15,15,0,0,1-3.83.42l-8.71,0,5.21-22.8,7.68,0a24,24,0,0,1,3.59.2,5.43,5.43,0,0,1,2.13.81,3.13,3.13,0,0,1,1.35,1.76,5.07,5.07,0,0,1,0,2.54,6.81,6.81,0,0,1-1.47,3A6.46,6.46,0,0,1,104.5,61l0,.13A4.34,4.34,0,0,1,107.29,63,4.71,4.71,0,0,1,107.66,66.65Zm-5.6-.12a2.68,2.68,0,0,0,0-1.66,1.83,1.83,0,0,0-1-.9,3.6,3.6,0,0,0-1.32-.23c-.58,0-1.35,0-2.33,0h-1l-1.31,5.71h.29c1.43,0,2.41,0,3,0a5.26,5.26,0,0,0,1.76-.41,3,3,0,0,0,1.32-1A4,4,0,0,0,102.06,66.53Zm.74-9.27a2.54,2.54,0,0,0,0-1.13,1.23,1.23,0,0,0-.65-.85,3,3,0,0,0-1.22-.27c-.49,0-1.22,0-2.19,0h-.38l-1.1,4.82h.68q1.41,0,2,0a3.4,3.4,0,0,0,1.23-.32,2.48,2.48,0,0,0,1.11-.88A3.92,3.92,0,0,0,102.8,57.26Z" transform="translate(-35.28 -39.6)"/><path class="cls-1" d="M118.36,71.84l-1.13.82a6.8,6.8,0,0,1-1.29.73,9.05,9.05,0,0,1-1.46.54,7.25,7.25,0,0,1-1.86.17,3.73,3.73,0,0,1-3.26-1.53,4.62,4.62,0,0,1-.56-3.87,7.27,7.27,0,0,1,1.43-3.09,7.19,7.19,0,0,1,2.54-1.86,12.55,12.55,0,0,1,3.54-1c1.32-.18,2.74-.32,4.24-.42l0-.09c.21-1,0-1.61-.56-2a5.58,5.58,0,0,0-2.87-.55,8.62,8.62,0,0,0-2.2.33,19.51,19.51,0,0,0-2.57.88h-.44l1-4.15q.81-.23,2.58-.54A19.83,19.83,0,0,1,119,56c2.82,0,4.77.5,5.83,1.49s1.37,2.49.91,4.51L123,73.67H118Zm.61-2.67.82-3.58-2.16.23a8.58,8.58,0,0,0-1.67.39,3,3,0,0,0-1.21.74,2.68,2.68,0,0,0-.68,1.32c-.18.81-.1,1.36.24,1.66a2.6,2.6,0,0,0,1.73.46,3.67,3.67,0,0,0,1.45-.32A5.59,5.59,0,0,0,119,69.17Z" transform="translate(-35.28 -39.6)"/><path class="cls-1" d="M142.19,73.72l-5.14,0L139,65.18c.16-.7.29-1.39.4-2.08a4.41,4.41,0,0,0,0-1.52,1.18,1.18,0,0,0-.57-.84,2.65,2.65,0,0,0-1.27-.26,3.79,3.79,0,0,0-1.32.25,8,8,0,0,0-1.56.77l-2.78,12.19h-5.11l3.92-17.2,5.12,0-.44,1.9a16.3,16.3,0,0,1,2.85-1.74,6.45,6.45,0,0,1,2.78-.63,3.66,3.66,0,0,1,3.46,1.67c.64,1.11.71,2.72.23,4.82Z" transform="translate(-35.28 -39.6)"/><path class="cls-1" d="M153.92,74.2a11.08,11.08,0,0,1-3.6-.54A5.87,5.87,0,0,1,147.77,72a5.73,5.73,0,0,1-1.27-2.82,10.14,10.14,0,0,1,.22-4,12.77,12.77,0,0,1,1.7-4.19,10.85,10.85,0,0,1,2.67-2.84,10.22,10.22,0,0,1,3.25-1.58,12.84,12.84,0,0,1,3.57-.51,11.12,11.12,0,0,1,2.65.34,9.29,9.29,0,0,1,2.49,1.06L162,62.06h-.66a8.15,8.15,0,0,0-.6-.68,5.34,5.34,0,0,0-.81-.67,4.83,4.83,0,0,0-1.14-.55,4.89,4.89,0,0,0-1.51-.23,4.54,4.54,0,0,0-3.36,1.43A7.86,7.86,0,0,0,152,65.21c-.4,1.72-.31,3,.26,3.86A3.11,3.11,0,0,0,155,70.35a6.34,6.34,0,0,0,1.75-.23,7.35,7.35,0,0,0,1.38-.55,7.63,7.63,0,0,0,1-.66c.3-.23.55-.44.77-.62h.66l-1.05,4.6-1.12.45a9.17,9.17,0,0,1-1.28.43,14.66,14.66,0,0,1-1.47.32A9.45,9.45,0,0,1,153.92,74.2Z" transform="translate(-35.28 -39.6)"/><path class="cls-1" d="M179.47,65.21a12.24,12.24,0,0,1-3.74,6.68,9.93,9.93,0,0,1-6.82,2.43q-4,0-5.69-2.46c-1.11-1.63-1.35-3.86-.7-6.69a12.15,12.15,0,0,1,3.76-6.71,10,10,0,0,1,6.8-2.41q4,0,5.7,2.46T179.47,65.21Zm-5.25,0a12,12,0,0,0,.34-2.55,4.05,4.05,0,0,0-.3-1.63,1.8,1.8,0,0,0-.81-.9,2.81,2.81,0,0,0-1.25-.26,3.64,3.64,0,0,0-1.29.22,3.43,3.43,0,0,0-1.22.85,6.2,6.2,0,0,0-1.07,1.64,12.08,12.08,0,0,0-.86,2.61,11.31,11.31,0,0,0-.34,2.55,4.29,4.29,0,0,0,.29,1.56,1.74,1.74,0,0,0,.82.87,2.8,2.8,0,0,0,1.3.28,3.61,3.61,0,0,0,1.31-.27,3.25,3.25,0,0,0,1.21-.82,6.65,6.65,0,0,0,1.05-1.59A12.89,12.89,0,0,0,174.22,65.23Z" transform="translate(-35.28 -39.6)"/><path class="cls-1" d="M187,73.82,199.5,51l6,0,2.15,22.81H202l-.29-4.66h-6.84l-2.42,4.65Zm14.48-8.76-.5-7.52L197,65.05Z" transform="translate(-35.28 -39.6)"/><path class="cls-1" d="M233.16,51.12,220.47,73.9h-5.7l-2.28-22.82,5.67,0,1.21,15.46,8.26-15.44Z" transform="translate(-35.28 -39.6)"/><path class="cls-1" d="M262.12,51.19,249.43,74h-5.7l-2.27-22.82,5.67,0,1.2,15.46,8.27-15.44Z" transform="translate(-35.28 -39.6)"/><path class="cls-1" d="M263.75,74h-5.11l3.92-17.2h5.12Zm4.63-19.65H263l.95-4.18h5.41Z" transform="translate(-35.28 -39.6)"/><path class="cls-1" d="M272.78,74h-5.11l5.44-23.83h5.11Z" transform="translate(-35.28 -39.6)"/><path class="cls-1" d="M281.81,74.05H276.7l5.44-23.83h5.11Z" transform="translate(-35.28 -39.6)"/><path class="cls-1" d="M295.19,72.26l-1.13.82a7.37,7.37,0,0,1-1.29.74,9,9,0,0,1-1.46.53,7.66,7.66,0,0,1-1.86.18A3.74,3.74,0,0,1,286.19,73a4.59,4.59,0,0,1-.56-3.86A7.15,7.15,0,0,1,287.06,66a7,7,0,0,1,2.54-1.87,12.9,12.9,0,0,1,3.54-1c1.32-.18,2.74-.32,4.24-.42l0-.09c.22-.95,0-1.61-.55-2a5.7,5.7,0,0,0-2.88-.55,8.69,8.69,0,0,0-2.19.34,21,21,0,0,0-2.57.87h-.44l1-4.15q.81-.23,2.58-.54a20.74,20.74,0,0,1,3.49-.3c2.82,0,4.77.5,5.83,1.49s1.37,2.49.91,4.52l-2.67,11.69h-5.09Zm.61-2.66.82-3.59-2.16.23a8.58,8.58,0,0,0-1.67.39,3,3,0,0,0-1.21.74,2.68,2.68,0,0,0-.68,1.33c-.18.8-.1,1.36.24,1.66a2.66,2.66,0,0,0,1.73.45,3.65,3.65,0,0,0,1.45-.31A6.18,6.18,0,0,0,295.8,69.6Z" transform="translate(-35.28 -39.6)"/><path class="cls-1" d="M308.53,74.59a12.55,12.55,0,0,1-3.33-.42,9.88,9.88,0,0,1-2.44-1l1-4.53h.42c.2.19.43.41.69.64a5.52,5.52,0,0,0,1.13.74,7.48,7.48,0,0,0,1.48.61,6.5,6.5,0,0,0,1.89.25,5.33,5.33,0,0,0,2-.34,1.61,1.61,0,0,0,1.08-1.12.92.92,0,0,0-.17-.9A3.31,3.31,0,0,0,311,68c-.36-.1-.83-.21-1.4-.33a11.83,11.83,0,0,1-1.48-.41,4.31,4.31,0,0,1-2.48-1.87,4.47,4.47,0,0,1-.23-3.24,6,6,0,0,1,1-2.16,7.52,7.52,0,0,1,1.9-1.82A9.86,9.86,0,0,1,311,56.9a12,12,0,0,1,3.35-.45,11.69,11.69,0,0,1,3.09.37,9.27,9.27,0,0,1,2.25.87l-1,4.35h-.41a5.17,5.17,0,0,0-.7-.58,7.5,7.5,0,0,0-1-.62,5.67,5.67,0,0,0-1.32-.51,5.87,5.87,0,0,0-1.59-.21,4.52,4.52,0,0,0-2,.4,1.58,1.58,0,0,0-1,1,1,1,0,0,0,.17.92,3.29,3.29,0,0,0,1.5.66c.41.12.89.23,1.44.34a9.17,9.17,0,0,1,1.54.44,4.08,4.08,0,0,1,2.28,1.76,4.23,4.23,0,0,1,.21,3.07,6.31,6.31,0,0,1-1.06,2.3,7,7,0,0,1-2,1.84,9.92,9.92,0,0,1-2.76,1.25A12.5,12.5,0,0,1,308.53,74.59Z" transform="translate(-35.28 -39.6)"/><path class="cls-2" d="M80.93,49.51c4.16,8.43-2.4,20.17-14.66,26.23s-25.58,4.15-29.74-4.27,2.4-20.17,14.66-26.23S76.76,41.09,80.93,49.51Z" transform="translate(-35.28 -39.6)"/><path class="cls-2" d="M46.45,53.94s15.49,3.79,16.36,16.94c.88.15.88,0,.88,0,1.39-4,12.92-28.54,26.15-31.11,0,0-15.49-1.46-27,20C55.3,51.54,46.45,53.94,46.45,53.94Z" transform="translate(-35.28 -39.6)"/><path class="cls-3" d="M45.65,53.79S61.13,57.59,62,70.74c.88.14.88,0,.88,0S72.53,42.83,89,39.62c0,0-15.48-1.46-27,20C54.49,51.39,45.65,53.79,45.65,53.79Z" transform="translate(-35.28 -39.6)"/><path class="cls-3" d="M57.61,71.44C51.1,71,46,68.55,46.19,66s5.63-4.29,12.13-3.84l.32,0A19,19,0,0,0,53.12,61c-6.12-.42-11.28,1.86-11.53,5.09s4.51,6.2,10.62,6.63a17.18,17.18,0,0,0,8-1.2Q58.94,71.53,57.61,71.44Z" transform="translate(-35.28 -39.6)"/></svg>