<svg id="Banco_Estado" data-name="Banco Estado" xmlns="http://www.w3.org/2000/svg" xmlns:xlink="http://www.w3.org/1999/xlink" viewBox="0 0 284.55 47.98"><defs><style>.cls-1,.cls-4{fill:none;}.cls-2{fill:#626164;}.cls-3{clip-path:url(#clip-path);}.cls-4{stroke:#626164;stroke-miterlimit:3.86;stroke-width:0.05px;}.cls-5{fill:#fff;}.cls-6{fill:#d5001d;}.cls-7{fill:#f07400;}.cls-8{fill:#0e2080;}</style><clipPath id="clip-path" transform="translate(-41.81 -35.17)"><rect class="cls-1" x="41.81" y="35.17" width="284.55" height="47.98"/></clipPath></defs><path class="cls-2" d="M225.62,50.88c.6-3.62-1-4.51-3.92-4.51h-3.48c-2.2,0-2.75.16-3.12,2.24l-1.53,8.77h5.28a3.81,3.81,0,0,0,3-1.14,4.06,4.06,0,0,0,.7-1.09c.15-.33.28-.66.39-1L223,54l1.44,0-1.67,9.57h-1.46c.42-2.51-.3-3.83-2.87-3.83h-5.31l-1.73,9.87C211,72,211.5,72,213.7,72h5c2.47,0,3.83-.93,4.7-4.32h1.44l-1.29,6.62h-18l4.21-24.08c.39-2.23.53-3.28.12-3.88s-1.25-.73-3-1l-.48-.09.24-1.15h21.57l-1.05,6.81Z" transform="translate(-41.81 -35.17)"/><path class="cls-2" d="M234.52,60.9c.51.33,1.06.66,1.61,1,2.21,1.41,4.4,3.17,3.79,6.65-.78,4.45-4.77,6.24-9.21,6.24a19.44,19.44,0,0,1-3.46-.3c-.89-.16-1.78-.4-2.26-.54l.69-3.72a9,9,0,0,0,5.55,2.4c2.77,0,4-1.4,4.27-2.9a2.75,2.75,0,0,0-1-2.58,10.23,10.23,0,0,0-1.37-1c-.52-.34-1.07-.67-1.62-1-2.2-1.38-4.42-3-3.87-6.17s3.29-6.06,8.6-6.06a16.35,16.35,0,0,1,3,.31c.67.14,1.22.28,1.6.38l.33.09-.61,3.6-.8-.62a9.92,9.92,0,0,0-1.07-.71,6.44,6.44,0,0,0-3.14-.89c-1.42,0-3.13.53-3.45,2.37a2.62,2.62,0,0,0,1,2.49,10.49,10.49,0,0,0,1.38,1" transform="translate(-41.81 -35.17)"/><path class="cls-2" d="M246.62,53.36l.6-3.48,5.4-4.16-1.34,7.64h5.85l-.35,2h-5.84l-2.26,12.91c-.55,3.12-.56,4.39,2.77,4.39a8.62,8.62,0,0,0,1.73-.18l-.33,2a17.8,17.8,0,0,1-3.08.36c-4.3,0-6.78-.68-5.87-5.87l2.37-13.59h-3.48l.34-2Z" transform="translate(-41.81 -35.17)"/><path class="cls-2" d="M266.94,62.6l.45-2.2c.51-2.88,1-5.81-1.68-5.81s-3.42,2.29-3.78,4.22c0,.06,0,.24-.05.31l-5.54,0c1.09-3.16,3.17-6.27,9.59-6.27s6.86,3.35,6.08,7.79l-2.39,13.65H265l.42-2.44c-.29.29-.47.47-.69.67a10.85,10.85,0,0,1-1.32,1,7.52,7.52,0,0,1-4.14,1.22c-3.53,0-5.65-2.54-5.18-5.25,1.1-6.28,9.9-6.85,12.89-6.95m-7.65,6.23c-.36,2,.42,3.37,2,3.37,2.52,0,4.47-2.31,5-5.32l.43-2.47c-1.93.07-6.7.44-7.4,4.42m0,0c-.36,2,.42,3.37,2,3.37,2.52,0,4.47-2.31,5-5.32l.43-2.47c-1.93.07-6.7.44-7.4,4.42m7.65-6.23.45-2.2c.51-2.88,1-5.81-1.68-5.81s-3.42,2.29-3.78,4.22c0,.06,0,.24-.05.31l-5.54,0c1.09-3.16,3.17-6.27,9.59-6.27s6.86,3.35,6.08,7.79l-2.39,13.65H265l.42-2.44c-.29.29-.47.47-.69.67a10.85,10.85,0,0,1-1.32,1,7.52,7.52,0,0,1-4.14,1.22c-3.53,0-5.65-2.54-5.18-5.25,1.1-6.28,9.9-6.85,12.89-6.95" transform="translate(-41.81 -35.17)"/><path class="cls-2" d="M287.92,62.5c.45-2.54.73-7-3.38-7s-5.3,5-5.85,8.17c-.61,3.5-1.12,8.55,2.94,8.55s5.55-5.47,6-7.87l.32-1.83ZM296,42.85l-5.51,31.46h-4.66l.41-2.35c-.37.31-.64.53-.94.75a11.67,11.67,0,0,1-1.49,1,8.36,8.36,0,0,1-4.1,1.1c-5.92,0-7.24-5-6.27-10.56s4.27-11.37,10.24-11.37c3.55,0,4.7,1.74,5.32,3.2a8,8,0,0,0,.25-1.19l.42-2.44c.29-1.74.58-3.42.58-3.42.52-3,0-3.75-2.23-3.92l-.46,0,.22-1.06L296,42.85Z" transform="translate(-41.81 -35.17)"/><path class="cls-2" d="M305.92,52.87c6.56,0,9,4.54,7.84,11-1.28,7.32-5,10.93-11.63,10.93-7.28,0-8.95-4.68-7.85-11,1.31-7.49,5.07-11,11.64-11m2.73,11c.73-4.17,1.19-9.25-3-9.25s-5.58,5.32-6.27,9.28c-.66,3.78-1.28,9.22,3,9.22s5.48-4.75,6.26-9.25m0,0c.73-4.17,1.19-9.25-3-9.25s-5.58,5.32-6.27,9.28c-.66,3.78-1.28,9.22,3,9.22s5.48-4.75,6.26-9.25m-2.73-11c6.56,0,9,4.54,7.84,11-1.28,7.32-5,10.93-11.63,10.93-7.28,0-8.95-4.68-7.85-11,1.31-7.49,5.07-11,11.64-11" transform="translate(-41.81 -35.17)"/><path class="cls-2" d="M111.82,57.2h2.87c3.82,0,6.92-1.24,7.68-5.59.69-3.93-1.27-5.24-5.31-5.24-2.66,0-3.37.13-3.74,2.24l-1.5,8.59Zm15.69-5.77c-.74,4.26-4,6-6.34,6.78,2.94.68,6.25,2.41,5.27,8a8.79,8.79,0,0,1-6.28,7.07,18.93,18.93,0,0,1-4.37.88c-1.39.12-2.65.12-3.57.12h-8.5l4.21-24.08c.39-2.23.54-3.28.14-3.88s-1.51-.83-3.5-1.16l.19-1.12H118.1c5.12,0,10.49,1.21,9.41,7.36m-18,18.87C109.23,72,110.87,72,113.4,72c4.86,0,7.3-2.16,8.08-6.66.76-4.32-2.18-5.86-6.08-5.86h-4l-1.89,10.8Z" transform="translate(-41.81 -35.17)"/><path class="cls-2" d="M139.71,62.6l.45-2.2c.5-2.88,1-5.81-1.68-5.81s-3.4,2.23-3.76,4.15c0,.08-.05.3-.06.38l-5.55,0c1.1-3.16,3.16-6.27,9.59-6.27s6.86,3.35,6.08,7.79l-2.39,13.65h-4.66l.42-2.44-.68.67a13.14,13.14,0,0,1-1.33,1A7.52,7.52,0,0,1,132,74.8c-3.53,0-5.65-2.54-5.18-5.25,1.1-6.28,9.9-6.85,12.89-6.95m-7.65,6.23c-.36,2,.41,3.37,2,3.37,2.52,0,4.47-2.31,5-5.32l.43-2.47c-1.94.07-6.71.44-7.4,4.42m0,0c-.36,2,.41,3.37,2,3.37,2.52,0,4.47-2.31,5-5.32l.43-2.47c-1.94.07-6.71.44-7.4,4.42m7.65-6.23.45-2.2c.5-2.88,1-5.81-1.68-5.81s-3.4,2.23-3.76,4.15c0,.08-.05.3-.06.38l-5.55,0c1.1-3.16,3.16-6.27,9.59-6.27s6.86,3.35,6.08,7.79l-2.39,13.65h-4.66l.42-2.44-.68.67a13.14,13.14,0,0,1-1.33,1A7.52,7.52,0,0,1,132,74.8c-3.53,0-5.65-2.54-5.18-5.25,1.1-6.28,9.9-6.85,12.89-6.95" transform="translate(-41.81 -35.17)"/><path class="cls-2" d="M161,62.64c.62-3.6,1.11-6.54-1.73-6.54s-6.12,4.09-6.67,7.24l-1.92,11H146l2.63-15.06c.53-3,0-3.72-2.49-3.85l-.41,0,.2-1,8.49-1.46-1,5.51c1.44-2.12,4.37-5.49,8.38-5.49,4.16,0,5,3,4.4,6.41l-2.63,15H159l2-11.67Z" transform="translate(-41.81 -35.17)"/><path class="cls-2" d="M180.27,59.18c.35-2.06.31-4.59-2.29-4.59-2.94,0-4.18,3.19-4.93,7.5-1.15,6.59,1.25,10.11,5.21,10.11a17.25,17.25,0,0,0,4.21-.58l.21-.07-.35,2.19a19.38,19.38,0,0,1-2.51.74,19.79,19.79,0,0,1-4,.32c-6.33,0-9.29-4.49-8.1-11.27,1.07-6.14,4.37-10.66,10.82-10.66,4.85,0,7.73,2.38,7.29,5.92l-.05.38Z" transform="translate(-41.81 -35.17)"/><path class="cls-2" d="M196.8,52.87c6.55,0,9,4.54,7.84,11-1.29,7.32-5,10.93-11.64,10.93-7.28,0-8.94-4.68-7.85-11,1.32-7.49,5.08-11,11.65-11m2.73,11c.73-4.17,1.19-9.25-3-9.25s-5.58,5.32-6.27,9.28c-.66,3.78-1.27,9.22,3,9.22s5.48-4.75,6.27-9.25m0,0c.73-4.17,1.19-9.25-3-9.25s-5.58,5.32-6.27,9.28c-.66,3.78-1.27,9.22,3,9.22s5.48-4.75,6.27-9.25m-2.73-11c6.55,0,9,4.54,7.84,11-1.29,7.32-5,10.93-11.64,10.93-7.28,0-8.94-4.68-7.85-11,1.32-7.49,5.08-11,11.65-11" transform="translate(-41.81 -35.17)"/><g class="cls-3"><path class="cls-4" d="M319,56.41a3.7,3.7,0,1,1,3.7,3.69,3.69,3.69,0,0,1-3.7-3.69Z" transform="translate(-41.81 -35.17)"/></g><path class="cls-2" d="M321.2,59H322v-2.3h.31c.8,0,1,.48,1.06.92l.29,1.38h.84l-.28-1.34c-.13-.6-.23-1.12-1-1.25v0a1.22,1.22,0,0,0,1.11-1.2c0-1.25-1.14-1.36-2-1.36H321.2V59Z" transform="translate(-41.81 -35.17)"/><path class="cls-5" d="M322,54.31h.31c.78,0,1.18.21,1.18.9s-.66,1-1.18,1H322V54.31Z" transform="translate(-41.81 -35.17)"/><path class="cls-5" d="M322,54.31h.31c.78,0,1.18.21,1.18.9s-.66,1-1.18,1H322V54.31Z" transform="translate(-41.81 -35.17)"/><polygon class="cls-6" points="0 0 47.97 0 47.97 47.98 0 47.98 0 0 0 0"/><polygon class="cls-7" points="47.97 25.29 27.64 8.17 27.63 8.17 27.63 39.99 47.97 39.99 47.97 25.29 47.97 25.29"/><path class="cls-5" d="M69.45,47.91V43.33a16.78,16.78,0,0,1-9.37,4.93V51.8l-3.43,1.5v3L41.81,62.08V75.16H73V46.44l-3.51,1.47Z" transform="translate(-41.81 -35.17)"/><path class="cls-6" d="M60.09,55l-2.82,1.07a1,1,0,0,0-.59.8V59.1a.83.83,0,0,1-.6.75l-14.28,5.5V68.7l14.32-5.58a.93.93,0,0,0,.59-.81V60.15a.84.84,0,0,1,.55-.75l2.82-1.07V55Z" transform="translate(-41.81 -35.17)"/><path class="cls-6" d="M60.09,61.46l-2.82,1.07a1,1,0,0,0-.59.81v2.18a.86.86,0,0,1-.6.76L41.81,71.87v3.28l14.32-5.61a.93.93,0,0,0,.59-.8V66.57a.86.86,0,0,1,.55-.75l2.82-1.07V61.46Z" transform="translate(-41.81 -35.17)"/><polygon class="cls-8" points="0 39.99 47.97 39.99 47.97 47.98 0 47.98 0 39.99 0 39.99"/><path class="cls-5" d="M56,76.67l-.75.08-.31,1.63a1.17,1.17,0,0,0-.55-.13c-.86,0-1.61,1-1.64,2.21,0,.54.2.87.57.87a1.46,1.46,0,0,0,.79-.34,1.82,1.82,0,0,0,.36-.38s.09-.13.16-.24l-.15.85h.7L56,76.67Zm-1.16,2.27-.06.36a2.07,2.07,0,0,1-.61,1,1,1,0,0,1-.49.3c-.11,0-.17-.11-.16-.3a2.45,2.45,0,0,1,.31-1,.87.87,0,0,1,.64-.48.57.57,0,0,1,.37.15" transform="translate(-41.81 -35.17)"/><path class="cls-5" d="M58.66,78.86c0-.4-.26-.6-.8-.6-1,0-1.64.83-1.67,2,0,.68.25,1,.8,1a1.71,1.71,0,0,0,.78-.2,2.43,2.43,0,0,0,.33-.21,4.46,4.46,0,0,0,.42-.31l-.28-.44a3,3,0,0,1-.67.44,1.13,1.13,0,0,1-.35.08.35.35,0,0,1-.28-.15.59.59,0,0,1-.07-.26l1.26-.66a.82.82,0,0,0,.53-.73M58,79a.35.35,0,0,1-.05.18l-1,.54a1.92,1.92,0,0,1,.36-.75.6.6,0,0,1,.42-.23c.17,0,.25.09.25.26" transform="translate(-41.81 -35.17)"/><path class="cls-5" d="M61.18,78.43a2,2,0,0,0-.84-.17c-.69,0-1.09.31-1.1.84a.71.71,0,0,0,.15.46l.23.25a2.88,2.88,0,0,1,.34.3c.15.13.21.22.21.34s-.15.25-.37.25a2,2,0,0,1-.67-.16l-.22.6a3,3,0,0,0,.56.12,2.79,2.79,0,0,0,.47,0,.9.9,0,0,0,1-.86c0-.31-.12-.5-.53-.86s-.37-.31-.42-.4a.19.19,0,0,1,0-.12c0-.14.14-.22.39-.22A1.2,1.2,0,0,1,61,79l.23-.59Z" transform="translate(-41.81 -35.17)"/><path class="cls-5" d="M64.8,76.67l-.75.08-.31,1.63a1.2,1.2,0,0,0-.55-.13c-.87,0-1.62,1-1.64,2.21,0,.54.19.87.56.87a1.51,1.51,0,0,0,.8-.34,2.55,2.55,0,0,0,.36-.38s.09-.13.16-.24l-.16.85H64l.83-4.55Zm-1.16,2.27-.07.36a2.12,2.12,0,0,1-.6,1,1,1,0,0,1-.5.3c-.1,0-.16-.11-.16-.3a2.62,2.62,0,0,1,.32-1,.87.87,0,0,1,.63-.48.57.57,0,0,1,.38.15" transform="translate(-41.81 -35.17)"/><path class="cls-5" d="M67.48,78.86c0-.4-.27-.6-.81-.6-1,0-1.64.83-1.66,2,0,.68.24,1,.79,1a1.78,1.78,0,0,0,.79-.2,2.43,2.43,0,0,0,.33-.21,3.4,3.4,0,0,0,.41-.31l-.27-.44a3.18,3.18,0,0,1-.68.44,1.07,1.07,0,0,1-.35.08.33.33,0,0,1-.27-.15.57.57,0,0,1-.08-.26L67,79.59a.82.82,0,0,0,.53-.73m-.72.16a.45.45,0,0,1,0,.18l-1,.54A1.92,1.92,0,0,1,66.1,79a.58.58,0,0,1,.42-.23c.16,0,.24.09.24.26" transform="translate(-41.81 -35.17)"/><polygon class="cls-5" points="29.8 43.06 29.44 43.06 27.94 43.6 28.11 44.19 28.9 43.88 28.51 46.05 29.25 46.05 29.8 43.06 29.8 43.06"/><path class="cls-5" d="M75.21,77.84c0-.48-.38-.77-1-.77-.82,0-1.4.38-1.42.93a1.11,1.11,0,0,0,.31.73l.26.28-.53.34a1.42,1.42,0,0,0-.62,1c0,.59.4.91,1.17.91,1,0,1.68-.45,1.7-1.1a1.18,1.18,0,0,0-.42-.84l-.4-.34.39-.28a1.21,1.21,0,0,0,.52-.55.84.84,0,0,0,.08-.34m-.78.15a.48.48,0,0,1-.22.39l-.36.24-.22-.28a.48.48,0,0,1-.1-.31.47.47,0,0,1,.52-.42.35.35,0,0,1,.38.38m-.18,2.13a.72.72,0,0,1-.74.64.51.51,0,0,1-.57-.49,1,1,0,0,1,.43-.68l.35-.24.37.35a.53.53,0,0,1,.16.42" transform="translate(-41.81 -35.17)"/><path class="cls-5" d="M77.92,78H76.05l-.38,2.11h.39a1.25,1.25,0,0,1,.56.14.49.49,0,0,1,.19.46.93.93,0,0,1-.86,1,1.55,1.55,0,0,1-.65-.17l-.22.59a2,2,0,0,0,.81.17,1.72,1.72,0,0,0,1.7-1.64,1,1,0,0,0-.48-.92,1.55,1.55,0,0,0-.6-.14l.17-.93H77.8l.12-.63Z" transform="translate(-41.81 -35.17)"/><path class="cls-5" d="M80.59,78H78.72l-.37,2.11h.39a1.25,1.25,0,0,1,.56.14.51.51,0,0,1,.18.46.93.93,0,0,1-.85,1,1.59,1.59,0,0,1-.66-.17l-.22.59a2.06,2.06,0,0,0,.81.17,1.71,1.71,0,0,0,1.7-1.64.93.93,0,0,0-.48-.92,1.46,1.46,0,0,0-.6-.14l.17-.93h1.13l.11-.63Z" transform="translate(-41.81 -35.17)"/></svg>