<svg id="Bancontact" xmlns="http://www.w3.org/2000/svg" xmlns:xlink="http://www.w3.org/1999/xlink" viewBox="0 0 107.69 66.87"><defs><style>.cls-1{fill:#1b3764;}.cls-2{fill:url(#linear-gradient);}.cls-3{fill:url(#linear-gradient-2);}</style><linearGradient id="linear-gradient" x1="-68.95" y1="167.83" x2="-68.62" y2="167.83" gradientTransform="matrix(117.73, -43.73, -43.73, -117.73, 15592.06, 16797.48)" gradientUnits="userSpaceOnUse"><stop offset="0" stop-color="#1a59a6"/><stop offset="1" stop-color="#1b3764"/></linearGradient><linearGradient id="linear-gradient-2" x1="-69.69" y1="167.94" x2="-69.35" y2="167.94" gradientTransform="matrix(125, -42.65, -42.65, -125, 16055.33, 18064.82)" gradientUnits="userSpaceOnUse"><stop offset="0" stop-color="#f7a90e"/><stop offset="1" stop-color="#f8d814"/></linearGradient></defs><g id="Bancontact-2" data-name="Bancontact"><path class="cls-1" d="M125.45,87.73V72.17h4.8c3.48,0,5.73,1.31,5.73,4a3.61,3.61,0,0,1-1.71,3.22,3.85,3.85,0,0,1,2.29,3.71c0,3.13-2.29,4.6-5.85,4.6Zm3.08-9.09h2.29a1.74,1.74,0,0,0,2-2c0-1.35-1.09-1.8-2.55-1.8h-1.74Zm0,6.38h1.92c1.86,0,3-.47,3-1.94s-.93-2-2.69-2h-2.18Zm14,3c-3.05,0-4.58-1.48-4.58-3.48,0-2.2,1.8-3.49,4.47-3.51a14.41,14.41,0,0,1,2,.17v-.53c0-1.36-.78-2-2.26-2a8,8,0,0,0-2.94.53l-.55-2.4a11,11,0,0,1,3.84-.66c3.27,0,4.89,1.73,4.89,4.73V87A11.23,11.23,0,0,1,142.55,88Zm1.86-2.51V83.11a6.94,6.94,0,0,0-1.57-.18c-1,0-1.83.4-1.83,1.44s.67,1.42,1.85,1.42A3.31,3.31,0,0,0,144.41,85.48Zm5.14,2.25V77.08a13.5,13.5,0,0,1,5-1c3.25,0,5.11,1.6,5.11,4.55v7.07h-3.06V80.88c0-1.53-.72-2.24-2.07-2.24a4.74,4.74,0,0,0-2,.4v8.69Zm20.85-11-.58,2.43a6.56,6.56,0,0,0-2.51-.56c-1.8,0-2.78,1.27-2.78,3.36,0,2.28,1,3.46,2.94,3.46a6.16,6.16,0,0,0,2.46-.58l.49,2.47a7.33,7.33,0,0,1-3.2.64c-3.69,0-5.82-2.28-5.82-5.91s2.11-6,5.64-6a8.57,8.57,0,0,1,3.36.66ZM177,88c-3.42,0-5.55-2.37-5.55-5.95s2.13-5.93,5.55-5.93,5.54,2.37,5.54,5.93S180.47,88,177,88Zm0-2.53c1.58,0,2.4-1.31,2.4-3.42s-.82-3.4-2.4-3.4S174.6,80,174.6,82s.87,3.42,2.42,3.42Zm7.31,2.27V77.08a13.5,13.5,0,0,1,5-1c3.25,0,5.12,1.6,5.12,4.55v7.07H191.4V80.88c0-1.53-.71-2.24-2.07-2.24a4.67,4.67,0,0,0-2,.4v8.69Zm17,.26c-2.64,0-4-1.44-4-4.37v-4.8h-1.51V76.37h1.51V73.91l3.07-.16v2.62h2.46v2.45h-2.46v4.75c0,1.29.53,1.89,1.53,1.89a5.2,5.2,0,0,0,1.18-.13l.15,2.46a7.81,7.81,0,0,1-1.93.2Zm7.74,0c-3,0-4.58-1.48-4.58-3.48,0-2.2,1.8-3.49,4.47-3.51a14.7,14.7,0,0,1,2,.17v-.53c0-1.36-.78-2-2.27-2a7.92,7.92,0,0,0-2.93.53l-.56-2.4a11.06,11.06,0,0,1,3.85-.66c3.26,0,4.89,1.73,4.89,4.73V87a11.32,11.32,0,0,1-4.85,1ZM211,85.48V83.11a7,7,0,0,0-1.58-.18c-1,0-1.82.4-1.82,1.44s.66,1.42,1.84,1.42a3.36,3.36,0,0,0,1.56-.31Zm13.47-8.71-.58,2.43a6.6,6.6,0,0,0-2.51-.56c-1.8,0-2.78,1.27-2.78,3.36,0,2.28,1,3.46,2.93,3.46a6.17,6.17,0,0,0,2.47-.58l.49,2.47a7.36,7.36,0,0,1-3.2.64c-3.69,0-5.82-2.28-5.82-5.91s2.11-6,5.64-6a8.6,8.6,0,0,1,3.36.66ZM231.2,88c-2.64,0-4-1.44-4-4.37v-4.8h-1.51V76.37h1.51V73.91l3.07-.16v2.62h2.46v2.45h-2.46v4.75c0,1.29.53,1.89,1.53,1.89a5.2,5.2,0,0,0,1.18-.13l.15,2.46a7.81,7.81,0,0,1-1.93.2Z" transform="translate(-125.45 -21.12)"/></g><g id="blue-symbol"><path class="cls-2" d="M146.84,64.4c16.22,0,24.34-10.82,32.45-21.64H125.45V64.4Z" transform="translate(-125.45 -21.12)"/></g><g id="yellow-symbol"><path class="cls-3" d="M211.74,21.12c-16.22,0-24.34,10.82-32.45,21.64h53.84V21.12Z" transform="translate(-125.45 -21.12)"/></g></svg>