<svg id="Banco_Security" data-name="Banco Security" xmlns="http://www.w3.org/2000/svg" viewBox="0 0 272.45 39.88"><defs><style>.cls-1{fill:#0f1241;}.cls-2{fill:#4c127f;}.cls-3{fill:#fff;}</style></defs><rect class="cls-1" x="136.18" width="136.27" height="39.88"/><rect class="cls-2" width="136.18" height="39.88"/><path class="cls-3" d="M196.94,53.34v-4h-.62c-.18.44-.43.62-.76.62-.87,0-1.27-.62-2.61-.62A3.87,3.87,0,0,0,189,53.09c0,4.36,6.82,3.37,6.82,7a2.19,2.19,0,0,1-2.25,2.22,4.3,4.3,0,0,1-4.14-3.75h-.61v4.4h.61a.87.87,0,0,1,.83-.87c.62,0,1.86.95,3.27.95a4.07,4.07,0,0,0,4.07-4c0-4.79-6.76-3.92-6.76-7.19,0-1.05.88-1.74,2.15-1.74a3.3,3.3,0,0,1,3.2,3.23Z" transform="translate(-42.69 -36.02)"/><path class="cls-3" d="M211.59,54.76c.18-3-2.58-5.38-5.56-5.38A6.82,6.82,0,0,0,206.5,63a6.12,6.12,0,0,0,5.31-2.76v-1C210,61.37,209,62,207.26,62s-5.19-1.45-5.13-7.23Zm-9.46-.62c.16-2.39,1.43-4,3.57-4,1.64,0,3.56,1.16,3.45,4Z" transform="translate(-42.69 -36.02)"/><path class="cls-3" d="M225.22,49.38h-.61a1.06,1.06,0,0,1-.88.73c-.65,0-1.7-.73-3.63-.73a6.89,6.89,0,0,0-6.65,7.12A6.19,6.19,0,0,0,219.92,63a6.73,6.73,0,0,0,5.66-2.84v-.94a6.12,6.12,0,0,1-4.79,2.69c-2.62,0-4.83-2.94-4.83-6.47,0-3.16,1.78-5.34,4.32-5.34a4.48,4.48,0,0,1,4.33,3.81h.61Z" transform="translate(-42.69 -36.02)"/><path class="cls-3" d="M240.3,49.38h-.62l-4.36.4v.63c2.22,0,2.51.25,2.51,2v6.93a4.32,4.32,0,0,1-3.41,2.11,2.71,2.71,0,0,1-2.91-2.91V49.38h-.62l-4.14.4v.63c1.86,0,2.29.46,2.29,1.7v6.58A4.14,4.14,0,0,0,233.25,63a5.55,5.55,0,0,0,4.51-2.51h.07v2.11h4.69V62c-1.74,0-2.22-.4-2.22-1.82Z" transform="translate(-42.69 -36.02)"/><path class="cls-3" d="M248.91,52.8c1.16-1.12,1.89-1.56,2.73-1.56a7.38,7.38,0,0,1,3,1.13l1-2.29a4,4,0,0,0-2.36-1c-.87,0-2,.72-4.4,2.8v-2.8h-.62l-4.49.4v.62c2.17,0,2.64.21,2.64,2.11v7.33c0,2-.22,2.47-2.18,2.47v.62h6.79V62c-1.7,0-2.14-.41-2.14-1.82Z" transform="translate(-42.69 -36.02)"/><path class="cls-3" d="M261.88,49.09h-.62l-4.28.4v.62c1.89,0,2.43.24,2.43,2V60c0,1.52-.47,2-2.43,2v.61h7V62c-1.81,0-2.14-.7-2.14-2Zm-1.2-4.82a1.59,1.59,0,0,0-1.6,1.57,1.61,1.61,0,0,0,1.6,1.59,1.57,1.57,0,0,0,1.56-1.59,1.55,1.55,0,0,0-1.56-1.57" transform="translate(-42.69 -36.02)"/><path class="cls-3" d="M279.73,52.39c-.47-1.1-.17-1.77.81-1.92v-.94h-6.19v.94c1.49,0,2.08.43,2.73,1.92l4.51,10.44-.85,2.24c-.8,2.26-1.72,3.17-3.29,3.17a2.76,2.76,0,0,1-1.23-.3l-.84,2.23a2.81,2.81,0,0,0,1.61.54c1.56,0,3.23-1.71,4.26-4.7l4.32-12.77c.73-2.14,1.56-3,2.94-3v-.69H284v.69c1.43.08,1.54.92,1,2.44l-2.26,6.82Z" transform="translate(-42.69 -36.02)"/><path class="cls-3" d="M269.87,45.19h-.62A9.81,9.81,0,0,1,265,49.86v.61h2.43v8.64a3.57,3.57,0,0,0,3.72,3.75,5,5,0,0,0,3.9-2.15l-.4-.47a3,3,0,0,1-2.41,1.23c-1.42,0-2.33-.9-2.33-2.69V50.47h4.5v-.94h-4.5Z" transform="translate(-42.69 -36.02)"/><path class="cls-3" d="M196.52,53.28v-4h-.63c-.18.44-.43.63-.77.63-.87,0-1.28-.63-2.63-.63a3.9,3.9,0,0,0-4,3.74c0,4.4,6.89,3.41,6.89,7a2.21,2.21,0,0,1-2.27,2.24A4.33,4.33,0,0,1,189,58.52h-.62V63H189a.88.88,0,0,1,.84-.87c.62,0,1.87,1,3.3,1a4.11,4.11,0,0,0,4.11-4c0-4.84-6.82-4-6.82-7.26,0-1.06.88-1.75,2.16-1.75a3.3,3.3,0,0,1,3.22,3.25Z" transform="translate(-42.69 -36.02)"/><path class="cls-3" d="M211.29,54.71c.18-3-2.61-5.41-5.6-5.41A6.87,6.87,0,0,0,206.16,63a6.16,6.16,0,0,0,5.35-2.79v-1c-1.87,2.09-2.79,2.7-4.58,2.7s-5.24-1.45-5.17-7.29Zm-9.53-.62c.15-2.42,1.43-4,3.59-4a3.51,3.51,0,0,1,3.48,4Z" transform="translate(-42.69 -36.02)"/><path class="cls-3" d="M225,49.3h-.62a1.07,1.07,0,0,1-.88.73c-.65,0-1.72-.73-3.66-.73a6.93,6.93,0,0,0-6.7,7.18A6.23,6.23,0,0,0,219.7,63a6.79,6.79,0,0,0,5.71-2.85v-1a6.17,6.17,0,0,1-4.84,2.72c-2.63,0-4.87-3-4.87-6.53,0-3.19,1.8-5.38,4.37-5.38,2.15,0,3.8,1.5,4.35,3.85H225Z" transform="translate(-42.69 -36.02)"/><path class="cls-3" d="M240.26,49.3h-.62l-4.4.39v.63c2.23,0,2.53.25,2.53,2v7a4.39,4.39,0,0,1-3.44,2.13,2.74,2.74,0,0,1-2.94-2.94V49.3h-.62l-4.18.39v.63c1.87,0,2.31.47,2.31,1.72v6.63A4.16,4.16,0,0,0,233.14,63a5.59,5.59,0,0,0,4.55-2.52h.08v2.12h4.72V62c-1.76,0-2.23-.4-2.23-1.82Z" transform="translate(-42.69 -36.02)"/><path class="cls-3" d="M248.94,52.74c1.17-1.13,1.9-1.57,2.75-1.57a7.52,7.52,0,0,1,3.08,1.13l1-2.31a4.08,4.08,0,0,0-2.38-1c-.88,0-2,.73-4.44,2.82V49h-.62l-4.55.4V50c2.21,0,2.68.23,2.68,2.13v7.4c0,2-.22,2.48-2.2,2.48v.64h6.85V62c-1.72,0-2.16-.4-2.16-1.83Z" transform="translate(-42.69 -36.02)"/><path class="cls-3" d="M262,49h-.62l-4.33.4V50c1.91,0,2.46.24,2.46,2V60c0,1.54-.48,2-2.46,2v.63h7.11V62c-1.84,0-2.16-.7-2.16-2Zm-1.21-4.86a1.6,1.6,0,0,0-1.62,1.58,1.64,1.64,0,0,0,1.62,1.61,1.59,1.59,0,0,0,1.57-1.61,1.56,1.56,0,0,0-1.57-1.58" transform="translate(-42.69 -36.02)"/><path class="cls-3" d="M279.91,52.32c-.48-1.1-.18-1.78.82-1.93v-1h-6.25v1c1.51,0,2.1.43,2.76,1.93l4.56,10.53-.88,2.27c-.8,2.27-1.73,3.19-3.3,3.19a2.93,2.93,0,0,1-1.25-.29l-.85,2.24a2.88,2.88,0,0,0,1.62.55c1.58,0,3.27-1.73,4.3-4.74l4.36-12.88c.73-2.17,1.58-3,3-3v-.7h-4.59v.7c1.42.07,1.54.92,1,2.46l-2.28,6.88Z" transform="translate(-42.69 -36.02)"/><path class="cls-3" d="M270,45.07h-.62a9.9,9.9,0,0,1-4.33,4.7v.63h2.46v8.7a3.59,3.59,0,0,0,3.74,3.79,5,5,0,0,0,3.94-2.17l-.41-.48a3,3,0,0,1-2.42,1.25c-1.44,0-2.36-.92-2.36-2.72V50.4h4.55v-1H270Z" transform="translate(-42.69 -36.02)"/><path class="cls-3" d="M113.14,58.48a3.26,3.26,0,0,0-2.54-3.23v0a3,3,0,0,0,1.67-2.78c0-1.63-1.25-3.34-3.88-3.34h-4.28V62.51h4.26c3.39,0,4.77-2.11,4.77-4M109.8,52.9A1.77,1.77,0,0,1,108,54.67h-1.46v-3.5h1.2c1.36,0,2,.72,2,1.73m.82,5.58c0,1.22-.82,2-2.47,2h-1.57V56.73h1.67c1.51,0,2.37.71,2.37,1.75" transform="translate(-42.69 -36.02)"/><path class="cls-3" d="M123.44,62.57l-3.18-8.45a14.78,14.78,0,0,1-.52-1.67,14.21,14.21,0,0,1-.5,1.63l-3.17,8.49h-2.43l5.23-13.47h1.79l5.41,13.47Z" transform="translate(-42.69 -36.02)"/><path class="cls-3" d="M139.53,62.51V49.1h-2.45v7.47c0,.59,0,1.36,0,2h0a16.65,16.65,0,0,0-1.32-1.87L129.9,49.1h-2.51V62.51h2.47V54.62c0-.64,0-1.35-.06-1.8h0c.37.57.76,1.08,1.33,1.83l6.08,7.86Z" transform="translate(-42.69 -36.02)"/><path class="cls-3" d="M152.76,61.45l-.67-1.77a6.8,6.8,0,0,1-3.31.9c-2.77,0-4.48-2.1-4.48-4.81A4.47,4.47,0,0,1,149,51a6.36,6.36,0,0,1,3.4,1l0-2.24a7.48,7.48,0,0,0-3.49-.74,6.89,6.89,0,0,0-7.29,7,6.42,6.42,0,0,0,6.78,6.78,8.23,8.23,0,0,0,4.36-1.27" transform="translate(-42.69 -36.02)"/><path class="cls-3" d="M167.75,55.81a6.91,6.91,0,0,0-1.69-4.76,7.35,7.35,0,0,0-10.1-.12,7,7,0,0,0-1.94,5,6.72,6.72,0,0,0,2.12,5.13,6.92,6.92,0,0,0,11.61-5.26m-2.63,0c0,3-1.75,4.85-4.24,4.85s-4.27-1.81-4.27-4.85S158.37,51,160.88,51s4.24,1.89,4.24,4.82" transform="translate(-42.69 -36.02)"/></svg>