<svg id="Bancolombia" xmlns="http://www.w3.org/2000/svg" viewBox="0 0 196.84 60.69"><defs><style>.cls-1,.cls-2{fill:#1f0e75;}.cls-2{fill-rule:evenodd;}.cls-3{fill:#fbf11e;}.cls-4{fill:#f6150d;}</style></defs><path class="cls-1" d="M108.28,55.22l0,16,4.24.06,0-9.08s.16-3.87,3.09-4.53a2.11,2.11,0,0,1,2.76,1.83l.1,11.76,4.15,0,0-13.17s-.28-4.18-5.06-4.08A5.89,5.89,0,0,0,112,57.58l.12-3.18-3.86.82Z" transform="translate(-75.98 -25.95)"/><path class="cls-1" d="M136.29,54.56l-.5,3.69s-4.39-1.29-5.74.41c0,0-1.9,2.12-1.24,6.15,0,0,.63,3.84,5,3l2.29-.57.19,3.58a12.63,12.63,0,0,1-5.57.85,6.94,6.94,0,0,1-6.16-5.56c-1.19-6.16,2-9.56,2-9.56a8.58,8.58,0,0,1,6.16-2.36h.44l3.21.38Z" transform="translate(-75.98 -25.95)"/><path class="cls-2" d="M101.48,63.88s-4.4-.26-5.39,1.64a1.9,1.9,0,0,0,.15,2.23c.91,1.13,2.79.59,2.79.59a2.92,2.92,0,0,0,2.32-2.3l.15-.61,0-1.55ZM93.1,55.13V58.6a13,13,0,0,1,5.07-1.26s2.68-.06,3.24,1.65l0,2.18s-6.11-.26-7.54,1.76a5.69,5.69,0,0,0-1.45,7,4.62,4.62,0,0,0,3.9,1.83,5.46,5.46,0,0,0,5.41-3.09l.15-.09,0,2.8,4-.05-.11-12.59a5,5,0,0,0-3.85-4.42s-4.5-.93-8,.46l-.74.36Z" transform="translate(-75.98 -25.95)"/><path class="cls-2" d="M80,61.71V68h4a3.35,3.35,0,0,0,2.45-2.8,3.11,3.11,0,0,0-2.35-3.35l-4.1-.1Zm0-9.14,0,6h3s2.86-.33,3.08-2.86a3,3,0,0,0-2.24-3.1l-3.84,0ZM76,49.41v22l8.1-.08s6.34-.34,6.58-5.37c0,0,.88-5.35-3.74-6.23A5.37,5.37,0,0,0,90.28,55s.34-4.74-5-5.62Z" transform="translate(-75.98 -25.95)"/><path class="cls-2" d="M145.88,57.64a3.83,3.83,0,0,0-4,3.27c-.59,3-.06,5.79,1.89,6.79a4.59,4.59,0,0,0,3.65-.16c1.51-1,2.08-3,1.82-6.63a3.32,3.32,0,0,0-3.08-3.27ZM145.62,54s-7.92.09-8.26,8.45,5.12,9.34,7.89,9.25c2.36-.08,8.3-1.61,8.36-9.12S149.55,54.46,146,54Z" transform="translate(-75.98 -25.95)"/><path class="cls-2" d="M169.89,57.64a3.83,3.83,0,0,0-4,3.27c-.59,3-.06,5.79,1.89,6.79a4.59,4.59,0,0,0,3.65-.16c1.51-1,2.08-3,1.82-6.63a3.32,3.32,0,0,0-3.08-3.27ZM169.63,54s-7.92.09-8.26,8.45,5.12,9.34,7.89,9.25c2.36-.08,8.3-1.61,8.36-9.12S173.56,54.46,170,54Z" transform="translate(-75.98 -25.95)"/><path class="cls-2" d="M238.13,63.88s-4.39-.26-5.39,1.64a1.9,1.9,0,0,0,.15,2.23c.91,1.13,2.79.59,2.79.59A2.92,2.92,0,0,0,238,66l.15-.61,0-1.55Zm-8.38-8.75V58.6a13,13,0,0,1,5.07-1.26s2.68-.06,3.24,1.65l0,2.18s-6.11-.26-7.54,1.76a5.69,5.69,0,0,0-1.45,7,4.62,4.62,0,0,0,3.9,1.83,5.46,5.46,0,0,0,5.41-3.09l.15-.09,0,2.8,4-.05-.11-12.59a5,5,0,0,0-3.85-4.42s-4.5-.93-8,.46l-.74.36Z" transform="translate(-75.98 -25.95)"/><polygon class="cls-1" points="79.43 22.67 83.6 21.63 83.64 45.33 79.47 45.33 79.43 22.67 79.43 22.67"/><path class="cls-1" d="M179.58,55.22l3.87-.82-.12,3.18A5.88,5.88,0,0,1,189,54.06c3.05-.06,4.27,1.61,4.75,2.84a6,6,0,0,1,5.3-2.84c4.77-.1,5.06,4.08,5.06,4.08l0,13.17-4.15,0-.1-11.76A2.11,2.11,0,0,0,197,57.7c-2.19.5-2.83,2.78-3,3.9l0,9.71h-.08l-4.07,0-.09-11.76A2.12,2.12,0,0,0,187,57.7c-2.92.66-3.08,4.53-3.08,4.53l0,9.08-4.24-.06,0-16Z" transform="translate(-75.98 -25.95)"/><path class="cls-2" d="M210.44,68.13l.06-6.83a3.61,3.61,0,0,1,3-3s2.11-.58,2.85,2.43a9.62,9.62,0,0,1,0,4.45s-.45,2.45-2.18,3a9,9,0,0,1-3.46.1l-.29-.06Zm-.07-20.58s-3.2.42-4.12,1.05l0,22.18a29.56,29.56,0,0,0,9.42.45s5.74-1.26,5.22-9.39c0,0,.5-6.72-5.76-7.05,0,0-3.56-.12-4.81,2.73l.09-10Z" transform="translate(-75.98 -25.95)"/><path class="cls-1" d="M227.12,54.48V71.22l-4.59,0,0-16.7Zm-4.82-5A2.69,2.69,0,1,1,225,52.17a2.67,2.67,0,0,1-2.68-2.67Z" transform="translate(-75.98 -25.95)"/><path class="cls-1" d="M238,29.5c.76-.55,11.19-4.08,26.78-3.49a2.16,2.16,0,0,1,1.59,1.16L268,30.58s.85,1.1-.46,1.14c0,0-11.7.71-15.36,1.35S241,35.62,241,35.62s-1.08.33-1.55-.32l-1.75-4.69s-.44-.56.32-1.11Z" transform="translate(-75.98 -25.95)"/><path class="cls-3" d="M232.68,40.74c.76-.55,21-7.57,36.55-7a1.44,1.44,0,0,1,1.24,1l1.73,4.53s.55,1.08-.84,1.39c0,0-15.63,2.83-20,4-5.75,1.43-15.56,4.82-15.56,4.82a1.62,1.62,0,0,1-2-.75L232.29,43s-.37-1.67.39-2.22Z" transform="translate(-75.98 -25.95)"/><path class="cls-4" d="M246.71,48.08c.76-.55,6.59-2.58,21.92-5.4,0,0,1.63-.36,2.1.66l2,5.69s.62,1.3-1.18,2c0,0-6.2,2.37-9.72,3.58-4,1.35-10.66,4.16-10.66,4.16a1.7,1.7,0,0,1-2.26-1.22l-2.69-8a1.4,1.4,0,0,1,.51-1.47Z" transform="translate(-75.98 -25.95)"/><path class="cls-1" d="M132.82,84.51h-.6V83.44a3,3,0,0,1-2.08,1.19,1.47,1.47,0,0,1-1.52-1.6V78.31h.6V82.9c0,.68.29,1.14,1,1.14a2.76,2.76,0,0,0,2-1.22V78.31h.6Z" transform="translate(-75.98 -25.95)"/><path class="cls-1" d="M134.64,81.53c0,1,.27,2.55,1.76,2.55A1.67,1.67,0,0,0,138,82.9l.52.21a2.1,2.1,0,0,1-2.14,1.52c-2,0-2.41-2-2.41-3.34,0-1.84,1-3.11,2.44-3.11,1.62,0,2.21,1.52,2.21,3v.32ZM138,81c0-1.51-.68-2.29-1.62-2.29s-1.71.78-1.75,2.29Zm-.55-5-1.38,1.49h-.53l1.13-1.49Z" transform="translate(-75.98 -25.95)"/><path class="cls-1" d="M142.85,77.16l.6-.26v1.88h1.43v.55h-1.43v3.59c0,.79.15,1.16.68,1.16a1.79,1.79,0,0,0,.81-.23v.6a1.94,1.94,0,0,1-.83.18c-1.26,0-1.26-.86-1.26-1.62V79.33h-.91v-.55h.91Z" transform="translate(-75.98 -25.95)"/><path class="cls-1" d="M145.73,79.72a2.06,2.06,0,0,1,2.06-1.54c1.55,0,1.93,1.1,1.93,2.13V83c0,.56,0,1.39,0,1.52h-.59l0-1a2.63,2.63,0,0,1-2,1.12,1.62,1.62,0,0,1-1.69-1.73c0-1.89,1.69-2.12,3.26-2.12h.43c0-1.11-.07-2-1.41-2-.94,0-1.23.68-1.45,1.17Zm3.4,1.57h-.41c-1.51,0-2.64.2-2.64,1.54A1.09,1.09,0,0,0,147.24,84c.74,0,1.15-.42,1.89-1.15Z" transform="translate(-75.98 -25.95)"/><path class="cls-1" d="M151.2,78.31h.6v1.06a3,3,0,0,1,2.07-1.19,1.47,1.47,0,0,1,1.52,1.61v4.72h-.6v-4.6c0-.67-.29-1.14-1-1.14A2.75,2.75,0,0,0,151.8,80v4.51h-.6Z" transform="translate(-75.98 -25.95)"/><path class="cls-1" d="M159.51,79.72a2.07,2.07,0,0,1,2.07-1.54c1.54,0,1.92,1.1,1.92,2.13V83c0,.56,0,1.39.05,1.52H163l0-1a2.63,2.63,0,0,1-2,1.12,1.62,1.62,0,0,1-1.69-1.73c0-1.89,1.69-2.12,3.26-2.12h.43c0-1.11-.07-2-1.41-2-.94,0-1.23.68-1.45,1.17Zm3.4,1.57h-.41c-1.51,0-2.64.2-2.64,1.54A1.09,1.09,0,0,0,161,84c.74,0,1.15-.42,1.89-1.15Z" transform="translate(-75.98 -25.95)"/><path class="cls-1" d="M165.05,76.3h.6v8.21h-.6Z" transform="translate(-75.98 -25.95)"/><path class="cls-1" d="M167.53,77.16l.6-.26v1.88h1.43v.55h-1.43v3.59c0,.79.15,1.16.68,1.16a1.86,1.86,0,0,0,.82-.23v.6a2,2,0,0,1-.84.18c-1.26,0-1.26-.86-1.26-1.62V79.33h-.91v-.55h.91Z" transform="translate(-75.98 -25.95)"/><path class="cls-1" d="M172.62,78.18c2,0,2.46,2,2.46,3.25,0,1.57-.7,3.2-2.46,3.2s-2.46-1.63-2.46-3.2C170.16,80.18,170.61,78.18,172.62,78.18Zm0,5.9c1.12,0,1.82-.93,1.82-2.78,0-1.27-.5-2.57-1.82-2.57S170.8,80,170.8,81.3C170.8,83.15,171.51,84.08,172.62,84.08Z" transform="translate(-75.98 -25.95)"/><path class="cls-1" d="M183.14,86.49h-.6V83.63h0a2,2,0,0,1-1.79,1c-1.79,0-2.14-1.92-2.14-3.24,0-1.75.74-3.21,2.23-3.21a2.09,2.09,0,0,1,1.7,1h0v-.87h.6Zm-.6-6.65a2,2,0,0,0-1.66-1.07c-1.46,0-1.65,1.8-1.65,2.73,0,1.13.35,2.54,1.64,2.54A2,2,0,0,0,182.54,83Z" transform="translate(-75.98 -25.95)"/><path class="cls-1" d="M188.88,84.51h-.6V83.44a3,3,0,0,1-2.07,1.19,1.47,1.47,0,0,1-1.52-1.6V78.31h.6V82.9c0,.68.29,1.14,1,1.14a2.74,2.74,0,0,0,1.95-1.22V78.31h.6Z" transform="translate(-75.98 -25.95)"/><path class="cls-1" d="M191.15,77.12h-.7V76.3h.7Zm-.05,1.19v6.2h-.6v-6.2Z" transform="translate(-75.98 -25.95)"/><path class="cls-1" d="M193,81.53c0,1,.27,2.55,1.75,2.55a1.65,1.65,0,0,0,1.63-1.18l.53.21a2.11,2.11,0,0,1-2.15,1.52c-2,0-2.4-2-2.4-3.34,0-1.84,1-3.11,2.43-3.11,1.63,0,2.21,1.52,2.21,3v.32Zm3.36-.51c0-1.51-.68-2.29-1.62-2.29S193,79.51,193,81Z" transform="translate(-75.98 -25.95)"/><path class="cls-1" d="M198.33,78.31h.6v1.13c.71-.79,1-1.16,2-1.17v.65c-1,0-1.31.27-2,1.21v4.38h-.6Z" transform="translate(-75.98 -25.95)"/><path class="cls-1" d="M202,81.53c0,1,.27,2.55,1.76,2.55a1.67,1.67,0,0,0,1.63-1.18l.52.21a2.1,2.1,0,0,1-2.14,1.52c-2,0-2.41-2-2.41-3.34,0-1.84,1-3.11,2.44-3.11,1.62,0,2.21,1.52,2.21,3v.32Zm3.37-.51c-.05-1.51-.69-2.29-1.62-2.29S202,79.51,202,81Z" transform="translate(-75.98 -25.95)"/><path class="cls-1" d="M210.2,79.71a1.25,1.25,0,0,0-1.29-1c-.86,0-1.24.53-1.24,1s.3.87.91,1.09l.7.27c1,.37,1.65.73,1.65,1.77s-.53,1.75-2,1.75a2,2,0,0,1-2.11-1.55l.57-.19a1.47,1.47,0,0,0,1.51,1.19c1,0,1.4-.5,1.4-1.19s-.45-.94-1-1.15l-.78-.29c-.87-.31-1.43-.7-1.43-1.63a1.72,1.72,0,0,1,1.9-1.64,1.77,1.77,0,0,1,1.82,1.35Z" transform="translate(-75.98 -25.95)"/><path class="cls-1" d="M214.79,76.3h.6v8.21h-.6Z" transform="translate(-75.98 -25.95)"/><path class="cls-1" d="M217.08,76.3h.6v8.21h-.6Z" transform="translate(-75.98 -25.95)"/><path class="cls-1" d="M219.58,81.53c0,1,.27,2.55,1.76,2.55A1.67,1.67,0,0,0,223,82.9l.52.21a2.1,2.1,0,0,1-2.14,1.52c-2,0-2.41-2-2.41-3.34,0-1.84,1-3.11,2.44-3.11,1.62,0,2.21,1.52,2.21,3v.32ZM223,81c0-1.51-.69-2.29-1.62-2.29s-1.71.78-1.75,2.29Z" transform="translate(-75.98 -25.95)"/><path class="cls-1" d="M229.36,78.81h-1.08a1.64,1.64,0,0,1,.53,1.36,1.93,1.93,0,0,1-2.22,1.94,1.9,1.9,0,0,1-.51-.06.8.8,0,0,0-.39.58c0,.31.1.33,1.27.62l.37.09c.83.18,1.9.44,1.9,1.62s-.95,1.68-2.57,1.68c-1.37,0-2.37-.48-2.37-1.54,0-.77.6-1.21,1.21-1.65a.58.58,0,0,1-.45-.58,1.16,1.16,0,0,1,.6-1,1.72,1.72,0,0,1-1.11-1.73,1.92,1.92,0,0,1,2.1-2,2.36,2.36,0,0,1,.86.13h1.86Zm-3.3,4.83c-.09,0-1.13.61-1.13,1.36s.59,1.09,1.8,1.09c1,0,1.86-.32,1.86-1.15,0-.58-.32-.76-1.51-1.06Zm2.11-3.52a1.5,1.5,0,0,0-3,0,1.5,1.5,0,0,0,3,0Z" transform="translate(-75.98 -25.95)"/><path class="cls-1" d="M230.09,79.72a2.07,2.07,0,0,1,2.07-1.54c1.54,0,1.92,1.1,1.92,2.13V83c0,.56,0,1.39,0,1.52h-.6l0-1a2.63,2.63,0,0,1-2,1.12,1.62,1.62,0,0,1-1.69-1.73c0-1.89,1.69-2.12,3.26-2.12h.43c0-1.11-.07-2-1.41-2-.94,0-1.23.68-1.45,1.17Zm3.4,1.57h-.41c-1.51,0-2.64.2-2.64,1.54A1.09,1.09,0,0,0,231.6,84c.74,0,1.15-.42,1.89-1.15Z" transform="translate(-75.98 -25.95)"/><path class="cls-1" d="M235.63,78.31h.6v1.13c.7-.79,1-1.16,2-1.17v.65c-1,0-1.32.27-2,1.21v4.38h-.6Z" transform="translate(-75.98 -25.95)"/><path class="cls-1" d="M241,82.26h-.58V81.21c0-.68.15-.89.75-1.7a2.53,2.53,0,0,0,.7-1.78c0-.38-.1-1.47-1.11-1.47-.77,0-.95.45-1.18,1.18l-.63-.25a1.89,1.89,0,0,1,1.82-1.57c.78,0,1.71.53,1.71,2.16a3,3,0,0,1-.85,2.12c-.57.75-.63.84-.63,1.48Zm-.69,1.17h.79v1.08h-.79Z" transform="translate(-75.98 -25.95)"/><path class="cls-1" d="M124.12,84.59a1,1,0,0,1-.3,0c-2.1-.48-2.61-2.59-2.61-4.13,0-2.2.82-4.37,3.07-4.37s3.19,2.18,3.06,4.37c-.13,2.49-.82,3.36-2.31,4a.78.78,0,0,0,.21.84,2.38,2.38,0,0,0,1.53.43l0,.66s-1.48.14-2.07-.39a2.31,2.31,0,0,1-.61-1.4Zm.16-.64c1.88,0,2.39-2.08,2.39-3.61,0-1.76-.59-3.69-2.39-3.69s-2.4,1.93-2.4,3.69c0,1.53.52,3.61,2.4,3.61Z" transform="translate(-75.98 -25.95)"/></svg>