<svg id="Banco_Caja_Social" data-name="Banco Caja Social" xmlns="http://www.w3.org/2000/svg" viewBox="0 0 272.79 60.48"><defs><style>.cls-1{fill:#f8110e;}.cls-1,.cls-2,.cls-3{fill-rule:evenodd;}.cls-2{fill:#207fb2;}.cls-3{fill:#217fb3;}</style></defs><path class="cls-1" d="M74,30.81c2,0,3.52,2.53,3.52,5.65S75.91,42.1,74,42.1s-3.52-2.53-3.52-5.64S72,30.81,74,30.81ZM55.17,41.07c1.38-1.38,3.87-1.13,5.56.56s1.94,4.18.57,5.56-3.87,1.12-5.56-.57-1.94-4.18-.57-5.55Zm0,37.57c-1.37-1.37-1.12-3.86.57-5.55s4.18-1.94,5.56-.57,1.12,3.87-.57,5.56-4.18,1.94-5.56.56Zm37.58,0c-1.37,1.38-3.86,1.13-5.55-.56s-2-4.18-.57-5.56,3.86-1.12,5.55.57,1.95,4.18.57,5.55ZM44.92,59.86c0-2,2.53-3.52,5.64-3.52s5.65,1.57,5.65,3.52-2.53,3.51-5.65,3.51-5.64-1.57-5.64-3.51Zm29,29c-1.94,0-3.52-2.53-3.52-5.65S72,77.61,74,77.61s3.52,2.53,3.52,5.64S75.91,88.9,74,88.9Zm29.05-29c0,1.94-2.53,3.51-5.65,3.51s-5.64-1.57-5.64-3.51,2.52-3.52,5.64-3.52S103,57.91,103,59.86ZM92.75,41.07c1.38,1.37,1.12,3.86-.57,5.55s-4.17,2-5.55.57-1.12-3.87.57-5.56S91.38,39.69,92.75,41.07Z" transform="translate(-43.72 -29.61)"/><path class="cls-1" d="M74,47.38a2,2,0,1,1-1.66,1.95A1.83,1.83,0,0,1,74,47.38ZM65.14,51A2,2,0,0,1,67.9,53.8,2,2,0,0,1,65.14,51Zm0,17.63a2,2,0,1,1,2.56-.2,1.83,1.83,0,0,1-2.56.2Zm17.64,0a2,2,0,1,1-.2-2.55,1.83,1.83,0,0,1,.2,2.55ZM61.49,59.86a2,2,0,1,1,1.95,1.66,1.83,1.83,0,0,1-1.95-1.66ZM74,72.33a2,2,0,1,1,1.67-2,1.82,1.82,0,0,1-1.67,2ZM86.43,59.86a2,2,0,1,1-2-1.67,1.82,1.82,0,0,1,2,1.67ZM82.78,51a2,2,0,1,1-2.56.2A1.82,1.82,0,0,1,82.78,51Z" transform="translate(-43.72 -29.61)"/><path class="cls-2" d="M66.29,41.33c1.23-.51,2.79.42,3.48,2.09s.25,3.43-1,3.94-2.79-.43-3.48-2.09S65.06,41.84,66.29,41.33Z" transform="translate(-43.72 -29.61)"/><path class="cls-2" d="M55.43,52.18c.51-1.23,2.28-1.67,4-1s2.6,2.25,2.09,3.48-2.28,1.67-3.94,1S54.92,53.41,55.43,52.18Z" transform="translate(-43.72 -29.61)"/><path class="cls-2" d="M55.43,67.53c-.51-1.23.43-2.79,2.1-3.48s3.43-.25,3.94,1-.43,2.79-2.09,3.48S55.94,68.76,55.43,67.53Z" transform="translate(-43.72 -29.61)"/><path class="cls-2" d="M66.29,78.38c-1.23-.51-1.67-2.27-1-3.94s2.25-2.6,3.48-2.09,1.67,2.27,1,3.94S67.52,78.89,66.29,78.38Z" transform="translate(-43.72 -29.61)"/><path class="cls-2" d="M81.64,78.38c-1.23.51-2.79-.42-3.48-2.09s-.25-3.43,1-3.94,2.79.43,3.48,2.09S82.87,77.87,81.64,78.38Z" transform="translate(-43.72 -29.61)"/><path class="cls-2" d="M92.49,67.53c-.51,1.23-2.27,1.67-3.94,1S86,66.26,86.46,65s2.27-1.67,3.94-1S93,66.3,92.49,67.53Z" transform="translate(-43.72 -29.61)"/><path class="cls-2" d="M92.49,52.18c.51,1.23-.43,2.79-2.09,3.48s-3.43.25-3.94-1,.42-2.79,2.09-3.48S92,51,92.49,52.18Z" transform="translate(-43.72 -29.61)"/><path class="cls-2" d="M81.64,41.33c1.23.51,1.67,2.27,1,3.94s-2.25,2.6-3.48,2.09-1.67-2.27-1-3.94S80.41,40.82,81.64,41.33Z" transform="translate(-43.72 -29.61)"/><path class="cls-3" d="M61.39,29.84c1.11-.46,2.53.39,3.15,1.9s.23,3.11-.89,3.57-2.53-.39-3.15-1.9S60.27,30.3,61.39,29.84Z" transform="translate(-43.72 -29.61)"/><path class="cls-3" d="M43.85,47.52c.46-1.11,2.06-1.51,3.57-.88s2.36,2,1.9,3.15-2.06,1.51-3.58.89S43.38,48.64,43.85,47.52Z" transform="translate(-43.72 -29.61)"/><path class="cls-3" d="M44,72.43c-.46-1.12.39-2.53,1.9-3.15s3.11-.23,3.57.89-.39,2.52-1.9,3.15S44.41,73.55,44,72.43Z" transform="translate(-43.72 -29.61)"/><path class="cls-3" d="M61.63,90c-1.11-.46-1.51-2.06-.89-3.57s2-2.36,3.16-1.9,1.51,2.06.89,3.57S62.75,90.43,61.63,90Z" transform="translate(-43.72 -29.61)"/><path class="cls-3" d="M86.54,89.87c-1.12.46-2.53-.39-3.15-1.9s-.23-3.11.88-3.57,2.53.39,3.16,1.9S87.66,89.41,86.54,89.87Z" transform="translate(-43.72 -29.61)"/><path class="cls-3" d="M104.08,72.19c-.46,1.11-2.06,1.51-3.57.88s-2.36-2-1.9-3.15,2.06-1.51,3.57-.89S104.54,71.07,104.08,72.19Z" transform="translate(-43.72 -29.61)"/><path class="cls-3" d="M104,47.28c.46,1.11-.39,2.53-1.9,3.15s-3.11.23-3.57-.89.38-2.52,1.9-3.15S103.52,46.16,104,47.28Z" transform="translate(-43.72 -29.61)"/><path class="cls-3" d="M86.29,29.74c1.12.46,1.52,2.06.89,3.57s-2,2.36-3.15,1.9-1.52-2.06-.89-3.57S85.18,29.28,86.29,29.74Z" transform="translate(-43.72 -29.61)"/><path class="cls-3" d="M120.58,52.37v5.3a13.28,13.28,0,0,0,1.86.13c1.74,0,3.2-1,3.2-2.82a2.82,2.82,0,0,0-2.72-2.68,5.68,5.68,0,0,0-2.34.07Zm0,8.36v6a12.43,12.43,0,0,0,4-.11,3,3,0,0,0,2.1-3.23,3.27,3.27,0,0,0-3.31-2.75,23,23,0,0,0-2.78.12Zm-3,9.11a.74.74,0,0,1-.76-.7V50.49a.74.74,0,0,1,.76-.7,42.93,42.93,0,0,1,6.65,0c2.6.32,4.89,2.62,4.89,4.87a4.57,4.57,0,0,1-2.28,4.14s2.46,1.15,3,3.19.06,5.71-2.78,7.07-9.47.74-9.47.74Zm14.79-13.31.83,1.63c.2.39.43.52.77.31a5.88,5.88,0,0,1,2.8-.82,2.88,2.88,0,0,1,3.12,2.93,7,7,0,0,0-2.34-.41c-1.68,0-6.06.68-6.06,4.88s3.43,5,5.76,5A12,12,0,0,0,143,68.66V60.28a5.37,5.37,0,0,0-1.57-4,7.86,7.86,0,0,0-8.71-.7c-.54.32-.51.68-.39.92Zm7.53,7.1v3.14a4.93,4.93,0,0,1-2.52.59c-1.62,0-2.77-.93-2.77-2.34s1.47-2.16,2.65-2.16a4,4,0,0,1,2.64.77Zm6.16-8.81h.8a1.34,1.34,0,0,1,1.33,1.33v.54a6.52,6.52,0,0,1,4.36-1.91c3.37,0,4.48,3.17,4.48,5.12v9a.71.71,0,0,1-.71.72h-2a.72.72,0,0,1-.72-.72v-9a2.13,2.13,0,0,0-2.34-2c-1.33,0-2.41,1.46-3,2.55v8.47a.71.71,0,0,1-.71.72h-2a.72.72,0,0,1-.72-.72V56.15a1.34,1.34,0,0,1,1.33-1.33Zm32,0c3.87,0,7,3.43,7,7.66s-3.15,7.66-7,7.66-7-3.43-7-7.66,3.14-7.66,7-7.66Zm0,2.85c-1.81,0-3.27,2.16-3.27,4.81s1.46,4.81,3.27,4.81,3.28-2.16,3.28-4.81-1.47-4.81-3.28-4.81Zm-11.23-2.85a8.39,8.39,0,0,1,3.1.6c.55.23.86.38.7,1l-.49,1.85c-.09.34-.31.45-.76.15a4.27,4.27,0,0,0-2.35-.73,4.83,4.83,0,0,0,0,9.62,4.17,4.17,0,0,0,2.27-.68c.55-.36.71-.32.84.1l.5,1.9a.6.6,0,0,1-.32.75,8.3,8.3,0,0,1-3.49.78,7.67,7.67,0,1,1,0-15.32Zm35-5.73a10,10,0,0,1,4,.83c.71.31,1.11.51.91,1.34l-.51,2c-.12.47-.4.62-1,.21a5.23,5.23,0,0,0-3-1c-3.14,0-6.44,2.52-6.44,7.11s3.31,7.19,6.46,7.19a5.11,5.11,0,0,0,2.91-.93c.71-.49.91-.45,1.08.14l.5,2a.84.84,0,0,1-.42,1,10.09,10.09,0,0,1-4.48,1.07,10.53,10.53,0,0,1,0-21Zm23.24,6.45h-2.68a1,1,0,0,0-1,1v.71a1,1,0,0,0,1,1h1V70.83c0,.61-.85.9-1.45.9s-1.11-.78-1.5-.31-1.14,1.46-1.31,1.69,0,.61.72,1a5.77,5.77,0,0,0,2.86.67,3.93,3.93,0,0,0,3.33-1.67,5.14,5.14,0,0,0,.66-3.18V56.2a.67.67,0,0,0-.67-.67Zm-.83-6.2h.83a1.88,1.88,0,0,1,1.87,1.88v.24a1.88,1.88,0,0,1-1.87,1.88h-.83a1.88,1.88,0,0,1-1.88-1.88v-.24a1.88,1.88,0,0,1,1.88-1.88Zm44.57,5.48c3.87,0,7,3.43,7,7.66s-3.14,7.66-7,7.66-7-3.43-7-7.66,3.14-7.66,7-7.66Zm0,2.85c-1.81,0-3.28,2.16-3.28,4.81s1.47,4.81,3.28,4.81,3.28-2.16,3.28-4.81-1.47-4.81-3.28-4.81Zm15.81-2.85a8.39,8.39,0,0,1,3.1.6c.55.23.86.38.7,1l-.49,1.85c-.09.34-.31.45-.76.15a4.24,4.24,0,0,0-2.35-.73,4.83,4.83,0,0,0,0,9.62,4.17,4.17,0,0,0,2.27-.68c.55-.36.71-.32.84.1l.51,1.9a.6.6,0,0,1-.33.75,8.3,8.3,0,0,1-3.49.78,7.67,7.67,0,1,1,0-15.32Zm8.34.72h-2.68a1,1,0,0,0-1,1v.71a1,1,0,0,0,1,1h1V68.89a.66.66,0,0,0,.69.74h2c.47,0,.65-.32.65-.75V56.2a.68.68,0,0,0-.68-.67Zm-.83-6.2H293a1.89,1.89,0,0,1,1.88,1.88v.24A1.89,1.89,0,0,1,293,53.33h-.83a1.88,1.88,0,0,1-1.88-1.88v-.24a1.88,1.88,0,0,1,1.88-1.88Zm-83.65,7.2c-.12-.24-.15-.6.39-.92a7.88,7.88,0,0,1,8.72.7,5.41,5.41,0,0,1,1.57,4v8.38a12.06,12.06,0,0,1-5.8,1.36c-2.33,0-5.76-.77-5.76-5s4.38-4.88,6.06-4.88a7,7,0,0,1,2.34.41,2.88,2.88,0,0,0-3.12-2.93,5.92,5.92,0,0,0-2.8.82c-.34.21-.57.08-.77-.31l-.83-1.63Zm7.53,7.1a4,4,0,0,0-2.64-.77c-1.17,0-2.65.75-2.65,2.16s1.15,2.34,2.77,2.34a4.93,4.93,0,0,0,2.52-.59V63.63Zm13.87-7.1.84,1.63c.2.39.42.52.77.31a5.88,5.88,0,0,1,2.8-.82,2.88,2.88,0,0,1,3.12,2.93,7.09,7.09,0,0,0-2.34-.41c-1.69,0-6.06.68-6.06,4.88s3.43,5,5.76,5a12,12,0,0,0,5.79-1.36V60.28a5.37,5.37,0,0,0-1.57-4,7.86,7.86,0,0,0-8.71-.7c-.55.32-.51.68-.4.92Zm7.54,7.1v3.14a5,5,0,0,1-2.53.59c-1.61,0-2.76-.93-2.76-2.34s1.47-2.16,2.65-2.16a4,4,0,0,1,2.64.77ZM297,56.53l.83,1.63c.2.39.43.52.77.31a6,6,0,0,1,2.81-.82,2.88,2.88,0,0,1,3.12,2.93,7.09,7.09,0,0,0-2.34-.41c-1.69,0-6.07.68-6.07,4.88s3.43,5,5.77,5a12,12,0,0,0,5.79-1.36V60.28a5.37,5.37,0,0,0-1.57-4,7.86,7.86,0,0,0-8.71-.7c-.55.32-.52.68-.4.92Zm7.54,7.1v3.14a5,5,0,0,1-2.53.59c-1.61,0-2.76-.93-2.76-2.34s1.47-2.16,2.64-2.16a4,4,0,0,1,2.65.77Zm-47.27.27c0-1.43-1.59-2.34-3.37-3.06s-4.43-2-5.25-3.71a5.37,5.37,0,0,1-.25-3.31,6.37,6.37,0,0,1,4.11-4,8.14,8.14,0,0,1,3.93-.29,9.65,9.65,0,0,1,2.83.83c.66.32.91.5.67,1.09s-.67,1.34-.79,1.56-.28.53-.88.22a6.36,6.36,0,0,0-2.65-.8,5.32,5.32,0,0,0-2.35.4c-1.77.94-1.68,2.53-.06,3.55,1.05.66,2.63,1.1,4.08,1.84,2.49,1.28,3.64,3.09,3.64,5a6.47,6.47,0,0,1-3.46,6.09,10.62,10.62,0,0,1-4.69,1,9.64,9.64,0,0,1-2.54-.42,13,13,0,0,1-2.05-.79c-.48-.23-.28-.46-.22-.69.13-.49.52-1.8.7-2.2s.5-.62,1.16-.21a6.13,6.13,0,0,0,3.39.91,4.2,4.2,0,0,0,3.33-1.19,2.78,2.78,0,0,0,.72-1.82Zm52.26-13.2a1.32,1.32,0,0,1,1.33-1.33h.65a1.34,1.34,0,0,1,1.33,1.33V65c0,1,.26,1.65,1.64,1.65h1a1,1,0,0,1,1,1V69a1,1,0,0,1-1,1h-2.46a3.3,3.3,0,0,1-3.5-3.46Z" transform="translate(-43.72 -29.61)"/><path class="cls-3" d="M227.8,83.29a.87.87,0,1,0,0-1.7.87.87,0,1,0,0,1.7ZM230.28,82a1.92,1.92,0,0,1,.05.41,2.32,2.32,0,0,1-2.53,2,3.18,3.18,0,0,1-.77-.1,1.19,1.19,0,0,0-.07.47.87.87,0,0,0,.33.5,3.94,3.94,0,0,1,.7-.13c1.5-.13,2.71.67,2.71,1.8s-1.21,2.14-2.71,2.28-2.7-.68-2.7-1.8a1.91,1.91,0,0,1,.6-1.34,1.65,1.65,0,0,1-.5-1.2,3,3,0,0,1,.39-1.29,1.79,1.79,0,0,1-.51-1.23,2.32,2.32,0,0,1,2.53-2,2.93,2.93,0,0,1,1.16.23,1.76,1.76,0,0,1,.93-.25c.71,0,1.29.38,1.29.85s-.38.7-.9.8Zm-2.42,6.1c.8,0,1.51-.48,1.58-1s-.51-.84-1.31-.79-1.51.48-1.59,1,.52.83,1.32.78Zm6.78-7.61a3.32,3.32,0,0,0-1.23.22,2.72,2.72,0,0,0-1,.62,2.89,2.89,0,0,0-.65,1,4.13,4.13,0,0,0,0,2.69,2.8,2.8,0,0,0,.63,1,2.69,2.69,0,0,0,1,.62,3.38,3.38,0,0,0,1.21.21,3.85,3.85,0,0,0,.88-.11,3.15,3.15,0,0,0,.82-.36,2.53,2.53,0,0,0,.69-.62,2.76,2.76,0,0,0,.48-.9,3.88,3.88,0,0,0,.18-1.23,3.68,3.68,0,0,0-.21-1.27,2.92,2.92,0,0,0-.6-1,2.66,2.66,0,0,0-.93-.64,3.26,3.26,0,0,0-1.24-.23Zm1.22,3.16a3.71,3.71,0,0,1-.08.77,2.84,2.84,0,0,1-.24.64,1.38,1.38,0,0,1-.4.43,1.08,1.08,0,0,1-1.1,0,1.41,1.41,0,0,1-.41-.43,2,2,0,0,1-.24-.63,3.14,3.14,0,0,1-.08-.77,3.6,3.6,0,0,1,0-.56,2.17,2.17,0,0,1,.14-.53,1.83,1.83,0,0,1,.24-.46,1.23,1.23,0,0,1,.37-.31,1.16,1.16,0,0,1,.51-.12,1,1,0,0,1,.57.18,1.23,1.23,0,0,1,.39.45,2.47,2.47,0,0,1,.22.63,3.42,3.42,0,0,1,.07.71Zm3.61,3.19a1.1,1.1,0,0,0,.55-.14,1,1,0,0,0,.36-.36,1.2,1.2,0,0,0,.13-.54,1.1,1.1,0,0,0-.14-.55,1,1,0,0,0-.36-.36,1.08,1.08,0,0,0-.54-.13,1.16,1.16,0,0,0-.54.13,1,1,0,0,0-.37.37,1.09,1.09,0,0,0-.14.54,1.15,1.15,0,0,0,.13.53,1,1,0,0,0,.36.37,1.11,1.11,0,0,0,.56.14Zm-19.29-3.82a4.23,4.23,0,0,0-.14-1.14,2.2,2.2,0,0,0-.4-.78,1.64,1.64,0,0,0-.6-.45,1.86,1.86,0,0,0-.75-.15,2.07,2.07,0,0,0-.66.1A1.91,1.91,0,0,0,217,81a2.42,2.42,0,0,0-.55.59h0a1.53,1.53,0,0,0-.35-.54,1.4,1.4,0,0,0-.53-.35,2.06,2.06,0,0,0-.68-.13,2.31,2.31,0,0,0-.62.09,1.83,1.83,0,0,0-.49.22,2.2,2.2,0,0,0-.37.3,2.5,2.5,0,0,0-.26.33h0l-.07-.82h-1.39c0,.27,0,.55,0,.85s0,.63,0,1v4.27h1.6V83.07a1.44,1.44,0,0,1,.09-.53,1.28,1.28,0,0,1,.23-.38,1,1,0,0,1,.32-.24.83.83,0,0,1,.34-.07.77.77,0,0,1,.51.17,1,1,0,0,1,.28.47,2.59,2.59,0,0,1,.08.66v3.6h1.6v-3.7a1.77,1.77,0,0,1,.08-.55,1,1,0,0,1,.23-.37.84.84,0,0,1,.31-.22,1,1,0,0,1,.33-.06.73.73,0,0,1,.52.18,1,1,0,0,1,.29.51,2.83,2.83,0,0,1,.09.76v3.45h1.59v-3.7ZM223.47,79a1.07,1.07,0,0,0-.12-.45.8.8,0,0,0-.33-.3,1,1,0,0,0-.49-.11,1,1,0,0,0-.48.11.8.8,0,0,0-.33.3.84.84,0,0,0-.12.45.81.81,0,0,0,.12.44.86.86,0,0,0,.32.31,1.07,1.07,0,0,0,.49.11,1.06,1.06,0,0,0,.48-.1.8.8,0,0,0,.33-.3,1,1,0,0,0,.13-.46Zm-.06,1.66h-1.74v6.1h1.74v-6.1Zm-98.93-2.32h-2l-1,3.17c-.14.5-.28,1-.4,1.5s-.24,1-.34,1.46h0c-.1-.48-.2-1-.32-1.46s-.25-1-.39-1.5l-.92-3.17h-2l-.57,8.42H118l.17-3.24c0-.35,0-.71,0-1.1s0-.76,0-1.14,0-.75,0-1.11h0c.07.35.14.7.22,1.06s.16.71.25,1.06.18.68.27,1l.94,3.35h1.24l1-3.41.29-1c.09-.35.19-.69.28-1s.18-.69.27-1h0c0,.53,0,1.08,0,1.64s0,1.12.07,1.68l.15,3.27H125l-.49-8.42Zm6.76,4.74a3.72,3.72,0,0,0-.11-1,2.24,2.24,0,0,0-.42-.81,2,2,0,0,0-.79-.56,3.66,3.66,0,0,0-1.25-.21,6.88,6.88,0,0,0-.95.08,4.65,4.65,0,0,0-.76.2,3.9,3.9,0,0,0-.56.24l.33,1a3.57,3.57,0,0,1,.74-.3,3.1,3.1,0,0,1,.87-.12,1.56,1.56,0,0,1,.72.14.82.82,0,0,1,.36.38,1.53,1.53,0,0,1,.09.54,7,7,0,0,0-1.43.14,3.59,3.59,0,0,0-1.13.42,2.13,2.13,0,0,0-.74.72,2,2,0,0,0-.26,1,1.82,1.82,0,0,0,.13.7,1.74,1.74,0,0,0,.39.58,1.89,1.89,0,0,0,.62.4,5.73,5.73,0,0,0,2.76,0,7.29,7.29,0,0,0,1.41-.39l0-1V83.07Zm-1.68,1.59c0,.19,0,.29,0,.58a1.87,1.87,0,0,1-1,.4.76.76,0,0,1-.87-.76.88.88,0,0,1,.16-.55,1.14,1.14,0,0,1,.44-.33,2.28,2.28,0,0,1,.61-.17,5.36,5.36,0,0,1,.7,0v.88ZM128,79.89h1.17l1.53-1.83h-1.61L128,79.89Zm8.69,1a3.78,3.78,0,0,0-.7-.24,4.25,4.25,0,0,0-.92-.1,3,3,0,0,0-1,.15,2.49,2.49,0,0,0-.76.4,2.07,2.07,0,0,0-.48.62,1.88,1.88,0,0,0-.17.76,1.52,1.52,0,0,0,.16.65,1.86,1.86,0,0,0,.54.6,3.77,3.77,0,0,0,1,.52,4.37,4.37,0,0,1,.56.26,1,1,0,0,1,.29.27.57.57,0,0,1,.09.32.53.53,0,0,1-.23.45,1.21,1.21,0,0,1-.68.17,3.45,3.45,0,0,1-.55-.07,3.49,3.49,0,0,1-.54-.15,3.63,3.63,0,0,1-.43-.19l-.33,1.17a3,3,0,0,0,.51.21,5.81,5.81,0,0,0,.63.15,5.36,5.36,0,0,0,.7,0,4,4,0,0,0,1.39-.24,1.94,1.94,0,0,0,.87-.68,1.71,1.71,0,0,0,.31-1,1.6,1.6,0,0,0-.4-1.09,3,3,0,0,0-1.22-.77,6.21,6.21,0,0,1-.59-.26,1.07,1.07,0,0,1-.31-.25.47.47,0,0,1-.1-.3.54.54,0,0,1,.1-.3.64.64,0,0,1,.27-.2,1.15,1.15,0,0,1,.44-.08,2.44,2.44,0,0,1,.48,0,4.21,4.21,0,0,1,.42.12l.33.15.33-1.14Zm6.26.53V78h-1.73v5.9c0,.66,0,1.33,0,2a4.65,4.65,0,0,0,3.31,1,3.11,3.11,0,0,0,.8-.13,2.52,2.52,0,0,0,.72-.39,2.55,2.55,0,0,0,.6-.66,3,3,0,0,0,.4-.91,4.74,4.74,0,0,0,0-2.44,3,3,0,0,0-.49-1,2.2,2.2,0,0,0-.76-.63,2.24,2.24,0,0,0-1-.22,2.42,2.42,0,0,0-1.08.23,2.09,2.09,0,0,0-.74.64Zm0,1.74a1.53,1.53,0,0,1,.1-.54,1.49,1.49,0,0,1,.26-.42,1.22,1.22,0,0,1,.38-.26.94.94,0,0,1,.43-.1,1.06,1.06,0,0,1,.58.15,1.12,1.12,0,0,1,.42.39,1.77,1.77,0,0,1,.24.58,2.86,2.86,0,0,1,.09.73,3,3,0,0,1-.16,1,1.34,1.34,0,0,1-.45.66,1.18,1.18,0,0,1-.72.24,1.15,1.15,0,0,1-.61-.18,1.19,1.19,0,0,1-.41-.45,1.33,1.33,0,0,1-.15-.63V83.13ZM160.14,83a3.53,3.53,0,0,0-.17-1.1,2,2,0,0,0-.44-.78,1.92,1.92,0,0,0-.68-.45,2.23,2.23,0,0,0-.83-.15,2.7,2.7,0,0,0-.66.09,2,2,0,0,0-.53.22,1.9,1.9,0,0,0-.42.31,1.74,1.74,0,0,0-.28.34h0l-.08-.84h-1.5c0,.27,0,.55,0,.85s0,.63,0,1v4.27h1.73V83.12a1.68,1.68,0,0,1,.11-.59,1.13,1.13,0,0,1,.27-.39,1.29,1.29,0,0,1,.37-.22,1.19,1.19,0,0,1,.37-.06A.87.87,0,0,1,158,82a1,1,0,0,1,.32.48,2.31,2.31,0,0,1,.09.67v3.56h1.74V83Zm5.74,2.37a2.15,2.15,0,0,1-.47.14,2.68,2.68,0,0,1-.59.06,1.87,1.87,0,0,1-.89-.23,1.51,1.51,0,0,1-.61-.64,2.13,2.13,0,0,1-.23-1,2.5,2.5,0,0,1,.11-.74,1.77,1.77,0,0,1,.34-.6,1.52,1.52,0,0,1,.54-.4,1.73,1.73,0,0,1,.73-.15,2.68,2.68,0,0,1,.61.06,2.43,2.43,0,0,1,.41.14l.28-1.24a3.19,3.19,0,0,0-.35-.1,3,3,0,0,0-.47-.09,4.56,4.56,0,0,0-.54,0,4.25,4.25,0,0,0-1.44.25,3.15,3.15,0,0,0-1.08.68,3,3,0,0,0-.67,1,3.7,3.7,0,0,0,0,2.57,2.59,2.59,0,0,0,.63,1,2.79,2.79,0,0,0,1,.61,4.07,4.07,0,0,0,1.3.22l.66,0c.2,0,.38-.06.54-.1a1.66,1.66,0,0,0,.38-.13l-.18-1.21Zm4-4.86a3.24,3.24,0,0,0-1.23.22,2.56,2.56,0,0,0-1,.62,2.75,2.75,0,0,0-.65,1,4,4,0,0,0,0,2.69,2.73,2.73,0,0,0,1.58,1.61,3.4,3.4,0,0,0,1.22.21,3.7,3.7,0,0,0,.87-.11,3.21,3.21,0,0,0,.83-.36,2.53,2.53,0,0,0,.69-.62,2.75,2.75,0,0,0,.47-.9,3.88,3.88,0,0,0,.18-1.23,3.68,3.68,0,0,0-.21-1.27,2.75,2.75,0,0,0-.59-1,2.71,2.71,0,0,0-.94-.64,3.21,3.21,0,0,0-1.23-.23Zm1.21,3.16a3.14,3.14,0,0,1-.08.77,2.12,2.12,0,0,1-.24.64,1.38,1.38,0,0,1-.4.43,1,1,0,0,1-.54.15,1,1,0,0,1-.56-.15,1.38,1.38,0,0,1-.4-.43,2.24,2.24,0,0,1-.25-.63,3.71,3.71,0,0,1-.08-.77,3.6,3.6,0,0,1,0-.56,2.74,2.74,0,0,1,.14-.53,1.86,1.86,0,0,1,.25-.46,1.09,1.09,0,0,1,.87-.43,1,1,0,0,1,.57.18,1.23,1.23,0,0,1,.39.45A2.14,2.14,0,0,1,171,83a3.42,3.42,0,0,1,.07.71Zm3.94,3.19a1.07,1.07,0,0,0,.55-.14.83.83,0,0,0,.36-.36,1.08,1.08,0,0,0,.13-.54,1.09,1.09,0,0,0-.13-.55,1,1,0,0,0-.37-.36,1,1,0,0,0-.54-.13,1.12,1.12,0,0,0-.53.13,1,1,0,0,0-.37.37,1.09,1.09,0,0,0-.14.54,1,1,0,0,0,.13.53.86.86,0,0,0,.36.37,1.07,1.07,0,0,0,.55.14Zm13.3-8.54h-2l-1,3.17c-.14.5-.27,1-.4,1.5s-.23,1-.33,1.46h0c-.1-.48-.2-1-.32-1.46s-.25-1-.38-1.5L183,78.33h-2l-.57,8.42H182l.16-3.24c0-.35,0-.71,0-1.1s0-.76.05-1.14,0-.75,0-1.11h0c.07.35.14.7.22,1.06s.16.71.25,1.06.18.68.27,1l.93,3.35h1.22l1-3.41c.09-.31.19-.64.28-1s.2-.69.29-1,.18-.69.26-1h0c0,.53,0,1.08,0,1.64s0,1.12.07,1.68l.15,3.27h1.54l-.48-8.42Zm11.9,2.53a3.78,3.78,0,0,0-.7-.24,4.22,4.22,0,0,0-.91-.1,3,3,0,0,0-1,.15,2.33,2.33,0,0,0-.75.4,1.79,1.79,0,0,0-.48.62,1.6,1.6,0,0,0-.17.76,1.28,1.28,0,0,0,.16.65,1.71,1.71,0,0,0,.53.6,3.77,3.77,0,0,0,1,.52,3.8,3.8,0,0,1,.56.26,1,1,0,0,1,.29.27.57.57,0,0,1,.09.32.53.53,0,0,1-.23.45,1.18,1.18,0,0,1-.68.17,3.6,3.6,0,0,1-.55-.07,3.49,3.49,0,0,1-.54-.15,3.63,3.63,0,0,1-.43-.19l-.33,1.17a3,3,0,0,0,.51.21,5.81,5.81,0,0,0,.63.15,5.36,5.36,0,0,0,.7,0,4,4,0,0,0,1.39-.24,2,2,0,0,0,.88-.68,1.77,1.77,0,0,0,.3-1,1.6,1.6,0,0,0-.4-1.09,3,3,0,0,0-1.22-.77,6.21,6.21,0,0,1-.59-.26,1.07,1.07,0,0,1-.31-.25.41.41,0,0,1-.09-.3A.53.53,0,0,1,198,82a.64.64,0,0,1,.27-.2,1.15,1.15,0,0,1,.44-.08,2.44,2.44,0,0,1,.48,0,4.21,4.21,0,0,1,.42.12l.33.15.33-1.14Zm-46.84,2.21a3.71,3.71,0,0,0-.12-1,2.22,2.22,0,0,0-.41-.81,2.13,2.13,0,0,0-.79-.56,3.76,3.76,0,0,0-1.26-.21,6.6,6.6,0,0,0-.94.08,4.52,4.52,0,0,0-.77.2,3.73,3.73,0,0,0-.55.24l.33,1a3.27,3.27,0,0,1,.73-.3,3.15,3.15,0,0,1,.87-.12,1.6,1.6,0,0,1,.73.14.8.8,0,0,1,.35.38,1.33,1.33,0,0,1,.09.54,7,7,0,0,0-1.43.14,3.69,3.69,0,0,0-1.13.42,2.1,2.1,0,0,0-.73.72,1.89,1.89,0,0,0-.27,1,1.82,1.82,0,0,0,.14.7,1.74,1.74,0,0,0,.39.58,1.85,1.85,0,0,0,.61.4,5.77,5.77,0,0,0,2.77,0,7.7,7.7,0,0,0,1.41-.39l0-1V83.07Zm-1.69,1.59c0,.19,0,.29,0,.58a1.87,1.87,0,0,1-1,.4.76.76,0,0,1-.87-.76.88.88,0,0,1,.17-.55,1,1,0,0,1,.43-.33,2.35,2.35,0,0,1,.62-.17,5.09,5.09,0,0,1,.69,0v.88Zm43.16-1.59a3.71,3.71,0,0,0-.12-1,2.22,2.22,0,0,0-.41-.81,2,2,0,0,0-.79-.56,3.67,3.67,0,0,0-1.26-.21,6.73,6.73,0,0,0-.94.08,4.78,4.78,0,0,0-.77.2,4.27,4.27,0,0,0-.55.24l.33,1a3.36,3.36,0,0,1,.74-.3,3,3,0,0,1,.86-.12,1.57,1.57,0,0,1,.73.14.75.75,0,0,1,.35.38,1.33,1.33,0,0,1,.1.54,7.1,7.1,0,0,0-1.44.14,3.62,3.62,0,0,0-1.12.42,2,2,0,0,0-.74.72,2,2,0,0,0-.27,1,1.82,1.82,0,0,0,.14.7,1.74,1.74,0,0,0,.39.58,1.79,1.79,0,0,0,.62.4,5.73,5.73,0,0,0,2.76,0,7.29,7.29,0,0,0,1.41-.39l0-1V83.07Zm-1.69,1.59c0,.19,0,.29,0,.58a1.9,1.9,0,0,1-1.05.4.77.77,0,0,1-.88-.76.88.88,0,0,1,.17-.55,1.07,1.07,0,0,1,.44-.33,2.18,2.18,0,0,1,.61-.17,5.21,5.21,0,0,1,.69,0v.88Zm-1.56-4.77h1.18l1.53-1.83h-1.62l-1.09,1.83Zm18.5,3.18a3.71,3.71,0,0,0-.12-1,2.22,2.22,0,0,0-.41-.81,2,2,0,0,0-.79-.56,3.76,3.76,0,0,0-1.26-.21,6.73,6.73,0,0,0-.94.08,4.78,4.78,0,0,0-.77.2,4.27,4.27,0,0,0-.55.24l.33,1a3.48,3.48,0,0,1,.73-.3,3.15,3.15,0,0,1,.87-.12,1.57,1.57,0,0,1,.73.14.75.75,0,0,1,.35.38,1.18,1.18,0,0,1,.09.54,7.08,7.08,0,0,0-1.43.14,3.62,3.62,0,0,0-1.12.42,2,2,0,0,0-.74.72,2,2,0,0,0-.27,1,1.82,1.82,0,0,0,.14.7,1.74,1.74,0,0,0,.39.58,1.79,1.79,0,0,0,.62.4,5.73,5.73,0,0,0,2.76,0,7.29,7.29,0,0,0,1.41-.39l0-1V83.07Zm-1.69,1.59c0,.19,0,.29,0,.58a1.93,1.93,0,0,1-1.05.4.77.77,0,0,1-.88-.76.88.88,0,0,1,.17-.55,1.07,1.07,0,0,1,.44-.33,2.18,2.18,0,0,1,.61-.17,5.21,5.21,0,0,1,.69,0Z" transform="translate(-43.72 -29.61)"/></svg>