<svg id="Banco_Corpbanca" data-name="Banco Corpbanca" xmlns="http://www.w3.org/2000/svg" viewBox="0 0 274.81 27.96"><defs><style>.cls-1{fill:#0064b3;}</style></defs><path class="cls-1" d="M312.16,51.34a14,14,0,0,0-22.65,7.42l0,.12H307.9l4.33-7.49Z" transform="translate(-42.28 -48.01)"/><path class="cls-1" d="M298,59.4h-8.59v.09a13.52,13.52,0,0,0-.24,2.52,14,14,0,0,0,18,13.38l.12,0-.07-.11c-.38-.67-8.9-15.43-9.11-15.8l0-.05Z" transform="translate(-42.28 -48.01)"/><path class="cls-1" d="M312.56,51.86,303.41,67.7l4.32,7.49.08,0a14,14,0,0,0,4.91-23.33l-.1-.09Z" transform="translate(-42.28 -48.01)"/><path class="cls-1" d="M61.55,59.57a7.41,7.41,0,0,0-5.21-2.34,4.65,4.65,0,0,0-4.79,4.83,5,5,0,0,0,.42,2,4.9,4.9,0,0,0,4.65,2.7,6.59,6.59,0,0,0,1.67-.22,8.94,8.94,0,0,0,3.46-1.88l-.35,9.26a18.88,18.88,0,0,1-5.94,1,13.5,13.5,0,0,1-8.81-3,13.49,13.49,0,0,1,.7-20.48,12.55,12.55,0,0,1,8-2.48,19.21,19.21,0,0,1,6.16,1.12Z" transform="translate(-42.28 -48.01)"/><path class="cls-1" d="M84.3,51.4a12.68,12.68,0,0,1,5.1,7.13A14.94,14.94,0,0,1,89.79,62c0,7.58-5.49,13-13.08,13a15.74,15.74,0,0,1-5.31-.91,12.25,12.25,0,0,1-8.35-12,14.48,14.48,0,0,1,.38-3.28,12.55,12.55,0,0,1,5.35-7.69,13.91,13.91,0,0,1,7.52-2A13.72,13.72,0,0,1,84.3,51.4Zm-9.82,6.32A4.73,4.73,0,0,0,72,62.13c0,2.55,1.67,4.71,4.37,4.71a4.19,4.19,0,0,0,1.88-.38,4.63,4.63,0,0,0,2.59-4.4,4.93,4.93,0,0,0-.35-2,4.36,4.36,0,0,0-6-2.38Z" transform="translate(-42.28 -48.01)"/><path class="cls-1" d="M101.57,49.72c.73,0,1.46,0,2.2.07,2.83.17,5.42.94,7.2,3.28a7.52,7.52,0,0,1,1.61,4.86A6.36,6.36,0,0,1,110,63.52a8,8,0,0,1-2,1l6,9.9H104.4l-4.58-9.06V74.4H91.36V49.72ZM99.82,60.55H101a2.58,2.58,0,0,0,2.41-.87,2.25,2.25,0,0,0,.35-1.26c0-2.24-2.44-2-2.79-2H99.82Z" transform="translate(-42.28 -48.01)"/><path class="cls-1" d="M125.72,49.72A23.15,23.15,0,0,1,130,50a8,8,0,0,1,5.63,3.63,9.91,9.91,0,0,1,1.4,5.21,8.13,8.13,0,0,1-3,6.61c-2,1.46-4.3,1.53-6.67,1.53h-2.94V74.4h-9V49.72Zm-1.33,11h.87a3.16,3.16,0,0,0,2.59-.84,1.76,1.76,0,0,0,.49-1.36A1.78,1.78,0,0,0,128,57.3c-.63-.91-1.78-.91-2.76-.91h-.84Z" transform="translate(-42.28 -48.01)"/><path class="cls-1" d="M150.2,49.72c.49,0,1,0,1.51,0,.94,0,4.29.14,6.18,3A6.43,6.43,0,0,1,159,56.39a5.65,5.65,0,0,1-1.68,4.2,7.63,7.63,0,0,1-1.4,1,8.36,8.36,0,0,1,2.66,1.75,5.5,5.5,0,0,1,1.53,4.05,6.23,6.23,0,0,1-1.29,3.95A6.74,6.74,0,0,1,157,73c-2.13,1.33-4.3,1.36-6.71,1.4H138.63V49.72Zm-3.11,9.36h1a2.77,2.77,0,0,0,2.2-.66,1.6,1.6,0,0,0,.39-1.15,1.65,1.65,0,0,0-.28-1,2.92,2.92,0,0,0-2.31-.73h-1Zm0,9.23h1.5a5.7,5.7,0,0,0,1.89-.21,1.78,1.78,0,0,0,1.09-1.74,1.8,1.8,0,0,0-.39-1.19,3,3,0,0,0-2.62-.84h-1.47Z" transform="translate(-42.28 -48.01)"/><path class="cls-1" d="M196.69,49.72,202,57.65l1.26,2c.49.81,1,1.58,1.4,2.38,0-1-.07-2-.07-2.94V49.72h8.57V74.4h-8.57l-4.82-7.28c-.6-.83-1.16-1.71-1.71-2.58s-.88-1.44-1.3-2.17c0,1.29.07,2.55.07,3.85V74.4h-8.56V49.72Z" transform="translate(-42.28 -48.01)"/><path class="cls-1" d="M233.81,59.57a7.37,7.37,0,0,0-5.21-2.34,4.65,4.65,0,0,0-4.78,4.83,5,5,0,0,0,.42,2,4.88,4.88,0,0,0,4.64,2.7,6.67,6.67,0,0,0,1.68-.22A8.94,8.94,0,0,0,234,64.68l-.35,9.26a18.93,18.93,0,0,1-5.94,1,13.5,13.5,0,0,1-8.81-3,13.49,13.49,0,0,1,.7-20.48,12.55,12.55,0,0,1,8-2.48,19.14,19.14,0,0,1,6.15,1.12Z" transform="translate(-42.28 -48.01)"/><polygon class="cls-1" points="136.54 1.7 125.64 1.7 117.67 26.38 126.9 26.38 131.06 10.23 135.25 26.38 144.51 26.38 136.54 1.7"/><polygon class="cls-1" points="210.89 1.7 199.99 1.7 192.02 26.38 201.25 26.38 205.4 10.23 209.6 26.38 218.86 26.38 210.89 1.7"/></svg>