<svg id="Banco_Falabella" data-name="Banco Falabella" xmlns="http://www.w3.org/2000/svg" viewBox="0 0 187.11 56.49"><defs><style>.cls-1{fill:#137938;}.cls-2{fill:#c8d31b;}.cls-3{fill:#134634;}.cls-4{fill:#555759;}.cls-5{fill:#a0a0a1;}</style></defs><path class="cls-1" d="M113.31,87c-9.45,0-36.8-7.67-36.8-17.12s27.35-17.08,36.8-17.08a17.1,17.1,0,0,1,0,34.2" transform="translate(-76.51 -30.88)"/><path class="cls-2" d="M104.9,59.21C98.75,55.5,84,39.72,87.7,33.57s24.57-.33,30.68,3.41A13,13,0,1,1,104.9,59.21" transform="translate(-76.51 -30.88)"/><path class="cls-3" d="M99.71,55.1a36.52,36.52,0,0,0,5.19,4.15,13,13,0,0,0,17.52-3.82,17.22,17.22,0,0,0-9.08-2.63,57.42,57.42,0,0,0-13.63,2.3" transform="translate(-76.51 -30.88)"/><path class="cls-4" d="M153.84,45.17a5.4,5.4,0,0,1,1.63,1,5.67,5.67,0,0,1,1.15,1.37,6.75,6.75,0,0,1,.67,1.63,7.17,7.17,0,0,1,.22,1.78,6.43,6.43,0,0,1-.63,2.89,6.72,6.72,0,0,1-1.67,2.26,7.1,7.1,0,0,1-2.48,1.44,9.3,9.3,0,0,1-3.08.48h-8.18a2,2,0,0,1-1.49-.44,2.22,2.22,0,0,1-.4-1.48V36.46A2.16,2.16,0,0,1,140,35a1.85,1.85,0,0,1,1.49-.48l7.78,0a12.05,12.05,0,0,1,2.89.34,6,6,0,0,1,2.29,1A5.15,5.15,0,0,1,156,37.68a5.86,5.86,0,0,1,.56,2.63,5.24,5.24,0,0,1-2.63,4.6v.26Zm-10.15-1.49h5.41a4.85,4.85,0,0,0,1-.11,2.75,2.75,0,0,0,1-.44,2.54,2.54,0,0,0,.78-.89,3.16,3.16,0,0,0,.3-1.45,2.37,2.37,0,0,0-.78-1.89,3,3,0,0,0-2.15-.7h-5.63v5.48Zm9.6,7a3.49,3.49,0,0,0-1-2.63,4.11,4.11,0,0,0-3-1h-5.56v7.3h5.52a4.26,4.26,0,0,0,2-.37,3.46,3.46,0,0,0,1.26-.89A3.75,3.75,0,0,0,153.1,52a5.35,5.35,0,0,0,.19-1.23" transform="translate(-76.51 -30.88)"/><path class="cls-4" d="M173.15,56.13a1.11,1.11,0,0,1-.63,1.11,9.73,9.73,0,0,1-1.6.56c-.55.15-1.15.26-1.74.37s-1.22.15-1.81.19-1.15,0-1.71,0A12.65,12.65,0,0,1,162,58a6.49,6.49,0,0,1-2.33-1.22A4.4,4.4,0,0,1,158.47,55a7,7,0,0,1-.33-2.15,6.7,6.7,0,0,1,.37-2.26,4.6,4.6,0,0,1,1.26-1.89A6.4,6.4,0,0,1,162,47.31a10.29,10.29,0,0,1,3.41-.51h3.74v-.56a4.13,4.13,0,0,0-.15-1.19,1.74,1.74,0,0,0-.52-.92,2.54,2.54,0,0,0-1-.63,5.67,5.67,0,0,0-1.74-.22,15.19,15.19,0,0,0-2.49.22,14.65,14.65,0,0,0-2.18.48,1.15,1.15,0,0,1-.56,0c-.11,0-.18-.19-.22-.37l-.41-1.93c-.07-.37,0-.59.3-.7a11.61,11.61,0,0,1,3.07-.75,25.18,25.18,0,0,1,3.15-.22c2.34,0,4,.52,5.12,1.56a6,6,0,0,1,1.63,4.48Zm-4-6.33H166c-.37,0-.78,0-1.22.07a3.9,3.9,0,0,0-1.26.37,2.44,2.44,0,0,0-1,.89,2.82,2.82,0,0,0-.37,1.59,2.24,2.24,0,0,0,1,2,5.2,5.2,0,0,0,2.6.56h.67a7.18,7.18,0,0,0,.88-.08c.34,0,.63-.11,1-.14a9,9,0,0,0,1-.26v-5Z" transform="translate(-76.51 -30.88)"/><path class="cls-4" d="M182,43.39c-.26,0-.59,0-1,0a8.88,8.88,0,0,0-1.59.19V57.5c0,.26,0,.41-.15.49a.78.78,0,0,1-.48.11h-2.63a.85.85,0,0,1-.48-.11c-.12-.08-.15-.23-.15-.49V43.13a3.43,3.43,0,0,1,.44-1.89,2.55,2.55,0,0,1,1.82-.89,5.17,5.17,0,0,0,.89-.11l1.18-.11c.45,0,.85,0,1.23-.08s.74,0,1,0a13.23,13.23,0,0,1,3.86.48A6.56,6.56,0,0,1,188.63,42a5.89,5.89,0,0,1,1.56,2.67,13.63,13.63,0,0,1,.52,4v8.86c0,.26,0,.4-.15.48a.78.78,0,0,1-.48.11h-2.63A.87.87,0,0,1,187,58c-.11-.08-.15-.22-.15-.48v-8.9a10.48,10.48,0,0,0-.22-2.26,3.92,3.92,0,0,0-.75-1.59,3.33,3.33,0,0,0-1.44-1,6.52,6.52,0,0,0-2.37-.37" transform="translate(-76.51 -30.88)"/><path class="cls-4" d="M200.75,55a10.61,10.61,0,0,0,2.15-.26,10.89,10.89,0,0,0,1.78-.59c.26-.11.4-.15.52-.11s.18.15.26.33l.85,1.93a.54.54,0,0,1-.22.85,9.21,9.21,0,0,1-3,1,17.71,17.71,0,0,1-3,.26,7.23,7.23,0,0,1-5.75-2.3q-2-2.28-2-6.78a12.36,12.36,0,0,1,.56-3.82,8.48,8.48,0,0,1,1.63-3,7.07,7.07,0,0,1,2.56-1.89,8.08,8.08,0,0,1,3.37-.67,12.34,12.34,0,0,1,2.67.3,8.65,8.65,0,0,1,2.4.89c.23.11.34.22.37.33a.76.76,0,0,1-.11.52l-.85,2a.52.52,0,0,1-.3.34.94.94,0,0,1-.55-.11,13.36,13.36,0,0,0-1.67-.52,7.33,7.33,0,0,0-1.85-.22,3.65,3.65,0,0,0-2,.48,3.74,3.74,0,0,0-1.33,1.29,6,6,0,0,0-.74,1.86,10.47,10.47,0,0,0-.22,2.18,10.1,10.1,0,0,0,.22,2.19,5,5,0,0,0,.7,1.78,3.58,3.58,0,0,0,1.34,1.22,3.9,3.9,0,0,0,2.11.48" transform="translate(-76.51 -30.88)"/><path class="cls-4" d="M223.17,49.17A10.23,10.23,0,0,1,221.09,56c-1.37,1.6-3.41,2.41-6.15,2.41s-4.74-.78-6-2.33-2-3.82-2-6.82a12.73,12.73,0,0,1,.59-3.93,8.58,8.58,0,0,1,1.67-2.89,6.91,6.91,0,0,1,2.56-1.78,8.5,8.5,0,0,1,3.29-.63,7.43,7.43,0,0,1,6,2.45c1.45,1.59,2.12,3.81,2.12,6.67m-4,.11A15.32,15.32,0,0,0,219,47a6.19,6.19,0,0,0-.63-1.89,3.35,3.35,0,0,0-1.26-1.3,4.07,4.07,0,0,0-2-.48,3.88,3.88,0,0,0-1.89.45A4.09,4.09,0,0,0,211.9,45a5,5,0,0,0-.78,1.85,9.7,9.7,0,0,0-.26,2.34,9.27,9.27,0,0,0,.89,4.41A3.36,3.36,0,0,0,215,55.17a3.61,3.61,0,0,0,2-.48,3.68,3.68,0,0,0,1.3-1.3,5.55,5.55,0,0,0,.7-1.89,8.44,8.44,0,0,0,.26-2.22" transform="translate(-76.51 -30.88)"/><path class="cls-5" d="M170.11,85.07a1.13,1.13,0,0,1-.63,1.11,10.37,10.37,0,0,1-1.6.56,15.92,15.92,0,0,1-1.77.37c-.6.07-1.23.15-1.78.18s-1.19,0-1.71,0a13.19,13.19,0,0,1-3.7-.44,6.16,6.16,0,0,1-2.34-1.23,4.22,4.22,0,0,1-1.18-1.81,7,7,0,0,1-.34-2.15,6.79,6.79,0,0,1,.41-2.3,4.7,4.7,0,0,1,1.26-1.92,6.19,6.19,0,0,1,2.3-1.34,10.23,10.23,0,0,1,3.41-.52h3.74v-.55a6.5,6.5,0,0,0-.11-1.19,2.32,2.32,0,0,0-.52-.93,2.41,2.41,0,0,0-1.07-.59,6,6,0,0,0-1.78-.22,15.53,15.53,0,0,0-2.52.22,9.35,9.35,0,0,0-2.19.48.82.82,0,0,1-.52,0c-.11,0-.18-.15-.22-.37l-.48-1.93c-.08-.37,0-.59.3-.7a15.54,15.54,0,0,1,3.11-.78,24.31,24.31,0,0,1,3.18-.22c2.34,0,4,.52,5.15,1.56A5.86,5.86,0,0,1,170.14,75V85.07Zm-4-6.41h-3.26c-.37,0-.78,0-1.22.07a3.82,3.82,0,0,0-1.26.38,2.77,2.77,0,0,0-1,.88,2.85,2.85,0,0,0-.37,1.6,2.2,2.2,0,0,0,1,2,5.28,5.28,0,0,0,2.59.59,4.71,4.71,0,0,0,.67,0,8.89,8.89,0,0,0,.89-.07c.3,0,.67-.11,1-.19a5.54,5.54,0,0,0,1-.26Z" transform="translate(-76.51 -30.88)"/><path class="cls-5" d="M195.34,85.07a1.13,1.13,0,0,1-.63,1.11,10.62,10.62,0,0,1-1.59.56,16.58,16.58,0,0,1-1.78.37c-.63.07-1.22.15-1.82.18s-1.18,0-1.7,0a13.46,13.46,0,0,1-3.71-.44,5.76,5.76,0,0,1-2.33-1.23,4.24,4.24,0,0,1-1.19-1.81,7,7,0,0,1-.33-2.15,6.79,6.79,0,0,1,.41-2.3,4.6,4.6,0,0,1,1.26-1.92,6.48,6.48,0,0,1,2.29-1.34,10.28,10.28,0,0,1,3.41-.52h3.78v-.55a3.89,3.89,0,0,0-.15-1.19,1.91,1.91,0,0,0-.51-.93,2.39,2.39,0,0,0-1.08-.59,5.73,5.73,0,0,0-1.78-.22,14.8,14.8,0,0,0-2.48.22,9.35,9.35,0,0,0-2.19.48.79.79,0,0,1-.51,0c-.12,0-.19-.15-.26-.37L182,70.58c-.11-.37,0-.59.3-.7a16.26,16.26,0,0,1,3.11-.78,24.45,24.45,0,0,1,3.19-.22c2.33,0,4.08.52,5.15,1.56A6,6,0,0,1,195.34,75V85.07Zm-4-6.41h-3.27c-.4,0-.81,0-1.22.07a3.82,3.82,0,0,0-1.26.38,2.57,2.57,0,0,0-1,.88,2.85,2.85,0,0,0-.37,1.6,2.14,2.14,0,0,0,1,2,5.18,5.18,0,0,0,2.6.59,4.71,4.71,0,0,0,.67,0c.25,0,.59,0,.88-.07s.63-.11,1-.19a5.79,5.79,0,0,0,1-.26v-5Z" transform="translate(-76.51 -30.88)"/><path class="cls-5" d="M222.94,68.84c2.6,0,4.52.67,5.78,2a7.65,7.65,0,0,1,1.86,5.49,4.26,4.26,0,0,1-.23,1.48,2.14,2.14,0,0,1-.55.89,2.21,2.21,0,0,1-.85.48,3.36,3.36,0,0,1-1.08.15h-9a6.08,6.08,0,0,0,.4,2.22,4.34,4.34,0,0,0,1,1.45,3.73,3.73,0,0,0,1.49.77,7.32,7.32,0,0,0,1.85.23,9.9,9.9,0,0,0,2.11-.26,14.14,14.14,0,0,0,1.82-.63c.33-.15.59-.11.74.18l.92,1.93c.15.37.08.63-.22.78a7.94,7.94,0,0,1-2.82,1.07,15.51,15.51,0,0,1-2.89.3,8.45,8.45,0,0,1-6.26-2.19c-1.44-1.44-2.18-3.78-2.18-7a11.81,11.81,0,0,1,.63-4,8.32,8.32,0,0,1,1.66-2.93,6.72,6.72,0,0,1,2.56-1.81,7.1,7.1,0,0,1,3.22-.67m0,3.26a3.4,3.4,0,0,0-1.63.37,3.88,3.88,0,0,0-1.22,1,5.47,5.47,0,0,0-.82,1.37,4.83,4.83,0,0,0-.33,1.63h7.78a8.46,8.46,0,0,0-.18-1.71,3.61,3.61,0,0,0-.6-1.37,2.7,2.7,0,0,0-1.15-.92A4.1,4.1,0,0,0,223,72.1" transform="translate(-76.51 -30.88)"/><path class="cls-5" d="M263.63,85.07a1.12,1.12,0,0,1-.67,1.11,9.24,9.24,0,0,1-1.59.56,16.58,16.58,0,0,1-1.78.37c-.63.07-1.22.15-1.82.18s-1.18,0-1.7,0a13.46,13.46,0,0,1-3.71-.44A6.34,6.34,0,0,1,250,85.66a4.24,4.24,0,0,1-1.19-1.81,7,7,0,0,1-.33-2.15,5.94,5.94,0,0,1,.41-2.3,4.6,4.6,0,0,1,1.26-1.92,6.25,6.25,0,0,1,2.26-1.34,10.25,10.25,0,0,1,3.44-.52h3.78v-.55a3.89,3.89,0,0,0-.15-1.19A2,2,0,0,0,259,73a2.39,2.39,0,0,0-1.08-.59,5.63,5.63,0,0,0-1.74-.22,15.63,15.63,0,0,0-2.52.22,9.35,9.35,0,0,0-2.19.48.91.91,0,0,1-.55,0c-.11,0-.19-.15-.22-.37l-.49-1.93c-.11-.37,0-.59.3-.7a15,15,0,0,1,3.11-.78,24.45,24.45,0,0,1,3.19-.22c2.33,0,4.08.52,5.15,1.56A6,6,0,0,1,263.59,75V85.07Zm-4-6.41h-3.27c-.37,0-.77,0-1.22.07a3.82,3.82,0,0,0-1.26.38,2.88,2.88,0,0,0-1,.88,2.85,2.85,0,0,0-.37,1.6,2.2,2.2,0,0,0,1,2,5.18,5.18,0,0,0,2.6.59,4.71,4.71,0,0,0,.67,0,8.69,8.69,0,0,0,.88-.07,9,9,0,0,0,1-.19,7.11,7.11,0,0,0,1-.26v-5Z" transform="translate(-76.51 -30.88)"/><path class="cls-5" d="M155.69,63.47a.73.73,0,0,0-.59-.19h-9.52a6.43,6.43,0,0,0-2.85.52,4.78,4.78,0,0,0-2.86,3.3,9.53,9.53,0,0,0-.29,2.3V86.29c0,.3.07.49.18.56a1.34,1.34,0,0,0,.59.15h1.08a2.31,2.31,0,0,0,2.26-2.63V76.59h10.15c.3,0,.48-.08.56-.23a1.32,1.32,0,0,0,.11-.59V73.84a1.25,1.25,0,0,0-.11-.63.67.67,0,0,0-.56-.18H143.69V69.14a2.18,2.18,0,0,1,.56-1.63A2.3,2.3,0,0,1,146,67h9.08a.67.67,0,0,0,.56-.18.83.83,0,0,0,.15-.6V64.1a1,1,0,0,0-.12-.63" transform="translate(-76.51 -30.88)"/><path class="cls-5" d="M213,74.29a8,8,0,0,0-1.4-2.89,6,6,0,0,0-2.41-1.89,7.86,7.86,0,0,0-3.49-.67,14.49,14.49,0,0,0-2.07.15,16.26,16.26,0,0,0-2.15.44l0-6.55c0-.3,0-.45-.14-.52a.8.8,0,0,0-.52-.11h-1.08a2.28,2.28,0,0,0-2.22,2.55V85.33a1.24,1.24,0,0,0,.11.52.91.91,0,0,0,.41.3,12.21,12.21,0,0,0,3.33.92,23.32,23.32,0,0,0,3.56.3,9.26,9.26,0,0,0,3.85-.71,7.07,7.07,0,0,0,2.67-2,8.41,8.41,0,0,0,1.56-3,13.59,13.59,0,0,0,.48-3.74,13.94,13.94,0,0,0-.45-3.63m-3.92,6.56a4.72,4.72,0,0,1-1,1.81,3.45,3.45,0,0,1-1.48,1,5.29,5.29,0,0,1-1.93.3,10.53,10.53,0,0,1-1.55-.08,6.64,6.64,0,0,1-1.71-.33V72.77a11.78,11.78,0,0,1,2.08-.45c.67-.07,1.18-.11,1.52-.11a3.76,3.76,0,0,1,3.18,1.49,6.94,6.94,0,0,1,1.15,4.41,8.63,8.63,0,0,1-.29,2.74" transform="translate(-76.51 -30.88)"/><path class="cls-5" d="M239.28,86.18l-.22-1.89a.71.71,0,0,0-.15-.37.56.56,0,0,0-.37,0c-.15,0-.37,0-.59.07a3.5,3.5,0,0,1-.63,0,1.13,1.13,0,0,1-.93-.34,2.18,2.18,0,0,1-.22-1.18V62.84a.63.63,0,0,0-.15-.48.91.91,0,0,0-.52-.11h-1.11a2.26,2.26,0,0,0-2.22,2.44V83.37a4.23,4.23,0,0,0,.89,3.07,3.8,3.8,0,0,0,2.78.89c.44,0,1,0,1.52-.07a6.41,6.41,0,0,0,1.55-.37,1,1,0,0,0,.41-.3,2.26,2.26,0,0,0,0-.41" transform="translate(-76.51 -30.88)"/><path class="cls-5" d="M248,86.18l-.22-1.89a.71.71,0,0,0-.15-.37.6.6,0,0,0-.37,0c-.15,0-.37,0-.59.07a3.5,3.5,0,0,1-.63,0,1.13,1.13,0,0,1-.93-.34,2.18,2.18,0,0,1-.22-1.18V62.84a.63.63,0,0,0-.15-.48.78.78,0,0,0-.52-.11H243.1a2.28,2.28,0,0,0-2.22,2.59V83.37a4.19,4.19,0,0,0,.89,3.07,3.8,3.8,0,0,0,2.78.89c.44,0,1,0,1.55-.07a6.51,6.51,0,0,0,1.52-.37,1.11,1.11,0,0,0,.41-.3,1.53,1.53,0,0,1-.08-.41" transform="translate(-76.51 -30.88)"/><path class="cls-5" d="M179.74,86.18l-.22-1.89a.81.81,0,0,0-.15-.37.7.7,0,0,0-.41,0c-.15,0-.37,0-.59.07a3.5,3.5,0,0,1-.63,0,1,1,0,0,1-.89-.34,1.81,1.81,0,0,1-.26-1.18V62.84c0-.26,0-.41-.15-.48a.85.85,0,0,0-.52-.11h-1.11c-.74,0-2.22.44-2.22,2.63V83.4a4.24,4.24,0,0,0,.89,3.08,3.8,3.8,0,0,0,2.78.89c.44,0,1,0,1.52-.08a5.84,5.84,0,0,0,1.52-.37,1,1,0,0,0,.4-.29c.08-.08.08-.23,0-.45" transform="translate(-76.51 -30.88)"/></svg>