<svg id="Banco_Ripley" data-name="Banco Ripley" xmlns="http://www.w3.org/2000/svg" viewBox="0 0 192.13 38.58"><defs><style>.cls-1,.cls-2{fill:#300e71;}.cls-1,.cls-3,.cls-4,.cls-5{fill-rule:evenodd;}.cls-3{fill:#f01721;}.cls-4{fill:#ef9f32;}.cls-5{fill:#742683;}</style></defs><path class="cls-1" d="M90,55.42A5.74,5.74,0,0,0,92.24,55a5,5,0,0,0,1.7-1.16A5.09,5.09,0,0,0,95,52.06a6.66,6.66,0,0,0,.38-2.33A6.86,6.86,0,0,0,95,47.4a5.19,5.19,0,0,0-1.1-1.79,4.79,4.79,0,0,0-1.7-1.15A5.74,5.74,0,0,0,90,44.05a7.3,7.3,0,0,0-1.14.09l-1,.16-1,.28v10.3c.34.1.69.18,1,.25a5.26,5.26,0,0,0,1,.21A8.59,8.59,0,0,0,90,55.42Zm-3.2-14.75,1-.28c.31-.07.66-.13,1-.18A8.36,8.36,0,0,1,90,40.14a10.69,10.69,0,0,1,4,.74,9.6,9.6,0,0,1,3.13,2,9,9,0,0,1,2,3,10,10,0,0,1,0,7.5,9.13,9.13,0,0,1-2,3.05,9.44,9.44,0,0,1-3.13,2,10.5,10.5,0,0,1-4,.74,16.26,16.26,0,0,1-2.82-.24c-.82-.15-1.64-.34-2.44-.57a17.13,17.13,0,0,1-2.32-.79V33.9a.15.15,0,0,1,.14-.16h4.09a.15.15,0,0,1,.14.16h0v6.77Z" transform="translate(-82.46 -33.12)"/><path class="cls-1" d="M156,57.17a.16.16,0,0,1,0,.2,8.86,8.86,0,0,1-1.58,1,11.63,11.63,0,0,1-2,.75,9.38,9.38,0,0,1-2.56.32,10.5,10.5,0,0,1-4-.75,9.57,9.57,0,0,1-3.13-2,9,9,0,0,1-2-3.06,10,10,0,0,1,0-7.49,9,9,0,0,1,2-3.06,9.57,9.57,0,0,1,3.13-2,10.5,10.5,0,0,1,4-.75,9.49,9.49,0,0,1,2.49.3,13.07,13.07,0,0,1,1.93.66,12.39,12.39,0,0,1,1.53.92.15.15,0,0,1,.05.2l-1.54,2.93a.14.14,0,0,1-.19.06h0a8.5,8.5,0,0,0-1-.55,8.22,8.22,0,0,0-1.3-.42,6.37,6.37,0,0,0-1.63-.18,5.5,5.5,0,0,0-2.26.46,6.12,6.12,0,0,0-1.82,1.24,5.91,5.91,0,0,0-1.21,1.82,5.53,5.53,0,0,0-.44,2.16,5.69,5.69,0,0,0,1.65,4A5.91,5.91,0,0,0,148,55.05a5.71,5.71,0,0,0,2.26.46,6.66,6.66,0,0,0,3.07-.71,8.19,8.19,0,0,0,1-.61.14.14,0,0,1,.2,0,0,0,0,0,1,0,0L156,57.17Z" transform="translate(-82.46 -33.12)"/><path class="cls-1" d="M170.58,49.82a6.6,6.6,0,0,0-.39-2.32,5.5,5.5,0,0,0-1-1.8,4.61,4.61,0,0,0-5.36-1.15,4.48,4.48,0,0,0-1.54,1.15,5.69,5.69,0,0,0-1.05,1.8,6.54,6.54,0,0,0-.39,2.32,6.62,6.62,0,0,0,.39,2.33,5.53,5.53,0,0,0,1.05,1.8,4.6,4.6,0,0,0,5.35,1.15A4.62,4.62,0,0,0,169.15,54a5.49,5.49,0,0,0,1-1.8,6.62,6.62,0,0,0,.39-2.33m-14.31,0A9.71,9.71,0,0,1,159,43a9.29,9.29,0,0,1,6.72-2.79,9.22,9.22,0,0,1,8.72,5.84,10.26,10.26,0,0,1,0,7.5,9.34,9.34,0,0,1-2,3.06,9.08,9.08,0,0,1-3,2,9.44,9.44,0,0,1-3.75.75A9.26,9.26,0,0,1,159,56.63a9.4,9.4,0,0,1-2-3.06,9.82,9.82,0,0,1-.73-3.75" transform="translate(-82.46 -33.12)"/><path class="cls-1" d="M192.93,44.14a4.94,4.94,0,0,0-1.1.12l-.89.23c-.31.13-.6.26-.87.4V58.55a.15.15,0,0,1-.15.15h-4.08a.14.14,0,0,1-.15-.15h0V41.83a15.11,15.11,0,0,1,2.05-.82,18.94,18.94,0,0,1,2.22-.55,14.47,14.47,0,0,1,2.63-.23,11.49,11.49,0,0,1,2.28.21,12.76,12.76,0,0,1,1.8.5,12.13,12.13,0,0,1,1.53.65.17.17,0,0,1,.08.19l-1.08,3.44a.15.15,0,0,1-.22.09,7.82,7.82,0,0,0-1-.54,9,9,0,0,0-1.36-.44,6.52,6.52,0,0,0-1.7-.19" transform="translate(-82.46 -33.12)"/><path class="cls-1" d="M200.63,40.94h4.08a.15.15,0,0,1,.15.15V58.55a.15.15,0,0,1-.15.15h-4a.22.22,0,0,1-.22-.22h0V41.09a.15.15,0,0,1,.15-.15M200,35.79a2.7,2.7,0,0,1,5.39,0,2.57,2.57,0,0,1-.78,1.86,2.7,2.7,0,0,1-3.84,0,2.56,2.56,0,0,1-.77-1.86" transform="translate(-82.46 -33.12)"/><path class="cls-1" d="M216.23,44.05a9,9,0,0,0-1.15.08l-1,.17c-.36.09-.71.18-1,.28v10.3a10.54,10.54,0,0,0,1,.25,5.36,5.36,0,0,0,1,.21,8.47,8.47,0,0,0,1.13.08,6,6,0,0,0,2.21-.41,4.94,4.94,0,0,0,1.7-1.16,5.22,5.22,0,0,0,1.09-1.79,7.16,7.16,0,0,0,0-4.66,5.23,5.23,0,0,0-1.09-1.79,5,5,0,0,0-1.7-1.16,5.8,5.8,0,0,0-2.21-.4m-3.35,21.31H208.8a.15.15,0,0,1-.15-.15V41.84a.16.16,0,0,1,.09-.14,22.67,22.67,0,0,1,2.23-.78,23.91,23.91,0,0,1,2.48-.55,15.65,15.65,0,0,1,2.78-.23,10.69,10.69,0,0,1,4,.74,9.79,9.79,0,0,1,3.14,2,9.35,9.35,0,0,1,2,3.06,9.61,9.61,0,0,1,.73,3.75,9.86,9.86,0,0,1-.73,3.75,9.21,9.21,0,0,1-2,3.05,9.64,9.64,0,0,1-3.14,2,10.5,10.5,0,0,1-4,.75,7.55,7.55,0,0,1-1.15-.1l-1-.15-1-.29v6.42a.15.15,0,0,1-.15.15" transform="translate(-82.46 -33.12)"/><path class="cls-1" d="M229.49,58.7a.15.15,0,0,1-.15-.15V34a.16.16,0,0,1,.15-.16h4.09a.15.15,0,0,1,.15.16V58.55a.15.15,0,0,1-.15.15h0" transform="translate(-82.46 -33.12)"/><line class="cls-2" x1="151.12" y1="25.58" x2="147.03" y2="25.58"/><path class="cls-1" d="M249.65,48.13a5.2,5.2,0,0,0-1.41-2.91,3.92,3.92,0,0,0-5.61,0,5.17,5.17,0,0,0-1.44,2.91Zm2.47,3.73H241.19A6,6,0,0,0,243,54.37a5.51,5.51,0,0,0,3.64,1,7,7,0,0,0,1.82-.21,6.91,6.91,0,0,0,1.38-.5,5.48,5.48,0,0,0,1-.61.15.15,0,0,1,.2,0l0,0,1.54,2.92a.16.16,0,0,1,0,.2,9.25,9.25,0,0,1-1.65,1,11.3,11.3,0,0,1-2,.74,9.57,9.57,0,0,1-2.61.32,10.83,10.83,0,0,1-4-.72,9.28,9.28,0,0,1-3.08-2,8.85,8.85,0,0,1-2-3,10.37,10.37,0,0,1-.69-3.82,11,11,0,0,1,.66-3.89,9,9,0,0,1,1.85-3,8.3,8.3,0,0,1,2.83-2,9.68,9.68,0,0,1,7.18,0,8.25,8.25,0,0,1,2.83,2,9,9,0,0,1,1.85,3,11.09,11.09,0,0,1,.66,3.82.18.18,0,0,1-.05.12l-2.1,2a.13.13,0,0,1-.1,0Z" transform="translate(-82.46 -33.12)"/><path class="cls-1" d="M273.94,57.17a7.51,7.51,0,0,1-.64,3.07,7.65,7.65,0,0,1-1.88,2.62,9.45,9.45,0,0,1-3,1.81,11.33,11.33,0,0,1-4.06.67,10.42,10.42,0,0,1-2.73-.33,13.51,13.51,0,0,1-2.05-.73,8.75,8.75,0,0,1-1.79-1.07l1.61-3.06a.15.15,0,0,1,.19-.06h0a10.38,10.38,0,0,0,1.25.63,9.79,9.79,0,0,0,1.55.49,7.81,7.81,0,0,0,1.95.22,5.34,5.34,0,0,0,2.75-.61,5,5,0,0,0,1.56-1.35,5.3,5.3,0,0,0,.91-1.95v-.36c-.4.07-.81.13-1.21.18s-.79.09-1.21.12-.86.06-1.28.06a10.88,10.88,0,0,1-3.81-.61,8.21,8.21,0,0,1-2.8-1.67,6.85,6.85,0,0,1-1.73-2.52,8.53,8.53,0,0,1-.59-3.2V40.28a.16.16,0,0,1,.15-.16h4.08a.16.16,0,0,1,.15.16v9.25a3.92,3.92,0,0,0,1.2,2.92,4.57,4.57,0,0,0,3.35,1.17,10,10,0,0,0,1.36-.09c.44-.06.84-.12,1.2-.19s.78-.16,1.14-.25V40.28a.16.16,0,0,1,.15-.16h4.08a.16.16,0,0,1,.15.16V57.17Z" transform="translate(-82.46 -33.12)"/><path class="cls-1" d="M120.7,58.38V42.06a.33.33,0,0,1,.2-.31c.79-.28,1.59-.53,2.39-.74s1.71-.39,2.64-.55a18.25,18.25,0,0,1,2.85-.23,11.22,11.22,0,0,1,3.82.6,8,8,0,0,1,2.8,1.67A7.2,7.2,0,0,1,137.12,45a8.47,8.47,0,0,1,.58,3.19V58.38a.31.31,0,0,1-.3.32h-3.77a.31.31,0,0,1-.3-.32V48.22a3.9,3.9,0,0,0-1.2-2.91,4.59,4.59,0,0,0-3.35-1.17,7.56,7.56,0,0,0-1.36.12l-1.22.24c-.32.1-.63.21-.92.32a.28.28,0,0,0-.2.3V58.38a.32.32,0,0,1-.31.32H121a.32.32,0,0,1-.3-.32" transform="translate(-82.46 -33.12)"/><path class="cls-1" d="M113.5,54.85a11,11,0,0,1-1.18.25c-.36.07-.77.14-1.22.2a12.08,12.08,0,0,1-1.47.09,4.89,4.89,0,0,1-3-.7,1.95,1.95,0,0,1,0-3.23,5,5,0,0,1,3-.69c.51,0,1,0,1.45,0s.86.08,1.24.13.82.1,1.18.17Zm4.38-6.92a7.71,7.71,0,0,0-2.09-5.72c-1.39-1.4-3.45-2.1-6.16-2.1a10.78,10.78,0,0,0-2.68.29,11.33,11.33,0,0,0-2,.67,9.44,9.44,0,0,0-1.57.91.17.17,0,0,0,0,.21l1.55,2.94a.15.15,0,0,0,.2.06,9,9,0,0,1,1.22-.57c.43-.14.93-.28,1.5-.41a8.36,8.36,0,0,1,1.87-.19,4.26,4.26,0,0,1,3,.85,3.06,3.06,0,0,1,.92,2.35,10.68,10.68,0,0,0-1.11-.18c-.41,0-.83-.1-1.24-.13s-1,0-1.52,0a13.28,13.28,0,0,0-3.81.48,7.78,7.78,0,0,0-2.61,1.3,4.91,4.91,0,0,0-1.51,2,6.11,6.11,0,0,0-.49,2.49,6.22,6.22,0,0,0,.49,2.47,4.88,4.88,0,0,0,1.51,2,7.78,7.78,0,0,0,2.61,1.3,13.28,13.28,0,0,0,3.81.48,25.24,25.24,0,0,0,3.1-.18c.82-.1,1.64-.23,2.45-.39l2.7-2.52Z" transform="translate(-82.46 -33.12)"/><path class="cls-3" d="M256.56,71.7H174.11c-.75,0-1.35-.12-1.35-.27V66.38c0-.15.6-.27,1.35-.27h82.45c.75,0,1.35.12,1.35.27v5.05c0,.15-.6.27-1.35.27" transform="translate(-82.46 -33.12)"/><path class="cls-4" d="M273.62,71.7H231.38c-.67,0-1.21-.26-1.21-.57V66.67c0-.31.54-.56,1.21-.56h42.24" transform="translate(-82.46 -33.12)"/><path class="cls-5" d="M273.23,71.7H244.79c-.75,0-1.35-.12-1.35-.27V66.38c0-.15.6-.27,1.35-.27h28.44c.75,0,1.35.12,1.35.27v5.05c0,.15-.6.27-1.35.27" transform="translate(-82.46 -33.12)"/></svg>