<svg id="Banco_Nacional" data-name="Banco Nacional" xmlns="http://www.w3.org/2000/svg" viewBox="0 0 197.2 76.19"><defs><style>.cls-1{fill:#1f3d8f;}.cls-2{fill:#c2cc28;}</style></defs><path class="cls-1" d="M124.45,40.23A1.17,1.17,0,0,1,125.71,39h10.75c3.21,0,6.84,1.39,6.84,5.16a3.53,3.53,0,0,1-2,3.35A4.78,4.78,0,0,1,144.13,52c0,3.63-3.49,5.58-7.12,5.58h-11.3a1.25,1.25,0,0,1-1.26-1.26V40.23Zm4.89,2.1v3.76h7.12a1.68,1.68,0,0,0,1.81-1.81,1.88,1.88,0,0,0-1.81-2Zm0,7.11v4.61H137A1.87,1.87,0,0,0,139,52c0-1.54-.56-2.52-2-2.52Z" transform="translate(-77.99 -19.76)"/><path class="cls-1" d="M167.16,57.54a1.17,1.17,0,0,1-1.25-1.26V40.23A1.1,1.1,0,0,1,167.16,39h3.63a2.24,2.24,0,0,1,2,1.25l7.82,11.87V40.23A1.17,1.17,0,0,1,181.82,39h2.23a1.17,1.17,0,0,1,1.26,1.25V56.28a1.25,1.25,0,0,1-1.26,1.26h-4.47a2.36,2.36,0,0,1-1.67-1.26l-7.4-11.16V56.28a1.14,1.14,0,0,1-1.11,1.26Z" transform="translate(-77.99 -19.76)"/><path class="cls-1" d="M196.05,38.7H199c3.63,0,7.68,1.95,7.68,5.86a1.5,1.5,0,0,1-1.54,1.53h-1.53c-.7,0-1.4-.55-2-1.53a2.92,2.92,0,0,0-3.08-2.23h-2.23c-3.91,0-4.88,1.53-4.88,5.86s1,5.72,4.88,5.72h2.37A3.08,3.08,0,0,0,201.91,52c.56-1.26,1.26-1.54,2-1.54h1.53A1.42,1.42,0,0,1,206.8,52c0,3.63-3.91,5.58-7.54,5.58h-3.21c-6.42,0-9.49-2.93-9.49-9.35s3.07-9.49,9.49-9.49Z" transform="translate(-77.99 -19.76)"/><path class="cls-1" d="M217.41,38.7c6.28,0,10.05,2.65,10.05,9.49s-3.77,9.35-10.05,9.35c-6.7,0-10.33-2.65-10.33-9.35s3.63-9.49,10.33-9.49ZM212,48.19c0,3.77,1.54,5.86,5.45,5.86s5.3-2.09,5.3-5.86-1.4-6-5.3-6-5.45,2.09-5.45,6Z" transform="translate(-77.99 -19.76)"/><path class="cls-1" d="M125.71,79.73a1.17,1.17,0,0,1-1.26-1.25V62.42a1.25,1.25,0,0,1,1.26-1.25h3.91a2,2,0,0,1,1.67,1.25l8,12V62.15c0-.42.7-1,1.11-1h2.52a1.47,1.47,0,0,1,1.25,1.25V78.48a1.33,1.33,0,0,1-1.25,1.25h-4.47a2.42,2.42,0,0,1-1.95-1.25l-7.12-11.17V78.48a1.23,1.23,0,0,1-1.12,1.25Z" transform="translate(-77.99 -19.76)"/><path class="cls-1" d="M175.4,60.89h3.07c3.35,0,7.25,2,7.25,5.72a1.35,1.35,0,0,1-1.25,1.4h-1.68c-.69,0-1.25-.28-1.67-1.4a3.42,3.42,0,0,0-3.21-2H175.4c-3.63,0-4.61,1.39-4.61,5.58s1,5.86,4.61,5.86h2.79c1.39,0,2.37-1,3.21-2.23a1.7,1.7,0,0,1,1.67-1.26h1.68A1.12,1.12,0,0,1,186,73.87c0,3.91-3.9,5.86-7.39,5.86H175.4c-6.28,0-9.49-2.93-9.49-9.49s3.21-9.35,9.49-9.35Z" transform="translate(-77.99 -19.76)"/><path class="cls-1" d="M187.26,62.42a1.17,1.17,0,0,1,1.26-1.25h2.37a1.24,1.24,0,0,1,1.25,1.25V78.48a1.16,1.16,0,0,1-1.25,1.25h-2.37a1.11,1.11,0,0,1-1.26-1.25V62.42Z" transform="translate(-77.99 -19.76)"/><path class="cls-1" d="M203.45,60.89c6.28,0,10.05,2.79,10.05,9.35,0,6.84-3.77,9.49-10.05,9.49s-10.33-2.65-10.33-9.49c0-6.56,3.91-9.35,10.33-9.35ZM198,70.24c0,3.91,1.53,6.14,5.44,6.14s5.3-2.23,5.3-6.14-1.39-5.86-5.3-5.86-5.44,2-5.44,5.86Z" transform="translate(-77.99 -19.76)"/><path class="cls-1" d="M216.71,79.73a1.11,1.11,0,0,1-1.26-1.25V62.42a1.17,1.17,0,0,1,1.26-1.25h3.91c.42,0,1.11.56,1.67,1.25l7.82,12V62.15a1.24,1.24,0,0,1,1.25-1h2.24a1.14,1.14,0,0,1,1.11,1.25V78.48c0,.83-.42,1.25-1.11,1.25h-4.19a2.24,2.24,0,0,1-1.95-1.25l-7.4-11.17V78.48a1.11,1.11,0,0,1-1.26,1.25Z" transform="translate(-77.99 -19.76)"/><path class="cls-1" d="M261.51,61.17a1.25,1.25,0,0,1,1.26,1.25V76.1h11.16a1.11,1.11,0,0,1,1.26,1.26v1.12a1.11,1.11,0,0,1-1.26,1.25H259c-.7,0-1.12-.42-1.12-1.25V62.42A1.14,1.14,0,0,1,259,61.17Z" transform="translate(-77.99 -19.76)"/><path class="cls-1" d="M165.21,56.28l-2.93-12.42c-1-4.19-4.47-5.16-7.68-5.16s-6.84,1-7.82,5.16l-2.93,12.42a.9.9,0,0,0,.7,1.26h2.51a1.48,1.48,0,0,0,1.26-1.26l.7-3.21h10.74l1,3.21A1.35,1.35,0,0,0,162,57.54h2.37a1,1,0,0,0,.84-1.26Zm-10.33-7.11h-5.16c.79-2.57,1.25-6.84,4.6-6.84,3.66,0,3.81,4.1,4.47,6.84Z" transform="translate(-77.99 -19.76)"/><path class="cls-1" d="M165.91,78.48,163,66.05c-1-4.18-4.18-4.88-7.67-4.88-3.07,0-6.56.7-7.54,4.88l-2.93,12.43a.94.94,0,0,0,.7,1.25H148c.42,0,1-.7,1.26-1.25l.69-3.35h10.75l.7,3.35c.28.55.84,1.25,1.53,1.25h2.24a1,1,0,0,0,.7-1.25Zm-10-7.26h-5.17c.77-2.39,1.31-6.56,4.47-6.56h.14c3.43,0,3.66,4,4.46,6.56Z" transform="translate(-77.99 -19.76)"/><path class="cls-1" d="M256.91,78.48l-3.08-12.43c-1-4.18-4-4.88-7.53-4.88s-6.56.7-7.54,4.88l-2.93,12.43a.87.87,0,0,0,.7,1.25h2.23c.7,0,1.12-.7,1.4-1.25l.69-3.35h10.89l.7,3.35a1.49,1.49,0,0,0,1.25,1.25h2.38c.56,0,.84-.7.84-1.25Zm-10.05-7.26h-5.17c.7-2.44,1.07-6.56,4.33-6.56h.28c3.17,0,3.69,4.14,4.46,6.56Z" transform="translate(-77.99 -19.76)"/><path class="cls-2" d="M106.87,19.86,94,24.6a1.54,1.54,0,0,0-.73.82c-.5,2.07-8.68,29.5-14.9,39.24-.59.78-.49,1,0,1.39L82.58,69c.4.33,1.12.2,1.4-.69l13-41a1.26,1.26,0,0,1,1.11-1L102,25a.85.85,0,0,1,1,1s-1.95,10-3.91,25a96.77,96.77,0,0,1-6.66,24.48,1,1,0,0,0,.52,1.34l8.1,6.14a1,1,0,0,0,1.67-.7l5.58-61.41c.1-.88-.53-1.27-1.39-1Z" transform="translate(-77.99 -19.76)"/><path class="cls-2" d="M119.85,94.66c0-.24-3.49-12.53-2.93-24.42V36.74s-1.54-5.3-1.82-6.28c-.2-.8-.42-1-1-1a11.93,11.93,0,0,0-1.3.18,1,1,0,0,0-.8.93l-3.21,57.64a1.31,1.31,0,0,0,.51,1.32l8.84,6.08c1,.69,1.86.16,1.68-1Z" transform="translate(-77.99 -19.76)"/></svg>