<svg id="Banco_Pichincha_S.A." data-name="Banco Pichincha S.A." xmlns="http://www.w3.org/2000/svg" viewBox="0 0 239.5 50.39"><defs><style>.cls-1{fill:#f3dd16;}.cls-2{fill:#182f54;}</style></defs><path class="cls-1" d="M57.71,33.88h50V84.15h-34s-13.22-.14-16-14.82Z" transform="translate(-57.71 -33.76)"/><polygon class="cls-2" points="24.99 8.98 41.84 8.98 41.84 25.25 34.29 25.25 34.29 16.1 24.99 16.1 24.99 8.98"/><path class="cls-2" d="M136.6,34.61c4.21.73,4.21,5.08,4.21,5.08.58,2.33-2.18,4.8-2.18,4.8,2.76.73,2.76,4.65,2.76,4.65.29,5.08-5.52,6-5.52,6H124.25V34.61Zm-8,3.63v4.51h6.1s2.13-.49,2-2.26c0,0-.2-2.25-2.23-2.25Zm0,7.85v5.23h5.91s2.71-.34,2.9-2.84a2.46,2.46,0,0,0-2.52-2.39Z" transform="translate(-57.71 -33.76)"/><path class="cls-2" d="M151.18,34.61h4.35l8,20.48h-4.45l-1.65-4.21h-7.94l-1.94,4.21h-4.36Zm2.22,5.88-2.9,6.86h5.81Z" transform="translate(-57.71 -33.76)"/><path class="cls-2" d="M284.82,63.21h4.35l8,20.48h-4.45l-1.65-4.21h-7.94l-1.94,4.21h-4.36ZM287,69.09l-2.9,6.85H290Z" transform="translate(-57.71 -33.76)"/><path class="cls-2" d="M206.09,48.7l2.62,2.62s-2.33,3.77-8.33,3.77c0,0-10.46,1.41-11.33-10.24,0,0-.68-10.48,11.33-11,0,0,5.23-.19,7.84,3.49l-2.9,2.71a6.36,6.36,0,0,0-5.3-2.27s-5.89-.1-6.32,6.7c0,0-.3,6.44,6.46,7C200.16,51.46,204.18,51.75,206.09,48.7Z" transform="translate(-57.71 -33.76)"/><path class="cls-2" d="M170.16,77.44l2.61,2.62s-2.32,3.78-8.33,3.78c0,0-10.46,1.4-11.33-10.25,0,0-.68-10.48,11.33-11,0,0,5.23-.2,7.85,3.48l-2.91,2.71a6.36,6.36,0,0,0-5.3-2.27s-5.89-.1-6.32,6.71c0,0-.29,6.44,6.46,6.94C164.22,80.2,168.24,80.49,170.16,77.44Z" transform="translate(-57.71 -33.76)"/><path class="cls-2" d="M249,77.44l2.62,2.62s-2.33,3.78-8.33,3.78c0,0-10.46,1.4-11.33-10.25,0,0-.68-10.48,11.33-11,0,0,5.23-.2,7.84,3.48l-2.9,2.71a6.36,6.36,0,0,0-5.3-2.27s-5.89-.1-6.32,6.71c0,0-.29,6.44,6.46,6.94C243,80.2,247,80.49,249,77.44Z" transform="translate(-57.71 -33.76)"/><path class="cls-2" d="M221.81,51.49a6.83,6.83,0,1,1,6.83-6.83A6.83,6.83,0,0,1,221.81,51.49Zm10.9-6.83a10.9,10.9,0,1,0-10.9,10.9A10.9,10.9,0,0,0,232.71,44.66Z" transform="translate(-57.71 -33.76)"/><rect class="cls-2" x="142.38" y="29.25" width="4" height="20.88"/><rect class="cls-2" x="87.17" y="29.25" width="4" height="20.88"/><path class="cls-2" d="M124.54,83.89V63H135s6.18.8,5.89,7c0,0,.5,5.37-5.74,6.9h-6.54v7Zm4.07-17v6.33h5.16s3-.58,3-3.16c0,0,.21-3-2.62-3.17Z" transform="translate(-57.71 -33.76)"/><path class="cls-2" d="M176.84,63V83.89H181V75.22h9.23v8.67h4V63h-2.68a1.39,1.39,0,0,0-1.31,1.45V71h-9.37V63Z" transform="translate(-57.71 -33.76)"/><path class="cls-2" d="M255.88,63V83.89H260V75.22h9.22v8.67h4V63h-2.69a1.39,1.39,0,0,0-1.31,1.45V71h-9.37V63Z" transform="translate(-57.71 -33.76)"/><path class="cls-2" d="M166.89,55.09V34.61h4.72a2.44,2.44,0,0,1,1.46,1.16l7.84,12.93V34.61h4V55.09h-4.22s-.72.08-1.38-1l-7.92-13v14Z" transform="translate(-57.71 -33.76)"/><path class="cls-2" d="M209.7,83.89V63.4h4.73a2.43,2.43,0,0,1,1.45,1.17l7.84,12.93V63.4h4V83.89h-4.21s-.73.07-1.38-1l-7.92-13v14Z" transform="translate(-57.71 -33.76)"/></svg>