<svg id="Bank_Transfer" data-name="Bank Transfer" xmlns="http://www.w3.org/2000/svg" viewBox="0 0 56.01 57.73"><g id="Layer_1_copy" data-name="Layer 1 copy"><path d="M173.7,75.62H179l.93,3h3.28l-5.1-14.46h-3.48L169.51,78.6h3.18Zm2.65-8.21h0l1.79,5.71H174.5Zm-7.71,6.91a3.38,3.38,0,0,0-2.24-3.51,2.87,2.87,0,0,0,1.77-3c0-1.49-.9-3.7-4.45-3.7h-7V78.6h6.12c3,0,3.74-.5,4.57-1.31A4.2,4.2,0,0,0,168.64,74.32Zm-9-7.67h3.46c1.37,0,2.22.36,2.22,1.55s-.95,1.61-2.14,1.61H159.6Zm3.7,9.45h-3.7V72.24h3.84c1.09,0,2.18.49,2.18,1.75C165.62,75.46,164.77,76.1,163.3,76.1Zm43.17-6,6.24,8.53h-3.88l-4.47-6.34L203,73.71V78.6h-3V64.14h3V70l5.52-5.88h3.9Zm-37,16.55c0-1.38-.33-1.61-.94-1.87A1.77,1.77,0,0,0,169.72,83a2.08,2.08,0,0,0-2.33-2.09h-3.74v7.4h1.52V85.4h1.59c1.15,0,1.21.39,1.21,1.4a5,5,0,0,0,.16,1.49h1.71V88.1C169.51,88,169.51,87.7,169.51,86.62ZM167,84.15h-1.81v-2h1.93c.91,0,1.08.57,1.08,1C168.17,83.87,167.78,84.15,167,84.15Zm5-32.66c0-.33,0-.73,0-1.19a13.44,13.44,0,0,1,.15-1.55,7.44,7.44,0,0,1,.35-1.84,9.43,9.43,0,0,1,.7-2c.15-.34.31-.69.48-1a11.76,11.76,0,0,1,.62-1A12.85,12.85,0,0,1,175.73,41a21.45,21.45,0,0,1,1.76-1.68,23.43,23.43,0,0,1,1.93-1.36,17.9,17.9,0,0,1,1.93-1.08c.62-.34,1.24-.57,1.8-.82.88-.34,1.65-.6,2.29-.79a13.52,13.52,0,0,1-.66-2.07,11.09,11.09,0,0,1-.35-2.39,12.24,12.24,0,0,1,2.23.93,15.9,15.9,0,0,1,1.88,1.2,18.59,18.59,0,0,1,3.07,2.93,2.43,2.43,0,0,1,.24,2.81l-.11.18a18.45,18.45,0,0,1-3,3.84,14.41,14.41,0,0,1-2,1.62c-.37.25-.75.49-1.14.71a9.86,9.86,0,0,1-1.31.61,11.47,11.47,0,0,1,0-1.44c.05-.45.11-.89.18-1.33a13.77,13.77,0,0,1,.66-2.47l.09-.24-.88.11c-.48.11-1.05.18-1.6.34a14,14,0,0,0-1.76.53,19.62,19.62,0,0,0-1.82.76,17.23,17.23,0,0,0-1.73,1,10.39,10.39,0,0,0-1.57,1.31c-.23.24-.5.46-.71.72l-.6.79a8.45,8.45,0,0,0-1,1.62,7.3,7.3,0,0,0-.69,1.6,12.27,12.27,0,0,0-.46,1.43c-.08.45-.16.83-.21,1.15l-.19,1S172,52.15,172,51.49ZM156.7,80.89h6V82.2h-2.24v6.1h-1.54V82.2H156.7V80.89Zm16.25,0-2.64,7.4h1.63l.52-1.53h2.73l.47,1.53h1.68l-2.6-7.4Zm-.08,4.6.95-2.93h0l.92,2.93Zm13.67-29.58c-.61.36-1.23.61-1.78.87-.86.37-1.63.65-2.26.86a14.6,14.6,0,0,1,.73,2,11.37,11.37,0,0,1,.41,2.37,11.45,11.45,0,0,1-2.25-.86,13.89,13.89,0,0,1-1.92-1.14,18.67,18.67,0,0,1-3.16-2.84,2.43,2.43,0,0,1-.32-2.8l.1-.18a18.9,18.9,0,0,1,2.9-3.93,15.61,15.61,0,0,1,1.92-1.68c.37-.25.74-.5,1.12-.74a9.14,9.14,0,0,1,1.29-.65,10,10,0,0,1,0,1.44c0,.45-.08.9-.13,1.34a15,15,0,0,1-.59,2.48l-.09.25.88-.14c.49-.12,1-.21,1.59-.39a12.68,12.68,0,0,0,1.74-.58,17.67,17.67,0,0,0,1.79-.81,16.9,16.9,0,0,0,1.7-1.09,10.41,10.41,0,0,0,1.53-1.35c.23-.25.49-.48.7-.75l.57-.8a8.43,8.43,0,0,0,1-1.66,7.17,7.17,0,0,0,.64-1.62,10,10,0,0,0,.41-1.44c.07-.45.13-.83.19-1.15.11-.65.16-1,.16-1s0,.37.06,1c0,.34,0,.74.07,1.2a12.78,12.78,0,0,1-.09,1.56,8.48,8.48,0,0,1-.3,1.84,10.32,10.32,0,0,1-.64,2l-.45,1c-.17.35-.39.67-.59,1A13.29,13.29,0,0,1,192,51.62a18.73,18.73,0,0,1-1.72,1.73,22.07,22.07,0,0,1-1.88,1.42A18.25,18.25,0,0,1,186.54,55.91Zm6.14,25H198V82.2h-3.72v1.68h3.25v1.3h-3.25V88.3h-1.55Zm-9.82,0h1.44v7.4h-1.54l-3-5.28h0v5.28h-1.44v-7.4h1.63L182.84,86h0V80.89Zm28.87,5.73c0-1.38-.33-1.61-.94-1.87A1.78,1.78,0,0,0,211.94,83a2.08,2.08,0,0,0-2.33-2.09h-3.74v7.4h1.52V85.4H209c1.14,0,1.2.39,1.2,1.4a4.66,4.66,0,0,0,.17,1.49h1.7V88.1C211.73,88,211.73,87.7,211.73,86.62Zm-2.53-2.47h-1.81v-2h1.92c.91,0,1.09.57,1.09,1C210.4,83.87,210,84.15,209.2,84.15Zm-17.7,1.92c0,2.22-2.27,2.42-2.92,2.42-2.7,0-3.16-1.55-3.16-2.48h1.48c0,.42.22,1.2,1.57,1.2.73,0,1.54-.18,1.54-.95,0-.58-.56-.74-1.34-.93l-.79-.18c-1.2-.28-2.35-.55-2.35-2.18,0-.82.44-2.28,2.85-2.28s2.87,1.49,2.88,2.39h-1.48c0-.33-.16-1.11-1.52-1.11-.58,0-1.29.22-1.29.89s.48.7.79.77l1.8.45C190.57,84.32,191.5,84.74,191.5,86.07Zm9,.91h4.1V88.3H199V80.89h5.44v1.32H200.5v1.55h3.61v1.31H200.5ZM187.85,78.6H185V64.15h3.18L194,74.21h0V64.15h2.82V78.6h-3l-5.9-10.3h0V78.6Z" transform="translate(-156.7 -30.76)"/></g></svg>