<svg id="BBVA_Bancomer" data-name="BBVA Bancomer" xmlns="http://www.w3.org/2000/svg" viewBox="0 0 272.34 55.31"><defs><style>.cls-1,.cls-2{fill:#275499;}.cls-1,.cls-3{fill-rule:evenodd;}.cls-3{fill:#fff;}</style></defs><path class="cls-1" d="M161.15,71.05h5.37V62.41c0-2.57,1.4-9.57,6.53-9.57,2.57,0,3,2.57,3,5.14V71.05h5.13V55.88c0-3-1.87-6.3-6.07-6.3-5.36,0-7.7,4-8.63,5.6V50h-5.37v21Z" transform="translate(-32.1 -29.51)"/><path class="cls-1" d="M127.78,56.58v-.24c2.57-.46,5.84-2.33,5.84-6.3,0-5.83-6.3-6.53-11.67-6.53h-7.47V71.05H122c4.43,0,13.07,0,13.07-7.47C135,58.68,131.28,57,127.78,56.58Zm-7.93-10.5H122c4,0,6.3.7,6.3,4.43s-2.57,4.67-6.3,4.67h-2.1Zm2.1,22.4h-2.1V58H122c4.2,0,7.93.93,7.93,5.13C129.88,68.24,125.45,68.48,122,68.48Z" transform="translate(-32.1 -29.51)"/><path class="cls-1" d="M304.44,49.81c-4.43.23-6.3,2.8-7.93,5.6V50.28h-5.14V71.05h5.14V61.48c0-5.6,3-7,7.93-7.24" transform="translate(-32.1 -29.51)"/><path class="cls-1" d="M217.39,49.58c-7.23,0-10.73,4-10.73,11,0,7.23,3.5,11,10.73,11s11-3.73,11-11C228.36,53.54,224.63,49.58,217.39,49.58Zm0,20.07c-4.43,0-5.13-5.14-5.13-9.11,0-3.73.7-9.1,5.13-9.1,4.67,0,5.37,5.37,5.37,9.1C222.76,64.51,222.06,69.65,217.39,69.65Z" transform="translate(-32.1 -29.51)"/><path class="cls-1" d="M203.62,68.48a12.06,12.06,0,0,1-4.2.7c-6.3,0-8.86-5.83-8.86-11,0-3.73,1.4-6.77,4.43-6.77,3.5,0,3.5,3,3.5,5.37h5.6c0-4.2-2.1-7.23-8.87-7.23-7.23,0-10.5,4-10.5,10.26,0,7.71,4.67,11.44,12.6,11.67a14,14,0,0,0,7-1.63l-.7-1.4Z" transform="translate(-32.1 -29.51)"/><path class="cls-1" d="M282.74,69.18c-7.47,0-9.57-6.77-9.57-11h14.7c0-4-1.63-8.63-9.57-8.63-7.7,0-10.26,4.2-10.26,10,0,8.4,5.36,11.9,12.13,11.9a23.9,23.9,0,0,0,7.7-1.4l-.7-1.63A9.82,9.82,0,0,1,282.74,69.18ZM278.3,51.44c3.74,0,4.44,3,4.44,4.67H273.4A4.61,4.61,0,0,1,278.3,51.44Z" transform="translate(-32.1 -29.51)"/><path class="cls-1" d="M231.86,71.05h4.9V62.41c0-2.1.7-9.33,5.37-9.33,2.8,0,3,2.33,3,4.9V71.05h5.14V62.42c0-2.57.7-9.34,5.13-9.34,2.57,0,3,2.1,3,4.43V71.05h5.13V56.81c0-3.5-.94-7-6.07-7a7.68,7.68,0,0,0-7.23,5.13h-.24c0-2.33-1.63-5.13-5.83-5.13A7.59,7.59,0,0,0,237,55.18h-.23v-4.9h-4.9V71.05Z" transform="translate(-32.1 -29.51)"/><rect class="cls-2" width="68.61" height="55.31"/><path class="cls-3" d="M90,47.48c1.4,0,1.63.46,2.33,1.86l5.83,17.51H92.78l-1.17-4.21h-7l-1.4,4.21h-3l6.07-19.37Zm.7,12.36H85.31L88.11,51Zm-30.34,7H52.17V47.48h8.4c4,0,5.37,3.26,3.27,6.3l-.94,1.4C69.67,58.45,67.34,66.85,60.34,66.85Zm-.93-10.74L61,53.54a3.3,3.3,0,0,0,.46-1.4A2.3,2.3,0,0,0,59.17,50H56.84V64.28H58c2.34,0,4.21-1.17,4.21-4.2,0-2.33-1.17-3.74-2.8-4Z" transform="translate(-32.1 -29.51)"/><path class="cls-3" d="M44,66.85H35.84V47.48h8.4c4,0,5.36,3.26,3.26,6.3l-.93,1.4C53.34,58.45,51,66.85,44,66.85Zm-.93-10.74,1.63-2.57a3.19,3.19,0,0,0,.47-1.4A2.31,2.31,0,0,0,42.84,50H40.5V64.28h1.17c2.33,0,4.2-1.17,4.2-4.2C45.87,57.75,44.7,56.34,43.07,56.11Zm36.41-8.63h3L76.68,66.85H72l-6.3-19.37h3.5c1.16,0,1.63.23,2.33,2.56L75,62.18Z" transform="translate(-32.1 -29.51)"/><path class="cls-1" d="M90.68,59.84H85.31L88.11,51Z" transform="translate(-32.1 -29.51)"/><path class="cls-1" d="M148.08,49.6c-7.46,0-8.63,3.26-9.1,6.53h5.6c.23-2.57.47-4.67,3.5-4.67,3.5,0,3.5,3.74,3.5,6.07V59.4c-3.26.23-13.53.46-13.53,7,0,2.8,2.8,5.13,6.53,5.13a8.58,8.58,0,0,0,7-3.26v2.8h5.14V57.53C156.72,53.56,156,49.6,148.08,49.6ZM146.7,69a2.76,2.76,0,0,1-2.8-3c0-4,5.13-4.2,7.23-4.43V64.1h0A4.53,4.53,0,0,1,146.7,69Z" transform="translate(-32.1 -29.51)"/></svg>