<svg id="BBVA" xmlns="http://www.w3.org/2000/svg" viewBox="0 0 203.24 59.46"><defs><style>.cls-1{fill:#174680;}</style></defs><path class="cls-1" d="M266.21,24.59h.66a5.37,5.37,0,0,1,1.53,2.18l18,32.88c2.91,5.35,5.88,10.66,8.76,16v.11c-.18.3-.31.77-.75.73-2.93,0-5.85,0-8.77,0-.71,0-.9-.72-1.16-1.2-.53-1-1.1-1.94-1.58-3-.82-1.36-1.47-2.8-2.29-4.15-.63-1.34-1.45-2.59-2.08-3.92-.39-.81-.91-1.56-1.3-2.37-.57-1.2-1.32-2.32-1.88-3.53C274.55,57,273.85,55.46,273,54c-.6-1.27-1.39-2.45-2-3.72-.42-.88-1-1.68-1.4-2.56-.54-1.14-1.26-2.19-1.78-3.34-.25-.45-.43-1.07-1-1.24-.35,0-.84-.12-1,.25-.91,1.42-1.57,3-2.45,4.42-.63,1.34-1.45,2.58-2.08,3.92-.38.78-.87,1.49-1.25,2.27-.29.58-.58,1.16-.92,1.72-.6,1-1,2.06-1.63,3s-.91,1.8-1.44,2.66-.94,1.86-1.49,2.76-1.06,2.12-1.69,3.13-.9,1.81-1.43,2.67-1,1.86-1.49,2.75-1,2-1.58,3c-.19.28-.37.65-.74.73a11.12,11.12,0,0,1-1.73.05c-2.24,0-4.47,0-6.71,0a1.48,1.48,0,0,1-1.17-.35,1.43,1.43,0,0,1,.16-1.09q13.67-25,27.37-49.91a1.79,1.79,0,0,1,.64-.58ZM92,32.58c.63-.64,1.57-.43,2.38-.45h24.42a18.82,18.82,0,0,1,7.06,1.09,13.18,13.18,0,0,1,8.26,8.06,15.49,15.49,0,0,1,.77,4.48,14.9,14.9,0,0,1-.92,4.77,10.62,10.62,0,0,1-3.46,4.62c-.39.36-1,.52-1.28,1a12.17,12.17,0,0,1,5.4,3.94,14.26,14.26,0,0,1,2.55,10.38A15.27,15.27,0,0,1,135,77.2a12.32,12.32,0,0,1-3.16,3.32,20.07,20.07,0,0,1-9.58,3.3,14.54,14.54,0,0,0-2.08.23H92.58a3.58,3.58,0,0,1-.62-.61V32.58M101.1,40a1.74,1.74,0,0,0-.21,1.1c0,3.86,0,7.71,0,11.56a1.25,1.25,0,0,0,1,.48h15.79a13.18,13.18,0,0,0,2.17-.21,7.54,7.54,0,0,0,4.42-2.07,5.84,5.84,0,0,0,1.4-2.82,7.08,7.08,0,0,0,.1-2.47,6.3,6.3,0,0,0-1.66-3.77,9,9,0,0,0-5-2,16.37,16.37,0,0,1-1.72-.08,11,11,0,0,0-2.15-.09h-13a2.49,2.49,0,0,0-1.28.35m.29,20.87a.55.55,0,0,0-.4.34,4,4,0,0,0-.25,1.93c0,4,0,7.93,0,11.9,0,.57.33,1.37,1,1.3h16.68a7.77,7.77,0,0,0,1.67-.1,11.81,11.81,0,0,0,5.63-1.64,6,6,0,0,0,2.33-4,10.59,10.59,0,0,0-.28-5.3,5.56,5.56,0,0,0-2.7-3.17,14.19,14.19,0,0,0-5.6-1.36H101.93a3.29,3.29,0,0,0-.54,0Zm44.82-28.72a13.12,13.12,0,0,1,1.88,0H174a16.59,16.59,0,0,1,10.69,4.23,12.8,12.8,0,0,1,3.75,7.8c0,1.15,0,2.31,0,3.45a11.11,11.11,0,0,1-3.27,6.68,7.62,7.62,0,0,1-1.81,1.43c-.14.12-.44.17-.35.41a12.45,12.45,0,0,1,5.53,4.22,13.15,13.15,0,0,1,1.41,2.54A15.75,15.75,0,0,1,191,68.53a25.09,25.09,0,0,1-.55,4.41,13.06,13.06,0,0,1-3.75,6.65,19.41,19.41,0,0,1-2.4,1.72,20.82,20.82,0,0,1-8,2.48,20.77,20.77,0,0,0-2.36.26H146.35a1.27,1.27,0,0,1-.79-1.16V33.29a1.28,1.28,0,0,1,.65-1.12m9.23,7.55a1.08,1.08,0,0,0-.75.44,2.06,2.06,0,0,0-.2,1.25c0,3.53,0,7.06,0,10.59a1.38,1.38,0,0,0,.65,1.12c1.07.09,2.15,0,3.22,0h13.71A10.92,10.92,0,0,0,176.53,52a5.37,5.37,0,0,0,2.73-3.28,11.35,11.35,0,0,0,.24-3.39,7,7,0,0,0-.74-2.32,7.13,7.13,0,0,0-5.2-3.07c-.8-.2-1.64,0-2.45-.2a10.72,10.72,0,0,0-1.88-.07H156a3.29,3.29,0,0,0-.54,0m-.3,21.17a.91.91,0,0,0-.65,1c0,4.16,0,8.32,0,12.48a4.2,4.2,0,0,0,.16,1.58c.11.36.55.44.88.45,5.66,0,11.32,0,17,0,.75,0,1.48-.16,2.22-.19a9.93,9.93,0,0,0,5.34-2,6.75,6.75,0,0,0,1.85-4.3,6,6,0,0,0,0-2.36,6.42,6.42,0,0,0-2.29-4.76c-1.81-1.37-4.17-1.68-6.39-1.89h-17a6.18,6.18,0,0,0-1.14,0Zm36.17-27.66a.82.82,0,0,1,.85-1.1c2.78,0,5.56,0,8.34,0a.87.87,0,0,1,.86.34,28.4,28.4,0,0,1,1.72,3.1c.33.68.76,1.31,1.1,2,.62,1.31,1.42,2.52,2,3.82.82,1.36,1.46,2.8,2.28,4.16s1.59,2.83,2.28,4.3c.61,1,1.15,2.08,1.7,3.14s1.18,2.3,1.86,3.4c.48.81.84,1.68,1.33,2.48.63,1,1.07,2.12,1.69,3.14s1.05,2.13,1.71,3.12a1,1,0,0,0,1.58,0c.67-1,1.09-2.11,1.71-3.12s1-1.87,1.49-2.76,1.07-2.12,1.69-3.14,1.11-2.18,1.76-3.22c.76-1.55,1.68-3,2.43-4.59.62-1,1.14-2.09,1.7-3.13s1.12-2.17,1.76-3.21,1-1.94,1.53-2.87,1-1.92,1.54-2.84a39.06,39.06,0,0,1,2.17-3.84c.2-.31.61-.24.93-.26,2.73,0,5.47,0,8.2,0a.92.92,0,0,1,.86.5c.17.5-.2.95-.44,1.37q-13,23.7-26,47.44a10.16,10.16,0,0,1-1.69,2.61h-.65c-1-.61-1.32-1.78-1.88-2.71q-13.22-24-26.41-48.11Z" transform="translate(-91.96 -24.59)"/></svg>