<svg id="BCI-Tbanc" xmlns="http://www.w3.org/2000/svg" viewBox="0 0 129.16 59.61"><defs><style>.cls-1{fill-rule:evenodd;}.cls-2{fill:#ed3942;}.cls-3{fill:#178e44;}.cls-4{fill:#f8d713;}.cls-5{fill:#2a6fac;}</style></defs><path d="M224.12,36.73a4.31,4.31,0,0,1,4.15-4.37,4.25,4.25,0,0,1,4.15,4.37,4.16,4.16,0,1,1-8.3,0Zm-8.43,19.14c-2.18-2.29-4.26-3.31-6.79-3.31-4.85,0-8.68,4.22-8.65,9.61v.09c0,5.36,3.94,9.72,8.76,9.72a8.53,8.53,0,0,0,6.22-2.8l5.39,5.47a15.58,15.58,0,0,1-11.69,5.16c-9,0-16.28-7.85-16.28-17.47v-.08c0-9.65,7.3-17.48,16.33-17.48a15.8,15.8,0,0,1,11.91,5.34Z" transform="translate(-103.26 -23.97)"/><path class="cls-1" d="M188.64,47.34a12.06,12.06,0,0,1-3.15,8.28c3.1,2.27,4.47,6.12,4.44,10.07,0,7.49-3.82,13.41-14.92,13.41H160V34.66h14.74c10.4,0,13.9,5.73,13.9,12.68Zm-13.74-4.8h-7.33v9.68h7.79c4.09,0,5.06-2.53,5.06-4.88S179.61,42.54,174.9,42.54Zm-7.3,28.71h7.65c5.42,0,6.52-2.75,6.58-5.53,0-3.83-1.75-5.62-6.44-5.62H167.6Z" transform="translate(-103.26 -23.97)"/><path d="M224.53,44.73h7.57v34.4h-7.57Z" transform="translate(-103.26 -23.97)"/><path class="cls-2" d="M103.26,77.57a6.18,6.18,0,0,0,5,5.94,4.91,4.91,0,0,0,1.15.06,5.68,5.68,0,0,0,4.09-2,6.32,6.32,0,0,0,1.56-4.46c0-4.49,2.44-7.54,5.78-11A146.56,146.56,0,0,1,136.33,56c8.73-4.9,14.41-10.7,15.65-15.43l0-.14a5.56,5.56,0,0,0,.19-1.81,6.14,6.14,0,0,0-5-5.93,4.42,4.42,0,0,0-1.15-.07,5.68,5.68,0,0,0-4.09,2A6.29,6.29,0,0,0,140.42,39c0,4.73-2.7,7.88-6.35,11.54a74.08,74.08,0,0,1-15,9.62c-8.73,4.9-14.42,10.71-15.65,15.43l0,.14a7.82,7.82,0,0,0-.16,1.81Z" transform="translate(-103.26 -23.97)"/><path class="cls-3" d="M138.45,58.65s6.35,1.78,4.35,11.2a5.33,5.33,0,0,0-.09,1.55A4.86,4.86,0,0,0,147.88,76a5,5,0,0,0,4.36-5.47C151.79,64,140.1,56,138.52,56.17c0,0-.93,0-.93,1.27A1.19,1.19,0,0,0,138.45,58.65Z" transform="translate(-103.26 -23.97)"/><path class="cls-4" d="M137.39,61.33s4.16,1.17,2.86,7.31c0,0-1.36,5.8-10.16,7.31-9.94,1.74-9.78-2.11-9.78-2.11-.1-1.92-.76-4.23,9.11-10.54,0,0,5-3.21,8-2Z" transform="translate(-103.26 -23.97)"/><path class="cls-5" d="M112.51,33.23c.57,8.38,11.94,18.41,18.73,22.3a6.5,6.5,0,0,0,4.8.57c3.11-1.51-.22-2.78-.22-2.78s-10.71-3-7.37-18.92a9.09,9.09,0,0,0,.19-2.62A8.23,8.23,0,0,0,119.9,24a8.41,8.41,0,0,0-7.39,9.23Z" transform="translate(-103.26 -23.97)"/></svg>