<svg id="BCP" xmlns="http://www.w3.org/2000/svg" viewBox="0 0 209.37 52.72"><defs><style>.cls-1{fill:#194292;}.cls-2{fill:#f66a53;}</style></defs><path class="cls-1" d="M144.89,57.22c5.13,1.71,8,4.67,8.41,9.8.42,5.68-2,9.93-6.6,13.08a21.93,21.93,0,0,1-8.79,3.51,51.92,51.92,0,0,1-17.93.18c-6-1-8.64-4.62-7.34-10.63,2.68-12.38,5.54-24.77,8.36-37.11.23-1,.51-1.71,1.76-1.8,6.74-.6,13.44-1.62,20.24-.46a25.07,25.07,0,0,1,7.12,2.13c7.67,3.79,8.45,12.94,1.66,18.07a22.69,22.69,0,0,1-6.89,3.23Zm-17.65,4.71c-.88,4-1.71,7.72-2.54,11.37-.33,1.39-.14,2.5,1.52,2.59,3.88.19,7.77,0,11.23-2a6.58,6.58,0,0,0,3.38-7c-.37-2.91-2.45-4.07-5-4.85-2.82-.84-5.55.55-8.6-.1Zm8.55-20.19c-1.2.78-3.47-1.11-4.21,1.39-.78,2.77-1.34,5.63-2,8.5-.23,1,.09,1.85,1.15,1.89,4.16.23,8.32.28,11.69-2.68s2.27-7.3-1.89-8.64a18.91,18.91,0,0,0-4.76-.46Zm109.43.69c-2.35-6.47-8.32-8-14.42-8.59a79.54,79.54,0,0,0-17,.37,3.35,3.35,0,0,0-3.37,3c-3.33,15.16-6.79,30.32-10.17,45.47-.14.56-.41,1.16.33,1.85h4.43c5.64,0,7.31-1.34,8.55-6.79.74-3.24,1.48-6.52,2.18-9.66a6.64,6.64,0,0,1,3,0c8.13.28,15.85-1.06,21.81-7.16,5.09-5.17,7.21-11.46,4.62-18.44Zm-10.16,8.09c-1.11,5.27-5.64,8.55-11.88,8.6-4.07,0-4.44-.47-3.56-4.58.74-3.37,1.53-6.7,2.13-10.07a2.39,2.39,0,0,1,2.72-2.32,24.49,24.49,0,0,1,5.13.19c4.44.83,6.38,3.74,5.46,8.18ZM199.61,34.71c-10.68-3.88-20.93-3.18-29.76,4.44-8.46,7.3-11.14,17-10.08,27.91.6,6.24,3.24,11.46,8.83,14.65,7.12,4.07,14.74,4.21,22.41,1.94a4.84,4.84,0,0,0,3.47-3.51c.69-2.72,1.29-5.45,2-8.55a38.47,38.47,0,0,1-6.56,3.19c-7,2.17-14-.51-16.41-6.33-3.37-8,1.43-20.7,9.43-24.4,6.56-3,12.89-1.66,19.22,1.85.37-1.39.74-2.64,1.06-3.88.93-3.84.14-5.92-3.6-7.31Z" transform="translate(-72.98 -32.4)"/><path class="cls-2" d="M92.39,38.5a37.28,37.28,0,0,1,15,13.68,9.6,9.6,0,0,1-.55,11.19,50.12,50.12,0,0,1-20.2,16.36c-5.4,2.49-11.37-.42-13.68-6.29a73.67,73.67,0,0,0,9.43-5.64c4.44-3.23,8.27-7,10.17-12.29,2.59-5.68,2.82-11.37-.19-17Zm173.31,0a37.78,37.78,0,0,1,15.06,13.68,9.38,9.38,0,0,1-.37,11,50,50,0,0,1-20.56,16.68c-5.36,2.4-11.19-.56-13.45-6.29a76.34,76.34,0,0,0,9-5.4C259.92,64.8,264,61,265.93,55.51c2.63-5.73,2.82-11.41-.23-17Z" transform="translate(-72.98 -32.4)"/><path class="cls-1" d="M92.39,38.5c3,5.64,2.73,11.28.14,17a41.71,41.71,0,0,0-14-9.47c2.73-7.35,8.92-10.58,13.86-7.49Zm173.31,0c3.05,5.64,2.86,11.28.18,17-3.88-4.25-8.73-7.12-14.19-9.57,1.81-4.06,4.39-7,8.46-8.55a5.25,5.25,0,0,1,5.55,1.11Z" transform="translate(-72.98 -32.4)"/></svg>