<svg id="BN_Servicios" data-name="BN Servicios" xmlns="http://www.w3.org/2000/svg" xmlns:xlink="http://www.w3.org/1999/xlink" viewBox="0 0 261.74 45.46"><defs><style>.cls-1,.cls-7{fill:none;}.cls-2{fill:#f6d24b;}.cls-3{fill:#231f20;}.cls-4{fill:#308a93;}.cls-5{clip-path:url(#clip-path);}.cls-6{clip-path:url(#clip-path-2);}.cls-7{stroke:#308a93;stroke-miterlimit:10;stroke-width:2px;}.cls-8{clip-path:url(#clip-path-3);}</style><clipPath id="clip-path" transform="translate(-49.66 -39.46)"><rect class="cls-1" x="288.71" y="53.32" width="26.52" height="18.86" transform="translate(238.89 364.65) rotate(-89.94)"/></clipPath><clipPath id="clip-path-2" transform="translate(-49.66 -39.46)"><rect class="cls-1" x="178.42" y="-50.11" width="4.19" height="261.74" transform="translate(99.55 261.19) rotate(-89.94)"/></clipPath><clipPath id="clip-path-3" transform="translate(-49.66 -39.46)"><rect class="cls-1" x="272.71" y="70.67" width="8.92" height="19.54" transform="translate(196.42 357.52) rotate(-89.94)"/></clipPath></defs><g id="surface1"><path class="cls-2" d="M62.3,53.21h2.78c4.57,0,7.7-1.71,7.7-4.63,0-2.42-2.25-3.48-5.44-3.49a23.82,23.82,0,0,0-3.3.2ZM58.92,68.13a28.76,28.76,0,0,0,3.19.11c4.51,0,8.63-1.56,8.63-5.34,0-3.37-3.24-4.39-7.12-4.39H61ZM56.87,40.25a59.67,59.67,0,0,1,10.25-.79c4.1,0,7.06.46,9.66,1.77s4.52,3.38,4.51,6.26c0,4.28-3.59,7-7.88,8.06v.15c3.76,1,6.14,3.68,6.13,7.41s-2.27,6.3-5.34,8.07c-3.3,1.95-8.22,2.76-14.7,2.75a61.81,61.81,0,0,1-9.84-.62l7.21-33.06" transform="translate(-49.66 -39.46)"/><path class="cls-2" d="M83.29,73.7l7.44-34h9.79l5.13,13a112.36,112.36,0,0,1,3.52,11.6h.18a78.7,78.7,0,0,1,1.81-12.2l2.67-12.35h7.81l-7.44,34h-8.63l-5.43-13.57a101.14,101.14,0,0,1-3.8-11.85h-.17c-.41,3.33-1.34,8.17-2.51,13.51L91,73.71H83.29" transform="translate(-49.66 -39.46)"/><path class="cls-3" d="M126.33,68.7a17.2,17.2,0,0,0,6.78,1.47c2.81,0,4.3-1,4.3-2.53s-1.28-2.28-4.53-3.26c-4.5-1.39-7.46-3.54-7.46-6.94,0-4,3.9-7,10.24-7a18.17,18.17,0,0,1,6.91,1.19l-1.37,4.23a14.33,14.33,0,0,0-5.62-1.11c-2.65,0-3.94,1.06-3.94,2.24,0,1.49,1.48,2.15,5,3.3,4.78,1.53,7,3.68,7,7,0,3.92-3.47,7.24-10.9,7.23A19.92,19.92,0,0,1,125.08,73l1.25-4.34" transform="translate(-49.66 -39.46)"/><path class="cls-3" d="M163.91,64.31H154v5.55h11.12v4.33H147.84l0-23.37h16.67v4.34H154V60h10v4.3" transform="translate(-49.66 -39.46)"/><path class="cls-3" d="M175.32,61.2h2.4c3.05,0,4.86-1.3,4.86-3.35s-1.68-3.23-4.49-3.23a14.59,14.59,0,0,0-2.77.17Zm-6.06-10.06a61.39,61.39,0,0,1,8.15-.48c4,0,6.83.53,8.76,1.85a5.64,5.64,0,0,1,2.52,4.93c0,3-2.46,5-4.79,5.71v.11c1.89.66,2.93,2.19,3.61,4.33a63.2,63.2,0,0,0,2.16,6.63h-6.26a28.54,28.54,0,0,1-1.84-5.45c-.76-3-1.92-3.71-4.45-3.75h-1.81v9.19h-6.06l0-23.06" transform="translate(-49.66 -39.46)"/><path class="cls-3" d="M199.18,74.23l-8.64-23.38h6.71l3.27,9.88a84.44,84.44,0,0,1,2.4,8.37H203c.69-2.81,1.54-5.59,2.46-8.26l3.46-10h6.51l-9.14,23.36h-7.15" transform="translate(-49.66 -39.46)"/><path class="cls-3" d="M224.5,50.89l0,23.37h-6.1l0-23.37h6.1" transform="translate(-49.66 -39.46)"/><path class="cls-3" d="M249.61,73.66a20.31,20.31,0,0,1-6.91,1c-9.35,0-14.17-5.08-14.16-11.74,0-8,6.6-12.37,14.79-12.36a17.55,17.55,0,0,1,6.66,1l-1.29,4.16a14.59,14.59,0,0,0-5.13-.87c-4.82,0-8.6,2.52-8.6,7.72,0,4.68,3.2,7.63,8.62,7.64a16.64,16.64,0,0,0,5.14-.76l.88,4.16" transform="translate(-49.66 -39.46)"/><path class="cls-3" d="M259.83,50.93l0,23.37H253.7l0-23.37h6.11" transform="translate(-49.66 -39.46)"/><path class="cls-4" d="M270.34,62.66c0,4.61,2.47,7.84,6.57,7.84s6.51-3.39,6.51-7.93c0-4.23-2.28-7.84-6.49-7.84S270.34,58.12,270.34,62.66Zm19.54-.26c0,7.7-5.35,12.31-13.3,12.3s-12.72-5.25-12.71-11.94c0-7,5.23-12.24,13.18-12.23,8.31,0,12.84,5.39,12.83,11.87" transform="translate(-49.66 -39.46)"/><g class="cls-5"><path class="cls-3" d="M294.09,68.89a17.38,17.38,0,0,0,6.78,1.47c2.81,0,4.3-1,4.3-2.53s-1.28-2.29-4.53-3.26c-4.5-1.4-7.47-3.55-7.46-6.94,0-4,3.9-7,10.24-7a17.94,17.94,0,0,1,6.91,1.19L309,56.05a14.44,14.44,0,0,0-5.62-1.12c-2.65,0-3.93,1.07-3.94,2.25,0,1.49,1.49,2.15,5,3.3,4.78,1.53,7,3.68,7,7,0,3.92-3.46,7.24-10.88,7.23a19.93,19.93,0,0,1-7.67-1.46l1.25-4.34" transform="translate(-49.66 -39.46)"/></g><g class="cls-6"><path class="cls-7" d="M50.85,80.72,310,81" transform="translate(-49.66 -39.46)"/></g><g class="cls-8"><path class="cls-2" d="M268.1,84.89l18.3,0-9.82-8.62Z" transform="translate(-49.66 -39.46)"/></g></g></svg>