<svg id="Boleto" xmlns="http://www.w3.org/2000/svg" viewBox="0 0 125.53 56.11"><defs><style>.cls-1,.cls-3{fill:#231f20;}.cls-1,.cls-2{fill-rule:evenodd;}.cls-2{fill:#fff;}</style></defs><g id="surface1"><path class="cls-1" d="M125,32.24h6v56h-6v-56" transform="translate(-116.34 -32.24)"/><path class="cls-1" d="M132.83,32.24h1.85v56h-1.85v-56" transform="translate(-116.34 -32.24)"/><path class="cls-1" d="M136.3,32.24h3.32v56H136.3v-56" transform="translate(-116.34 -32.24)"/><path class="cls-1" d="M142.82,32.24h1.85v56h-1.85v-56" transform="translate(-116.34 -32.24)"/><path class="cls-1" d="M145.47,32.24h1.43v56h-1.43v-56" transform="translate(-116.34 -32.24)"/><path class="cls-1" d="M120.42,32.24h1.86v56h-1.86v-56" transform="translate(-116.34 -32.24)"/><path class="cls-1" d="M116.34,32.24h3.31v56h-3.31v-56" transform="translate(-116.34 -32.24)"/><path class="cls-1" d="M156.8,32.24h6v56h-6v-56" transform="translate(-116.34 -32.24)"/><path class="cls-1" d="M164.67,32.24h1.85v56h-1.85v-56" transform="translate(-116.34 -32.24)"/><path class="cls-1" d="M168.14,32.24h3.31v56h-3.31v-56" transform="translate(-116.34 -32.24)"/><path class="cls-1" d="M174.65,32.24h1.85v56h-1.85v-56" transform="translate(-116.34 -32.24)"/><path class="cls-1" d="M177.31,32.24h1.43v56h-1.43v-56" transform="translate(-116.34 -32.24)"/><path class="cls-1" d="M152.26,32.24h1.85v56h-1.85v-56" transform="translate(-116.34 -32.24)"/><path class="cls-1" d="M148.17,32.24h3.32v56h-3.32v-56" transform="translate(-116.34 -32.24)"/><path class="cls-1" d="M181.08,32.24h3.32v56h-3.32v-56" transform="translate(-116.34 -32.24)"/><path class="cls-1" d="M187.6,32.24h1.85v56H187.6v-56" transform="translate(-116.34 -32.24)"/><path class="cls-1" d="M190.26,32.24h1.42v56h-1.42v-56" transform="translate(-116.34 -32.24)"/><path class="cls-1" d="M197,32.24h1.85v56H197v-56" transform="translate(-116.34 -32.24)"/><path class="cls-1" d="M193,32.24h3.32v56H193v-56" transform="translate(-116.34 -32.24)"/><path class="cls-1" d="M201.36,32.24h1.85v56h-1.85v-56" transform="translate(-116.34 -32.24)"/><path class="cls-1" d="M204,32.24h1.43v56H204v-56" transform="translate(-116.34 -32.24)"/><path class="cls-1" d="M210.8,32.24h1.85v56H210.8v-56" transform="translate(-116.34 -32.24)"/><path class="cls-1" d="M206.71,32.24H210v56h-3.32v-56" transform="translate(-116.34 -32.24)"/><path class="cls-1" d="M214.27,32.24h6v56h-6v-56" transform="translate(-116.34 -32.24)"/><path class="cls-1" d="M222.13,32.24H224v56h-1.86v-56" transform="translate(-116.34 -32.24)"/><path class="cls-1" d="M225.6,32.24h3.32v56H225.6v-56" transform="translate(-116.34 -32.24)"/><path class="cls-1" d="M232.11,32.24H234v56h-1.86v-56" transform="translate(-116.34 -32.24)"/><path class="cls-1" d="M234.77,32.24h1.43v56h-1.43v-56" transform="translate(-116.34 -32.24)"/><path class="cls-1" d="M238.55,32.24h3.31v56h-3.31v-56" transform="translate(-116.34 -32.24)"/><path class="cls-2" d="M123.1,88.35H237.71V57H123.1V88.35" transform="translate(-116.34 -32.24)"/><path class="cls-3" d="M125.26,87.15V58.75h10.65a13.07,13.07,0,0,1,5.22.87,6.75,6.75,0,0,1,3.08,2.65A7,7,0,0,1,145.32,66a6.48,6.48,0,0,1-1,3.42,7.11,7.11,0,0,1-3,2.6,7.35,7.35,0,0,1,3.95,2.58,6.83,6.83,0,0,1,1.39,4.29,8.16,8.16,0,0,1-.85,3.71,7.17,7.17,0,0,1-2.08,2.65,8.87,8.87,0,0,1-3.1,1.4,18.79,18.79,0,0,1-4.59.48ZM129,70.69h6.13a13.69,13.69,0,0,0,3.59-.33,4,4,0,0,0,2.16-1.42,4.13,4.13,0,0,0,.73-2.49A4.52,4.52,0,0,0,141,64,3.4,3.4,0,0,0,139,62.48a16.36,16.36,0,0,0-4.32-.4H129Zm0,13.12h7.07a15.09,15.09,0,0,0,2.56-.14,5.91,5.91,0,0,0,2.17-.77,4.12,4.12,0,0,0,1.43-1.59,4.88,4.88,0,0,0,.56-2.39,4.69,4.69,0,0,0-.82-2.77,4.2,4.2,0,0,0-2.25-1.65A13.83,13.83,0,0,0,135.6,74H129v9.79" transform="translate(-116.34 -32.24)"/><path class="cls-3" d="M150.12,76.86q0-5.7,3.18-8.45a9.56,9.56,0,0,1,6.47-2.28,9.21,9.21,0,0,1,6.93,2.78,10.53,10.53,0,0,1,2.69,7.65,13.63,13.63,0,0,1-1.19,6.24,8.43,8.43,0,0,1-3.47,3.53,10.15,10.15,0,0,1-5,1.25,9.25,9.25,0,0,1-7-2.76C151,83,150.12,80.32,150.12,76.86Zm3.57,0c0,2.63.58,4.6,1.72,5.91a5.79,5.79,0,0,0,8.69,0q1.72-2,1.72-6A8.4,8.4,0,0,0,164.08,71a5.51,5.51,0,0,0-4.31-2,5.57,5.57,0,0,0-4.36,2c-1.14,1.3-1.72,3.26-1.72,5.88" transform="translate(-116.34 -32.24)"/><path class="cls-3" d="M173.4,87.15V58.75h3.49v28.4H173.4" transform="translate(-116.34 -32.24)"/><path class="cls-3" d="M196.33,80.48l3.6.48a8.71,8.71,0,0,1-3.14,4.88,9.48,9.48,0,0,1-5.88,1.74,9.36,9.36,0,0,1-7.14-2.78Q181.15,82,181.14,77c0-3.45.88-6.14,2.66-8a9,9,0,0,1,6.92-2.86,8.76,8.76,0,0,1,6.72,2.8q2.61,2.8,2.61,7.89c0,.21,0,.52,0,.93H184.71a7.89,7.89,0,0,0,1.91,5.18,5.7,5.7,0,0,0,4.29,1.8,5.27,5.27,0,0,0,3.27-1A6.79,6.79,0,0,0,196.33,80.48Zm-11.42-5.59h11.46A7,7,0,0,0,195.05,71a5.33,5.33,0,0,0-4.31-2,5.52,5.52,0,0,0-4,1.6,6.38,6.38,0,0,0-1.8,4.3" transform="translate(-116.34 -32.24)"/><path class="cls-3" d="M211.91,84l.48,3.08a12.67,12.67,0,0,1-2.62.31,6,6,0,0,1-3-.6,3.36,3.36,0,0,1-1.46-1.58,12.4,12.4,0,0,1-.42-4.12V69.26h-2.58v-2.7h2.58V61.48l3.48-2.1v7.18h3.49v2.7h-3.49v12a5.89,5.89,0,0,0,.19,1.93,1.46,1.46,0,0,0,.6.68,2.35,2.35,0,0,0,1.18.25,9.78,9.78,0,0,0,1.52-.14" transform="translate(-116.34 -32.24)"/><path class="cls-3" d="M214.05,76.86q0-5.7,3.18-8.45a9.55,9.55,0,0,1,6.46-2.28,9.22,9.22,0,0,1,6.94,2.78,10.53,10.53,0,0,1,2.69,7.65,13.63,13.63,0,0,1-1.19,6.24,8.49,8.49,0,0,1-3.47,3.53,10.19,10.19,0,0,1-5,1.25,9.26,9.26,0,0,1-7-2.76C214.94,83,214.05,80.32,214.05,76.86Zm3.57,0q0,3.94,1.72,5.91a5.6,5.6,0,0,0,4.35,2,5.52,5.52,0,0,0,4.33-2q1.72-2,1.73-6A8.4,8.4,0,0,0,228,71a5.76,5.76,0,0,0-8.67,0q-1.72,2-1.72,5.88" transform="translate(-116.34 -32.24)"/></g></svg>