<svg id="Boost" xmlns="http://www.w3.org/2000/svg" viewBox="0 0 166.69 52.37"><path d="M137.56,55.27a7.93,7.93,0,0,0-5.86-4.16A5.37,5.37,0,0,0,131,51l-.31,0a5.19,5.19,0,0,0-.86-.06h-4.69V46.5a8,8,0,0,0-.06-1.12l0-.3c0-.22,0-.47-.08-.67a7.86,7.86,0,0,0-4.17-5.86,8.27,8.27,0,0,0-3.27-.89h-.25a7.94,7.94,0,0,0-1.14.08c-7.28,1-7.2,8-7.17,8.26V58.94a8.49,8.49,0,0,0,2.11,6.11,8.45,8.45,0,0,0,6.08,2.09h13c.73,0,7.26-.2,8.2-7.17a9.47,9.47,0,0,0,.08-1.39,8.93,8.93,0,0,0-.94-3.31" transform="translate(-96.8 -26.1)" style="fill:#ed3123"/><path d="M142.06,66.14c-2.28,4.25-6.92,5.78-8.28,6.14a13.41,13.41,0,0,1-2.81.39H115.36a9.65,9.65,0,0,1-2.14-.28,18.48,18.48,0,0,1-2.47-.84,10.82,10.82,0,0,1-3.42-2.44l-.22-.22a14.19,14.19,0,0,1-2.81-4.2,11.5,11.5,0,0,1-.58-1.91,10.5,10.5,0,0,1-.25-2.23V45.16a13.79,13.79,0,0,1,.39-2.83c.36-1.36,1.86-6,6.14-8.28A15,15,0,0,1,117.36,32a11.79,11.79,0,0,1,6.39,1.75,14,14,0,0,1,6.92,11.7,13.81,13.81,0,0,1,11.72,7s4.06,5.92-.33,13.73m-.72-40H104.66A7.88,7.88,0,0,0,96.8,34V70.61a7.87,7.87,0,0,0,7.86,7.86h36.65a7.87,7.87,0,0,0,7.86-7.86V34a7.84,7.84,0,0,0-7.83-7.89" transform="translate(-96.8 -26.1)" style="fill:#ed3123"/><polygon points="160.5 12.75 158.8 12.75 158.8 17.17 157.78 17.17 157.78 12.75 156.08 12.75 156.08 11.84 160.5 11.84 160.5 12.75" style="fill:#ed3123"/><polygon points="165.67 17.17 165.67 13.64 164.28 16.25 163.72 16.25 162.36 13.64 162.36 17.17 161.33 17.17 161.33 11.84 162.44 11.84 164 14.86 165.58 11.84 166.69 11.84 166.69 17.17 165.67 17.17" style="fill:#ed3123"/><path d="M165.65,51.11a6.55,6.55,0,0,0-3,.69,8.12,8.12,0,0,0-2.44,1.86,9.32,9.32,0,0,0-1.67,2.78,9.47,9.47,0,0,0-.61,3.42,9.89,9.89,0,0,0,.58,3.44A8.49,8.49,0,0,0,160.15,66a7.08,7.08,0,0,0,2.44,1.8,6.86,6.86,0,0,0,3,.67,7,7,0,0,0,3-.67A7.75,7.75,0,0,0,171.09,66a8.67,8.67,0,0,0,1.61-2.75,10,10,0,0,0,.59-3.45,9.73,9.73,0,0,0-.59-3.41,9.06,9.06,0,0,0-1.61-2.78,7.19,7.19,0,0,0-2.44-1.84,7,7,0,0,0-3-.66m0,22.36A13.43,13.43,0,0,1,160,72.36a13.1,13.1,0,0,1-4.25-3A13.5,13.5,0,0,1,153.06,65a15,15,0,0,1,0-10.45,12.69,12.69,0,0,1,2.75-4.36,13.31,13.31,0,0,1,4.28-3,14.49,14.49,0,0,1,11.17,0,13.13,13.13,0,0,1,4.28,3,13,13,0,0,1,2.75,4.36,14.56,14.56,0,0,1,0,10.45,12.78,12.78,0,0,1-2.75,4.36,13.31,13.31,0,0,1-4.28,3,13.81,13.81,0,0,1-5.61,1.11" transform="translate(-96.8 -26.1)" style="fill:#ed3123"/><path d="M195.6,51.11a6.55,6.55,0,0,0-3,.69,8.12,8.12,0,0,0-2.44,1.86,9.27,9.27,0,0,0-2.28,6.2,9.66,9.66,0,0,0,.58,3.44A8.65,8.65,0,0,0,190.09,66a7.21,7.21,0,0,0,2.45,1.8,6.83,6.83,0,0,0,3,.67,7,7,0,0,0,3-.67A7.75,7.75,0,0,0,201,66a8.74,8.74,0,0,0,1.64-2.75,10,10,0,0,0,.58-3.45,9.73,9.73,0,0,0-.58-3.41A8.56,8.56,0,0,0,201,53.61a7.19,7.19,0,0,0-2.44-1.84,6.86,6.86,0,0,0-3-.66m0,22.36A13.43,13.43,0,0,1,190,72.36a13.1,13.1,0,0,1-4.25-3A13.5,13.5,0,0,1,183,65a15,15,0,0,1,0-10.45,12.69,12.69,0,0,1,2.75-4.36,13.31,13.31,0,0,1,4.28-3,14.49,14.49,0,0,1,11.17,0,13.23,13.23,0,0,1,4.28,3,13,13,0,0,1,2.75,4.36,14.56,14.56,0,0,1,0,10.45,12.78,12.78,0,0,1-2.75,4.36,13.31,13.31,0,0,1-4.28,3,13.81,13.81,0,0,1-5.61,1.11" transform="translate(-96.8 -26.1)" style="fill:#ed3123"/><path d="M223.21,73.47a21.21,21.21,0,0,1-3.25-.25,23.76,23.76,0,0,1-3.22-.72,19.39,19.39,0,0,1-3-1.17,14.82,14.82,0,0,1-2.56-1.53l-.08-.08,2.42-3.89.11.09a16.67,16.67,0,0,0,9.47,3.33,7.13,7.13,0,0,0,3.89-.92,2.87,2.87,0,0,0,1.39-2.58,2.4,2.4,0,0,0-1.55-2.31,30.06,30.06,0,0,0-5.14-1.61,40.41,40.41,0,0,1-4.23-1.22,12.35,12.35,0,0,1-2.89-1.42,4.88,4.88,0,0,1-1.64-1.89,6.3,6.3,0,0,1-.5-2.61,8,8,0,0,1,.81-3.61,7.9,7.9,0,0,1,2.19-2.67,9.63,9.63,0,0,1,3.28-1.64,14.65,14.65,0,0,1,4.06-.55,16.88,16.88,0,0,1,5.53.91,17.05,17.05,0,0,1,4.78,2.48l.11.08-2.5,3.56-.11-.09a13.19,13.19,0,0,0-7.92-2.78,6.43,6.43,0,0,0-3.47.87,2.82,2.82,0,0,0-1.39,2.66A2.21,2.21,0,0,0,219,56.08a9.09,9.09,0,0,0,1.75.72c.72.22,1.64.45,2.7.72,1.77.45,3.36.87,4.66,1.31a13.89,13.89,0,0,1,3.25,1.53,5.73,5.73,0,0,1,1.92,2.11,6.14,6.14,0,0,1,.61,2.89,7.51,7.51,0,0,1-.75,3.39,7.07,7.07,0,0,1-2.17,2.58A10.24,10.24,0,0,1,227.55,73a18.23,18.23,0,0,1-4.34.5" transform="translate(-96.8 -26.1)" style="fill:#ed3123"/><path d="M246,73.39a8.07,8.07,0,0,1-2.47-.36,5.55,5.55,0,0,1-2-1.09,5,5,0,0,1-1.41-1.86,6.78,6.78,0,0,1-.5-2.78V51.08h-3.51v-4.5h3.51V38h5.75v8.59H251v4.5h-5.69V65.55a2.29,2.29,0,0,0,.75,1.92,3,3,0,0,0,1.86.61,6.3,6.3,0,0,0,2.16-.39,11,11,0,0,0,1.53-.64l.14,0,1.28,4.58-.11.06c-.72.33-1.72.72-2.95,1.14a13.05,13.05,0,0,1-4,.61" transform="translate(-96.8 -26.1)" style="fill:#ed3123"/></svg>