<svg id="Bradesco" xmlns="http://www.w3.org/2000/svg" viewBox="0 0 261.27 58.27"><defs><style>.cls-1{fill:#cc162f;}</style></defs><path class="cls-1" d="M131.6,61.06a12.5,12.5,0,0,0-5.24,1.07V49.61a21.14,21.14,0,0,0-5.81,3.16,2.9,2.9,0,0,0-1.18,2.54v30.9a27.76,27.76,0,0,0,9.25,1.46C137.75,87.67,143,82.09,143,74S139.27,61.06,131.6,61.06ZM129,82a8.45,8.45,0,0,1-2.65-.29v-14a8.89,8.89,0,0,1,4.06-.78c3.5,0,5.36,2.42,5.36,7C135.78,78.65,133.58,82,129,82Zm31.8-20.7a8.12,8.12,0,0,0-7.05,3.61,17.39,17.39,0,0,0-.79-3.32,10.52,10.52,0,0,0-2.87-.29,13.08,13.08,0,0,0-2.82.29V87.11a16.2,16.2,0,0,0,3.49.28,19.79,19.79,0,0,0,3.5-.28V74.65c0-5,2.59-7.62,6.09-7.62a14.9,14.9,0,0,1,2.31.12,14.48,14.48,0,0,0,.11-5.64A10.16,10.16,0,0,0,160.81,61.28ZM72.52,73.79v13a.59.59,0,0,0,.59.59h3.61V70.68l-3.61,2.08A1.11,1.11,0,0,0,72.52,73.79Zm3.66-32a68.22,68.22,0,0,0-11.24,1A21.36,21.36,0,0,1,81.8,34.61a21.76,21.76,0,0,1,13.51,4.74c.61.51,1.08.55,1.56.09s.42-.93-.1-1.53a23.81,23.81,0,0,0-40.52,6.87,43.51,43.51,0,0,0-8.12,3.39c-.66.37-.9.84-.66,1.4a1,1,0,0,0,1.37.51c2.08-.61,4.2-1.12,6.42-1.58a18.59,18.59,0,0,0-.38,3.62A23.41,23.41,0,0,0,65.75,72.19c.66.42,1.22.42,1.6-.09s.33-1-.23-1.49a20.47,20.47,0,0,1-6.62-15.1,19.83,19.83,0,0,1,1.66-8c2.22-.19,4.62-.33,7.27-.33,17.19,0,31.69,5.67,31.69,13.1,0,3.77-4.77,7.53-10.44,10-1.37.6-1.51,1-1.32,1.63s.8.74,1.51.51c9.92-3.26,17.42-8.6,17.42-15.06C108.29,48.59,94.13,41.81,76.18,41.81ZM83.12,67l-4.78,2.76V87.38h5.13a.92.92,0,0,0,.92-.92V67.66A.8.8,0,0,0,83.12,67Zm213.24-6c-7.84,0-12.24,5.35-12.24,13.41s4.63,13.31,12.24,13.31c7.89,0,12.29-5.24,12.29-13.31S304.25,61,296.36,61Zm0,21.08c-3.89,0-5.08-3.15-5.08-7.67s1.19-7.78,5.08-7.78,5.13,3.27,5.13,7.78C301.49,79.1,300.19,82,296.36,82ZM228.13,61C220.58,61,216,66,216,74.48s4.91,13.19,13.31,13.19a19.94,19.94,0,0,0,8-1.46,12.39,12.39,0,0,0,0-5.42A25.46,25.46,0,0,1,230,82c-3.89,0-6.59-1.47-7.16-5.59h15.9a17.07,17.07,0,0,0,.29-3.55C239,65.23,234.73,61,228.13,61Zm-5.3,10.31c.51-3.1,2.37-5,5.19-5,3.16,0,4.4,2.14,4.51,5Zm54,10.66c-3.49,0-5.8-2.76-5.8-7.61,0-4.63,1.86-7.61,5.86-7.61a11,11,0,0,1,4.45.9,15.07,15.07,0,0,1,2.48-4.91A15.71,15.71,0,0,0,276,61c-7.73,0-12.18,5.46-12.18,13.36,0,8.17,4.57,13.36,12.46,13.36A16,16,0,0,0,283.9,86a16,16,0,0,1-2.65-4.91A9.72,9.72,0,0,1,276.79,81.92ZM173.72,61a29.27,29.27,0,0,0-7.55.84,12.15,12.15,0,0,0,0,5.53,24.87,24.87,0,0,1,6.43-.74c3.6,0,5.35,1.47,5.35,4.46v.28c-1.07-.11-2.37-.23-3.27-.23-6,0-11.11,2.15-11.11,7.9,0,6.48,4.63,8.68,11.34,8.68a34.45,34.45,0,0,0,9.75-1.52V71.55C184.66,64.55,180.88,61.11,173.72,61Zm4.23,21a19.51,19.51,0,0,1-3,.28c-3.21,0-5-1-5-3.21s1.75-3.16,5-3.16c1.07,0,2.32.11,3,.17ZM205,55.31v6.14a14,14,0,0,0-3.67-.39c-7.72,0-13,5.19-13,13.47,0,8.46,5.13,13.14,13.14,13.14A33.54,33.54,0,0,0,212,86.09V49.61a21,21,0,0,0-5.81,3.16A2.9,2.9,0,0,0,205,55.31Zm0,26.27a9.91,9.91,0,0,1-3,.4c-4.63,0-6.43-3-6.43-7.45,0-4.9,1.8-7.89,6.37-7.89A11.1,11.1,0,0,1,205,67Zm50-9.64-2.82-1.18c-1.64-.68-2.59-1.24-2.59-2.32,0-1.63,1.46-2,3.38-2a21.12,21.12,0,0,1,6.6,1.07,14,14,0,0,0,0-5.24C257.9,61.4,254.75,61,252,61c-5.41,0-9.52,2.93-9.52,7.33,0,3.94,1.69,5.92,6.42,7.83l2.2.9c2.09.85,2.71,1.36,2.71,2.71,0,2-2,2.37-3.72,2.37a21.34,21.34,0,0,1-7.67-1.52,11.25,11.25,0,0,0,0,5.47c2.31,1.24,5.47,1.63,8.79,1.63,5.36,0,9.65-2.82,9.65-7.89C260.84,75.61,259,73.63,255,71.94Z" transform="translate(-47.38 -29.4)"/></svg>