<?xml version="1.0" encoding="utf-8"?>
<!-- Generator: Adobe Illustrator 25.2.3, SVG Export Plug-In . SVG Version: 6.00 Build 0)  -->
<svg version="1.1" xmlns="http://www.w3.org/2000/svg" xmlns:xlink="http://www.w3.org/1999/xlink" x="0px" y="0px"
	 viewBox="0 0 600 400" style="enable-background:new 0 0 600 400;" xml:space="preserve">
<style type="text/css">
	.st0{display:none;}
	.st1{display:inline;}
	.st2{fill-rule:evenodd;clip-rule:evenodd;fill:#060809;}
	.st3{fill-rule:evenodd;clip-rule:evenodd;fill:#0FA0EA;}
	.st4{fill:#482683;}
	.st5{fill:#5F6368;}
	.st6{fill:#4285F4;}
	.st7{fill:#34A853;}
	.st8{fill:#FBBC04;}
	.st9{fill:#EA4335;}
	.st10{display:inline;fill-rule:evenodd;clip-rule:evenodd;fill:#009EE3;}
	.st11{display:inline;fill-rule:evenodd;clip-rule:evenodd;fill:#113984;}
	.st12{display:inline;fill-rule:evenodd;clip-rule:evenodd;fill:#172C70;}
</style>
<g id="Checkout.com" class="st0">
	<g id="Layer_1_1_">
		
			<image style="display:inline;overflow:visible;enable-background:new    ;" width="600" height="400" xlink:href="8F12BA4E70705893.png" >
		</image>
	</g>
	<g id="Layer_2_1_" class="st1">
		
			<image style="overflow:visible;enable-background:new    ;" width="600" height="400" xlink:href="8F12BA4E70705891.png"  transform="matrix(0.8128 0 0 0.8128 43.5369 37.4415)">
		</image>
	</g>
</g>
<g id="Affirm" class="st0">
	<g class="st1">
		<path class="st2" d="M236.8,194.9c-3.9,0-8.3,1.8-10.7,3.7l2.2,4.6c1.9-1.8,5.1-3.3,7.9-3.3c2.7,0,4.2,0.9,4.2,2.7
			c0,1.2-1,1.8-2.8,2.1c-7,0.9-12.4,2.8-12.4,8.1c0,4.2,3,6.8,7.7,6.8c3.4,0,6.4-1.9,7.8-4.3v3.6h6.3v-15.3
			C246.9,197.5,242.5,194.9,236.8,194.9z M234.5,214.9c-1.8,0-2.7-0.9-2.7-2.3c0-2.7,3-3.5,8.4-4.1
			C240.2,212,237.8,214.9,234.5,214.9z M306.1,199.6v-4h-6.3v23.5h6.7v-11.3c0-5.4,3.2-7,5.5-7c0.9,0,2.1,0.3,2.9,0.9l1.2-6.2
			c-1-0.4-2.1-0.5-3-0.5C309.7,194.9,307.5,196.5,306.1,199.6L306.1,199.6z M347.3,194.9c-3.5,0-6.2,2.1-7.6,4.1
			c-1.3-2.6-4-4.1-7.3-4.1c-3.5,0-6,2-7.2,4.2v-3.5h-6.5v23.5h6.7V207c0-4.3,2.3-6.4,4.4-6.4c1.9,0,3.7,1.2,3.7,4.4v14.1h6.7V207
			c0-4.4,2.2-6.4,4.4-6.4c1.8,0,3.6,1.3,3.6,4.4v14.1h6.7v-16.2C355.1,197.6,351.6,194.9,347.3,194.9L347.3,194.9z M270.6,193.9v1.7
			h-10.2v-2.4c0-3.1,1.8-4,3.3-4c0.9,0,2,0.2,3,0.7l2.1-4.7c-1.2-0.7-3.2-1.4-5.9-1.4c-4.3,0-9.2,2.4-9.2,10v1.7h-3.9v5.2h3.9v18.3
			h6.7v-18.3h10.2v18.3h6.7v-18.3h6.1v-5.2h-6.1v-2.4c0-3.1,1.8-4,3.3-4c1.7,0,3,0.7,3,0.7l2.1-4.7c0,0-2.1-1.4-5.9-1.4
			C275.6,183.9,270.6,186.3,270.6,193.9z M287.4,195.6h6.7v23.5h-6.7V195.6z"/>
		<path class="st3" d="M326.6,162.9c-18.1,0-34.3,12.6-38.9,28.8h6.6c3.8-12.1,16.8-22.6,32.3-22.6c18.8,0,35,14.3,35,36.6
			c0,5-0.6,9.5-1.9,13.5h6.4l0.1-0.2c1.1-4.1,1.6-8.6,1.6-13.3C367.7,180.8,349.6,162.9,326.6,162.9"/>
	</g>
</g>
<g id="ApplePay" class="st0">
	<path class="st1" d="M253.6,180.7c-1.7,2-4.5,3.6-7.2,3.4c-0.3-2.7,1-5.7,2.6-7.5c1.7-2.1,4.7-3.6,7.1-3.7
		C256.4,175.8,255.3,178.6,253.6,180.7 M256.1,184.7c-4-0.2-7.4,2.3-9.3,2.3c-1.9,0-4.8-2.1-7.9-2.1c-4.1,0.1-7.9,2.4-10,6.1
		c-4.3,7.4-1.1,18.3,3,24.3c2,3,4.5,6.2,7.7,6.1c3-0.1,4.2-2,7.9-2c3.7,0,4.7,2,7.9,1.9c3.3-0.1,5.4-3,7.4-5.9
		c2.3-3.4,3.3-6.7,3.3-6.8c-0.1-0.1-6.4-2.5-6.5-9.8c-0.1-6.1,5-9,5.2-9.2C262.1,185.2,257.6,184.8,256.1,184.7 M279,176.4v44.6h6.9
		v-15.2h9.6c8.7,0,14.9-6,14.9-14.7s-6-14.6-14.7-14.6H279z M285.9,182.2h8c6,0,9.4,3.2,9.4,8.8c0,5.6-3.4,8.9-9.5,8.9h-7.9V182.2z
		 M323,221.3c4.3,0,8.4-2.2,10.2-5.7h0.1v5.3h6.4v-22.2c0-6.4-5.1-10.6-13.1-10.6c-7.3,0-12.8,4.2-13,10h6.2
		c0.5-2.7,3.1-4.5,6.5-4.5c4.2,0,6.6,2,6.6,5.6v2.5l-8.6,0.5c-8,0.5-12.4,3.8-12.4,9.5C312.1,217.4,316.6,221.3,323,221.3z
		 M324.9,216c-3.7,0-6-1.8-6-4.5c0-2.8,2.3-4.4,6.6-4.7l7.7-0.5v2.5C333.1,213,329.6,216,324.9,216z M348.3,233.1
		c6.7,0,9.9-2.6,12.7-10.4l12.1-34.1h-7l-8.1,26.3h-0.1l-8.1-26.3h-7.2l11.7,32.4l-0.6,2c-1.1,3.3-2.8,4.6-5.8,4.6
		c-0.5,0-1.6-0.1-2-0.1v5.3C346.1,233,347.8,233.1,348.3,233.1L348.3,233.1z"/>
</g>
<g id="Braintree">
	<g id="g849" transform="matrix(0.62181378,0,0,0.62181378,-14.617654,9.5423266)">
		<path id="Fill-15" d="M271.3,327v-7.8h6.5v-38.1h-6.5v-7.8h25.8c11.7,0,19,5.2,19,14.6c0,6-3.6,9.6-8.3,11.5
			c6.8,1.8,11.5,6.3,11.5,12.5c0,9.9-7.8,15.4-20.9,15.4h-27.1V327z M286.7,281.1v14.6h9.6c7.3,0,10.9-2.6,10.9-7.3
			c0-5-3.9-7.3-11.2-7.3H286.7z M286.7,319.2h10.9c8.6,0,12.8-2.6,12.8-7.8c0-5.2-4.4-7.8-13.3-7.8h-10.4V319.2z"/>
		<path id="Fill-16" d="M366.2,299.1c-1-3.1-3.4-5-6.5-5c-7.3,0-14.3,5.2-14.3,14.9v10.2h14.3v7.8h-32.1v-7.8h9.1v-23.7h-7v-7.8
			h15.6v6.8c2.6-4.7,7.8-8.1,14.9-8.1c7.8,0,12.8,4.4,14.3,10.7L366.2,299.1"/>
		<path id="Fill-17" d="M409.5,304.1v-2.3c0-5.5-4.7-7.8-9.6-7.8c-4.7,0-8.9,1.8-12,4.7l-5.5-5.7c3.9-3.4,9.4-6.5,17.7-6.5
			c10.4,0,18.2,5.2,18.2,15.4v17.5h6v7.8h-14.9v-4.2c-2.3,3.4-8.1,5.5-14.1,5.5c-8.6,0-15.9-4.2-15.9-12.5c0-9.6,9.9-13.6,19-13.6
			C403,302.5,406.6,303.3,409.5,304.1 M409.5,311.1c-2.6-1-6.8-1.6-10.4-1.6c-5.5,0-10.7,1.6-10.7,6.5c0,3.6,3.4,5.2,7.8,5.2
			c6.3,0,13.3-3.1,13.3-8.9V311.1"/>
		<path id="Fill-18" d="M475.7,319.2v7.8h-41.4v-7.8h17.2v-23.7h-13v-7.8h21.6v31.5H475.7z M450.4,267.6h9.6v12h-9.6V267.6z"/>
		<path id="Fill-19" d="M485.9,319.2h6.3v-23.7h-6v-7.8h14.3v5.2c2.6-3.9,7.8-6.5,14.1-6.5c9.1,0,15.6,5.5,15.6,14.6v18.2h6.3v7.8
			h-21.4v-7.8h6.5V303c0-6.8-4.4-8.9-8.3-8.9c-6.5,0-13,4.7-13,11.7v13.3h6.5v7.8h-21.4v-7.8"/>
		<path id="Fill-20" d="M548.2,295.5h-10.7v-7.8h10.7v-14.3h8.6v14.3h20.1v7.8h-20.1v16.7c0,6.3,4.4,8.6,9.6,8.6
			c4.7,0,8.9-2.6,11.7-5.5l5.7,5.7c-3.6,3.9-9.6,7.6-17.5,7.6c-10.4,0-18-5.5-18-16.2v-16.9"/>
		<path id="Fill-21" d="M630.1,299.1c-1-3.1-3.4-5-6.5-5c-7.3,0-14.3,5.2-14.3,14.9v10.2h14.3v7.8h-31.8v-7.8h9.1v-23.7h-7v-7.8
			h15.6v6.8c2.6-4.7,7.8-8.1,14.9-8.1c7.8,0,12.8,4.4,14.3,10.7L630.1,299.1"/>
		<path id="Fill-22" d="M687.1,321c-4.2,4.2-11.7,7.3-20.1,7.3c-13.8,0-23.5-8.9-23.5-21.1s9.4-21.1,22.4-21.1
			c13,0,21.9,9.6,21.9,22.7v1.3h-35.5c1.6,6.5,7,10.7,14.6,10.7c6.3,0,11.5-2.3,14.3-5.5L687.1,321z M653,303.3h25.3
			c-1.3-5.7-6.5-9.4-12.3-9.4C659.3,293.6,654.3,297.5,653,303.3z"/>
		<path id="Fill-23" d="M739.8,321c-4.2,4.2-11.7,7.3-20.1,7.3c-13.8,0-23.5-8.9-23.5-21.1s9.4-21.1,22.4-21.1
			c13,0,21.9,9.6,21.9,22.7v1.3h-35.5c1.6,6.5,7,10.7,14.6,10.7c6.3,0,11.5-2.3,14.3-5.5L739.8,321z M705.7,303.3h25.3
			c-1.3-5.7-6.5-9.4-12.3-9.4C712.2,293.6,707,297.5,705.7,303.3z"/>
	</g>
</g>
<g id="dlocal" class="st0">
	<g class="st1">
		<path d="M341.7,208c-1.3,2.2-3.4,3.3-5.7,3.3c-3.7,0-7.6-2.9-7.6-8.3c0-5.4,3.9-8.2,7.6-8.2c2.3-0.1,4.4,1,5.7,3l0.1-0.1l6.1-5.1
			c-2.9-3.7-7.4-5.5-12-5.5c-7.9,0-16.2,5.4-16.2,15.9c0,10.7,8.2,15.9,16.1,15.9c4.7-0.1,9.2-1.9,12.1-5.5L341.7,208L341.7,208z
			 M397,206.7v-34.4h-8.6v34.4c0,10.8,5.6,13.1,14.9,11.4l-0.3-6.5C398.8,212.3,397,211.4,397,206.7 M380,209.4v-10.6
			c0-8.7-6.5-11.7-14.2-11.7c-4,0-8.9,0.9-12.7,3.1l3,5.8c1.9-1.1,5-2,8.6-2c3,0,7,0.9,7,4.5v1.7c-2.3-1.5-5.3-1.9-8-1.9
			c-6.7,0-12.1,3.5-11.7,10.9c0.2,5.8,5.3,9.5,11,9.5c3.9,0,8.6-1.5,10.4-5.2c0,5.4,5,5.6,9.6,4.7l-0.1-4.9
			C379.9,213.5,380,212,380,209.4 M371.5,207.3c-0.3,3.2-4,4.6-6.8,4.6c-2,0-4-1.1-4.1-3.3c-0.3-3,1.9-4.5,4.7-4.7
			c2.2,0,4.5,0.5,6.2,1.8L371.5,207.3L371.5,207.3z M299,187.1c-7.9,0.1-15.9,5.4-15.9,15.9c0,10.6,8.1,15.9,16.1,15.9
			c7.9,0,15.9-5.3,15.9-15.9C315.2,192.3,307.1,187,299,187.1 M299.1,211.1c-3.7,0-7.2-2.7-7.2-8.2c0-5.4,3.7-8.2,7.4-8.2
			c3.7,0,7.2,2.7,7.2,8.2C306.5,208.5,302.8,211.2,299.1,211.1 M274,206.7v-34.4h-8.6v34.4c0,10.8,5.6,13.1,14.9,11.4l-0.3-6.5
			C275.9,212.3,274,211.4,274,206.7 M229.3,208.1v-35.7h-8.8v16.7c-10.5-5.2-21.3,2-21.3,13.9c0,8.5,4.8,16,13.9,15.8
			c4-0.1,7.4-2.1,9.1-5.8v0.8c0.2,5.2,5.6,5.3,10,4.3l-0.1-5.7C229.4,212.7,229.3,211,229.3,208.1 M220.9,204.2
			c0,3.7-2.4,6.8-6.2,6.8c-4.7,0-6.6-3.7-6.6-8.1c0-7.5,6.6-10.2,12.9-6.5L220.9,204.2L220.9,204.2z"/>
		<rect x="243.5" y="196.4" class="st4" width="8.7" height="8.7"/>
	</g>
</g>
<g id="GPay" class="st0">
	<g class="st1">
		<path class="st5" d="M282.9,199.6v19.2h-6.1v-47.3H293c3.9-0.1,7.6,1.4,10.4,4.1c2.8,2.5,4.4,6.2,4.3,10c0.1,3.8-1.5,7.5-4.3,10
			c-2.8,2.7-6.3,4-10.4,4H282.9z M282.9,177.3v16.5h10.2c2.3,0.1,4.4-0.8,6-2.5c3.2-3.1,3.2-8.2,0.2-11.4l-0.2-0.2
			c-1.5-1.7-3.7-2.6-6-2.5C293.1,177.4,282.9,177.3,282.9,177.3z M321.7,185.4c4.5,0,8,1.2,10.6,3.6c2.6,2.4,3.9,5.7,3.9,9.9v19.9
			h-5.8v-4.5h-0.3c-2.5,3.7-5.8,5.5-10,5.5c-3.5,0-6.6-1.1-8.9-3.2c-2.3-2-3.7-4.9-3.6-7.9c0-3.4,1.3-6,3.8-8c2.5-2,5.9-3,10.1-3
			c3.6,0,6.6,0.7,8.9,2v-1.4c0-2.1-0.9-4-2.5-5.4c-1.6-1.4-3.7-2.2-5.8-2.2c-3.4,0-6.1,1.4-8.1,4.3l-5.4-3.4
			C311.6,187.5,316,185.4,321.7,185.4L321.7,185.4z M313.9,208.9c0,1.6,0.8,3.1,2,4c1.4,1.1,3,1.6,4.7,1.6c2.6,0,5-1,6.8-2.8
			c2-1.9,3-4.1,3-6.7c-1.9-1.5-4.5-2.3-7.9-2.3c-2.5,0-4.5,0.6-6.2,1.8C314.7,205.6,313.9,207.1,313.9,208.9z M369.6,186.4
			l-20.3,46.6H343l7.5-16.3l-13.3-30.3h6.6l9.6,23.2h0.2l9.4-23.2L369.6,186.4z"/>
		<path class="st6" d="M258.4,195.5c0-1.8-0.2-3.7-0.5-5.5h-25.6v10.4H247c-0.6,3.4-2.6,6.4-5.4,8.3v6.8h8.7
			C255.4,210.8,258.4,203.8,258.4,195.5L258.4,195.5z"/>
		<path class="st7" d="M232.3,222c7.3,0,13.5-2.4,18-6.6l-8.7-6.8c-2.5,1.7-5.6,2.6-9.2,2.6c-7.1,0-13.1-4.8-15.2-11.2h-9v7
			C212.7,216.2,222.1,222,232.3,222z"/>
		<path class="st8" d="M217.1,200.1c-1.1-3.4-1.1-7,0-10.4v-7h-9c-3.9,7.7-3.9,16.7,0,24.4L217.1,200.1z"/>
		<path class="st9" d="M232.3,178.5c3.9-0.1,7.6,1.4,10.4,4.1l7.7-7.7c-4.9-4.6-11.4-7.2-18.1-7.1c-10.3,0-19.6,5.8-24.2,15l9,7
			C219.2,183.3,225.2,178.5,232.3,178.5z"/>
	</g>
</g>
<g id="Klarna" class="st0">
	<path class="st1" d="M242.8,176.2h-10.2c0,8.4-3.8,16-10.5,21l-4,3l15.6,21.3h12.9L232.1,202C238.9,195.2,242.8,186.1,242.8,176.2z
		"/>
	<rect x="206.3" y="176.2" class="st1" width="10.4" height="45.4"/>
	<rect x="249.6" y="176.2" class="st1" width="9.8" height="45.4"/>
	<path class="st1" d="M345.7,189.4c-3.8,0-7.3,1.1-9.7,4.4v-3.5h-9.3v31.4h9.5v-16.5c0-4.8,3.2-7.1,7-7.1c4.1,0,6.5,2.5,6.5,7v16.6
		h9.4v-20C359,194.4,353.2,189.4,345.7,189.4z"/>
	<path class="st1" d="M289.1,190.2v2c-2.7-1.8-5.9-2.9-9.3-2.9c-9.2,0-16.6,7.4-16.6,16.6c0,9.2,7.4,16.6,16.6,16.6
		c3.5,0,6.7-1.1,9.3-2.9v2h9.4v-31.4H289.1z M280.6,214c-4.7,0-8.5-3.6-8.5-8.1c0-4.4,3.8-8.1,8.5-8.1s8.5,3.6,8.5,8.1
		C289.1,210.4,285.3,214,280.6,214z"/>
	<path class="st1" d="M313.1,194.3v-4.1h-9.6v31.4h9.7V207c0-4.9,5.4-7.6,9.1-7.6c0,0,0.1,0,0.1,0v-9.2
		C318.5,190.2,314.9,191.9,313.1,194.3z"/>
	<path class="st1" d="M388.2,190.2v2c-2.7-1.8-5.9-2.9-9.3-2.9c-9.2,0-16.6,7.4-16.6,16.6c0,9.2,7.4,16.6,16.6,16.6
		c3.5,0,6.7-1.1,9.3-2.9v2h9.4v-31.4H388.2z M379.7,214c-4.7,0-8.5-3.6-8.5-8.1c0-4.4,3.8-8.1,8.5-8.1s8.5,3.6,8.5,8.1
		C388.2,210.4,384.4,214,379.7,214z"/>
	<g class="st1">
		<path d="M404.9,191.2c0-0.5-0.3-0.7-0.8-0.7h-0.9v2.4h0.4v-0.9h0.5l0.4,0.9h0.5l-0.4-1C404.7,191.7,404.9,191.5,404.9,191.2z
			 M404.1,191.5h-0.5v-0.7h0.5c0.3,0,0.4,0.1,0.4,0.4C404.5,191.4,404.4,191.5,404.1,191.5z"/>
		<path d="M403.9,189.4c-1.2,0-2.2,1-2.2,2.2c0,1.2,1,2.2,2.2,2.2s2.2-1,2.2-2.2S405.2,189.4,403.9,189.4z M403.9,193.5
			c-1,0-1.8-0.8-1.8-1.8s0.8-1.8,1.8-1.8c1,0,1.8,0.8,1.8,1.8S404.9,193.5,403.9,193.5z"/>
	</g>
	<path class="st1" d="M407.6,210.5c-3.2,0-5.9,2.7-5.9,5.9c0,3.2,2.7,5.9,5.9,5.9c3.2,0,5.9-2.7,5.9-5.9
		C413.5,213.1,410.9,210.5,407.6,210.5z"/>
</g>
<g id="Mollie" class="st0">
	<path class="st1" d="M285.2,181.1c-10.5,0-19.1,8.6-19.1,19.1s8.6,19.1,19.1,19.1c10.5,0,19.1-8.6,19.1-19.1
		C304.3,189.7,295.8,181.1,285.2,181.1L285.2,181.1z M285.2,210.3c-5.5,0-10-4.5-10-10s4.5-10,10-10c5.5,0,10,4.5,10,10
		S290.7,210.3,285.2,210.3z"/>
	<path class="st1" d="M348.8,174.5c3.3,0,6-2.7,6-6c0-3.3-2.7-6-6-6s-6,2.7-6,6S345.5,174.5,348.8,174.5z"/>
	<path class="st1" d="M246.2,181.2c-0.5,0-1-0.1-1.5-0.1c-4.6,0-9,1.9-12.1,5.2c-3.1-3.3-7.5-5.2-12.1-5.2
		c-9.1,0-16.6,7.4-16.6,16.6v20.9h8.9v-20.7c0-3.8,3.1-7.3,6.8-7.7c0.3,0,0.5,0,0.8,0c4.1,0,7.5,3.4,7.5,7.5v20.9h9.1v-20.7
		c0-3.8,3.1-7.3,6.8-7.6c0.3,0,0.5,0,0.8,0c4.1,0,7.5,3.4,7.5,7.5v20.9h9.1v-20.7c0-4.2-1.6-8.2-4.3-11.3
		C254.2,183.4,250.4,181.5,246.2,181.2L246.2,181.2z"/>
	<path class="st1" d="M318.4,163.5h-9.1v55.1h9.1V163.5z M335.9,163.5h-9.1v55.1h9.1V163.5z M353.3,182.1h-9.1v36.5h9.1V182.1z"/>
	<path class="st1" d="M396,199.4c0-4.8-1.9-9.4-5.3-12.9c-3.4-3.5-8-5.4-12.8-5.4h-0.2c-5,0.1-9.7,2-13.3,5.6
		c-3.5,3.6-5.5,8.3-5.6,13.3c-0.1,5.1,1.9,10,5.5,13.6c3.6,3.7,8.4,5.7,13.6,5.7h0c6.7,0,13-3.6,16.4-9.4l0.4-0.7l-7.5-3.7l-0.4,0.6
		c-1.9,3.1-5.2,5-8.8,5c-4.6,0-8.7-3.1-9.9-7.5H396V199.4z M377.6,189.4c4.2,0,7.9,2.7,9.2,6.6h-18.4
		C369.7,192.1,373.4,189.4,377.6,189.4L377.6,189.4z"/>
</g>
<g id="Paypal" class="st0">
	<path class="st10" d="M207.3,179.2h16c8.6,0,11.9,4.4,11.4,10.8c-0.8,10.6-7.2,16.4-15.7,16.4h-4.3c-1.2,0-1.9,0.8-2.3,2.9
		l-1.8,12.1c-0.1,0.8-0.5,1.2-1.2,1.3h-10.1c-0.9,0-1.3-0.7-1-2.3l6.1-38.9C204.8,179.9,205.6,179.2,207.3,179.2z"/>
	<path class="st11" d="M277,178.5c5.4,0,10.4,2.9,9.7,10.3c-0.8,8.7-5.5,13.5-12.8,13.5h-6.4c-0.9,0-1.4,0.8-1.6,2.3l-1.2,7.9
		c-0.2,1.2-0.8,1.8-1.7,1.8h-6c-1,0-1.3-0.6-1.1-2l4.9-31.7c0.2-1.6,0.8-2.1,1.9-2.1H277L277,178.5z M267.3,195.4h4.9
		c3-0.1,5.1-2.2,5.3-6c0.1-2.3-1.5-4-4-4l-4.6,0L267.3,195.4L267.3,195.4z M303,211.8c0.5-0.5,1.1-0.8,1-0.1l-0.2,1.5
		c-0.1,0.8,0.2,1.2,0.9,1.2h5.3c0.9,0,1.3-0.4,1.5-1.7l3.3-20.5c0.2-1-0.1-1.5-0.9-1.5h-5.8c-0.5,0-0.8,0.3-0.9,1.1l-0.2,1.3
		c-0.1,0.7-0.4,0.8-0.7,0.1c-1-2.3-3.5-3.4-7-3.3c-8.2,0.2-13.7,6.4-14.3,14.4c-0.5,6.2,4,11,9.8,11C299,215,300.9,213.8,303,211.8
		L303,211.8L303,211.8z M298.5,208.7c-3.5,0-6-2.8-5.5-6.3c0.5-3.4,3.8-6.3,7.3-6.3s6,2.8,5.5,6.3
		C305.3,205.8,302,208.7,298.5,208.7L298.5,208.7z M325.2,190.4h-5.4c-1.1,0-1.6,0.8-1.2,1.8l6.7,19.6l-6.6,9.3
		c-0.6,0.8-0.1,1.5,0.7,1.5h6.1c0.7,0.1,1.4-0.3,1.8-0.9l20.6-29.5c0.6-0.9,0.3-1.9-0.7-1.9h-5.7c-1,0-1.4,0.4-1.9,1.2l-8.6,12.4
		l-3.8-12.5C326.8,190.8,326.3,190.4,325.2,190.4L325.2,190.4z"/>
	<path class="st10" d="M369.2,178.5c5.4,0,10.4,2.9,9.7,10.3c-0.8,8.7-5.5,13.5-12.8,13.5h-6.4c-0.9,0-1.4,0.8-1.6,2.3l-1.2,7.9
		c-0.2,1.2-0.8,1.8-1.7,1.8h-6c-1,0-1.3-0.6-1.1-2l4.9-31.7c0.2-1.6,0.8-2.1,1.9-2.1L369.2,178.5L369.2,178.5z M359.5,195.4h4.9
		c3-0.1,5.1-2.2,5.3-6c0.1-2.3-1.5-4-4-4l-4.6,0L359.5,195.4L359.5,195.4z M395.2,211.8c0.5-0.5,1.1-0.8,1-0.1l-0.2,1.5
		c-0.1,0.8,0.2,1.2,0.9,1.2h5.3c0.9,0,1.3-0.4,1.5-1.7l3.3-20.5c0.2-1-0.1-1.5-0.9-1.5h-5.8c-0.5,0-0.8,0.3-0.9,1.1l-0.2,1.3
		c-0.1,0.7-0.4,0.8-0.7,0.1c-1-2.3-3.5-3.4-7-3.3c-8.2,0.2-13.7,6.4-14.3,14.4c-0.5,6.2,4,11,9.8,11
		C391.2,215,393.1,213.8,395.2,211.8L395.2,211.8L395.2,211.8z M390.8,208.7c-3.5,0-6-2.8-5.5-6.3c0.5-3.4,3.8-6.3,7.3-6.3
		c3.5,0,6,2.8,5.5,6.3C397.6,205.8,394.3,208.7,390.8,208.7L390.8,208.7z M415.3,214.3h-6.1c-0.4,0-0.7-0.3-0.8-0.7c0,0,0-0.1,0-0.1
		l5.4-34.1c0.1-0.5,0.5-0.8,1-0.8h6.1c0.4,0,0.7,0.3,0.8,0.7c0,0,0,0.1,0,0.1l-5.4,34.1C416.2,214,415.7,214.3,415.3,214.3
		L415.3,214.3z"/>
	<path class="st11" d="M197.3,165.8h16.1c4.5,0,9.9,0.1,13.5,3.3c2.4,2.1,3.7,5.5,3.4,9.1c-1,12.3-8.3,19.1-18.2,19.1h-7.9
		c-1.4,0-2.2,0.9-2.6,3.3l-2.2,14.1c-0.1,0.9-0.5,1.4-1.2,1.5h-9.9c-1.1,0-1.5-0.8-1.2-2.7l7.1-45.1
		C194.3,166.7,195.3,165.8,197.3,165.8z"/>
	<path class="st12" d="M201.7,199.2l2.8-17.8c0.2-1.6,1.1-2.3,2.8-2.3h16c2.7,0,4.8,0.4,6.5,1.2c-1.6,10.9-8.7,17-17.9,17H204
		C203,197.3,202.2,197.9,201.7,199.2z"/>
</g>
</svg>
