<svg id="Cabal" xmlns="http://www.w3.org/2000/svg" viewBox="0 0 65.53 65.53"><defs><style>.cls-1{fill:#152366;}.cls-1,.cls-2{fill-rule:evenodd;}.cls-2{fill:#fff;}</style></defs><polygon class="cls-1" points="65.53 65.53 65.53 0 0 0 0 65.53 65.53 65.53 65.53 65.53"/><polygon class="cls-2" points="42.57 26.44 33.64 35.38 33.64 43.62 50.83 26.43 33.64 9.24 33.64 17.5 42.57 26.44 42.57 26.44"/><polygon class="cls-2" points="22.9 26.44 31.85 17.5 31.85 9.23 14.65 26.43 31.85 43.63 31.85 35.39 22.9 26.44 22.9 26.44"/><path class="cls-2" d="M166.12,67.89h.28l-.74,3.2h-.28a3,3,0,0,0-.65-2,2,2,0,0,0-1.54-.63,3.09,3.09,0,0,0-2,.87,6.65,6.65,0,0,0-1.73,2.68,8.07,8.07,0,0,0-.57,2.89,2.73,2.73,0,0,0,.64,2,2.18,2.18,0,0,0,1.7.66,3.34,3.34,0,0,0,1.62-.38,5.08,5.08,0,0,0,1.47-1.25h.36a6.44,6.44,0,0,1-1.86,1.94,4.45,4.45,0,0,1-2.3.55,4,4,0,0,1-2.92-1.1,3.83,3.83,0,0,1-1.12-2.88,6.3,6.3,0,0,1,.88-3.17,7.17,7.17,0,0,1,5.85-3.38,5.79,5.79,0,0,1,1.55.27,3,3,0,0,0,.66.14,1,1,0,0,0,.74-.41Z" transform="translate(-147.4 -21.21)"/><path class="cls-2" d="M172,71.06l-.2,3.28h-2.61L172,71.06Zm-.47,6.33a1.05,1.05,0,0,1-.38.42,3.79,3.79,0,0,1-.74.11l-.09.28h4.36l.07-.28a1,1,0,0,1-.67-.27,1.09,1.09,0,0,1-.21-.74c0-.08,0-.34,0-.77l.33-8.25h-.33l-7.14,8.52a6.83,6.83,0,0,1-1.2,1.22,1.67,1.67,0,0,1-.71.29l-.07.28h3v-.28a1.18,1.18,0,0,1-.63-.18.43.43,0,0,1-.18-.33.72.72,0,0,1,.07-.34,3,3,0,0,1,.31-.5l.7-.85.63-.77h3.12l-.06,1.28a3.32,3.32,0,0,1-.21,1.16Z" transform="translate(-147.4 -21.21)"/><path class="cls-2" d="M181.9,68.66a1.24,1.24,0,0,1,1,.34,1.29,1.29,0,0,1,.36,1,2.79,2.79,0,0,1-.35,1.3,2.22,2.22,0,0,1-.93,1,3.57,3.57,0,0,1-1.6.32l1.14-3.91ZM179,68.6a.52.52,0,0,1,.21.43,5.29,5.29,0,0,1-.27,1.26l-1.78,6.19a4.22,4.22,0,0,1-.39,1,.88.88,0,0,1-.42.34,2.23,2.23,0,0,1-.87.12l-.1.28h4.19a10.56,10.56,0,0,0,3.24-.35,3.12,3.12,0,0,0,1.41-1.09,2.58,2.58,0,0,0,.54-1.51,2.11,2.11,0,0,0-.54-1.44,4.09,4.09,0,0,0-2-1,7.73,7.73,0,0,0,2-.66,2.43,2.43,0,0,0,1-.92,2.15,2.15,0,0,0,.33-1.1,1.88,1.88,0,0,0-.4-1.17,2,2,0,0,0-1.17-.68,9,9,0,0,0-1.9-.15h-4l-.08.28a1.81,1.81,0,0,1,1,.2l2.55,4.68a1.4,1.4,0,0,1,.65.54,1.71,1.71,0,0,1,.24.9,3.35,3.35,0,0,1-.65,2,2.63,2.63,0,0,1-2.29.93l-.56,0,1.28-4.48a4.08,4.08,0,0,1,1.33.16L179,68.6Z" transform="translate(-147.4 -21.21)"/><path class="cls-2" d="M192.22,71.06,192,74.34h-2.6l2.79-3.28Zm-.47,6.33a1,1,0,0,1-.37.42,4,4,0,0,1-.75.11l-.07.28h4.34l.08-.28a1,1,0,0,1-.68-.27,1.15,1.15,0,0,1-.19-.74c0-.08,0-.34,0-.77l.33-8.25h-.33L187,76.41a7.23,7.23,0,0,1-1.19,1.22,1.76,1.76,0,0,1-.72.29l-.07.28h3v-.28a1.12,1.12,0,0,1-.63-.18.41.41,0,0,1-.19-.33.86.86,0,0,1,.07-.34,2.86,2.86,0,0,1,.3-.5l.72-.85.63-.77H192L192,76.23a3.1,3.1,0,0,1-.21,1.16Z" transform="translate(-147.4 -21.21)"/><path class="cls-2" d="M204.82,75.37l-1.11,2.83h-8l.07-.28a1.55,1.55,0,0,0,1-.28,2.54,2.54,0,0,0,.62-1.25l1.87-6.47a2.86,2.86,0,0,0,.15-.83.52.52,0,0,0-.23-.48,1.51,1.51,0,0,0-.86-.21l.09-.28h4.83l-.09.28a1.52,1.52,0,0,0-1,.32,2.57,2.57,0,0,0-.61,1.2l-1.71,5.92a8.94,8.94,0,0,0-.33,1.37.37.37,0,0,0,.16.28,1,1,0,0,0,.55.14,5.28,5.28,0,0,0,2.37-.58,5,5,0,0,0,1.94-1.68Z" transform="translate(-147.4 -21.21)"/></svg>