<svg id="Caixa" xmlns="http://www.w3.org/2000/svg" viewBox="0 0 67.58 66.32"><defs><style>.cls-1{fill:#4a7eb6;}.cls-1,.cls-2,.cls-3,.cls-4{fill-rule:evenodd;}.cls-2{fill:#f7bf13;}.cls-3{fill:#f7200d;}.cls-5{fill:none;stroke:#000;stroke-miterlimit:2.61;stroke-width:1.46px;}</style></defs><path class="cls-1" d="M193.84,36.78s29,37.08,6.23,21.24c0,0-11.52-9.51-17.64-13.31,0,0-21.77,48.38-8.46-2,0,0-46.38-6.13-.21-8.14,0,0-13.31-18.17,9.51-3.17,0,0,37.4-25.88,9.93,5.18l.64.21Z" transform="translate(-146.36 -21.28)"/><path class="cls-2" d="M169.11,46.08c0,1.48-1.47,2.64-3.27,2.64a2.9,2.9,0,0,1-3.17-2.64c0-1.37,1.37-2.54,3.17-2.54s3.27,1.17,3.27,2.54Z" transform="translate(-146.36 -21.28)"/><path class="cls-3" d="M167.74,58.12c0,3.17-2.11,5.81-4.65,5.81s-4.65-2.64-4.65-5.81,2-5.7,4.65-5.7,4.65,2.53,4.65,5.7Z" transform="translate(-146.36 -21.28)"/><path class="cls-4" d="M156,85.38c0,1.06.11,1.27,1.38,1.37v.53h-4.76v-.53c1.17-.1,1.27-.31,1.27-1.37V75.55c0-1.16,0-1.16-1.27-1.26v-.53A24.54,24.54,0,0,0,156,73V85.38Z" transform="translate(-146.36 -21.28)"/><path class="cls-4" d="M161.93,85.59a3.75,3.75,0,0,1-1.37.63c-.53,0-1.17-.52-1.17-1.58a1.5,1.5,0,0,1,1-1.48c.31-.21,1.16-.63,1.58-.84v3.27Zm3.28.32a2.44,2.44,0,0,1-.74.31c-.32,0-.64-.31-.64-1.16V80.73a2,2,0,0,0-.84-1.9,2.47,2.47,0,0,0-1.69-.53,10.34,10.34,0,0,0-3.38,1.48,1.1,1.1,0,0,0-.53,1,.93.93,0,0,0,1,.85c.32,0,.63-.11.63-.43a3.17,3.17,0,0,1,.74-1.48.82.82,0,0,1,.74-.31c1,0,1.48.53,1.48,1.69v.53A16.42,16.42,0,0,1,158.66,83a2.19,2.19,0,0,0-1.48,2.11,2.46,2.46,0,0,0,2.43,2.43,8.63,8.63,0,0,0,2.32-1.27,1.5,1.5,0,0,0,1.48,1.27l2-1-.21-.53Z" transform="translate(-146.36 -21.28)"/><path class="cls-4" d="M179.36,76.61c-.74-2.53-2.11-3.38-4.22-3.38-3.6,0-5.29,3.06-5.29,6.44,0,4.13,2,7,5.29,7,2.43,0,3.59-1.27,4.75-3.59l.63.1c-.31,1.06-.84,2.85-1.16,3.7a16.16,16.16,0,0,1-4.22.74c-5.81,0-8.14-3.91-8.14-7.4,0-4.65,3.59-7.82,8.56-7.82a19.5,19.5,0,0,1,4,.53c.21,1.27.32,2.33.43,3.6l-.64.1Z" transform="translate(-146.36 -21.28)"/><path class="cls-4" d="M185.6,85.17a2.3,2.3,0,0,1-1.38.63c-.42,0-1.05-.42-1.05-1.48A1.36,1.36,0,0,1,184,83a10.82,10.82,0,0,1,1.59-.74v3Zm3.06.42a1.88,1.88,0,0,1-.74.21c-.21,0-.53-.31-.53-1V80.63a2.11,2.11,0,0,0-.74-1.8A2.88,2.88,0,0,0,185,78.3a10.11,10.11,0,0,0-3.17,1.48c-.42.32-.63.53-.63.85s.63.84,1.05.84c.22,0,.53-.21.53-.42a3.38,3.38,0,0,1,.64-1.38,1.31,1.31,0,0,1,.84-.42c.85,0,1.38.53,1.38,1.69v.53a33.61,33.61,0,0,1-3.17,1.27,2,2,0,0,0-1.38,2,2.28,2.28,0,0,0,2.33,2.32,11.76,11.76,0,0,0,2.22-1.16A1.37,1.37,0,0,0,187,87.07l1.9-1.06-.21-.42Z" transform="translate(-146.36 -21.28)"/><path class="cls-4" d="M191.93,85.06c0,1.06.22,1.16,1.27,1.27v.53h-4.33v-.53c1.16-.11,1.27-.21,1.27-1.27V80.94c0-1-.11-1.16-1.16-1.27v-.42a15.8,15.8,0,0,0,3-.63v6.44Zm.22-9.51a1.17,1.17,0,1,1-2.33,0,1.17,1.17,0,1,1,2.33,0Z" transform="translate(-146.36 -21.28)"/><path class="cls-4" d="M201.44,79.25v.42a2.37,2.37,0,0,0-2.11,1.06c-.11.21-.63.85-1.27,1.69l1.8,2.64a2,2,0,0,0,1.9,1.27v.53h-4.23v-.53l.53-.11c.32,0,.32-.21.11-.63L197,83.9c-.32.53-.74,1.16-1.06,1.69s-.21.63,0,.63l.53.11v.53H193.2v-.53a2.3,2.3,0,0,0,2-1.16c.42-.42.84-1.16,1.48-1.9L195,80.73a1.69,1.69,0,0,0-1.59-1.06v-.42h3.81v.42l-.43.11c-.31,0-.31.21-.1.53l.95,1.48a5.26,5.26,0,0,0,1-1.38c.32-.42.42-.63,0-.63l-.42-.11v-.42Z" transform="translate(-146.36 -21.28)"/><path class="cls-4" d="M206.51,85.27a2,2,0,0,1-1.37.64A1.47,1.47,0,0,1,204,84.32a1.73,1.73,0,0,1,1-1.48c.42-.21,1.16-.52,1.58-.74v3.17Zm3.38.43a3.41,3.41,0,0,1-.84.21c-.32,0-.53-.32-.53-1.16V80.52a2.32,2.32,0,0,0-.84-2,3.1,3.1,0,0,0-1.8-.42,6.78,6.78,0,0,0-3.28,1.48c-.42.32-.63.63-.63.84a1.05,1.05,0,0,0,1.06,1,.68.68,0,0,0,.63-.53,2.41,2.41,0,0,1,.64-1.48,1.53,1.53,0,0,1,.84-.32c.85,0,1.37.53,1.37,1.8v.53c-.63.31-2.21.95-3.17,1.37a2.13,2.13,0,0,0-1.58,2.11,2.48,2.48,0,0,0,2.54,2.43A19.07,19.07,0,0,0,206.62,86,1.55,1.55,0,0,0,208,87.28l2.12-1.16-.22-.42Z" transform="translate(-146.36 -21.28)"/><path class="cls-4" d="M213.8,73.86a3.44,3.44,0,0,1,.11,1.27A6.9,6.9,0,0,1,212.22,78h-.63a3,3,0,0,0,.63-2.74c-.11-.85-.63-1.06-.74-1.59a.65.65,0,0,1,.21-.74,1,1,0,0,1,.85-.31,1,1,0,0,1,.74.31,2.73,2.73,0,0,1,.52,1Z" transform="translate(-146.36 -21.28)"/><path class="cls-4" d="M210.63,73.76a1.78,1.78,0,0,1,.11,1.37A6.43,6.43,0,0,1,209.05,78h-.53a4,4,0,0,0,.64-2.74c-.22-.85-.74-1.16-.85-1.59s.11-.63.21-.84a1.21,1.21,0,0,1,.85-.32.84.84,0,0,1,.74.32,2.64,2.64,0,0,1,.52,1Z" transform="translate(-146.36 -21.28)"/><path class="cls-4" d="M151.79,74.29a1.78,1.78,0,0,1,.1,1.37,5.94,5.94,0,0,1-1.58,2.85h-.64a3.14,3.14,0,0,0,.64-2.74c-.11-.85-.74-1.17-.85-1.69a1.13,1.13,0,0,1,.32-.74.93.93,0,0,1,.74-.32,1,1,0,0,1,.85.32,1.56,1.56,0,0,1,.42,1Z" transform="translate(-146.36 -21.28)"/><path class="cls-4" d="M148.72,74.29a3.44,3.44,0,0,1,.11,1.26,6.93,6.93,0,0,1-1.69,2.86h-.63a3.34,3.34,0,0,0,.74-2.64c-.22-1-.74-1.17-.85-1.69a.65.65,0,0,1,.21-.74,1,1,0,0,1,.85-.32,1,1,0,0,1,.74.32,2.64,2.64,0,0,1,.52,1Z" transform="translate(-146.36 -21.28)"/><line class="cls-5" x1="6.8" y1="47.62" x2="63.11" y2="47.62"/></svg>