<svg id="Carnet" xmlns="http://www.w3.org/2000/svg" viewBox="0 0 90.7 66.34"><defs><style>.cls-1{fill:#fa0f0c;}.cls-2{fill:#fff;}</style></defs><rect class="cls-1" width="90.7" height="66.34"/><path class="cls-2" d="M182.79,46.57c13.48,0,24.66,5.16,26.89,11.93a7.79,7.79,0,0,0,.43-2.48c0-8-12.23-14.41-27.32-14.41S155.46,48.06,155.46,56a8.08,8.08,0,0,0,.43,2.48C158.13,51.73,169.3,46.57,182.79,46.57Zm0-8.57c13.48,0,24.66,5.15,26.89,11.92a7.74,7.74,0,0,0,.43-2.48c0-7.95-12.23-14.4-27.32-14.4s-27.33,6.45-27.33,14.4a8,8,0,0,0,.43,2.48C158.13,43.15,169.3,38,182.79,38ZM194,72.49l-5.61-7.15h-2.67V76h2.55V69l5.53,7h2.75V65.34H194ZM152,73.8a3.29,3.29,0,0,1-1.89.55,3.42,3.42,0,0,1-2.41-.86,3.8,3.8,0,0,1-.93-2.88A3.14,3.14,0,0,1,150.14,67a3.43,3.43,0,0,1,1.86.48,2.24,2.24,0,0,1,1,1.3l2.73-.5a4.07,4.07,0,0,0-1.4-2,6.65,6.65,0,0,0-4.06-1.16,7,7,0,0,0-4.62,1.47,5.11,5.11,0,0,0-1.76,4.13,4.9,4.9,0,0,0,1.75,4,6.81,6.81,0,0,0,4.46,1.45,7.07,7.07,0,0,0,3.63-.85,4.75,4.75,0,0,0,2-2.61l-2.67-.64A3,3,0,0,1,152,73.8Zm59.28-8.46v1.81h4.05V76h2.76V67.15h4V65.34Zm-9,6h6.84V69.5h-6.84V67.15h7.35V65.34H199.5V76h10.38V74.2h-7.62ZM181,72.2a6.37,6.37,0,0,0-1.47-.9,4.86,4.86,0,0,0,2.69-1,2.53,2.53,0,0,0,.9-2,2.63,2.63,0,0,0-.59-1.68,3.1,3.1,0,0,0-1.59-1,12.6,12.6,0,0,0-3.18-.29H172V76h2.76V71.56h.56a5.84,5.84,0,0,1,1.39.12,2.23,2.23,0,0,1,.83.44,15.86,15.86,0,0,1,1.45,1.55l2,2.33h3.3l-1.67-2.07A13.12,13.12,0,0,0,181,72.2Zm-4.25-2.34h-2V67.15h2.14q1.68,0,2,0a1.91,1.91,0,0,1,1,.42,1.13,1.13,0,0,1,.37.87,1.24,1.24,0,0,1-.28.81,1.6,1.6,0,0,1-.77.45A14.26,14.26,0,0,1,176.74,69.86Zm-14.66-4.52L156.77,76h2.93l1.13-2.42h5.45L167.47,76h3L165,65.34Zm-.41,6.44,1.85-4,1.87,4Z" transform="translate(-138.08 -21.56)"/></svg>