<svg id="Cartao_MercadoLivre" data-name="Cartao MercadoLivre" xmlns="http://www.w3.org/2000/svg" viewBox="0 0 72.32 65.47"><defs><style>.cls-1{fill:#293277;}.cls-2{fill:#f4e619;}.cls-3{fill:#fff;}</style></defs><path class="cls-1" d="M158,73.93h.67v13.5h-2.55V75.57A2.23,2.23,0,0,1,158,73.93Zm14,3a3.23,3.23,0,0,0-2.89,1.59V73.93h-.29a2.48,2.48,0,0,0-2.27,1.25v7.67c0,3,1.59,4.58,4.77,4.58s4.73-1.79,4.73-5.16-1.35-5.26-4-5.35Zm-.77,8.29c-1.45,0-2.17-1.06-2.12-3.09s.77-2.94,2.17-2.94,2.07,1,2.17,2.94S172.69,85.21,171.25,85.21Zm6.31-3.09c.1-3.28,1.69-5.11,5.11-5.11h.77v2.65h-1.2c-1.45,0-2.07.92-2.07,2.41v5.31h-2.61Zm9.93,2.65a2.57,2.57,0,0,0,1.79.58,2.3,2.3,0,0,0,1.4-.43,2,2,0,0,0,.72-.87h2.41A4.49,4.49,0,0,1,192,86.61a5.11,5.11,0,0,1-2.9.77A6,6,0,0,1,187,87a4.62,4.62,0,0,1-1.59-1.06,5.19,5.19,0,0,1-1-1.64,5.93,5.93,0,0,1-.34-2.12,5.86,5.86,0,0,1,.39-2.07,4.75,4.75,0,0,1,2.6-2.75,4.81,4.81,0,0,1,2.07-.39,4.68,4.68,0,0,1,2.22.49,4.37,4.37,0,0,1,1.54,1.3,5.52,5.52,0,0,1,.87,1.88,6.7,6.7,0,0,1,.19,2.22h-7.18a3.15,3.15,0,0,0,.72,1.92Zm3.09-5.2a2,2,0,0,0-1.49-.53,2.43,2.43,0,0,0-1.11.24,2,2,0,0,0-.68.53,2.28,2.28,0,0,0-.38.67,4.24,4.24,0,0,0-.15.68h4.44a2.43,2.43,0,0,0-.63-1.59Zm-29.12-5.64H164v2.31h-2.56Zm0,3.47H164v10h-2.56Zm46.62-8.82a2.34,2.34,0,0,1-3.47,0,4.63,4.63,0,0,1,0-4.49,2.34,2.34,0,0,1,3.47,0,3.39,3.39,0,0,1,.58,2.22A3.73,3.73,0,0,1,208.08,68.58Zm2-6A4.52,4.52,0,0,0,206.35,61a4.35,4.35,0,0,0-3.77,1.59,6,6,0,0,0-1.25,3.66,5.55,5.55,0,0,0,1.25,3.67,4.53,4.53,0,0,0,3.77,1.54,4.45,4.45,0,0,0,3.76-1.54,6,6,0,0,0,1.25-3.67,5.4,5.4,0,0,0-1.25-3.66m-12.54,6a1.94,1.94,0,0,1-1.64.77,1.79,1.79,0,0,1-1.59-.77,4.4,4.4,0,0,1-.48-2.27,3.74,3.74,0,0,1,.48-2.07,1.74,1.74,0,0,1,1.64-.87,2.09,2.09,0,0,1,1.3.43,3.49,3.49,0,0,1,.92,2.7,4.65,4.65,0,0,1-.63,2.08Zm3-10.51s-2.6-.29-2.6,1.78V62.6a3.64,3.64,0,0,0-1.16-1.11,2.85,2.85,0,0,0-1.59-.34,3.89,3.89,0,0,0-3.14,1.45,6.23,6.23,0,0,0-1.15,4.05,4.86,4.86,0,0,0,1.15,3.52,5,5,0,0,0,3.67,1.3c4.77,0,4.67-4,4.67-4Zm-12.82,9.3a2.1,2.1,0,0,1-.73,1.78,3,3,0,0,1-1.54.49,1.13,1.13,0,0,1-.87-.29,1.15,1.15,0,0,1-.34-.92,1.25,1.25,0,0,1,.58-1.11A2.67,2.67,0,0,1,186,67l.58-.14a4.53,4.53,0,0,1,.72-.14c.15,0,.34-.15.48-.2Zm1.3-5.64a6.31,6.31,0,0,0-2.9-.63,4.26,4.26,0,0,0-3.51,1.3,4.12,4.12,0,0,0-.73,2.08h2.46a2.26,2.26,0,0,1,.34-.87,1.76,1.76,0,0,1,1.3-.43,2.85,2.85,0,0,1,1.25.19.87.87,0,0,1,.44.87.76.76,0,0,1-.58.72,7.71,7.71,0,0,1-1,.19l-.87,0a7,7,0,0,0-2.27.63,3.13,3.13,0,0,0-.53,4.77,3.64,3.64,0,0,0,2.22.77c5.64.19,5.59-3,5.59-3.61V64.09a2.33,2.33,0,0,0-1.2-2.36m-12.78,1.59a1.81,1.81,0,0,1,1.45.58,1.84,1.84,0,0,1,.33,1h2.75A3.56,3.56,0,0,0,179.35,62a5.29,5.29,0,0,0-3.19-.77,4.56,4.56,0,0,0-3.61,1.4,5.59,5.59,0,0,0-1.3,3.9,5.12,5.12,0,0,0,1.15,3.62,5.33,5.33,0,0,0,7.43-.24,5.16,5.16,0,0,0,.87-2.27H178a2.2,2.2,0,0,1-.48,1.25,1.88,1.88,0,0,1-1.4.49,1.75,1.75,0,0,1-1.79-1.26,5.51,5.51,0,0,1-.28-1.73,3.78,3.78,0,0,1,.28-1.79,2,2,0,0,1,2-1.3m-5.74-2.17c-5.73,0-5.35,5.06-5.35,5.06v5.11h2.61V66.55a3.18,3.18,0,0,1,.29-1.73,2.14,2.14,0,0,1,2.07-1h.29a1.27,1.27,0,0,1,.43.05v-2.6h-.19c0-.1,0-.1-.15-.1M157.6,63.8a2.2,2.2,0,0,1,1.55-.58,2.44,2.44,0,0,1,1.54.49,1.83,1.83,0,0,1,.63,1.54h-4.44A3.06,3.06,0,0,1,157.6,63.8Zm3.47,4.78a.57.57,0,0,1-.33.33,2.24,2.24,0,0,1-1.45.34,2.17,2.17,0,0,1-1.4-.34,2.23,2.23,0,0,1-1-2H164A19.23,19.23,0,0,0,164,65a4.74,4.74,0,0,0-.77-2,4.34,4.34,0,0,0-1.64-1.45,5.68,5.68,0,0,0-2.32-.44,4.43,4.43,0,0,0-3.47,1.4,5.5,5.5,0,0,0-1.4,3.91,4.54,4.54,0,0,0,1.55,3.9,5.68,5.68,0,0,0,3.47,1.26,4.59,4.59,0,0,0,3.66-1.45,3,3,0,0,0,.87-1.54Zm-7.81,2.7h-2.41V65.35a1.59,1.59,0,0,0-1.73-1.79,1.73,1.73,0,0,0-1.79,1.79v5.93h-2.41V65.35a1.59,1.59,0,0,0-1.73-1.79,1.69,1.69,0,0,0-1.74,1.79v5.93H139V65.39a4,4,0,0,1,4.1-4.34,3.66,3.66,0,0,1,3,1.4,3.79,3.79,0,0,1,3-1.4c2.6,0,4.1,1.79,4.1,4.34Zm45-34.33c0-8.24-10.27-15-22.95-15s-23,6.75-23,15v.87c0,8.77,9,15.86,23,15.86s22.95-7.09,22.95-15.86Z" transform="translate(-139.04 -21.96)"/><path class="cls-2" d="M197.43,37c0,7.76-9.89,14.08-22,14.08s-22-6.32-22-14.08,9.88-14.08,22-14.08S197.43,29.19,197.43,37Z" transform="translate(-139.04 -21.96)"/><path class="cls-3" d="M168.07,32.51s-.25.24-.1.44a2.79,2.79,0,0,0,2.51.43,7.36,7.36,0,0,0,2.26-1.44,8.54,8.54,0,0,1,2.61-1.64,3.07,3.07,0,0,1,1.88-.05,7,7,0,0,1,1.73,1c1.5,1.11,7.57,6.41,8.63,7.33a52.83,52.83,0,0,1,9.69-3.14,11.91,11.91,0,0,0-4.58-7.23c-3.47,1.45-7.76,2.22-12,.2a11.8,11.8,0,0,0-4.53-1c-3.32.1-4.72,1.5-6.26,3Z" transform="translate(-139.04 -21.96)"/><path class="cls-3" d="M187.35,39.17c0-.05-7.14-6.22-8.73-7.43a4.4,4.4,0,0,0-2-1,2.3,2.3,0,0,0-1,.09,9.09,9.09,0,0,0-2.6,1.55A7,7,0,0,1,170.57,34a3.85,3.85,0,0,1-2.75-.43,1.32,1.32,0,0,1-.48-.53.9.9,0,0,1,.24-.92L169.51,30l.68-.68c-.63.1-1.21.24-1.79.39a8.33,8.33,0,0,1-2.07.38,17.27,17.27,0,0,1-2.12-.33,32.23,32.23,0,0,1-5.64-2,12.55,12.55,0,0,0-5.16,7.48c.39.09,1.06.28,1.3.33,6.27,1.4,8.2,2.85,8.58,3.14a2,2,0,0,1,1.55-.68,2.09,2.09,0,0,1,1.68.87,2.33,2.33,0,0,1,1.5-.53,3.42,3.42,0,0,1,.91.14,2,2,0,0,1,1.26,1.16,2.22,2.22,0,0,1,.86-.19,3,3,0,0,1,1.07.24,2.26,2.26,0,0,1,1.25,2.51h.24a2.48,2.48,0,0,1,2.51,2.5,2.32,2.32,0,0,1-.29,1.16,4.24,4.24,0,0,0,2.17.58c.67-.1.91-.29,1-.44s.14-.19.05-.28l-1.79-2s-.29-.29-.19-.39.29,0,.43.15c.92.77,2,1.88,2,1.88a.88.88,0,0,0,.48.24,2,2,0,0,0,1.4-.34,1.33,1.33,0,0,0,.29-.29,1,1,0,0,0,0-1.15l-2.07-2.32s-.29-.29-.19-.38.29,0,.43.14a33.83,33.83,0,0,1,2.46,2.36,1.63,1.63,0,0,0,2-.05,1.37,1.37,0,0,0,.72-1.3,1.68,1.68,0,0,0-.43-.87l-2.8-2.84s-.29-.24-.19-.39.29.05.43.15c.92.77,3.33,3,3.33,3a1.78,1.78,0,0,0,1.93,0,1.18,1.18,0,0,0,.62-1A1.36,1.36,0,0,0,187.35,39.17Z" transform="translate(-139.04 -21.96)"/><path class="cls-3" d="M173.71,42.78a3.29,3.29,0,0,0-1,.24c-.05,0,0-.19,0-.29s.63-1.83-.77-2.45a1.54,1.54,0,0,0-1.93.29c-.05,0-.1,0-.1,0a1.52,1.52,0,0,0-1.1-1.45,2.12,2.12,0,0,0-2.42.87,1.55,1.55,0,1,0-1.54,1.73,1.4,1.4,0,0,0,1.06-.43v.05a2,2,0,0,0,1.26,2.31,1.49,1.49,0,0,0,1.49-.24c.15-.1.15,0,.15.05,0,.34,0,1.11,1.1,1.54a1.31,1.31,0,0,0,1.59-.29c.15-.14.2-.1.2.1a1.93,1.93,0,1,0,1.93-2Z" transform="translate(-139.04 -21.96)"/><path class="cls-1" d="M187.64,38.44c-2.17-1.88-7.18-6.26-8.58-7.28a5.08,5.08,0,0,0-1.79-1,3.11,3.11,0,0,0-.86-.14,3,3,0,0,0-1.11.19,9.63,9.63,0,0,0-2.61,1.64l0,.05a7.33,7.33,0,0,1-2.22,1.4,5.71,5.71,0,0,1-.82.09,2.16,2.16,0,0,1-1.54-.48s0-.15.09-.24l1.93-2.07c1.49-1.5,2.89-2.9,6.17-3h.15a11.84,11.84,0,0,1,4.29,1,13.53,13.53,0,0,0,5.83,1.4,15.31,15.31,0,0,0,6.41-1.55l-.77-.62a13.74,13.74,0,0,1-5.64,1.25,12.39,12.39,0,0,1-5.45-1.3,12,12,0,0,0-4.67-1.11h-.2a7.82,7.82,0,0,0-5.3,1.88,10.53,10.53,0,0,0-2.65.48,6.81,6.81,0,0,1-1.88.34h-.73A31.64,31.64,0,0,1,159,27.5c-.29.19-.53.39-.82.58a34.82,34.82,0,0,0,7.28,2.12c.29,0,.63.05,1,.05a8.32,8.32,0,0,0,2.12-.39c.43-.09.87-.24,1.3-.34l-.38.39L167.49,32a1,1,0,0,0-.29,1.06,1.76,1.76,0,0,0,.53.58,4.36,4.36,0,0,0,2.07.53,4.09,4.09,0,0,0,.82-.1,7,7,0,0,0,2.56-1.59,9.4,9.4,0,0,1,2.5-1.54,3.57,3.57,0,0,1,.73-.1h.19a3.79,3.79,0,0,1,1.93.92c1.59,1.21,8.68,7.38,8.72,7.43a1.47,1.47,0,0,1,.44,1.06,1.22,1.22,0,0,1-.58.91,1.74,1.74,0,0,1-.92.29,1.54,1.54,0,0,1-.82-.24l-3.32-3a.7.7,0,0,0-.44-.24.26.26,0,0,0-.19.1c-.14.19,0,.43.19.57l2.85,2.85a1.51,1.51,0,0,1,.38.77,1.27,1.27,0,0,1-.67,1.16,1.72,1.72,0,0,1-1,.34,1.54,1.54,0,0,1-.82-.25l-.44-.38a22.77,22.77,0,0,0-2.07-1.93c-.15-.1-.29-.24-.43-.24a.2.2,0,0,0-.2.1s-.09.19.05.43a.32.32,0,0,0,.15.14L181.47,44s.43.53.05,1l-.1.1-.19.19a1.67,1.67,0,0,1-1,.34h-.28a1,1,0,0,1-.44-.19,22.09,22.09,0,0,0-2-1.88.59.59,0,0,0-.39-.2.35.35,0,0,0-.19.1c-.15.19.09.48.19.58l1.78,1.93a.45.45,0,0,1,0,.14c0,.1-.29.29-.92.39h-.24a4.16,4.16,0,0,1-1.74-.53,2.81,2.81,0,0,0,.25-1.11,2.6,2.6,0,0,0-2.61-2.61h-.09a2.3,2.3,0,0,0-1.35-2.45A3,3,0,0,0,171,39.5a2.37,2.37,0,0,0-.82.15,2.29,2.29,0,0,0-1.3-1.11,3.25,3.25,0,0,0-1-.14,2.28,2.28,0,0,0-1.45.48,2.19,2.19,0,0,0-1.73-.82,2.23,2.23,0,0,0-1.54.62c-.53-.43-2.7-1.78-8.54-3.13a10.45,10.45,0,0,1-1.3-.38c-.05.28-.1.62-.14,1l1.3.29c5.93,1.3,7.9,2.7,8.24,2.94a2.93,2.93,0,0,0-.14.87,2.21,2.21,0,0,0,2.22,2.22,1.3,1.3,0,0,0,.43-.05,2.58,2.58,0,0,0,2.46,2.07,2.09,2.09,0,0,0,.53,0,2.15,2.15,0,0,0,1.4,1.3,1.83,1.83,0,0,0,.86.2,1.48,1.48,0,0,0,.68-.15,2.62,2.62,0,0,0,2.41,1.64,2.52,2.52,0,0,0,1.88-.82,4.81,4.81,0,0,0,2.22.68h.34a2,2,0,0,0,1.49-.73c.05,0,.05-.09.1-.14a2.82,2.82,0,0,0,.72.09,2.25,2.25,0,0,0,1.45-.53,1.71,1.71,0,0,0,.82-1.25,1.54,1.54,0,0,0,.48,0,2.65,2.65,0,0,0,1.49-.48,2.14,2.14,0,0,0,1.06-1.88,1.6,1.6,0,0,0,.48.05,2.49,2.49,0,0,0,1.4-.44,2,2,0,0,0,1-1.54,2.32,2.32,0,0,0-.29-1.26,59.21,59.21,0,0,1,9.16-2.89,3.2,3.2,0,0,0-.15-1,48.54,48.54,0,0,0-9.59,3.08Zm-13.93,8.05a1.8,1.8,0,0,1-1.79-1.73c0-.1,0-.29-.19-.29s-.15.05-.24.1a1.22,1.22,0,0,1-.87.38,1.37,1.37,0,0,1-.58-.14c-1-.44-1.06-1.11-1-1.4,0-.1,0-.15-.05-.19l0,0h0a.25.25,0,0,0-.2.09,1.51,1.51,0,0,1-.87.29,1.69,1.69,0,0,1-.48-.09,1.81,1.81,0,0,1-1.15-2.17c0-.1,0-.15-.05-.19L166,41l-.1.1a1.52,1.52,0,0,1-1,.38,1.4,1.4,0,0,1,0-2.8,1.46,1.46,0,0,1,1.4,1.21l.05.39.19-.34a1.85,1.85,0,0,1,1.64-.87,3.38,3.38,0,0,1,.63.1,1.36,1.36,0,0,1,1,1.3c0,.19.14.19.14.19s.15,0,.15-.1a1.42,1.42,0,0,1,1-.43,1.7,1.7,0,0,1,.77.19c1.3.58.73,2.22.73,2.27-.1.29-.15.39,0,.48h.09a.49.49,0,0,0,.24,0,3.41,3.41,0,0,1,.68-.14,1.81,1.81,0,0,1,1.78,1.78,1.72,1.72,0,0,1-1.73,1.83Z" transform="translate(-139.04 -21.96)"/></svg>