<svg id="Cashfree" xmlns="http://www.w3.org/2000/svg" viewBox="0 0 199.35 53.33"><defs><style>.cls-1{fill:#1f074f;}.cls-2{fill:#04ab61;}.cls-3,.cls-4{fill:#fbb016;}.cls-3{fill-rule:evenodd;}</style></defs><path class="cls-1" d="M130.85,64a9.4,9.4,0,0,0-6.06-1.71h-8.71v20.9h4.5v-6h3.17a11.52,11.52,0,0,0,4.11-.68,8.29,8.29,0,0,0,2.91-1.82,7.16,7.16,0,0,0,1.69-2.67,8.56,8.56,0,0,0,.56-3.14A5.66,5.66,0,0,0,130.85,64ZM128,71.3a3.7,3.7,0,0,1-1.56,1.75,5.36,5.36,0,0,1-2.77.63h-3.08v-8h4.21a4.46,4.46,0,0,1,2.68.72,2.74,2.74,0,0,1,1,2.42A5.42,5.42,0,0,1,128,71.3Z" transform="translate(-76.29 -36.57)"/><path class="cls-1" d="M150.92,78.89V73.68a7.84,7.84,0,0,0-.65-3.42,4.66,4.66,0,0,0-1.69-2.06,7.12,7.12,0,0,0-2.64-1,16.61,16.61,0,0,0-3.25-.28,22.78,22.78,0,0,0-2.86.2,13.18,13.18,0,0,0-2.56.55v3.22h.3a11.67,11.67,0,0,1,2-.56,14.32,14.32,0,0,1,2.55-.27,8.91,8.91,0,0,1,2.43.27,2.22,2.22,0,0,1,1.47,1,3.87,3.87,0,0,1,.52,2.22v.28a6.48,6.48,0,0,0-.95-.16,13.75,13.75,0,0,0-2.38-.2,13.31,13.31,0,0,0-4,.56,5.56,5.56,0,0,0-2.64,1.63,4.28,4.28,0,0,0-.91,2.82,4.1,4.1,0,0,0,2,3.85,11.92,11.92,0,0,0,6,1.2,17.83,17.83,0,0,0,2.47-.16,25.46,25.46,0,0,0,2.52-.4,18,18,0,0,0,2.34-.68l.08-.23a9.54,9.54,0,0,1-.17-1.39C151,80.08,150.92,79.48,150.92,78.89Zm-5.11,1.59a12.42,12.42,0,0,1-2.13.16,6,6,0,0,1-2.81-.52,1.82,1.82,0,0,1-1-1.71,1.91,1.91,0,0,1,1-1.79,6.83,6.83,0,0,1,3.07-.51,11.5,11.5,0,0,1,1.91.15l.74.12v2.31c0,.32,0,.59,0,.83s.09.44.13.64A3.8,3.8,0,0,1,145.81,80.48Z" transform="translate(-76.29 -36.57)"/><polygon class="cls-1" points="86.2 41.8 82.13 30.72 77.4 30.72 77.4 31.07 83.99 46.89 81.22 52.97 81.22 53.33 85.64 53.33 95.04 31.07 95.04 30.72 90.58 30.72 86.2 41.8"/><path class="cls-1" d="M198.46,68.28A6.6,6.6,0,0,0,196,67.2a14.42,14.42,0,0,0-2.9-.27,15.53,15.53,0,0,0-3.21.35,16.92,16.92,0,0,0-2.56.76,5.89,5.89,0,0,0-2-.76,14.32,14.32,0,0,0-2.9-.31,22,22,0,0,0-2.73.2,26.08,26.08,0,0,0-2.69.51,13.39,13.39,0,0,0-2.25.68l-.09.24a5.68,5.68,0,0,1,.18,1.43c0,.59.08,1.19.08,1.78s0,1.12,0,1.47v9.9h4.42V72.57c0-.6-.05-1.15-.09-1.59,0-.12,0-.28,0-.4.26-.08.52-.12.82-.2a10.74,10.74,0,0,1,1.95-.19,5,5,0,0,1,2,.35,2.29,2.29,0,0,1,1.35,1.19,4.8,4.8,0,0,1,.52,2.43v9h4.42V74a8.24,8.24,0,0,0-.61-3.34c.39-.12.78-.2,1.17-.28a7.64,7.64,0,0,1,1.61-.16,5.89,5.89,0,0,1,2.16.36,2.16,2.16,0,0,1,1.35,1.19,5.31,5.31,0,0,1,.47,2.43v9h4.42V74a8.33,8.33,0,0,0-.65-3.58A4.44,4.44,0,0,0,198.46,68.28Z" transform="translate(-76.29 -36.57)"/><path class="cls-1" d="M218.66,68A8.68,8.68,0,0,0,214,66.93a9.64,9.64,0,0,0-4.51,1,7.07,7.07,0,0,0-2.95,2.86,8.83,8.83,0,0,0-1,4.37,10,10,0,0,0,.65,3.74,6.89,6.89,0,0,0,2,2.58A8.25,8.25,0,0,0,211.29,83a17.14,17.14,0,0,0,4.25.48,15.92,15.92,0,0,0,3-.24,10.7,10.7,0,0,0,2.17-.6v-3.3h-.31a6.54,6.54,0,0,1-1.82.6,13.5,13.5,0,0,1-2.73.28,10.36,10.36,0,0,1-3.08-.44,4.06,4.06,0,0,1-2.08-1.47,4.39,4.39,0,0,1-.69-1.91h11.88l0-.95a10.11,10.11,0,0,0-.65-4.41A6,6,0,0,0,218.66,68Zm-1.08,5.72H210a6.94,6.94,0,0,1,.43-1.83,3.1,3.1,0,0,1,1.43-1.51,4.53,4.53,0,0,1,2.09-.47,3.21,3.21,0,0,1,3.64,3.61v.2Z" transform="translate(-76.29 -36.57)"/><path class="cls-1" d="M239.9,68.32a7.64,7.64,0,0,0-2.65-1.08,15.75,15.75,0,0,0-3.08-.31,21.88,21.88,0,0,0-2.68.2c-.91.11-1.82.31-2.73.51a13.24,13.24,0,0,0-2.26.68l-.08.24a6.27,6.27,0,0,1,.17,1.43c0,.59.09,1.19.09,1.78s0,1.12,0,1.47v9.9h4.42V72.57a14.27,14.27,0,0,0-.09-1.59c0-.12,0-.28,0-.4.26-.08.52-.12.82-.2a10.74,10.74,0,0,1,1.95-.19,6.47,6.47,0,0,1,2.26.35,2.52,2.52,0,0,1,1.47,1.19,4.69,4.69,0,0,1,.52,2.43v9h4.42V74a8,8,0,0,0-.65-3.5A5.83,5.83,0,0,0,239.9,68.32Z" transform="translate(-76.29 -36.57)"/><path class="cls-1" d="M257.1,80a5.81,5.81,0,0,1-1.17.12,3.55,3.55,0,0,1-2.34-.64,2.6,2.6,0,0,1-.78-2.1V70.58h4.72V67.32h-4.72V63.19h-4.42v4.09h-2.77v3.26h2.77v7.08a6.26,6.26,0,0,0,.78,3.29,4.87,4.87,0,0,0,2.38,1.87,10.79,10.79,0,0,0,3.82.6,7.08,7.08,0,0,0,1.69-.16,9.13,9.13,0,0,0,1.34-.32V79.64h-.3A3.18,3.18,0,0,1,257.1,80Z" transform="translate(-76.29 -36.57)"/><path class="cls-1" d="M274.7,76a4.63,4.63,0,0,0-1.95-1.47,9.42,9.42,0,0,0-2.69-.72l-1.47-.24a11.12,11.12,0,0,1-2.17-.55,1.1,1.1,0,0,1-.74-1.08,1.35,1.35,0,0,1,1-1.35,7.52,7.52,0,0,1,2.77-.4,14.49,14.49,0,0,1,2.3.16,13,13,0,0,1,2.3.6h.26V67.64a12.72,12.72,0,0,0-2.21-.44,18.07,18.07,0,0,0-2.52-.15,13,13,0,0,0-4.72.71,5.81,5.81,0,0,0-2.65,1.83,4.22,4.22,0,0,0-.82,2.58,3.46,3.46,0,0,0,1.34,3,9,9,0,0,0,3.91,1.39l1.47.24a10.49,10.49,0,0,1,2.25.56,1.15,1.15,0,0,1,.74,1.15,1.4,1.4,0,0,1-.39,1,1.68,1.68,0,0,1-.91.52,8.87,8.87,0,0,1-1.17.2c-.43,0-.82,0-1.17,0a16.52,16.52,0,0,1-3.12-.32,18.25,18.25,0,0,1-2.65-.75h-.26v3.41a21.11,21.11,0,0,0,2.73.6,19.46,19.46,0,0,0,3,.24c2.73,0,4.81-.4,6.15-1.23a4.16,4.16,0,0,0,2.08-3.82A3.66,3.66,0,0,0,274.7,76Z" transform="translate(-76.29 -36.57)"/><path class="cls-1" d="M133.45,48.37a11.26,11.26,0,0,1,1.35-5.68,9.22,9.22,0,0,1,4.07-3.78,15.34,15.34,0,0,1,6.68-1.35,16,16,0,0,1,2.9.24,10.7,10.7,0,0,1,2.17.6v3.65h-.31a8,8,0,0,0-2-.67,12.28,12.28,0,0,0-2.51-.28,9.72,9.72,0,0,0-4.25.83A6,6,0,0,0,139,44.4a7.82,7.82,0,0,0-.87,3.93,8.39,8.39,0,0,0,.87,3.93,5.88,5.88,0,0,0,2.6,2.43,9.72,9.72,0,0,0,4.25.83,12.73,12.73,0,0,0,2.51-.24,6.38,6.38,0,0,0,2-.71h.31v3.65a10.7,10.7,0,0,1-2.17.6,15.57,15.57,0,0,1-2.9.24,15.36,15.36,0,0,1-6.68-1.31A9.14,9.14,0,0,1,134.8,54,10.81,10.81,0,0,1,133.45,48.37Z" transform="translate(-76.29 -36.57)"/><path class="cls-1" d="M169.82,56.32c0-.6-.09-1.16-.09-1.79V49.32a7.76,7.76,0,0,0-.65-3.41,4.64,4.64,0,0,0-1.69-2.07,7.29,7.29,0,0,0-2.64-1,16.71,16.71,0,0,0-3.26-.28,23,23,0,0,0-2.86.2,14.72,14.72,0,0,0-2.55.55V46.5h.3a11.89,11.89,0,0,1,2-.55,13.56,13.56,0,0,1,2.56-.28,8.54,8.54,0,0,1,2.43.28,2.21,2.21,0,0,1,1.47,1,3.9,3.9,0,0,1,.52,2.22v.28a6.48,6.48,0,0,0-.95-.16,14,14,0,0,0-2.39-.19,13.3,13.3,0,0,0-3.94.55,5.59,5.59,0,0,0-2.64,1.63,4.3,4.3,0,0,0-.91,2.82,4.12,4.12,0,0,0,2,3.86,12,12,0,0,0,6,1.19A17.83,17.83,0,0,0,165,59a25.46,25.46,0,0,0,2.52-.4,17.73,17.73,0,0,0,2.34-.67l.08-.24A8.08,8.08,0,0,0,169.82,56.32Zm-5.2-.16a12.42,12.42,0,0,1-2.13.16,6,6,0,0,1-2.82-.52,1.81,1.81,0,0,1-1-1.71,1.9,1.9,0,0,1,1-1.79,7,7,0,0,1,3.08-.51,10.55,10.55,0,0,1,1.91.16l.74.12v2.3c0,.32,0,.6,0,.83s.09.44.13.64A3.32,3.32,0,0,1,164.62,56.16Z" transform="translate(-76.29 -36.57)"/><path class="cls-1" d="M174.32,54.81h.26a18.45,18.45,0,0,0,2.65.75,16.52,16.52,0,0,0,3.12.32c.34,0,.73,0,1.17,0a8.87,8.87,0,0,0,1.17-.2,1.73,1.73,0,0,0,.91-.51,1.36,1.36,0,0,0,.39-1,1.2,1.2,0,0,0-.74-1.15,10.82,10.82,0,0,0-2.25-.56l-1.48-.24a9.36,9.36,0,0,1-3.9-1.39,3.44,3.44,0,0,1-1.34-3,4.24,4.24,0,0,1,.82-2.58,5.62,5.62,0,0,1,2.65-1.83,13.18,13.18,0,0,1,4.72-.71,16.47,16.47,0,0,1,2.51.16,13.52,13.52,0,0,1,2.21.43v3.34h-.26a14.07,14.07,0,0,0-2.29-.59,14.49,14.49,0,0,0-2.3-.16,7.61,7.61,0,0,0-2.77.39,1.39,1.39,0,0,0-1,1.36,1.09,1.09,0,0,0,.74,1.07,11.3,11.3,0,0,0,2.16.55l1.48.24a10.4,10.4,0,0,1,2.68.72,4.59,4.59,0,0,1,2,1.47,3.6,3.6,0,0,1,.74,2.3,4.24,4.24,0,0,1-2.08,3.82c-1.34.83-3.38,1.23-6.15,1.23a19.46,19.46,0,0,1-3-.24,25.42,25.42,0,0,1-2.73-.59Z" transform="translate(-76.29 -36.57)"/><path class="cls-1" d="M207.82,46.34a5.44,5.44,0,0,0-1.6-2.18A5.65,5.65,0,0,0,203.88,43a11.72,11.72,0,0,0-5.59-.12c-.39.08-.78.2-1.17.31V36.73h-4.64l-.08.24a5.88,5.88,0,0,1,.17,1.39c0,.59.09,1.19.09,1.78s0,1.12,0,1.47V58.82h4.42V46.34h0c.44-.08.87-.2,1.35-.27a8.4,8.4,0,0,1,1.38-.12,5.48,5.48,0,0,1,2.08.35,2.51,2.51,0,0,1,1.43,1.2,4.47,4.47,0,0,1,.52,2.38v8.94h4.42V49.68A7.55,7.55,0,0,0,207.82,46.34Z" transform="translate(-76.29 -36.57)"/><path class="cls-1" d="M222,36.57a9.81,9.81,0,0,0-3.94.71,5.57,5.57,0,0,0-2.51,2.15,7.12,7.12,0,0,0-.87,3.54h-2.69v3.25h2.78v12.6h4.42V46.22h4.42V43h-4.42a3.64,3.64,0,0,1,.73-2.43,3.09,3.09,0,0,1,2.43-.79,4.13,4.13,0,0,1,1.13.12,3.4,3.4,0,0,1,.86.23h.31V36.93a6.66,6.66,0,0,0-1.13-.28C223,36.61,222.52,36.57,222,36.57Z" transform="translate(-76.29 -36.57)"/><path class="cls-1" d="M233.83,42.73a19.64,19.64,0,0,0-2.65.16c-.86.08-1.69.2-2.51.35a19.1,19.1,0,0,0-2.08.52l-.09.24a5.75,5.75,0,0,1,.18,1.43c0,.6.08,1.19.08,1.79s.05,1.11.05,1.47V58.82h4.42V48.25a8.38,8.38,0,0,0-.18-2l.78-.12a18.24,18.24,0,0,1,2-.15A11.43,11.43,0,0,1,235,46a4.85,4.85,0,0,1,1.08.15h.3V42.89L235,42.77C234.61,42.73,234.22,42.73,233.83,42.73Z" transform="translate(-76.29 -36.57)"/><path class="cls-1" d="M252.2,43.68a8.77,8.77,0,0,0-4.68-1.11,9.72,9.72,0,0,0-4.5,1,7,7,0,0,0-3,2.86,8.83,8.83,0,0,0-1,4.37,10,10,0,0,0,.65,3.74,6.89,6.89,0,0,0,2,2.58,8.37,8.37,0,0,0,3.17,1.47,17,17,0,0,0,4.24.48,15.92,15.92,0,0,0,3-.24,10.52,10.52,0,0,0,2.17-.6V55H254a6.92,6.92,0,0,1-1.82.59,13.5,13.5,0,0,1-2.73.28,10.31,10.31,0,0,1-3.08-.44,3.79,3.79,0,0,1-2.08-1.47,4.35,4.35,0,0,1-.69-1.9h11.87l.05-1a10.26,10.26,0,0,0-.65-4.41A6.39,6.39,0,0,0,252.2,43.68Zm-1.08,5.72h-7.58a6.09,6.09,0,0,1,.43-1.82,3,3,0,0,1,1.43-1.51,4.4,4.4,0,0,1,2.08-.48,3.79,3.79,0,0,1,2.73.91,3.71,3.71,0,0,1,.91,2.7v.2Z" transform="translate(-76.29 -36.57)"/><path class="cls-1" d="M275,46.7a6,6,0,0,0-2.6-3,8.81,8.81,0,0,0-4.68-1.11,9.77,9.77,0,0,0-4.51,1,7,7,0,0,0-2.95,2.86,8.83,8.83,0,0,0-1,4.37,10,10,0,0,0,.65,3.74,6.89,6.89,0,0,0,2,2.58A8.37,8.37,0,0,0,265,58.62a17.08,17.08,0,0,0,4.25.48,16,16,0,0,0,3-.24,10.59,10.59,0,0,0,2.16-.6V55h-.3a6.92,6.92,0,0,1-1.82.59,13.5,13.5,0,0,1-2.73.28,10.31,10.31,0,0,1-3.08-.44,3.79,3.79,0,0,1-2.08-1.47,4.22,4.22,0,0,1-.69-1.9h11.87l.05-1A9,9,0,0,0,275,46.7Zm-3.64,2.7h-7.59a6.39,6.39,0,0,1,.44-1.82,2.94,2.94,0,0,1,1.43-1.51,4.37,4.37,0,0,1,2.08-.48,3.79,3.79,0,0,1,2.73.91,3.75,3.75,0,0,1,.91,2.7v.2Z" transform="translate(-76.29 -36.57)"/><path class="cls-2" d="M95.79,36.85c-4.59,0-8.32,3.41-8.32,7.63V72.77c4.6,0,8.32-3.42,8.32-7.63V44.48h22.54c4.59,0,8.32-3.42,8.32-7.63Z" transform="translate(-76.29 -36.57)"/><path class="cls-3" d="M98.44,47v7.63h9.7c4.6,0,8.33-3.42,8.33-7.63h-18Z" transform="translate(-76.29 -36.57)"/><path class="cls-4" d="M76.29,54.65C76.29,50.44,80,47,84.61,47h0V75.31c0,4.21-3.73,7.63-8.32,7.63h0Z" transform="translate(-76.29 -36.57)"/></svg>