<svg id="Cash" xmlns="http://www.w3.org/2000/svg" viewBox="0 0 114.98 65.8"><path d="M241.66,21.54H143.59a2.36,2.36,0,0,0-2.36,2.36v3.73H137.5A2.36,2.36,0,0,0,135.14,30v3.73h-3.73A2.37,2.37,0,0,0,129,36.08V85a2.37,2.37,0,0,0,2.37,2.36h98.07A2.36,2.36,0,0,0,231.84,85V81.25h3.73a2.36,2.36,0,0,0,2.36-2.36V75.16h3.73A2.37,2.37,0,0,0,244,72.8V23.9A2.37,2.37,0,0,0,241.66,21.54Zm-101,16.91a9.61,9.61,0,0,1-6.92,6.92V38.45Zm86.42,6.92a9.64,9.64,0,0,1-6.92-6.92h6.92Zm-11.74-6.92a14.33,14.33,0,0,0,11.74,11.74V70.87a14.34,14.34,0,0,0-11.74,11.74H145.52a14.35,14.35,0,0,0-11.75-11.74V50.19a14.34,14.34,0,0,0,11.75-11.74Zm-81.6,37.24a9.62,9.62,0,0,1,6.92,6.93h-6.92Zm86.42,6.92a9.66,9.66,0,0,1,6.92-6.92v6.92Zm13-6.09h-1.36V36.08a2.36,2.36,0,0,0-2.36-2.36H139.86V32.36H233.2V76.52Zm6.1-6.09h-1.37V30a2.36,2.36,0,0,0-2.36-2.36H146V26.27H239.3Z" transform="translate(-129.04 -21.54)"/><path d="M169.25,74.48c2.94,4,6.91,6.14,11.19,6.14s8.26-2.18,11.2-6.14a23.54,23.54,0,0,0,4.32-14,23.49,23.49,0,0,0-4.32-13.94c-2.94-4-6.92-6.15-11.2-6.15s-8.25,2.18-11.19,6.15a23.42,23.42,0,0,0-4.32,13.94A23.47,23.47,0,0,0,169.25,74.48Zm11.19,1.42a8.68,8.68,0,0,1-6.07-2.68,6.12,6.12,0,0,1,12.15,0A8.69,8.69,0,0,1,180.44,75.9Zm0-12.89a3.62,3.62,0,1,1,3.62-3.62A3.63,3.63,0,0,1,180.44,63Zm0-17.84c5.95,0,10.79,6.89,10.79,15.36a20.28,20.28,0,0,1-1.51,7.81A10.75,10.75,0,0,0,186.59,65a8.34,8.34,0,1,0-12.3,0,11,11,0,0,0-3.13,3.31,20.47,20.47,0,0,1-1.5-7.81C169.66,52.06,174.5,45.17,180.44,45.17Z" transform="translate(-129.04 -21.54)"/></svg>