<svg id="Cencosud" xmlns="http://www.w3.org/2000/svg" viewBox="0 0 125.9 66.14"><defs><style>.cls-1{fill:#1b7bb2;}.cls-2{fill:#f6a41d;}</style></defs><path class="cls-1" d="M186.6,21.06a33.05,33.05,0,0,0-30.76,21.33l-.19.46h4.23l.1-.2a28.91,28.91,0,0,1,43.41-12.2,5.08,5.08,0,0,0-.26,1.61,5.37,5.37,0,0,0,5.33,5.39,5.54,5.54,0,0,0,1.62-.31,29.58,29.58,0,0,1,3.13,5.51l.1.2h4.29l-.2-.46a32.59,32.59,0,0,0-4.23-7.81,5.3,5.3,0,0,0,.75-2.52,5.4,5.4,0,0,0-5.4-5.39,5.14,5.14,0,0,0-2.57.75A32.76,32.76,0,0,0,186.6,21.06Zm59.27,19.52v5.79h-4a7.19,7.19,0,0,0-2.91.61h-.06v0a7.55,7.55,0,0,0-2.36,1.61h-.06A7.22,7.22,0,0,0,234.22,54a7.39,7.39,0,0,0,.58,2.92,8,8,0,0,0,1.65,2.48A7.7,7.7,0,0,0,238.87,61l.06,0a7.51,7.51,0,0,0,2.91.57,7.61,7.61,0,0,0,2.93-.57h0v0a7.31,7.31,0,0,0,2.38-1.61,7.77,7.77,0,0,0,1.62-2.48,7.28,7.28,0,0,0,.65-2.92V40.58h-3.59ZM131.15,46.37a7.75,7.75,0,0,0-2.88.61,7.3,7.3,0,0,0-2.51,1.65,7,7,0,0,0-1.66,2.48,7.87,7.87,0,0,0-.55,2.87,8,8,0,0,0,.55,2.88,7.32,7.32,0,0,0,1.66,2.52A7.6,7.6,0,0,0,128.27,61a8.11,8.11,0,0,0,2.88.57A7.73,7.73,0,0,0,134,61a7.5,7.5,0,0,0,2.56-1.65l1-1,.26-.25-.2-.26-2-2-.26-.25-.24.25-1,1a3.62,3.62,0,0,1-1.3.9,4.21,4.21,0,0,1-1.57.3,3.89,3.89,0,0,1-2.88-1.2,4.11,4.11,0,0,1-1.2-2.88,4.33,4.33,0,0,1,.3-1.57,3.75,3.75,0,0,1,.9-1.3,3.81,3.81,0,0,1,1.32-.86,4.08,4.08,0,0,1,1.56-.3A4.31,4.31,0,0,1,134,51.11l1,1,.24.26.26-.26,2-2,.2-.26-.26-.19-1-1A7.22,7.22,0,0,0,134,47,7.38,7.38,0,0,0,131.15,46.37Zm15.17,0a7.86,7.86,0,0,0-2.91.61,7.09,7.09,0,0,0-2.48,1.65,7.26,7.26,0,0,0-1.66,2.48,8.17,8.17,0,0,0-.55,2.87,8.31,8.31,0,0,0,.55,2.88,7.37,7.37,0,0,0,1.66,2.52A7.48,7.48,0,0,0,143.41,61a7.58,7.58,0,0,0,2.91.57,7.39,7.39,0,0,0,2.87-.57,7.48,7.48,0,0,0,2.48-1.65l1-1,.25-.25-.25-.26-2-2-.26-.25-.19.25-1,1A4.08,4.08,0,0,1,146.93,58a3.88,3.88,0,0,1-1.87-.32l7.62-7.59.25-.26-.25-.19-1-1A7.07,7.07,0,0,0,149.15,47,7.38,7.38,0,0,0,146.32,46.37Zm15.13,0a7.16,7.16,0,0,0-2.93.61,7.62,7.62,0,0,0-4.07,4,7.51,7.51,0,0,0-.55,3V61.6h3.52V54a4.06,4.06,0,0,1,.29-1.57,4.42,4.42,0,0,1,.87-1.3,3.83,3.83,0,0,1,1.3-.86,3.79,3.79,0,0,1,1.57-.3,4,4,0,0,1,1.62.3,3.33,3.33,0,0,1,1.26.86l0,0a3.48,3.48,0,0,1,.87,1.26,3.73,3.73,0,0,1,.3,1.57V61.6h3.58V54a7.24,7.24,0,0,0-.65-3,7,7,0,0,0-1.62-2.38A7.33,7.33,0,0,0,164.42,47,7.18,7.18,0,0,0,161.45,46.37Zm16.34,0a7.71,7.71,0,0,0-2.88.61,7.24,7.24,0,0,0-2.52,1.65,7.15,7.15,0,0,0-1.67,2.48,7.87,7.87,0,0,0-.55,2.87,8,8,0,0,0,.55,2.88,7.4,7.4,0,0,0,1.67,2.52A7.54,7.54,0,0,0,174.91,61a8.07,8.07,0,0,0,2.88.57A7.66,7.66,0,0,0,180.6,61a7.34,7.34,0,0,0,2.52-1.65h.06l.94-1,.26-.25-.26-.26-2-2-.23-.25-.26.25-1,1a3.7,3.7,0,0,1-1.32.9,4.11,4.11,0,0,1-1.55.3,3.87,3.87,0,0,1-2.88-1.2,4,4,0,0,1-.9-1.36,4.1,4.1,0,0,1-.32-1.52,4.36,4.36,0,0,1,.32-1.57,3.47,3.47,0,0,1,.84-1.3h.06a3.56,3.56,0,0,1,1.3-.86,4.14,4.14,0,0,1,1.58-.3,3.74,3.74,0,0,1,1.49.3,3.94,3.94,0,0,1,1.38.86l1,1,.26.26.23-.26,2-2,.26-.26-.26-.19-.94-1A7.39,7.39,0,0,0,180.6,47,7.29,7.29,0,0,0,177.79,46.37Zm15.11,0A7.09,7.09,0,0,0,190,47a7.25,7.25,0,0,0-2.4,1.65A8,8,0,0,0,185.89,51a7.69,7.69,0,0,0-.55,3,7.55,7.55,0,0,0,.55,2.92,8.83,8.83,0,0,0,1.68,2.48A7.5,7.5,0,0,0,190,61v0a7.61,7.61,0,0,0,2.93.57,7.52,7.52,0,0,0,3-.57v0A7.59,7.59,0,0,0,200,56.9a7.06,7.06,0,0,0,.59-2.92,7.2,7.2,0,0,0-.59-3,7.12,7.12,0,0,0-1.67-2.38A7.33,7.33,0,0,0,195.87,47,7.18,7.18,0,0,0,192.9,46.37Zm13.4,0a4.67,4.67,0,0,0-1.85.41,4.58,4.58,0,0,0-1.48.95,5.1,5.1,0,0,0-1,1.51,4.74,4.74,0,0,0-.35,1.81,4.88,4.88,0,0,0,.35,1.83v0a5.41,5.41,0,0,0,1,1.46,5.28,5.28,0,0,0,1.48,1,5,5,0,0,0,1.85.36h5.84a1,1,0,0,1,.81.33,1.1,1.1,0,0,1,.36.81,1,1,0,0,1-.36.8,1,1,0,0,1-.81.36H203V61.6h9.11a4.81,4.81,0,0,0,1.83-.35,4.76,4.76,0,0,0,1.46-1,4.58,4.58,0,0,0,1-1.51,4.42,4.42,0,0,0,.42-1.83,4.26,4.26,0,0,0-.42-1.81,4,4,0,0,0-1-1.52,4.53,4.53,0,0,0-1.46-.94s0-.05-.05-.06v.06a4.27,4.27,0,0,0-1.78-.42H206.3a1.06,1.06,0,0,1-.81-.29,1.18,1.18,0,0,1-.29-.87,1,1,0,0,1,1.1-1.1h9.13V46.37H206.3Zm11.65,0V54a7.55,7.55,0,0,0,.55,2.92,8.69,8.69,0,0,0,1.61,2.48A8.1,8.1,0,0,0,222.59,61v0a7.89,7.89,0,0,0,5.89,0v0a7.82,7.82,0,0,0,2.42-1.61,7.58,7.58,0,0,0,1.61-2.48,7.08,7.08,0,0,0,.61-2.92V46.37H229.6V54a3.75,3.75,0,0,1-.35,1.56,3.89,3.89,0,0,1-.87,1.32,4,4,0,0,1-1.26.9,4.34,4.34,0,0,1-1.61.3,4.29,4.29,0,0,1-1.56-.3s0,0-.06,0a5.08,5.08,0,0,1-1.26-.9,4.87,4.87,0,0,1-.84-1.32,4.06,4.06,0,0,1-.32-1.56V46.37H218Zm-71.83,3.56a4.89,4.89,0,0,1,1.42.32c-.25.24-.5.45-.87.8L145,52.76l-1.65,1.74c-.33.33-.54.52-.77.74a3.68,3.68,0,0,1,.87-4.13,3.77,3.77,0,0,1,2.2-1.16A2.94,2.94,0,0,1,146.12,49.93Zm46.78,0a3.94,3.94,0,0,1,1.61.3,3.26,3.26,0,0,1,1.26.86h.06a3.58,3.58,0,0,1,.85,1.3A3.86,3.86,0,0,1,197,54a3.72,3.72,0,0,1-.31,1.56,4,4,0,0,1-.85,1.36,4.19,4.19,0,0,1-1.32.86,4.34,4.34,0,0,1-1.61.3,4.09,4.09,0,0,1-1.56-.3,4.63,4.63,0,0,1-1.31-.9,5.09,5.09,0,0,1-.91-1.32h0a4.23,4.23,0,0,1,0-3.13h0a4.22,4.22,0,0,1,.91-1.3,3.69,3.69,0,0,1,1.31-.86,3.74,3.74,0,0,1,1.56-.3Zm48.94,0h4v4a3.74,3.74,0,0,1-.29,1.56,4,4,0,0,1-.91,1.32,3.9,3.9,0,0,1-1.26.9,4,4,0,0,1-1.57.3,4.19,4.19,0,0,1-1.55-.3s0,0-.06,0a4.79,4.79,0,0,1-1.3-.9,5,5,0,0,1-.87-1.32,4.37,4.37,0,0,1,0-3.13,4.29,4.29,0,0,1,.87-1.3,3.78,3.78,0,0,1,1.3-.86h.06A3.67,3.67,0,0,1,241.84,50ZM155.39,65.52l.22.41a32.93,32.93,0,0,0,61.59,0l.14-.41H213l-.06.21a28.95,28.95,0,0,1-53.21,0l-.06-.21h-4.29Z" transform="translate(-123.55 -21.06)"/><path class="cls-2" d="M208.52,29.19A2.83,2.83,0,1,0,211.34,32,2.79,2.79,0,0,0,208.52,29.19Z" transform="translate(-123.55 -21.06)"/></svg>