<svg id="Checkout" xmlns="http://www.w3.org/2000/svg" viewBox="0 0 274.91 35.88"><defs><style>.cls-1{fill:#1e1f55;}</style></defs><path class="cls-1" d="M246.34,72.69a2.78,2.78,0,1,0-2.73-2.78A2.76,2.76,0,0,0,246.34,72.69Z" transform="translate(-42.69 -44.41)"/><path class="cls-1" d="M89.43,72a8.07,8.07,0,0,1-3.08-2.2,10.84,10.84,0,0,1-2-3.28,11,11,0,0,1-.72-4.1,12.53,12.53,0,0,1,.65-4.09A8.87,8.87,0,0,1,86.2,55a9,9,0,0,1,3-2.19,10.15,10.15,0,0,1,4-.8,9.52,9.52,0,0,1,3.37.51A10.63,10.63,0,0,1,99.27,54a6.11,6.11,0,0,1,1.79,2.27,8.34,8.34,0,0,1,.94,2.92H97A3.65,3.65,0,0,0,95.75,57a3.36,3.36,0,0,0-2.37-.88,4,4,0,0,0-3.51,1.68,7.68,7.68,0,0,0-1.15,4.53,7.83,7.83,0,0,0,1.15,4.53,3.79,3.79,0,0,0,3.51,1.68,4.08,4.08,0,0,0,2.59-.8,4.4,4.4,0,0,0,1.29-2.56h5A8,8,0,0,1,97,72.1a10.59,10.59,0,0,1-3.51.59A9.4,9.4,0,0,1,89.43,72Z" transform="translate(-42.69 -44.41)"/><path class="cls-1" d="M110.32,55a8.2,8.2,0,0,1,2.37-2.34,6.34,6.34,0,0,1,3.3-.8,6.44,6.44,0,0,1,2.73.59A6,6,0,0,1,120.8,54a8.17,8.17,0,0,1,1.36,2.34,7.92,7.92,0,0,1,.51,3V72.17H117.5V60a3.89,3.89,0,0,0-.86-2.63,3.25,3.25,0,0,0-2.51-1,3.61,3.61,0,0,0-2.8,1.24,4.79,4.79,0,0,0-1.15,3.29V72.17H105V44.63h5.17V55Z" transform="translate(-42.69 -44.41)"/><path class="cls-1" d="M131.14,72A8.8,8.8,0,0,1,128,69.76,9.1,9.1,0,0,1,126,66.4a12.88,12.88,0,0,1-.65-4.09,10.93,10.93,0,0,1,.72-4.09,12.16,12.16,0,0,1,1.94-3.29,9,9,0,0,1,3-2.19,9.31,9.31,0,0,1,3.88-.81,8.84,8.84,0,0,1,4.09.88,9,9,0,0,1,3,2.41A12,12,0,0,1,143.91,59a17,17,0,0,1,.65,4.82H130.49A6.79,6.79,0,0,0,132,67.42a4.39,4.39,0,0,0,3.44,1.32,4.16,4.16,0,0,0,2.44-.66,3.44,3.44,0,0,0,1.29-1.75h5.1a8,8,0,0,1-.93,2.48,8,8,0,0,1-1.8,2,7.86,7.86,0,0,1-2.65,1.39,10.12,10.12,0,0,1-3.38.51A11.7,11.7,0,0,1,131.14,72Zm.79-14.9a6.37,6.37,0,0,0-1.44,3.07h8.61a4.86,4.86,0,0,0-1.22-3.07A3.66,3.66,0,0,0,135,55.88,4.4,4.4,0,0,0,131.93,57.05Z" transform="translate(-42.69 -44.41)"/><path class="cls-1" d="M152.24,72a8.11,8.11,0,0,1-3.09-2.2,10.84,10.84,0,0,1-2-3.28,11,11,0,0,1-.72-4.1,12.53,12.53,0,0,1,.65-4.09,9.28,9.28,0,0,1,5-5.48,10.15,10.15,0,0,1,4-.8,9.61,9.61,0,0,1,3.38.51A10.75,10.75,0,0,1,162.07,54a6.24,6.24,0,0,1,1.8,2.27,8.33,8.33,0,0,1,.93,2.92h-5A3.65,3.65,0,0,0,158.55,57a3.35,3.35,0,0,0-2.36-.88,4,4,0,0,0-3.52,1.68,7.68,7.68,0,0,0-1.15,4.53,7.83,7.83,0,0,0,1.15,4.53,3.81,3.81,0,0,0,3.52,1.68,4.07,4.07,0,0,0,2.58-.8,4.28,4.28,0,0,0,1.29-2.56H165a8,8,0,0,1-5.24,6.94,10.59,10.59,0,0,1-3.51.59A9.23,9.23,0,0,1,152.24,72Z" transform="translate(-42.69 -44.41)"/><path class="cls-1" d="M173,65.53v6.64h-5.09V44.63H173V59.9l6.89-7.45H186L178.87,60l8,12.2h-6.25l-5.45-9Z" transform="translate(-42.69 -44.41)"/><path class="cls-1" d="M192.58,72a9.91,9.91,0,0,1-3.23-2.2,10.24,10.24,0,0,1-2.8-7.38,10.93,10.93,0,0,1,.71-4.09A10.28,10.28,0,0,1,189.35,55a8.42,8.42,0,0,1,3.23-2.19,10.86,10.86,0,0,1,8.18,0A9.73,9.73,0,0,1,204,55a11.08,11.08,0,0,1,2.08,3.29,12,12,0,0,1,0,8.19A10.1,10.1,0,0,1,204,69.76a8.63,8.63,0,0,1-3.23,2.2,10.86,10.86,0,0,1-8.18,0Zm7.75-5a7.69,7.69,0,0,0,1.29-4.68,7.69,7.69,0,0,0-1.29-4.68,4.35,4.35,0,0,0-3.66-1.82A4.16,4.16,0,0,0,193,57.63a7.76,7.76,0,0,0-1.3,4.68A7.76,7.76,0,0,0,193,67a4.7,4.7,0,0,0,7.32,0Z" transform="translate(-42.69 -44.41)"/><path class="cls-1" d="M221.86,69.84h-.14A9.07,9.07,0,0,1,219.49,72a6.35,6.35,0,0,1-3.3.73,6.69,6.69,0,0,1-5-1.9,7.53,7.53,0,0,1-1.73-5.19V52.45h5.1V64.72a4,4,0,0,0,.79,2.63,3.12,3.12,0,0,0,2.44,1,3.66,3.66,0,0,0,2.87-1.24,4.67,4.67,0,0,0,1.08-3.21V52.45h5.16V72.17h-4.95V69.84Z" transform="translate(-42.69 -44.41)"/><path class="cls-1" d="M231.84,52.44V46.23h5v6.21h3.3v3.44h-3.3V66.33a1.86,1.86,0,0,0,.5,1.53,2.14,2.14,0,0,0,1.44.44h1a1.29,1.29,0,0,0,.51-.07v3.94c-.29,0-.51.08-.87.08s-.64.07-1,.07h-1.36a8,8,0,0,1-1.87-.22,4.34,4.34,0,0,1-1.65-.73,4.13,4.13,0,0,1-1.22-1.46,5.34,5.34,0,0,1-.5-2.34V55.88h-2.66V52.44Z" transform="translate(-42.69 -44.41)"/><path class="cls-1" d="M256.53,71.88a8.12,8.12,0,0,1-2.8-2.19A9,9,0,0,1,252,66.4a15.26,15.26,0,0,1-.57-4.16,15.74,15.74,0,0,1,.57-4.17,10.92,10.92,0,0,1,1.73-3.29,8.12,8.12,0,0,1,2.8-2.19,8.86,8.86,0,0,1,3.8-.8,8.25,8.25,0,0,1,5.31,1.68,7.48,7.48,0,0,1,2.59,4.75h-2.3a5.18,5.18,0,0,0-1.87-3.36,5.7,5.7,0,0,0-3.66-1.1,6.22,6.22,0,0,0-2.94.66,5.4,5.4,0,0,0-2,1.82A7.76,7.76,0,0,0,254.3,59a12,12,0,0,0-.36,3.29,12.38,12.38,0,0,0,.43,3.28,8.58,8.58,0,0,0,1.22,2.71,5.39,5.39,0,0,0,2,1.82,6,6,0,0,0,2.87.66,5.67,5.67,0,0,0,4-1.46,6.3,6.3,0,0,0,1.8-3.87h2.22a8.16,8.16,0,0,1-2.44,5.4,7.71,7.71,0,0,1-5.6,2A10.32,10.32,0,0,1,256.53,71.88Z" transform="translate(-42.69 -44.41)"/><path class="cls-1" d="M275.69,71.88a7.75,7.75,0,0,1-2.87-2.19A10.36,10.36,0,0,1,271,66.4a12.4,12.4,0,0,1-.65-4.16,12.75,12.75,0,0,1,.65-4.17,9.66,9.66,0,0,1,1.79-3.29,7.75,7.75,0,0,1,2.87-2.19,9.45,9.45,0,0,1,7.61,0,8.46,8.46,0,0,1,2.87,2.19A10.36,10.36,0,0,1,288,58.07a12.45,12.45,0,0,1,.58,4.17A15.31,15.31,0,0,1,288,66.4a9.66,9.66,0,0,1-1.79,3.29,7.75,7.75,0,0,1-2.87,2.19,8.9,8.9,0,0,1-3.81.8A9.37,9.37,0,0,1,275.69,71.88Zm6.68-1.83a5.59,5.59,0,0,0,2.08-1.82,7.27,7.27,0,0,0,1.22-2.71,12.76,12.76,0,0,0,0-6.57,10.49,10.49,0,0,0-1.22-2.71,5.68,5.68,0,0,0-2.08-1.82,6.2,6.2,0,0,0-2.88-.66,6,6,0,0,0-2.87.66,6.3,6.3,0,0,0-2.08,1.82A8.71,8.71,0,0,0,273.25,59a12.76,12.76,0,0,0,0,6.57,8.71,8.71,0,0,0,1.29,2.71,6.18,6.18,0,0,0,2.08,1.82,6.59,6.59,0,0,0,5.75,0Z" transform="translate(-42.69 -44.41)"/><path class="cls-1" d="M294.21,52.23v3h.07a8.78,8.78,0,0,1,2.37-2.48,6.1,6.1,0,0,1,3.59-1,5.9,5.9,0,0,1,3.23.88,5.15,5.15,0,0,1,2,2.7h.07a7.09,7.09,0,0,1,2.59-2.7,6.79,6.79,0,0,1,3.65-1,5.93,5.93,0,0,1,2.3.43,5,5,0,0,1,3.09,3.15,7.93,7.93,0,0,1,.43,2.63V72.18h-2.3v-14a4.26,4.26,0,0,0-1.15-3.29,4.15,4.15,0,0,0-2.94-1,5.76,5.76,0,0,0-2,.36,5.53,5.53,0,0,0-1.65,1.1,6.33,6.33,0,0,0-1.15,1.75,6.09,6.09,0,0,0-.43,2.34V72.18h-2.37v-14a4.26,4.26,0,0,0-1.15-3.29,3.69,3.69,0,0,0-2.8-1,4.67,4.67,0,0,0-2,.44,6.64,6.64,0,0,0-1.79,1.17,5.44,5.44,0,0,0-1.22,1.82,5.74,5.74,0,0,0-.43,2.27V72.18h-2.37v-20Z" transform="translate(-42.69 -44.41)"/><path class="cls-1" d="M64.24,62.38,73.43,46a1,1,0,0,0,0-1.09,1.21,1.21,0,0,0-.93-.51h-19a1.22,1.22,0,0,0-.94.51L42.85,61.8a1,1,0,0,0,0,1.09l9.76,16.88a1,1,0,0,0,.94.51h19a1.24,1.24,0,0,0,.93-.51,1,1,0,0,0,0-1.1ZM63,60.19,55.41,46.6H70.7Zm-9.54-12.5,8.25,14.69L53.48,77.07,45,62.38Zm1.93,30.4L63,64.5l7.61,13.59Z" transform="translate(-42.69 -44.41)"/></svg>