<svg id="CIMB_Clicks" data-name="CIMB Clicks" xmlns="http://www.w3.org/2000/svg" viewBox="0 0 213.03 58.81"><defs><style>.cls-1{fill:#8f0f06;}.cls-2{fill:#fff;}.cls-3{fill:#fa0f0c;stroke:#fff;}</style></defs><rect class="cls-1" width="58.82" height="58.81"/><polyline class="cls-2" points="39.21 11.1 7.95 11.1 21.79 29.41 53.05 29.41 39.21 11.1"/><polyline class="cls-3" points="53.05 29.41 21.79 29.41 7.95 47.7 39.21 47.7 53.05 29.41"/><path class="cls-1" d="M281.6,54a9.08,9.08,0,0,0,4.53-7.89c0-6.72-4.59-10.9-12-10.9H258.65V73.71H274.8c7.32,0,11.86-4.28,11.86-11.17A9.06,9.06,0,0,0,281.6,54m-15.17-11.8h7.14c3,0,4.77,1.58,4.77,4.23s-1.78,4.25-4.77,4.25h-7.14Zm7.62,24.58h-7.62V57.66h7.62c3.56,0,4.83,2.33,4.83,4.51S277.61,66.73,274.05,66.73Zm-45.69-6.94-13.6-24.7h-7.61V73.63h7.79v-23l13.42,23.33,13.39-23.33v23h7.77V35.09h-7.6S228.64,59.29,228.36,59.79ZM189.83,35.16V73.71h7.78V35.16ZM176.94,64.42a12.74,12.74,0,1,1,0-20l.11.1,5.43-5.42-.14-.12a20.4,20.4,0,1,0,0,30.87l.13-.12L177,64.33Z" transform="translate(-73.64 -25.03)"/></svg>