<svg id="Citibank" xmlns="http://www.w3.org/2000/svg" viewBox="0 0 218.34 56.25"><defs><style>.cls-1{fill:#092769;}.cls-1,.cls-2{fill-rule:evenodd;}.cls-2{fill:#fe000c;}</style></defs><path class="cls-1" d="M96.2,69.37l-.16.15a12,12,0,0,1-8.52,3.92c-6.33,0-10.93-4.7-10.93-11.18s4.6-11.17,10.93-11.17A12,12,0,0,1,96,55l.16.15,4.07-4.87-.11-.13a15.58,15.58,0,0,0-12.44-5.88A19.06,19.06,0,0,0,74.82,49a17.38,17.38,0,0,0-5.48,13.3,17.4,17.4,0,0,0,5.48,13.31,19,19,0,0,0,12.9,4.68,15.59,15.59,0,0,0,12.44-5.89l.11-.12L96.2,69.37Z" transform="translate(-69.34 -24.06)"/><polygon class="cls-1" points="35.04 55.52 42.24 55.52 42.24 20.79 35.04 20.79 35.04 55.52 35.04 55.52"/><path class="cls-1" d="M139.75,72a10.46,10.46,0,0,1-5.31,1.74c-2.32,0-3.37-1.21-3.37-3.92V51.42h7.32V44.88h-7.32V34.07l-7,3.74v7.07h-6.08v6.54H124V71c0,5.34,3.2,9,8,9.09a11.4,11.4,0,0,0,6.38-1.6l.08,0,1.73-6.69-.43.25Z" transform="translate(-69.34 -24.06)"/><polygon class="cls-1" points="76.37 55.52 83.57 55.52 83.57 20.79 76.37 20.79 76.37 55.52 76.37 55.52"/><path class="cls-2" d="M157.1,38.76a35.13,35.13,0,0,0-57.16,0l-.33.47h8.27l.09-.1a28.42,28.42,0,0,1,41.1,0l.09.1h8.27l-.33-.47Z" transform="translate(-69.34 -24.06)"/><path class="cls-1" d="M166.64,53.1l-.1.13v18l.07.11a11.9,11.9,0,0,0,9.89,5.54c6.06,0,9.13-5.06,9.13-15,0-8.91-3.4-14-9.34-14-3.6,0-6.85,1.78-9.65,5.29Zm121,26.36v.12h-4.34c-.25-.49-9.11-19-9.11-19l-6.61,9.17v9.87h-4.1V34l4.1-2.32V64.77l2.24-3.45,11.36-16.25h4.49c-1,1.27-8.87,12-8.87,12s9.82,20.25,10.84,22.34Zm-81.81.85h-1.75c-3.53-.2-9.9-1.83-9.9-10.87,0-8,6.7-10.88,13-10.88a18.08,18.08,0,0,1,8.52,2l.68.36V56c0-5.49-2.71-8.27-8.07-8.27A18.54,18.54,0,0,0,199,50.21c-.27-.62-1.22-2.7-1.48-3.28a24.44,24.44,0,0,1,11.16-2.6c8,0,11.84,3.6,11.84,11V79.58h-4.1v-5l-.8.87a13.9,13.9,0,0,1-9.73,4.89Zm-28.22,0H176a12.07,12.07,0,0,1-8.69-4.55l-.8-.92v4.74h-4.09V34l4.09-2.32V50.1l.8-.86c3-3.31,6.37-4.91,10.21-4.91,7.71,0,12.13,6.34,12.13,17.42,0,10.91-4.7,18.09-12,18.56Zm20.59-11.2c0,5.16,2.7,8,7.61,8a12.68,12.68,0,0,0,10.47-5.51l.08-.12V63.92l-.23-.13c-2.62-1.48-5.3-2.08-9.25-2.08-5.43,0-8.68,2.77-8.68,7.4ZM233.9,49.18a10.9,10.9,0,0,1,9.32-4.85c7.74,0,11.84,4.88,11.84,14.12V79.58h-4.12V59.33c0-7.86-2.76-11.52-8.73-11.52-5.73,0-9.14,4.31-9.14,11.52V79.58H229V45.07h4.11v5.35l.83-1.24Z" transform="translate(-69.34 -24.06)"/></svg>