<svg id="Clave" xmlns="http://www.w3.org/2000/svg" viewBox="0 0 107.29 66.26"><defs><style>.cls-1{fill:#fff;}.cls-2{fill:#070a09;}.cls-3{fill:#fe1408;}</style></defs><path class="cls-1" d="M228.93,87.07a5,5,0,0,0,5-4.88V26a5,5,0,0,0-5-4.9h-97a5,5,0,0,0-5,4.9V82.19a5,5,0,0,0,5,4.88h97" transform="translate(-126.77 -20.95)"/><path class="cls-2" d="M228.93,87.07v.14a5.1,5.1,0,0,0,5.13-5V26a5.06,5.06,0,0,0-5.13-5h-97a5.05,5.05,0,0,0-5.12,5V82.19a5.09,5.09,0,0,0,5.12,5h97V87h-97a4.86,4.86,0,0,1-4.9-4.78V26a4.85,4.85,0,0,1,4.9-4.77h97A4.85,4.85,0,0,1,233.84,26V82.19A4.86,4.86,0,0,1,228.93,87v.1" transform="translate(-126.77 -20.95)"/><path class="cls-3" d="M227.45,85.47a4.77,4.77,0,0,0,4.85-4.66V27.18a4.77,4.77,0,0,0-4.85-4.7H133.79a4.77,4.77,0,0,0-4.83,4.7V80.81a4.77,4.77,0,0,0,4.83,4.66h93.66" transform="translate(-126.77 -20.95)"/><rect class="cls-2" x="44.77" y="14.79" width="60.64" height="12.79"/><path class="cls-1" d="M156.66,66.19l-.89,3.4a18.7,18.7,0,0,1-8.11,1.67c-8.79,0-15.44-5.19-15.44-13.28,0-10.34,7.4-15,16.34-15a19.11,19.11,0,0,1,8.35,1.92c-.38,1.38-.59,2.73-.93,4.08h-.59a8.63,8.63,0,0,0-6.79-3.62c-6.82,0-9.56,6.26-9.56,12.09,0,6.74,3.45,11.51,9.76,11.51a11.67,11.67,0,0,0,7.34-3l.52.23" transform="translate(-126.77 -20.95)"/><path class="cls-1" d="M167.05,70.78c-.94-.08-4.73-.08-5.67,0v-30c.94.09,4.73.09,5.67,0v30" transform="translate(-126.77 -20.95)"/><path class="cls-1" d="M187.65,67.28c0,1.48.44,1.94,2.09,1.88v.89a10.4,10.4,0,0,1-3.68,1.1A4.3,4.3,0,0,1,182,68.24a6.12,6.12,0,0,1-5.25,2.91c-3.35,0-5.85-1.79-5.85-5.22,0-3.77,2.36-4.86,7.5-6.07a9.1,9.1,0,0,0,3-1l.61-1.52c0-1.88-2-3.46-3.89-3.46-2.62,0-4.77,1.72-5,2.43h-.28l-.54-2.35a12,12,0,0,1,7.59-2.66c3.45,0,7.79,1.35,7.79,5.3V67.28M182,60.41c-1,.45-2.87.82-4.05,1.69a3.83,3.83,0,0,0-1.31,3.3c0,1.46.48,3.16,2.23,3.16,2.52,0,3-2.32,3.13-4.28Z" transform="translate(-126.77 -20.95)"/><path class="cls-1" d="M201.94,65.31c1.77-4.5,3.5-9.05,5-13.73h3.23l-.28,1c-.78,1.53-1.42,3-2.08,4.63C206,61.6,204,66,202.44,70.78h-4.16c-2.3-6.43-4.55-12.7-7.22-19.2,1,.1,5.25.1,6.29,0l4.59,13.73" transform="translate(-126.77 -20.95)"/><path class="cls-1" d="M218.41,61.23c-.12,4.07,1.34,7.33,5.68,7.33a8.16,8.16,0,0,0,4.81-1.77l.48.35-.9,2.22a11.18,11.18,0,0,1-5.85,1.79c-6.81,0-10.32-4-10.32-10.43,0-5.5,3.48-9.47,9.41-9.47,6.42,0,8.83,4.3,8.4,10H218.41m6.05-1.91c0-2.12-.26-6.29-2.69-6.29-3,0-3.29,4.17-3.36,6.29Z" transform="translate(-126.77 -20.95)"/><path class="cls-1" d="M174.79,44.71l1.25.88,1.07-1.22c0-1.52-2.39-.86-2.39-2.72a1.52,1.52,0,0,1,1.68-1.56l1.1.39-.2.65h-.08l-.95-.7-1,1c0,1.52,2.43.9,2.43,2.66a1.82,1.82,0,0,1-1.9,1.89l-1.25-.46.15-.77h.07" transform="translate(-126.77 -20.95)"/><polyline class="cls-1" points="56.31 19.26 56.65 19.28 56.98 19.26 56.98 24.89 56.65 24.88 56.31 24.89 56.31 19.26"/><path class="cls-1" d="M189.32,44.71l1.25.88,1.07-1.22c0-1.52-2.41-.86-2.41-2.72a1.53,1.53,0,0,1,1.71-1.56l1.09.39-.22.65h-.08l-.92-.7-1,1c0,1.52,2.43.9,2.43,2.66a1.82,1.82,0,0,1-1.91,1.89l-1.22-.46.13-.77h.08" transform="translate(-126.77 -20.95)"/><path class="cls-1" d="M199.37,45.86l-.33,0-.34,0V40.58a12.81,12.81,0,0,0-1.7.13l0-.26,0-.24h4l0,.24,0,.26-1.62-.13v5.28" transform="translate(-126.77 -20.95)"/><polyline class="cls-1" points="80 21.7 81.21 21.7 81.88 21.68 81.85 21.88 81.88 22.11 81.21 22.07 80 22.07 80 24.48 81.38 24.45 82.12 24.37 82.06 24.6 82.12 24.88 79.31 24.88 79.31 19.26 82.05 19.26 82.03 19.5 82.05 19.77 81.37 19.64 80.59 19.63 80 19.63 80 21.7"/><path class="cls-1" d="M219.36,40.21c.18,2,.39,4,.6,5.63l-.37,0-.35,0c-.14-1.65-.27-3.43-.37-4.25a43.69,43.69,0,0,0-2,4.15h-.08l-.42-1c-.49-1.07-1-2.15-1.56-3.2-.16,1.62-.38,3.22-.38,4.25l-.26,0-.27,0c.21-1.31.66-4.77.75-5.63h.2A45.28,45.28,0,0,0,217,44.54c.7-1.43,1.42-2.87,2.19-4.33h.17" transform="translate(-126.77 -20.95)"/><path class="cls-1" d="M229.63,45.84l-.41,0-.4,0c-.22-.68-.5-1.47-.8-2.23h-2a18.86,18.86,0,0,0-.77,2.23l-.27,0-.27,0,2.37-5.75h.17l2.33,5.75m-2.57-4.68-.85,2.1h1.69Z" transform="translate(-126.77 -20.95)"/></svg>