<svg id="CMR_Falebella" data-name="CMR Falebella" xmlns="http://www.w3.org/2000/svg" viewBox="0 0 106.05 63.82"><defs><style>.cls-1{fill:#47a01a;}</style></defs><path class="cls-1" d="M223.39,63.29a3.4,3.4,0,0,0,3.4-3.36,3.13,3.13,0,0,0-.93-2.28l.3-.31-.3.31-10-10,.79-.18c5.39-1.11,9-4.52,9-11.06,0-7.62-6.38-11.84-12.75-11.86H199.28v34.3l6.49-.94V31.07h7.4c3.18,0,5.93,2.27,5.94,5.29s-2.22,4.53-5.38,5.29-4.67,3.09-4.68,5.52a6.79,6.79,0,0,0,1.8,4.5,25.41,25.41,0,0,0,1.85,2.08l8.85,9a3.41,3.41,0,0,0,1.84.54M190.24,23.23c-2.76,0-4.33,2-5.55,4.53L177,44.24l-8.62-14.73-9.75,1.37v29a3.34,3.34,0,0,0,6.68,0V37.6l11.85,19.82L188.6,34V60.34l6.69-.94V28.3a5.12,5.12,0,0,0-5-5.07M120.75,41.17A19.35,19.35,0,0,0,154.17,54.5l.16-.16a2.33,2.33,0,0,0,.29-.45s.06-.09.1-.15v0h0l.17.07-.14-.12a3.63,3.63,0,0,0,.43-1.26c0-.12,0-.24,0-.36s0-.14,0-.2A3.56,3.56,0,0,0,153.68,49a3.52,3.52,0,0,0-1.86-.54,3.34,3.34,0,0,0-2.19.8l0,0-.19.21-.8.8a12.53,12.53,0,1,1-8.48-21.75,11.41,11.41,0,0,1,8.34,3.21l6.76-1.14s-4-9-15.71-8.87c-10.68,0-18.74,8.73-18.77,19.43m34,12.52a0,0,0,0,1,0,0Z" transform="translate(-120.75 -21.73)"/><path class="cls-1" d="M148.4,78.85h-2.49l-.95,0a2.93,2.93,0,0,0-1,.29,2,2,0,0,0-1.06,1.91,1.67,1.67,0,0,0,.76,1.57,3.91,3.91,0,0,0,2,.46l.51,0a5.86,5.86,0,0,0,.69-.06c.24,0,.5-.08.76-.13a3.7,3.7,0,0,0,.75-.21Zm3.09,4.94a.88.88,0,0,1-.5.86,8.91,8.91,0,0,1-1.23.44,13,13,0,0,1-1.38.29c-.47.06-.94.11-1.39.14s-.91,0-1.32,0a10.08,10.08,0,0,1-2.87-.35,4.8,4.8,0,0,1-1.79-.94,3.11,3.11,0,0,1-.93-1.39,5.28,5.28,0,0,1,0-3.45,3.59,3.59,0,0,1,1-1.49,4.88,4.88,0,0,1,1.76-1,7.64,7.64,0,0,1,2.64-.4h2.93v-.44a4.47,4.47,0,0,0-.1-.92,1.59,1.59,0,0,0-.4-.73,2.06,2.06,0,0,0-.82-.47,4.28,4.28,0,0,0-1.36-.19,12.64,12.64,0,0,0-1.94.17,9.57,9.57,0,0,0-1.69.36,1.19,1.19,0,0,1-.42,0c-.08,0-.13-.14-.18-.31l-.36-1.48c-.08-.28,0-.46.23-.55a12.11,12.11,0,0,1,2.39-.59,19.73,19.73,0,0,1,2.46-.16,5.65,5.65,0,0,1,4,1.19,4.6,4.6,0,0,1,1.27,3.51Z" transform="translate(-120.75 -21.73)"/><path class="cls-1" d="M167.89,78.85h-2.51l-1,0a3,3,0,0,0-1,.29,2.38,2.38,0,0,0-.76.69,2.27,2.27,0,0,0-.29,1.22,1.65,1.65,0,0,0,.75,1.57,3.91,3.91,0,0,0,2,.46l.51,0a5.36,5.36,0,0,0,.68-.06c.26,0,.52-.08.78-.13a4.11,4.11,0,0,0,.75-.21ZM171,83.79a.87.87,0,0,1-.49.86,9.4,9.4,0,0,1-1.23.44,13,13,0,0,1-1.38.29c-.47.06-.94.11-1.41.14s-.89,0-1.29,0a10,10,0,0,1-2.87-.35,4.69,4.69,0,0,1-1.8-.94,3.11,3.11,0,0,1-.93-1.39,5.24,5.24,0,0,1-.28-1.68,5.05,5.05,0,0,1,.33-1.77,3.48,3.48,0,0,1,1-1.49,4.88,4.88,0,0,1,1.76-1,7.6,7.6,0,0,1,2.64-.4h2.93v-.44a3.41,3.41,0,0,0-.11-.92,1.59,1.59,0,0,0-.4-.73,2,2,0,0,0-.82-.47,4.28,4.28,0,0,0-1.36-.19,12.41,12.41,0,0,0-1.93.17,9.37,9.37,0,0,0-1.69.36,1.18,1.18,0,0,1-.42,0c-.09,0-.14-.14-.19-.31l-.36-1.48c-.08-.28,0-.46.22-.55a12.68,12.68,0,0,1,2.41-.59,19.58,19.58,0,0,1,2.45-.16,5.67,5.67,0,0,1,4,1.19A4.57,4.57,0,0,1,171,75.94Z" transform="translate(-120.75 -21.73)"/><path class="cls-1" d="M192.29,73.76a2.73,2.73,0,0,0-1.24.28,2.93,2.93,0,0,0-1,.75,4.37,4.37,0,0,0-.63,1.07,3.48,3.48,0,0,0-.25,1.25h6a6.76,6.76,0,0,0-.13-1.31,2.93,2.93,0,0,0-.46-1,2.35,2.35,0,0,0-.88-.73,3.78,3.78,0,0,0-1.46-.26m0-2.52a5.88,5.88,0,0,1,4.46,1.53A6,6,0,0,1,198.13,77a3.36,3.36,0,0,1-.15,1.13,1.82,1.82,0,0,1-.44.7,1.41,1.41,0,0,1-.66.35,2.78,2.78,0,0,1-.83.12h-6.93a4.73,4.73,0,0,0,.3,1.72,3,3,0,0,0,.78,1.12,3,3,0,0,0,1.15.61,5,5,0,0,0,1.41.18,6.48,6.48,0,0,0,1.65-.2,7.22,7.22,0,0,0,1.41-.5c.27-.12.47-.07.57.15l.72,1.49a.43.43,0,0,1-.18.61,6.83,6.83,0,0,1-2.19.84,11.74,11.74,0,0,1-2.25.22,6.4,6.4,0,0,1-4.81-1.7c-1.1-1.12-1.68-2.91-1.68-5.38a9.37,9.37,0,0,1,.48-3.07,6.59,6.59,0,0,1,1.27-2.26,5.35,5.35,0,0,1,2-1.41,6.35,6.35,0,0,1,2.51-.49" transform="translate(-120.75 -21.73)"/><path class="cls-1" d="M220.58,78.85h-2.51l-1,0a3,3,0,0,0-1,.29,2.38,2.38,0,0,0-.76.69,2.27,2.27,0,0,0-.28,1.22,1.66,1.66,0,0,0,.74,1.57,3.93,3.93,0,0,0,2,.46l.51,0a5.68,5.68,0,0,0,.69-.06c.26,0,.51-.08.78-.13a4.11,4.11,0,0,0,.75-.21Zm3.07,4.94a.86.86,0,0,1-.5.86,7.35,7.35,0,0,1-1.23.44,12.33,12.33,0,0,1-1.37.29c-.48.06-.94.11-1.4.14s-.9,0-1.32,0a9.93,9.93,0,0,1-2.85-.35,4.82,4.82,0,0,1-1.81-.94,3.36,3.36,0,0,1-.92-1.39,5.37,5.37,0,0,1,0-3.45,3.72,3.72,0,0,1,1-1.49,4.63,4.63,0,0,1,1.76-1,7.62,7.62,0,0,1,2.65-.4h2.92v-.44a2.77,2.77,0,0,0-.12-.92,1.57,1.57,0,0,0-.39-.73,1.93,1.93,0,0,0-.82-.47,4.25,4.25,0,0,0-1.35-.19,12.76,12.76,0,0,0-1.95.17,9.77,9.77,0,0,0-1.69.36,1.1,1.1,0,0,1-.41,0,.36.36,0,0,1-.18-.31l-.37-1.48c-.07-.28,0-.46.23-.55a12.11,12.11,0,0,1,2.39-.59,20,20,0,0,1,2.46-.16,5.71,5.71,0,0,1,4,1.19,4.68,4.68,0,0,1,1.26,3.51Z" transform="translate(-120.75 -21.73)"/><path class="cls-1" d="M140.34,67.09c0-.11-.2-.14-.44-.14h-7.36a5.35,5.35,0,0,0-2.2.39,3.77,3.77,0,0,0-2.2,2.55,7.29,7.29,0,0,0-.22,1.78v13a.55.55,0,0,0,.15.46,1,1,0,0,0,.46.1h.82a1.79,1.79,0,0,0,1.74-2v-6h7.84c.23,0,.37-.06.43-.16a.87.87,0,0,0,.1-.44V75.13a.75.75,0,0,0-.1-.47.53.53,0,0,0-.43-.14h-7.84v-3a1.77,1.77,0,0,1,.42-1.27,1.81,1.81,0,0,1,1.38-.43h7a.59.59,0,0,0,.44-.13.74.74,0,0,0,.11-.48V67.54a.7.7,0,0,0-.11-.45" transform="translate(-120.75 -21.73)"/><path class="cls-1" d="M181.56,80.51a4.14,4.14,0,0,1-.74,1.42,2.73,2.73,0,0,1-1.14.79,4,4,0,0,1-1.5.24,8.88,8.88,0,0,1-1.2-.06,6,6,0,0,1-1.31-.27V74.26a8.68,8.68,0,0,1,1.59-.33c.54-.05.91-.09,1.2-.09A3,3,0,0,1,180.93,75a5.55,5.55,0,0,1,.88,3.42,8,8,0,0,1-.25,2.11m3-5.05a6.39,6.39,0,0,0-1.07-2.24,4.84,4.84,0,0,0-1.85-1.46,6.29,6.29,0,0,0-2.7-.52,12.2,12.2,0,0,0-1.61.11,10.77,10.77,0,0,0-1.66.35l0-5.06c0-.21,0-.35-.09-.39a.66.66,0,0,0-.4-.08h-.82a1.76,1.76,0,0,0-1.71,2V84a.74.74,0,0,0,.08.38.51.51,0,0,0,.31.23,8.8,8.8,0,0,0,2.57.73,16,16,0,0,0,2.73.22,7.68,7.68,0,0,0,3-.53,5.55,5.55,0,0,0,2-1.54,6.16,6.16,0,0,0,1.19-2.32,10.64,10.64,0,0,0,.37-2.89,10.87,10.87,0,0,0-.35-2.81" transform="translate(-120.75 -21.73)"/><path class="cls-1" d="M204.86,84.65l-.18-1.47c0-.15-.05-.23-.11-.27a.43.43,0,0,0-.32,0l-.45.06a4,4,0,0,1-.47,0,.81.81,0,0,1-.71-.26,1.65,1.65,0,0,1-.18-.92V66.61a.44.44,0,0,0-.12-.36.7.7,0,0,0-.4-.08h-.85a1.77,1.77,0,0,0-1.72,1.89V82.49a3.32,3.32,0,0,0,.68,2.38,2.92,2.92,0,0,0,2.15.69c.34,0,.73,0,1.18-.07a4.24,4.24,0,0,0,1.19-.28.64.64,0,0,0,.31-.22s0-.17,0-.34" transform="translate(-120.75 -21.73)"/><path class="cls-1" d="M211.54,84.65l-.18-1.47c0-.15,0-.23-.1-.27a.43.43,0,0,0-.31,0l-.46.06a4,4,0,0,1-.47,0,.83.83,0,0,1-.71-.26,1.67,1.67,0,0,1-.17-.92V66.61a.41.41,0,0,0-.13-.36.68.68,0,0,0-.41-.08h-.82a1.78,1.78,0,0,0-1.74,2V82.49a3.32,3.32,0,0,0,.68,2.38,2.91,2.91,0,0,0,2.15.69c.35,0,.73,0,1.19-.07a4.41,4.41,0,0,0,1.19-.28c.16-.08.27-.15.29-.22s.05-.17,0-.34" transform="translate(-120.75 -21.73)"/><path class="cls-1" d="M158.9,84.65l-.17-1.47a.46.46,0,0,0-.11-.27.42.42,0,0,0-.31,0l-.46.06a4.36,4.36,0,0,1-.48,0,.78.78,0,0,1-.69-.26,1.46,1.46,0,0,1-.21-.92V66.61c0-.2,0-.3-.11-.36a.65.65,0,0,0-.39-.08h-.85a1.79,1.79,0,0,0-1.72,2v14.3a3.37,3.37,0,0,0,.67,2.38,3,3,0,0,0,2.16.69c.34,0,.73,0,1.19-.07a4.17,4.17,0,0,0,1.18-.28c.17-.08.27-.15.3-.22s0-.17,0-.34" transform="translate(-120.75 -21.73)"/></svg>