<svg id="Codensa" xmlns="http://www.w3.org/2000/svg" viewBox="0 0 66.05 66.05"><defs><style>.cls-1{fill:#f2ce15;}.cls-2{fill:#16569b;}</style></defs><g id="Welcome"><g id="HOME---Servicios---Medios-de-Pago---Desktop-HD"><g id="img-codensa"><g id="img-servi-copy-3"><g id="Mask"><rect id="path-1" class="cls-1" width="66.05" height="66.05" rx="2.31"/></g></g><g id="codensa-2" data-name="codensa"><path id="Path" class="cls-1" d="M206.71,69.64a2.72,2.72,0,0,1-2.87,2.52H156.46a2.71,2.71,0,0,1-2.87-2.52V41.42a2.71,2.71,0,0,1,2.87-2.52h47.38a2.72,2.72,0,0,1,2.87,2.52Z" transform="translate(-147.12 -21.58)"/><path id="Shape" d="M161.49,49.73a2.64,2.64,0,0,0-1.33.31,1.94,1.94,0,0,0-.83.85,2.53,2.53,0,0,0-.28,1.22,2.81,2.81,0,0,0,.15.94,2.25,2.25,0,0,0,.44.75,2,2,0,0,0,.77.49,3.08,3.08,0,0,0,1.09.18,4.3,4.3,0,0,0,1.64-.34l.14.57a4.09,4.09,0,0,1-1.87.36,4.21,4.21,0,0,1-1.38-.21,2.86,2.86,0,0,1-1-.61,2.82,2.82,0,0,1-.61-.94,3.63,3.63,0,0,1-.2-1.22,3,3,0,0,1,.22-1.18,2.71,2.71,0,0,1,.64-.94,2.79,2.79,0,0,1,1-.6,4,4,0,0,1,1.38-.22,4.12,4.12,0,0,1,1.94.42l-.32.55A3.57,3.57,0,0,0,161.49,49.73Zm8.79,2.38a3.37,3.37,0,0,1-.22,1.2,2.58,2.58,0,0,1-.62.93,2.86,2.86,0,0,1-1,.61,4.25,4.25,0,0,1-1.38.21,3.93,3.93,0,0,1-1.78-.37,2.5,2.5,0,0,1-1.1-1,3.1,3.1,0,0,1-.37-1.56,2.82,2.82,0,0,1,.86-2.17,4,4,0,0,1,4.77,0A2.85,2.85,0,0,1,170.28,52.11Zm-5.64,0a2.16,2.16,0,0,0,2.4,2.36,2.34,2.34,0,0,0,1.78-.62,2.85,2.85,0,0,0,0-3.5,2.83,2.83,0,0,0-3.56,0A2.4,2.4,0,0,0,164.64,52.11Zm12.32,0a2.56,2.56,0,0,1-1,2.14,4.22,4.22,0,0,1-2.65.74h-2V49.23h1.9a6.45,6.45,0,0,1,1.53.17,3.68,3.68,0,0,1,1.17.52,2.06,2.06,0,0,1,.76.89A2.92,2.92,0,0,1,177,52.1Zm-.86,0a2,2,0,0,0-.74-1.75,3.54,3.54,0,0,0-2.15-.55h-1.08v4.57h1.21a3.22,3.22,0,0,0,2.06-.57A2.07,2.07,0,0,0,176.1,52.12ZM178.17,55V49.23h4.42v.6H179v1.88h2.94v.58H179v2.09h3.62V55Zm11.52,0h-1l-3.85-4.52-.25-.27c0,.54,0,1,0,1.45V55h-.82V49.23h1l3.86,4.52.26.27c0-.83,0-1.3,0-1.43V49.23h.81V55ZM191,54a6,6,0,0,0,2.29.44c1,0,1.5-.38,1.5-1.15a.78.78,0,0,0-.23-.6,1.69,1.69,0,0,0-.87-.36l-1.36-.29c-1-.22-1.56-.69-1.56-1.4a1.32,1.32,0,0,1,.67-1.22,3.73,3.73,0,0,1,1.86-.39,5.38,5.38,0,0,1,1.16.11,3.16,3.16,0,0,1,.9.3l-.23.55a4,4,0,0,0-.82-.26,5.07,5.07,0,0,0-1-.11c-1.12,0-1.68.32-1.68,1a.64.64,0,0,0,.26.53,1.79,1.79,0,0,0,.77.31l1.3.26a2.68,2.68,0,0,1,1.26.54,1.27,1.27,0,0,1,.43,1,1.5,1.5,0,0,1-.64,1.32,3,3,0,0,1-1.74.44,6.4,6.4,0,0,1-1.46-.14,4.07,4.07,0,0,1-1-.33Zm10.32.95-.8-1.83h-2.73L196.92,55h-.81l2.62-5.76h.82L202.1,55Zm-1.06-2.39c-.65-1.58-1-2.48-1.08-2.67L198,52.59Z" transform="translate(-147.12 -21.58)"/><g id="Group"><polygon id="Path-2" data-name="Path" class="cls-2" points="41.79 37.69 41.2 37.69 40.81 38.37 41.11 38.37 41.79 37.69"/><polygon id="Path-3" data-name="Path" class="cls-2" points="23.53 39.81 24.69 39.81 24.69 39.5 23.53 39.5 23.53 38.84 24.75 38.84 24.77 38.52 23.13 38.52 23.13 40.88 24.78 40.88 24.8 40.56 23.53 40.56 23.53 39.81"/><path id="Path-4" data-name="Path" class="cls-2" d="M165.19,60.49a1,1,0,0,1,.51-.12,1.32,1.32,0,0,1,.62.15l0,0,.16-.29,0,0a1.74,1.74,0,0,0-.79-.17,1.6,1.6,0,0,0-.56.09,1.14,1.14,0,0,0-.43.25,1,1,0,0,0-.26.38,1.31,1.31,0,0,0,0,1,1.14,1.14,0,0,0,.25.39,1.09,1.09,0,0,0,.42.25,1.6,1.6,0,0,0,.56.09,1.63,1.63,0,0,0,.76-.15l0,0-.07-.3,0,0a1.65,1.65,0,0,1-.63.13,1.09,1.09,0,0,1-.42-.07.71.71,0,0,1-.29-.18,1,1,0,0,1-.17-.28,1.36,1.36,0,0,1-.05-.36,1,1,0,0,1,.1-.47A.79.79,0,0,1,165.19,60.49Z" transform="translate(-147.12 -21.58)"/><path id="Shape-2" data-name="Shape" class="cls-2" d="M174.72,60.37a1.75,1.75,0,0,0-.48-.21,2.9,2.9,0,0,0-.62-.06h-.79v2.35h.84a1.73,1.73,0,0,0,1.08-.3,1.05,1.05,0,0,0,.39-.88,1.21,1.21,0,0,0-.11-.52A1,1,0,0,0,174.72,60.37Zm-1.49,0h.38a1.39,1.39,0,0,1,.83.21.79.79,0,0,1,.28.66.77.77,0,0,1-.27.64,1.18,1.18,0,0,1-.79.22h-.43V60.41Z" transform="translate(-147.12 -21.58)"/><polygon id="Path-5" data-name="Path" class="cls-2" points="24.76 37.69 24.17 37.69 23.78 38.37 24.08 38.37 24.76 37.69"/><path id="Shape-3" data-name="Shape" class="cls-2" d="M168.88,61.46l-.08-.13h0a.69.69,0,0,0,.35-.21.61.61,0,0,0,.14-.4,1.23,1.23,0,0,0,0-.2.67.67,0,0,0-.08-.17.77.77,0,0,0-.13-.12l-.17-.07-.2,0-.24,0h-1.17v2.38h.4V61.39h.74c0,.05.09.15.18.32l.39.74h.46l-.48-.87A1.17,1.17,0,0,0,168.88,61.46Zm0-.74a.29.29,0,0,1-.12.27.84.84,0,0,1-.46.09h-.64v-.69h.69a.89.89,0,0,1,.42.08A.31.31,0,0,1,168.89,60.72Z" transform="translate(-147.12 -21.58)"/><rect id="Rectangle" class="cls-2" x="45.77" y="38.52" width="0.4" height="2.36"/><path id="Shape-4" data-name="Shape" class="cls-2" d="M187.94,60.09l-1.08,2.36h.41l.33-.72h1l.31.72h.42l-1-2.36Zm.55,1.34h-.75l.38-.91Z" transform="translate(-147.12 -21.58)"/><path id="Path-6" data-name="Path" class="cls-2" d="M190.75,60.49a1,1,0,0,1,.51-.12,1.32,1.32,0,0,1,.62.15l0,0,.16-.29,0,0a1.74,1.74,0,0,0-.79-.17,1.7,1.7,0,0,0-.57.09,1.17,1.17,0,0,0-.42.25,1,1,0,0,0-.26.38,1.13,1.13,0,0,0-.1.49,1.3,1.3,0,0,0,.09.49,1.14,1.14,0,0,0,.25.39,1.09,1.09,0,0,0,.42.25,1.6,1.6,0,0,0,.56.09,1.63,1.63,0,0,0,.76-.15l0,0-.08-.3,0,0a1.65,1.65,0,0,1-.63.13,1.09,1.09,0,0,1-.42-.07.65.65,0,0,1-.29-.18,1,1,0,0,1-.17-.28,1,1,0,0,1,0-.36,1,1,0,0,1,.1-.47A.79.79,0,0,1,190.75,60.49Z" transform="translate(-147.12 -21.58)"/><polygon id="Path-7" data-name="Path" class="cls-2" points="47.63 40.55 47.63 38.52 47.22 38.52 47.22 40.88 48.8 40.88 48.82 40.55 47.63 40.55"/><rect id="Rectangle-2" data-name="Rectangle" class="cls-2" x="28.95" y="38.52" width="0.4" height="2.36"/><polygon id="Path-8" data-name="Path" class="cls-2" points="37.76 40.88 38.16 40.88 38.16 39.86 39.28 39.86 39.28 39.55 38.16 39.55 38.16 38.84 39.33 38.84 39.35 38.52 37.76 38.52 37.76 40.88"/><polygon id="Path-9" data-name="Path" class="cls-2" points="30.1 38.84 30.94 38.84 30.94 40.88 31.34 40.88 31.34 38.84 32.17 38.84 32.17 38.52 30.1 38.52 30.1 38.84"/><path id="Shape-5" data-name="Shape" class="cls-2" d="M181.22,60.06a1.41,1.41,0,0,0-1,.32,1.15,1.15,0,0,0-.36.89,1.29,1.29,0,0,0,.16.64,1,1,0,0,0,.45.43,1.59,1.59,0,0,0,.72.15,1.7,1.7,0,0,0,.57-.09,1.27,1.27,0,0,0,.42-.25,1.09,1.09,0,0,0,.25-.38,1.33,1.33,0,0,0,.09-.49,1.15,1.15,0,0,0-.35-.89A1.37,1.37,0,0,0,181.22,60.06Zm0,.31a.89.89,0,0,1,.67.24,1.08,1.08,0,0,1,0,1.33.93.93,0,0,1-.68.23,1,1,0,0,1-.68-.23.92.92,0,0,1-.22-.66.88.88,0,0,1,.23-.67A.89.89,0,0,1,181.22,60.37Z" transform="translate(-147.12 -21.58)"/></g><rect id="Rectangle-3" data-name="Rectangle" x="10.01" y="35.57" width="46.03" height="0.42"/></g></g></g></g></svg>