<svg id="Coopeuch" xmlns="http://www.w3.org/2000/svg" viewBox="0 0 273.77 47.31"><defs><style>.cls-1{fill:#f1353f;}</style></defs><g id="Page-1"><g id="d.creditos18"><g id="Group-2"><path id="Fill-110" class="cls-1" d="M88.75,51.88c-13.51.5-24.41,11.7-24.92,25.53a.92.92,0,0,0,.9,1H84.2a5.56,5.56,0,0,0,5.49-5.6v-20a.93.93,0,0,0-.94-.93" transform="translate(-43.03 -31.07)"/><path id="Fill-111" class="cls-1" d="M84.85,31.07H60.54A17.51,17.51,0,0,0,43,48.59V72.86a5.49,5.49,0,0,0,5.49,5.49H51.8a.9.9,0,0,0,.91-.9,37.67,37.67,0,0,1,36.73-36.7.9.9,0,0,0,.9-.9V36.56a5.49,5.49,0,0,0-5.49-5.49" transform="translate(-43.03 -31.07)"/><path id="Fill-112" class="cls-1" d="M114.76,60.44a6.12,6.12,0,0,1-6.36-6.32,6.17,6.17,0,0,1,6.32-6.4A6,6,0,0,1,119.56,50a1.14,1.14,0,0,0,1.48.33l3.29-1.92a1.1,1.1,0,0,0,.36-1.59,12,12,0,0,0-10-5,12.1,12.1,0,0,0-12.46,12.32,12,12,0,0,0,3.54,8.77,12.72,12.72,0,0,0,18.93-1.48,1.12,1.12,0,0,0-.36-1.62L121,57.91a1.13,1.13,0,0,0-1.48.32,5.78,5.78,0,0,1-4.8,2.21" transform="translate(-43.03 -31.07)"/><path id="Fill-113" class="cls-1" d="M220.87,41.8a12.05,12.05,0,0,0-9,3.54,11.86,11.86,0,0,0-3.5,8.78,11.84,11.84,0,0,0,3.58,8.81,12.84,12.84,0,0,0,9.46,3.5c4.22,0,7.51-1.44,9.82-4.26A.8.8,0,0,0,231,61l-3.33-1.87a1.24,1.24,0,0,0-1.44.14,6.64,6.64,0,0,1-4.77,1.7c-3.65,0-5.89-1.45-6.72-4.37h15.68a2.47,2.47,0,0,0,2.49-2.46v0a12.2,12.2,0,0,0-3.43-8.78A11.26,11.26,0,0,0,220.87,41.8Zm-6.25,10.11c.73-3,3-4.69,6.25-4.69a5.7,5.7,0,0,1,5.89,4.69Z" transform="translate(-43.03 -31.07)"/><path id="Fill-114" class="cls-1" d="M256.56,54.12a6.37,6.37,0,0,1-1.81,4.62,6,6,0,0,1-4.51,1.8,6.22,6.22,0,0,1-4.52-1.8A6.5,6.5,0,0,1,244,54.12V42.77a1,1,0,0,0-1-1h-3.9A1.12,1.12,0,0,0,238,42.92v11.2a12.36,12.36,0,0,0,21,8.74,11.93,11.93,0,0,0,3.57-8.74V42.92a1.12,1.12,0,0,0-1.12-1.12h-3.75a1.12,1.12,0,0,0-1.12,1.12v11.2Z" transform="translate(-43.03 -31.07)"/><path id="Fill-115" class="cls-1" d="M310.91,42.81v7.95a29.8,29.8,0,0,1-10.9-.08V42.81a1,1,0,0,0-1.09-1H295.2a1,1,0,0,0-1.08,1v20.7a1,1,0,0,0,1.08,1h3.72a1.05,1.05,0,0,0,1.09-1V56.35a37,37,0,0,0,5.67.47,36.39,36.39,0,0,0,5.23-.39v7a1,1,0,0,0,1.09,1h3.72a1,1,0,0,0,1.08-1V42.81a1,1,0,0,0-1.08-1H312a1,1,0,0,0-1.09,1" transform="translate(-43.03 -31.07)"/><path id="Fill-116" class="cls-1" d="M206.75,48a7.93,7.93,0,0,0-7.91-6.21H187.25a1,1,0,0,0-1,1V63.51a1,1,0,0,0,1,1H191a1,1,0,0,0,1-1V58.56h6.17a8.88,8.88,0,0,0,8.53-6,8.21,8.21,0,0,0,.07-4.55m-9.25,5.56h-5.67v-7h5.67a3.52,3.52,0,1,1,0,7" transform="translate(-43.03 -31.07)"/><path id="Fill-117" class="cls-1" d="M140.47,41.8a12.09,12.09,0,0,0-8.74,3.57,11.83,11.83,0,0,0-3.54,8.71A12.09,12.09,0,0,0,140.47,66.4a12.16,12.16,0,0,0,12.32-12.32A12.21,12.21,0,0,0,140.47,41.8M145,58.7a6,6,0,0,1-4.52,1.81A6.22,6.22,0,0,1,136,58.7a6.91,6.91,0,0,1,0-9.24,6,6,0,0,1,4.51-1.81A6.19,6.19,0,0,1,145,49.46a6.83,6.83,0,0,1,0,9.24" transform="translate(-43.03 -31.07)"/><path id="Fill-118" class="cls-1" d="M168.86,41.8a12.09,12.09,0,0,0-8.74,3.57,11.83,11.83,0,0,0-3.54,8.71,12.3,12.3,0,1,0,24.6,0A12.21,12.21,0,0,0,168.86,41.8m4.52,16.9a6,6,0,0,1-4.52,1.81,6.22,6.22,0,0,1-4.51-1.81,6.91,6.91,0,0,1,0-9.24,6,6,0,0,1,4.51-1.81,6.19,6.19,0,0,1,4.52,1.81,6.83,6.83,0,0,1,0,9.24" transform="translate(-43.03 -31.07)"/><path id="Fill-119" class="cls-1" d="M278.77,60.44a6.12,6.12,0,0,1-6.36-6.32,6.17,6.17,0,0,1,6.32-6.4A6,6,0,0,1,283.57,50a1.14,1.14,0,0,0,1.48.33l3.29-1.92a1.1,1.1,0,0,0,.36-1.59,12,12,0,0,0-10-5,12.1,12.1,0,0,0-8.92,3.54,12,12,0,0,0-3.54,8.78,12,12,0,0,0,3.54,8.77,12.72,12.72,0,0,0,18.93-1.48,1.1,1.1,0,0,0-.36-1.62l-3.33-1.88a1.13,1.13,0,0,0-1.48.32,5.78,5.78,0,0,1-4.8,2.21" transform="translate(-43.03 -31.07)"/></g></g></g></svg>