<svg id="Cordial" xmlns="http://www.w3.org/2000/svg" viewBox="0 0 274.75 48.14"><defs><style>.cls-1{fill:#133e69;}</style></defs><path class="cls-1" d="M80.48,66l.07.2c.06,5-1.45,9-4.61,12s-7.57,4.41-13.17,4.41S52.56,80.85,49,77.23s-5.27-8.3-5.27-14V53.92c0-5.67,1.71-10.34,5.2-14s7.84-5.47,13.37-5.47c5.79,0,10.27,1.45,13.56,4.41S80.68,46,80.61,51.09l-.06.19H71.4q0-4.64-2.18-7.11c-1.51-1.65-3.82-2.44-6.91-2.44a7.8,7.8,0,0,0-6.72,3.43,14.28,14.28,0,0,0-2.44,8.69V63.2A14.13,14.13,0,0,0,55.72,72a8.33,8.33,0,0,0,7.05,3.42c3,0,5.14-.79,6.52-2.3s2.11-4,2.11-7Z" transform="translate(-43.74 -34.49)"/><path class="cls-1" d="M126.2,62.74c0,5.8-1.78,10.54-5.47,14.29s-8.29,5.6-14.16,5.6c-5.72,0-10.4-1.85-14-5.6s-5.4-8.49-5.4-14.29V54.38a19.66,19.66,0,0,1,5.4-14.23c3.55-3.82,8.23-5.66,14-5.66s10.54,1.84,14.16,5.66a19.43,19.43,0,0,1,5.47,14.23Zm-9.35-8.43a14.26,14.26,0,0,0-2.77-9,9.13,9.13,0,0,0-7.51-3.49,8.86,8.86,0,0,0-7.44,3.49,14.56,14.56,0,0,0-2.63,9v8.5a14.45,14.45,0,0,0,2.7,9.08,8.62,8.62,0,0,0,7.37,3.49,9,9,0,0,0,7.58-3.49,14.45,14.45,0,0,0,2.7-9.08Z" transform="translate(-43.74 -34.49)"/><path class="cls-1" d="M144.24,63.27V82h-9.41V35.15h17.65c5.4,0,9.54,1.25,12.57,3.62A12.52,12.52,0,0,1,169.53,49a10,10,0,0,1-1.91,6.25,13.63,13.63,0,0,1-5.53,4.22,10.12,10.12,0,0,1,6,4.08,13.13,13.13,0,0,1,1.78,7V74a18.81,18.81,0,0,0,.53,4.15,6.22,6.22,0,0,0,1.84,3.16V82h-9.68a5.26,5.26,0,0,1-1.71-3.42,38.58,38.58,0,0,1-.33-4.61v-3.3a7.65,7.65,0,0,0-1.91-5.46,7.52,7.52,0,0,0-5.4-1.91Zm0-7.25h8.1a9.38,9.38,0,0,0,5.93-1.64,6.37,6.37,0,0,0,1.91-5,6.92,6.92,0,0,0-1.91-5.07,8.09,8.09,0,0,0-5.79-1.91h-8.24Z" transform="translate(-43.74 -34.49)"/><path class="cls-1" d="M179.68,82V35.15h16.13a19.38,19.38,0,0,1,14.1,5.46,18.88,18.88,0,0,1,5.59,14.1v7.77c0,5.73-1.84,10.4-5.59,14A19.35,19.35,0,0,1,195.81,82Zm9.42-39.58V74.73h6.19a9.66,9.66,0,0,0,7.9-3.43,13.24,13.24,0,0,0,2.9-8.89V54.64a13.18,13.18,0,0,0-2.9-8.82,9.66,9.66,0,0,0-7.9-3.43Z" transform="translate(-43.74 -34.49)"/><rect class="cls-1" x="181" y="0.66" width="9.42" height="46.82"/><path class="cls-1" d="M270,71.89H253.48L250.32,82h-9.48l16.07-46.82h9.61L282.59,82h-9.48Zm-14.16-7.37h11.85l-5.79-18.37h-.2Z" transform="translate(-43.74 -34.49)"/><path class="cls-1" d="M297.68,74.73h20.81V82H288.26V35.15h9.42Z" transform="translate(-43.74 -34.49)"/></svg>