<svg id="Dana" xmlns="http://www.w3.org/2000/svg" viewBox="0 0 225.69 65.85"><defs><style>.cls-1{fill:#1d89bc;}</style></defs><path class="cls-1" d="M221.34,60V51.36a14,14,0,0,1,27.86-2.3,17.4,17.4,0,0,1,.19,2.6c0,6,0,12,0,18,0,.66-.18.82-.81.81-1.83,0-3.66,0-5.48,0-.63,0-.78-.17-.77-.78q0-9.07,0-18.16a7,7,0,1,0-14-.11c0,3.38,0,6.76,0,10.14,0,2.7,0,5.4,0,8.1,0,.67-.2.82-.83.81-1.83,0-3.65,0-5.48,0-.63,0-.77-.18-.76-.78C221.36,66.47,221.34,63.25,221.34,60Z" transform="translate(-63.95 -20.8)"/><path class="cls-1" d="M125,38.45A32.07,32.07,0,0,0,79.13,25.8,33.32,33.32,0,0,0,68.35,70.3a32.23,32.23,0,0,0,34.77,15.6,32.87,32.87,0,0,0,25.52-32.19A33.57,33.57,0,0,0,125,38.45Zm-9.79,15.38c0,3,0,5.89,0,8.84,0,1.13-.13,1.21-1.08.65-3.82-2.28-7.87-2.27-12-1.17-3.58,1-7,2.4-10.54,3.46-3.34,1-6.71,1.48-10.14.41a15.09,15.09,0,0,1-2.9-1.31,2,2,0,0,1-1.08-1.78V61.29c0-4.91,0-9.82,0-14.73,0-.6,0-1.2,0-1.79,0-.76.26-.87.91-.44a12.54,12.54,0,0,0,6.75,2.19,22.14,22.14,0,0,0,8.1-1.72c3.37-1.23,6.67-2.66,10.16-3.58A12.65,12.65,0,0,1,114,42.76,2.43,2.43,0,0,1,115.17,45C115.14,47.94,115.16,50.89,115.16,53.83Z" transform="translate(-63.95 -20.8)"/><path class="cls-1" d="M289.63,51.36a14,14,0,0,0-28-1.06c-.17,3.18,0,6.38,0,9.57h-.05c0,3.27,0,6.55,0,9.82,0,.6.15.8.78.78,1.85,0,3.71,0,5.56,0,.58,0,.74-.18.73-.74,0-1.91,0-3.82,0-5.73,0-.53.15-.7.69-.7q6.35,0,12.69,0c.5,0,.64.16.63.65,0,1.91,0,3.82,0,5.73,0,.58.1.81.74.79,1.86,0,3.71,0,5.57,0,.63,0,.76-.19.75-.78C289.62,63.58,289.63,57.47,289.63,51.36Zm-7.69,4.8h-6.37c-2.07,0-4.14,0-6.21,0-.63,0-.79-.19-.77-.79.05-1.52-.06-3.05.07-4.57a6.93,6.93,0,0,1,7.13-6.43,7,7,0,0,1,6.77,6.67c.09,1.52,0,3.05,0,4.57C282.62,56.17,282.33,56.17,281.94,56.16Z" transform="translate(-63.95 -20.8)"/><path class="cls-1" d="M209.12,60.08V51.49a16.15,16.15,0,0,0-.15-2.2,14,14,0,0,0-27.85,1.44c-.15,6.38,0,12.76-.05,19.14,0,.48.16.6.61.59,1.93,0,3.87,0,5.81,0,.51,0,.64-.17.63-.66,0-1.94,0-3.88,0-5.81,0-.52.14-.7.69-.7q6.3,0,12.6,0c.6,0,.71.21.7.75,0,1.91,0,3.82,0,5.73,0,.54.16.7.7.69,1.88,0,3.76,0,5.64,0,.58,0,.73-.17.72-.73C209.11,66.52,209.12,63.3,209.12,60.08Zm-7.69-3.91c-2.1,0-4.2,0-6.3,0s-4.2,0-6.3,0c-.58,0-.75-.17-.72-.73.09-1.85-.2-3.72.19-5.55a7,7,0,0,1,7.54-5.49A7,7,0,0,1,202.06,51c.06,1.5,0,3,0,4.5C202.1,56.05,201.92,56.18,201.43,56.17Z" transform="translate(-63.95 -20.8)"/><path class="cls-1" d="M152.61,37.19c-3.66,0-7.31,0-11,0-.72,0-.83.22-.83.87,0,5.26,0,10.53,0,15.79s0,10.58,0,15.87c0,.62.16.76.77.76,3.71,0,7.42,0,11.13,0a14.28,14.28,0,0,0,2.76-.28,16.65,16.65,0,0,0-2.87-33Zm9.16,18a9.36,9.36,0,0,1-9.1,8.06c-1.39,0-2.78,0-4.17,0-.51,0-.64-.14-.64-.64,0-2.95,0-5.89,0-8.84s0-5.72,0-8.59c0-.7.2-.87.86-.83,2.09.12,4.2-.21,6.27.34A9.47,9.47,0,0,1,161.77,55.19Z" transform="translate(-63.95 -20.8)"/></svg>