<svg id="dlocal" xmlns="http://www.w3.org/2000/svg" viewBox="0 0 274.91 62.76"><defs><style>.cls-1{fill:#452182;}</style></defs><path d="M234.63,72.2A8.78,8.78,0,0,1,227,76.6c-5,0-10.27-3.88-10.27-11.21s5.24-11,10.27-11a8.6,8.6,0,0,1,7.65,4.09l.1-.1,8.18-6.92A20.4,20.4,0,0,0,226.77,44C216.08,44,205,51.24,205,65.49S216,87,226.67,86.86a21.09,21.09,0,0,0,16.24-7.44l-8.28-7.22Zm74.49-1.79V24.11H297.49v46.3c0,14.57,7.54,17.71,20.12,15.41L317.19,77c-5.56.95-8.07-.31-8.07-6.6m-22.84,3.67V59.83c0-11.73-8.8-15.82-19.17-15.82-5.45,0-12.05,1.26-17.08,4.19l4,7.86a24.22,24.22,0,0,1,11.53-2.72c4.08,0,9.42,1.15,9.42,6.07v2.31c-3-2-7.12-2.62-10.79-2.62-9,0-16.24,4.71-15.82,14.67.21,7.85,7.13,12.78,14.78,12.78,5.23,0,11.63-2,14-7,0,7.23,6.7,7.54,12.88,6.29l-.1-6.6c-3.77.31-3.67-1.68-3.67-5.14m-11.52-2.83c-.42,4.3-5.35,6.18-9.22,6.18-2.73,0-5.35-1.46-5.56-4.4-.42-4,2.62-6.07,6.29-6.28a14.5,14.5,0,0,1,8.38,2.41v2.09ZM177.11,44c-10.69.11-21.37,7.23-21.37,21.38s10.89,21.37,21.68,21.37,21.38-7.13,21.38-21.37S188,43.91,177.11,44m.11,32.38c-4.93,0-9.75-3.67-9.75-11s4.93-11,9.95-11,9.75,3.67,9.75,11-4.93,11.1-9.95,11m-33.74-6V24.11H131.85v46.3c0,14.57,7.54,17.71,20.12,15.41L151.55,77c-5.56.95-8.07-.31-8.07-6.6M83.24,72.3V24.21H71.4V46.74c-14.15-7-28.71,2.72-28.71,18.75,0,11.42,6.5,21.58,18.76,21.27A13.3,13.3,0,0,0,73.7,78.9v1c.21,7,7.55,7.12,13.41,5.76L87,78.06c-3.67.42-3.77-1.78-3.77-5.76M71.82,67.06c0,4.93-3.25,9.22-8.38,9.22-6.29,0-8.91-5-8.91-10.89,0-10.17,8.91-13.73,17.39-8.81V67.06Z" transform="translate(-42.69 -24.11)"/><rect class="cls-1" x="59.61" y="32.48" width="11.73" height="11.73"/></svg>