<svg id="Efecty" xmlns="http://www.w3.org/2000/svg" viewBox="0 0 66.59 66.59"><defs><style>.cls-1{fill:#f1f923;}.cls-2{fill:#010203;fill-rule:evenodd;}</style></defs><rect class="cls-1" width="66.59" height="66.59"/><path class="cls-2" d="M193.75,70.63l0,5.46a3,3,0,0,0,.22,1c.73,1.61,3.28,1.46,4.77.5l-.66-1.38a2.56,2.56,0,0,1-1.76.38c-.61-.18-.56-.91-.56-1.62V70.59h4.11l3.31,7.55a5.4,5.4,0,0,1-.82,1.85c-1.15,1.61-2.21.93-3.13.72l-.46,1.64a4.18,4.18,0,0,0,4.6-.7,11.58,11.58,0,0,0,2-3.91L208.56,69h-2.11l-2.24,6.75c-.22-.25-2-4.57-2.26-5.3A2.23,2.23,0,0,0,199.56,69c-1.24,0-2.5,0-3.78,0V66.26a16.16,16.16,0,0,0-2,.65v2l-1.64,0,0,1.63Zm-4.14-44.34c10.42,0,17.27,8.38,15.3,18.73s-12,18.74-22.46,18.74S165.17,55.38,167.14,45s12-18.73,22.47-18.73Zm5,2.43C201,31,204.78,37.43,203.33,45c-1.69,8.86-9.83,16.15-18.68,17.08-.7,0-.71-.42-.74-1l.12-3.68c0-.18-.06-.24-.14-.26a14,14,0,0,1-2.69-.57A16.87,16.87,0,0,1,178.32,55c-.44-.22-.38-1.24-.37-1.64.08-.72.61-2.41,1.47-2.49,1-.06,1.52.49,2.54,1,1.8.85,4.3,1.35,6.16.47a1.56,1.56,0,0,0,.69-2.21c-.72-1.52-4.2-2.77-5.78-3.53-3.78-1.61-5.89-4.87-5.22-8.76a7.09,7.09,0,0,1,6-5.44V31.05a20,20,0,0,0-8.48,5.33,18.25,18.25,0,0,0-5.62,13C170,56,173.43,59,177,61.17c-6.19-2.39-9.73-8.72-8.31-16.15a21.92,21.92,0,0,1,19.39-17.13c.36.21.39.25.58.74-.08,1.14-.15,2.29-.23,3.43a10.54,10.54,0,0,1,4.88,2c0,2.63-1.93,3.73-2.68,3.34a25.19,25.19,0,0,0-3.59-1.1,3.77,3.77,0,0,0-2.26.26c-.88.42-1.3,1-.88,2a4.11,4.11,0,0,0,1.62,1.61l5.68,3.07a8.66,8.66,0,0,1,3.55,3.55,7.54,7.54,0,0,1,.35,4.35,7,7,0,0,1-3.41,4.44,9.77,9.77,0,0,1-2.93,1.12c0,.61-.06,1.21-.09,1.83a.36.36,0,0,0,.25,0,21.41,21.41,0,0,0,5.86-3.23c2.38-2.1,4.61-4.3,5.78-7.15a17.62,17.62,0,0,0,1.7-5.41c.64-5.78-1.47-11.23-7.7-14.08ZM170.61,69l0-2a2.77,2.77,0,0,1,1.5-2.24,4,4,0,0,1,3.14.1l-.37,1.6c-2.3-.51-2.29-.08-2.29,2.55h2.51l-.65,1.6-1.86,0v7.53a10.34,10.34,0,0,1-2,0V70.6l-1,0L169,69Zm13.54,4.82c.13,5.39,6,5.1,7.56,3.67a7.15,7.15,0,0,0-.59-1.37c-1.08.44-2.14.94-3.44.29-2-1-1.88-4.77.17-5.72a3.61,3.61,0,0,1,2.72,0c.3.13.51.28.75.38V69.33a5.27,5.27,0,0,0-3.59-.46,4.77,4.77,0,0,0-3.58,4.92Zm-21.34-1.2c.15-1.22.61-2.23,1.92-2.25s1.86,1,1.91,2.28Zm5.63,4.87-.57-1.34a10.85,10.85,0,0,1-1.56.53c-1.8.31-3.43-.53-3.47-2.58h5.87c0-2.06-.37-4.41-2.66-5.13a4.16,4.16,0,0,0-3.22.31c-3.17,1.9-3,9.15,2.55,9.08a5.3,5.3,0,0,0,3.06-.87Zm8.77-4.84c.1-1.24.67-2.27,1.94-2.28S181,71.4,181,72.62Zm-2,1.31c.22,3.39,2.85,5,6.08,4.23a13.61,13.61,0,0,0,1.59-.62l-.57-1.43c-.82.25-1.87,1-3.34.44a2.53,2.53,0,0,1-1.69-2.47h5.87c0-2.68-.81-5.3-3.89-5.32s-4.21,2.5-4.05,5.18Z" transform="translate(-151.36 -21.21)"/></svg>