<svg id="Elo" xmlns="http://www.w3.org/2000/svg" viewBox="0 0 171.66 66.54"><defs><style>.cls-1{fill:#ffcc01;}.cls-2{fill:#3698c5;}.cls-3{fill:#ff1901;}</style></defs><path class="cls-1" d="M123.54,36.64a18.9,18.9,0,0,1,6.13-1,19.42,19.42,0,0,1,19,15.67l13.27-2.74a33,33,0,0,0-32.24-26.62,32.49,32.49,0,0,0-10.43,1.71Z" transform="translate(-96.77 -21.94)"/><path class="cls-2" d="M107.88,80.13l9-10.26a19.73,19.73,0,0,1,0-29.32l-9-10.26a33.51,33.51,0,0,0,0,49.84" transform="translate(-96.77 -21.94)"/><path class="cls-3" d="M148.64,59.14a19.33,19.33,0,0,1-25.11,14.64l-4.3,13a32.5,32.5,0,0,0,10.44,1.71A33,33,0,0,0,161.9,61.89Z" transform="translate(-96.77 -21.94)"/><path d="M173.51,70.3a25.06,25.06,0,0,1-1.38-2.69,20,20,0,0,1-.43-14.94,19.66,19.66,0,0,1,10.5-11.59,20,20,0,0,1,18.55,1.37c3.68,2.14,6.3,5.44,8.28,10.11.25.6.48,1.24.69,1.78ZM185.6,49c-4.3,1.86-6.51,5.94-6.06,10.73l18.22-7.93C194.62,48.09,190.55,46.85,185.6,49ZM200,66.26h0l-.38-.26a10.74,10.74,0,0,1-4.92,4.17c-4.07,1.79-7.85,1.33-10.56-1.08l-.25.39h0l-4.62,7a19.33,19.33,0,0,0,3.67,2A19.95,19.95,0,0,0,207.07,71Z" transform="translate(-96.77 -21.94)"/><path d="M222.38,30.79V69.66l6,2.45-3.4,8-6.59-2.78a7.43,7.43,0,0,1-3.25-2.76,8.75,8.75,0,0,1-1.28-4.81v-39Z" transform="translate(-96.77 -21.94)"/><path d="M237.86,59.76a11.07,11.07,0,0,1,3.73-8.3l-6.13-6.91a20.46,20.46,0,0,0,0,30.42L241.57,68A11,11,0,0,1,237.86,59.76Z" transform="translate(-96.77 -21.94)"/><path d="M248.75,70.79a10.9,10.9,0,0,1-3.45-.57L242.37,79a20,20,0,0,0,26.06-15.16l-9-1.86A10.94,10.94,0,0,1,248.75,70.79Z" transform="translate(-96.77 -21.94)"/><path d="M248.78,39.46a19.73,19.73,0,0,0-6.37,1l2.9,8.81a10.88,10.88,0,0,1,14.13,8.27l9-1.84A20.13,20.13,0,0,0,248.78,39.46Z" transform="translate(-96.77 -21.94)"/></svg>