<svg id="EPS" xmlns="http://www.w3.org/2000/svg" viewBox="0 0 108.42 66.69"><defs><style>.cls-1{fill:#71706f;}.cls-2{fill:#c8156f;}</style></defs><path class="cls-1" d="M207.84,55.06H199.2a1.73,1.73,0,0,1-1.74-1.73,1.8,1.8,0,0,1,1.74-1.8h13.16V45H199.2a8.33,8.33,0,0,0,0,16.65h8.52a1.73,1.73,0,0,1,1.75,1.72,1.68,1.68,0,0,1-1.75,1.66H189.45c-1.55,3-3.06,5.5-6.12,6.77h24.51a8.39,8.39,0,0,0,0-16.78" transform="translate(-122.8 -21.7)"/><path class="cls-1" d="M174.73,45a13.35,13.35,0,0,0-13.29,13.37V86.23h6.63V71.84h6.64a13.4,13.4,0,0,0,0-26.8m0,20h-6.66V58.39a6.67,6.67,0,1,1,6.66,6.68" transform="translate(-122.8 -21.7)"/><path class="cls-2" d="M140.46,71.84a13.47,13.47,0,0,1-13-10.3,19.25,19.25,0,0,1-.42-3.2,21,21,0,0,1,.39-3.22,13.38,13.38,0,0,1,26.36,3.19v3.24H134.28a6.71,6.71,0,0,0,6.18,3.52H158l0-19.08a5.19,5.19,0,0,0-5.17-5.18H128a5.13,5.13,0,0,0-5.17,5.11V70.83A5.25,5.25,0,0,0,128,76.07h24.92A5.15,5.15,0,0,0,158,71.84Z" transform="translate(-122.8 -21.7)"/><path class="cls-2" d="M140.43,51.3a7.18,7.18,0,0,0-6.17,3.76h12.35a7.19,7.19,0,0,0-6.18-3.76" transform="translate(-122.8 -21.7)"/><path class="cls-2" d="M151.71,32.71a11.29,11.29,0,0,0-22.56-.3V35.8a.78.78,0,0,0,.73.78H134a.81.81,0,0,0,.76-.78V32.71a5.64,5.64,0,0,1,11.28,0V35.8a.79.79,0,0,0,.74.78H151a.8.8,0,0,0,.75-.78Z" transform="translate(-122.8 -21.7)"/><path class="cls-1" d="M182.16,80.44l-.6,3.4a2.77,2.77,0,0,1-2.95,2.51,1.93,1.93,0,0,1-2-2.51l.6-3.4h.93l-.6,3.4c-.19,1.06.29,1.66,1.19,1.66a1.86,1.86,0,0,0,1.91-1.66l.6-3.4Zm-3.63-1.06a.42.42,0,0,0,.45.42.6.6,0,0,0,.61-.6.39.39,0,0,0-.43-.42.59.59,0,0,0-.63.6m2,0a.43.43,0,0,0,.47.43.61.61,0,0,0,.6-.6.41.41,0,0,0-.43-.42.6.6,0,0,0-.64.59" transform="translate(-122.8 -21.7)"/><path class="cls-1" d="M184.4,80.44,184,82.79a2.14,2.14,0,0,1,1.58-.74,1.61,1.61,0,0,1,1.75,1.73,2.41,2.41,0,0,1-2.52,2.55,1.38,1.38,0,0,1-1.31-.72l-.15.62h-.81l1-5.79Zm-.65,4a1,1,0,0,0,1.05,1.12A1.64,1.64,0,0,0,186.44,84a1,1,0,0,0-1-1.1,1.67,1.67,0,0,0-1.65,1.55" transform="translate(-122.8 -21.7)"/><path class="cls-1" d="M189,84.53c0,.57.41,1,1.16,1a2,2,0,0,0,1.26-.45l.47.54a2.9,2.9,0,0,1-1.89.7,1.7,1.7,0,0,1-1.88-1.79A2.51,2.51,0,0,1,190.71,82c1.32,0,2.07.8,1.62,2.49Zm2.63-.7c.07-.71-.35-1-1-1a1.43,1.43,0,0,0-1.45,1Z" transform="translate(-122.8 -21.7)"/><path class="cls-1" d="M194.63,82.14l0,.54a1.54,1.54,0,0,1,1.33-.63,1.31,1.31,0,0,1,1,.35l-.52.75a.88.88,0,0,0-.68-.25A1.28,1.28,0,0,0,194.35,84L194,86.23h-.86l.73-4.09Z" transform="translate(-122.8 -21.7)"/><path class="cls-1" d="M201,82.14l.43,3.23L203,82.14h1l-2.16,4.09h-1l-.41-2.7-.66,1.34L199,86.23h-1l-.72-4.09h1l.43,3.23,1.57-3.23Z" transform="translate(-122.8 -21.7)"/><path class="cls-1" d="M205.06,84.53c0,.57.41,1,1.16,1a2,2,0,0,0,1.26-.45l.47.54a2.9,2.9,0,0,1-1.89.7,1.7,1.7,0,0,1-1.88-1.79A2.51,2.51,0,0,1,206.77,82c1.32,0,2.07.8,1.62,2.49Zm2.63-.7c.07-.71-.35-1-1-1a1.44,1.44,0,0,0-1.45,1Z" transform="translate(-122.8 -21.7)"/><path class="cls-1" d="M210.75,82.14,210,86.23h-.86l.73-4.09ZM210,81a.42.42,0,0,0,.45.44.6.6,0,0,0,.64-.62.42.42,0,0,0-.43-.44A.62.62,0,0,0,210,81" transform="translate(-122.8 -21.7)"/><path class="cls-1" d="M214.56,83.15a1.27,1.27,0,0,0-1-.39c-.57,0-1,.2-1,.55s.33.43.81.47c.75.07,1.71.32,1.51,1.38-.14.76-.91,1.21-2,1.21a2,2,0,0,1-1.74-.76l.56-.6a1.65,1.65,0,0,0,1.33.6c.41,0,.9-.15,1-.53s-.25-.51-.85-.57-1.47-.32-1.47-1.1c0-1,1.11-1.38,1.95-1.38a1.85,1.85,0,0,1,1.48.55Z" transform="translate(-122.8 -21.7)"/><path class="cls-1" d="M217.27,82.14l-.4,2.2c-.12.7.2,1.18.91,1.18a1.46,1.46,0,0,0,1.37-1.24l.38-2.14h.85l-.72,4.09h-.78l.06-.6a2.13,2.13,0,0,1-1.53.68c-1,0-1.61-.73-1.39-2l.39-2.2Z" transform="translate(-122.8 -21.7)"/><path class="cls-1" d="M224.15,86.23l.4-2.19c.12-.71-.12-1.18-.9-1.18a1.45,1.45,0,0,0-1.38,1.22l-.37,2.15H221l.72-4.09h.79l-.06.59a2.15,2.15,0,0,1,1.5-.66c1,0,1.65.7,1.42,2l-.39,2.2Z" transform="translate(-122.8 -21.7)"/><path class="cls-1" d="M227.07,86.79c-.06.56.37.79,1.1.79a1.43,1.43,0,0,0,1.47-1.25l.13-.7a2,2,0,0,1-1.57.73,1.64,1.64,0,0,1-1.78-1.76A2.46,2.46,0,0,1,229,82.05a1.31,1.31,0,0,1,1.28.74l.14-.65h.84l-.72,4.21a2.33,2.33,0,0,1-2.49,2c-1.26,0-2-.61-1.79-1.6Zm.24-2.36a1.06,1.06,0,0,0,1.11,1.13c1.78,0,2.26-2.73.48-2.73a1.56,1.56,0,0,0-1.59,1.6" transform="translate(-122.8 -21.7)"/></svg>