<svg id="Fawry" xmlns="http://www.w3.org/2000/svg" viewBox="0 0 208.56 66.27"><defs><style>.cls-1{fill:#fbd325;}.cls-2{fill:#126f97;}.cls-3{fill:#fff;}</style></defs><path class="cls-1" d="M281.68,87.57h-198a2.08,2.08,0,0,0-.41-.11,5.32,5.32,0,0,1-4.63-4c-.07-.25-.15-.49-.23-.74V26.13a1.74,1.74,0,0,0,.13-.36,5.26,5.26,0,0,1,4.12-4.24c.34-.09.68-.15,1-.22h198a2.17,2.17,0,0,0,.42.11,5.33,5.33,0,0,1,4.63,4c.07.25.15.49.22.74V82.75c0,.12-.1.24-.13.36a5.28,5.28,0,0,1-4.12,4.25C282.37,87.44,282,87.5,281.68,87.57ZM205,55.74h-.16l-.18-.56q-1.45-4.92-2.92-9.83a2.51,2.51,0,0,0-2.45-1.94c-1.33,0-2.66,0-4,0a.77.77,0,0,0-.86.88,3.22,3.22,0,0,0,.12.88c.16.58.36,1.14.54,1.71q2.68,8.35,5.37,16.7a2.57,2.57,0,0,0,2.64,1.91h2.47a2.65,2.65,0,0,0,2.79-2q1.74-5.51,3.47-11c.06-.18.13-.36.24-.67.13.35.2.54.26.74l3.45,10.95a2.65,2.65,0,0,0,2.75,2h2.41a2.61,2.61,0,0,0,2.76-2q2.49-7.69,5-15.41c.36-1.12.74-2.24,1-3.37.22-.9-.17-1.31-1.08-1.31h-3.25a2.74,2.74,0,0,0-3.05,2.29c-.85,2.87-1.69,5.74-2.54,8.6-.15.49-.31,1-.46,1.47a2.61,2.61,0,0,1-.42-.92l-2.82-9.63a2.27,2.27,0,0,0-2.44-1.8h-3A2.33,2.33,0,0,0,208,45.32c-.58,2-1.14,3.91-1.71,5.86C205.87,52.7,205.43,54.22,205,55.74Zm-18.87,8a2.4,2.4,0,0,1,0,.33c.07,1.11.42,1.44,1.53,1.45h3.25c1,0,1.39-.4,1.39-1.4q0-6.3,0-12.61a8.7,8.7,0,0,0-.87-3.95,8,8,0,0,0-5.59-4.11,20.62,20.62,0,0,0-6.74-.32,14.22,14.22,0,0,0-4.73,1.07,4.77,4.77,0,0,0-3.11,4.23c-.08,1,.4,1.6,1.43,1.61h2.64a2.93,2.93,0,0,0,2.32-1,3.66,3.66,0,0,1,.95-.76,5.81,5.81,0,0,1,3-.65c2.6,0,3.66,1,3.94,3.57,0,.53-.1.69-.62.68-2.08,0-4.15,0-6.22,0a12.31,12.31,0,0,0-4.61.84,6.33,6.33,0,0,0-4.38,6.09,6.44,6.44,0,0,0,4,6.17,12,12,0,0,0,4.57,1,11.81,11.81,0,0,0,6.87-1.61Zm76.66.12a6.86,6.86,0,0,1-1.43,3,3.19,3.19,0,0,1-3.08,1.06,24.51,24.51,0,0,0-2.55-.27,1.14,1.14,0,0,0-1.27,1.25c0,.65,0,1.31,0,2a1.29,1.29,0,0,0,1.27,1.48c1.76.18,3.53.38,5.3.4a6.85,6.85,0,0,0,6.47-3.88,22.63,22.63,0,0,0,1.82-4.38c1.86-6.54,3.63-13.1,5.42-19.66.25-.91-.14-1.39-1.1-1.39h-3.75A1.75,1.75,0,0,0,268,44.76c-.13.43-.24.86-.36,1.29-1.13,4.11-2.27,8.21-3.39,12.32-.12.45-.33.56-.76.46a2.94,2.94,0,0,1-1.7-1.11,10.51,10.51,0,0,1-1.71-3.51c-1-3.1-1.89-6.21-2.84-9.32a1.91,1.91,0,0,0-2-1.49h-3.81c-.89,0-1.26.5-1,1.36,1,3.49,2.08,7,3.17,10.46a17.42,17.42,0,0,0,2.73,5.55A7.17,7.17,0,0,0,261,63.59C261.51,63.69,262.09,63.74,262.77,63.83ZM152.85,54.4h0c0,3.19,0,6.39,0,9.58,0,1.13.38,1.5,1.52,1.51H158c1.17,0,1.54-.37,1.54-1.54,0-3.87,0-7.74,0-11.61,0-.51.16-.67.67-.66,2.11,0,4.22,0,6.33,0a1.21,1.21,0,0,0,1.37-1.34c0-.67,0-1.34,0-2,0-1.1-.39-1.48-1.5-1.48-2.07,0-4.14,0-6.22,0-.52,0-.7-.18-.65-.69s0-1.12.12-1.67c.24-1.86,1-2.84,2.57-3.21a11.86,11.86,0,0,1,5-.19,10.88,10.88,0,0,0,1.89.16,1.21,1.21,0,0,0,1.37-1.34c0-.61,0-1.23,0-1.85a1.34,1.34,0,0,0-1.26-1.5c-.7-.13-1.4-.22-2.11-.28a26,26,0,0,0-8.25.39c-2.49.59-4.46,1.9-5.3,4.42a13.12,13.12,0,0,0-.73,3.77C152.78,48,152.85,51.22,152.85,54.4Zm86.54-8.54c0-.48,0-.83,0-1.18a1.19,1.19,0,0,0-1.31-1.28h-4.14a1.19,1.19,0,0,0-1.35,1.34q0,9.7,0,19.4a1.19,1.19,0,0,0,1.35,1.34h3.87c1.19,0,1.58-.38,1.58-1.57,0-3.7.05-7.4,0-11.1a3.19,3.19,0,0,1,1.18-2.71,6,6,0,0,1,4.74-1.72,26.2,26.2,0,0,0,2.8.1,1.13,1.13,0,0,0,1.25-1.22c0-1,0-2.05,0-3.08a1.14,1.14,0,0,0-1.2-1.21A12.56,12.56,0,0,0,241,44.81C240.48,45.12,240,45.45,239.39,45.86Z" transform="translate(-78.39 -21.31)"/><path class="cls-2" d="M205,55.74c.45-1.52.89-3,1.34-4.56.57-2,1.13-3.91,1.71-5.86a2.33,2.33,0,0,1,2.58-1.93h3a2.27,2.27,0,0,1,2.44,1.8l2.82,9.63a2.61,2.61,0,0,0,.42.92c.15-.49.31-1,.46-1.47.85-2.86,1.69-5.73,2.54-8.6a2.74,2.74,0,0,1,3.05-2.29h3.25c.91,0,1.3.41,1.08,1.31-.29,1.13-.67,2.25-1,3.37q-2.47,7.71-5,15.41a2.61,2.61,0,0,1-2.76,2h-2.41a2.65,2.65,0,0,1-2.75-2l-3.45-10.95c-.06-.2-.13-.39-.26-.74-.11.31-.18.49-.24.67q-1.74,5.49-3.47,11a2.65,2.65,0,0,1-2.79,2H203.1a2.57,2.57,0,0,1-2.64-1.91q-2.7-8.35-5.37-16.7c-.18-.57-.38-1.13-.54-1.71a3.22,3.22,0,0,1-.12-.88.77.77,0,0,1,.86-.88c1.32,0,2.65,0,4,0a2.51,2.51,0,0,1,2.45,1.94q1.47,4.9,2.92,9.83l.18.56Z" transform="translate(-78.39 -21.31)"/><path class="cls-2" d="M186.11,63.71l-.92.57a11.81,11.81,0,0,1-6.87,1.61,12,12,0,0,1-4.57-1,6.44,6.44,0,0,1-4-6.17,6.33,6.33,0,0,1,4.38-6.09,12.31,12.31,0,0,1,4.61-.84c2.07,0,4.14,0,6.22,0,.52,0,.67-.15.62-.68-.28-2.57-1.34-3.56-3.94-3.57a5.81,5.81,0,0,0-3,.65,3.66,3.66,0,0,0-.95.76,2.93,2.93,0,0,1-2.32,1h-2.64c-1,0-1.51-.57-1.43-1.61a4.77,4.77,0,0,1,3.11-4.23,14.22,14.22,0,0,1,4.73-1.07,20.62,20.62,0,0,1,6.74.32,8,8,0,0,1,5.59,4.11,8.7,8.7,0,0,1,.87,3.95q0,6.31,0,12.61c0,1-.4,1.4-1.39,1.4h-3.25c-1.11,0-1.46-.34-1.53-1.45A2.4,2.4,0,0,0,186.11,63.71Zm-4-7.35v0c-1,0-2.06,0-3.08,0a2.53,2.53,0,0,0-2.3,1.45,2.36,2.36,0,0,0,1.81,3.32,9.37,9.37,0,0,0,6.81-1.56.71.71,0,0,0,.21-.53c0-.73,0-1.45,0-2.18,0-.42-.16-.55-.56-.55C184.05,56.37,183.08,56.36,182.11,56.36Z" transform="translate(-78.39 -21.31)"/><path class="cls-2" d="M262.77,63.83c-.68-.09-1.26-.14-1.82-.24a7.17,7.17,0,0,1-4.56-2.82,17.42,17.42,0,0,1-2.73-5.55c-1.09-3.48-2.12-7-3.17-10.46-.26-.86.11-1.36,1-1.36h3.81a1.91,1.91,0,0,1,2,1.49c1,3.11,1.88,6.22,2.84,9.32a10.51,10.51,0,0,0,1.71,3.51,2.94,2.94,0,0,0,1.7,1.11c.43.1.64,0,.76-.46,1.12-4.11,2.26-8.21,3.39-12.32.12-.43.23-.86.36-1.29a1.75,1.75,0,0,1,1.82-1.36h3.75c1,0,1.35.48,1.1,1.39-1.79,6.56-3.56,13.12-5.42,19.66a22.63,22.63,0,0,1-1.82,4.38A6.85,6.85,0,0,1,261,72.71c-1.77,0-3.54-.22-5.3-.4a1.29,1.29,0,0,1-1.27-1.48c0-.65,0-1.31,0-2a1.14,1.14,0,0,1,1.27-1.25,24.51,24.51,0,0,1,2.55.27,3.19,3.19,0,0,0,3.08-1.06A6.86,6.86,0,0,0,262.77,63.83Z" transform="translate(-78.39 -21.31)"/><path class="cls-2" d="M152.85,54.4c0-3.18-.07-6.36,0-9.53a13.12,13.12,0,0,1,.73-3.77c.84-2.52,2.81-3.83,5.3-4.42a26,26,0,0,1,8.25-.39c.71.06,1.41.15,2.11.28a1.34,1.34,0,0,1,1.26,1.5c0,.62,0,1.24,0,1.85a1.21,1.21,0,0,1-1.37,1.34,10.88,10.88,0,0,1-1.89-.16,11.86,11.86,0,0,0-5,.19c-1.58.37-2.33,1.35-2.57,3.21-.07.55-.07,1.12-.12,1.67s.13.69.65.69c2.08,0,4.15,0,6.22,0,1.11,0,1.49.38,1.5,1.48,0,.67,0,1.34,0,2a1.21,1.21,0,0,1-1.37,1.34c-2.11,0-4.22,0-6.33,0-.51,0-.67.15-.67.66,0,3.87,0,7.74,0,11.61,0,1.17-.37,1.53-1.54,1.54h-3.7c-1.14,0-1.52-.38-1.52-1.51,0-3.19,0-6.39,0-9.58Z" transform="translate(-78.39 -21.31)"/><path class="cls-2" d="M239.39,45.86c.61-.41,1.09-.74,1.57-1A12.56,12.56,0,0,1,248.13,43a1.14,1.14,0,0,1,1.2,1.21c0,1,0,2.06,0,3.08a1.13,1.13,0,0,1-1.25,1.22,26.2,26.2,0,0,1-2.8-.1,6,6,0,0,0-4.74,1.72,3.19,3.19,0,0,0-1.18,2.71c.08,3.7,0,7.4,0,11.1,0,1.19-.39,1.56-1.58,1.57h-3.87a1.19,1.19,0,0,1-1.35-1.34q0-9.7,0-19.4a1.19,1.19,0,0,1,1.35-1.34h4.14a1.19,1.19,0,0,1,1.31,1.28C239.4,45,239.39,45.38,239.39,45.86Z" transform="translate(-78.39 -21.31)"/><path class="cls-1" d="M182.11,56.36c1,0,1.94,0,2.91,0,.4,0,.57.13.56.55,0,.73,0,1.45,0,2.18a.71.71,0,0,1-.21.53,9.37,9.37,0,0,1-6.81,1.56,2.36,2.36,0,0,1-1.81-3.32A2.53,2.53,0,0,1,179,56.4c1-.06,2.05,0,3.08,0Z" transform="translate(-78.39 -21.31)"/><path class="cls-3" d="M142.3,54.23a26.18,26.18,0,1,1-7.72-18.56A26.17,26.17,0,0,1,142.3,54.23Z" transform="translate(-78.39 -21.31)"/><path class="cls-2" d="M128.27,65.35l-3.52-1.76s-6,10.94-16.51,15.6a26.09,26.09,0,0,1-9.95-5.81,18,18,0,0,0,10-5.38c6.41-6.3,7.88-9.77,7.88-9.77l-2.74-1.83a1.37,1.37,0,0,1,.3-2.44l12.1-4.22a1.38,1.38,0,0,1,1.81,1.12l1.8,13.69A.79.79,0,0,1,128.27,65.35Z" transform="translate(-78.39 -21.31)"/><path class="cls-2" d="M131.92,50.2a.8.8,0,0,1-1.53-.16l-.8-4.63-6,1.85a.8.8,0,0,1-1-1.1,44.33,44.33,0,0,0,2.84-8.11,14.94,14.94,0,0,0-.45-8.43,26.19,26.19,0,0,1,9.54,6.05C135.06,41.15,133.18,47,131.92,50.2Z" transform="translate(-78.39 -21.31)"/></svg>