<svg id="Flutterwave" xmlns="http://www.w3.org/2000/svg" viewBox="0 0 276.57 54.6"><defs><style>.cls-1{fill:#10112b;}.cls-2{fill:#eba12a;}</style></defs><path class="cls-1" d="M184.78,54.56a.86.86,0,0,0,.87-.74.94.94,0,0,0-.87-.88h-5.95V47.83A.94.94,0,0,0,178,47h-.1a.83.83,0,0,0-.73.88v5.11h-2a.86.86,0,0,0-.88.74,1,1,0,0,0,.88.88h2V66.64c0,3.41,2.35,5,5.16,5a7.57,7.57,0,0,0,2.67-.41.8.8,0,0,0,.56-.74.73.73,0,0,0-.74-.74,6.51,6.51,0,0,1-2.17.32c-2.26,0-3.78-1-3.78-3.64V54.56Z" transform="translate(-39.47 -31.95)"/><path class="cls-1" d="M197.73,52.44c-5.07,0-8.85,4.28-8.85,9.72v.14c0,5.86,4.2,9.73,9.18,9.73a9.33,9.33,0,0,0,7.23-3,.84.84,0,0,0,.33-.64,1,1,0,0,0-.88-.88.88.88,0,0,0-.55.23,8.42,8.42,0,0,1-6,2.59c-3.64,0-7-2.68-7.33-7.29h14.66a1,1,0,0,0,.88-.88C206.36,56.72,203,52.44,197.73,52.44Zm-7,8.85c.32-4.06,3.23-7.19,6.92-7.19,4.19,0,6.45,3.41,6.68,7.19Z" transform="translate(-39.47 -31.95)"/><path class="cls-1" d="M131.07,44.69H131a.84.84,0,0,0-.79.88V70.51a.88.88,0,1,0,1.75,0V45.66A.87.87,0,0,0,131.07,44.69Z" transform="translate(-39.47 -31.95)"/><path class="cls-1" d="M123.6,46H107.23a.92.92,0,0,0-.83,1h-.09V70.65a1,1,0,0,0,1,1,1.13,1.13,0,0,0,1.06-1V60h13.78a.88.88,0,1,0,0-1.75H108.2V47.83h15.4a.88.88,0,0,0,.88-.88A1,1,0,0,0,123.6,46Z" transform="translate(-39.47 -31.95)"/><path class="cls-1" d="M154.54,53.68h0a.88.88,0,0,0-1.75,0V64.05a6.23,6.23,0,0,1-6.46,6.23c-3.78,0-5.94-2.44-5.94-6.32V53.68a.85.85,0,0,0-.88-.87.94.94,0,0,0-.87.87V64.29c0,4.38,2.81,7.6,7.42,7.6A7.36,7.36,0,0,0,152.88,68v2.67a.84.84,0,0,0,.87.88.86.86,0,0,0,.88-.88h-.09Z" transform="translate(-39.47 -31.95)"/><path class="cls-1" d="M220.79,52.71a8.75,8.75,0,0,0-7.43,5.58V53.77a.94.94,0,0,0-.87-.87.92.92,0,0,0-1,.87V70.92a.94.94,0,0,0,.87.88.92.92,0,0,0,1-.88V64.05c0-6,3.41-8.89,7.43-9.31h.09a1,1,0,0,0,.87-1A1,1,0,0,0,220.79,52.71Z" transform="translate(-39.47 -31.95)"/><path class="cls-1" d="M170.07,54.56a.84.84,0,0,0,.88-.74.92.92,0,0,0-.88-.88h-5.95V47.83a.94.94,0,0,0-.87-.88h-.09a.86.86,0,0,0-.74.88v5.11h-2a.84.84,0,0,0-.88.74,1,1,0,0,0,.88.88h2V66.64c0,3.41,2.35,5,5.16,5a8,8,0,0,0,2.68-.41.8.8,0,0,0,.55-.74.73.73,0,0,0-.74-.74,6.67,6.67,0,0,1-2.17.32c-2.25,0-3.78-1-3.78-3.64V54.56Z" transform="translate(-39.47 -31.95)"/><path class="cls-1" d="M264,51.75a18,18,0,0,0-6.27,1h0a2,2,0,0,0-1.29,2.12A2.15,2.15,0,0,0,258.82,57a2,2,0,0,0,.74-.1,11.27,11.27,0,0,1,3.87-.55c2.81,0,4.2,1.2,4.2,3.55v.32a15.31,15.31,0,0,0-4.75-.74c-4.66,0-7.89,2-7.89,6.32,0,3.87,3.14,6,6.69,6a7.63,7.63,0,0,0,5.95-2.44,2.59,2.59,0,0,0,2.67,2.35A2.64,2.64,0,0,0,273,69V60.23A8.79,8.79,0,0,0,270.81,54,10,10,0,0,0,264,51.75Zm3.64,12.77c0,2.12-1.84,3.41-4.42,3.32-1.71,0-3-.88-3-2.36v-.09c0-1.61,1.52-2.67,3.87-2.67a10,10,0,0,1,3.55.74Z" transform="translate(-39.47 -31.95)"/><path class="cls-1" d="M250.2,51.75h0a2.75,2.75,0,0,0-2.67,2.12l-3.14,10-3.13-10a3,3,0,0,0-2.91-2.26H238a2.92,2.92,0,0,0-2.91,2.26L232,63.73l-3-10a2.81,2.81,0,0,0-2.67-2.12h-.09a2.56,2.56,0,0,0-2.49,2.58,4.24,4.24,0,0,0,.23,1.3l4.84,13.83a3.2,3.2,0,0,0,3,2.44H232a3.18,3.18,0,0,0,3-2.35l3.14-9.87,3.13,9.87a3.1,3.1,0,0,0,3,2.35h.23a3.12,3.12,0,0,0,3.13-2.44l4.84-13.93a4,4,0,0,0,.23-1.06v-.09A2.51,2.51,0,0,0,250.2,51.75Z" transform="translate(-39.47 -31.95)"/><path class="cls-1" d="M292.15,51.65a2.61,2.61,0,0,0-2.58,1.94l-4.38,11.34L281,53.68a2.8,2.8,0,0,0-2.68-2,2.68,2.68,0,0,0-2.67,2.58,2.71,2.71,0,0,0,.32,1.3l6,13.83a3.46,3.46,0,0,0,3.14,2.44h.32a3.77,3.77,0,0,0,3.23-2.35l5.8-13.83a2.72,2.72,0,0,0,.33-1.29v-.1A2.63,2.63,0,0,0,292.15,51.65Z" transform="translate(-39.47 -31.95)"/><path class="cls-1" d="M306.68,51.61C301,51.61,297,56.22,297,61.8v.78H297a9.69,9.69,0,0,0,10.24,9.22,10.38,10.38,0,0,0,6.77-2.35,1.85,1.85,0,0,0,.74-1.61v-.1a2.13,2.13,0,0,0-2.17-2.12,1.86,1.86,0,0,0-1.29.42,6.19,6.19,0,0,1-4,1.29,4.54,4.54,0,0,1-4.75-3.87h11.11A2.5,2.5,0,0,0,316,60.78v-.41A9,9,0,0,0,306.68,51.61Zm-4.15,8.62c.41-2.58,1.93-4.2,4.19-4.2s3.78,1.71,4.1,4.2Z" transform="translate(-39.47 -31.95)"/><path class="cls-2" d="M92.39,71.06c-2.26-6.31-7.56-11.89-12.73-15.86,7.52-5.81,23.06-26.46-1.2-22.82-10.6,1.52-26.09,11-29.27,21.9a81.86,81.86,0,0,0-5.39-8.44c-2.91-3.73-6.23-.87-3,3C50,59.91,56.34,73.18,56.34,86.55c.78-6.64-.42-14.75-3.23-22.68a15.74,15.74,0,0,0,4.33.65c5,7.51,12.5,13.92,21,16.92C86.26,84.34,96.58,82.63,92.39,71.06Zm-11.67-36c13.47-1.39-1,14.1-5.71,17-4.43-2.68-9.92-5-15.31-4.38C63.57,43.08,73,35.93,80.72,35.06Zm-21.16,16c3.69-.32,7.66,1.61,10.7,3.55a25.35,25.35,0,0,1-9.5,2.44C55.83,57.14,54.81,51.56,59.56,51.1ZM78.23,75.35C71.87,73.64,66,68.94,61.64,64.1a33.43,33.43,0,0,0,10.23-3.73,20,20,0,0,0,3.46-2c3.78,3.23,7.65,7.47,9.17,12.31C86,75.9,81.92,76.32,78.23,75.35Z" transform="translate(-39.47 -31.95)"/></svg>