<svg id="Foxpay" xmlns="http://www.w3.org/2000/svg" viewBox="0 0 196.27 62.59"><path d="M234.89,73A6.87,6.87,0,0,1,231,71.79a7.46,7.46,0,0,1-2.61-3.21h-.23l.17,3.06V85.06h-2.43V44.58h2l.26,3.82h.23A8.28,8.28,0,0,1,231,45.17,6,6,0,0,1,234.55,44q8.16,0,8.16,14.4,0,7-2,10.73A6.29,6.29,0,0,1,234.89,73Zm-.49-26.6a4.88,4.88,0,0,0-4.55,2.7c-1,1.79-1.49,4.61-1.49,8.44v.8c0,4.28.51,7.42,1.52,9.44a4.9,4.9,0,0,0,4.62,3,4.51,4.51,0,0,0,4.26-3q1.41-3,1.41-9.32c0-4-.43-7-1.31-9.06A4.54,4.54,0,0,0,234.4,46.35Zm25.26,26.08-.31-3.9h-.1c-1.34,2.94-3.36,4.42-6.06,4.42a5.27,5.27,0,0,1-4.39-2.16A9.44,9.44,0,0,1,247.16,65a8.35,8.35,0,0,1,2.38-6.29,9.91,9.91,0,0,1,6.7-2.54l3-.15V53.67a12.35,12.35,0,0,0-1-5.68A3.38,3.38,0,0,0,255,46.2a9.18,9.18,0,0,0-4.88,1.56l-1-1.92a11.35,11.35,0,0,1,6.08-1.8q3.45,0,5,2.18t1.51,7.24v19Zm-5.93-1.56a4.45,4.45,0,0,0,4-2.57A15,15,0,0,0,259.25,61v-2.9l-2.9.16a7.25,7.25,0,0,0-5,1.87,6.77,6.77,0,0,0-1.62,4.9,7.32,7.32,0,0,0,1.08,4.44A3.48,3.48,0,0,0,253.73,70.87Zm18.76,1.51-6.95-27.8H268L272.21,62Q273,65.1,273.65,69h.2c.33-2.28.78-4.65,1.37-7.11l4.1-17.33h2.47l-8.14,33.11a14.59,14.59,0,0,1-2.36,5.52,4.61,4.61,0,0,1-3.85,1.85,6.71,6.71,0,0,1-2.21-.43V82.42a6,6,0,0,0,2,.36,2.8,2.8,0,0,0,2.44-1.34,13.08,13.08,0,0,0,1.59-4.23Z" transform="translate(-85.52 -22.47)"/><path d="M152.8,74V36.16h16.83v4.73H158.06V52.45h11.57v5.26H158.06V74Z" transform="translate(-85.52 -22.47)" style="fill:#ea6917"/><path d="M205.38,59.29l-7.89-14.2h5.79l4.73,10,4.73-10h5.78l-7.88,14.2L219.05,74h-5.78L208,64l-4.73,10h-5.79Z" transform="translate(-85.52 -22.47)" style="fill:#ea6917"/><path d="M112.32,83.47C86.67,73,84.63,43.69,86.56,30.9c20-12.09,37.85-8.94,53.1,0,.84,16.4-2.8,27.86-4.73,31.54C133.18,65.6,130.2,75.59,112.32,83.47Z" transform="translate(-85.52 -22.47)" style="fill:none;stroke:#ea5f10"/><path d="M98.13,30.9c2.1,3.76,7.33,10.51,13.29,11.55h3a8.45,8.45,0,0,1-3,0c-6.32-.06-11-.54-15.26-4.19Z" transform="translate(-85.52 -22.47)" style="fill:#ea6917"/><path d="M96,38.78l.14-.52m0,0,2-7.36c2.45,4.38,9.15,12.83,16.3,11.56C106.54,42.46,101,42.46,96.16,38.26Z" transform="translate(-85.52 -22.47)" style="fill:none;stroke:#ea6917"/><path d="M122.84,55.61c-8.83,5.47-10.34,16-10,20.5-10-3.15-10.52-25.23,2.63-28.91,10.51-3,17-9.29,18.92-12.1C134.23,39.66,131.67,50.14,122.84,55.61Z" transform="translate(-85.52 -22.47)" style="fill:#da4912"/><path d="M102.86,70.33c-4.63-16.4,7.19-25.76,13.67-28.39C105,45.62,93.92,38.26,91.29,34.05,89.19,50.88,93.4,59.81,102.86,70.33Z" transform="translate(-85.52 -22.47)" style="fill:#da4912"/><path d="M122.84,55.61c-8.83,5.47-10.34,16-10,20.5-10-3.15-10.52-25.23,2.63-28.91,10.51-3,17-9.29,18.92-12.1C134.23,39.66,131.67,50.14,122.84,55.61Z" transform="translate(-85.52 -22.47)" style="fill:none;stroke:#da4912"/><path d="M102.86,70.33c-4.63-16.4,7.19-25.76,13.67-28.39C105,45.62,93.92,38.26,91.29,34.05,89.19,50.88,93.4,59.81,102.86,70.33Z" transform="translate(-85.52 -22.47)" style="fill:none;stroke:#da4912"/><path d="M193.81,59.81c0,14.72-4.47,14.72-10,14.72s-10-1-10-14.72c0-14.72,4.48-14.72,10-14.72S193.81,44,193.81,59.81Z" transform="translate(-85.52 -22.47)" style="fill:#ea6917"/><path d="M189.08,59.82a32,32,0,0,1-.44,6,6.79,6.79,0,0,1-1.14,2.9c-.86,1.08-2,1.11-3.68,1.11s-2.78-.19-3.66-1.38-1.59-3.73-1.59-8.6a32,32,0,0,1,.44-6,6.79,6.79,0,0,1,1.14-2.9c.86-1.09,2-1.12,3.67-1.12h.61a8.78,8.78,0,0,1,1.57.06,2.29,2.29,0,0,1,1.51.79,6.24,6.24,0,0,1,1.13,2.85A34.75,34.75,0,0,1,189.08,59.82Z" transform="translate(-85.52 -22.47)" style="fill:#fff;stroke:#ea6917"/></svg>