<svg id="FPX" xmlns="http://www.w3.org/2000/svg" viewBox="0 0 120.2 58.62"><path d="M125.6,77.86a4.17,4.17,0,0,1,.28-1.53,3.37,3.37,0,0,1,2-1.9,4.57,4.57,0,0,1,3,0,3.37,3.37,0,0,1,2,1.9,4.32,4.32,0,0,1,0,3.06,3.37,3.37,0,0,1-2,1.9,4.57,4.57,0,0,1-3,0,3.37,3.37,0,0,1-2-1.9,4.17,4.17,0,0,1-.28-1.53m1.61,0a2.67,2.67,0,0,0,.15.91,2.07,2.07,0,0,0,.44.71,2,2,0,0,0,.69.47,2.25,2.25,0,0,0,2.49-.47,2.07,2.07,0,0,0,.44-.71,2.81,2.81,0,0,0,0-1.81,2,2,0,0,0-.44-.72,2.17,2.17,0,0,0-.69-.47,2.47,2.47,0,0,0-1.8,0,2,2,0,0,0-.69.47,2,2,0,0,0-.44.72,2.66,2.66,0,0,0-.15.9" transform="translate(-124.94 -25.13)" style="fill:#232c57"/><path d="M134,76.55h1.43v.66h0a.86.86,0,0,1,.2-.28,1.25,1.25,0,0,1,.3-.25,2.2,2.2,0,0,1,.41-.18,2,2,0,0,1,.5-.07,2,2,0,0,1,.91.18,1.26,1.26,0,0,1,.54.48,1.76,1.76,0,0,1,.26.72,5.14,5.14,0,0,1,.07.9v2.66h-1.49V79c0-.14,0-.28,0-.43a1.3,1.3,0,0,0-.09-.41.72.72,0,0,0-.23-.31.7.7,0,0,0-.44-.12.93.93,0,0,0-.47.11.7.7,0,0,0-.27.27,1.25,1.25,0,0,0-.12.4,3.19,3.19,0,0,0,0,.45v2.4H134Z" transform="translate(-124.94 -25.13)" style="fill:#232c57"/><rect x="14.81" y="48.75" width="1.49" height="7.5" style="fill:#232c57"/><path d="M142.21,75a.81.81,0,0,1,.25-.61.85.85,0,0,1,.61-.26.83.83,0,0,1,.61.26.82.82,0,0,1,.26.61.85.85,0,0,1-.26.61.86.86,0,0,1-.61.25.88.88,0,0,1-.61-.25.84.84,0,0,1-.25-.61m.12,1.51h1.49v4.82h-1.49Z" transform="translate(-124.94 -25.13)" style="fill:#232c57"/><path d="M144.89,76.55h1.43v.66h0a.86.86,0,0,1,.2-.28,1.25,1.25,0,0,1,.3-.25,2.2,2.2,0,0,1,.41-.18,1.93,1.93,0,0,1,.49-.07,2,2,0,0,1,.92.18,1.26,1.26,0,0,1,.54.48,1.92,1.92,0,0,1,.26.72,6.32,6.32,0,0,1,.07.9v2.66H148V79c0-.14,0-.28,0-.43a1.3,1.3,0,0,0-.09-.41.72.72,0,0,0-.23-.31.7.7,0,0,0-.44-.12.93.93,0,0,0-.47.11.7.7,0,0,0-.27.27,1.25,1.25,0,0,0-.13.4c0,.14,0,.29,0,.45v2.4h-1.49Z" transform="translate(-124.94 -25.13)" style="fill:#232c57"/><path d="M155.14,80.54a2.39,2.39,0,0,1-.9.7,2.62,2.62,0,0,1-1.13.25,3,3,0,0,1-1.05-.18,2.5,2.5,0,0,1-.85-.51,2.43,2.43,0,0,1-.57-.8,2.68,2.68,0,0,1,0-2.08,2.43,2.43,0,0,1,.57-.8,2.5,2.5,0,0,1,.85-.51,3,3,0,0,1,1.05-.18,2.34,2.34,0,0,1,.93.18,2,2,0,0,1,.72.51,2.49,2.49,0,0,1,.45.8,3.11,3.11,0,0,1,.16,1v.47h-3.45a1.24,1.24,0,0,0,.38.68,1.11,1.11,0,0,0,.74.25,1.12,1.12,0,0,0,.62-.16,1.75,1.75,0,0,0,.44-.42Zm-1.26-2.12a.84.84,0,0,0-.25-.65.87.87,0,0,0-.66-.27,1.19,1.19,0,0,0-.44.08,1.48,1.48,0,0,0-.32.21.86.86,0,0,0-.21.29.94.94,0,0,0-.08.34Z" transform="translate(-124.94 -25.13)" style="fill:#232c57"/><path d="M159.39,74.35H162a5.7,5.7,0,0,1,.92.07,2.44,2.44,0,0,1,.83.25,1.61,1.61,0,0,1,.59.54,1.71,1.71,0,0,1,.23.93,1.47,1.47,0,0,1-.33,1,1.83,1.83,0,0,1-.88.56v0a2.11,2.11,0,0,1,.63.2,1.78,1.78,0,0,1,.49.36,1.71,1.71,0,0,1,.31.52,1.91,1.91,0,0,1,.11.64,1.69,1.69,0,0,1-.24.93,2.05,2.05,0,0,1-.61.6,2.72,2.72,0,0,1-.85.32,4.36,4.36,0,0,1-.94.1h-2.88Zm1.55,2.81h1.12a1.34,1.34,0,0,0,.35,0,1.13,1.13,0,0,0,.32-.13.73.73,0,0,0,.22-.24.81.81,0,0,0,0-.72.64.64,0,0,0-.24-.22,1.13,1.13,0,0,0-.34-.11,1.61,1.61,0,0,0-.37,0h-1.05Zm0,2.9h1.39a1.47,1.47,0,0,0,.36,0,.81.81,0,0,0,.33-.14.85.85,0,0,0,.25-.25.8.8,0,0,0,.09-.39.62.62,0,0,0-.12-.4.75.75,0,0,0-.32-.23,1.32,1.32,0,0,0-.4-.11l-.41,0h-1.17Z" transform="translate(-124.94 -25.13)" style="fill:#232c57"/><path d="M168.66,80.77h0a1.41,1.41,0,0,1-.66.55,2.18,2.18,0,0,1-.87.17,2.32,2.32,0,0,1-.65-.09,1.7,1.7,0,0,1-.55-.29,1.42,1.42,0,0,1-.38-.46,1.48,1.48,0,0,1-.14-.65,1.39,1.39,0,0,1,.16-.7,1.46,1.46,0,0,1,.41-.48,2.38,2.38,0,0,1,.6-.29,4.15,4.15,0,0,1,.7-.15,5.83,5.83,0,0,1,.73-.06h.67a.76.76,0,0,0-.29-.63,1,1,0,0,0-.67-.23,1.45,1.45,0,0,0-.66.15,1.72,1.72,0,0,0-.55.42l-.79-.81a2.73,2.73,0,0,1,1-.58,3.48,3.48,0,0,1,1.15-.2,3,3,0,0,1,1.08.17,1.52,1.52,0,0,1,.67.48,1.88,1.88,0,0,1,.36.78,5.52,5.52,0,0,1,.09,1.06v2.45h-1.36Zm-.37-1.51h-.42a2,2,0,0,0-.49.09,1.12,1.12,0,0,0-.39.21.47.47,0,0,0-.17.38.44.44,0,0,0,.23.4.9.9,0,0,0,.47.13,1.54,1.54,0,0,0,.43-.06,1.49,1.49,0,0,0,.36-.17.76.76,0,0,0,.25-.28.81.81,0,0,0,.1-.39v-.32Z" transform="translate(-124.94 -25.13)" style="fill:#232c57"/><path d="M171,76.55h1.42v.66h0a1.31,1.31,0,0,1,.2-.28,1.54,1.54,0,0,1,.31-.25,2,2,0,0,1,.41-.18,1.87,1.87,0,0,1,.49-.07,2,2,0,0,1,.91.18,1.15,1.15,0,0,1,.54.48,1.93,1.93,0,0,1,.27.72,6.32,6.32,0,0,1,.07.9v2.66h-1.49V79c0-.14,0-.28,0-.43a2.26,2.26,0,0,0-.09-.41.64.64,0,0,0-.67-.43.91.91,0,0,0-.47.11.7.7,0,0,0-.27.27,1,1,0,0,0-.13.4,3.19,3.19,0,0,0,0,.45v2.4H171Z" transform="translate(-124.94 -25.13)" style="fill:#232c57"/><polygon points="51.71 48.75 53.2 48.75 53.2 53.33 54.84 51.42 56.67 51.42 54.75 53.59 56.72 56.24 54.84 56.24 53.22 53.8 53.2 53.8 53.2 56.24 51.71 56.24 51.71 48.75" style="fill:#232c57"/><path d="M182.06,75a.87.87,0,0,1,1.73,0,.87.87,0,0,1-.87.86.84.84,0,0,1-.6-.25.85.85,0,0,1-.26-.61m.12,1.51h1.49v4.82h-1.49Z" transform="translate(-124.94 -25.13)" style="fill:#232c57"/><path d="M184.74,76.55h1.43v.66h0a.86.86,0,0,1,.2-.28,1.25,1.25,0,0,1,.3-.25,2.2,2.2,0,0,1,.41-.18,2,2,0,0,1,.5-.07,2,2,0,0,1,.91.18,1.26,1.26,0,0,1,.54.48,1.92,1.92,0,0,1,.26.72,5.14,5.14,0,0,1,.07.9v2.66h-1.49V79c0-.14,0-.28,0-.43a1.3,1.3,0,0,0-.09-.41.72.72,0,0,0-.23-.31.7.7,0,0,0-.44-.12.93.93,0,0,0-.47.11.7.7,0,0,0-.27.27,1.25,1.25,0,0,0-.12.4,3.19,3.19,0,0,0,0,.45v2.4h-1.49Z" transform="translate(-124.94 -25.13)" style="fill:#232c57"/><path d="M195.49,81A2.85,2.85,0,0,1,194.8,83a2.82,2.82,0,0,1-2.1.71,6,6,0,0,1-1.27-.14,2.87,2.87,0,0,1-1.15-.56l.82-1.23a3.35,3.35,0,0,0,.73.45,2,2,0,0,0,.84.17,1.36,1.36,0,0,0,1-.33,1.18,1.18,0,0,0,.32-.85V80.8h0a1.4,1.4,0,0,1-.64.49,2.13,2.13,0,0,1-.72.14,2.5,2.5,0,0,1-1-.18,2.21,2.21,0,0,1-1.23-1.31,2.87,2.87,0,0,1-.17-1,2.92,2.92,0,0,1,.15-.93,2.69,2.69,0,0,1,.44-.8,2.21,2.21,0,0,1,.69-.56,2,2,0,0,1,.92-.22,2.22,2.22,0,0,1,1.05.25,2,2,0,0,1,.36.24,1.46,1.46,0,0,1,.24.27h0v-.64h1.37Zm-3.75-2a1.13,1.13,0,0,0,.09.45,1.19,1.19,0,0,0,.25.38,1.22,1.22,0,0,0,.38.26,1,1,0,0,0,.47.1,1,1,0,0,0,.46-.1,1.16,1.16,0,0,0,.39-.26,1.19,1.19,0,0,0,.25-.38,1.17,1.17,0,0,0,0-.9,1.05,1.05,0,0,0-.25-.37,1.16,1.16,0,0,0-1.32-.27,1.26,1.26,0,0,0-.38.27,1.05,1.05,0,0,0-.25.37,1.13,1.13,0,0,0-.09.45" transform="translate(-124.94 -25.13)" style="fill:#232c57"/><path d="M199.8,74.35h2.61a4.87,4.87,0,0,1,1,.1,2.48,2.48,0,0,1,.85.34,1.67,1.67,0,0,1,.57.66,2.12,2.12,0,0,1,.22,1,2.39,2.39,0,0,1-.2,1,1.73,1.73,0,0,1-.55.67,2.26,2.26,0,0,1-.82.35,4.8,4.8,0,0,1-1,.1h-1.13v2.74H199.8Zm1.55,3h1a2.58,2.58,0,0,0,.4,0,1.07,1.07,0,0,0,.35-.14.7.7,0,0,0,.25-.26.8.8,0,0,0,.09-.41.71.71,0,0,0-.12-.43.87.87,0,0,0-.32-.25,1.43,1.43,0,0,0-.43-.12l-.46,0h-.79Z" transform="translate(-124.94 -25.13)" style="fill:#232c57"/><path d="M208.88,80.77h0a1.32,1.32,0,0,1-.66.55,2.1,2.1,0,0,1-.86.17,2.32,2.32,0,0,1-.65-.09,1.7,1.7,0,0,1-.55-.29,1.3,1.3,0,0,1-.38-.46,1.48,1.48,0,0,1-.14-.65,1.51,1.51,0,0,1,.15-.7,1.62,1.62,0,0,1,.42-.48,2.38,2.38,0,0,1,.6-.29,4.15,4.15,0,0,1,.7-.15,5.83,5.83,0,0,1,.72-.06h.67a.75.75,0,0,0-.28-.63,1,1,0,0,0-.67-.23,1.5,1.5,0,0,0-.67.15,1.79,1.79,0,0,0-.54.42l-.79-.81a2.73,2.73,0,0,1,1-.58,3.43,3.43,0,0,1,1.15-.2,3,3,0,0,1,1.08.17,1.58,1.58,0,0,1,.67.48,1.75,1.75,0,0,1,.35.78,4.77,4.77,0,0,1,.1,1.06v2.45h-1.37Zm-.36-1.51h-.42a1.93,1.93,0,0,0-.49.09,1.17,1.17,0,0,0-.4.21.46.46,0,0,0-.16.38.44.44,0,0,0,.23.4.9.9,0,0,0,.47.13,1.42,1.42,0,0,0,.42-.06,1.4,1.4,0,0,0,.37-.17.76.76,0,0,0,.25-.28.8.8,0,0,0,.09-.39v-.32Z" transform="translate(-124.94 -25.13)" style="fill:#232c57"/><path d="M214,82.16c-.1.25-.19.48-.29.68a1.66,1.66,0,0,1-.35.5,1.42,1.42,0,0,1-.54.31,2.94,2.94,0,0,1-.86.1,3.4,3.4,0,0,1-1.11-.18l.19-1.22a1.73,1.73,0,0,0,.7.15,1.45,1.45,0,0,0,.4,0,.72.72,0,0,0,.27-.16.85.85,0,0,0,.17-.25c.05-.1.1-.22.15-.35l.11-.28-2.11-4.86h1.6l1.24,3.19h0l1.06-3.19h1.53Z" transform="translate(-124.94 -25.13)" style="fill:#232c57"/><path d="M216.7,76.55h1.42v.66h0a1,1,0,0,1,.19-.28,1.54,1.54,0,0,1,.31-.25,2.2,2.2,0,0,1,.41-.18,1.93,1.93,0,0,1,.49-.07,1.87,1.87,0,0,1,.9.21,1.32,1.32,0,0,1,.59.66,1.58,1.58,0,0,1,.63-.67,2.09,2.09,0,0,1,1.72,0,1.32,1.32,0,0,1,.52.44,1.93,1.93,0,0,1,.28.67,4.22,4.22,0,0,1,.08.82v2.84h-1.49v-2.8a1.06,1.06,0,0,0-.14-.58.52.52,0,0,0-.51-.25.94.94,0,0,0-.43.09.63.63,0,0,0-.28.23.93.93,0,0,0-.15.35,1.84,1.84,0,0,0,0,.41v2.55h-1.49V78.82c0-.08,0-.19,0-.31a1.35,1.35,0,0,0-.07-.36.7.7,0,0,0-.19-.29.57.57,0,0,0-.39-.12.91.91,0,0,0-.47.11.7.7,0,0,0-.27.27,1,1,0,0,0-.13.4,3.19,3.19,0,0,0,0,.45v2.4H216.7Z" transform="translate(-124.94 -25.13)" style="fill:#232c57"/><path d="M229.89,80.54a2.35,2.35,0,0,1-.91.7,2.62,2.62,0,0,1-1.13.25,3,3,0,0,1-1-.18,2.55,2.55,0,0,1-.86-.51,2.43,2.43,0,0,1-.57-.8,2.8,2.8,0,0,1,0-2.08,2.43,2.43,0,0,1,.57-.8,2.55,2.55,0,0,1,.86-.51,3,3,0,0,1,1-.18,2.35,2.35,0,0,1,.94.18,1.93,1.93,0,0,1,.71.51,2.16,2.16,0,0,1,.45.8,3.11,3.11,0,0,1,.16,1v.47h-3.45a1.2,1.2,0,0,0,.39.68,1.08,1.08,0,0,0,.73.25,1.1,1.1,0,0,0,.62-.16,1.6,1.6,0,0,0,.44-.42Zm-1.26-2.12a.91.91,0,0,0-.25-.65.87.87,0,0,0-.67-.27,1.14,1.14,0,0,0-.43.08,1.11,1.11,0,0,0-.32.21.86.86,0,0,0-.21.29,1,1,0,0,0-.09.34Z" transform="translate(-124.94 -25.13)" style="fill:#232c57"/><path d="M231,76.55h1.42v.66h0a1.31,1.31,0,0,1,.2-.28,1.54,1.54,0,0,1,.31-.25,2.1,2.1,0,0,1,.4-.18,2,2,0,0,1,.5-.07,2,2,0,0,1,.91.18,1.26,1.26,0,0,1,.54.48,1.93,1.93,0,0,1,.27.72,6.37,6.37,0,0,1,.06.9v2.66h-1.48V79c0-.14,0-.28,0-.43a1.66,1.66,0,0,0-.08-.41.81.81,0,0,0-.23-.31.73.73,0,0,0-.45-.12.89.89,0,0,0-.46.11.7.7,0,0,0-.27.27,1,1,0,0,0-.13.4,3.19,3.19,0,0,0,0,.45v2.4H231Z" transform="translate(-124.94 -25.13)" style="fill:#232c57"/><path d="M240,77.74h-1.31v1.61c0,.13,0,.25,0,.36a.62.62,0,0,0,.09.28.49.49,0,0,0,.21.19,1,1,0,0,0,.38.06l.32,0a.59.59,0,0,0,.29-.12v1.24a2.31,2.31,0,0,1-.52.12l-.52,0a3.06,3.06,0,0,1-.7-.08,1.46,1.46,0,0,1-.55-.25,1.24,1.24,0,0,1-.37-.45,1.55,1.55,0,0,1-.14-.68V77.74h-.95V76.55h.95V75.12h1.49v1.43H240Z" transform="translate(-124.94 -25.13)" style="fill:#232c57"/><path d="M243.47,78a1.07,1.07,0,0,0-.86-.41.81.81,0,0,0-.37.09.32.32,0,0,0-.18.31.27.27,0,0,0,.18.26,2.17,2.17,0,0,0,.47.15l.6.14a2.48,2.48,0,0,1,.61.23,1.41,1.41,0,0,1,.47.44,1.28,1.28,0,0,1,.18.72,1.4,1.4,0,0,1-.2.77,1.62,1.62,0,0,1-.52.49,2.37,2.37,0,0,1-.72.26,5.14,5.14,0,0,1-.78.07,4,4,0,0,1-1-.14,1.9,1.9,0,0,1-.87-.51l.9-1a1.52,1.52,0,0,0,.46.39,1.22,1.22,0,0,0,.59.13,1.41,1.41,0,0,0,.47-.07.28.28,0,0,0,.2-.28.3.3,0,0,0-.18-.28,2.55,2.55,0,0,0-.47-.16l-.6-.14a2.46,2.46,0,0,1-.61-.22,1.21,1.21,0,0,1-.65-1.15,1.48,1.48,0,0,1,.64-1.24,1.87,1.87,0,0,1,.64-.29,3.22,3.22,0,0,1,.75-.1,3.65,3.65,0,0,1,1,.14,1.88,1.88,0,0,1,.82.5Z" transform="translate(-124.94 -25.13)" style="fill:#232c57"/><polygon points="44.14 5.02 63.49 5.02 63.49 10.88 50.49 10.88 50.49 16.75 62.51 16.75 62.51 22.62 50.49 22.62 50.49 33.86 44.14 33.86 44.14 5.02" style="fill:#232c57"/><path d="M193,30.15H203.7a21.27,21.27,0,0,1,4.24.4A9.51,9.51,0,0,1,211.42,32a7,7,0,0,1,2.37,2.69,9.21,9.21,0,0,1,.87,4.25,9.87,9.87,0,0,1-.81,4.24,7,7,0,0,1-2.24,2.73,9.17,9.17,0,0,1-3.38,1.45,20.23,20.23,0,0,1-4.24.43h-4.65V59H193Zm6.35,12.22h4.24a8.1,8.1,0,0,0,1.65-.17,4.38,4.38,0,0,0,1.43-.54,3,3,0,0,0,1-1.06,3.48,3.48,0,0,0,.38-1.7,2.86,2.86,0,0,0-.51-1.77,3.41,3.41,0,0,0-1.3-1,5.76,5.76,0,0,0-1.77-.47c-.65-.06-1.28-.1-1.88-.1h-3.26Z" transform="translate(-124.94 -25.13)" style="fill:#232c57"/><polygon points="100.89 18.79 91.35 5.02 99.34 5.02 105.49 15.12 111.4 5.02 119.1 5.02 109.77 18.66 120.2 33.86 112.21 33.86 105.17 22.25 98.32 33.86 90.78 33.86 100.89 18.79" style="fill:#232c57"/><path d="M141.24,53.58l-4-5.45c-.6-.81-1.63-1.88-1.63-2.94s1-2.14,1.63-2.95l4-5.45a3.31,3.31,0,0,1,.56-.6V29.92c0-5-2.11-6.31-4.69-2.82l-8.67,11.74c-1.29,1.75-3.5,4-3.5,6.35s2.21,4.59,3.5,6.35l8.67,11.73c2.58,3.49,4.69,2.23,4.69-2.82V54.17a2.92,2.92,0,0,1-.56-.59" transform="translate(-124.94 -25.13)" style="fill:#1b85b8"/><path d="M158.28,38.84,149.61,27.1c-2.58-3.49-4.69-2.22-4.69,2.82v6.27a3.29,3.29,0,0,1,.55.6l4,5.45c.6.81,1.63,1.88,1.63,2.95s-1,2.13-1.63,2.94l-4,5.45a3,3,0,0,1-.55.6v6.27c0,5,2.11,6.3,4.69,2.82l8.67-11.73c1.29-1.76,3.5-4.06,3.5-6.36s-2.21-4.59-3.5-6.34" transform="translate(-124.94 -25.13)" style="fill:#232c57"/></svg>