<svg id="Giropay" xmlns="http://www.w3.org/2000/svg" viewBox="0 0 155.04 66.67"><defs><style>.cls-1{fill:#160a68;}.cls-1,.cls-2,.cls-3{fill-rule:evenodd;}.cls-2{fill:#fff;}.cls-3{fill:#fa0f0d;}</style></defs><g id="layer1"><path id="_92653320" data-name=" 92653320" class="cls-1" d="M98.08,33.1a12,12,0,0,1,12-12h131a12,12,0,0,1,12,12V75.85a12,12,0,0,1-12,12h-131a12,12,0,0,1-12-12V33.1Z" transform="translate(-98.08 -21.14)"/><path id="_92186184" data-name=" 92186184" class="cls-2" d="M103,33.51V75.45a7.5,7.5,0,0,0,7.52,7.47h68.63V26H110.53A7.49,7.49,0,0,0,103,33.51Zm93.88,20.76c0,2.67-1.32,4.5-3.5,4.5-1.93,0-3.54-1.83-3.54-4.28s1.41-4.37,3.54-4.37S196.89,52.05,196.89,54.27ZM184.06,69.58h5.79v-9.1h.06a5.83,5.83,0,0,0,5.31,2.73c5,0,7.66-4.12,7.66-9.07,0-4-2.54-8.46-7.18-8.46-2.63,0-5.08,1.06-6.24,3.41h-.06v-3h-5.34Zm26.72-12.06c0-1.61,1.55-2.22,3.51-2.22.87,0,1.71.06,2.45.1a3.77,3.77,0,0,1-3.58,4C211.81,59.35,210.78,58.68,210.78,57.52Zm11.68,5.31a20.35,20.35,0,0,1-.32-4V52.63c0-5.12-3.7-7-8-7a17.28,17.28,0,0,0-6.69,1.19l.1,3.93a10.77,10.77,0,0,1,5.34-1.26c2.09,0,3.79.61,3.83,2.9a16.92,16.92,0,0,0-2.71-.23c-3.08,0-8.65.61-8.65,5.73,0,3.63,3,5.27,6.27,5.27a5.75,5.75,0,0,0,5.31-3H217c0,.87.09,1.73.12,2.64Zm2.6,6.75a16.91,16.91,0,0,0,3.61.39c5.31,0,6.56-4.09,8.2-8.3L243,46.07h-5.8L233.78,57h-.06l-3.61-10.93h-6.23l6.78,17.14a3,3,0,0,1-2.93,2.32,6.84,6.84,0,0,1-2.28-.36Z" transform="translate(-98.08 -21.14)"/><path id="_47303032" data-name=" 47303032" class="cls-3" d="M117.16,54.3c0-2.28,1.12-4.18,3.28-4.18a3.67,3.67,0,0,1,3.7,4c0,2.58-1.64,4.32-3.7,4.32C118.7,58.39,117.16,56.91,117.16,54.3Zm12.57-8.23h-5.24v3h-.06a6.56,6.56,0,0,0-5.7-3.41c-5.21,0-7.56,3.73-7.56,8.72s2.87,8.43,7.46,8.43A6.56,6.56,0,0,0,124.27,60h.06v.9c0,3.28-1.8,4.86-5.14,4.86a11.52,11.52,0,0,1-5.67-1.38l-.29,4.57A19.62,19.62,0,0,0,119.64,70c6.75,0,10.09-2.22,10.09-9.11Zm9.79-7h-5.79v4.24h5.79Zm-5.79,23.74h5.79V46.07h-5.79Zm21.91-17a12.9,12.9,0,0,0-2-.19c-2.51,0-4,1.35-5,3.47h-.07V46.07h-5.27V62.83h5.79V55.75c0-3.28,1.51-5.24,4.21-5.24a6.84,6.84,0,0,1,2,.19Zm10,13.29c-2.67,0-3.76-2.22-3.76-4.7s1.09-4.73,3.76-4.73,3.77,2.22,3.77,4.73S168.29,59.16,165.61,59.16Zm0,4.05c5.54,0,9.75-3.21,9.75-8.75s-4.21-8.78-9.75-8.78-9.74,3.22-9.74,8.78S160.08,63.21,165.61,63.21Z" transform="translate(-98.08 -21.14)"/></g></svg>