<svg id="GPay" xmlns="http://www.w3.org/2000/svg" viewBox="0 0 168.71 67.02"><defs><style>.cls-1{fill:#5f6368;}.cls-2{fill:#3281b3;}.cls-3{fill:#2c944b;}.cls-4{fill:#edbc16;}.cls-5{fill:#e34335;}</style></defs><path class="cls-1" d="M174.88,54.52V74.17h-6.23V25.65h16.52a15,15,0,0,1,10.72,4.22,13.38,13.38,0,0,1,4.45,10.22,13.54,13.54,0,0,1-4.45,10.29,15,15,0,0,1-10.68,4.14Zm0-22.91v17h10.45A8.12,8.12,0,0,0,191.48,46a8.24,8.24,0,0,0,.15-11.68l-.15-.16a8,8,0,0,0-6.15-2.55Zm39.81,8.28c4.61,0,8.25,1.24,10.91,3.68s4,5.84,4,10.14V74.14h-6V69.53h-.27c-2.59,3.79-6,5.69-10.29,5.69A13.34,13.34,0,0,1,203.9,72a10.28,10.28,0,0,1-3.68-8.13,9.92,9.92,0,0,1,3.91-8.2c2.59-2,6.08-3.06,10.41-3.06a18.72,18.72,0,0,1,9.13,2V53.16a7.15,7.15,0,0,0-2.55-5.49,9.08,9.08,0,0,0-6-2.28,9.59,9.59,0,0,0-8.28,4.41l-5.5-3.45c3-4.29,7.43-6.46,13.35-6.46Zm-8,24.11a5,5,0,0,0,2,4.06,7.66,7.66,0,0,0,4.83,1.63,9.92,9.92,0,0,0,7-2.91,9.11,9.11,0,0,0,3.09-6.85c-1.93-1.54-4.64-2.32-8.12-2.32a10.78,10.78,0,0,0-6.35,1.82A5.54,5.54,0,0,0,206.65,64Zm57.14-23L243,88.8h-6.43l7.74-16.72L230.6,41h6.77l9.86,23.84h.16L257,41Z" transform="translate(-95.09 -21.78)"/><path class="cls-2" d="M149.69,50.26a34.45,34.45,0,0,0-.46-5.65H123V55.33H138a12.91,12.91,0,0,1-5.58,8.47v7h9c5.26-4.84,8.28-12,8.28-20.51Z" transform="translate(-95.09 -21.78)"/><path class="cls-3" d="M123,77.5c7.51,0,13.86-2.48,18.46-6.73l-9-7A16.88,16.88,0,0,1,107.32,55H98.07v7.2A27.92,27.92,0,0,0,123,77.5Z" transform="translate(-95.09 -21.78)"/><path class="cls-4" d="M107.32,55a16.82,16.82,0,0,1,0-10.68V37.15H98.07a27.64,27.64,0,0,0,0,25Z" transform="translate(-95.09 -21.78)"/><path class="cls-5" d="M123,32.81A15,15,0,0,1,133.63,37l7.93-7.93A26.62,26.62,0,0,0,123,21.78,27.87,27.87,0,0,0,98.07,37.15l9.25,7.19A16.67,16.67,0,0,1,123,32.81Z" transform="translate(-95.09 -21.78)"/></svg>