<svg id="GoPay" xmlns="http://www.w3.org/2000/svg" viewBox="0 0 258.8 54.51"><defs><style>.cls-1{fill:#00aed6;}.cls-2{fill:#fff;fill-rule:evenodd;}</style></defs><path class="cls-1" d="M87.27,26.3c15.59,0,28.23,12.2,28.23,27.25S102.86,80.8,87.27,80.8,59,68.6,59,53.55,71.67,26.3,87.27,26.3Z" transform="translate(-59.03 -26.3)"/><path class="cls-2" d="M103.74,52.71a6.51,6.51,0,0,0-6.87-6H79a1.14,1.14,0,1,1,0-2.27H97.1a5.47,5.47,0,0,0-4.12-5,46.76,46.76,0,0,0-15.92,0,7.33,7.33,0,0,0-5.65,6.06,52.56,52.56,0,0,0,0,16.13,7.78,7.78,0,0,0,6.45,6.06,81.92,81.92,0,0,0,19.67,0A6.74,6.74,0,0,0,103,62a42.6,42.6,0,0,0,.75-9.29Zm-5.88,3.81h0v1a1.18,1.18,0,0,1-2.36,0v-1a1.65,1.65,0,0,1-.59-1.27,1.77,1.77,0,0,1,3.53,0,1.67,1.67,0,0,1-.58,1.27Z" transform="translate(-59.03 -26.3)"/><path d="M195.93,50.48a9,9,0,1,0-9,8.59H187a8.41,8.41,0,0,0,9-7.77,7.45,7.45,0,0,0,0-.82Zm-26.64,0h0c0-9.08,7.44-16,17.74-16s17.74,7,17.74,16-7.36,16-17.74,16S169.29,59.54,169.29,50.48Z" transform="translate(-59.03 -26.3)"/><path d="M155.17,52.14c0,3.75-3.95,6.81-9,6.81A8.31,8.31,0,0,1,137,51.72a7.61,7.61,0,0,1,0-1.35c0-4.95,3.76-8.36,9.55-8.36,4.71,0,8.61,3.11,8.61,6.63v3.5Zm.36-17.69h0V38A14.67,14.67,0,0,0,145,34.47c-9.13.09-16.46,7.29-16.38,16.1s7.55,15.89,16.68,15.81a13.81,13.81,0,0,0,10.1-3.75V65.7c0,4.15-3.72,7.2-8.61,7.2a13.79,13.79,0,0,1-10.17-3.46l-5.72,5.32a22.38,22.38,0,0,0,16.12,6c10,0,16.9-6.5,16.9-15.15V34.45Z" transform="translate(-59.03 -26.3)"/><path d="M210,35.38h8.42v2.68h.12a14.42,14.42,0,0,1,10.14-3.54c9.17.33,16.32,7.78,16,16.62a16.35,16.35,0,0,1-16,15.42,15.51,15.51,0,0,1-9.83-3.2V78.53H210L210,35.38ZM227.27,42h0c-4.71,0-8.55,3.16-8.55,6.59v3.84c0,3.65,3.79,6.67,8.59,6.67a8.57,8.57,0,1,0,.92-17.1h-1Z" transform="translate(-59.03 -26.3)"/><path d="M261.45,47.55c5.77-.75,7.49-1.54,7.49-3.08,0-2-2.19-3.21-5.58-3.21a7.41,7.41,0,0,0-7.83,5.48l-8.29-1.66C248.42,38.9,255,34.5,263.13,34.5,272.3,34.5,278,39,278,46.4V65.67h-7.89V62.31H270a13.23,13.23,0,0,1-10.62,4.18c-6.94,0-11.76-3.65-11.76-9.08s3.95-8.54,13.83-9.86Zm8.19,3.21h-.11c-.78,1.09-2.36,1.72-6.71,2.45-5.15.93-7.06,1.91-7.06,3.68s1.53,2.63,4.85,2.63c5.06,0,9-2.27,9-5.15l.07-3.61Z" transform="translate(-59.03 -26.3)"/><polygon points="234.85 37.67 220.33 9.08 230 9.08 239.53 28.88 239.67 28.88 249.08 9.08 258.8 9.08 237.06 52.23 227.39 52.23 234.85 37.67"/></svg>