<svg id="GrabPay" xmlns="http://www.w3.org/2000/svg" viewBox="0 0 77.86 67.47"><defs><style>.cls-1{fill:#16923a;fill-rule:evenodd;}</style></defs><g id="OIPjWg"><path class="cls-1" d="M219.89,39.68c0,.29-.08.59-.11.88a9.51,9.51,0,0,1-17.2,4.3,14.64,14.64,0,0,1-.75-1.54.3.3,0,0,1,.07-.36c.36-.42.71-.86,1.06-1.29a1.11,1.11,0,0,0,.11-.2c.13.37.21.65.33.92a7.32,7.32,0,0,0,5.76,4.5,7.63,7.63,0,0,0,8.58-5.72,9.13,9.13,0,0,0,.22-1.8c0-.79,0-1.57,0-2.36a7.1,7.1,0,0,0-1.55-4,7.48,7.48,0,0,0-5.22-3,7.39,7.39,0,0,0-5.71,1.77,36.28,36.28,0,0,0-4.66,4.78c-.67.8-1.31,1.62-2,2.43l-.16.17c0-.1,0-.16,0-.21,0-.8,0-1.59,0-2.38a.63.63,0,0,1,.09-.33A42.46,42.46,0,0,1,202.44,32a18.78,18.78,0,0,1,3.23-2.6,8.48,8.48,0,0,1,3.53-1.24,9.57,9.57,0,0,1,10.39,7.22c.12.51.16,1,.24,1.55l.06.34Z" transform="translate(-142.03 -19.58)"/><path class="cls-1" d="M194.56,80.35l.35.27a10.07,10.07,0,0,0,5.15,2.25,7.17,7.17,0,0,0,3.78-.37A3.41,3.41,0,0,0,206,79.43c.06-.75,0-1.52.05-2.28a2.06,2.06,0,0,0,0-.21.38.38,0,0,0-.11,0,5.46,5.46,0,0,1-3.21,1.73,8.51,8.51,0,0,1-5.8-.78,7.22,7.22,0,0,1-3.63-4.84,10.16,10.16,0,0,1-.3-2.52V59.32c0-.32,0-.32.33-.32h3.88c.26,0,.32.08.32.33,0,3.81,0,7.62,0,11.43a3.85,3.85,0,0,0,3.26,3.91,4.29,4.29,0,0,0,3.54-.81,3.5,3.5,0,0,0,1.32-2.45,8.92,8.92,0,0,0,.06-1.16V59.34c0-.34,0-.34.35-.34h3.77c.2,0,.26.06.26.26,0,6.73,0,13.45,0,20.18a7.21,7.21,0,0,1-1.81,4.95,7.68,7.68,0,0,1-3.9,2.28,13.11,13.11,0,0,1-2.72.38,9.94,9.94,0,0,1-6.85-2.2.57.57,0,0,1-.25-.53c0-1.24,0-2.49,0-3.73C194.54,80.52,194.55,80.47,194.56,80.35Z" transform="translate(-142.03 -19.58)"/><path class="cls-1" d="M156.36,79h-.31c-1.24,0-2.48,0-3.72,0-.27,0-.32-.08-.32-.33V55.14c0-.34,0-.34.33-.34,3.09,0,6.17,0,9.25,0a8.18,8.18,0,0,1,5.88,2.38,7,7,0,0,1,1.88,3.69,10,10,0,0,1-.29,5.29A7.28,7.28,0,0,1,163.65,71a10.24,10.24,0,0,1-2.7.33h-4.26c-.33,0-.33,0-.33.34V79Zm2.47-11.73c.6,0,1.2,0,1.8,0a9.8,9.8,0,0,0,1.53-.16,3.52,3.52,0,0,0,2.82-2.4,5.33,5.33,0,0,0,.05-3.28,3.23,3.23,0,0,0-2-2.21,5.46,5.46,0,0,0-2-.37h-4.4c-.19,0-.25.07-.25.25q0,4,0,7.9c0,.22.07.28.28.27Z" transform="translate(-142.03 -19.58)"/><path class="cls-1" d="M185.89,76.94a6.48,6.48,0,0,1-3.55,1.89,10,10,0,0,1-3,.08,9.18,9.18,0,0,1-3.51-1.06,8,8,0,0,1-3.89-5,11.07,11.07,0,0,1-.4-3c0-1,0-2,.06-2.91a8.29,8.29,0,0,1,6.57-7.85,11.27,11.27,0,0,1,6.43.27,7.88,7.88,0,0,1,5.3,5.9,10.34,10.34,0,0,1,.31,2.6V78.41c0,.36,0,.36-.36.36h-3.62c-.22,0-.31,0-.3-.29C185.91,78,185.89,77.46,185.89,76.94Zm.05-8c-.05-.71,0-1.44-.16-2.14a4.38,4.38,0,0,0-2.91-3.53A5.89,5.89,0,0,0,179.7,63,4.67,4.67,0,0,0,175.87,67a13.5,13.5,0,0,0,0,3.36,4.73,4.73,0,0,0,2.85,4,5.77,5.77,0,0,0,3.34.39,4.28,4.28,0,0,0,3.67-3.17A11.53,11.53,0,0,0,185.94,68.94Z" transform="translate(-142.03 -19.58)"/><path class="cls-1" d="M161.87,37.19h-8c0-.11,0-.2,0-.29,0-.42,0-.84,0-1.27s0-.35.36-.35h9.23c.22,0,.29.06.29.28,0,3.31,0,6.61,0,9.91a.66.66,0,0,1-.15.41,9.65,9.65,0,0,1-3.52,2.5,13,13,0,0,1-4,1,12.61,12.61,0,0,1-6.78-1,11.93,11.93,0,0,1-7-8.74,12.4,12.4,0,0,1,6.54-13.95,13.16,13.16,0,0,1,4.85-1.49,19.79,19.79,0,0,1,3.77,0,13,13,0,0,1,3.59.75.41.41,0,0,1,.33.47c0,.58,0,1.16,0,1.78l-.63-.33a9.38,9.38,0,0,0-3.33-.87c-.84-.07-1.68-.11-2.52-.1a11.06,11.06,0,0,0-6.75,2.37A10.55,10.55,0,0,0,144.32,34a11.2,11.2,0,0,0-.34,3.56,10.38,10.38,0,0,0,1.07,4.35,10,10,0,0,0,7.19,5.55,12.55,12.55,0,0,0,4,.1,10.24,10.24,0,0,0,4.42-1.46,10.13,10.13,0,0,0,1.05-.81.59.59,0,0,0,.17-.39q0-3.69,0-7.4C161.89,37.37,161.88,37.29,161.87,37.19Z" transform="translate(-142.03 -19.58)"/><path class="cls-1" d="M190.67,46.41c0,.62,0,1.2,0,1.78a.32.32,0,0,1-.2.19,12.21,12.21,0,0,1-1.78.45A9.06,9.06,0,0,1,182,46.92a9.22,9.22,0,0,1-3.69-6.29,23.53,23.53,0,0,1-.07-3.36,9,9,0,0,1,2.33-5.9A9.43,9.43,0,0,1,194,30.42a9.44,9.44,0,0,1,3.21,5.78,8.55,8.55,0,0,1,.11,1.34c0,3.67,0,7.33,0,11v.34h-1.89v-.36c0-3.67,0-7.34,0-11a7.6,7.6,0,0,0-6.23-7.44,7.75,7.75,0,0,0-8.93,6.09,7.24,7.24,0,0,0-.14,1.23,15.17,15.17,0,0,0,.12,3.23,7.66,7.66,0,0,0,4.85,5.85,7.12,7.12,0,0,0,5.31,0Z" transform="translate(-142.03 -19.58)"/><path class="cls-1" d="M160.41,38.66v.27c0,1.76,0,3.51,0,5.27a.49.49,0,0,1-.21.43,6.79,6.79,0,0,1-2.78,1.21,11.74,11.74,0,0,1-3.44.3,8.75,8.75,0,0,1-7.53-4.84,9,9,0,0,1-1-4.21,9,9,0,0,1,.79-4.13,9.59,9.59,0,0,1,5.5-4.92,11.09,11.09,0,0,1,4.61-.58,12.64,12.64,0,0,1,3.89.78c.36.14.7.3,1,.47a.33.33,0,0,1,.16.22c0,.67,0,1.35,0,2.07l-.24-.16a6.91,6.91,0,0,0-3.52-1.35,16.27,16.27,0,0,0-2.6-.15,7.91,7.91,0,0,0-6.95,4.13,6.1,6.1,0,0,0-.78,3A7.83,7.83,0,0,0,148,40.1a6.77,6.77,0,0,0,5.31,4.06,10.26,10.26,0,0,0,5.14-.58.3.3,0,0,0,.23-.34c0-.79,0-1.58,0-2.38,0-.25-.07-.33-.33-.33H154.2c-.23,0-.31,0-.3-.29,0-.53,0-1,0-1.59Z" transform="translate(-142.03 -19.58)"/><path class="cls-1" d="M205.74,38.25c.11.5.18.92.3,1.33a6.5,6.5,0,0,0,1.71,2.93,3.93,3.93,0,0,0,5.63-.15,4,4,0,0,0,1.2-2.81,20.51,20.51,0,0,0,0-2.48,4.14,4.14,0,0,0-3.23-3.63,4.26,4.26,0,0,0-4,1.1,44.17,44.17,0,0,0-4.16,4.5c-1.5,1.77-3,3.59-4.42,5.39,0,0,0,0-.08,0a1.36,1.36,0,0,1,0-.2c0-.82,0-1.64,0-2.46a.74.74,0,0,1,.13-.41c1.36-1.8,2.83-3.51,4.36-5.17.84-.91,1.67-1.82,2.55-2.67a7.18,7.18,0,0,1,3.54-2,5.62,5.62,0,0,1,4.54,1,6.16,6.16,0,0,1,2.62,4,4.65,4.65,0,0,1,.07.91,24.83,24.83,0,0,1-.06,2.73A6.09,6.09,0,0,1,212,45.29a6,6,0,0,1-6.71-2.64,7.62,7.62,0,0,1-1-2.31.6.6,0,0,1,.09-.39c.4-.51.82-1,1.23-1.51Z" transform="translate(-142.03 -19.58)"/><path class="cls-1" d="M190.67,42.7c0,.66,0,1.26,0,1.87a.45.45,0,0,1-.2.26,3.88,3.88,0,0,1-1.67.61,6.19,6.19,0,0,1-6.37-3,5.86,5.86,0,0,1-.85-3.08q0-.81,0-1.62a6,6,0,0,1,2.4-5,6.12,6.12,0,0,1,9.84,3.64,6.84,6.84,0,0,1,.11,1.28q0,5.45,0,10.87c0,.34,0,.34-.35.34s-.85,0-1.27,0c-.22,0-.27-.07-.27-.28,0-1,0-1.94,0-2.91V37.78a4.34,4.34,0,0,0-.76-2.61,4.3,4.3,0,0,0-7.69,1.35,5,5,0,0,0-.13,1c0,.6,0,1.2,0,1.8a4.23,4.23,0,0,0,3.65,4.25,4.73,4.73,0,0,0,3.29-.72Z" transform="translate(-142.03 -19.58)"/><path class="cls-1" d="M180.35,29.34,179,30.76a12.94,12.94,0,0,0-1.47-.54,7.7,7.7,0,0,0-7.84,2.2,6.7,6.7,0,0,0-1.7,3.69,13.13,13.13,0,0,0-.14,2c0,3.48,0,7,0,10.44,0,.35,0,.35-.36.35h-1.29c-.18,0-.25-.06-.23-.24a.48.48,0,0,0,0-.12V37.67a9.62,9.62,0,0,1,1.73-5.74,8.86,8.86,0,0,1,5.83-3.69,9.88,9.88,0,0,1,5.54.47C179.52,28.88,179.91,29.12,180.35,29.34Z" transform="translate(-142.03 -19.58)"/><path class="cls-1" d="M178.21,32c-.29.57-.56,1.11-.82,1.64a11.5,11.5,0,0,0-1.13-.26,4.24,4.24,0,0,0-4.49,2.1,4.15,4.15,0,0,0-.51,2V48.87h-1.88c0-.09,0-.18,0-.26,0-3.74,0-7.47,0-11.21a5.91,5.91,0,0,1,4.93-5.86,6.8,6.8,0,0,1,3.35.21A4.28,4.28,0,0,1,178.21,32Z" transform="translate(-142.03 -19.58)"/><path class="cls-1" d="M200.66,19.59h1.86c0,.1,0,.19,0,.28v9.68a.48.48,0,0,1-.17.39c-.51.52-1,1-1.5,1.58l-.21.24Z" transform="translate(-142.03 -19.58)"/><path class="cls-1" d="M204,28.93v-9c0-.33,0-.33.35-.33h1.17c.36,0,.36,0,.36.37v7.43a.43.43,0,0,1-.23.42c-.49.31-.95.65-1.42,1Z" transform="translate(-142.03 -19.58)"/></g></svg>