<svg id="GrabPay_by_Moca" data-name="GrabPay by Moca" xmlns="http://www.w3.org/2000/svg" viewBox="0 0 151.94 62.3"><path d="M192.23,44.78c0,.31-.09.64-.12.95a10.22,10.22,0,0,1-18.48,4.62,14.89,14.89,0,0,1-.8-1.66.34.34,0,0,1,0-.2.29.29,0,0,1,.1-.18c.39-.45.77-.93,1.14-1.39a1.13,1.13,0,0,0,.12-.21c.14.39.22.69.35,1A7.87,7.87,0,0,0,177,50.94a8,8,0,0,0,3.74,1.59,8.21,8.21,0,0,0,9.22-6.15,9.6,9.6,0,0,0,.23-1.93V41.91a7.58,7.58,0,0,0-1.66-4.29,8,8,0,0,0-11.74-1.32,39.18,39.18,0,0,0-5,5.13c-.72.86-1.4,1.74-2.15,2.61l-.17.18V41.44a.62.62,0,0,1,.1-.35,45.24,45.24,0,0,1,4-4.56A20.7,20.7,0,0,1,177,33.74a9.06,9.06,0,0,1,3.79-1.33,10.27,10.27,0,0,1,11.16,7.75c.13.55.18,1.08.26,1.67l.07.36Z" transform="translate(-108.53 -23.2)" style="fill:#16923a;fill-rule:evenodd"/><path d="M129.9,42.11h-8.59V40.43c0-.46,0-.37.39-.37h9.91c.24,0,.31.06.31.3V51a.7.7,0,0,1-.16.44A10.35,10.35,0,0,1,128,54.13a13.86,13.86,0,0,1-4.3,1.07,13.57,13.57,0,0,1-7.28-1.07,12.83,12.83,0,0,1-7.52-9.39,13.32,13.32,0,0,1,7-15,14.19,14.19,0,0,1,5.21-1.61,22.83,22.83,0,0,1,4,0A14.14,14.14,0,0,1,129,29a.45.45,0,0,1,.36.51v1.91L128.7,31a10.09,10.09,0,0,0-3.58-.93c-.9-.08-1.8-.12-2.7-.11a11.83,11.83,0,0,0-7.25,2.55,11.32,11.32,0,0,0-4.12,6.15,12.05,12.05,0,0,0-.36,3.83,11.17,11.17,0,0,0,1.15,4.67,10.7,10.7,0,0,0,7.72,6,13.49,13.49,0,0,0,4.3.11,9.63,9.63,0,0,0,5.87-2.44.6.6,0,0,0,.18-.42v-8A1.18,1.18,0,0,0,129.9,42.11Z" transform="translate(-108.53 -23.2)" style="fill:#16923a;fill-rule:evenodd"/><path d="M160.84,52v1.91a.41.41,0,0,1-.08.13.39.39,0,0,1-.14.08,12.42,12.42,0,0,1-1.91.48,9.76,9.76,0,0,1-7.18-2,9.88,9.88,0,0,1-2.68-3,10,10,0,0,1-1.29-3.79,25.57,25.57,0,0,1-.07-3.61,9.65,9.65,0,0,1,2.5-6.33,10.09,10.09,0,0,1,3.14-2.48A10.25,10.25,0,0,1,157,32.32a10.36,10.36,0,0,1,10.87,8.73,8.54,8.54,0,0,1,.12,1.43V54.67h-2V42.46a8.16,8.16,0,0,0-6.69-8A8.32,8.32,0,0,0,149.67,41a7.42,7.42,0,0,0-.15,1.32,16.09,16.09,0,0,0,.13,3.47,8.11,8.11,0,0,0,1.77,3.84,8.28,8.28,0,0,0,3.44,2.45,7.69,7.69,0,0,0,5.7,0Z" transform="translate(-108.53 -23.2)" style="fill:#16923a;fill-rule:evenodd"/><path d="M128.34,43.69v6a.58.58,0,0,1-.06.26.47.47,0,0,1-.17.2,7.25,7.25,0,0,1-3,1.3,12.45,12.45,0,0,1-3.7.32,9.36,9.36,0,0,1-8.09-5.2A9.59,9.59,0,0,1,112.27,42a9.73,9.73,0,0,1,.85-4.44,10.28,10.28,0,0,1,5.9-5.28,11.77,11.77,0,0,1,5-.62,13.56,13.56,0,0,1,4.17.83,9.91,9.91,0,0,1,1.08.51.35.35,0,0,1,.11.1.35.35,0,0,1,.06.14v2.22l-.26-.17a7.34,7.34,0,0,0-3.78-1.45,17.35,17.35,0,0,0-2.79-.16,8.52,8.52,0,0,0-7.47,4.43,6.53,6.53,0,0,0-.83,3.23,8.27,8.27,0,0,0,.74,3.89,7.28,7.28,0,0,0,2.27,2.94,7.41,7.41,0,0,0,3.43,1.43,11.06,11.06,0,0,0,5.52-.63.34.34,0,0,0,.2-.13.37.37,0,0,0,0-.23V46.05c0-.27-.08-.35-.36-.35h-4.45c-.25,0-.34,0-.33-.32v-1.7Z" transform="translate(-108.53 -23.2)" style="fill:#16923a;fill-rule:evenodd"/><path d="M177,43.25c.12.53.19,1,.32,1.43a6.91,6.91,0,0,0,1.84,3.14,4,4,0,0,0,1.4.91,4.21,4.21,0,0,0,3.29-.09,4.07,4.07,0,0,0,1.35-1,4.24,4.24,0,0,0,1.29-3,19.68,19.68,0,0,0,0-2.66,4.45,4.45,0,0,0-3.47-3.9,4.55,4.55,0,0,0-4.29,1.18,46.52,46.52,0,0,0-4.47,4.84c-1.61,1.9-3.22,3.85-4.75,5.79h-.08a.81.81,0,0,1,0-.22V47a.84.84,0,0,1,.13-.44c1.47-1.94,3-3.77,4.69-5.56.9-1,1.79-2,2.74-2.86a7.63,7.63,0,0,1,3.8-2.15,5.93,5.93,0,0,1,2.55,0,6,6,0,0,1,2.33,1.06A6.69,6.69,0,0,1,187.54,39a6.6,6.6,0,0,1,1,2.43,5.33,5.33,0,0,1,.08,1,26.11,26.11,0,0,1-.07,2.93,6.52,6.52,0,0,1-4.77,5.51,6.41,6.41,0,0,1-4.08-.22A6.51,6.51,0,0,1,176.54,48a8.29,8.29,0,0,1-1.07-2.48.64.64,0,0,1,.1-.42c.43-.54.88-1.07,1.32-1.62Z" transform="translate(-108.53 -23.2)" style="fill:#16923a;fill-rule:evenodd"/><path d="M160.84,48v2a.47.47,0,0,1-.21.27,4.18,4.18,0,0,1-1.8.66A6.64,6.64,0,0,1,152,47.75a6.23,6.23,0,0,1-.91-3.31V42.7a6.46,6.46,0,0,1,2.57-5.37A6.58,6.58,0,0,1,156.71,36a6.54,6.54,0,0,1,6.08,2.25,6.51,6.51,0,0,1,1.43,3,6.29,6.29,0,0,1,.12,1.37V54.29c0,.36,0,.36-.37.36H162.6c-.23,0-.29-.07-.29-.3V42.74A4.62,4.62,0,0,0,156.9,38a4.63,4.63,0,0,0-3.66,3.37,4.83,4.83,0,0,0-.14,1.07V44.4A4.53,4.53,0,0,0,157,49a5.05,5.05,0,0,0,3.53-.77Z" transform="translate(-108.53 -23.2)" style="fill:#16923a;fill-rule:evenodd"/><path d="M149.75,33.68,148.3,35.2a14.78,14.78,0,0,0-1.57-.58A8.31,8.31,0,0,0,138.3,37a7.2,7.2,0,0,0-1.82,4,12.88,12.88,0,0,0-.15,2.15V54.31c0,.38,0,.38-.39.38h-1.39c-.19,0-.26-.07-.24-.26V42.62a10.27,10.27,0,0,1,1.86-6.16,9.34,9.34,0,0,1,2.73-2.62,9.49,9.49,0,0,1,3.53-1.35,10.6,10.6,0,0,1,5.95.51A13.41,13.41,0,0,1,149.75,33.68Z" transform="translate(-108.53 -23.2)" style="fill:#16923a;fill-rule:evenodd"/><path d="M147.46,36.53c-.32.62-.61,1.2-.88,1.77a10.26,10.26,0,0,0-1.22-.28,4.49,4.49,0,0,0-5.37,4.4V54.65h-2V42.33a6.34,6.34,0,0,1,5.3-6.29,7.33,7.33,0,0,1,3.6.22,6.28,6.28,0,0,1,.59.27Z" transform="translate(-108.53 -23.2)" style="fill:#16923a;fill-rule:evenodd"/><path d="M171.57,23.2h2V33.9a.59.59,0,0,1,0,.23.45.45,0,0,1-.14.19c-.55.56-1.08,1.07-1.61,1.7l-.23.26Z" transform="translate(-108.53 -23.2)" style="fill:#16923a;fill-rule:evenodd"/><path d="M175.16,33.24V23.57c0-.36,0-.36.37-.36h1.26c.39,0,.39,0,.39.4v8a.4.4,0,0,1-.06.26.39.39,0,0,1-.19.19c-.53.34-1,.7-1.52,1.08Z" transform="translate(-108.53 -23.2)" style="fill:#16923a;fill-rule:evenodd"/><path d="M242.68,56.43l.4.3a11.61,11.61,0,0,0,5.9,2.51,8.3,8.3,0,0,0,4.33-.41,3.86,3.86,0,0,0,1.76-1.35,3.71,3.71,0,0,0,.71-2.07c.07-.84,0-1.7.06-2.55v-.23a.29.29,0,0,0-.13,0A6.36,6.36,0,0,1,252,54.56a10.05,10.05,0,0,1-6.65-.87,8.4,8.4,0,0,1-2.69-2.26,8.06,8.06,0,0,1-1.47-3.15,11.09,11.09,0,0,1-.34-2.81V33c0-.36,0-.36.38-.36h4.44c.3,0,.37.09.37.37V45.73a4.24,4.24,0,0,0,1,2.87,4.45,4.45,0,0,0,2.71,1.49,5,5,0,0,0,4.06-.9,4,4,0,0,0,1-1.22,3.84,3.84,0,0,0,.46-1.52,9.3,9.3,0,0,0,.07-1.29V33c0-.38,0-.38.4-.38h4.32c.23,0,.3.07.3.29V55.42a7.88,7.88,0,0,1-2.08,5.52,8.87,8.87,0,0,1-4.46,2.55,15.71,15.71,0,0,1-3.12.42A11.54,11.54,0,0,1,243,61.45a.59.59,0,0,1-.22-.25.51.51,0,0,1-.06-.34V56.7A.48.48,0,0,1,242.68,56.43Z" transform="translate(-108.53 -23.2)" style="fill:#16923a;fill-rule:evenodd"/><path d="M200.31,54.53h-4.49c-.3,0-.36-.09-.36-.36V28.28c0-.38,0-.38.37-.38h10.31a9.4,9.4,0,0,1,3.55.66,9.22,9.22,0,0,1,3,2,7.7,7.7,0,0,1,2.1,4.06,11,11,0,0,1-.32,5.82,8.11,8.11,0,0,1-6,5.33,11.81,11.81,0,0,1-3,.36h-4.75c-.37,0-.37,0-.37.38Zm2.75-12.91h2a11,11,0,0,0,1.71-.17,3.91,3.91,0,0,0,3.14-2.64A5.79,5.79,0,0,0,210,35.2a3.51,3.51,0,0,0-.81-1.49,3.65,3.65,0,0,0-1.41-.94,6.08,6.08,0,0,0-2.23-.41h-4.91c-.21,0-.28.08-.28.27v8.7c0,.24.08.31.32.29Z" transform="translate(-108.53 -23.2)" style="fill:#16923a;fill-rule:evenodd"/><path d="M233,52.31a7,7,0,0,1-3.87,2,11.2,11.2,0,0,1-3.27.09,10.13,10.13,0,0,1-3.83-1.15,8.67,8.67,0,0,1-4.24-5.42,11.9,11.9,0,0,1-.44-3.25c0-1.08,0-2.16.07-3.15a8.91,8.91,0,0,1,2.1-5.48,9,9,0,0,1,5.06-3,12.34,12.34,0,0,1,7,.3,8.55,8.55,0,0,1,5.78,6.39,11.64,11.64,0,0,1,.34,2.82V53.91c0,.39,0,.39-.4.39h-4c-.24,0-.33,0-.32-.32C233.07,53.46,233,52.88,233,52.31Zm.06-8.66a15,15,0,0,0-.18-2.32,4.72,4.72,0,0,0-1-2.36,4.88,4.88,0,0,0-2.13-1.47,6.47,6.47,0,0,0-3.46-.29,5.12,5.12,0,0,0-2.8,1.49,5,5,0,0,0-1.37,2.84,13.86,13.86,0,0,0,0,3.64,5,5,0,0,0,.94,2.6,5.16,5.16,0,0,0,2.16,1.74,6.35,6.35,0,0,0,3.65.42,4.67,4.67,0,0,0,2.53-1.1,4.62,4.62,0,0,0,1.47-2.33,12.51,12.51,0,0,0,.23-2.86Z" transform="translate(-108.53 -23.2)" style="fill:#16923a;fill-rule:evenodd"/><path d="M162.62,68.2V80.29a.78.78,0,0,1-.79.78h-2.32a1.49,1.49,0,0,1-1.64-1.47V62.73a.78.78,0,0,1,.78-.78H161c.88,0,1.49.55,1.46,1.1V64.3a.1.1,0,0,0,.19,0,6.87,6.87,0,0,1,1.46-1.29,8,8,0,0,1,4.38-1.1,4.67,4.67,0,0,1,3.68,2,.89.89,0,0,0,1.39,0,6.58,6.58,0,0,1,.77-.86A4.46,4.46,0,0,1,177,62a6.53,6.53,0,0,1,6.39,3.12,6.09,6.09,0,0,1,.92,3.13V80.29a.78.78,0,0,1-.79.78h-2.32a1.66,1.66,0,0,1-1.82-1.65V68.26a.5.5,0,0,0,0-.12A2.79,2.79,0,0,0,176.49,66a3.11,3.11,0,0,0-3.08,2.12,1.11,1.11,0,0,0,0,.19v12a.78.78,0,0,1-.78.78h-2.32c-1.61,0-1.89-1.1-1.83-1.65V68.2c.06-.67-.4-2.06-2.74-2.21S162.68,67.4,162.62,68.2Z" transform="translate(-108.53 -23.2)" style="fill:#0594da"/><path d="M203.84,71.33c0,7.17-4.12,9.74-9.19,9.74s-9.2-2.57-9.2-9.74c0-6.62,4.12-9.75,9.2-9.75S203.84,64.52,203.84,71.33Z" transform="translate(-108.53 -23.2)" style="fill:#0594da"/><path d="M239.51,71.33c0,6.62-4.12,9.74-9.19,9.74s-9.2-2.57-9.2-9.74c0-6.62,4.12-9.75,9.2-9.75S239.51,66.36,239.51,71.33Z" transform="translate(-108.53 -23.2)" style="fill:#0594da"/><path d="M199.4,71.51a6.45,6.45,0,0,1-1.4,4.58,5,5,0,0,1-6.71,0,6.45,6.45,0,0,1-1.4-4.58,6.5,6.5,0,0,1,1.4-4.46,4.76,4.76,0,0,1,6.7,0A6.45,6.45,0,0,1,199.4,71.51Z" transform="translate(-108.53 -23.2)" style="fill:#fff;stroke:#0594da"/><path d="M235.44,71.51a6.45,6.45,0,0,1-1.4,4.58,5,5,0,0,1-6.71,0,6.45,6.45,0,0,1-1.4-4.58,6.5,6.5,0,0,1,1.4-4.46,4.76,4.76,0,0,1,6.7,0A6.45,6.45,0,0,1,235.44,71.51Z" transform="translate(-108.53 -23.2)" style="fill:#fff;stroke:#0594da"/><path d="M220.19,64.47l-.05-.34a1.45,1.45,0,0,0-1-1.2,21.4,21.4,0,0,0-5-1c-3.12-.19-4.95.52-6.62,2a8.21,8.21,0,0,0-2.39,5h0a24.4,24.4,0,0,0,0,5.14,6.21,6.21,0,0,0,1.47,4,10.38,10.38,0,0,0,5.34,2.76,16.15,16.15,0,0,0,7.32-.37,1.43,1.43,0,0,0,1-1.56l-.1-.9a1.26,1.26,0,0,0-1.53-1.17L218,77c-2.39.36-5,.36-6.8-.56a3.62,3.62,0,0,1-1.84-3.12V70.41A4.6,4.6,0,0,1,212.11,66c1.57-.59,4-.21,5.93.3A1.7,1.7,0,0,0,220.19,64.47Z" transform="translate(-108.53 -23.2)" style="fill:#0594da"/><path d="M238.22,62H237a1.5,1.5,0,0,0-1.5,1.49,1.12,1.12,0,0,0,0,.32l1.54,7a1.54,1.54,0,0,1,0,.74c-.63,2.44-1.7,7-1.56,8.09a1.65,1.65,0,0,0,1.66,1.47h.82a1.57,1.57,0,0,0,1.57-1.57V64C239.51,62.35,238.65,62,238.22,62Z" transform="translate(-108.53 -23.2)" style="fill:#0594da"/><path d="M132,65.89h1.19V79.07l-.08,2.09H132Zm8.68,9.79v.21a8.51,8.51,0,0,1-.28,2.21,5.59,5.59,0,0,1-.81,1.74,3.61,3.61,0,0,1-3,1.52,4.57,4.57,0,0,1-1.71-.3,3.53,3.53,0,0,1-1.27-.86,4.45,4.45,0,0,1-.85-1.33,6.68,6.68,0,0,1-.44-1.68V74.54a7.17,7.17,0,0,1,.47-1.77,4.6,4.6,0,0,1,.85-1.37,3.58,3.58,0,0,1,1.25-.89,4.41,4.41,0,0,1,1.68-.31,3.79,3.79,0,0,1,1.75.39,3.44,3.44,0,0,1,1.3,1.1,5.38,5.38,0,0,1,.81,1.74A8.6,8.6,0,0,1,140.68,75.68Zm-1.21.21v-.21a8.73,8.73,0,0,0-.17-1.75,4.29,4.29,0,0,0-.57-1.4,2.67,2.67,0,0,0-1-.94,2.78,2.78,0,0,0-1.43-.34,3.25,3.25,0,0,0-1.46.29,2.74,2.74,0,0,0-1,.74,3.76,3.76,0,0,0-.62,1,5.75,5.75,0,0,0-.34,1.07v3.09a4.22,4.22,0,0,0,.59,1.4,3.19,3.19,0,0,0,1.12,1.07,3.53,3.53,0,0,0,1.72.4,2.79,2.79,0,0,0,1.4-.34,2.76,2.76,0,0,0,1-.94,4.12,4.12,0,0,0,.57-1.4A8,8,0,0,0,139.47,75.89Zm6.91,4.2,3.36-9.69H151l-4.56,12.49c-.09.25-.21.52-.35.82a4,4,0,0,1-.56.85,2.52,2.52,0,0,1-.86.68,2.58,2.58,0,0,1-1.24.27,3.67,3.67,0,0,1-.49-.05l-.41-.08v-1a1.66,1.66,0,0,0,.31,0,1.94,1.94,0,0,0,.29,0,2.38,2.38,0,0,0,1.09-.22,1.84,1.84,0,0,0,.74-.65,4.53,4.53,0,0,0,.53-1.08Zm-3.13-9.69,3.43,9.24.32,1.24-.86.49L142,70.4Z" transform="translate(-108.53 -23.2)"/></svg>