<svg id="Hipercard" xmlns="http://www.w3.org/2000/svg" viewBox="0 0 153.96 67.02"><defs><style>.cls-1{fill:#fff;}.cls-2{fill:#b30f1b;}</style></defs><rect class="cls-1" x="12.01" y="15.72" width="128.72" height="36.11"/><path id="path2997" class="cls-2" d="M166.76,87.44l-64.31,0v-.15c0-.09.1-.64.23-1.23s.32-1.53.43-2.08.31-1.51.43-2.11.33-1.59.46-2.21.32-1.61.44-2.18.31-1.53.43-2.1.32-1.58.45-2.22.33-1.63.45-2.18.29-1.42.39-1.91.24-1.16.3-1.48.25-1.26.42-2.1.37-1.78.43-2.1.26-1.27.43-2.1.37-1.78.43-2.1.25-1.27.43-2.11S109,55.34,109,55l.35-1.71.55-2.69c.18-.83.48-2.28.66-3.23s.42-2.06.51-2.49.24-1.2.35-1.71.3-1.44.42-2.06l.47-2.26c.13-.62.32-1.58.44-2.14s.3-1.48.42-2.06.33-1.6.47-2.26.36-1.68.5-2.26.34-1.28.44-1.55.39-.88.63-1.34l.45-.84.4-.53c.22-.29.62-.74.88-1a11.87,11.87,0,0,1,1-.91c.28-.23.68-.53.9-.68s.63-.4.93-.57.72-.39.93-.49l1-.41c.32-.12.93-.33,1.36-.46s1.23-.33,1.78-.44,1.43-.25,2-.32l.94-.13,64.35,0,64.35,0v.16c0,.08-.1.63-.23,1.22s-.34,1.6-.47,2.24-.32,1.57-.43,2.07-.29,1.43-.43,2.1-.34,1.68-.46,2.25-.32,1.53-.43,2.11-.31,1.52-.43,2.1l-.42,2-.43,2.14c-.13.64-.35,1.66-.47,2.26s-.32,1.53-.43,2.06l-.43,2.14c-.13.64-.34,1.66-.47,2.26s-.31,1.51-.42,2-.3,1.48-.43,2.14-.33,1.63-.44,2.14-.29,1.43-.42,2-.33,1.63-.47,2.29-.33,1.61-.43,2.11l-.42,2.06c-.13.64-.34,1.66-.47,2.26s-.31,1.54-.43,2.1-.31,1.52-.43,2.14l-.47,2.25c-.12.63-.31,1.55-.42,2.07s-.3,1.46-.43,2.1-.34,1.65-.47,2.25l-.24,1.08-.27.75c-.16.41-.39,1-.52,1.21s-.39.71-.58,1-.46.68-.59.84-.54.61-.9,1l-.66.66-.63.45c-.35.24-.72.49-.83.55l-.93.48c-.41.2-1,.46-1.27.57s-.87.3-1.28.42l-1,.27-1,.2c-.41.09-1.25.22-1.87.29l-1.11.14-64.31,0ZM143.88,70.8h1.68l0-.12a1.13,1.13,0,0,0,.05-.35c0-.13.06-.59.12-1s.23-1.44.35-2.23.32-2,.42-2.65.24-1.51.29-1.89a2.48,2.48,0,0,1,.14-.68,1.69,1.69,0,0,1,.24.37l.19.37.43.43.43.44.54.21.53.21L150,64l.63.09.81,0,.8,0,.87-.23.87-.22.47-.22a9.7,9.7,0,0,0,1-.56l.54-.36.51-.51a12.8,12.8,0,0,0,.88-1,4.72,4.72,0,0,0,.36-.53,1.8,1.8,0,0,1,.23-.37,11,11,0,0,0,.55-1.1c.18-.43.46-1.2.63-1.72l.3-.93.16-.81c.08-.44.19-1.18.24-1.63l.09-.83,0-.7-.05-.7-.16-.7-.17-.7-.26-.53-.26-.52-.51-.54-.51-.54-.6-.31-.6-.31-.66-.16-.66-.16-.66,0-.67-.05-.73.08-.74.09-.6.15-.6.15-.52.25a7.32,7.32,0,0,0-.93.5,5.56,5.56,0,0,0-.52.36,1.76,1.76,0,0,1-.31.24l-.2.14.14-.69c.08-.37.15-.72.15-.78v-.1h-2.85L146.13,49c-.14.87-.36,2.21-.49,3s-.32,1.92-.43,2.57-.3,1.78-.42,2.53-.34,1.94-.47,2.64-.32,1.74-.42,2.3-.3,1.61-.43,2.33-.35,1.89-.48,2.57-.34,1.77-.47,2.42-.25,1.24-.27,1.34l0,.17Zm7.21-9-.65,0-.43-.07-.42-.08-.43-.19-.44-.2-.3-.29-.3-.29-.17-.39a5.41,5.41,0,0,1-.28-.8l-.09-.42,0-.67,0-.67.21-1.05c.11-.58.3-1.67.44-2.42s.33-1.84.44-2.44l.2-1.07.45-.38a7.09,7.09,0,0,1,.86-.6l.42-.24.55-.17.54-.17.7,0,.7,0,.57.12.57.12.4.19.41.18.33.34.34.34.18.36a6.5,6.5,0,0,1,.32.86l.13.5,0,1.48,0,1.48-.2.87c-.11.48-.32,1.22-.47,1.64l-.26.76-.33.61a10.55,10.55,0,0,1-.61,1,4.65,4.65,0,0,1-.56.64c-.15.12-.4.33-.56.44l-.28.22-.66.22-.66.22-.65,0Zm16.16,2.14h.86l.85-.07,1.71-.2c.47-.07,1.29-.22,1.81-.33l1-.21,0-.35c0-.2.13-.77.24-1.28l.19-.93,0,0-.05,0-.29.14c-.16.08-.66.26-1.1.41l-.82.27-.86.17-.85.16h-2.73l-.47-.15a6.4,6.4,0,0,1-.84-.34l-.37-.18-.31-.28-.3-.28-.24-.41-.24-.42-.15-.53-.15-.53V56.6l.14-.87.13-.87,1.17,0,1.17-.06,4.33,0,4.33,0,.13-.56a13.51,13.51,0,0,0,.25-1.4l.11-.84V50.58l-.13-.53-.12-.53-.2-.35a5.35,5.35,0,0,0-.44-.63,2.81,2.81,0,0,0-.52-.46c-.15-.11-.45-.29-.66-.41l-.39-.2-.68-.17-.68-.16-.84-.08-.84-.08-.78.05-.77,0-.94.18-.93.18-.59.23a11,11,0,0,0-1.09.52,9.61,9.61,0,0,0-.85.57c-.19.16-.53.46-.74.68a6.4,6.4,0,0,0-.71.85c-.17.26-.44.72-.59,1s-.35.72-.44.93-.25.65-.36,1-.29.94-.39,1.36-.24,1.14-.31,1.57l-.12.79v2.31l.12.51a9.36,9.36,0,0,0,.28.93,5.1,5.1,0,0,0,.35.78,4.16,4.16,0,0,0,.52.69,7.1,7.1,0,0,0,.71.63,6.53,6.53,0,0,0,.85.5l.46.21.64.15a9.86,9.86,0,0,0,1.17.22,13.11,13.11,0,0,0,1.4.08Zm1.47-11c-2.16,0-3.92,0-3.92,0s.09-.29.2-.6a10,10,0,0,1,.44-1l.23-.47.52-.51.51-.51.51-.25a7.39,7.39,0,0,1,.82-.32,9.57,9.57,0,0,1,1.09-.13l.78,0,.59.08.6.08.44.2.43.19.24.26a2.33,2.33,0,0,1,.34.46l.11.21.08.46.07.45-.08.76-.09.76Zm23.28,11h.86l1-.11c.53-.06,1.25-.17,1.58-.23s.88-.2,1.21-.29a4.18,4.18,0,0,0,.66-.22,3.78,3.78,0,0,0,.2-.79c.08-.4.18-.94.22-1.2a1.55,1.55,0,0,0,.05-.49s-.07,0-.12,0a5.85,5.85,0,0,1-.85.36l-.75.28-1.07.21-1.07.2-.9,0-.91,0-.52-.18-.51-.18-.4-.35-.4-.34-.26-.48-.27-.49L189.6,59l-.13-.64V56.68l.16-1,.15-1,.16-.54c.09-.3.19-.65.22-.78s.18-.5.32-.82a11.32,11.32,0,0,1,.56-1.1l.3-.52.37-.38.37-.39.39-.24.39-.24.51-.16a10.17,10.17,0,0,1,1.08-.24l.59-.09.85,0,.86,0,1,.2,1,.21.41.15.44.15s.06-.29.12-.64.15-.93.21-1.29a2.7,2.7,0,0,0,.08-.68,3.75,3.75,0,0,0-.67-.11c-.35,0-1.31-.11-2.13-.16L195.74,47l-1.05.08-1.05.08-.78.16-.78.16-.5.2a6.29,6.29,0,0,0-.9.45l-.62.39c-.12.09-.48.42-.81.75l-.6.58-.33.49a13.09,13.09,0,0,0-.7,1.24l-.38.76-.28.81c-.16.45-.37,1.19-.48,1.64l-.21.82-.07.74-.07.74V59l.07.57.08.56.23.59.23.58.27.42.27.42.43.42.43.42.45.24.45.24.6.17c.33.09.8.19,1.05.23s.84.07,1.31.07Zm12.8,0,1.06,0,.66-.17.66-.17.43-.21a9.12,9.12,0,0,0,.85-.48,6.4,6.4,0,0,0,.81-.67,8.48,8.48,0,0,0,.69-.79,2,2,0,0,1,.34-.39,7.46,7.46,0,0,1-.09.8,11.68,11.68,0,0,0-.11,1.27v.48H213l.05-1.1,0-1.11.21-1.44c.11-.8.29-2,.4-2.61l.42-2.41c.12-.69.32-1.76.43-2.38l.21-1.13v-2L214.5,49l-.22-.45-.29-.28-.3-.29-.49-.25-.5-.25L212,47.3l-.73-.16-1-.08-1-.08-1.3.08c-.71,0-1.72.13-2.23.2l-.93.11h-1.28l-.09.45c-.05.25-.19.83-.31,1.3a5.15,5.15,0,0,0-.2.88,5.4,5.4,0,0,0,.75-.17c.41-.11,1.26-.29,1.9-.4l1.17-.2,1,0,1.05,0,.68.12.68.11.45.23.45.22.25.38.26.37v1.19l-.14.65-.13.66h-5.6l-.92.25a10.38,10.38,0,0,0-1.24.41,2.19,2.19,0,0,1-.39.15,5,5,0,0,0-.67.37l-.59.37-.47.47a6.44,6.44,0,0,0-.73.86,7.4,7.4,0,0,0-.53,1l-.25.6-.12.68-.12.68v1.43l.11.59.11.6.22.38a3.89,3.89,0,0,0,.47.7l.26.3.47.29.46.28.53.15c.3.08.74.18,1,.22l.45.08,1.05,0Zm1-2.18-.63,0-.41-.1a4.6,4.6,0,0,1-.76-.29l-.36-.18-.19-.23a5.25,5.25,0,0,1-.36-.55l-.16-.32,0-.75,0-.75.13-.45a10,10,0,0,1,.38-1l.25-.51.47-.47.47-.47.5-.24.5-.24.63-.15.62-.15h3.89l.12,0,.13.06-.11.61c0,.33-.19.94-.3,1.35s-.3,1-.43,1.32-.23.62-.23.64a3.56,3.56,0,0,1-.28.53l-.28.47-.47.47a3.76,3.76,0,0,1-.53.46,1.59,1.59,0,0,0-.35.19l-.29.2-.63.2-.63.2-.62,0Zm25.33,2.2h.74l.7-.11c.39-.06.88-.16,1.09-.22a7.09,7.09,0,0,0,.86-.35L235,63l.4-.36.4-.35.42-.57a5.77,5.77,0,0,0,.47-.68l.05-.11,0,.39c0,.21-.07.56-.11.77s-.09.63-.12.92l-.05.52h3.05V62.51l.23-2c.13-1.09.32-2.55.42-3.23s.27-1.67.36-2.18l.36-2.06c.11-.62.3-1.71.43-2.42s.33-1.82.45-2.49.32-1.69.43-2.29.31-1.65.44-2.34.33-1.65.43-2.14.19-.92.19-1v-.06h-3.33l0,.49c0,.26-.16,1.15-.29,2s-.34,2.11-.46,2.88-.26,1.52-.28,1.66l0,.26-.13,0c-.07,0-.47-.14-.87-.25l-.74-.18-1-.08L235,47l-.86.08-.86.08-.78.2-.77.19-.74.36-.74.36-.55.41-.54.4-.47.51a8.62,8.62,0,0,0-.83,1l-.36.51L227,52c-.23.49-.51,1.13-.63,1.43s-.31,1-.44,1.47l-.24.93L225.61,57l-.11,1.21.08,1,.09,1,.11.35a6.42,6.42,0,0,0,.27.76l.16.41.3.41.3.41.34.28.34.28.47.23a5.88,5.88,0,0,0,1,.36,7,7,0,0,0,1,.2,10.45,10.45,0,0,0,1.22.07Zm1.33-2.21-.59,0-.39-.08a3.66,3.66,0,0,1-.78-.23l-.38-.16L230,61l-.32-.26-.23-.46-.24-.45-.11-.51-.11-.5v-2l.13-.89.12-.9.2-.62a7.38,7.38,0,0,0,.19-.72,3.87,3.87,0,0,1,.24-.62c.13-.29.34-.74.48-1a9.29,9.29,0,0,1,.55-.89,7.28,7.28,0,0,1,.69-.77,4.32,4.32,0,0,1,.71-.57l.35-.22.61-.21.62-.21h2.56l.74.2c.41.11.84.25,1,.29l.22.09,0,.21c0,.12-.12.64-.21,1.15s-.26,1.49-.39,2.18-.32,1.72-.43,2.3-.27,1.31-.35,1.63l-.27,1a5.69,5.69,0,0,1-.33.85,6.86,6.86,0,0,1-.45.81,5.16,5.16,0,0,1-.51.59,6.76,6.76,0,0,1-.69.53l-.43.28-.61.2-.62.19-.59,0ZM117.89,63.56h1.89l.13-.83c.08-.46.22-1.35.33-2l.42-2.57c.14-.79.33-2,.44-2.6s.29-1.64.39-2.22.21-1.06.23-1.09l0,0h10.17l.05.06.06.05-.09.45c-.05.25-.19,1-.32,1.7s-.34,1.84-.47,2.57-.33,1.76-.43,2.29-.31,1.66-.46,2.49-.28,1.56-.28,1.62v.09h3.79l.09-.48c0-.27.12-.75.16-1.07s.15-1,.24-1.52.26-1.53.39-2.26l.46-2.76c.14-.79.33-1.95.44-2.57s.29-1.67.42-2.33.33-1.79.46-2.49l.44-2.38c.1-.6.3-1.68.43-2.41s.3-1.58.38-1.89l.13-.56H134l-.05.37c0,.2-.12.77-.21,1.26s-.24,1.37-.34,2-.29,1.68-.42,2.45-.29,1.79-.36,2.27l-.13.86-2.82.06-2.83.06-2.36-.06L122.09,50a4.7,4.7,0,0,1,.1-.67c.06-.36.18-1,.26-1.4s.24-1.21.35-1.79.23-1.3.27-1.6.13-.79.2-1.11.19-1,.27-1.45.18-.94.21-1l0-.12H120l-.12.68c-.07.37-.16.91-.2,1.18s-.18,1.18-.32,2-.32,2-.43,2.68l-.42,2.69c-.13.81-.35,2.07-.48,2.8s-.32,1.76-.42,2.3-.3,1.55-.43,2.26-.33,1.7-.44,2.21-.22,1.11-.26,1.33-.15.83-.26,1.37-.21,1-.21,1.11v.12Zm20.93,0h1.68l0-.12a1.27,1.27,0,0,0,.05-.39c0-.15.11-.93.23-1.73s.35-2.1.48-2.89.32-2,.43-2.57.29-1.66.41-2.3.32-1.64.43-2.22L143,48.9c.15-.76.3-1.42.32-1.46l0-.07-1.69,0-1.69,0-.14,1c-.08.55-.25,1.66-.38,2.45s-.33,2-.44,2.68-.3,1.79-.42,2.45-.32,1.68-.43,2.26-.3,1.6-.43,2.26-.3,1.54-.39,1.94-.17.82-.2.92l0,.17Zm39.16,0h1.66l.05-.7c0-.39.12-1.16.21-1.73l.4-2.51c.13-.81.37-2.17.54-3s.36-1.67.42-1.85a2.77,2.77,0,0,0,.12-.44,4,4,0,0,1,.27-.71,10.32,10.32,0,0,1,.64-1.13l.35-.53.48-.44.47-.44.59-.27.58-.28h1.79l.44.14.49.13s0-.09,0-.19.09-.61.2-1.14.19-1,.19-1a1.8,1.8,0,0,0-.56-.22,6.9,6.9,0,0,0-.95-.22L186,47l-.51.09a7.24,7.24,0,0,0-.92.24,6.47,6.47,0,0,0-.83.42,6.8,6.8,0,0,0-.8.64,9.58,9.58,0,0,0-.78.92l-.51.7-.12.16.07-.31c0-.17.14-.74.23-1.25s.18-1,.21-1.07l0-.14h-3v.19c0,.11-.09.73-.2,1.38s-.28,1.76-.39,2.44-.3,1.88-.43,2.65-.32,1.87-.43,2.45-.3,1.6-.42,2.26l-.47,2.41c-.14.67-.29,1.45-.35,1.74s-.11.57-.11.61v.06Zm39.45,0h1.7v-1l.19-1.29c.11-.7.29-1.83.4-2.49s.24-1.51.3-1.87.21-1.15.34-1.75.29-1.25.35-1.44a2.43,2.43,0,0,0,.13-.45,5.12,5.12,0,0,1,.32-.78l.32-.68.42-.56.43-.56.46-.35a6.39,6.39,0,0,1,.91-.56l.45-.22h1.94l.39.13.38.12.06,0,.07,0v-.25a10.59,10.59,0,0,1,.19-1.13l.18-.88-.21-.08-.59-.2-.39-.12h-1.4l-.57.2-.57.2-.43.26-.43.26-.56.58-.55.59-.3.45A2.08,2.08,0,0,1,221,50s.08-.54.2-1.16.23-1.2.23-1.3v-.18h-2.88v.05s-.07.53-.16,1.11-.26,1.71-.39,2.5-.34,2.07-.47,2.84-.32,1.88-.42,2.46-.3,1.59-.43,2.25-.34,1.73-.46,2.38l-.38,1.88-.14.72Zm-75.32-19h.48l.37-.13.38-.12.33-.34.33-.34.18-.45.17-.45V41.42l-.16-.26-.16-.26-.27-.16-.27-.17h-1.17l-.4.18-.39.17-.24.25-.23.25-.18.43-.18.43,0,.66,0,.67.17.33.17.33.33.15.32.15Z" transform="translate(-102.45 -20.44)"/></svg>