<svg id="HLB_Connect" data-name="HLB Connect" xmlns="http://www.w3.org/2000/svg" xmlns:xlink="http://www.w3.org/1999/xlink" viewBox="0 0 202.02 66.52"><defs><style>.cls-1,.cls-6{fill:none;}.cls-2,.cls-4{fill:#1c7fb5;}.cls-2,.cls-6{stroke:#1c7fb5;stroke-miterlimit:1;stroke-width:0.67px;}.cls-3{clip-path:url(#clip-path);}.cls-5{clip-path:url(#clip-path-2);}.cls-7{clip-path:url(#clip-path-3);}.cls-8{fill:#15244a;}.cls-9{clip-path:url(#clip-path-4);}.cls-10{clip-path:url(#clip-path-5);}.cls-11{clip-path:url(#clip-path-6);}.cls-12{clip-path:url(#clip-path-7);}.cls-13{clip-path:url(#clip-path-8);}.cls-14{fill:#e12212;}</style><clipPath id="clip-path" transform="translate(-85.07 -22.02)"><rect class="cls-1" x="108.46" y="52.85" width="36.15" height="35.72"/></clipPath><clipPath id="clip-path-2" transform="translate(-85.07 -22.02)"><rect class="cls-1" x="97.83" y="43.28" width="57.41" height="45.29"/></clipPath><clipPath id="clip-path-3" transform="translate(-85.07 -22.02)"><rect class="cls-1" x="85.07" y="51.79" width="22.33" height="36.79"/></clipPath><clipPath id="clip-path-4" transform="translate(-85.07 -22.02)"><rect class="cls-1" x="148.85" y="52.85" width="27.64" height="35.72"/></clipPath><clipPath id="clip-path-5" transform="translate(-85.07 -22.02)"><rect class="cls-1" x="181.81" y="52.85" width="27.64" height="35.72"/></clipPath><clipPath id="clip-path-6" transform="translate(-85.07 -22.02)"><rect class="cls-1" x="213.7" y="52.85" width="28.7" height="35.72"/></clipPath><clipPath id="clip-path-7" transform="translate(-85.07 -22.02)"><rect class="cls-1" x="244.54" y="52.85" width="22.33" height="35.72"/></clipPath><clipPath id="clip-path-8" transform="translate(-85.07 -22.02)"><rect class="cls-1" x="268.99" y="42.22" width="18.09" height="46.35"/></clipPath></defs><g id="surface1"><path class="cls-2" d="M125.29,69.29h2.12V47.23h-2.12Z" transform="translate(-85.07 -22.02)"/><g class="cls-3"><path class="cls-4" d="M133.33,54l-.44-.19-.87,2,.44.21a15.63,15.63,0,1,1-12.23,0l.42-.2-.84-2-.45.19a17.82,17.82,0,1,0,14,0" transform="translate(-85.07 -22.02)"/></g><g class="cls-5"><path class="cls-6" d="M133.33,54l-.44-.19-.87,2,.44.21a15.63,15.63,0,1,1-12.23,0l.42-.2-.84-2-.45.19a17.82,17.82,0,1,0,14,0Z" transform="translate(-85.07 -22.02)"/></g><g class="cls-7"><path class="cls-8" d="M106.87,86.1q-2.62,2.36-8.15,2.36a12,12,0,0,1-9.84-4.82c-2.55-3.2-3.81-7.58-3.81-13.19s1.34-10,4-13.22a12,12,0,0,1,9.74-4.62c3.45,0,6.13.8,8,2.39l-1.67,4.43A7.15,7.15,0,0,0,100.53,58C95.5,58,93,62.07,93,70.3c0,3.91.65,7,2,9.18a6.11,6.11,0,0,0,5.48,3.36,7,7,0,0,0,4.67-1.57l1.8,4.83" transform="translate(-85.07 -22.02)"/></g><g class="cls-9"><path class="cls-8" d="M175.82,88.36h-7.66v-24c0-3.75-2-5.65-6.07-5.65a14.29,14.29,0,0,0-5.3,1V88.36h-7.67v-32c3.5-1.64,7.91-2.46,13.26-2.46,4.76,0,8.23,1,10.48,3.13a9.11,9.11,0,0,1,3,7.22V88.36" transform="translate(-85.07 -22.02)"/></g><g class="cls-10"><path class="cls-8" d="M208.8,88.36h-7.66v-24c0-3.75-2-5.65-6.11-5.65a14.48,14.48,0,0,0-5.3,1V88.36h-7.59v-32c3.43-1.64,7.86-2.46,13.2-2.46,4.74,0,8.22,1,10.49,3.13a9.22,9.22,0,0,1,3,7.22V88.36" transform="translate(-85.07 -22.02)"/></g><g class="cls-11"><path class="cls-8" d="M234.6,67.69c0-6.44-2.23-9.62-6.67-9.62a6.15,6.15,0,0,0-5.4,2.82c-1.37,2-2,5-1.93,8.93Zm7.15,3-20.72,3q1,9.42,9.2,9.43a18.43,18.43,0,0,0,8.55-1.89l1.84,4.83a23.11,23.11,0,0,1-11.17,2.4c-4.87,0-8.71-1.55-11.5-4.6s-4.22-7.4-4.22-13.06c0-5.47,1.27-9.75,3.87-12.84s6.1-4.61,10.59-4.61,7.95,1.49,10.29,4.45,3.44,7.24,3.27,12.89" transform="translate(-85.07 -22.02)"/></g><g class="cls-12"><path class="cls-8" d="M266.21,86.15c-1.69,1.52-4.36,2.31-8,2.31a11.72,11.72,0,0,1-9.64-4.73c-2.49-3.13-3.73-7.45-3.73-12.93s1.29-9.75,3.89-12.92a11.86,11.86,0,0,1,9.53-4.52c3.4,0,6,.78,7.84,2.32L264.53,60A7.07,7.07,0,0,0,260,58.58c-4.91,0-7.4,4-7.4,12.11,0,3.8.62,6.81,1.93,9a5.9,5.9,0,0,0,5.35,3.27,6.76,6.76,0,0,0,4.56-1.51l1.77,4.73" transform="translate(-85.07 -22.02)"/></g><g class="cls-13"><path class="cls-8" d="M287.09,87.5a9.6,9.6,0,0,1-4,.72,9.35,9.35,0,0,1-7.33-2.89,9.65,9.65,0,0,1-2.16-6.49V58.26h-3.86v-5h3.86V45.17L281.45,43V53.26h5.64v5h-5.64V78.43c0,2.94,1.26,4.43,3.77,4.43a9,9,0,0,0,1.87-.24V87.5" transform="translate(-85.07 -22.02)"/></g><path class="cls-8" d="M112.65,37.51V33.06h-2.6v4.45h-2.44V27.23h2.44v4.25h2.6V27.23h2.43V37.51" transform="translate(-85.07 -22.02)"/><path class="cls-8" d="M119.61,30.76c-1,0-1.24,1.25-1.24,2.69s.24,2.62,1.24,2.62,1.24-1.17,1.24-2.62-.21-2.69-1.24-2.69m0,6.91c-2.32,0-3.55-1.79-3.55-4.19s1.23-4.17,3.53-4.17,3.57,1.76,3.57,4.17-1.22,4.19-3.55,4.19" transform="translate(-85.07 -22.02)"/><path class="cls-8" d="M128.56,37.51V31.88c0-.57-.25-1.12-1.19-1.12a3,3,0,0,0-1,.16v6.59h-2.33V29.9a8.62,8.62,0,0,1,3.38-.59c2.54,0,3.47,1.09,3.47,2.56v5.64h-2.34" transform="translate(-85.07 -22.02)"/><path class="cls-8" d="M136.48,30.79l-.72-.13c-1.2,0-1.7,1-1.7,2.9s.48,2.68,1.64,2.68l.78-.19Zm-1.25,10.12a6.54,6.54,0,0,1-3-.6l.59-1.52a4.16,4.16,0,0,0,2,.48c1.23,0,1.67-.58,1.67-1.51v-.44a2.87,2.87,0,0,1-1.4.25c-1.93,0-3.31-1.48-3.31-3.88,0-2.69,1.37-4.38,4.14-4.38a5.85,5.85,0,0,1,2.85.6v7.66c0,2.29-1.46,3.34-3.53,3.34" transform="translate(-85.07 -22.02)"/><path class="cls-8" d="M140.93,37.51V27.23h2.43v8.65H146v1.63" transform="translate(-85.07 -22.02)"/><path class="cls-8" d="M158.21,30.76c-1,0-1.24,1.25-1.24,2.69s.22,2.62,1.24,2.62,1.25-1.17,1.25-2.62-.22-2.69-1.25-2.69m0,6.91c-2.33,0-3.55-1.79-3.55-4.19s1.22-4.17,3.53-4.17,3.57,1.76,3.57,4.17-1.23,4.19-3.55,4.19" transform="translate(-85.07 -22.02)"/><path class="cls-8" d="M167.46,37.51V31.88c0-.57-.25-1.12-1.2-1.12a3,3,0,0,0-1,.16v6.59H163V29.9a8.55,8.55,0,0,1,3.38-.59c2.55,0,3.47,1.09,3.47,2.56v5.64h-2.34" transform="translate(-85.07 -22.02)"/><path class="cls-8" d="M175.38,30.79l-.73-.13c-1.19,0-1.69,1-1.69,2.9s.5,2.68,1.65,2.68l.77-.19Zm-1.26,10.12a6.57,6.57,0,0,1-3-.6l.61-1.52a4.07,4.07,0,0,0,2,.48c1.22,0,1.66-.58,1.66-1.51v-.44a2.84,2.84,0,0,1-1.4.25c-1.93,0-3.3-1.48-3.3-3.88,0-2.69,1.36-4.38,4.13-4.38a5.85,5.85,0,0,1,2.85.6v7.66c0,2.29-1.48,3.34-3.54,3.34" transform="translate(-85.07 -22.02)"/><path class="cls-8" d="M148.82,32.72c0-1.34.6-2,1.46-2s1.34.62,1.35,2Zm1.57-3.4c-2.32,0-3.62,1.63-3.62,4.16s1.4,4.2,3.87,4.2a6.18,6.18,0,0,0,2.88-.59L153,35.65a4.91,4.91,0,0,1-2.08.43c-1.2,0-1.73-.54-2-1.76l-.06-.45h4.89v-.25c.1-2.71-1.08-4.3-3.4-4.3" transform="translate(-85.07 -22.02)"/><path class="cls-8" d="M103,27.19a14.2,14.2,0,0,1-1.86-.35A13,13,0,0,1,94,22l-2,1.17a15.37,15.37,0,0,0,8.54,5.91,16.77,16.77,0,0,0,2.47.43V27.19" transform="translate(-85.07 -22.02)"/><path class="cls-8" d="M103,33.53V31.2a18.61,18.61,0,0,1-2.89-.52,17,17,0,0,1-5.89-2.87A17.49,17.49,0,0,1,90.55,24l-2,1.17a19.46,19.46,0,0,0,11,7.74,20,20,0,0,0,3.51.59" transform="translate(-85.07 -22.02)"/><path class="cls-8" d="M87.1,26a20.7,20.7,0,0,0,4.7,5,20.93,20.93,0,0,0,7.25,3.54,23,23,0,0,0,3.94.67v2.34a22.47,22.47,0,0,1-4.53-.77,23,23,0,0,1-13.39-9.58l2-1.16" transform="translate(-85.07 -22.02)"/><path class="cls-14" d="M87.1,38.7a20.76,20.76,0,0,1,12-8.51,22.06,22.06,0,0,1,3.94-.66V27.19a23.94,23.94,0,0,0-4.53.75,23.26,23.26,0,0,0-13.39,9.58l2,1.18" transform="translate(-85.07 -22.02)"/><path class="cls-14" d="M103,31.2v2.33a17.46,17.46,0,0,0-2.89.5,17.13,17.13,0,0,0-9.55,6.66l-2-1.17a19.54,19.54,0,0,1,11-7.75A19,19,0,0,1,103,31.2" transform="translate(-85.07 -22.02)"/><path class="cls-14" d="M103,37.52a12.74,12.74,0,0,0-1.86.36A12.88,12.88,0,0,0,94,42.7l-2-1.19a15.69,15.69,0,0,1,3.22-3.29,15,15,0,0,1,5.32-2.59,12.78,12.78,0,0,1,2.47-.44v2.33" transform="translate(-85.07 -22.02)"/></g></svg>