<svg id="ICICI_Bank" data-name="ICICI Bank" xmlns="http://www.w3.org/2000/svg" viewBox="0 0 185.33 66.31"><defs><style>.cls-1{fill:#5b5f60;}.cls-1,.cls-2,.cls-3,.cls-4{fill-rule:evenodd;}.cls-2{fill:#32348c;}.cls-3{fill:#d2562e;}.cls-4{fill:#ba282f;}</style></defs><path class="cls-1" d="M158,56.85l-8.06,30.08h11.32l8.06-30.08Zm35.45,11.42h10.49a14.16,14.16,0,0,0,.16-3.62,7.94,7.94,0,0,0-1.46-4.09,10.41,10.41,0,0,0-4.27-3.34,19.88,19.88,0,0,0-8.32-1.4,24.34,24.34,0,0,0-6.77,1,20,20,0,0,0-6.17,2.95,20.82,20.82,0,0,0-5,5.1,23.16,23.16,0,0,0-3.35,7.43q-1.89,7,1.53,11t11.61,4.17a22.35,22.35,0,0,0,6.9-.78,24.1,24.1,0,0,0,6.11-2.65,20.93,20.93,0,0,0,4.8-4,14.65,14.65,0,0,0,2.93-4.89h-11A9,9,0,0,1,190,77.57a7.89,7.89,0,0,1-1.89,1.51,6.83,6.83,0,0,1-2,.77,8.86,8.86,0,0,1-1.83.21A4.12,4.12,0,0,1,181,78.83a5.41,5.41,0,0,1-1.28-3.09,10.52,10.52,0,0,1,.4-4,14.67,14.67,0,0,1,1.81-4,11.68,11.68,0,0,1,2.84-3.08,5.8,5.8,0,0,1,3.56-1.23c.28,0,.68,0,1.2,0a3.66,3.66,0,0,1,1.57.44,4,4,0,0,1,1.47,1.44,6.71,6.71,0,0,1,.86,3Zm17.31-11.42-8.06,30.08H214l8.06-30.08Zm35.45,11.42h10.49a14.16,14.16,0,0,0,.16-3.62,7.94,7.94,0,0,0-1.46-4.09,10.41,10.41,0,0,0-4.27-3.34,19.88,19.88,0,0,0-8.32-1.4,24.34,24.34,0,0,0-6.77,1,20,20,0,0,0-6.17,2.95,20.82,20.82,0,0,0-5,5.1,23.16,23.16,0,0,0-3.35,7.43q-1.89,7,1.53,11t11.61,4.17a22.32,22.32,0,0,0,6.9-.78,24.1,24.1,0,0,0,6.11-2.65,20.93,20.93,0,0,0,4.8-4,14.65,14.65,0,0,0,2.93-4.89h-11a9,9,0,0,1-1.62,2.43,7.89,7.89,0,0,1-1.89,1.51,6.83,6.83,0,0,1-2,.77,8.86,8.86,0,0,1-1.83.21,4.12,4.12,0,0,1-3.27-1.23,5.49,5.49,0,0,1-1.29-3.09,10.74,10.74,0,0,1,.41-4,14.57,14.57,0,0,1,1.81-4,11.68,11.68,0,0,1,2.84-3.08,5.78,5.78,0,0,1,3.56-1.23c.28,0,.68,0,1.2,0a3.66,3.66,0,0,1,1.57.44,4,4,0,0,1,1.47,1.44,6.84,6.84,0,0,1,.86,3Zm17.31-11.42-8.06,30.08h11.32l8.06-30.08ZM132,35.54c2.47-3,3.07-6.66,1.34-8s-5.18,0-7.66,3-3.07,6.66-1.33,8.05S129.56,38.58,132,35.54ZM137.57,69c13-16.24,15.92-35.55,6.54-43s-27.62-.23-40.6,16S87.59,77.62,97,85a14.06,14.06,0,0,0,7.88,2.89,9.3,9.3,0,0,0,4.7-5c.58-1.58,6.07-16.57,6.74-23.89.5-5.41-1.67-5.66-2.91-5.16s-3.5,1.66-5,1.74-1.67-.83-.84-1.91S120.13,41.48,124.45,42c3.33.41,3.92,3.83,3.17,6s-3.25,11.49-4.25,16.32-2.17,11.57-1.83,14.15c.25,2,1,2.93,2,3.42a60.27,60.27,0,0,0,14-12.88Z" transform="translate(-91.48 -21.62)"/><path class="cls-2" d="M160,55.35l-8.06,30.08h11.32l8.06-30.08Zm35.45,11.42h10.49a14.6,14.6,0,0,0,.16-3.62,8.12,8.12,0,0,0-1.46-4.09,10.41,10.41,0,0,0-4.27-3.34A20,20,0,0,0,192,54.33a24.72,24.72,0,0,0-6.78,1,20.36,20.36,0,0,0-6.16,2.95,20.82,20.82,0,0,0-5,5.1,23.36,23.36,0,0,0-3.35,7.43q-1.89,7.06,1.53,11T183.85,86a22.27,22.27,0,0,0,6.89-.79,23.45,23.45,0,0,0,6.11-2.65,21,21,0,0,0,4.81-4,14.69,14.69,0,0,0,2.93-4.9h-11A9.5,9.5,0,0,1,192,76.08a8.36,8.36,0,0,1-1.89,1.51,7,7,0,0,1-2,.76,8.86,8.86,0,0,1-1.83.21A4.12,4.12,0,0,1,183,77.33a5.49,5.49,0,0,1-1.29-3.09,10.56,10.56,0,0,1,.41-4,14.38,14.38,0,0,1,1.81-4,11.88,11.88,0,0,1,2.84-3.09,5.78,5.78,0,0,1,3.56-1.23l1.2,0a3.66,3.66,0,0,1,1.57.44,4,4,0,0,1,1.47,1.44,6.88,6.88,0,0,1,.86,3Zm17.3-11.42-8.06,30.08H216l8.06-30.08Zm35.46,11.42h10.49a14.6,14.6,0,0,0,.16-3.62,8,8,0,0,0-1.47-4.09,10.34,10.34,0,0,0-4.27-3.34,19.88,19.88,0,0,0-8.31-1.39,24.72,24.72,0,0,0-6.78,1,20.53,20.53,0,0,0-6.17,2.95,21,21,0,0,0-5,5.1,23.35,23.35,0,0,0-3.34,7.43q-1.89,7.06,1.52,11T236.61,86a22.33,22.33,0,0,0,6.89-.79,23.6,23.6,0,0,0,6.11-2.65,21.2,21.2,0,0,0,4.81-4,14.85,14.85,0,0,0,2.93-4.9h-11a9.76,9.76,0,0,1-1.62,2.44,8.58,8.58,0,0,1-1.89,1.51,7,7,0,0,1-2,.76,9,9,0,0,1-1.84.21,4.09,4.09,0,0,1-3.26-1.23,5.42,5.42,0,0,1-1.29-3.09,10.54,10.54,0,0,1,.4-4,14.67,14.67,0,0,1,1.81-4,11.88,11.88,0,0,1,2.84-3.09,5.81,5.81,0,0,1,3.57-1.23l1.19,0a3.7,3.7,0,0,1,1.58.44,4.07,4.07,0,0,1,1.46,1.44,6.74,6.74,0,0,1,.87,3Zm17.3-11.42-8.06,30.08h11.33l8.06-30.08Z" transform="translate(-91.48 -21.62)"/><path class="cls-3" d="M134,34.05c2.48-3,3.08-6.66,1.34-8s-5.18-.05-7.65,3-3.08,6.65-1.34,8S131.56,37.09,134,34.05Zm5.53,33.48c13-16.25,15.92-35.56,6.54-43s-27.61-.23-40.59,16S89.58,76.12,99,83.55a14.05,14.05,0,0,0,7.88,2.88,9.29,9.29,0,0,0,4.71-5c.58-1.58,6.06-16.57,6.74-23.89.5-5.41-1.67-5.65-2.91-5.16s-3.5,1.67-5,1.75-1.66-.83-.83-1.92S122.12,40,126.45,40.52c3.33.42,3.91,3.83,3.16,6S126.37,58,125.37,62.83,123.2,74.4,123.53,77c.26,2,1.06,2.94,2.06,3.42A60.18,60.18,0,0,0,139.56,67.53Z" transform="translate(-91.48 -21.62)"/><path class="cls-4" d="M134,34.05c2.48-3,3.08-6.66,1.34-8s-5.18-.05-7.65,3-3.08,6.65-1.34,8S131.56,37.09,134,34.05ZM142,60.11c10.79-13.62,12.4-29.81,3.6-36S120.79,23.88,110,37.5s-12.4,29.81-3.6,36A13.91,13.91,0,0,0,113.46,76c1.85-5.46,4.38-13.62,4.83-18.45.5-5.41-1.68-5.65-2.91-5.16s-3.5,1.67-5,1.75-1.66-.83-.83-1.91,12.57-12.2,16.9-11.66c3.33.42,3.91,3.83,3.16,6S126.36,58,125.37,62.83a104,104,0,0,0-1.82,11.4C130,71.78,136.61,66.88,142,60.11Z" transform="translate(-91.48 -21.62)"/></svg>