<svg id="iDeal" xmlns="http://www.w3.org/2000/svg" viewBox="0 0 78.83 68.31"><defs><style>.cls-1{fill:#d51472;}</style></defs><path d="M147.89,18.57h40.65c27.6,0,38.17,15.06,38.17,34.07,0,22.8-14.77,34.23-38.17,34.23H147.89Zm3.94,3.94V82.93h36.71c22.17,0,34.23-10.32,34.23-30.29,0-20.51-13.08-30.13-34.23-30.13Z" transform="translate(-147.89 -18.57)"/><path d="M156.75,57.09h11.76V78H156.75Z" transform="translate(-147.89 -18.57)"/><circle cx="14.74" cy="27.98" r="7.3"/><path class="cls-1" d="M193.15,50v3.39h-8.37V39.76h8.11v3.39h-4.73v1.57h4.47v3.39h-4.47V50Zm1.47,3.39,4.1-13.59h4.81l4.1,13.59h-3.52l-.77-2.63h-4.43l-.77,2.63Zm5.28-6h2.45l-1.12-3.84H201l-1.12,3.84Zm9.43-7.58h3.39V50h5c-1.38-18.53-16-22.53-29.2-22.53H174.43V39.76h2.08c3.81,0,6.18,2.59,6.18,6.74s-2.31,6.85-6.18,6.85h-2.08V78h14.11c21.53,0,29-10,29.29-24.66h-8.5V39.76Zm-34.91,3.39V50h2.09c1.45,0,2.79-.42,2.79-3.47s-1.49-3.35-2.79-3.35Z" transform="translate(-147.89 -18.57)"/></svg>