<svg id="Interbank" xmlns="http://www.w3.org/2000/svg" viewBox="0 0 274.68 49.89"><defs><style>.cls-1{fill:#128f47;}.cls-2{fill:#1760a2;}</style></defs><path class="cls-1" d="M179.13,47.82c-7.88,0-13.42,5.68-13.46,14.83a13.35,13.35,0,0,0,13.5,13.55c4.08,0,6.59-.64,8.06-1.83V69.75a15.91,15.91,0,0,1-6.73,1.37c-4.21,0-7.6-2.29-8.15-6l0-.32h4.89c4.63,0,7.88-.41,9.94-1.42s2.93-2.56,2.93-5c0-6.55-5.27-10.58-10.94-10.58m3.2,12c-1.28.46-3.3.64-6.64.64h-3.43v-.32l.05-.91A6.28,6.28,0,0,1,178.49,53a6.74,6.74,0,0,1,4,1.1,4,4,0,0,1,1.56,3.34,2.26,2.26,0,0,1-1.74,2.38m11.12-1.46V75.74h6.46V59.68a7.07,7.07,0,0,1,1.32-4.76,4.71,4.71,0,0,1,3.8-1.47,10,10,0,0,1,1.74.14V48.46a7.11,7.11,0,0,0-3.25-.68c-7.23,0-10.07,5.17-10.07,10.62M115.14,75.74V40.82h-6.41V75.74Zm17.34-27.92c-8.6,0-12.31,5.86-12.36,11.63V75.74h6.41V59.91A7.6,7.6,0,0,1,128,55.1a4.94,4.94,0,0,1,3.89-1.74,5.73,5.73,0,0,1,4.39,1.69c1.06,1.15,1.56,3,1.56,5.36V75.74h6.41V59.81c0-7.73-5.31-12-11.77-12m23.07-7h-6.36V66c.05,6.41,3.25,10.16,10.21,10.21,3,0,4.71-1,5.44-2.52v-4a11.82,11.82,0,0,1-4.62.73,4.59,4.59,0,0,1-3.48-1.24,5.71,5.71,0,0,1-1.23-4.07V53.36h5.58c2.75,0,3.89-1.74,3.89-3V47.78h-9.43Zm121.53,7c-8.6,0-12.31,5.86-12.36,11.63l0,16.29h6.36V59.91a7.56,7.56,0,0,1,1.46-4.81,4.94,4.94,0,0,1,3.9-1.74,5.58,5.58,0,0,1,4.39,1.74,7.76,7.76,0,0,1,1.56,5.31V75.74h6.36V59.81c0-7.73-5.22-12-11.72-12m-53.33,0a8.51,8.51,0,0,0-7.18,4.12l-.5.73V40.82H209.7V62.47c0,9.2,5.54,13.78,12.73,13.78,8.19,0,13.36-6.46,13.36-14.7s-5.21-13.73-12-13.73m-.59,23a6.35,6.35,0,0,1-5.22-2.15c-1.23-1.56-1.83-3.94-1.83-7.19,0-4.44,2.7-8.05,6.36-8.1a6,6,0,0,1,5.08,2.11c1.19,1.51,1.79,3.8,1.79,7.23-.05,4.62-2.56,8.1-6.18,8.1m25.77-23a12.94,12.94,0,0,0-8.24,2.43v4.48a16.06,16.06,0,0,1,7.19-1.55c2.1,0,3.93.32,5,1.14s1.55,2.24,1.55,4.26v.64h-2.74c-10.26.05-13.64,3.66-13.64,8.47s4.39,8.56,10.94,8.56h1.41c6.09,0,10.3-3.94,10.3-9.71V60.13c.05-9.74-5.58-12.26-11.76-12.31m5.58,18.77A4.59,4.59,0,0,1,253.32,70a4.77,4.77,0,0,1-3.57,1.15,6.53,6.53,0,0,1-3.75-1,3.23,3.23,0,0,1-1.37-2.79,3.06,3.06,0,0,1,1.55-2.88c1.1-.64,2.89-.92,5.54-.92h2.79Zm52.6-5.31L307,61.1l.14-.19a164.57,164.57,0,0,1,11.12-12.45h-3.52c-2.25,0-3.76.23-5.36,1.74a85.89,85.89,0,0,0-8.56,10.07l-.5.69,0-20.14h-6.45V75.7h6.45V61.55l.51.69a121.38,121.38,0,0,0,9.75,11.86A6.76,6.76,0,0,0,315,75.93a4.09,4.09,0,0,0,3.48-1.29c-1.83-2.15-9.16-10.71-11.35-13.36" transform="translate(-43.78 -33.31)"/><path class="cls-2" d="M50.41,33.31A6.68,6.68,0,0,0,43.78,40V83.2H87a6.68,6.68,0,0,0,6.68-6.68V33.31ZM82,69.34l-26.59,4.8V47.32L82,42.51Z" transform="translate(-43.78 -33.31)"/></svg>