<svg id="Banco_Corpbanca_S.A." data-name="Banco Corpbanca S.A." xmlns="http://www.w3.org/2000/svg" xmlns:xlink="http://www.w3.org/1999/xlink" viewBox="0 0 73.35 74.2"><defs><style>.cls-1{fill:none;}.cls-2{clip-path:url(#clip-path);}.cls-3{fill:#205691;}.cls-3,.cls-4{fill-rule:evenodd;}.cls-4{fill:#fbf120;}</style><clipPath id="clip-path" transform="translate(-145.13 -23.27)"><rect class="cls-1" x="145.06" y="23.29" width="73.35" height="74.2"/></clipPath></defs><g class="cls-2"><path class="cls-3" d="M157.37,23.27h48.89l.63,0,.62.05.61.08.61.11.59.14.58.16.57.2.55.22.54.24.53.28.51.3.5.32.48.34.46.37.44.39.42.41.41.43.38.45.37.47.34.48.31.5.3.52.27.54.25.54.21.57.2.57.16.59.14.6.1.61.08.61.05.63,0,.64V85.12l0,.63-.05.63-.08.62-.1.61-.14.6-.16.58-.2.57-.21.57-.25.55L217,91l-.3.52-.31.5-.34.48-.37.47-.38.45-.41.43-.42.41-.44.39-.46.36-.48.35-.5.32-.51.29-.53.28-.54.25-.55.21-.57.2-.58.17-.59.14-.61.1-.61.08-.62,0-.63,0H157.37l-.64,0-.62,0-.61-.08-.6-.1-.6-.14-.57-.17-.57-.2-.56-.21-.54-.25-.53-.28-.51-.29-.5-.32L150,95l-.46-.36-.44-.39-.42-.41-.41-.43-.38-.45-.37-.47-.34-.48-.32-.5-.29-.52-.27-.53-.25-.55-.21-.57-.2-.57-.16-.58-.14-.6-.1-.61-.08-.62,0-.63,0-.63V35.65l0-.64,0-.63.08-.61.1-.61.14-.6.16-.59.2-.57.21-.57.25-.54.27-.54.29-.52.32-.5.34-.48.37-.47.38-.45.41-.43.42-.41.44-.39.46-.37.48-.34.5-.32.51-.3.53-.28.54-.24.56-.22.57-.2.57-.16.6-.14.6-.11.61-.08.62-.05Z" transform="translate(-145.13 -23.27)"/><path class="cls-4" d="M151.25,85.11H157V60.37h-5.7Z" transform="translate(-145.13 -23.27)"/><path class="cls-4" d="M182.5,66h-1l-.31,0-.3,0-.3,0-.29,0-.29,0-.28,0-.27,0-.28,0-.26,0-.26,0-.25.06-.25.06-.24.06-.24.06-.22.07-.22.07-.22.07-.21.07-.2.07-.2.08-.19.08-.18.07-.18.08-.17.08-.17.08-.15.07-.15.08-.14.08-.14.08,1.07,3.65.13-.08.12-.07.14-.08.13-.07.15-.07.14-.07.15-.07.16-.06.16-.06.17-.07.16-.06.17-.06.17-.06.18-.06.17-.06.18-.05.18,0,.19,0,.19-.05.18,0,.19,0,.19,0,.19,0,.19,0,.19,0,.19,0,.19,0h.19l.19,0h1.17l.27,0,.26,0,.25,0,.23,0,.22.06.21.06.2.07.18.07.17.08.15.08.15.09.14.09.13.1.11.1.11.1.1.11.09.1.07.11.07.11.07.1,0,.11.05.11,0,.1,0,.11,0,.1,0,.09v.57h-.68l-.67,0-.65,0-.63,0-.62.06-.59.08-.59.09-.56.1-.54.12-.51.13-.51.15-.48.16-.46.18-.44.19-.42.2-.4.22-.38.23-.35.25-.33.26-.31.28-.29.29-.26.3-.24.32-.22.33-.19.34-.17.36-.14.37-.11.39-.1.4-.06.41,0,.43v.71l0,.26,0,.27.05.26.06.26.06.26.09.25L174,82l.11.25.12.24.14.24.14.23.15.22.17.22.19.22.19.2.2.2.22.18.23.18.24.16.25.16.27.15.27.13.29.12.3.12.31.09.32.09.33.07.34,0,.36,0,.37,0h1l.22,0,.21,0,.22,0,.21,0,.21,0,.2,0,.21,0,.2,0,.19-.06.2-.06.19-.06.19-.07.18-.08.18-.08.18-.08.17-.08.17-.1.17-.09.16-.1.16-.11.15-.11.15-.11.15-.11.14-.12.13-.13.14-.12.12-.13.13-.14.12-.14h.06l.62,1.93H191V73.73l0-.41,0-.4,0-.4-.06-.4-.08-.38-.09-.38-.1-.37-.13-.36-.13-.34-.16-.34-.16-.33-.19-.32-.2-.31-.23-.3-.24-.28-.25-.27-.28-.25-.3-.24-.32-.23-.33-.21-.36-.2-.38-.18-.39-.16-.42-.15-.45-.13-.46-.11-.48-.09-.51-.07-.54-.05-.55,0Zm3.26,12.24V79l0,.11,0,.12v0l0,.06v.09l0,0,0,0,0,.11-.06.11-.06.12-.06.11-.07.1-.07.11-.08.11-.08.1-.09.11-.09.1-.09.09-.1.1-.1.09-.11.09-.11.09-.12.08-.12.08-.12.08-.13.07-.13.07-.13.07-.13,0-.14.06-.15,0-.15,0-.14,0-.16,0-.15,0-.16,0h-1.06l-.13,0-.13,0-.13,0-.12,0-.12,0-.12,0-.11,0-.1-.06-.11-.06-.09-.06-.1-.07-.09-.07-.09-.08-.07-.08-.08-.09-.07-.09-.06-.1-.07-.09,0-.11-.05-.11,0-.11,0-.12,0-.12,0-.12,0-.14v-.73l0-.15,0-.15,0-.14.05-.14,0-.13.06-.13.07-.13.07-.11.09-.12.09-.11.09-.11.11-.09.11-.1.12-.09.12-.1.13-.08.14-.08.14-.08L181,77l.15-.07.16-.07.16-.06.18-.06.17,0,.18,0,.19,0,.19,0,.19,0,.2,0,.21,0,.19,0,.2,0,.2,0,.21,0,.21,0,.22,0h1.58v2Z" transform="translate(-145.13 -23.27)"/><path class="cls-4" d="M206.73,66.57V77.76l0,.15,0,.15,0,.15,0,.14,0,.13-.05.13,0,.11-.05.11-.05.1-.06.11-.06.1-.06.11-.07.11-.07.1-.08.1-.08.1-.09.1-.08.1-.1.1-.09.09-.1.09-.11.08-.11.09-.11.08-.12.08-.12.07-.13.06-.12.07-.14.06-.14,0-.14,0-.14,0-.16,0-.15,0-.16,0h-.92l-.2,0-.19,0-.19,0-.17-.05-.17-.07-.16-.07-.16-.08-.15-.09-.14-.11-.13-.11-.13-.11-.12-.13-.11-.14-.1-.14-.11-.15-.09-.17-.08-.17-.08-.17-.07-.19-.07-.19-.06-.21-.05-.21,0-.21,0-.23,0-.23,0-.24,0-.25V66.56h-5.56V78.45l0,.25,0,.24,0,.24,0,.24,0,.22,0,.23,0,.21,0,.22.05.21.06.2,0,.2.06.19.07.19.07.19.07.18.08.17.08.17.07.17.09.16.09.17.09.15.09.15.1.15.1.14.1.14.1.13.11.13.11.13.11.12.12.12.12.12.12.1.13.11.12.1.13.1.14.09.14.09.13.08.14.08.15.08.14.07L198,85l.16.06.15.06.16.06.16.05.16,0,.16,0,.17,0,.17,0,.17,0,.17,0,.18,0,.17,0,.18,0,.18,0,.18,0h1.35l.16,0h.15l.14,0,.15,0,.14,0,.14,0,.14,0,.13,0,.13,0,.14,0,.13,0,.24-.08.24-.09.23-.09.23-.09.21-.1.21-.11.2-.11.18-.11.18-.12.18-.11.16-.12.16-.12.16-.13.14-.13.13-.13.13-.13.12-.13.12-.13.1-.13.1-.12.1-.11.09-.12.07-.11.08-.11.71,2.64h4.52V66.57Z" transform="translate(-145.13 -23.27)"/><path class="cls-4" d="M162.3,60.37v6.19h-2.6v4.23h2.6v8.44l0,.22v.21l0,.21,0,.21,0,.2,0,.2,0,.19,0,.19,0,.19,0,.18,0,.18.05.18,0,.17.05.17.06.16.06.16.06.15.07.15.07.15.07.14.07.14.08.13.08.13.09.13.09.12.09.12.1.12.09.1.09.09.1.1.09.09.1.08.1.09.11.08.11.08.12.08.11.08.13.08.12.07.13.07.13.06.13.07.15.06.13.06.15.06.15.05.15,0,.15,0,.16,0,.16,0,.16,0,.16,0,.17,0,.17,0,.17,0,.17,0,.17,0h1.39l.24,0,.22,0,.21,0,.19,0,.18,0,.18,0,.16,0,.15,0,.15,0,.29-.1.28-.11V80.71l-.08,0-.09,0-.12,0-.14,0-.16,0h-.18l-.19,0h-.56l-.17,0-.15,0-.15,0-.14,0-.13,0-.12-.06-.12-.06-.11-.06-.1-.08-.1-.08-.09-.09-.08-.09-.08-.1-.07-.12-.06-.11-.06-.12-.06-.13,0-.13,0-.15,0-.14,0-.16,0-.15,0-.17,0-.18,0-.17V70.79h3.54V66.56h-3.54V60.37Z" transform="translate(-145.13 -23.27)"/><path class="cls-4" d="M204.62,60.37l-3.44,5h4l4.85-5Z" transform="translate(-145.13 -23.27)"/></g></svg>