<svg id="JCB" xmlns="http://www.w3.org/2000/svg" xmlns:xlink="http://www.w3.org/1999/xlink" viewBox="0 0 86.86 66.9"><defs><style>.cls-1{fill:#fff;}.cls-2{fill:url(#linear-gradient);}.cls-3{fill:url(#linear-gradient-2);}.cls-4{fill:url(#linear-gradient-3);}.cls-5{fill:url(#linear-gradient-4);}.cls-6{fill:url(#linear-gradient-5);}</style><linearGradient id="linear-gradient" x1="-66.56" y1="168.77" x2="-65.58" y2="168.77" gradientTransform="matrix(24.25, 0, 0, -15.02, 1804.48, 2593.15)" gradientUnits="userSpaceOnUse"><stop offset="0" stop-color="#0c7940"/><stop offset="0.23" stop-color="#15863f"/><stop offset="0.74" stop-color="#3da036"/><stop offset="1" stop-color="#5cb233"/></linearGradient><linearGradient id="linear-gradient-2" x1="-68.36" y1="167.54" x2="-68.02" y2="167.54" gradientTransform="matrix(70.26, 0, 0, -170.72, 4993.12, 28655.93)" xlink:href="#linear-gradient"/><linearGradient id="linear-gradient-3" x1="-66.28" y1="167.79" x2="-65.21" y2="167.79" gradientTransform="matrix(22.22, 0, 0, -13.77, 1662.86, 2360.66)" xlink:href="#linear-gradient"/><linearGradient id="linear-gradient-4" x1="-66.88" y1="167.54" x2="-66.54" y2="167.54" gradientTransform="matrix(70.26, 0, 0, -170.56, 4835.7, 28629.65)" gradientUnits="userSpaceOnUse"><stop offset="0" stop-color="#1e296f"/><stop offset="0.48" stop-color="#184f93"/><stop offset="0.83" stop-color="#1766a6"/><stop offset="1" stop-color="#196eac"/></linearGradient><linearGradient id="linear-gradient-5" x1="-67.62" y1="167.54" x2="-67.29" y2="167.54" gradientTransform="matrix(70.26, 0, 0, -170.88, 4914.57, 28682.22)" gradientUnits="userSpaceOnUse"><stop offset="0" stop-color="#6c2c2f"/><stop offset="0.17" stop-color="#882730"/><stop offset="0.57" stop-color="#be1533"/><stop offset="0.86" stop-color="#db1536"/><stop offset="1" stop-color="#e4133a"/></linearGradient></defs><path class="cls-1" d="M218.76,74.16a13.51,13.51,0,0,1-13.48,13.49H131.9V34.23a13.5,13.5,0,0,1,13.49-13.48h73.37Z" transform="translate(-131.9 -20.75)"/><path class="cls-2" d="M194.87,60.46h5.58c.16,0,.53-.05.69-.05a2.49,2.49,0,0,0,2-2.5,2.57,2.57,0,0,0-2-2.49,3,3,0,0,0-.69-.05h-5.58Z" transform="translate(-131.9 -20.75)"/><path class="cls-3" d="M199.81,25.26a9.66,9.66,0,0,0-9.66,9.66V45h13.64a5.87,5.87,0,0,1,1,0c3.08.16,5.36,1.75,5.36,4.51,0,2.18-1.54,4-4.41,4.41V54c3.13.21,5.52,2,5.52,4.67,0,2.92-2.65,4.83-6.15,4.83h-15V83.19h14.18a9.66,9.66,0,0,0,9.66-9.67V25.26Z" transform="translate(-131.9 -20.75)"/><path class="cls-4" d="M202.41,50.16a2.26,2.26,0,0,0-2-2.28c-.11,0-.38-.05-.54-.05h-5V52.5h5a1.38,1.38,0,0,0,.54-.06,2.24,2.24,0,0,0,2-2.28Z" transform="translate(-131.9 -20.75)"/><path class="cls-5" d="M146.4,25.26a9.67,9.67,0,0,0-9.67,9.66V58.76a19.08,19.08,0,0,0,8.34,2.18c3.34,0,5.15-2,5.15-4.78V44.91h8.28v11.2c0,4.35-2.71,7.91-11.89,7.91a40.76,40.76,0,0,1-9.93-1.22V83.13h14.18a9.67,9.67,0,0,0,9.66-9.66V25.26Z" transform="translate(-131.9 -20.75)"/><path class="cls-6" d="M173.1,25.26a9.66,9.66,0,0,0-9.66,9.66V47.56c2.44-2.07,6.69-3.4,13.54-3.08a43.08,43.08,0,0,1,7.59,1.17v4.09a18.46,18.46,0,0,0-7.33-2.13c-5.2-.37-8.33,2.18-8.33,6.64s3.13,7.06,8.33,6.64a19.31,19.31,0,0,0,7.33-2.13v4.09A42.12,42.12,0,0,1,177,64c-6.85.32-11.1-1-13.54-3.08v22.3h14.18a9.67,9.67,0,0,0,9.66-9.66V25.26Z" transform="translate(-131.9 -20.75)"/></svg>