<svg id="Klarna" xmlns="http://www.w3.org/2000/svg" viewBox="0 0 274.91 61.37"><path d="M91.07,21.08H77.53A34.66,34.66,0,0,1,63.57,49l-5.34,4L79,81.29H96.05l-19.12-26A47.86,47.86,0,0,0,91.07,21.08Z" transform="translate(-42.69 -21.08)"/><rect width="13.84" height="60.22"/><rect x="57.36" width="13.05" height="60.22"/><path d="M227.59,38.5c-5,0-9.72,1.51-12.87,5.82V39.65H202.33V81.29H214.9V59.44c0-6.31,4.25-9.41,9.35-9.41,5.46,0,8.62,3.28,8.62,9.35v22h12.44V54.83C245.31,45.11,237.6,38.5,227.59,38.5Z" transform="translate(-42.69 -21.08)"/><path d="M152.56,39.65v2.67a21.66,21.66,0,0,0-12.38-3.82,22,22,0,1,0,0,43.94,21.66,21.66,0,0,0,12.38-3.82v2.67H165V39.65Zm-11.35,31.5c-6.25,0-11.29-4.79-11.29-10.68s5-10.68,11.29-10.68,11.29,4.79,11.29,10.68S147.46,71.15,141.21,71.15Z" transform="translate(-42.69 -21.08)"/><path d="M184.31,45.05v-5.4H171.56V81.29h12.81V61.87c0-6.56,7.1-10.08,12-10.08h.12V39.65C191.47,39.65,186.8,41.84,184.31,45.05Z" transform="translate(-42.69 -21.08)"/><path d="M284,39.65v2.67a21.66,21.66,0,0,0-12.38-3.82,22,22,0,1,0,0,43.94A21.66,21.66,0,0,0,284,78.62v2.67h12.44V39.65Zm-11.35,31.5c-6.25,0-11.29-4.79-11.29-10.68s5-10.68,11.29-10.68S284,54.58,284,60.47,278.94,71.15,272.69,71.15Z" transform="translate(-42.69 -21.08)"/><path d="M306.13,40.86a1,1,0,0,0-1.09-1h-1.15v3.16h.54V41.9H305l.49,1.15h.6l-.54-1.28A.94.94,0,0,0,306.13,40.86Zm-1.09.49h-.61v-1H305c.37,0,.55.18.55.48S305.47,41.35,305,41.35Z" transform="translate(-42.69 -21.08)"/><path d="M304.86,38.56a3,3,0,0,0-3,3,3,3,0,0,0,3,3,3,3,0,0,0,0-5.95Zm0,5.4a2.38,2.38,0,0,1-2.37-2.43,2.43,2.43,0,0,1,2.37-2.43,2.39,2.39,0,0,1,2.37,2.43A2.43,2.43,0,0,1,304.86,44Z" transform="translate(-42.69 -21.08)"/><path d="M309.78,66.54a7.83,7.83,0,1,0,7.83,7.83A7.85,7.85,0,0,0,309.78,66.54Z" transform="translate(-42.69 -21.08)"/></svg>