<svg id="Knet" xmlns="http://www.w3.org/2000/svg" viewBox="0 0 90.22 67.45"><defs><style>.cls-1{fill:#0e2882;}.cls-2{fill:#fff;}.cls-3{fill:#ffff01;}</style></defs><rect class="cls-1" width="90.22" height="17.9"/><rect class="cls-1" y="19.64" width="90.22" height="28.16"/><rect class="cls-1" y="49.54" width="90.22" height="17.9"/><rect class="cls-2" x="75.91" y="13.62" width="2.66" height="1.65"/><rect class="cls-2" x="72.52" y="13.62" width="2.66" height="1.65"/><polygon class="cls-2" points="35.35 10.52 33.72 10.52 33.72 8.19 30.45 8.19 30.45 10.52 6.79 10.52 6.51 9.9 8.75 6.98 8.75 4.9 5.53 4.9 1.97 9.52 4 13.85 38.62 13.85 38.62 8.19 35.35 8.19 35.35 10.52"/><rect class="cls-2" x="35.73" y="5.15" width="2.66" height="1.65"/><rect class="cls-2" x="10.82" y="5.65" width="2.66" height="1.65"/><rect class="cls-2" x="14.26" y="5.65" width="2.66" height="1.65"/><polygon class="cls-2" points="86.2 7.52 76.52 7.52 75.05 6.29 85.33 6.29 84.26 4.42 71.35 4.42 71.15 5.08 75.58 8.78 83.2 8.78 83.2 9.76 74.97 9.76 72.17 7.42 66.58 7.42 66.58 12.36 57.38 12.36 57.38 10.34 65.14 10.34 65.14 7.42 52.59 7.42 52.59 14.76 69.89 14.76 69.89 10.86 71.84 12.49 86.33 12.49 88.36 10.41 88.36 9.73 86.2 7.52"/><rect class="cls-2" x="41.85" y="9.09" width="6.13" height="2.68"/><polygon class="cls-3" points="78.29 45.02 61.72 32.56 78 22.6 48.85 22.6 34.59 31.33 34.59 22.6 14.26 22.6 14.26 45.02 34.59 45.02 34.59 33.35 47.64 45.02 78.29 45.02"/><path class="cls-2" d="M141,85.26V74.15H144v1.31a4.22,4.22,0,0,1,1.47-1.21,4.37,4.37,0,0,1,1.9-.4,3.63,3.63,0,0,1,2.75,1,4,4,0,0,1,.91,2.87v7.58h-3V78.54a2.81,2.81,0,0,0-.4-1.71,1.59,1.59,0,0,0-1.32-.51,2.21,2.21,0,0,0-1.66.63,2.35,2.35,0,0,0-.62,1.71v6.6Z" transform="translate(-130.83 -20.22)"/><path class="cls-2" d="M177.82,81.75h3A4.72,4.72,0,0,1,179,84.5a5.46,5.46,0,0,1-3.33,1,4.8,4.8,0,0,1-3.82-1.62,6.47,6.47,0,0,1-1.41-4.39,6.27,6.27,0,0,1,1.39-4.31,4.79,4.79,0,0,1,3.8-1.57,5,5,0,0,1,3.94,1.55,6.36,6.36,0,0,1,1.39,4.41V80a1.55,1.55,0,0,1,0,.31h-7.42a3.18,3.18,0,0,0,.64,2,2.1,2.1,0,0,0,1.66.66,2.4,2.4,0,0,0,1.26-.3A2,2,0,0,0,177.82,81.75Zm-4.34-3.36h4.38a2.55,2.55,0,0,0-.6-1.71,2.11,2.11,0,0,0-1.6-.59,2,2,0,0,0-1.53.6A2.72,2.72,0,0,0,173.48,78.39Z" transform="translate(-130.83 -20.22)"/><path class="cls-2" d="M210.47,86.64l-1,0-.72,0a3.26,3.26,0,0,1-2.34-.64,3.75,3.75,0,0,1-.62-2.52v-6h-1.48V75.44h1.48v-3h2.94v3h1.72v2.09h-1.72v6.15c0,.3.06.49.19.58a1.57,1.57,0,0,0,.8.14h.73Z" transform="translate(-130.83 -20.22)"/></svg>