<svg id="Lider" xmlns="http://www.w3.org/2000/svg" viewBox="0 0 205.03 67.23"><defs><style>.cls-1{fill:#1b7cb3;}.cls-2{fill:#f6bb2e;}</style></defs><g id="layer1"><g id="g41068"><g id="g6970"><path id="path6972" class="cls-1" d="M114.33,38.2c0,2.93-2.35,4.13-5.26,4.13s-5.26-1.85-5.26-4.13,2.36-4.13,5.26-4.13,5.26,1.85,5.26,4.13m-1.55,7.34c-2.09,9.39-4.54,19-6.55,28.44H97.88c1.73-7.49,3.48-15,5.22-22.43H98.74l1.51-6Zm93.78-.15s-2.2,6.23-2.26,6.44c-2.25-.65-3.2-1.87-6.26-1.57-7.91.78-9.76,10.82-11.25,18.88L186,74h-8.17c2.22-9.31,4.51-19.36,6.81-28.59h8.08l-.43,2.25a19.09,19.09,0,0,1,14.26-2.26m-51.12,16c-1.43,9.27,12.52,7.88,17,4.35-.5,2.11-.59,4.63-1,6.78-11,3.31-23.42,1-24.51-8.87-1.32-11.82,8.46-18,18.6-18.78,5.82-.42,12.47.6,14.26,4.7A7.89,7.89,0,0,1,178.56,57c-4.09,5-15.12,6.19-23.12,4.35m8.17-4.52c3.45-.23,9.66-1.41,8.52-4.69-.7-2-4.7-2.35-7.13-1.92a12.05,12.05,0,0,0-8,6.09,21.05,21.05,0,0,0,6.61.52m-13-22.39-6.37,25.84c-3.89,13.32-17.36,13.59-17.36,13.59-7.72.59-14.42-2.53-15.13-9.39-1.49-14.47,14-23.44,27.65-17.91.84-4.15,2.35-8,3.17-12.13Zm-28.42,21c-1.62,2.48-2.79,7.28-1,10.43s8.13,3.34,11.13,1c3.25-2.47,4.34-9.79,5.56-14.26-5.14-4.5-12.77-1.63-15.64,2.79m-27-21S91,48.74,88.17,60.2L87,64.67c-.53,2.08.86,2.15.86,2.15H95.7L93.79,74H85.17s-4.17.21-6.08-1.82-1.45-4.48-1.3-5.69c.1-1,3.82-15,3.82-15l4.76-17Z" transform="translate(-77.63 -20.57)"/></g><g id="g7002"><path id="path7004" class="cls-2" d="M282.13,72.59c0-.36,0-.78,0-1.15h0c-.09.33-.2.71-.32,1l-.4,1.18H281l-.37-1.17c-.1-.35-.2-.72-.28-1.06h0c0,.35,0,.79-.05,1.16l-.06,1.1h-.47l.18-2.73h.66l.36,1.09c.1.33.18.65.25,1h0c.08-.3.17-.64.27-1l.38-1.09h.65l.15,2.73h-.48Zm-4.43.57a1.43,1.43,0,0,0,.66.17c.32,0,.5-.14.5-.37s-.13-.33-.48-.46-.74-.4-.74-.79.37-.78,1-.78a1.5,1.5,0,0,1,.66.13l-.12.4a1.18,1.18,0,0,0-.55-.13c-.31,0-.45.17-.45.33s.16.31.52.45.71.42.71.82-.33.81-1,.81a1.66,1.66,0,0,1-.75-.17ZM236.36,59.68c.79,1.36.73,2.89-.1,3.58L221.8,73.39c-1.5.87-3.75-.19-5-2.4s-1.06-4.69.44-5.57l16-7.44c1-.37,2.37.34,3.15,1.7Zm19,0c.79-1.37,2.15-2.08,3.15-1.69l16,7.44c1.51.87,1.72,3.34.45,5.57s-3.54,3.25-5,2.39L255.5,63.25c-.84-.68-.89-2.21-.11-3.58Zm-9.51,5.49c1.58,0,2.87.82,3,1.87l1.56,17.59c0,1.75-2,3.17-4.6,3.17s-4.6-1.42-4.6-3.17L242.84,67c.17-1.05,1.46-1.87,3-1.87Zm9.51-16.48c.79,1.36,2.15,2.07,3.15,1.7l16-7.46c1.51-.86,1.72-3.34.45-5.55s-3.54-3.27-5-2.4L255.5,45.12c-.84.68-.89,2.22-.11,3.58Zm-19,0c.79-1.37.73-2.9-.1-3.58L221.8,35c-1.5-.88-3.75.17-5,2.38s-1.06,4.7.44,5.56l16,7.46c1,.37,2.37-.34,3.15-1.7Zm9.51-5.5c1.58,0,2.87-.81,3-1.87l1.56-17.59c0-1.74-2-3.17-4.6-3.17s-4.6,1.43-4.6,3.17l1.56,17.59c.17,1.06,1.46,1.87,3,1.87Z" transform="translate(-77.63 -20.57)"/></g></g></g></svg>