<svg id="LinkAja" xmlns="http://www.w3.org/2000/svg" xmlns:xlink="http://www.w3.org/1999/xlink" viewBox="0 0 66.86 66.63"><defs><style>.cls-1{fill:#fff;}.cls-1,.cls-3,.cls-4{fill-rule:evenodd;}.cls-2{mask:url(#mask);}.cls-3{fill:#e72529;}.cls-4{fill:#fefefe;}</style><mask id="mask" x="0" y="0" width="66.86" height="66.63" maskUnits="userSpaceOnUse"><g transform="translate(-154.99 -21.37)"><g id="mask-2"><polygon id="path-1" class="cls-1" points="154.99 21.37 221.85 21.37 221.85 88 154.99 88 154.99 21.37"/></g></g></mask></defs><g id="Coming-Soon"><g id="Coming-Soon-LinkAja"><g id="Group-26"><g id="Group-30"><g id="Group-3"><g class="cls-2"><path id="Fill-1" class="cls-3" d="M215.57,88h-54.3A6.29,6.29,0,0,1,155,81.74V27.63a6.29,6.29,0,0,1,6.28-6.26h54.3a6.29,6.29,0,0,1,6.28,6.26V81.74A6.29,6.29,0,0,1,215.57,88" transform="translate(-154.99 -21.37)"/></g></g><path id="Fill-4" class="cls-4" d="M169.42,33.92h3.16a.4.4,0,0,1,.4.45l-1.47,10.17a.64.64,0,0,0,.64.74h5.56a.25.25,0,0,1,.25.29l-.43,2.93a.3.3,0,0,1-.3.26h-6.29c-1.87,0-3.66-1.53-3.4-3.37L169,34.26a.4.4,0,0,1,.4-.34" transform="translate(-154.99 -21.37)"/><path id="Fill-6" class="cls-4" d="M180,38l-1.45,10.38a.27.27,0,0,0,.27.31h3.07a.44.44,0,0,0,.43-.38l1.44-10.2a.39.39,0,0,0-.4-.44h-3A.39.39,0,0,0,180,38" transform="translate(-154.99 -21.37)"/><path id="Fill-8" class="cls-4" d="M186.3,47.86a3,3,0,0,0-1.94.6c.13-.94,1.19-8.23,1.28-8.67a3.42,3.42,0,0,1,.62-1.68c.49-.47,1.26-.74,5.06-.75s4.63,2.77,4.42,4.58c-.17,1.54-.75,5.37-.91,6.44a.34.34,0,0,1-.33.28h-3a.37.37,0,0,1-.36-.41c.16-1.07.56-3.92.7-4.75a5,5,0,0,0,0-2.59c-.27-.44-1.09-.78-2.67-.51L188,48.61a3,3,0,0,0-1.74-.75" transform="translate(-154.99 -21.37)"/><path id="Fill-10" class="cls-4" d="M199,33.33h3.33a.2.2,0,0,1,.2.23l-2.07,14.93a.23.23,0,0,1-.22.2H197a.23.23,0,0,1-.23-.26l2.07-14.93a.2.2,0,0,1,.2-.17" transform="translate(-154.99 -21.37)"/><path id="Fill-12" class="cls-4" d="M201.57,42.33l3.75-4.39a.64.64,0,0,1,.48-.22h3.3a.27.27,0,0,1,.2.46l-3.84,4.25L209,50a.41.41,0,0,1-.38.59h-3a.4.4,0,0,1-.36-.23Z" transform="translate(-154.99 -21.37)"/><path id="Fill-14" class="cls-4" d="M184.38,34.83a2.54,2.54,0,0,1-2.36,2,1.63,1.63,0,0,1-1.62-2,2.5,2.5,0,0,1,2.42-2,1.65,1.65,0,0,1,1.56,2.12" transform="translate(-154.99 -21.37)"/><path id="Fill-16" class="cls-4" d="M187.76,51.3a2.54,2.54,0,0,1-2.36,2,1.62,1.62,0,0,1-1.62-2,2.51,2.51,0,0,1,2.42-2,1.65,1.65,0,0,1,1.56,2.12" transform="translate(-154.99 -21.37)"/><path id="Fill-18" class="cls-4" d="M203.84,64.81a2.48,2.48,0,0,1-2.38,1.94,1.73,1.73,0,0,1-1.81-2,2.43,2.43,0,0,1,2.45-2,1.74,1.74,0,0,1,1.74,2.1" transform="translate(-154.99 -21.37)"/><path id="Fill-20" class="cls-4" d="M175.54,59.24h-2a.1.1,0,0,1-.1-.14l1.75-4.43a.09.09,0,0,1,.17,0l.39,4.34a.2.2,0,0,1-.2.21m4.88,5.57-2.25-13.4a1.21,1.21,0,0,0-1.2-1h-2.26a1.75,1.75,0,0,0-1.59,1l-6.05,13.41a.29.29,0,0,0,.27.41l3.14,0a.53.53,0,0,0,.49-.33L172,62.44a.19.19,0,0,1,.16-.11H176a.18.18,0,0,1,.18.17l.23,2.31a.52.52,0,0,0,.52.48H180a.42.42,0,0,0,.41-.48" transform="translate(-154.99 -21.37)"/><path id="Fill-22" class="cls-4" d="M178.92,67.24l.72,2.23c.13.37.23.45.49.4a7.61,7.61,0,0,0,4.21-2.31c1.42-1.91,1.61-5.28,1.86-7,.21-1.41.66-4.88.81-6.06a.36.36,0,0,0-.35-.4h-2.82a.51.51,0,0,0-.5.43c-.22,1.67-1,7.66-1.18,8.49s-.2,2.36-1.64,3.19a9.51,9.51,0,0,1-1.37.63c-.14.06-.3.14-.23.39" transform="translate(-154.99 -21.37)"/><path id="Fill-24" class="cls-4" d="M194.43,62.07s-1.47.5-2.18,0-.76-1.62-.35-3.17A2.14,2.14,0,0,1,193.78,57a5.83,5.83,0,0,1,1.27.17Zm4.07-7.56a14,14,0,0,0-5.12-.57c-2.37.17-5,1.27-5.55,5.93s1.64,5.56,4.71,5.69a11.29,11.29,0,0,0,4.81-.85.85.85,0,0,0,.5-.67l1.14-9C199,54.71,198.85,54.6,198.5,54.51Z" transform="translate(-154.99 -21.37)"/><path id="Fill-26" class="cls-4" d="M200.69,61.22l.83-8.59c0-.31.29-.44.6-.44H205c.26,0,.38.2.3.53l-1.74,8.61a.35.35,0,0,1-.35.29h-2.13a.37.37,0,0,1-.36-.4" transform="translate(-154.99 -21.37)"/><path id="Fill-28" class="cls-4" d="M167.3,77.07a2.64,2.64,0,0,0,1.85.26,169.7,169.7,0,0,1,19.76-3.87,197.62,197.62,0,0,1,25.58-2.11l0,0s-9.63-1.32-25.44.22-24.63,4-24.63,4Z" transform="translate(-154.99 -21.37)"/></g></g></g></g></svg>