<svg id="Mach" xmlns="http://www.w3.org/2000/svg" xmlns:xlink="http://www.w3.org/1999/xlink" viewBox="0 0 259.83 58.17"><defs><style>.cls-1{fill-rule:evenodd;fill:url(#linear-gradient);}</style><linearGradient id="linear-gradient" x1="-19.92" y1="69.88" x2="89.62" y2="-39.65" gradientTransform="matrix(2.29, 0, 0, -0.51, 99.59, 63.96)" gradientUnits="userSpaceOnUse"><stop offset="0" stop-color="#680a80"/><stop offset="1" stop-color="#527eb9"/></linearGradient></defs><g id="Symbols"><g id="Logo"><path id="Combined-Shape" class="cls-1" d="M95.3,26.46a4.89,4.89,0,0,1,1.75-.33,5,5,0,0,1,1.26.16A4.68,4.68,0,0,1,100.85,28a4.55,4.55,0,0,1,1,2.87V79.4a4.82,4.82,0,0,1-4.75,4.76,4.6,4.6,0,0,1-3.38-1.41,4.52,4.52,0,0,1-1.41-3.35V48L77,73.27a4.11,4.11,0,0,1-1.89,1.58,4.64,4.64,0,0,1-3.86,0,4.09,4.09,0,0,1-1.89-1.57C69.29,73.15,54.08,48,54.08,48V79.4a4.51,4.51,0,0,1-1.4,3.35,4.62,4.62,0,0,1-3.38,1.41,4.82,4.82,0,0,1-4.76-4.76V30.9a4.61,4.61,0,0,1,1-2.87,4.68,4.68,0,0,1,2.54-1.74,5,5,0,0,1,1.26-.16,4.85,4.85,0,0,1,1.75.33,4.73,4.73,0,0,1,2.34,2L73.18,61.2,93,28.44A4.81,4.81,0,0,1,95.3,26.46Zm46.17,2.4a4.32,4.32,0,0,1,4.32-2.73,4.6,4.6,0,0,1,4.33,2.73L173,77.36a4.81,4.81,0,0,1-2.25,6.39,4.56,4.56,0,0,1-3.64.19,4.66,4.66,0,0,1-2.72-2.45L145.8,42.1,127.22,81.49a4.77,4.77,0,0,1-8.61-4.13Zm54.26,5.78a28.87,28.87,0,0,1,40-.94,4.83,4.83,0,0,1,.28,6.8,4.53,4.53,0,0,1-3.32,1.59,4.63,4.63,0,0,1-3.44-1.27,19.35,19.35,0,0,0-32.34,14.37A18.8,18.8,0,0,0,202.53,69a19.26,19.26,0,0,0,26.68.65,4.66,4.66,0,0,1,3.44-1.26A4.49,4.49,0,0,1,236,69.93a4.83,4.83,0,0,1-.28,6.8,28.87,28.87,0,0,1-40-.94,28.18,28.18,0,0,1-8.46-20.56A28.2,28.2,0,0,1,195.73,34.64Zm100.6-7.12a4.68,4.68,0,0,1,6.66,0,4.63,4.63,0,0,1,1.39,3.36V79.55A4.58,4.58,0,0,1,303,82.9a4.72,4.72,0,0,1-8.05-3.35V60.44H265.8V79.55a4.65,4.65,0,0,1-1.34,3.35,4.72,4.72,0,0,1-8-3.35V30.88a4.59,4.59,0,0,1,1.39-3.36,4.68,4.68,0,0,1,6.66,0,4.71,4.71,0,0,1,1.34,3.36V51h29.14V30.88a4.59,4.59,0,0,1,1.39-3.36Z" transform="translate(-44.54 -26.13)"/></g></g></svg>