<svg id="Mada" xmlns="http://www.w3.org/2000/svg" viewBox="0 0 196.24 65.44"><defs><style>.cls-1{fill:#84b640;}.cls-2{fill:#2999c4;}.cls-3{fill:#27292d;}</style></defs><rect class="cls-1" y="37.73" width="83.01" height="27.65"/><rect class="cls-2" width="83.01" height="27.68"/><path class="cls-3" d="M246.7,81.89l-.37.08a12.44,12.44,0,0,1-2.68.34c-2.17,0-4.74-1.11-4.74-6.33,0-2.69.45-6.26,4.49-6.26h0a12.22,12.22,0,0,1,2.95.56l.32.1V81.89Zm.67-26-.67.12v9.66l-.59-.17-.17,0a13.9,13.9,0,0,0-3.67-.64c-8.09,0-9.79,6.11-9.79,11.24,0,7,4,11.07,10.82,11.07a22,22,0,0,0,7.22-1c2-.64,2.71-1.56,2.71-3.5V54.83c-1.92.34-3.91.69-5.86,1" transform="translate(-80.68 -22.12)"/><path class="cls-3" d="M270.73,82.06l-.34.1-1.23.32a12.69,12.69,0,0,1-3,.47c-1.89,0-3-.94-3-2.54,0-1,.47-2.78,3.58-2.78h4ZM267.9,64.64a27.14,27.14,0,0,0-8.23,1.43l-2.07.61.69,4.69,2-.67A23.72,23.72,0,0,1,267,69.57c.88,0,3.59,0,3.59,2.93v1.28h-3.77c-6.87,0-10.05,2.2-10.05,6.9,0,4,2.93,6.44,7.86,6.44a25.59,25.59,0,0,0,5.47-.74l.1,0,.1,0,.62.1c1.92.34,3.91.69,5.86,1.06V72.16c0-5-3-7.52-8.92-7.52" transform="translate(-80.68 -22.12)"/><path class="cls-3" d="M222.85,82.06l-.35.1-1.23.32a12.47,12.47,0,0,1-3,.47c-1.9,0-3-.94-3-2.54,0-1,.47-2.78,3.55-2.78h4l0,4.43ZM220,64.64a27,27,0,0,0-8.24,1.43l-2.07.61.69,4.69,2-.67a23.78,23.78,0,0,1,6.73-1.13c.89,0,3.6,0,3.6,2.93v1.28H219c-6.88,0-10.08,2.2-10.08,6.9,0,4,2.93,6.44,7.89,6.44a25.76,25.76,0,0,0,5.47-.74l.1,0,.1,0,.59.1c1.94.34,3.92.69,5.86,1.08V72.18c0-5-3-7.54-8.89-7.54" transform="translate(-80.68 -22.12)"/><path class="cls-3" d="M196.89,64.69a16.52,16.52,0,0,0-6.68,1.48l-.24.12-.23-.17c-1.33-1-3.27-1.46-6-1.46a24.66,24.66,0,0,0-7.08,1.06c-2.09.64-2.91,1.65-2.91,3.55V86.85h6.56V70.6l.32-.1a8.38,8.38,0,0,1,2.88-.51c1.9,0,2.86,1,2.86,3v13.9h6.46V72.7a4.54,4.54,0,0,0-.2-1.43l-.22-.42.44-.2a7.88,7.88,0,0,1,3.21-.66c1.31,0,2.86.51,2.86,3v13.9h6.43V72.33c0-5.15-2.76-7.64-8.48-7.64" transform="translate(-80.68 -22.12)"/><path class="cls-3" d="M265.9,40.16a22,22,0,0,1-3.82-.34l-.37-.07V30.26a5,5,0,0,0-.17-1.36l-.2-.39.42-.18.32-.12.08-.05.44-.15a.77.77,0,0,1,.17-.05,15.62,15.62,0,0,1,3.38-.39h0c4,0,4.49,3.57,4.49,6.26,0,5.23-2.61,6.33-4.76,6.33m0-18h-.17c-3.78,0-7.64,1-9,3.06a6.28,6.28,0,0,0-1.18,3.67h0v9.79a2.77,2.77,0,0,1-.2,1.23l-.22.42h-11.9v-6.8h0c-.14-7.18-4.38-11.12-10.52-11.12h-6c-.25,1.75-.44,3-.69,4.73h6c3.13,0,4.78,2.66,4.78,6.76v6.85l-.42-.22a4.35,4.35,0,0,0-1.41-.2h-10.3c-.2,1.3-.44,3-.71,4.71h31.67c1.08-.23,2.34-.42,3.42-.6a17.83,17.83,0,0,0,6.63,1.21c6.88,0,11.34-4.61,11.34-11.71s-4.34-11.63-11-11.78" transform="translate(-80.68 -22.12)"/><path class="cls-3" d="M210.35,47.88h.3c6.87,0,10.08-2.27,10.08-7.86,0-4-2.94-7.22-7.87-7.22h-6.33a2.73,2.73,0,0,1-3-2.91c0-1.24.47-2.76,3.57-2.76h13.85c.3-1.8.45-2.94.72-4.74h-14.4c-6.7,0-10.08,2.81-10.08,7.5s2.94,7,7.87,7h6.33a3,3,0,0,1,3,3.08c0,1-.47,3.18-3.55,3.18h-1.06l-20.28-.05h-3.7c-3.13,0-5.32-1.78-5.32-5.89V34.42c0-4.29,1.7-7,5.32-7h6c.27-1.82.44-3,.69-4.71H184.3c-6.14,0-10.38,4.12-10.53,11.29h0v3.21c.15,7.17,4.39,10.59,10.53,10.59h6l11,0h9.07Z" transform="translate(-80.68 -22.12)"/></svg>