<svg id="Maestro" xmlns="http://www.w3.org/2000/svg" viewBox="0 0 84.44 65.53"><defs><style>.cls-1{fill:#614ba1;}.cls-2{fill:#dd0a01;}.cls-3{fill:#4588bd;}.cls-4{fill:#0d0a0a;}</style></defs><rect class="cls-1" x="30.8" y="5.58" width="22.83" height="41.03"/><path class="cls-2" d="M176.36,47.3a26,26,0,0,1,10-20.51,26.1,26.1,0,1,0,0,41,26,26,0,0,1-10-20.52" transform="translate(-144.1 -21.21)"/><path class="cls-3" d="M228.55,47.3a26.1,26.1,0,0,1-42.23,20.52,26.09,26.09,0,0,0,0-41A26.1,26.1,0,0,1,228.55,47.3" transform="translate(-144.1 -21.21)"/><path class="cls-4" d="M205.46,79.42a3.33,3.33,0,0,1,1.08.19L206.07,81a2.25,2.25,0,0,0-.94-.18c-1,0-1.48.64-1.48,1.79v3.88h-1.51V79.59h1.5v.84a2,2,0,0,1,1.82-1M199.89,81h-2.46V84.1c0,.69.24,1.15,1,1.15a2.83,2.83,0,0,0,1.34-.38l.43,1.29a3.57,3.57,0,0,1-1.89.53c-1.78,0-2.4-1-2.4-2.56V81H194.5V79.59h1.41v-2.1h1.52v2.1h2.46ZM180.6,82.45a1.78,1.78,0,0,1,1.84-1.68,1.72,1.72,0,0,1,1.76,1.68Zm5.16.61c0-2.17-1.35-3.64-3.29-3.64A3.38,3.38,0,0,0,179,83.06a3.42,3.42,0,0,0,3.55,3.63,4.2,4.2,0,0,0,2.84-1l-.74-1.11a3.32,3.32,0,0,1-2,.72,1.92,1.92,0,0,1-2.07-1.69h5.14c0-.2,0-.38,0-.58m6.63-1.7a4.38,4.38,0,0,0-2.16-.59c-.83,0-1.33.3-1.33.81s.53.59,1.18.68l.71.1c1.51.22,2.42.85,2.42,2.07s-1.16,2.26-3.16,2.26a5.06,5.06,0,0,1-3-.89l.71-1.18a3.71,3.71,0,0,0,2.31.73c1,0,1.58-.31,1.58-.85,0-.39-.4-.61-1.22-.72l-.71-.1c-1.55-.22-2.4-.92-2.4-2.05,0-1.37,1.14-2.21,2.89-2.21a5.14,5.14,0,0,1,2.82.72ZM211,80.85a2.39,2.39,0,0,0-.86.16,2.09,2.09,0,0,0-.69.46,2.24,2.24,0,0,0-.46.7,2.46,2.46,0,0,0-.17.91,2.37,2.37,0,0,0,.17.9,2.18,2.18,0,0,0,.46.71,2.09,2.09,0,0,0,.69.46,2.39,2.39,0,0,0,.86.16,2.49,2.49,0,0,0,.87-.16,2.19,2.19,0,0,0,.69-.46A1.9,1.9,0,0,0,213,84a2.19,2.19,0,0,0,.17-.9,2.27,2.27,0,0,0-.17-.91,1.94,1.94,0,0,0-.46-.7,2.19,2.19,0,0,0-.69-.46,2.49,2.49,0,0,0-.87-.16m0-1.43a3.89,3.89,0,0,1,1.5.28,3.31,3.31,0,0,1,1.18.77,3.42,3.42,0,0,1,.79,1.15,3.72,3.72,0,0,1,.28,1.46,3.64,3.64,0,0,1-.28,1.45,3.37,3.37,0,0,1-.79,1.16,3.45,3.45,0,0,1-1.18.77,4.13,4.13,0,0,1-3,0,3.55,3.55,0,0,1-1.18-.77,3.51,3.51,0,0,1-.79-1.16,3.82,3.82,0,0,1-.27-1.45,3.91,3.91,0,0,1,.27-1.46,3.57,3.57,0,0,1,.79-1.15,3.4,3.4,0,0,1,1.18-.77,3.87,3.87,0,0,1,1.49-.28m-39.18,3.64a2.1,2.1,0,1,1,2.1,2.21,2.07,2.07,0,0,1-2.1-2.21m5.61,0V79.59h-1.5v.84a2.67,2.67,0,0,0-2.2-1,3.64,3.64,0,0,0,0,7.27,2.67,2.67,0,0,0,2.2-1v.84h1.5Zm-8.49,3.46V82.17a2.57,2.57,0,0,0-2.72-2.75,2.68,2.68,0,0,0-2.44,1.23,2.54,2.54,0,0,0-2.29-1.23,2.3,2.3,0,0,0-2,1v-.85h-1.51v6.93h1.53V82.68a1.62,1.62,0,0,1,1.69-1.84c1,0,1.51.65,1.51,1.82v3.86h1.52V82.68a1.64,1.64,0,0,1,1.69-1.84c1,0,1.53.65,1.53,1.82v3.86Z" transform="translate(-144.1 -21.21)"/></svg>