<svg id="Magna" xmlns="http://www.w3.org/2000/svg" viewBox="0 0 106.2 66.02"><defs><style>.cls-1{fill:#999;}.cls-1,.cls-2,.cls-3{fill-rule:evenodd;}.cls-2{fill:#13017c;}.cls-3,.cls-4{fill:#fff;}</style></defs><polygon class="cls-1" points="0 0 106.2 0 106.2 66.02 0 66.02 0 0 0 0"/><polygon class="cls-2" points="5.45 40.4 16.66 22.7 100.75 22.7 89.06 40.4 5.45 40.4 5.45 40.4"/><polygon class="cls-3" points="8.8 38.98 17.98 24.56 20.94 24.56 20.94 33.77 26.95 24.56 29.91 24.56 29.91 38.98 26.95 38.98 26.95 28.81 20.94 38.98 17.98 38.98 17.98 28.77 11.77 38.98 8.8 38.98 8.8 38.98"/><path class="cls-3" d="M157.78,60.94l6.09-14.42H166l6.12,14.42H169l-1.48-3.68h-5l-1.48,3.68Zm5.8-6.33h2.88L165,50.71l-1.4,3.9Z" transform="translate(-127.05 -21.96)"/><path class="cls-3" d="M177.27,53.49c.09.91.19,1.82.28,2.72h5.57c-1.87,3.94-8.84,2.47-8.81-2.38s6.33-6.38,8.53-2.68h3.36c-.77-2.58-3-4.73-7.11-4.72-4.52,0-7.56,3.15-7.56,7.06a7.58,7.58,0,0,0,7.74,7.68,7.5,7.5,0,0,0,7.49-7.68Z" transform="translate(-127.05 -21.96)"/><polygon class="cls-3" points="60.74 38.98 63.63 38.98 63.63 29.19 69.63 38.98 72.52 38.98 72.52 24.56 69.63 24.56 69.63 34.75 63.63 24.56 60.74 24.56 60.74 38.98 60.74 38.98"/><path class="cls-3" d="M205.3,57.26h4.81l1.56,3.68h3.12L209,46.52h-2.05l-6.36,14.42h3l1.68-3.68Zm2.57-6.51a38.84,38.84,0,0,1-1.53,3.86h2.93l-1.4-3.86Z" transform="translate(-127.05 -21.96)"/><polygon class="cls-2" points="30.43 0 17.38 21.21 101.71 21.21 106.2 13.93 106.2 13.13 101.47 20.69 18.42 20.69 31.03 0 30.43 0 30.43 0"/><path class="cls-3" d="M220.16,46.52a2,2,0,1,1-2,2,2,2,0,0,1,2-2Zm0,.37a1.62,1.62,0,1,1-1.61,1.62,1.62,1.62,0,0,1,1.61-1.62Z" transform="translate(-127.05 -21.96)"/><path class="cls-4" d="M219.42,49.47V47.54h.85a1.3,1.3,0,0,1,.4.05.41.41,0,0,1,.21.18.52.52,0,0,1,.08.3.47.47,0,0,1-.13.34.63.63,0,0,1-.41.18.76.76,0,0,1,.15.1,1.16,1.16,0,0,1,.22.26l.33.52h-.32l-.26-.4-.18-.27a.46.46,0,0,0-.13-.12l-.12-.06h-.44v.86Zm.25-1.08h.55a1,1,0,0,0,.28,0,.44.44,0,0,0,.15-.12.34.34,0,0,0,0-.17.28.28,0,0,0-.1-.23.47.47,0,0,0-.32-.09h-.61v.64Z" transform="translate(-127.05 -21.96)"/></svg>