<svg id="Layer_224" data-name="Layer 224" xmlns="http://www.w3.org/2000/svg" viewBox="0 0 268.33 46.74"><path d="M313.28,49.36a11.63,11.63,0,0,0-6.34-1.62c-3.93,0-6.47,1.88-6.47,5,0,2.54,1.89,4.1,5.37,4.59l1.59.22c1.85.26,2.73.75,2.73,1.63,0,1.2-1.24,1.89-3.54,1.89a8.25,8.25,0,0,1-5.17-1.63L299.85,62a11.19,11.19,0,0,0,6.73,2c4.49,0,7.09-2.11,7.09-5.07,0-2.73-2.05-4.16-5.43-4.65l-1.59-.23c-1.47-.2-2.64-.49-2.64-1.53s1.11-1.82,3-1.82a10.07,10.07,0,0,1,4.85,1.33l1.46-2.73Zm-16.22,0a11.63,11.63,0,0,0-6.34-1.62c-3.93,0-6.47,1.88-6.47,5,0,2.54,1.88,4.1,5.36,4.59l1.6.22c1.85.26,2.73.75,2.73,1.63,0,1.2-1.24,1.89-3.55,1.89a8.27,8.27,0,0,1-5.17-1.63L283.63,62a11.19,11.19,0,0,0,6.73,2c4.49,0,7.09-2.11,7.09-5.07,0-2.73-2.05-4.16-5.43-4.65l-1.59-.23c-1.46-.2-2.63-.49-2.63-1.53s1.1-1.82,3-1.82a10.06,10.06,0,0,1,4.84,1.33l1.46-2.73Zm-38.72,6.47a4.71,4.71,0,1,1-9.4,0,4.71,4.71,0,1,1,9.4,0Zm-12.58,0v13.4h3.38V61.72A5.9,5.9,0,0,0,254.05,64a7.79,7.79,0,0,0,7.77-8.16,7.79,7.79,0,0,0-7.77-8.16A5.88,5.88,0,0,0,249.14,50V48.06h-3.38Zm22,0a4.7,4.7,0,1,1,9.39,0,4.7,4.7,0,1,1-9.39,0Zm12.58,0V48.09H277V50a5.87,5.87,0,0,0-4.9-2.27c-4.36,0-7.77,3.41-7.77,8.16S267.7,64,272.06,64a5.87,5.87,0,0,0,4.9-2.28v1.89h3.39V55.87Zm-112.72,0a4.7,4.7,0,1,1,9.39,0,4.7,4.7,0,1,1-9.39,0Zm12.58,0V48.09h-3.38V50a5.89,5.89,0,0,0-4.91-2.27c-4.36,0-7.77,3.41-7.77,8.16S167.56,64,171.92,64a5.91,5.91,0,0,0,4.91-2.28v1.89h3.38V55.87Zm41.94-5.14c2.18,0,3.58,1.37,3.94,3.77H218C218.38,52.26,219.75,50.73,222.15,50.73Zm.07-3c-4.56,0-7.74,3.31-7.74,8.16s3.31,8.16,8,8.16a9.45,9.45,0,0,0,6.37-2.18l-1.65-2.51A7.41,7.41,0,0,1,222.64,61a4.31,4.31,0,0,1-4.65-3.8h11.54l.06-1.3c0-4.85-3-8.16-7.38-8.16Zm-25.3,1.62a11.63,11.63,0,0,0-6.34-1.62c-3.93,0-6.47,1.88-6.47,5,0,2.54,1.89,4.1,5.37,4.58l1.59.23c1.85.26,2.73.75,2.73,1.63,0,1.2-1.24,1.88-3.54,1.88a8.3,8.3,0,0,1-5.18-1.62L183.49,62a11.19,11.19,0,0,0,6.73,2c4.49,0,7.09-2.12,7.09-5.07,0-2.74-2.05-4.17-5.43-4.65l-1.59-.23c-1.47-.2-2.64-.49-2.64-1.53s1.11-1.82,3-1.82a10.07,10.07,0,0,1,4.85,1.33l1.46-2.73Zm43.6-1.62a4.6,4.6,0,0,0-4.1,2.27V48.09h-3.34V63.64h3.38V54.92c0-2.57,1.1-4,3.32-4a5.57,5.57,0,0,1,2.11.39l1-3.18a7.1,7.1,0,0,0-2.41-.43Zm-28.84.39h-5.53V43.38h-3.41V48.1h-3.15v3.09h3.15v7.08c0,3.61,1.4,5.76,5.4,5.76a7.9,7.9,0,0,0,4.22-1.21l-1-2.89a6.33,6.33,0,0,1-3,.88c-1.69,0-2.25-1-2.25-2.6v-7h5.53V48.09ZM161.16,63.64V53.88a5.78,5.78,0,0,0-6.11-6.17,6,6,0,0,0-5.47,2.76,5.7,5.7,0,0,0-5.13-2.76A5.14,5.14,0,0,0,139.9,50V48.1h-3.38V63.64h3.41V55c0-2.7,1.5-4.12,3.8-4.12s3.38,1.46,3.38,4.09v8.65h3.42V55c0-2.7,1.56-4.12,3.8-4.12s3.42,1.46,3.42,4.09v8.65Z" transform="translate(-45.34 -32.45)"/><path d="M72.93,74.19H93.37V37.45H72.93Z" transform="translate(-45.34 -32.45)" style="fill:#f85f10"/><path d="M74.23,55.82a23.35,23.35,0,0,1,8.92-18.38,23.38,23.38,0,1,0,0,36.75,23.34,23.34,0,0,1-8.92-18.37" transform="translate(-45.34 -32.45)" style="fill:#ea131a"/><path d="M121,55.82A23.37,23.37,0,0,1,83.15,74.19a23.37,23.37,0,0,0,0-36.75A23.37,23.37,0,0,1,121,55.82" transform="translate(-45.34 -32.45)" style="fill:#f49e1c"/></svg>