<svg id="Maybank" xmlns="http://www.w3.org/2000/svg" viewBox="0 0 263.28 62.97"><defs><style>.cls-1{fill:#fcb808;}.cls-2{fill:none;}</style></defs><rect class="cls-1" width="263.28" height="62.97"/><polygon points="85.83 45.89 93.01 26.27 95.36 45.89 102.95 45.89 98.84 17.08 89.58 17.08 83.44 34.39 77.31 17.08 68.04 17.08 63.93 45.89 71.52 45.89 73.87 26.27 81.06 45.89 85.83 45.89"/><polygon points="125.73 24.47 135.49 45.89 131.63 54.29 140.03 54.29 153.45 24.47 144.78 24.47 139.63 39.45 134.41 24.47 125.73 24.47"/><polygon points="254.79 45.87 245.91 34.41 254 24.47 244.97 24.47 237.78 33.82 237.78 14.71 229.92 14.71 229.92 45.87 237.78 45.87 237.78 35.02 245.85 45.87 254.79 45.87"/><path class="cls-2" d="M212.13,53.21V64.48c1.44.39,7.37,1.54,7.37-5.92S213.72,52.68,212.13,53.21Z" transform="translate(-49.41 -23.56)"/><path d="M204.13,68.35a31.39,31.39,0,0,0,10,1.55c5.83,0,13.42-1.81,13.42-11.84s-10.08-10.39-11.25-10.39a9.18,9.18,0,0,0-4.16.87V38.22h-8Zm8-3.87V53.21c1.59-.53,7.37-2,7.37,5.35S213.57,64.87,212.13,64.48Z" transform="translate(-49.41 -23.56)"/><path class="cls-2" d="M243.31,59.55c-1.6,0-7.45.22-7.45,3.3,0,2.86,5.78,2.38,7.45,2.19Z" transform="translate(-49.41 -23.56)"/><path d="M231.83,53.45c11.48-3.39,11.48.68,11.48,1.22v.73c-9.29.07-14.82,2.73-14.82,7.54s5.15,7,12,7,10.31-1.58,10.31-1.58V55c0-4.7-3-7.68-10.31-7.68S230,49.07,230,49.07Zm4,9.4c0-3.08,5.85-3.3,7.45-3.3V65C241.64,65.23,235.86,65.71,235.86,62.85Z" transform="translate(-49.41 -23.56)"/><path class="cls-2" d="M168.2,59.55c-1.6,0-7.45.22-7.45,3.3,0,2.86,5.78,2.38,7.45,2.19Z" transform="translate(-49.41 -23.56)"/><path d="M156.73,53.45c11.47-3.39,11.47.68,11.47,1.22v.73c-9.28.07-14.82,2.73-14.82,7.54s5.15,7,12,7,10.3-1.58,10.3-1.58V55c0-4.7-3-7.68-10.3-7.68s-10.44,1.72-10.44,1.72Zm4,9.4c0-3.08,5.85-3.3,7.45-3.3V65C166.53,65.23,160.75,65.71,160.75,62.85Z" transform="translate(-49.41 -23.56)"/><path d="M268.44,69.4h7.91V55.85c0-7.05-5.06-8.54-11.3-8.54A38.66,38.66,0,0,0,253.8,49V69.4h7.9V53.19c6.09-1.77,6.74,1.15,6.74,2.57Z" transform="translate(-49.41 -23.56)"/><circle class="cls-1" cx="32.49" cy="31.48" r="22"/><path d="M81.9,33.05a22,22,0,1,1-22,22,22,22,0,0,1,22-22m0-2a24,24,0,1,0,24,24,24,24,0,0,0-24-24Z" transform="translate(-49.41 -23.56)"/><path class="cls-2" d="M65.44,54.67c.09-.16.79-.59.75-.72s-.39-.23-.7-.14-1.36.59-1.2.86,1.08,1.65,1.6,1.65.39-.54.21-.77S65.35,54.83,65.44,54.67Z" transform="translate(-49.41 -23.56)"/><path class="cls-2" d="M77,46.85c.45-.56.65-.79.75-.76s-.81-.05-1.16,0a.54.54,0,0,1,.18.4.53.53,0,0,1-.53.53l-.13,0v0A.56.56,0,0,0,77,46.85Z" transform="translate(-49.41 -23.56)"/><path class="cls-2" d="M71.29,60a2.57,2.57,0,0,0-.74.42,3.62,3.62,0,0,1-.41.27A3.94,3.94,0,0,0,71.38,62,7.93,7.93,0,0,1,71.29,60Z" transform="translate(-49.41 -23.56)"/><path class="cls-2" d="M79.16,60.82c0-.43-1.36-.57-1.36-.57a8.89,8.89,0,0,1,.34,1.43c0,.18-1.11.13-1.11.13A4.11,4.11,0,0,1,76.78,63C78.41,62.33,79.18,61.25,79.16,60.82Z" transform="translate(-49.41 -23.56)"/><path class="cls-2" d="M73.07,64.16s.27,1.12.58,1.22.34-.44.76-.84A2.68,2.68,0,0,1,73.07,64.16Z" transform="translate(-49.41 -23.56)"/><path d="M71.56,46.64A6.58,6.58,0,0,1,72.89,44a26.58,26.58,0,0,1,8-4A2.06,2.06,0,0,1,82,40c0,.16,0,.28,0,.32a1,1,0,0,1-.29.52,1.43,1.43,0,0,0,1.58-1.2c.16-.7.7-3.48,1.58-3.44,2.47.12,4.23,8.07,4,8.43s-1.09.05-1.09.05c1.54,2.42,3.55,2.39,4,2s.21-1.63.21-1.63c4.83,2.87,4.56,6.28,4.56,6.28,1.45-5.64-1.9-8.06-1.9-8.06a6,6,0,0,1,2.74.79c-2-2.74-6.24-4.25-6.24-4.25s-4.9-5.45-6.49-5.24c-1.31.17-2.05,2.57-2.42,4.22a4.67,4.67,0,0,0-1,0c-.35-.43-1.82-2.17-2.39-1.6a7.94,7.94,0,0,0-.31,2.45c-2.38.95-6.42,2.72-7.24,4a6.73,6.73,0,0,0-.91,2.06s-4.85,3.12-6,6.51A25.28,25.28,0,0,1,71.56,46.64Z" transform="translate(-49.41 -23.56)"/><path d="M87.16,44.12c-.07-2.51-1.32-4.52-2-4.63s-.83,2.28-.83,2.28A16,16,0,0,1,87.16,44.12Z" transform="translate(-49.41 -23.56)"/><path d="M75.25,43.67c-1,.59-.54,1.08-.54,1.08s-.16-.49,1-.83c2.14-.61,4.07-1.22,4-1.74s-1.49-.73-1.49-.73C78.68,42,76.22,43.08,75.25,43.67Z" transform="translate(-49.41 -23.56)"/><path d="M74.55,49.41s.61-1.43,1.06-1.61a2.65,2.65,0,0,0,1.22.05c.43-.16,1.24-1.24,1.56-1.27,0,0-.84,3.64-4.23,3.57,0,0,2.44,1.38,3.69.41s.29-1.72,1.89-3.28.55-1.62.48-1.6a3.17,3.17,0,0,1-.57-.14,1.92,1.92,0,0,1,.68-.49c.45-.21,3-1.38,3.1-2.08s-1.88-1.49-2.85-1.47c0,0,.88.36.84.86s-2.58,1.6-2.58,3a7.3,7.3,0,0,1-1.56-.07,2.66,2.66,0,0,0-2.08.4c-.72.48-.77-.58-.7-.72s-1.4.88.36,2a7.77,7.77,0,0,0-.79.93C74,48.12,73.71,49.09,74.55,49.41ZM76.25,47a.53.53,0,0,0,.53-.53.54.54,0,0,0-.18-.4c.35,0,1.16,0,1.16,0s-.3.2-.75.76a.56.56,0,0,1-.88.14v0Z" transform="translate(-49.41 -23.56)"/><path d="M72.31,54.06s0-1.29-1.22-1c-2,.45-2.68,4-2.68,4C70.65,52.91,72.31,54.06,72.31,54.06Z" transform="translate(-49.41 -23.56)"/><path d="M73.06,57.21c1.08-1.76-.24-2.88-1.94-1.93A5.09,5.09,0,0,0,69,58.5C72.38,54.84,73.06,57.21,73.06,57.21Z" transform="translate(-49.41 -23.56)"/><path d="M68.72,53.93C69.94,52,71.33,52,71.33,52,69.67,50.77,68.72,53.93,68.72,53.93Z" transform="translate(-49.41 -23.56)"/><path d="M89.05,54.94A3.88,3.88,0,0,1,88,51.86c.13-2,.51-5-2.88-7.12A6.19,6.19,0,0,1,86,49c-.51,2.1-2.21,5.69-2.07,6.88.31,2.61,3,3.08,2.81,6.64A6.07,6.07,0,0,0,88,58.3c-.3-2.27-2.3-3.25-1.42-5A4.23,4.23,0,0,0,89.05,54.94Z" transform="translate(-49.41 -23.56)"/><path d="M98.81,45.49s3,8-.38,15.37a6.57,6.57,0,0,0-.63-3.16A9,9,0,0,1,97.57,52,6.11,6.11,0,0,0,96,56.34c.09,2.72.81,10.35-4.7,13.2a14,14,0,0,0,1.31-8.29,2.12,2.12,0,0,1,1.08,1.22,12.94,12.94,0,0,0-.44-8.75,4.53,4.53,0,0,1,1.76.78s.71-3.44-3.18-5.86c-1-.61-.85-1-.85-1a1.61,1.61,0,0,0,.34,1.56c.64.78,1.52,2.3,1.39,3.08a3.9,3.9,0,0,0-2.58-.54s2.92,2.48,2.48,7.8A4.86,4.86,0,0,0,90,58.43s2.14,4,.24,7.83a5.39,5.39,0,0,0-.75-2.2,5.21,5.21,0,0,1-3.86,3.8s2.75-3.43-.51-5.15-6,2.1-6.54,5.45c0,0-3.76.27-4.13-1.25a1.9,1.9,0,0,1,.71-2.17s.57.37,1.9-.24,4.1-2.27,3.83-4.37S77.33,56,74.72,56.81s-4.1,3.15-5.46,3.12-3-2.11-2.78-3.19,1.12-1.39,1.42-3.22a1.39,1.39,0,0,1-.79-.16,2.79,2.79,0,0,0-1.6-.43c-.45.12-1.56.86-1.61.73a5.29,5.29,0,0,1,.12-.95S62.8,54,63,54.51a7.28,7.28,0,0,0,2.35,2.54A5.84,5.84,0,0,0,67,60.1a2.47,2.47,0,0,0,2.35.88,4.65,4.65,0,0,0,2.86,2,13.25,13.25,0,0,1-.07-3.19.62.62,0,0,0,.17-.11c.25-.25,3.14-2.92,5.28-.34a2.48,2.48,0,0,0-1.35,1.58c-.39,1.22-.61,4.25-3.8,2.31a3.72,3.72,0,0,0,.7,2.78,3.14,3.14,0,0,0,2,2.87c2.1,1,3.57.24,4.93.92a8.61,8.61,0,0,1,1-4.47c1.15-1.7,2.78-2.26,3.57-1.61s1.29,3.14-1.76,5.72c0,0,3.5.45,5.9-1.38A11.53,11.53,0,0,1,86,74,19.43,19.43,0,0,0,98.81,45.49ZM65.89,56.32c-.52,0-1.44-1.38-1.6-1.65s.88-.77,1.2-.86.65,0,.7.14-.66.56-.75.72.55.76.66.88S66.41,56.32,65.89,56.32Zm4.25,4.34a3.62,3.62,0,0,0,.41-.27,2.57,2.57,0,0,1,.74-.42,7.93,7.93,0,0,0,.09,2A3.94,3.94,0,0,1,70.14,60.66ZM77,61.81s1.06,0,1.11-.13a8.89,8.89,0,0,0-.34-1.43s1.33.14,1.36.57-.75,1.51-2.38,2.21A4.11,4.11,0,0,0,77,61.81Zm-3.38,3.57c-.31-.1-.58-1.22-.58-1.22a2.68,2.68,0,0,0,1.34.38C74,64.94,74,65.48,73.65,65.38Z" transform="translate(-49.41 -23.56)"/><path d="M84.74,46.24s-2.28-1.28-3.3,0-.34,3.41-.9,4.75l-.05,0c-1.27-1.13-2.82.79-3.12,1.36a1.09,1.09,0,0,1-.68.63c-2.78.56-2.19-1.67-3.11-2.35s-2.49.31-2.49.31c1.56-.29,1.92.79,1.88,1.22a5.41,5.41,0,0,0,.7,2.4c.43.7,2.16.2,3.59.32s2.24,1.85,2.24,1.85c.85-2.08-1.45-3-1.45-3s.67-1.28,1.47-.83c2.53,1.4,1.9,7.07,1.9,7.07,2.18-4.1,1.22-6.51.08-7.92C81.64,50.75,82.29,46.72,84.74,46.24Z" transform="translate(-49.41 -23.56)"/></svg>