<svg id="Mercado_Pago" data-name="Mercado Pago" xmlns="http://www.w3.org/2000/svg" viewBox="0 0 251.49 65.52"><defs><style>.cls-1{fill:#000f8f;}.cls-2{fill:#01a0c6;}.cls-3{fill:#fff;}</style></defs><path class="cls-1" d="M145.72,51.62c0-16.6-20.61-30.12-46-30.12s-46,13.52-46,30.12c0,.42,0,1.61,0,1.76,0,17.6,18,31.86,46.05,31.86,28.2,0,46.05-14.25,46.05-31.86Z" transform="translate(-53.62 -21.5)"/><path class="cls-2" d="M144,51.6c0,15.64-19.82,28.32-44.28,28.32S55.41,67.24,55.41,51.6,75.23,23.28,99.68,23.28,144,36,144,51.6Z" transform="translate(-53.62 -21.5)"/><path class="cls-3" d="M85,42.66c0,.05-.46.51-.18.87.7.9,2.86,1.41,5,.92,1.3-.29,3-1.62,4.58-2.9a18.16,18.16,0,0,1,5.23-3.33,5.93,5.93,0,0,1,3.81-.1,11.76,11.76,0,0,1,3.47,2c3,2.27,15.21,12.91,17.32,14.75a104.73,104.73,0,0,1,19.47-6.27c-.89-5.46-4.21-10.45-9.25-14.54-7,2.95-15.59,4.48-24,.39a23,23,0,0,0-9.06-2.06c-6.65.15-9.53,3-12.58,6.08Z" transform="translate(-53.62 -21.5)"/><path class="cls-3" d="M123.75,56.05c-.14-.13-14.32-12.53-17.53-14.95a7.91,7.91,0,0,0-4-1.89,5.46,5.46,0,0,0-1.89.18,17.33,17.33,0,0,0-5.19,3.09c-1.79,1.43-3.49,2.78-5.06,3.13a8.23,8.23,0,0,1-5.58-.83,2.48,2.48,0,0,1-.92-1,1.71,1.71,0,0,1,.47-1.85L88,37.67l1.38-1.35a25.55,25.55,0,0,0-3.57.8,15.54,15.54,0,0,1-4.16.78,39.46,39.46,0,0,1-4.25-.67A62.5,62.5,0,0,1,66.1,33.15c-5.56,4.15-9.28,9.32-10.36,15,.8.21,2.09.59,2.63.71,12.59,2.8,16.51,5.69,17.22,6.29a4.17,4.17,0,0,1,6.53.38,4.79,4.79,0,0,1,3-1.05,5.6,5.6,0,0,1,1.81.31,4.13,4.13,0,0,1,2.53,2.29,4.31,4.31,0,0,1,1.75-.37,5.28,5.28,0,0,1,2.1.46c2.32,1,2.68,3.28,2.47,5a4.07,4.07,0,0,1,.5,0,5,5,0,0,1,4.39,7.35A8,8,0,0,0,105,70.68a2.76,2.76,0,0,0,2-.89c.13-.17.26-.38.14-.53l-3.55-3.94s-.59-.56-.4-.77.57.09.82.31c1.81,1.51,4,3.79,4,3.79s.18.31,1,.46a3.69,3.69,0,0,0,2.8-.66,4.11,4.11,0,0,0,.62-.63l0,0a1.89,1.89,0,0,0-.1-2.34l-4.15-4.65s-.59-.55-.39-.77.56.1.82.31c1.32,1.1,3.17,3,4.95,4.7a3.37,3.37,0,0,0,4-.14A2.84,2.84,0,0,0,119,62.37a3,3,0,0,0-.87-1.73l-5.67-5.7s-.6-.51-.39-.77.56.1.82.31c1.8,1.51,6.69,6,6.69,6a3.43,3.43,0,0,0,3.84-.08,2.56,2.56,0,0,0,1.27-2A3,3,0,0,0,123.75,56.05Z" transform="translate(-53.62 -21.5)"/><path class="cls-3" d="M96.28,63.27a12,12,0,0,0-2,.44c-.07-.05.06-.4.14-.61s1.24-3.68-1.58-4.89a3.33,3.33,0,0,0-3.93.59c-.12.12-.17.11-.19,0a3.09,3.09,0,0,0-2.18-2.89,4.26,4.26,0,0,0-4.81,1.71,3.08,3.08,0,1,0-.92,2.62s0,0,0,.1A4.06,4.06,0,0,0,83.4,65a3,3,0,0,0,3-.46c.24-.17.28-.1.25.13-.11.72,0,2.25,2.17,3.12a2.77,2.77,0,0,0,3.23-.6c.27-.26.35-.21.36.17a3.89,3.89,0,1,0,3.89-4.06Z" transform="translate(-53.62 -21.5)"/><path class="cls-1" d="M124.3,54.57c-4.36-3.82-14.46-12.59-17.2-14.65a12,12,0,0,0-3.56-2.07,5.78,5.78,0,0,0-1.75-.27,7.31,7.31,0,0,0-2.22.37,18.21,18.21,0,0,0-5.23,3.31l-.09.07c-1.58,1.26-3.22,2.57-4.46,2.85a7.74,7.74,0,0,1-1.66.18,4.19,4.19,0,0,1-3.1-1c-.08-.1,0-.26.15-.49l0,0,3.85-4.14c3-3,5.85-5.85,12.39-6h.33a23.31,23.31,0,0,1,8.6,2,26.64,26.64,0,0,0,11.73,2.81A30.67,30.67,0,0,0,135,34.46q-.75-.63-1.56-1.23a28.3,28.3,0,0,1-11.3,2.56,24.85,24.85,0,0,1-11-2.64,24.72,24.72,0,0,0-9.37-2.21h-.37a16.26,16.26,0,0,0-10.67,3.79,20.94,20.94,0,0,0-5.33,1,14.67,14.67,0,0,1-3.75.72c-.48,0-1.35,0-1.43,0-1.34,0-8.11-1.7-13.49-3.74-.55.39-1.08.79-1.6,1.2,5.63,2.31,12.47,4.09,14.63,4.23.6,0,1.24.11,1.88.11a15.87,15.87,0,0,0,4.24-.79c.82-.23,1.72-.47,2.66-.66l-.76.76-3.9,4.22a2,2,0,0,0-.53,2.16,2.77,2.77,0,0,0,1,1.14,8.2,8.2,0,0,0,4.15,1.05,7.88,7.88,0,0,0,1.65-.17c1.64-.37,3.35-1.74,5.17-3.19a17.3,17.3,0,0,1,5.08-3,5.9,5.9,0,0,1,1.42-.19,2.23,2.23,0,0,1,.37,0,7.6,7.6,0,0,1,3.84,1.84c3.21,2.4,17.39,14.81,17.53,14.93a2.75,2.75,0,0,1,.85,2.09,2.26,2.26,0,0,1-1.13,1.81,3.5,3.5,0,0,1-1.86.58,3.19,3.19,0,0,1-1.65-.48c-.05,0-4.91-4.5-6.7-6a1.46,1.46,0,0,0-.84-.45.47.47,0,0,0-.37.17c-.28.35,0,.83.41,1.15l5.67,5.7a2.7,2.7,0,0,1,.79,1.54,2.61,2.61,0,0,1-1.35,2.35,3.68,3.68,0,0,1-2,.67,2.85,2.85,0,0,1-1.62-.5l-.82-.8c-1.48-1.46-3-3-4.15-3.91a1.47,1.47,0,0,0-.84-.44.49.49,0,0,0-.36.15c-.13.14-.22.4.1.82A2.17,2.17,0,0,0,108,61l4.14,4.65a1.59,1.59,0,0,1,.1,2l-.15.19c-.13.13-.26.26-.39.37a3.29,3.29,0,0,1-2,.64,3.24,3.24,0,0,1-.56,0,1.47,1.47,0,0,1-.82-.34l-.05-.06c-.22-.23-2.31-2.36-4-3.8a1.44,1.44,0,0,0-.8-.43.49.49,0,0,0-.38.16c-.34.38.17.94.39,1.14l3.53,3.9a.69.69,0,0,1-.13.24c-.13.17-.55.6-1.84.76a3.59,3.59,0,0,1-.47,0,8,8,0,0,1-3.45-1,5.27,5.27,0,0,0-4.77-7.51h-.19a4.67,4.67,0,0,0-2.67-5,5.53,5.53,0,0,0-2.2-.48,4.61,4.61,0,0,0-1.62.29A4.43,4.43,0,0,0,87,54.56a5.84,5.84,0,0,0-1.89-.33,5,5,0,0,0-2.95.94,4.44,4.44,0,0,0-6.61-.37c-1.1-.84-5.46-3.61-17.14-6.26-.56-.13-1.86-.5-2.65-.74a18.21,18.21,0,0,0-.3,1.92s2.15.52,2.58.61C70,53,73.92,55.73,74.59,56.25A4.64,4.64,0,0,0,74.24,58a4.5,4.5,0,0,0,5.29,4.4,5.2,5.2,0,0,0,3.37,3.89,4.33,4.33,0,0,0,1.6.31,3.83,3.83,0,0,0,1-.13A4.72,4.72,0,0,0,88.29,69,4.64,4.64,0,0,0,90,69.4a4,4,0,0,0,1.37-.24,5.25,5.25,0,0,0,8.64,1.67,10.07,10.07,0,0,0,4.46,1.33,4.94,4.94,0,0,0,.68,0,4.08,4.08,0,0,0,3-1.48,2.16,2.16,0,0,0,.18-.3,5.17,5.17,0,0,0,1.43.22,4.77,4.77,0,0,0,2.88-1,3.91,3.91,0,0,0,1.7-2.47v0a4.47,4.47,0,0,0,1,.1,5.34,5.34,0,0,0,3-.94,4.27,4.27,0,0,0,2.12-3.8,5.34,5.34,0,0,0,1,.1,5.09,5.09,0,0,0,2.77-.86,4,4,0,0,0,1.93-3.14,4.26,4.26,0,0,0-.61-2.53,114.48,114.48,0,0,1,18.4-5.76c-.05-.64-.15-1.28-.26-1.91A105.67,105.67,0,0,0,124.3,54.57Zm-28,16.2a3.59,3.59,0,0,1-3.6-3.45c0-.16,0-.6-.4-.6a.7.7,0,0,0-.44.23,2.5,2.5,0,0,1-1.76.8,3.24,3.24,0,0,1-1.17-.25c-2.06-.84-2.08-2.25-2-2.82a.5.5,0,0,0-.08-.43l-.12-.11h-.13a.66.66,0,0,0-.36.14,3,3,0,0,1-1.74.62,2.66,2.66,0,0,1-1-.19,3.78,3.78,0,0,1-2.36-4.37A.39.39,0,0,0,81,60l-.2-.16-.17.17a2.81,2.81,0,1,1,.83-2.37l.1.75.41-.64a4.14,4.14,0,0,1,3.27-1.79,4.36,4.36,0,0,1,1.22.19,2.85,2.85,0,0,1,2,2.65c0,.37.29.38.34.38a.48.48,0,0,0,.33-.17,2.84,2.84,0,0,1,2.06-.87,3.94,3.94,0,0,1,1.55.35C95.41,59.6,94.21,63,94.2,63c-.23.56-.24.8,0,1l.11,0h.07a2.14,2.14,0,0,0,.52-.14,4.66,4.66,0,0,1,1.41-.31h0a3.61,3.61,0,0,1,0,7.22Z" transform="translate(-53.62 -21.5)"/><path class="cls-1" d="M302.63,32.43c-1.67-2.09-4.19-3.13-7.58-3.13s-5.9,1-7.56,3.13a11.43,11.43,0,0,0-2.5,7.38,11.37,11.37,0,0,0,2.5,7.41q2.49,3.08,7.56,3.08c3.39,0,5.91-1,7.58-3.08a11.42,11.42,0,0,0,2.49-7.41A11.47,11.47,0,0,0,302.63,32.43Zm-4.12,11.94a4.56,4.56,0,0,1-6.95,0,7.43,7.43,0,0,1-1.22-4.56,7.43,7.43,0,0,1,1.22-4.56,4.59,4.59,0,0,1,6.95,0,7.5,7.5,0,0,1,1.21,4.56A7.5,7.5,0,0,1,298.51,44.37Z" transform="translate(-53.62 -21.5)"/><path class="cls-1" d="M260.15,30.68a12.71,12.71,0,0,0-5.79-1.28c-3.33,0-5.69.87-7.06,2.61a7.57,7.57,0,0,0-1.46,4.26h5a3.69,3.69,0,0,1,.73-1.82,3.32,3.32,0,0,1,2.63-.9,5.4,5.4,0,0,1,2.51.46,1.74,1.74,0,0,1,.85,1.68,1.57,1.57,0,0,1-1.11,1.47,8.27,8.27,0,0,1-2.07.45l-1.77.22A12.4,12.4,0,0,0,248,39.1a5.6,5.6,0,0,0-2.83,5.27A5.43,5.43,0,0,0,247,48.71a7,7,0,0,0,4.46,1.53c11.27.51,11.14-5.94,11.25-7.28V35.54C262.68,33.16,261.83,31.54,260.15,30.68Zm-2.62,11.26c0,1.73-.53,2.92-1.48,3.57a5.41,5.41,0,0,1-3.12,1,2.85,2.85,0,0,1-1.81-.59,2.27,2.27,0,0,1-.74-1.91,2.35,2.35,0,0,1,1.21-2.19,7.72,7.72,0,0,1,2.38-.71l1.18-.22a9.7,9.7,0,0,0,1.38-.35,5.49,5.49,0,0,0,1-.5Z" transform="translate(-53.62 -21.5)"/><path class="cls-1" d="M234.44,33.82A3.38,3.38,0,0,1,237.29,35a4.38,4.38,0,0,1,.78,2h5.56c-.3-2.81-1.29-4.77-2.94-5.87a11.33,11.33,0,0,0-6.4-1.67,9.35,9.35,0,0,0-7.21,2.82q-2.61,2.82-2.61,7.89a11,11,0,0,0,2.36,7.31q2.37,2.82,7.38,2.82t7.57-3.38a8.29,8.29,0,0,0,1.79-4.45H238a4.69,4.69,0,0,1-1,2.53,3.34,3.34,0,0,1-2.71,1,3.62,3.62,0,0,1-3.67-2.46,9.57,9.57,0,0,1-.53-3.48,10.41,10.41,0,0,1,.53-3.64A3.74,3.74,0,0,1,234.44,33.82Z" transform="translate(-53.62 -21.5)"/><path class="cls-1" d="M223,29.46c-11.42,0-10.75,10.12-10.75,10.12V49.85h5.19V40.22a8,8,0,0,1,.59-3.51q1.06-2,4.18-2l.61,0,.87.08V29.5l-.44,0Z" transform="translate(-53.62 -21.5)"/><path class="cls-1" d="M203.94,44.48a3.91,3.91,0,0,1-.71.79,4.45,4.45,0,0,1-2.9.78,4.88,4.88,0,0,1-2.76-.66,4.68,4.68,0,0,1-2.1-4.11h14.35a25.41,25.41,0,0,0-.18-3.91,9.78,9.78,0,0,0-1.56-4.07,8.11,8.11,0,0,0-3.41-2.92,11.26,11.26,0,0,0-4.63-.92,9.49,9.49,0,0,0-7,2.73q-2.72,2.73-2.72,7.85c0,3.64,1,6.27,3,7.88a10.72,10.72,0,0,0,6.94,2.43,9.58,9.58,0,0,0,7.41-2.88,7,7,0,0,0,1.8-3Zm-7-9.65A4.08,4.08,0,0,1,200,33.71a4.51,4.51,0,0,1,3.06,1.06,4.28,4.28,0,0,1,1.37,3.11H195.6A5.3,5.3,0,0,1,197,34.83Z" transform="translate(-53.62 -21.5)"/><path class="cls-1" d="M188.2,49.85h-4.73V37.93c0-1.09-.36-3.68-3.49-3.68a3.49,3.49,0,0,0-3.59,3.68V49.85h-4.73V37.93c0-1.09-.33-3.68-3.45-3.68a3.47,3.47,0,0,0-3.59,3.68V49.85h-4.74V38c0-4.92,3.27-8.65,8.33-8.65a7.31,7.31,0,0,1,5.89,2.75A7.55,7.55,0,0,1,180,29.39c5.17,0,8.22,3.58,8.22,8.65Z" transform="translate(-53.62 -21.5)"/><path class="cls-1" d="M283.45,23.24s-5.22-.56-5.22,3.63v5.56A6.21,6.21,0,0,0,276,30.25a6.41,6.41,0,0,0-3.18-.79,7.58,7.58,0,0,0-6.21,2.89c-1.55,1.93-2.32,4.71-2.32,8.07a10.74,10.74,0,0,0,2.36,7.17c1.57,1.86,4.65,2.67,7.39,2.67,9.55,0,9.44-8.18,9.44-8.18Zm-6.22,21.17A3.78,3.78,0,0,1,273.91,46a3.64,3.64,0,0,1-3.26-1.63,8.33,8.33,0,0,1-1.07-4.5,8,8,0,0,1,1.05-4.24A3.61,3.61,0,0,1,273.94,34a4,4,0,0,1,2.61.94c1.21,1,1.82,2.9,1.82,5.3A7.15,7.15,0,0,1,277.23,44.41Z" transform="translate(-53.62 -21.5)"/><path class="cls-2" d="M197.74,82.75a2.44,2.44,0,0,1-.77,1.81,2.52,2.52,0,0,1-1.83.75h-2.59v-18c0-3.51,1.18-5.7,3.13-7.18,1.28-1,3.2-1.92,6.78-1.92A9.11,9.11,0,0,1,209.25,61a11.11,11.11,0,0,1,2.43,7.49,12.15,12.15,0,0,1-2.28,7.67A7.19,7.19,0,0,1,203.53,79a7.9,7.9,0,0,1-3.36-.68A5.62,5.62,0,0,1,197.74,76Zm8.68-14a7.6,7.6,0,0,0-1.14-4.51A3.8,3.8,0,0,0,202,62.64a3.73,3.73,0,0,0-3.2,1.58,7.61,7.61,0,0,0-1.06,4.51A6.75,6.75,0,0,0,198.88,73a3.78,3.78,0,0,0,3.28,1.58A3.64,3.64,0,0,0,205.28,73a7.15,7.15,0,0,0,1.14-4.28" transform="translate(-53.62 -21.5)"/><path class="cls-2" d="M246,77.37V76.1a5.73,5.73,0,0,1-3.63,2.62,7.43,7.43,0,0,1-4.53-.37A8.48,8.48,0,0,1,234,75a11.58,11.58,0,0,1-1.6-6.43A12.4,12.4,0,0,1,234.54,61c1.42-1.93,3.71-2.81,6.85-2.9a9.48,9.48,0,0,1,6.66,2c1.93,1.46,3.07,3.71,3.07,7.21V77.9c0,3.37-2.35,9.62-9.73,9.09-4.58-.33-7.12-2.21-8.53-6.46h5.46a3.84,3.84,0,0,0,1.84,1.61,3.79,3.79,0,0,0,2.46.3A4.06,4.06,0,0,0,244.87,81,6.16,6.16,0,0,0,246,77.37m-8.53-8.64c0,3.46,1,5.37,3,5.75s3.47-.09,4.42-1.39a5.63,5.63,0,0,0,1-2.59,11.12,11.12,0,0,0,0-3.5,6.92,6.92,0,0,0-1.24-3.08,3.29,3.29,0,0,0-2.84-1.35,3.45,3.45,0,0,0-3.44,1.87,9.72,9.72,0,0,0-.9,4.29" transform="translate(-53.62 -21.5)"/><path class="cls-2" d="M228,59.56a12.64,12.64,0,0,0-5.78-1.28c-3.34,0-5.69.87-7.07,2.61a7.57,7.57,0,0,0-1.45,4.26h5a3.71,3.71,0,0,1,.74-1.81,3.26,3.26,0,0,1,2.62-.91,5.37,5.37,0,0,1,2.51.46,1.75,1.75,0,0,1,.86,1.68A1.56,1.56,0,0,1,224.26,66a8.16,8.16,0,0,1-2.06.45l-1.77.21A12.51,12.51,0,0,0,215.87,68,5.6,5.6,0,0,0,213,73.25a5.45,5.45,0,0,0,1.75,4.34,7,7,0,0,0,4.46,1.53c11.27.51,11.15-5.94,11.25-7.28V64.42q0-3.57-2.53-4.86m-2.62,11.26c0,1.73-.53,2.92-1.48,3.57a5.38,5.38,0,0,1-3.11,1,2.86,2.86,0,0,1-1.82-.59,2.3,2.3,0,0,1-.74-1.91,2.39,2.39,0,0,1,1.22-2.2,7.87,7.87,0,0,1,2.37-.7l1.18-.22a9,9,0,0,0,1.38-.35,5.49,5.49,0,0,0,1-.5Z" transform="translate(-53.62 -21.5)"/><path class="cls-2" d="M270.73,61.2c-1.67-2.09-4.19-3.13-7.58-3.13s-5.9,1-7.56,3.13a12.19,12.19,0,0,0,0,14.79c1.66,2.05,4.19,3.08,7.56,3.08s5.91-1,7.58-3.08a12.23,12.23,0,0,0,0-14.79m-4.12,11.94a4.56,4.56,0,0,1-6.95,0,7.43,7.43,0,0,1-1.22-4.56A7.43,7.43,0,0,1,259.66,64a4.59,4.59,0,0,1,6.95,0,7.43,7.43,0,0,1,1.21,4.56,7.43,7.43,0,0,1-1.21,4.56" transform="translate(-53.62 -21.5)"/></svg>