<svg id="Microsoft_Pay" data-name="Microsoft Pay" xmlns="http://www.w3.org/2000/svg" viewBox="0 0 234.65 66.24"><defs><style>.cls-1{fill:#737474;}.cls-2{fill:#ee5123;}.cls-3{fill:#7eb941;}.cls-4{fill:#319dc7;}.cls-5{fill:#f6b813;}</style></defs><path class="cls-1" d="M182.21,86.38h-5.45l-5.4-20.26h-.11l-5.39,20.26h-5.57L152.8,59.52h5.1l5.22,21.24h.11l5.85-21.24h5l5.45,21.21h.11l5-21.21h4.87Z" transform="translate(-70.67 -20.61)"/><path class="cls-1" d="M204.73,74.32c0,3.17,0,5.67,0,7.5a31.51,31.51,0,0,0,.29,4.56h-4.51l-.23-2.06h-.07A5.43,5.43,0,0,1,198,86.09a8.73,8.73,0,0,1-3.51.61,6.11,6.11,0,0,1-4.26-1.54A5.35,5.35,0,0,1,188.47,81a5.42,5.42,0,0,1,2.21-4.51q2.19-1.68,6.9-2.27l2.75-.34a3.48,3.48,0,0,0-.9-2.71,4,4,0,0,0-2.7-.83,11.5,11.5,0,0,0-3.69.59,7.89,7.89,0,0,0-2.67,1.4V68.18a13.46,13.46,0,0,1,2.9-1,16,16,0,0,1,4.14-.52,7.13,7.13,0,0,1,5.46,2,8,8,0,0,1,1.86,5.69m-6.42,2.87a10.28,10.28,0,0,0-4.23,1.16,2.51,2.51,0,0,0-1.22,2.21,2.57,2.57,0,0,0,.72,1.91,3,3,0,0,0,2.18.71,4.38,4.38,0,0,0,3.35-1.3,4.6,4.6,0,0,0,1.26-3.27V76.94ZM209,58h4.54V86.38H209Zm8.92,0h4.53V86.38H217.9Zm23.82,23.54v3.73a9.9,9.9,0,0,1-2.94,1.15,16.59,16.59,0,0,1-3.88.44,9,9,0,0,1-6.84-2.6A10.2,10.2,0,0,1,225.61,77a10.54,10.54,0,0,1,2.62-7.37,8.53,8.53,0,0,1,6.62-2.9,8,8,0,0,1,6.21,2.45,9.67,9.67,0,0,1,2.22,6.75v2.19H230.09A5.48,5.48,0,0,0,232,82.18a6.71,6.71,0,0,0,4,1.15,9.74,9.74,0,0,0,3.11-.5,9.87,9.87,0,0,0,2.62-1.3m-2.9-6.72a5.06,5.06,0,0,0-1-3.43,3.68,3.68,0,0,0-2.93-1.18,4.22,4.22,0,0,0-2.92,1.17,6,6,0,0,0-1.73,3.44Zm15.54,8.28a3.18,3.18,0,0,0,.95-.19,4.77,4.77,0,0,0,1-.45v3.74a4.7,4.7,0,0,1-1.43.45,9.57,9.57,0,0,1-2,.21,5.61,5.61,0,0,1-4.3-1.53,6.46,6.46,0,0,1-1.44-4.59V70.84H244V67.13h3.16V62.8l4.56-1.39v5.72h4.59v3.71h-4.59v9a3.79,3.79,0,0,0,.64,2.51,2.57,2.57,0,0,0,2,.74M182.65,22.6V49.46H178V28.4h-.08l-8.33,21.06h-3.09L158,28.4h-.06V49.46h-4.31V22.6h6.69L168,42.51h.11l8.15-19.91Zm3.9,2a2.47,2.47,0,0,1,.82-1.88,2.73,2.73,0,0,1,1.94-.76,2.68,2.68,0,0,1,2,.78,2.5,2.5,0,0,1,.79,1.86,2.41,2.41,0,0,1-.81,1.85,2.76,2.76,0,0,1-2,.75,2.71,2.71,0,0,1-2-.76,2.45,2.45,0,0,1-.8-1.84m5,24.82H187V30.2h4.53Zm13.75-3.3a6.29,6.29,0,0,0,2.23-.47,9.45,9.45,0,0,0,2.25-1.23v4.21a9.6,9.6,0,0,1-2.46.94,13.63,13.63,0,0,1-3,.31,9.15,9.15,0,0,1-9.57-9.55,11,11,0,0,1,2.72-7.65q2.72-3,7.69-3a11,11,0,0,1,2.58.32,8.48,8.48,0,0,1,2.07.76v4.35A9,9,0,0,0,207.63,34a6.17,6.17,0,0,0-2.23-.42,5.69,5.69,0,0,0-4.33,1.74,6.56,6.56,0,0,0-1.65,4.7A6.28,6.28,0,0,0,201,44.53a5.71,5.71,0,0,0,4.3,1.63m17.38-16.28a5.8,5.8,0,0,1,1,.08,3.85,3.85,0,0,1,.73.19v4.58a4.06,4.06,0,0,0-1-.49,5.06,5.06,0,0,0-1.66-.24,3.52,3.52,0,0,0-2.82,1.41,6.75,6.75,0,0,0-1.15,4.33v9.72h-4.53V30.2h4.53v3h.07a5.4,5.4,0,0,1,1.88-2.47,5.08,5.08,0,0,1,3-.89m1.95,10.23a10.44,10.44,0,0,1,2.7-7.57,9.94,9.94,0,0,1,7.49-2.79,9.23,9.23,0,0,1,7.05,2.69,10.1,10.1,0,0,1,2.54,7.26,10.2,10.2,0,0,1-2.7,7.45,9.74,9.74,0,0,1-7.34,2.77,9.6,9.6,0,0,1-7.11-2.63,9.72,9.72,0,0,1-2.63-7.18m4.72-.15a6.89,6.89,0,0,0,1.37,4.61,4.89,4.89,0,0,0,3.92,1.59,4.57,4.57,0,0,0,3.76-1.59,7.38,7.38,0,0,0,1.29-4.72,7.11,7.11,0,0,0-1.34-4.69,4.63,4.63,0,0,0-3.75-1.59,4.77,4.77,0,0,0-3.87,1.66A7.21,7.21,0,0,0,229.35,40m21.8-4.7a2,2,0,0,0,.62,1.53,10.88,10.88,0,0,0,2.74,1.39,9.27,9.27,0,0,1,3.81,2.45,5,5,0,0,1,1.09,3.28,5.3,5.3,0,0,1-2.08,4.37,8.89,8.89,0,0,1-5.65,1.64,13.13,13.13,0,0,1-2.65-.29,11.44,11.44,0,0,1-2.46-.74V44.44a11,11,0,0,0,2.66,1.36,7.69,7.69,0,0,0,2.58.51,4.61,4.61,0,0,0,2.27-.43,1.56,1.56,0,0,0,.73-1.44,2,2,0,0,0-.76-1.59,11.23,11.23,0,0,0-2.88-1.48A9,9,0,0,1,247.61,39a5.63,5.63,0,0,1,1-7.62A8.22,8.22,0,0,1,254,29.72a12.93,12.93,0,0,1,2.27.22,10.11,10.11,0,0,1,2.1.58v4.31a9.78,9.78,0,0,0-2.1-1,6.93,6.93,0,0,0-2.38-.43,3.51,3.51,0,0,0-2,.5,1.6,1.6,0,0,0-.73,1.39m10.21,4.85a10.44,10.44,0,0,1,2.7-7.57,9.93,9.93,0,0,1,7.49-2.79,9.23,9.23,0,0,1,7.05,2.69,10.15,10.15,0,0,1,2.54,7.26,10.2,10.2,0,0,1-2.7,7.45,9.74,9.74,0,0,1-7.34,2.77A9.6,9.6,0,0,1,264,47.29a9.72,9.72,0,0,1-2.63-7.18m4.72-.15a6.89,6.89,0,0,0,1.37,4.61,4.87,4.87,0,0,0,3.91,1.59,4.57,4.57,0,0,0,3.77-1.59,7.38,7.38,0,0,0,1.29-4.72,7.11,7.11,0,0,0-1.34-4.69,4.63,4.63,0,0,0-3.75-1.59,4.76,4.76,0,0,0-3.87,1.66A7.21,7.21,0,0,0,266.08,40m30.1-6.05h-6.75V49.46h-4.59V33.91h-3.22V30.2h3.22V27.52a6.68,6.68,0,0,1,2-5,7,7,0,0,1,5.07-1.94,10.48,10.48,0,0,1,1.46.09,5.31,5.31,0,0,1,1.12.25v3.91a5.13,5.13,0,0,0-.78-.31,4,4,0,0,0-1.29-.19,2.78,2.78,0,0,0-2.2.89,3.93,3.93,0,0,0-.76,2.63V30.2h6.75V25.88l4.55-1.39V30.2h4.59v3.71h-4.59v9a3.81,3.81,0,0,0,.64,2.51,2.58,2.58,0,0,0,2,.73,2.89,2.89,0,0,0,.94-.19,4.14,4.14,0,0,0,1-.45v3.75a5.58,5.58,0,0,1-1.44.45,9.48,9.48,0,0,1-2,.2,5.62,5.62,0,0,1-4.3-1.52,6.49,6.49,0,0,1-1.43-4.6V33.91Z" transform="translate(-70.67 -20.61)"/><path class="cls-2" d="M70.67,22.6H101V52.91H70.67Z" transform="translate(-70.67 -20.61)"/><path class="cls-3" d="M104.14,22.6h30.31V52.91H104.14Z" transform="translate(-70.67 -20.61)"/><path class="cls-4" d="M70.67,56.07H101V86.38H70.67Z" transform="translate(-70.67 -20.61)"/><path class="cls-5" d="M104.14,56.07h30.31V86.38H104.14Z" transform="translate(-70.67 -20.61)"/></svg>