<svg id="Layer_202" data-name="Layer 202" xmlns="http://www.w3.org/2000/svg" viewBox="0 0 275 45.31"><defs><style>.cls-1{fill:#9ddcf9;}.cls-1,.cls-2,.cls-3,.cls-4{fill-rule:evenodd;}.cls-2{fill:#00acdb;}.cls-3{fill:#0256a7;}.cls-4{fill:#002855;}</style></defs><path class="cls-1" d="M45.65,68.35a3,3,0,0,1-3-3h0V43.55a3,3,0,0,1,6-.09v21.9A3,3,0,0,1,45.65,68.35Z" transform="translate(-42.65 -31.78)"/><path class="cls-2" d="M81.61,68.35a3,3,0,0,1-3-3h0V43.57a3,3,0,0,1,6-.09V65.36A3,3,0,0,1,81.61,68.35Z" transform="translate(-42.65 -31.78)"/><path class="cls-3" d="M63.63,77.1a3,3,0,0,1-3-3V34.83a3,3,0,0,1,6,0V74.1A3,3,0,0,1,63.63,77.1Z" transform="translate(-42.65 -31.78)"/><path class="cls-4" d="M157.27,42.52a2,2,0,0,1,4-.06V66a1.93,1.93,0,0,1-1.87,2,.27.27,0,0,1-.09,0,2,2,0,0,1-2-1.94V42.52Z" transform="translate(-42.65 -31.78)"/><path class="cls-4" d="M172,54.34v.11c0,6.28,4.38,10.31,9.38,10.31A10,10,0,0,0,191,54.45v-.11a9.9,9.9,0,0,0-9.63-10.25C176.18,44.09,172,47.9,172,54.34ZM194.79,66h0a2,2,0,1,1-4,.08V63.13c-2.17,3.19-5.31,5.17-10.21,5.17-6.39,0-12.73-5-12.73-13.81v-.1c0-8.71,6.34-13.87,12.73-13.87,4.95,0,8.15,1.94,10.21,4.93V33.79a1.93,1.93,0,0,1,1.86-2h.09a2,2,0,0,1,2,1.95V66Z" transform="translate(-42.65 -31.78)"/><path class="cls-4" d="M297.91,64.91a1.81,1.81,0,0,1-.72-1.45,1.73,1.73,0,0,1,1.75-1.7,1.57,1.57,0,0,1,1,.31,15,15,0,0,0,8.45,2.84c3.2,0,5.52-1.65,5.52-4.23v-.1c0-2.68-3.15-3.71-6.65-4.7-4.18-1.18-8.82-2.63-8.82-7.52v-.11c0-4.58,3.82-7.62,9.07-7.62A18.49,18.49,0,0,1,316,42.9a1.91,1.91,0,0,1,1,1.65,1.74,1.74,0,0,1-1.75,1.7,1.9,1.9,0,0,1-.88-.21,14.39,14.39,0,0,0-7-2.06c-3.14,0-5.15,1.65-5.15,3.87V48c0,2.52,3.3,3.5,6.85,4.58,4.13,1.24,8.56,2.84,8.56,7.63v.1c0,5.06-4.18,8-9.49,8A18.39,18.39,0,0,1,297.91,64.91Z" transform="translate(-42.65 -31.78)"/><path class="cls-4" d="M291.46,51.74a11.61,11.61,0,0,0-23.21.4h0V65.87a2.07,2.07,0,0,0,2,2.1h.06a2,2,0,0,0,2-2V51.74a7.46,7.46,0,1,1,14.92,0V65.87a2.07,2.07,0,0,0,4.14.08v-.08S291.5,53,291.46,51.74Z" transform="translate(-42.65 -31.78)"/><path class="cls-4" d="M261.17,51.45h0A11.61,11.61,0,0,0,249.6,40.88h-1.78a1.88,1.88,0,0,0,0,3.76h1.77a7.73,7.73,0,0,1,7.77,7.46v.33a28,28,0,0,0-8.19-1.13c-6.76,0-11.4,3-11.4,8.6V60c0,5.46,4.82,8.29,9.77,8.29A11.45,11.45,0,0,0,257.41,63v3.05a1.89,1.89,0,0,0,3.77,0V51.45ZM248.25,64.74h0c-3.61,0-6.45-1.54-6.45-4.89v-.1c0-3.35,2.78-5.51,7.78-5.51a34,34,0,0,1,7.83,1.13h0C257.41,60.26,252.85,64.74,248.25,64.74Z" transform="translate(-42.65 -31.78)"/><path class="cls-4" d="M237,42.75a1.89,1.89,0,0,0-1.88-1.88h-1.29a11.62,11.62,0,0,0-11.61,11.62V65.87a2.07,2.07,0,0,0,2,2.1h.06a2,2,0,0,0,2.05-2,.34.34,0,0,0,0-.1V52.09a7.47,7.47,0,0,1,7.46-7.46h1.3A1.89,1.89,0,0,0,237,42.75Z" transform="translate(-42.65 -31.78)"/><path class="cls-4" d="M215.66,42.66a1.75,1.75,0,0,0-1.75-1.75h-7v-7a2.12,2.12,0,0,0-2-2.12,2,2,0,0,0-2,2V60.68c0,5.41,3.24,7.52,7.52,7.52a10.13,10.13,0,0,0,3.92-.72,1.65,1.65,0,0,0,1.13-1.55,1.71,1.71,0,0,0-1.7-1.7,11,11,0,0,1-2.42.36c-2.68,0-4.48-1.18-4.48-4.43V44.41h7A1.75,1.75,0,0,0,215.66,42.66Z" transform="translate(-42.65 -31.78)"/><path class="cls-4" d="M137.94,40.51a11.1,11.1,0,0,0-9.16,4.82,11,11,0,0,0-9.08-4.8,11.11,11.11,0,0,0-11.12,11.11V66a2,2,0,0,0,2,2h.06a1.94,1.94,0,0,0,2-1.92V51.26a7.14,7.14,0,1,1,14.28,0V64.34h0a2,2,0,0,0,4,0V51.24a7.14,7.14,0,1,1,14.28,0V66a2,2,0,0,0,4,0V51.64A11.17,11.17,0,0,0,137.94,40.51Z" transform="translate(-42.65 -31.78)"/></svg>