<svg id="Mollie" xmlns="http://www.w3.org/2000/svg" viewBox="0 0 217.53 64.27"><path d="M160.54,46a21.64,21.64,0,1,0,21.64,21.64A21.66,21.66,0,0,0,160.54,46Zm0,33a11.39,11.39,0,1,1,11.38-11.38A11.4,11.4,0,0,1,160.54,79Z" transform="translate(-68.53 -25.01)"/><path d="M232.53,38.51a6.75,6.75,0,1,0-6.76-6.75A6.76,6.76,0,0,0,232.53,38.51Z" transform="translate(-68.53 -25.01)"/><path d="M116.35,46c-.56-.05-1.1-.07-1.66-.07A18.81,18.81,0,0,0,101,51.86,18.77,18.77,0,0,0,68.53,64.72V88.4H78.65V65a9,9,0,0,1,7.69-8.68c.3,0,.59,0,.86,0a8.55,8.55,0,0,1,8.52,8.51V88.39h10.35V65a8.94,8.94,0,0,1,7.69-8.66,8.45,8.45,0,0,1,.85,0,8.55,8.55,0,0,1,8.55,8.46V88.4H133.5V65a19.19,19.19,0,0,0-4.92-12.84A18.4,18.4,0,0,0,116.35,46Z" transform="translate(-68.53 -25.01)"/><path d="M198.1,26H187.76V88.44H198.1Zm19.81,0H207.56V88.44h10.35ZM237.7,47H227.36v41.4H237.7Z" transform="translate(-68.53 -25.01)"/><path d="M286.07,66.67a20.71,20.71,0,0,0-6-14.6A20.26,20.26,0,0,0,265.57,46h-.27a21.65,21.65,0,0,0,.3,43.29h0a21.8,21.8,0,0,0,18.63-10.61l.49-.84-8.54-4.2-.43.7a11.65,11.65,0,0,1-21.19-2.88h31.48Zm-20.9-11.32a11.12,11.12,0,0,1,10.44,7.51H254.75a11.06,11.06,0,0,1,10.42-7.51Z" transform="translate(-68.53 -25.01)"/></svg>