<svg id="MoMo" xmlns="http://www.w3.org/2000/svg" viewBox="0 0 68.32 61.91"><rect width="68.32" height="61.91" rx="8.58" style="fill:#a50064"/><path d="M187.93,27.89a11.94,11.94,0,0,0-12.18,11.69,12.2,12.2,0,0,0,24.37,0A12,12,0,0,0,187.93,27.89Zm0,16.68a5.09,5.09,0,0,1-5.18-5,5.18,5.18,0,0,1,10.35,0A5.08,5.08,0,0,1,187.93,44.57Zm-15.66-7.9V51.32h-7V36.6a2.07,2.07,0,0,0-4.13,0V51.32h-7V36.6a2.07,2.07,0,0,0-4.13,0V51.32h-7V36.67a9,9,0,0,1,9.14-8.78,9.34,9.34,0,0,1,5.48,1.76,9.44,9.44,0,0,1,5.48-1.76A9,9,0,0,1,172.27,36.67Zm15.66,19.64A11.71,11.71,0,1,0,200.1,68,11.94,11.94,0,0,0,187.93,56.31Zm0,16.68a5,5,0,1,1,5.17-5A5.09,5.09,0,0,1,188,73h0Zm-15.66-7.87V79.74h-7V65a2.07,2.07,0,0,0-4.13,0v14.7h-7V65A2.07,2.07,0,0,0,150,65v14.7h-7V65.12a9,9,0,0,1,9.13-8.81h0a9.34,9.34,0,0,1,5.48,1.75,9.36,9.36,0,0,1,5.48-1.75,9,9,0,0,1,9.17,8.78Z" transform="translate(-137.4 -22.86)" style="fill:#fff"/></svg>