<svg id="MOTO" xmlns="http://www.w3.org/2000/svg" viewBox="0 0 145.19 49.02"><path d="M138.68,49c0-5.18.08-11,.21-14.41h-.21c-1.42,6.19-4.46,16.29-7.37,25.79h-5.58c-2.22-8.3-5.35-19.82-6.68-25.88h-.21c.26,3.56.39,9.81.39,15V60.36h-6V30H123c2.37,7.92,5,17.87,5.93,22.39H129c.74-4,4.07-14.62,6.61-22.39H145V60.36h-6.32Z" transform="translate(-101.44 -29.58)"/><path d="M180.16,45.08c0,8.45-5.07,15.72-14.92,15.72-9.52,0-14.51-6.92-14.51-15.61s5.51-15.61,14.93-15.61C174.54,29.58,180.16,35.8,180.16,45.08Zm-22.65,0c0,5.93,2.6,10.41,8,10.41,5.83,0,7.9-4.89,7.9-10.29,0-5.74-2.36-10.26-8-10.26C159.9,34.91,157.51,39.15,157.51,45.05Z" transform="translate(-101.44 -29.58)"/><path d="M191.34,35.39h-9.22V30h25v5.37H197.9v25h-6.56Z" transform="translate(-101.44 -29.58)"/><path d="M238.11,45.08c0,8.45-5.07,15.72-14.92,15.72-9.53,0-14.51-6.92-14.51-15.61s5.51-15.61,14.93-15.61C232.49,29.58,238.11,35.8,238.11,45.08Zm-22.65,0c0,5.93,2.6,10.41,8,10.41,5.84,0,7.91-4.89,7.91-10.29,0-5.74-2.36-10.26-8-10.26C217.85,34.91,215.46,39.15,215.46,45.05Z" transform="translate(-101.44 -29.58)"/><path d="M108.57,72.65c0-1.55,0-3.12.06-4h0c-.35,1.35-1.71,4.93-2.66,7.56h-1c-.72-2.14-2.12-6.15-2.49-7.58h0c.07,1,.1,2.82.1,4.25v3.33h-1V67.87h1.65c1,2.58,2.11,5.93,2.4,7h0c.19-.8,1.56-4.47,2.54-7h1.61v8.34h-1.09Z" transform="translate(-101.44 -29.58)"/><path d="M116,74.88a9,9,0,0,0,.08,1.33h-1a3.05,3.05,0,0,1-.1-.8,1.91,1.91,0,0,1-1.88.94,1.84,1.84,0,0,1-2-1.85c0-1.36,1.07-2,2.88-2h1V72c0-.54-.17-1.19-1.31-1.19s-1.18.5-1.29,1h-1c.08-.84.6-1.81,2.35-1.81,1.48,0,2.31.61,2.31,2Zm-1-1.64h-1c-1.22,0-1.86.34-1.86,1.2a1.07,1.07,0,0,0,1.18,1.09c1.46,0,1.66-1,1.66-2.09Z" transform="translate(-101.44 -29.58)"/><path d="M117.81,67.4h1v1.32h-1Zm0,2.73h1v6.08h-1Z" transform="translate(-101.44 -29.58)"/><path d="M120.66,76.21V67.4h1v8.81Z" transform="translate(-101.44 -29.58)"/><path d="M134,72c0,2.3-1.29,4.34-3.92,4.34-2.46,0-3.83-1.9-3.83-4.29s1.4-4.29,3.93-4.29C132.55,67.75,134,69.51,134,72Zm-6.59,0c0,1.81.92,3.39,2.72,3.39s2.71-1.6,2.71-3.38-.88-3.32-2.71-3.32S127.43,70.22,127.43,72Z" transform="translate(-101.44 -29.58)"/><path d="M135.53,71.78c0-.85,0-1.33,0-1.65h1c0,.17,0,.65,0,1.24a2.16,2.16,0,0,1,2-1.39v1a1.94,1.94,0,0,0-2,2.23v2.95h-1.05Z" transform="translate(-101.44 -29.58)"/><path d="M144.71,67.4v7.09c0,.57,0,1.13,0,1.72h-1c0-.16-.05-.63-.06-.86a1.9,1.9,0,0,1-1.91,1c-1.56,0-2.53-1.26-2.53-3.12s1-3.25,2.72-3.25c1.08,0,1.56.44,1.72.78V67.4Zm-4.39,5.8c0,1.47.69,2.26,1.65,2.26,1.42,0,1.73-1,1.73-2.38s-.28-2.21-1.65-2.21C141,70.87,140.32,71.73,140.32,73.2Z" transform="translate(-101.44 -29.58)"/><path d="M147.13,73.36c0,1.24.63,2.12,1.67,2.12a1.42,1.42,0,0,0,1.47-.94h1a2.47,2.47,0,0,1-2.56,1.81c-1.91,0-2.69-1.55-2.69-3.12,0-1.8.91-3.25,2.76-3.25a2.59,2.59,0,0,1,2.61,2.87,4.1,4.1,0,0,1,0,.51Zm3.24-.74c0-1-.51-1.81-1.55-1.81s-1.54.75-1.65,1.81Z" transform="translate(-101.44 -29.58)"/><path d="M152.79,71.78c0-.85,0-1.33,0-1.65h1c0,.17,0,.65,0,1.24a2.18,2.18,0,0,1,2-1.39v1a1.94,1.94,0,0,0-2,2.23v2.95h-1.05Z" transform="translate(-101.44 -29.58)"/><path d="M161.94,68.81h-2.69v-.94h6.51v.94h-2.7v7.4h-1.12Z" transform="translate(-101.44 -29.58)"/><path d="M166.18,73.36c0,1.24.63,2.12,1.66,2.12a1.42,1.42,0,0,0,1.47-.94h1.06a2.47,2.47,0,0,1-2.56,1.81c-1.91,0-2.69-1.55-2.69-3.12,0-1.8.91-3.25,2.76-3.25a2.58,2.58,0,0,1,2.6,2.87,4.1,4.1,0,0,1,0,.51Zm3.24-.74c0-1-.52-1.81-1.56-1.81s-1.54.75-1.65,1.81Z" transform="translate(-101.44 -29.58)"/><path d="M171.86,76.21V67.4h1v8.81Z" transform="translate(-101.44 -29.58)"/><path d="M175.33,73.36c0,1.24.63,2.12,1.67,2.12a1.39,1.39,0,0,0,1.46-.94h1.06A2.47,2.47,0,0,1,177,76.35c-1.91,0-2.69-1.55-2.69-3.12,0-1.8.91-3.25,2.76-3.25a2.59,2.59,0,0,1,2.61,2.87,4.1,4.1,0,0,1,0,.51Zm3.24-.74c0-1-.51-1.81-1.55-1.81s-1.54.75-1.65,1.81Z" transform="translate(-101.44 -29.58)"/><path d="M182,75.46V78.6h-1v-7c0-.49,0-1,0-1.48h1a7.87,7.87,0,0,1,0,1,2.1,2.1,0,0,1,2-1.1c1.4,0,2.42,1.18,2.42,3,0,2.17-1.17,3.34-2.64,3.34A1.85,1.85,0,0,1,182,75.46Zm3.33-2.41c0-1.28-.58-2.17-1.62-2.17-1.26,0-1.76.8-1.76,2.28s.41,2.31,1.68,2.31C184.78,75.47,185.37,74.55,185.37,73.05Z" transform="translate(-101.44 -29.58)"/><path d="M188.88,67.4V71a2.05,2.05,0,0,1,1.9-1c1,0,2.05.54,2.05,2.35v3.88h-1.05V72.5c0-1-.44-1.61-1.32-1.61-1.09,0-1.58.73-1.58,2v3.32h-1V67.4Z" transform="translate(-101.44 -29.58)"/><path d="M199.85,73.16c0,1.75-1,3.19-2.86,3.19s-2.8-1.34-2.8-3.17,1-3.2,2.87-3.2C198.74,70,199.85,71.25,199.85,73.16Zm-4.58,0c0,1.33.67,2.31,1.76,2.31s1.74-.93,1.74-2.31-.62-2.31-1.76-2.31S195.27,71.78,195.27,73.17Z" transform="translate(-101.44 -29.58)"/><path d="M201.23,71.66c0-.53,0-1.06,0-1.53h1c0,.18,0,.82,0,1A1.9,1.9,0,0,1,204.19,70c1.14,0,2,.7,2,2.32v3.91h-1.05V72.43c0-.92-.35-1.54-1.28-1.54-1.15,0-1.61.88-1.61,2.1v3.22h-1.05Z" transform="translate(-101.44 -29.58)"/><path d="M208.64,73.36c0,1.24.63,2.12,1.67,2.12a1.42,1.42,0,0,0,1.47-.94h1.05a2.47,2.47,0,0,1-2.56,1.81c-1.91,0-2.69-1.55-2.69-3.12,0-1.8.91-3.25,2.76-3.25A2.59,2.59,0,0,1,213,72.85a4.1,4.1,0,0,1,0,.51Zm3.24-.74c0-1-.51-1.81-1.55-1.81s-1.54.75-1.65,1.81Z" transform="translate(-101.44 -29.58)"/><path d="M224.76,72c0,2.3-1.29,4.34-3.92,4.34-2.46,0-3.83-1.9-3.83-4.29s1.4-4.29,3.93-4.29C223.29,67.75,224.76,69.51,224.76,72Zm-6.59,0c0,1.81.93,3.39,2.72,3.39,1.94,0,2.71-1.6,2.71-3.38s-.88-3.32-2.71-3.32S218.17,70.22,218.17,72Z" transform="translate(-101.44 -29.58)"/><path d="M226.27,71.78c0-.85,0-1.33,0-1.65h1c0,.17,0,.65,0,1.24A2.17,2.17,0,0,1,229.37,70v1a1.94,1.94,0,0,0-2.05,2.23v2.95h-1Z" transform="translate(-101.44 -29.58)"/><path d="M235.45,67.4v7.09c0,.57,0,1.13,0,1.72h-1c0-.16-.05-.63-.06-.86a1.9,1.9,0,0,1-1.91,1c-1.56,0-2.52-1.26-2.52-3.12S231,70,232.69,70c1.07,0,1.55.44,1.71.78V67.4Zm-4.39,5.8c0,1.47.7,2.26,1.65,2.26,1.42,0,1.74-1,1.74-2.38s-.29-2.21-1.66-2.21C231.72,70.87,231.06,71.73,231.06,73.2Z" transform="translate(-101.44 -29.58)"/><path d="M237.88,73.36c0,1.24.63,2.12,1.66,2.12a1.42,1.42,0,0,0,1.47-.94h1.05a2.46,2.46,0,0,1-2.55,1.81c-1.92,0-2.7-1.55-2.7-3.12,0-1.8.92-3.25,2.76-3.25a2.59,2.59,0,0,1,2.61,2.87,4.1,4.1,0,0,1,0,.51Zm3.23-.74c0-1-.51-1.81-1.55-1.81s-1.54.75-1.65,1.81Z" transform="translate(-101.44 -29.58)"/><path d="M243.54,71.78c0-.85,0-1.33,0-1.65h1c0,.17,0,.65,0,1.24a2.16,2.16,0,0,1,2-1.39v1a1.94,1.94,0,0,0-2,2.23v2.95h-1.05Z" transform="translate(-101.44 -29.58)"/></svg>