<svg id="Multibanco" xmlns="http://www.w3.org/2000/svg" viewBox="0 0 52.5 67.57"><defs><style>.cls-1{fill:#2b4a9f;}.cls-1,.cls-2{fill-rule:evenodd;}.cls-2,.cls-3{fill:#221b1f;}</style></defs><path class="cls-1" d="M166.63,21.53h33.15c2.33,0,4.23,2.2,4.23,4.89v2.33c0,3.3-4.1,3.29-4.1,0V27.5A1.43,1.43,0,0,0,198.56,26H165.34A1.42,1.42,0,0,0,164,27.5v1.25c0,3.28-3.91,3.25-3.91.07v-2.4c0-2.69,1.9-4.89,4.23-4.89ZM181.83,76h21.49c4.91,0,5-5.68,4.46-8.49-.27-1.88-3.21-1.87-3.54,0v2.19a1.75,1.75,0,0,1-1.67,1.82H161.36a1.75,1.75,0,0,1-1.67-1.82V67.49c-.33-1.87-3.27-1.88-3.54,0-.5,2.81-.46,8.49,4.45,8.49h21.23Z" transform="translate(-155.84 -21.53)"/><path class="cls-2" d="M195.12,46.53h3.42v0A3.49,3.49,0,0,0,201.31,43h0a3.43,3.43,0,0,0-3.26-3.55h-6.9V58h8.75a3.54,3.54,0,0,0,3.37-3.67h0a3.54,3.54,0,0,0-3.37-3.66h-4.78a2,2,0,0,1-1.9-2.06h0a2,2,0,0,1,1.9-2.07Zm8,1.83a7.17,7.17,0,0,1,3.89,6.39h0a7.11,7.11,0,0,1-7,7.15H189.26A1.86,1.86,0,0,1,187.42,60V37.65a1.89,1.89,0,0,1,1.8-2h9c3.78,0,6.88,3.37,6.88,7.49h0A7.84,7.84,0,0,1,203.17,48.36Z" transform="translate(-155.84 -21.53)"/><path class="cls-3" d="M168,82.85a.61.61,0,0,1,.58-.63.6.6,0,0,1,.57.63v3.42h0a3,3,0,0,1-.76,2,2.5,2.5,0,0,1-1.84.83h0a2.49,2.49,0,0,1-1.83-.83,3,3,0,0,1-.77-2h0V82.85a.58.58,0,1,1,1.16,0v3.42h0a1.66,1.66,0,0,0,.42,1.11,1.43,1.43,0,0,0,1,.46h0a1.39,1.39,0,0,0,1-.46,1.62,1.62,0,0,0,.43-1.11h0Z" transform="translate(-155.84 -21.53)"/><path class="cls-3" d="M173.47,87.84a.63.63,0,0,1,0,1.26h-1.6a2.1,2.1,0,0,1-1.54-.7,2.54,2.54,0,0,1-.64-1.67h0V82.85a.58.58,0,1,1,1.16,0v3.88h0a1.13,1.13,0,0,0,.3.78.94.94,0,0,0,.72.33h1.6Z" transform="translate(-155.84 -21.53)"/><path class="cls-3" d="M185.71,59.67a2.33,2.33,0,0,1-1.93,2.59,2.21,2.21,0,0,1-2.38-2.1l-1.78-17.79-6.29,17.4v0h0l0,0v0h0v.06l0,0v0l0,0h0a2.16,2.16,0,0,1-.44.63h0l0,0a2.72,2.72,0,0,1-.38.29h0l0,0h0l0,0h-.09l0,0H172a2,2,0,0,1-.63.13h-.16a2,2,0,0,1-.71-.16l0,0h0l0,0h-.09l0,0h0l0,0h0a1.59,1.59,0,0,1-.33-.25h0l-.07-.06h0a.12.12,0,0,1-.05,0l-.06-.06h0l-.06-.08h0a3.17,3.17,0,0,1-.23-.36v0l0,0h0l0-.05h0v-.14h0v0L163,42.37l-1.78,17.79a2.21,2.21,0,0,1-2.38,2.1,2.33,2.33,0,0,1-1.93-2.59l2.1-21h0a3.62,3.62,0,0,1,.14-.73,3.52,3.52,0,0,1,.26-.68,3.64,3.64,0,0,1,2.69-2h.12a3.41,3.41,0,0,1,.55,0h0a3.29,3.29,0,0,1,.65.09A3.69,3.69,0,0,1,166,37.66l5.36,14.82,5.36-14.82a3.68,3.68,0,0,1,2.51-2.38,3.5,3.5,0,0,1,.66-.09h0a3.41,3.41,0,0,1,.55,0h.12a3.64,3.64,0,0,1,2.69,2,3.52,3.52,0,0,1,.26.68,3.62,3.62,0,0,1,.14.73h0Z" transform="translate(-155.84 -21.53)"/><path class="cls-3" d="M163.74,88.4a.63.63,0,0,1-.51.7.59.59,0,0,1-.64-.56l-.5-4.54-1.77,4.47a.56.56,0,0,1-.76.33.64.64,0,0,1-.3-.33h0L157.49,84,157,88.54a.6.6,0,0,1-.65.56.63.63,0,0,1-.5-.7l.57-5.28a1,1,0,0,1,.51-.78l.11-.06h.05l.17,0h0a.93.93,0,0,1,.81.27l.11.15a.75.75,0,0,1,.07.12l0,.07,1.5,3.79,1.5-3.79a1,1,0,0,1,.68-.6l.17,0h.18a1,1,0,0,1,.72.5h0a1.42,1.42,0,0,1,.08.18l0,.12s0,.06,0,.09h0Z" transform="translate(-155.84 -21.53)"/><path class="cls-3" d="M176,88.47a.58.58,0,1,1-1.16,0v-5h-1.65a.64.64,0,0,1,0-1.27h4.45a.64.64,0,0,1,0,1.27H176Z" transform="translate(-155.84 -21.53)"/><path class="cls-3" d="M179.61,88.47a.58.58,0,1,1-1.16,0V82.85a.58.58,0,1,1,1.16,0Z" transform="translate(-155.84 -21.53)"/><path class="cls-3" d="M191.48,88.39a.63.63,0,0,1-.5.71.6.6,0,0,1-.65-.55l-.2-1.79h-2a.6.6,0,0,1-.57-.63.61.61,0,0,1,.57-.63H190l-.06-.46h0v0c0-.11,0-.21-.07-.32a1.42,1.42,0,0,0-.12-.33,1.31,1.31,0,0,0-1.17-.85h0a1.35,1.35,0,0,0-.29,0,.85.85,0,0,0-.26.11,1.77,1.77,0,0,0-.81,1.4l-.36,3.51a.6.6,0,0,1-.64.56.63.63,0,0,1-.51-.7l.36-3.51a3.08,3.08,0,0,1,1.43-2.39,2.85,2.85,0,0,1,.51-.2,2.12,2.12,0,0,1,.57-.07h0a2.42,2.42,0,0,1,2.2,1.55,3,3,0,0,1,.2.54,2.71,2.71,0,0,1,.1.51.13.13,0,0,1,0,.06h0Z" transform="translate(-155.84 -21.53)"/><path class="cls-3" d="M193.26,88.47a.58.58,0,1,1-1.16,0V83.25h0a.45.45,0,0,1,0-.11.71.71,0,0,1,0-.2h0a.54.54,0,0,1,0-.11h0a.82.82,0,0,1,.45-.41l.08,0,.06,0H193a.78.78,0,0,1,.61.34L196.64,87V82.85a.58.58,0,1,1,1.16,0v5.2a.92.92,0,0,1-.3.69l-.12.08-.07,0h0l-.05,0h0a.75.75,0,0,1-.62,0l-.08,0-.11-.09-.08-.09,0,0h0l-3.08-4.28Z" transform="translate(-155.84 -21.53)"/><path class="cls-3" d="M202.3,87.84a.63.63,0,0,1,0,1.26h-1.71a2.17,2.17,0,0,1-1.61-.73,2.61,2.61,0,0,1-.67-1.76h0v-1.9h0A2.63,2.63,0,0,1,199,83a2.2,2.2,0,0,1,1.61-.72h1.71a.64.64,0,0,1,0,1.27h-1.71a1.08,1.08,0,0,0-.8.37,1.29,1.29,0,0,0-.33.86h0v1.9h0a1.26,1.26,0,0,0,.34.87,1.07,1.07,0,0,0,.79.36h1.71Z" transform="translate(-155.84 -21.53)"/><path class="cls-3" d="M205.65,82.22h0a2.58,2.58,0,0,1,1.89.82,2.89,2.89,0,0,1,.8,2h0v1.18h0a2.89,2.89,0,0,1-.8,2,2.59,2.59,0,0,1-1.89.83h0a2.63,2.63,0,0,1-1.9-.83,2.94,2.94,0,0,1-.8-2h0V85.07h0a2.94,2.94,0,0,1,.8-2,2.62,2.62,0,0,1,1.9-.82Zm0,1.26h0a1.53,1.53,0,0,0-1.1.48,1.59,1.59,0,0,0-.45,1.11h0v1.18h0a1.57,1.57,0,0,0,.45,1.11,1.5,1.5,0,0,0,1.1.48h0a1.49,1.49,0,0,0,1.09-.48,1.57,1.57,0,0,0,.45-1.11h0V85.07h0a1.59,1.59,0,0,0-.45-1.11A1.53,1.53,0,0,0,205.65,83.48Z" transform="translate(-155.84 -21.53)"/><path class="cls-3" d="M180.09,85.62V82.88h0a.7.7,0,0,1,0-.25.74.74,0,0,1,.14-.22h0a.55.55,0,0,1,.38-.18s0,0,0,0h2.23a1.77,1.77,0,0,1,1.31.59,2.1,2.1,0,0,1,.54,1.42h0a2.14,2.14,0,0,1-.29,1.07,2.22,2.22,0,0,1,.33.28l0,0a2.16,2.16,0,0,1,.51,1.4h0a2.15,2.15,0,0,1-.55,1.45,1.8,1.8,0,0,1-1.33.6h-2.82a.61.61,0,0,1-.58-.63V85.62Zm1.16-2.13v4.35h2.24a.7.7,0,0,0,.51-.23.87.87,0,0,0,.22-.56h0a.83.83,0,0,0-.2-.53l0,0a.67.67,0,0,0-.51-.24h-.77a.61.61,0,0,1-.58-.63h0a.61.61,0,0,1,.58-.63H183a.65.65,0,0,0,.44-.22h0a.81.81,0,0,0,.2-.53h0a.83.83,0,0,0-.2-.54.7.7,0,0,0-.49-.22h-1.68Z" transform="translate(-155.84 -21.53)"/></svg>