<svg id="Nativa" xmlns="http://www.w3.org/2000/svg" viewBox="0 0 150.08 65.93"><defs><style>.cls-1{fill:#efb80e;}.cls-2{fill:#163872;}</style></defs><path class="cls-1" d="M124.2,30.37v12.9l-7-11.16,3.68,12.42L111,35.41l7.08,11.05L106,40.07l9.9,9.1-13.48-3.39,12.12,6.41-14-.1L114,55.49l-13.48,3.18h14l-12.12,6.41,13.48-3.39L106,70.8l12.12-6.4-7.08,11,9.89-9.1-3.68,12.4,7-11.16v12.8l3.49-12a58.46,58.46,0,0,1,0-25.88L124.2,30.37Z" transform="translate(-100.54 -22.42)"/><path class="cls-2" d="M132.35,31.24l-.68,1.66a57.81,57.81,0,0,0-3,9.6,59.07,59.07,0,0,0-1.35,13,59.53,59.53,0,0,0,1.35,12.89,58.4,58.4,0,0,0,3,9.6l.68,1.64a61.22,61.22,0,0,0,4.75,8.73,77.86,77.86,0,0,1-4.75-12.8,75.77,75.77,0,0,1,0-40.24,80.83,80.83,0,0,1,4.75-12.89,70,70,0,0,0-4.75,8.82Z" transform="translate(-100.54 -22.42)"/><path class="cls-2" d="M148.92,42.2h-3.39V68.57h3.39V52a9,9,0,0,1,1.94-6.22A5.61,5.61,0,0,1,155.12,44c3.55,0,5.34,2,5.34,6.11V68.57h3.39V50a10.19,10.19,0,0,0-1.26-5.54c-1.23-1.88-3.43-2.81-6.6-2.81a8.66,8.66,0,0,0-7,3.7h-.09V42.2Z" transform="translate(-100.54 -22.42)"/><path class="cls-2" d="M171.6,53.64c-.39.13-.77.25-1.15.39-3,1.28-4.56,3.71-4.56,7.27a8,8,0,0,0,1.94,5.61,7.25,7.25,0,0,0,2.62,1.66,10.14,10.14,0,0,0,3.28.49c3.62,0,6.33-1.26,8.15-3.79H182v3.3h3.58l-.39-20c0-2.92-1.14-4.92-3.4-6a12.57,12.57,0,0,0-5.52-1,12.09,12.09,0,0,0-5.81,1.27,3.58,3.58,0,0,0-.68.39,6.29,6.29,0,0,0-3.11,5.43h3.68a4.45,4.45,0,0,1,.11-1.07A3.66,3.66,0,0,1,172,45.21,6.18,6.18,0,0,1,176,44c2.2,0,3.71.59,4.55,1.74a6.88,6.88,0,0,1,1.26,4.56v2.23L171.6,53.64Zm10.18,6.2a6.07,6.07,0,0,1-2.13,4.66,7,7,0,0,1-5,2A4.93,4.93,0,0,1,170.73,65a1.83,1.83,0,0,1-.28-.4,5.8,5.8,0,0,1-1-3.48,5.09,5.09,0,0,1,1-3.21,5.62,5.62,0,0,1,3.39-2.13l7.94-.68v4.75Z" transform="translate(-100.54 -22.42)"/><path class="cls-2" d="M194.77,36.48h-3.39V42.2h-4.66v2.43h4.66V63.52a5.19,5.19,0,0,0,1.26,3.79c.9.84,2.5,1.26,4.75,1.26l3.21-.09V65.76l-2.72.19c-1.29,0-2.13-.28-2.52-.87a6.84,6.84,0,0,1-.59-3.48v-17h5.83V42.2h-5.83V36.48Z" transform="translate(-100.54 -22.42)"/><polygon class="cls-2" points="106.64 19.68 102.87 19.68 102.87 46.15 106.64 46.15 106.64 19.68 106.64 19.68"/><polygon class="cls-2" points="102.87 14.06 102.87 17.93 106.64 17.93 106.64 14.06 102.87 14.06 102.87 14.06"/><polygon class="cls-2" points="112.75 19.78 108.97 19.78 117.61 46.15 121.47 46.15 130.01 19.78 126.81 19.78 119.74 42.08 119.63 42.08 112.75 19.78 112.75 19.78"/><path class="cls-2" d="M245.68,45.78a7.33,7.33,0,0,1,1.16,4.56v2.23l-10.18,1.07q-5.73,1.63-5.73,7.66a7.25,7.25,0,0,0,8,7.76c3.61,0,6.3-1.26,8.05-3.79h.19v3.3h3.49c-.19-2.07-.29-4.31-.29-6.69V48.6c0-4.65-3-7-9-7a11.8,11.8,0,0,0-6.58,1.66,6.35,6.35,0,0,0-3,5.43h3.69A4,4,0,0,1,237,45.21,6.39,6.39,0,0,1,241.12,44c2.13,0,3.66.59,4.56,1.74Zm-5.92,20.76a5.26,5.26,0,0,1-4-1.55,5.75,5.75,0,0,1-1.25-3.88c0-2.78,1.46-4.57,4.36-5.34l8-.68v4.75a6.18,6.18,0,0,1-2,4.66,7.1,7.1,0,0,1-5.05,2Z" transform="translate(-100.54 -22.42)"/><polygon class="cls-1" points="108.97 53.81 110.24 53.81 110.82 50.41 114.21 54.39 115.18 48.38 114.1 48.38 113.42 51.77 110.03 47.8 108.97 53.81 108.97 53.81"/><path class="cls-1" d="M226.77,72.34a1.89,1.89,0,0,1,1.35-.56,1.45,1.45,0,0,1,1.27.56l.39.4.19-1.36v-.09l-1.75-.49a3.46,3.46,0,0,0-2.23.77,2.61,2.61,0,0,0-1.16,1.94l-.1.4a2.08,2.08,0,0,0,.68,1.54,2.44,2.44,0,0,0,1.94.78l1.85-.49.09-.1.29-1.45-.59.49-1.54.58-1.17-.49a1.46,1.46,0,0,1-.38-1.26l.87-1.17Z" transform="translate(-100.54 -22.42)"/><path class="cls-1" d="M219,74.77h1.83l.39,1.46h1.27l-1.85-6-3.77,6h1.26l.87-1.46Zm1.26-2,.28,1.06h-.86l.58-1.06Z" transform="translate(-100.54 -22.42)"/><path class="cls-1" d="M241.7,71.57a2.28,2.28,0,0,0-1.94-.77,3.46,3.46,0,0,0-2.23.77,3,3,0,0,0-1.26,1.85,2.32,2.32,0,0,0,.58,2,2.76,2.76,0,0,0,2,.78l2.23-.68,1.26-1.94a2.26,2.26,0,0,0-.68-2Zm-.87.68a1,1,0,0,1,.38,1.17l-.77,1.26a2,2,0,0,1-1.46.58,1.35,1.35,0,0,1-1.16-.49,1.43,1.43,0,0,1-.38-1.26l.77-1.17a2.26,2.26,0,0,1,1.45-.56,1.43,1.43,0,0,1,1.17.47Z" transform="translate(-100.54 -22.42)"/><polygon class="cls-1" points="132.63 48.38 131.66 53.81 132.82 53.81 133.69 48.38 132.63 48.38 132.63 48.38"/><polygon class="cls-1" points="149.98 48.38 148.81 48.38 148.23 51.77 144.74 47.8 143.78 53.81 144.95 53.81 145.51 50.41 148.91 54.39 149.98 48.38 149.98 48.38"/></svg>