<svg id="Nequi" xmlns="http://www.w3.org/2000/svg" viewBox="0 0 259.66 60.19"><defs><style>.cls-1{fill:#f1257a;}.cls-2{fill:#19a7c0;}.cls-3{fill:#1f0949;}</style></defs><path class="cls-1" d="M73.42,80.1s4.91,8.65,11.69,1.28c.38-.4.77-.84,1.19-1.29-2.9-1.5-12.16-6.29-20.54-10.78C70,75.25,73.42,80.1,73.42,80.1Z" transform="translate(-48.99 -24.17)"/><path class="cls-1" d="M62.05,34.39l-6.41,3.49S48.24,42.24,52,49.27l.34-.39Z" transform="translate(-48.99 -24.17)"/><path class="cls-1" d="M86.63,26.89s-2.18-4.7-7.6-1.75l-4,2.17c2.54,1.07,11.44,4.83,18.48,7.78C89.71,30.58,86.63,26.89,86.63,26.89Z" transform="translate(-48.99 -24.17)"/><path class="cls-1" d="M106,49.58c-.48-.52-1-1.15-1.65-1.84-.91,3.34-2.94,10.83-4.78,17.68l5.85-6.49S111.19,55.19,106,49.58Z" transform="translate(-48.99 -24.17)"/><path class="cls-2" d="M52,49.27c-1.38,1.7-6.27,8.52.34,12.59,2.69,1.65,7.85,4.48,13.39,7.45-4.86-6.89-10.7-15.25-13.27-19.26C52.32,49.78,52.17,49.53,52,49.27Z" transform="translate(-48.99 -24.17)"/><path class="cls-2" d="M74.35,27s-5-3.59-7.83.7l-4.47,6.68,13-7.08Z" transform="translate(-48.99 -24.17)"/><path class="cls-2" d="M104.87,46a5.68,5.68,0,0,0-3.51-7.6c-1.63-.66-4.53-1.87-7.83-3.26,3.63,4.29,7.92,9.33,10.86,12.65C104.69,46.61,104.87,46,104.87,46Z" transform="translate(-48.99 -24.17)"/><path class="cls-2" d="M87.22,80.57s7.36,4,9.23-3.28c.65-2.51,1.86-7,3.16-11.87-4.08,4.52-9.45,10.46-13.31,14.67Z" transform="translate(-48.99 -24.17)"/><path class="cls-3" d="M93.53,35.09c-7-3-15.94-6.71-18.48-7.78l-13,7.08L52.37,48.88l-.34.39c.14.26.29.51.46.78,2.57,4,8.41,12.37,13.27,19.26C74.14,73.8,83.4,78.59,86.3,80.09c3.86-4.21,9.23-10.15,13.31-14.67,1.84-6.85,3.87-14.34,4.78-17.68C101.45,44.42,97.16,39.38,93.53,35.09Z" transform="translate(-48.99 -24.17)"/><path class="cls-3" d="M153.71,62.38,129.38,35.14a1,1,0,0,0-.73-.33h-.46a1,1,0,0,0-1,1V72.72a1,1,0,0,0,1,1h3.45a1,1,0,0,0,1-1V46.48l24.13,26.9a1,1,0,0,0,.73.32H158a1,1,0,0,0,1-1V35.79a1,1,0,0,0-1-1h-3.27a1,1,0,0,0-1,1Z" transform="translate(-48.99 -24.17)"/><path class="cls-3" d="M176.79,73.7h18.47a1.1,1.1,0,0,0,1.1-1.1V69.71a1.1,1.1,0,0,0-1.1-1.1H181.08V55.31h14.18a1.1,1.1,0,0,0,1.1-1.1V51.32a1.1,1.1,0,0,0-1.1-1.1H181.08V39.9h14.33a1.1,1.1,0,0,0,1.1-1.1V35.91a1.1,1.1,0,0,0-1.1-1.1H176.79a1,1,0,0,0-1,1V72.72A1,1,0,0,0,176.79,73.7Z" transform="translate(-48.99 -24.17)"/><path class="cls-3" d="M249.6,54.27a19.48,19.48,0,0,0-6.1-14.51,20.72,20.72,0,0,0-14.94-5.89A21.27,21.27,0,0,0,218,36.56,20,20,0,0,0,210.4,44a20.37,20.37,0,0,0-2.79,10.38,19.29,19.29,0,0,0,6.1,14.32,20.77,20.77,0,0,0,14.95,5.91A21.17,21.17,0,0,0,239.13,72l2.07,2.56a.9.9,0,0,0,.71.32l5-.2a.65.65,0,0,0,.46-1.09L243.22,69a21.33,21.33,0,0,0,4.71-6.5A19.92,19.92,0,0,0,249.6,54.27Zm-5.41,0a14.84,14.84,0,0,1-4.27,10.69l-4.6-5.74a.82.82,0,0,0-.68-.31l-4.57.18a.84.84,0,0,0-.6,1.38l6.32,7.46a16,16,0,0,1-7.29,1.68,15.24,15.24,0,0,1-11-4.4A14.5,14.5,0,0,1,213,54.41a15.28,15.28,0,0,1,2.06-7.84A15,15,0,0,1,220.78,41a15.7,15.7,0,0,1,7.8-2.07A15.88,15.88,0,0,1,236.41,41a15.19,15.19,0,0,1,5.75,5.52A14.9,14.9,0,0,1,244.19,54.24Z" transform="translate(-48.99 -24.17)"/><path class="cls-3" d="M282.7,58.14a25.23,25.23,0,0,1-.37,5.67,8.14,8.14,0,0,1-1.58,3.12,7.5,7.5,0,0,1-2.69,2,8.85,8.85,0,0,1-7.45-.21,7.25,7.25,0,0,1-2.94-2.26,7.59,7.59,0,0,1-1.22-3.41,41.6,41.6,0,0,1-.15-4.91V35.87a1.06,1.06,0,0,0-1.06-1.06h-3.15A1.06,1.06,0,0,0,261,35.87V58.14a29.68,29.68,0,0,0,.74,8.11,11.21,11.21,0,0,0,4.74,6.12,15.15,15.15,0,0,0,8.39,2.28,12.51,12.51,0,0,0,7.75-2.44,11.72,11.72,0,0,0,4.28-5.74A27.31,27.31,0,0,0,288,58.14V35.87a1.07,1.07,0,0,0-1.07-1.06h-3.15a1.07,1.07,0,0,0-1.06,1.06Z" transform="translate(-48.99 -24.17)"/><path class="cls-3" d="M303.37,35.83V72.66a1,1,0,0,0,1,1h3.2a1,1,0,0,0,1-1V35.83a1,1,0,0,0-1-1h-3.24A1,1,0,0,0,303.37,35.83Z" transform="translate(-48.99 -24.17)"/></svg>