<svg id="Netbanking" xmlns="http://www.w3.org/2000/svg" viewBox="0 0 71.52 64.99"><defs><style>.cls-1{fill-rule:evenodd;}</style></defs><path class="cls-1" d="M147.85,41.7l31.77-22.53L211.53,41.7Zm60.47,11.75a10.84,10.84,0,0,1,9.54,10.74v9.16a10.82,10.82,0,0,1-21.63,0V64.18a10.85,10.85,0,0,1,9.54-10.73v-6a1.28,1.28,0,1,1,2.56,0h0v6Zm4.56,4.91a8.26,8.26,0,0,0-14.09,5.82v9.17a8.26,8.26,0,1,0,16.52,0V64.18a8.21,8.21,0,0,0-2.42-5.82Zm-5.95,3.49h0a2.05,2.05,0,0,1,2,2V66a2.06,2.06,0,0,1-2,2h0A2.07,2.07,0,0,1,204.87,66V63.88a2.06,2.06,0,0,1,2.06-2.06ZM146.34,74.56H150V71.13H152V69.5h2.09V49.88H149.8v-4.7H202a5.49,5.49,0,0,0-.5,2.29v2.69q-.51.21-1,.45a15,15,0,0,0-3.13,2V49.88h-6.59V69.5H192v3.85h0a15,15,0,0,0,.78,4.8H146.34ZM164,71.13h2.4V69.5h2.07V49.88H161.9V69.5H164Zm14.42,0h2.41V69.5h2.08V49.88h-6.57V69.5h2.08ZM168.92,36l10.74-8.24L190.47,36Z" transform="translate(-146.34 -19.17)"/></svg>