<svg id="OCA" xmlns="http://www.w3.org/2000/svg" viewBox="0 0 237.64 62.18"><defs><style>.cls-1{fill:#80cfe3;}.cls-1,.cls-2{fill-rule:evenodd;}.cls-2{fill:#0e3192;}</style></defs><polygon class="cls-1" points="8.05 48.67 0 62.18 236.77 62.18 236.77 48.67 8.05 48.67 8.05 48.67"/><path class="cls-2" d="M124.59,32.6c.09-.17.18-.34.26-.52s.09-.26.09-.34c0-.43-.35-.78-1-.95a13.76,13.76,0,0,0-3.2-.26,10.59,10.59,0,0,0-3.3.34,3.24,3.24,0,0,0-1.81,1.73l-12,24.34c-.09.17-.09.26-.17.35v.52c0,.43.26.77.86.95a8,8,0,0,0,2.86.34,12.19,12.19,0,0,0,3.64-.43,3.23,3.23,0,0,0,1.82-1.73l12-24.34Zm28.93-.26L141.13,57.2a2.54,2.54,0,0,0-.26.43,12,12,0,0,1-7.44,6.5,43.36,43.36,0,0,1-9.27,1.38c-4,.26-10.83.44-20.52.44-12.13,0-20.18-.35-24.25-1s-6-1.64-6-3.2a7,7,0,0,1,.35-2.17,17.8,17.8,0,0,1,1-2.42L87,32.34l.17-.26a11.84,11.84,0,0,1,7.1-6.49,40.65,40.65,0,0,1,9-1.47c3.72-.26,10.82-.44,21.3-.44,13,0,21.31.35,24.86,1s5.37,1.82,5.37,3.55a6.48,6.48,0,0,1-.26,1.64c-.26.7-.61,1.48-1,2.51Zm77.59,0a16.84,16.84,0,0,0,1-2.42,4.7,4.7,0,0,0,.35-1.73c0-1.73-1.82-2.86-5.37-3.55s-11.86-1-24.85-1c-10.48,0-17.67.18-21.4.44A40.77,40.77,0,0,0,172,25.59a13,13,0,0,0-4.07,2.16,14.52,14.52,0,0,0-3.2,4.59L152.48,57.2a19.16,19.16,0,0,0-1,2.42,7,7,0,0,0-.35,2.17c0,1.56,2,2.6,6,3.2s12.12,1,24.25,1c9.7,0,16.54-.18,20.52-.44a43.25,43.25,0,0,0,9.27-1.38,12.65,12.65,0,0,0,7.62-6.76V57.2l4.76-9.27H194.65l-4.41,9a3.55,3.55,0,0,1-1.82,1.73,13,13,0,0,1-3.64.43,7.67,7.67,0,0,1-2.86-.34c-.6-.18-.86-.52-.86-.95v-.44a.86.86,0,0,1,.17-.43l12-24.34a3.68,3.68,0,0,1,1.91-1.73,10.52,10.52,0,0,1,3.29-.34,13.76,13.76,0,0,1,3.2.26c.7.17,1,.52,1,.95a2.91,2.91,0,0,0-.34.86l-2.78,5.55h28.76l2.85-5.81Zm41.75,2.26L261,50.62h9.27l3.72-16ZM261.25,23.94h34.82l-2.69,41.75H266.19l2.08-8.23H256.14l-6.32,8.23H222.89l38.36-41.75Z" transform="translate(-58.43 -23.68)"/><path class="cls-2" d="M228,80.41l5.19.17a4.88,4.88,0,0,1-1.47,1.82,18,18,0,0,1-2.25,1.3,13.44,13.44,0,0,1-2.86.78,17.44,17.44,0,0,1-3,.26,14.5,14.5,0,0,1-3.46-.43,5.56,5.56,0,0,1-2.52-1.48,2.88,2.88,0,0,1-.95-2.33,4,4,0,0,1,.09-1,6.77,6.77,0,0,1,2.08-3.21,12.27,12.27,0,0,1,3.81-2,18.52,18.52,0,0,1,4.33-.69,16.6,16.6,0,0,1,3.89.43,6.19,6.19,0,0,1,2.52,1.13,2.6,2.6,0,0,1,.86,1.9,5.81,5.81,0,0,1-.17.87l-5.37.17a1.25,1.25,0,0,0,.09-.61,1.11,1.11,0,0,0-.61-1,3.22,3.22,0,0,0-1.73-.34c-1.73.08-2.86,1.12-3.47,3.12-.17.69-.26,1.21-.34,1.64a1.57,1.57,0,0,0,.34.78,1.71,1.71,0,0,0,.78.43c.18,0,.52.09,1,.09a4.06,4.06,0,0,0,2.07-.52A2.77,2.77,0,0,0,228,80.41Zm5.11,4.16H238l1.81-2.17h5.11l.44,2.17h6.06L249,73.65H242.8l-9.69,10.92Zm11.6-4.51h-3.12l2.6-3.12.52,3.12Zm11.78-6.32h10.13a9.56,9.56,0,0,1,4.33.69,2,2,0,0,1,1.47,1.91,2.51,2.51,0,0,1-.52,1.47A4.47,4.47,0,0,1,270.34,79a8,8,0,0,1-2.33.78l1.9,4.77h-6.58l-1.47-4.16h-1.73l-1.39,4.16h-6l3.73-10.83ZM261.68,76l-.78,2.08h2.86a3.79,3.79,0,0,0,1.82-.35c.43-.26.61-.52.61-.86s-.09-.44-.44-.61a2.44,2.44,0,0,0-1.29-.26Zm10.14,8.49h7.53a22.36,22.36,0,0,0,5.63-.69,12,12,0,0,0,3.81-2,6,6,0,0,0,1.91-2.68,2.8,2.8,0,0,0,.17-1.21,3.58,3.58,0,0,0-.43-1.65,5.21,5.21,0,0,0-1.39-1.38A10.9,10.9,0,0,0,286.8,74a14.9,14.9,0,0,0-2.86-.26h-8.4l-3.72,10.74Zm6.75-2.43,2-5.89h.87a4.77,4.77,0,0,1,2.51.52,1.83,1.83,0,0,1,.78,1.48,2.9,2.9,0,0,1-.09.78A3.79,3.79,0,0,1,283,81.19a6.48,6.48,0,0,1-3.73.86Z" transform="translate(-58.43 -23.68)"/></svg>