<svg id="OnePay" xmlns="http://www.w3.org/2000/svg" viewBox="0 0 354.6 114.32"><defs><style>.cls-1{fill:#1d559f;}.cls-2{fill:#00a7d7;}</style></defs><path class="cls-1" d="M90.44,29.2c8.64,0,15.69,7.49,15.69,16.68s-7,16.68-15.69,16.68S74.77,55.08,74.77,45.88s7-16.68,15.69-16.68m0-7.27c-12.67,0-22.93,10.72-22.93,24s10.28,24,22.93,24,22.93-10.72,22.93-24-10.29-24-23-24Z"/><path class="cls-1" d="M183.86,49.52a16.75,16.75,0,0,0-16.25-14c-9.12,0-16.53,7.7-16.53,17.17s7.41,17.17,16.53,17.17a16.58,16.58,0,0,0,14.66-9.19l-6.61-1.58A9.73,9.73,0,0,1,158,55.48h25.91A23.68,23.68,0,0,0,184.1,53,24.76,24.76,0,0,0,183.86,49.52Zm-25.86,0a9.91,9.91,0,0,1,19.23,0Z"/><path class="cls-1" d="M208,21.93H189.38V69.84h7.82V51.7H208a14.89,14.89,0,0,0,0-29.77Zm0,22.77H197.2V28.93H208a7.89,7.89,0,0,1,0,15.77Z"/><path class="cls-1" d="M248.26,35.65v4.4a12.87,12.87,0,0,0-9.47-4.42c-9,0-16.31,7.67-16.31,17.12s7.3,17.13,16.31,17.13a13.68,13.68,0,0,0,9.47-4.15v4.12h7V35.65Zm-9.47,27.21c-5.13,0-9.3-4.54-9.3-10.12s4.17-10.12,9.3-10.12,9.75,3.65,9.75,10.12-4.63,10.12-9.75,10.12Z"/><polygon class="cls-1" points="273.18 52.27 266.11 35.62 258.49 35.62 269.2 60.81 273.18 52.27"/><polygon class="cls-2" points="279.87 35.62 282.19 41.08 274.99 56.52 274.99 56.52 271.01 65.06 271.01 65.06 260.8 86.95 268.83 86.95 292.77 35.62 279.87 35.62"/><path class="cls-1" d="M134.51,35.42a15.16,15.16,0,0,0-10.66,4V35.62h-7V69.84h7V51c0-4.14,2.92-8.6,9.33-8.6,6.88,0,7.64,6.06,7.64,8.66V69.84h7V50.22C147.81,42.42,143.14,35.42,134.51,35.42Z"/></svg>