<svg id="Layer_102" data-name="Layer 102" xmlns="http://www.w3.org/2000/svg" viewBox="0 0 197.11 64.63"><defs><style>.cls-1{fill:#4c3491;}</style></defs><path class="cls-1" d="M112.58,86.58c-17.84.16-32.07-13.94-32.1-32.24a32,32,0,1,1,64,.07C144.46,72.6,130.26,86.71,112.58,86.58ZM92.48,54.65c.11,1.09.22,2.51.4,3.93a15.31,15.31,0,0,0,.39,1.88c2.12,8.53,9,14.83,17.62,15.45a18.69,18.69,0,0,0,16.8-7.22c5.77-7.2,6.42-18,1.74-26.24a19.35,19.35,0,0,0-27.58-6.67C95.29,40.15,92.69,46.65,92.48,54.65Z" transform="translate(-80.48 -21.99)"/><path class="cls-1" d="M245.59,22c17.33-.26,32,13.55,32,32.3,0,18.49-14.23,31.86-31.11,32.26-18.65.45-33-14.08-32.93-32.4S227.88,21.82,245.59,22Zm20.16,32.31c-.3-2-.46-4.05-.92-6-2.07-8.8-9-14.86-17.12-15.61-7.08-.65-13.12,1.63-17.37,7.32-6,8-6.43,16.75-2,25.55a19.37,19.37,0,0,0,31,4.66C263.7,65.87,265.49,60.43,265.75,54.35Z" transform="translate(-80.48 -21.99)"/><path class="cls-1" d="M147.1,23.7h2.24c7.37,0,14.74,0,22.12,0,1,0,1.38.2,1.34,1.29-.08,2.61-.07,5.23,0,7.84,0,1-.21,1.47-1.35,1.4-1.56-.11-3.13,0-4.9,0,4.92,11.63,9.76,23.09,14.66,34.69,4.73-11.6,9.41-23.06,14.15-34.67h-6.07V23.77H209.6c-.21,2.48.43,4.93-.62,7.38C203.86,43,198.83,54.93,193.76,66.82c-2.65,6.21-5.32,12.4-7.92,18.63A1.67,1.67,0,0,1,184,86.61a10.49,10.49,0,0,1-9.54-4.52,28.43,28.43,0,0,1-2.42-4.88Q163,56.32,154,35.41a1.74,1.74,0,0,0-2-1.26c-1.32.11-2.65,0-4,0-.63,0-.91-.15-.9-.83C147.11,30.21,147.1,27.06,147.1,23.7Z" transform="translate(-80.48 -21.99)"/></svg>