<svg id="OXXO" xmlns="http://www.w3.org/2000/svg" viewBox="0 0 127.3 64.51"><defs><style>.cls-1{fill:#fff;}.cls-2{fill:#f7b111;}.cls-3{fill:#e61420;}</style></defs><path class="cls-1" d="M118.76,31.69A7.67,7.67,0,0,1,126.4,24h112A7.67,7.67,0,0,1,246,31.69V80.43a7.67,7.67,0,0,1-7.63,7.7h-112a7.67,7.67,0,0,1-7.64-7.7Z" transform="translate(-118.76 -23.82)"/><path class="cls-2" d="M118.85,30.91a7.06,7.06,0,0,1,7-7.09H239a7.06,7.06,0,0,1,7,7.09v.22H118.85ZM246.06,81.07v.18a7,7,0,0,1-7,7.08H125.87a7,7,0,0,1-7-7.08v-.18Z" transform="translate(-118.76 -23.82)"/><path class="cls-3" d="M206.89,56a17.77,17.77,0,1,0,17.77-17.93A17.85,17.85,0,0,0,206.89,56Zm-84.73,0a17.78,17.78,0,1,0,17.77-17.93A17.86,17.86,0,0,0,122.16,56Zm123.9,21.68H158.43A22.68,22.68,0,0,0,163.09,73L172,61.47l3.9,5,4.34-5.83-3.79-4.87L185.54,44c2.89-3.71-2.63-8.07-5.51-4.36L172,50l-8.17-10.48c-2.88-3.7-8.39.67-5.5,4.38l9.22,11.83-10,12.85c-3.54,4.56-7.08,8.75-14.11,9.08H118.85V34.53H206a23,23,0,0,0-4.44,4.56l-8.93,11.49-3.9-5-4.33,5.82,3.79,4.87L179.11,68c-2.88,3.71,2.64,8.08,5.52,4.36l8-10.34,8.16,10.48c2.89,3.71,8.4-.67,5.51-4.37L197.1,56.3l10-12.84c3.25-4.21,6.51-8.08,12.47-8.93h26.5ZM214,56a10.64,10.64,0,1,1,10.64,10.74A10.69,10.69,0,0,1,214,56Zm-84.73,0a10.64,10.64,0,1,1,10.64,10.74A10.7,10.7,0,0,1,129.29,56" transform="translate(-118.76 -23.82)"/></svg>