<svg xmlns="http://www.w3.org/2000/svg" viewBox="0 0 66.08 66.08"><defs><style>.cls-1{isolation:isolate;}.cls-2{fill:#fff;}.cls-3{fill:#f5e419;}.cls-4{fill:#ea1486;fill-rule:evenodd;}.cls-5{fill:#224198;}.cls-6{mix-blend-mode:multiply;}.cls-7{fill:#900579;}</style></defs><g class="cls-1"><g id="Pago_Facil" data-name="Pago Facil"><circle class="cls-2" cx="33.04" cy="33.04" r="33.04"/><circle class="cls-3" cx="33.04" cy="33.04" r="31.43"/><path class="cls-2" d="M212.22,49.77a.86.86,0,0,0-.32-.05,1,1,0,0,0-.24,0l-10.09,2.58-4.78-17.68a1,1,0,0,0-1-.74,1.15,1.15,0,0,0-.26,0l-28.78,7.53a1,1,0,0,0-.71,1.21l4.42,17.53-9.72,2.58a1,1,0,0,0-.74.89v.17a1,1,0,0,0,.6.85l30.69,13.44a1.1,1.1,0,0,0,.4.08,1,1,0,0,0,.79-.39l20.19-26.48a1,1,0,0,0,.22-.62A1,1,0,0,0,212.22,49.77Z" transform="translate(-152.24 -21.97)"/><polygon class="cls-4" points="59.65 28.77 59.67 28.75 48.63 31.58 43.59 12.94 14.81 20.47 19.48 38.96 8.8 41.79 8.84 41.81 8.8 41.81 39.49 55.25 59.7 28.76 59.65 28.77"/><path class="cls-2" d="M211.32,43.67v0l-.12-.42a1.42,1.42,0,0,0-.08-.18l-.24-.49a5.65,5.65,0,0,0-.65-1,5.16,5.16,0,0,0-.8-.82l0,0a7,7,0,0,0-2.05-1.12,9.66,9.66,0,0,0-5.62,0,11.15,11.15,0,0,0-4.13,1.94,7,7,0,0,0-2.32,2.95l-.06.16a4.94,4.94,0,0,0-1.24-1,6.65,6.65,0,0,0-3-.8,9.66,9.66,0,0,0-1.72.05,13.6,13.6,0,0,0-1.76.35,12,12,0,0,0-3.2,1.29l-.35.22a1.1,1.1,0,0,0-.38.27A7.36,7.36,0,0,0,182,46.62a6.43,6.43,0,0,0-1.23,3l-2.48-3a1.13,1.13,0,0,0-1.15-.38l-4.5,1.16a1.14,1.14,0,0,0-.82.85L171.48,50a3.56,3.56,0,0,0-.77-.48,5.62,5.62,0,0,0-2.57-.49,12.12,12.12,0,0,0-3.24.46l-6.43,1.67a1.13,1.13,0,0,0-.82,1.35l2.3,9.87a1.14,1.14,0,0,0,.51.72,1.21,1.21,0,0,0,.59.16.9.9,0,0,0,.28,0L175,59.62a1.15,1.15,0,0,0,.84-1L176,58l2.91-.75.39.55a1.16,1.16,0,0,0,1.21.43l4.38-1.14a1.11,1.11,0,0,0,.79-.74l0-.09A9.79,9.79,0,0,0,190,56a8.74,8.74,0,0,0,3.22-1.5h0a1.09,1.09,0,0,0,.93.17L197,54a1.13,1.13,0,0,0,.81-1.35s.68-.55,1.21-.36a9.77,9.77,0,0,0,5.68,0,11.1,11.1,0,0,0,4.12-1.95,7,7,0,0,0,2.35-3.12A5.7,5.7,0,0,0,211.32,43.67Z" transform="translate(-152.24 -21.97)"/><path class="cls-5" d="M210.57,43.91l-.13-.42-.26-.52A4.63,4.63,0,0,0,209,41.44a6.18,6.18,0,0,0-1.78-1,8.78,8.78,0,0,0-5.08.06,10.13,10.13,0,0,0-3.78,1.78,5.92,5.92,0,0,0-2,2.54,5.08,5.08,0,0,0-.21,2.85l.3.85.12.37v0a5,5,0,0,0,2.94,2.43,6.82,6.82,0,0,0,2.23.35,11.43,11.43,0,0,0,2.91-.41,10.08,10.08,0,0,0,3.77-1.78,6,6,0,0,0,2.05-2.69A4.83,4.83,0,0,0,210.57,43.91Zm-7.84-.59a2.51,2.51,0,0,1,1.71.06,2.29,2.29,0,0,1,1.08,1.09,3.39,3.39,0,0,1,.28,2.45,2.27,2.27,0,0,1-1.85,1.6,2.12,2.12,0,0,1-2.74-1.13,3.8,3.8,0,0,1-.09-3,2.41,2.41,0,0,1,1.61-1.11Z" transform="translate(-152.24 -21.97)"/><path class="cls-5" d="M189.34,48.83l.52,2.2,2-.56a2.73,2.73,0,0,1-.61,1,3.22,3.22,0,0,1-1.26.65c-1.44.37-2.39.05-2.92-1a3.85,3.85,0,0,1-.15-3A2.42,2.42,0,0,1,188.5,47a2,2,0,0,1,2.36.58l.08.11,4.54-1.18-.13-.27a4.06,4.06,0,0,0-1.68-1.73,5.61,5.61,0,0,0-2.56-.68,7.94,7.94,0,0,0-1.56,0A12.9,12.9,0,0,0,185,45.39a6.74,6.74,0,0,0-2,1.79,5.22,5.22,0,0,0-.94,4.44l.12.54.29.62.18.33-4.92-6L173,48.36l-.89,4a3.39,3.39,0,0,0-.26-.7,2.9,2.9,0,0,0-1.34-1.32,4.89,4.89,0,0,0-2.17-.4,11.17,11.17,0,0,0-3,.44l-6.62,1.71,2.38,10.26,4.78-1.24L165.11,58l2.07-.54a8.19,8.19,0,0,0,4.21-2.17l-1,4.61,4.72-1.22.18-1.44,4.15-1.08.84,1.18,4.81-1.25-1.68-2a5.26,5.26,0,0,0,1.93,1.09,8.22,8.22,0,0,0,4.64,0,7,7,0,0,0,3.64-2.06l.35.77,3.14-.82-1.33-5.83Zm-11.13,5.4L175.4,55,176,51Zm-13.74,1.09-.52-2,1.59-.42c.85-.23,1.49-.29,1.82.24a1.12,1.12,0,0,1-.05,1.09,2.21,2.21,0,0,1-1.13.65C165.76,55,164.47,55.32,164.47,55.32Z" transform="translate(-152.24 -21.97)"/><g class="cls-6"><path class="cls-7" d="M197.39,62a9.22,9.22,0,0,1,.62-.78,22.34,22.34,0,0,0,2.85-4.09c.24-.47.61-1.22.82-1.71a.36.36,0,0,0-.09-.42.58.58,0,0,0-.93,0,12.9,12.9,0,0,0-4.27,6.38,1,1,0,0,1-.2.38l-2.35,2.51a.92.92,0,0,1-.25.19c-.07,0-.19.08-.24,0s-.06-.14-.08-.23a.3.3,0,0,1,0-.13c.14-.51.25-1,.43-1.53s.42-.94.64-1.41c0-.12.1-.26-.09-.26a1,1,0,0,0-1.09.53,3.25,3.25,0,0,1-.33.61c-.77.92-1.54,1.84-2.35,2.73a4.09,4.09,0,0,1-1.83,1.18c-.2.06-.33,0-.35-.21a2.45,2.45,0,0,1,0-.54,4.89,4.89,0,0,1,1.26-2.33,2.38,2.38,0,0,1,1-.67.5.5,0,0,1,0,.28c-.21.28-.43.54-.64.82a1.23,1.23,0,0,0-.09.23c.09,0,.19.08.27.06a3,3,0,0,0,.64-.26,1.86,1.86,0,0,0,.94-1.29.51.51,0,0,0-.56-.65h-.16a5.08,5.08,0,0,0-2.27,1.38,4,4,0,0,0-.42.5c-.78.93-1.57,1.85-2.35,2.77a3.11,3.11,0,0,1-.37.35c0-.06,0-.09,0-.11a7.59,7.59,0,0,1,.27-.93c.26-.64.55-1.26.83-1.89.06-.13.08-.26-.05-.36a.51.51,0,0,0-.7,0c-.23-.31-.52-.23-.79-.07a4.57,4.57,0,0,0-.71.51A8.93,8.93,0,0,0,182.08,67a2.3,2.3,0,0,0-.2,1.1.65.65,0,0,0,1,.49,2.25,2.25,0,0,0,.43-.38c.35-.49.69-1,1-1.51a1,1,0,0,0,.07-.25l.09,0c0,.1,0,.19.05.29a4.79,4.79,0,0,0,.17.75c.15.43.46.51.77.19s.67-.75,1-1.15.51-.7.78-1.07c0,.18,0,.33,0,.48.15.88.66,1.33,1.58.9a4.94,4.94,0,0,0,.88-.54,12.06,12.06,0,0,0,2.17-2.23l.42-.53-.1.56a1.83,1.83,0,0,0,.06.87.85.85,0,0,0,1,.61,1.4,1.4,0,0,0,1-.48c.49-.56,1-1.14,1.44-1.72.13-.17.25-.35.36-.51.08.28.14.56.24.82a.94.94,0,0,0,1.48.59,2.84,2.84,0,0,0,.73-.56,30.93,30.93,0,0,0,3.1-4.35c.11-.18.08-.29-.12-.43l-.13.16c-.71.86-1.4,1.74-2.12,2.59a7.84,7.84,0,0,1-1.53,1.46c-.29.2-.45.14-.54-.19A1.19,1.19,0,0,1,197.39,62Zm3-5.84a13.75,13.75,0,0,1-2.52,4.21A17,17,0,0,1,200.36,56.16Zm-17.09,11-.07,0a1.09,1.09,0,0,1,0-.26A7.16,7.16,0,0,1,185.11,64c.14-.11.31-.19.46-.29l.05.07A32.61,32.61,0,0,1,183.27,67.16Z" transform="translate(-152.24 -21.97)"/><path class="cls-7" d="M183,63.75a2.9,2.9,0,0,0-.27-.41.61.61,0,0,0-.32-.13,2.19,2.19,0,0,0-.51,0,7.15,7.15,0,0,0-2,.46l-.55.18.06-.15,1.25-1.95c.2-.31.2-.33-.14-.55.21-.08.38-.16.57-.22L185,59.72l1-.3a1.21,1.21,0,0,0,.14-.1.55.55,0,0,0-.12-.14,3.11,3.11,0,0,0-1.48-.5,7.55,7.55,0,0,0-2.17.26,24.59,24.59,0,0,0-4.21,1.51c-.3.13-.59.28-.92.43l.14-.32a1.62,1.62,0,0,0-.36.1c-.36.2-.73.4-1.08.63a4.83,4.83,0,0,0-.76.59.4.4,0,0,0,0,.61.69.69,0,0,0,.68.26,13.26,13.26,0,0,0,1.37-.38c.8-.29,1.6-.61,2.39-.91l.25-.07,0,0c-.13.16-.26.3-.38.47-.53.77-1.07,1.54-1.6,2.33a1.23,1.23,0,0,1-.5.43c-.31.13-.61.28-.91.44a.31.31,0,0,0-.08.52,2.8,2.8,0,0,0,.28.31.27.27,0,0,1,0,.39A5.37,5.37,0,0,0,176,69a.67.67,0,0,0,.1.39,1.37,1.37,0,0,0,.9.33c0-.26,0-.49.08-.72s.14-.46.22-.69c.26-.66.53-1.33.77-2a1.16,1.16,0,0,1,.69-.74l3.85-1.63A2.17,2.17,0,0,0,183,63.75Z" transform="translate(-152.24 -21.97)"/><path class="cls-7" d="M185.62,61.89a.36.36,0,0,0,0,.27.28.28,0,0,0,.25,0,10.38,10.38,0,0,0,1.05-.67,2.35,2.35,0,0,0,.81-1.08,2.76,2.76,0,0,0,.09-.54,2.16,2.16,0,0,0-.39-.49.36.36,0,0,0-.61.22,4.7,4.7,0,0,1-1.07,2A.78.78,0,0,0,185.62,61.89Z" transform="translate(-152.24 -21.97)"/><path class="cls-7" d="M194.57,59.6l.17-.09a2,2,0,0,0,.71-.93.36.36,0,0,0-.13-.49.31.31,0,0,0-.46,0,3.16,3.16,0,0,0-.54.62,1.38,1.38,0,0,0-.16.64C194.14,59.58,194.33,59.68,194.57,59.6Z" transform="translate(-152.24 -21.97)"/></g><path class="cls-2" d="M197,61.65c.19-.27.41-.52.62-.78a22.12,22.12,0,0,0,2.85-4.08c.25-.48.62-1.22.83-1.72a.36.36,0,0,0-.09-.42.59.59,0,0,0-.94,0A12.92,12.92,0,0,0,196,61a.89.89,0,0,1-.2.37c-.78.85-1.56,1.68-2.35,2.52a1.18,1.18,0,0,1-.25.19c-.07,0-.18.07-.23,0s-.07-.15-.08-.23a.32.32,0,0,1,0-.14c.14-.51.25-1,.43-1.53s.42-.94.64-1.41c.06-.12.1-.25-.09-.26a1,1,0,0,0-1.08.53,3.34,3.34,0,0,1-.33.62c-.77.91-1.54,1.83-2.35,2.72a4.08,4.08,0,0,1-1.83,1.19c-.21.06-.33,0-.35-.22a1.56,1.56,0,0,1,0-.53,4.86,4.86,0,0,1,1.25-2.34,2.56,2.56,0,0,1,1-.67.43.43,0,0,1,0,.28c-.2.28-.42.55-.63.82a.8.8,0,0,0-.1.23c.09,0,.2.09.27.06a2.39,2.39,0,0,0,.64-.26,1.85,1.85,0,0,0,.95-1.29c.07-.41-.15-.65-.57-.65l-.15,0a5.09,5.09,0,0,0-2.28,1.37,4.16,4.16,0,0,0-.41.51l-2.36,2.77c-.1.12-.23.22-.36.35,0-.07,0-.09,0-.12a7,7,0,0,1,.28-.92c.26-.64.55-1.27.83-1.9.05-.13.08-.26-.05-.36a.52.52,0,0,0-.71,0c-.23-.31-.51-.23-.78-.06a3.94,3.94,0,0,0-.71.5,8.82,8.82,0,0,0-2.29,3.45,2.33,2.33,0,0,0-.21,1.1.65.65,0,0,0,1,.49,1.57,1.57,0,0,0,.43-.38c.36-.49.69-1,1-1.51a.67.67,0,0,0,.07-.24l.1,0c0,.09,0,.19.05.28a6.41,6.41,0,0,0,.16.76c.15.42.47.5.78.18s.67-.75,1-1.14.52-.71.79-1.08a3.32,3.32,0,0,0,0,.48c.14.88.66,1.34,1.58.9a4.9,4.9,0,0,0,.88-.53,12.38,12.38,0,0,0,2.17-2.23l.41-.53c0,.22-.07.39-.09.56a1.58,1.58,0,0,0,.06.86.87.87,0,0,0,1,.62,1.48,1.48,0,0,0,1-.48c.5-.57,1-1.15,1.44-1.73.14-.16.25-.35.37-.51.08.28.14.56.24.82a.94.94,0,0,0,1.47.6,2.53,2.53,0,0,0,.73-.57,29.66,29.66,0,0,0,3.11-4.35c.11-.18.07-.28-.13-.43l-.13.17c-.7.86-1.4,1.73-2.12,2.58a8.2,8.2,0,0,1-1.53,1.47c-.29.19-.44.13-.54-.2A1.19,1.19,0,0,1,197,61.65Zm3-5.83a13.68,13.68,0,0,1-2.51,4.2A17.19,17.19,0,0,1,200,55.82Zm-17.09,11-.07,0a2,2,0,0,1,0-.26,7.18,7.18,0,0,1,1.88-2.84,3,3,0,0,1,.46-.3l.05.07A31.64,31.64,0,0,1,182.89,66.81Z" transform="translate(-152.24 -21.97)"/><path class="cls-2" d="M182.59,63.41a3.07,3.07,0,0,0-.28-.42.62.62,0,0,0-.32-.13,2.15,2.15,0,0,0-.51,0,7.77,7.77,0,0,0-2,.46l-.56.18a1.16,1.16,0,0,1,.07-.15l1.24-2c.2-.31.2-.33-.13-.55a5.66,5.66,0,0,1,.56-.21c1.31-.42,2.63-.82,3.94-1.23.33-.1.66-.19,1-.3.06,0,.1-.07.14-.1a.35.35,0,0,0-.11-.13,3.16,3.16,0,0,0-1.49-.51,7.84,7.84,0,0,0-2.16.26,24,24,0,0,0-4.21,1.51l-.92.43.13-.32a1.68,1.68,0,0,0-.35.1c-.37.2-.74.4-1.09.63a5.41,5.41,0,0,0-.76.6c-.2.19-.19.37,0,.6a.64.64,0,0,0,.68.26,11.15,11.15,0,0,0,1.37-.38c.8-.29,1.59-.61,2.39-.91a1.83,1.83,0,0,1,.25-.06v0c-.12.16-.26.31-.37.47-.54.77-1.08,1.55-1.6,2.33a1.13,1.13,0,0,1-.51.43,7.56,7.56,0,0,0-.9.45.31.31,0,0,0-.08.52,2.52,2.52,0,0,0,.27.3.29.29,0,0,1,.06.4,5.32,5.32,0,0,0-.71,2.68.59.59,0,0,0,.1.38,1.25,1.25,0,0,0,.89.33,6.86,6.86,0,0,1,.09-.71A4,4,0,0,1,177,68c.25-.67.52-1.33.76-2a1.18,1.18,0,0,1,.69-.74l3.86-1.63C182.37,63.54,182.48,63.47,182.59,63.41Z" transform="translate(-152.24 -21.97)"/><path class="cls-2" d="M185.24,61.55a.3.3,0,0,0,.06.26.27.27,0,0,0,.25,0,11.48,11.48,0,0,0,1-.67,2.37,2.37,0,0,0,.82-1.08,3.89,3.89,0,0,0,.09-.53,2.58,2.58,0,0,0-.4-.5.36.36,0,0,0-.6.22,4.72,4.72,0,0,1-1.08,2A1,1,0,0,0,185.24,61.55Z" transform="translate(-152.24 -21.97)"/><path class="cls-2" d="M194.2,59.26l.17-.1a2,2,0,0,0,.71-.93.37.37,0,0,0-.13-.49.32.32,0,0,0-.47,0,3.94,3.94,0,0,0-.54.62,1.55,1.55,0,0,0-.16.64C193.77,59.23,194,59.33,194.2,59.26Z" transform="translate(-152.24 -21.97)"/></g></g></svg>