<svg id="Pago_Efectivo" data-name="Pago Efectivo" xmlns="http://www.w3.org/2000/svg" viewBox="0 0 124.2 65.76"><defs><style>.cls-1{fill:#fdce12;}.cls-1,.cls-2,.cls-3,.cls-4{fill-rule:evenodd;}.cls-2{fill:#fefefe;}.cls-3{fill:#f8b70d;}.cls-4{fill:#f7df77;}</style></defs><path class="cls-1" d="M111.73,21.54H235.94V87.3H111.73Z" transform="translate(-111.73 -21.54)"/><path class="cls-2" d="M155.13,58.78a54,54,0,0,1-6.87,5.16A90.76,90.76,0,0,1,132.16,72c-1.83.71-4,1.13-5.82.17a5,5,0,0,1-2.41-3,21.85,21.85,0,0,1-.62-3c-1.42-7.91-.81-17.14.79-25,.39-1.95,1.32-4.6,3.4-5.3a6,6,0,0,1,3.16-.1,6.49,6.49,0,0,1,1,.29,67.58,67.58,0,0,1,18.63,10.19c1.62,1.27,3.4,2.59,4.89,4a6.3,6.3,0,0,1,2.11,3.34,4.27,4.27,0,0,1,0,1.13,5.79,5.79,0,0,1-2.16,4.07Z" transform="translate(-111.73 -21.54)"/><path class="cls-3" d="M125.25,68.77c.49,1.49,2,3.66,6.4,1.94,6.4-2.48,15.95-7,22.6-13a4.37,4.37,0,0,0,1.64-3.09c.16-2.05-1.44-3.29-6.52-7.27a65.17,65.17,0,0,0-18.26-10,4.66,4.66,0,0,0-.75-.23,4.71,4.71,0,0,0-2.41.05c-1.3.44-2.1,2.36-2.49,4.26s-2.73,13.59-.78,24.51a25.3,25.3,0,0,0,.57,2.83Z" transform="translate(-111.73 -21.54)"/><path class="cls-4" d="M126.11,39.29h0a15.1,15.1,0,0,0-.52,3v0a12.92,12.92,0,0,1,5.76-.29c8.37,1,17,5.74,21.61,8.58l1.26.75c-.33-.32-.71-.67-1.16-1h0l-.09-.08,0,0a3.11,3.11,0,0,1-.28-.23l0,0-.1-.08,0,0-.05,0-.1-.08-.05,0-.1-.09-.06,0-.1-.09-.06,0-.1-.09-.06,0-.06,0-.05,0-.06,0-.05-.05-.12-.09-.06-.05,0,0-.06,0-.06,0-.12-.09-.06,0-.06-.05-.06,0h0l-.07,0-.06-.05-.06,0h0l-.05,0-.07-.05-.06,0,0,0,0,0-.06,0-.07,0-.05-.05h0L150.2,48l-.06,0-.07,0h0l-.06,0-.07,0-.07-.05,0,0-.05,0-.06,0-.07-.06,0,0h0l-.08-.06-.07,0-.07-.06a65.17,65.17,0,0,0-18.26-10,4.66,4.66,0,0,0-.75-.23,4.71,4.71,0,0,0-2.41.05l-.06,0h0l0,0h0l0,0h0l0,0h0l0,0h0l0,0h0l0,0h0l0,0h0l0,0h0l-.05,0h0l-.05,0h0l0,0h0l0,0h0l0,0h0l0,0h0l0,0h0l0,0h0l0,0h0l0,.05h0l0,0h0l0,.05h0l0,.05h0l0,0v0l0,.05h0l0,.06h0Zm.72-.79,0,0Zm-.5.51,0,.05Zm-.1.14,0,.05Zm0,.06h0l0,.06h0l0,.06h0l0,.06h0l0,.06h0l0,0v0l0,.06h0l0,.06h0l0,0v0l0,.06v0l0,.06h0l0,.07v0l0,.06v0Zm.1-.23,0,.06Zm-.1.23Z" transform="translate(-111.73 -21.54)"/><path class="cls-1" d="M125.6,42.29a12.92,12.92,0,0,1,5.76-.29c8.37,1,17,5.74,21.61,8.58-3.89,11.26-21,19.33-21,19.33-2-2-4-4-5.92-18a46,46,0,0,1-.46-9.57Z" transform="translate(-111.73 -21.54)"/><path d="M165.39,37.94a41.23,41.23,0,0,1,5.56-.21,6.16,6.16,0,0,1,3.51,1.08,3.15,3.15,0,0,1,.83,2.78,6.84,6.84,0,0,1-1.62,4.62A6.18,6.18,0,0,1,169.8,48a15,15,0,0,1-4.13,0c-.34,1.33-.68,2.66-.94,4-.07.4-.23.86-.68,1s-1.05,0-1.57,0a2.18,2.18,0,0,1-.95-.07c-.28-.16-.1-.53-.1-.78q.57-2.82,1.16-5.64a10.09,10.09,0,0,1,.4-1.62c1.48,0,3,0,4.46,0a1.21,1.21,0,0,1,.66.19,7.13,7.13,0,0,0-.17,1.29A15.7,15.7,0,0,0,170,44.78a23.85,23.85,0,0,0,2.22-2c-1-1.25-2-2.48-3-3.72-.3.42-.13,1.1-.63,1.36a10.48,10.48,0,0,1-2.17,0,13.68,13.68,0,0,1-2.56-.09,4.08,4.08,0,0,1,.41-2c.24-.37.74-.38,1.13-.45Zm12,4.4a7.31,7.31,0,0,1,4.39.06,2.34,2.34,0,0,1,1.47,1.66c.33,1.32-.15,2.64-.34,3.95s-.45,2.7-.68,4.05a1.22,1.22,0,0,1-.79,1.11,14,14,0,0,1-4.32.38,3.73,3.73,0,0,1-2.81-1.21,3.65,3.65,0,0,1-.23-3,2.94,2.94,0,0,1,1.81-2.18,13.14,13.14,0,0,1,3.65-.45c.3,0,.67,0,.93-.19a2.49,2.49,0,0,0,.11-1.59c-.23-.58-1-.65-1.49-.62a10.61,10.61,0,0,0-3.28.68,2.33,2.33,0,0,1,.05-1.78,2.43,2.43,0,0,1,1.53-.85Zm-.72,7.19a2,2,0,0,0-.06,1.4,2.29,2.29,0,0,0,2.19.63c.38-.06.95-.14,1-.63a9.51,9.51,0,0,0,.25-2.37,9.33,9.33,0,0,0-2.53.1A1.2,1.2,0,0,0,176.71,49.53Zm10.91-7.09a10.77,10.77,0,0,1,5.69,0,2.22,2.22,0,0,1,1,.35,1.17,1.17,0,0,1,.06.88c-.64,3.51-1.21,7-1.91,10.52a3.73,3.73,0,0,1-1.67,2.65,8,8,0,0,1-3.8.59,4.54,4.54,0,0,1-3.3-1.1c-.22-.52.13-1.06.31-1.54a4.61,4.61,0,0,1,.82.11,9.81,9.81,0,0,0,4.14.24c.73-.18.88-1,.94-1.66a6.74,6.74,0,0,1-3.9-.33,3.15,3.15,0,0,1-1.77-2.58,13.38,13.38,0,0,1,1-5.76,4.05,4.05,0,0,1,2.39-2.32Zm2,1.74a2.79,2.79,0,0,0-1.81,1.21,5,5,0,0,0-.58,1.78,9.14,9.14,0,0,0-.25,3.33,1.17,1.17,0,0,0,1,.82,4.94,4.94,0,0,0,2.29-.12c.25-.05.26-.34.32-.54.33-1.82.62-3.65.95-5.48a1.33,1.33,0,0,0,0-.74,2.78,2.78,0,0,0-1.88-.26Zm10.06-2.11a5.29,5.29,0,0,1,3.37.49,3.48,3.48,0,0,1,1.71,2.84,13.33,13.33,0,0,1-.52,3.92,6,6,0,0,1-1.57,2.91,5.52,5.52,0,0,1-5.52,1.06,3.17,3.17,0,0,1-2-2.29,9.39,9.39,0,0,1,.47-5.34,5.26,5.26,0,0,1,4.06-3.59Zm0,2.42A2.33,2.33,0,0,0,198.14,46a11.94,11.94,0,0,0-.62,3.6,1.67,1.67,0,0,0,.49,1.31,2.34,2.34,0,0,0,1.87.25,1.88,1.88,0,0,0,1.32-1.1,9.6,9.6,0,0,0,.86-4,1.59,1.59,0,0,0-.58-1.45,2.13,2.13,0,0,0-1.81-.17Zm-68.55,4.12c.34-1,.7-2.09,1-3.14h8.24a6.12,6.12,0,0,1,3.92,1.26,4.56,4.56,0,0,1,1.55,2.71,7.28,7.28,0,0,1-1.8,6.33,8.71,8.71,0,0,1-5.55,2.56,38.92,38.92,0,0,1-5.29,0c-.5,2-.91,4.13-1.39,6.18-1.33,0-2.66-.13-4-.16.65-3.23,1.4-6.45,2.05-9.69,2.2,0,4.39,0,6.59,0,0,.67,0,1.35,0,2,1.85-1.57,3.65-3.19,5.48-4.77-1.36-1.71-2.75-3.4-4.09-5.13-.19.62-.36,1.24-.51,1.87-2.08,0-4.16,0-6.25,0ZM173,55.06a5.39,5.39,0,0,1,3.87-.24,2.35,2.35,0,0,1-.28,1.65c-.64.31-1.42.07-2,.44s-.38,1.15-.47,1.72a19.22,19.22,0,0,1,2,.16,2,2,0,0,1-.27,1.74c-.58.37-1.33.19-2,.26a1.8,1.8,0,0,0-.34.82c-.5,2.78-1,5.56-1.47,8.34a4.3,4.3,0,0,1-1.24,2.64,4.53,4.53,0,0,1-2.95.65c-.42,0-.94,0-1.2-.4a2.81,2.81,0,0,1,.25-1.53,16.42,16.42,0,0,0,1.72-.17c.59-.2.71-.89.81-1.42.39-2.39.82-4.77,1.24-7.15a7.89,7.89,0,0,0,.22-1.67c-.55-.2-1.25,0-1.67-.5a1.36,1.36,0,0,1,0-1.46c.47-.5,1.22-.07,1.8-.26.41-.24.42-.77.51-1.18A3.24,3.24,0,0,1,173,55.06Zm30.19,1c.12-.46.12-1.1.62-1.32a19.46,19.46,0,0,1,2.16,0,4.12,4.12,0,0,1-.24,2.47,5.49,5.49,0,0,1-2.21.06c-.52-.13-.38-.78-.33-1.17Zm-40.3-.86a18.93,18.93,0,0,1,5.42,0,5.23,5.23,0,0,1,.66.15,2.72,2.72,0,0,1-.15,1.67c-.18.36-.62.4-1,.42-1.2,0-2.4,0-3.59,0a1.45,1.45,0,0,0-1.41.74,12.77,12.77,0,0,0-.61,3h4.89c.26,0,.71,0,.67.41A4.51,4.51,0,0,1,167.6,63a.83.83,0,0,1-.88.49c-1.42,0-2.84,0-4.26,0a.66.66,0,0,0-.74.61,13.83,13.83,0,0,0-.31,2.93c.05.51.61.67,1.05.69,1.38,0,2.75,0,4.13,0,.31,0,.26.39.32.61.07.58-.09,1.43-.8,1.52-2,.21-4.15.56-6.09-.23a2.7,2.7,0,0,1-1.45-2.31,7,7,0,0,1,.2-2.33q.53-3,1.08-6a5.72,5.72,0,0,1,1.06-2.58,3.64,3.64,0,0,1,2-1.2Zm34.46,1.71a4.67,4.67,0,0,1,2.58-.46c0,.73-.24,1.43-.2,2.16a7.5,7.5,0,0,1,1.71.24c.35.16.29.6.23.9s-.26,1-.8,1-1.49-.2-1.66.55c-.33,1.61-.58,3.24-.86,4.87a10.8,10.8,0,0,0-.21,1.71,4.55,4.55,0,0,0,1.8.1A1.34,1.34,0,0,1,199,70c-1,0-2,.19-2.87-.42a2.08,2.08,0,0,1-.64-2c.28-2.23.8-4.44,1.07-6.68-.63-.17-1.39,0-1.87-.53a1.33,1.33,0,0,1,.14-1.48c.6-.4,1.38-.06,2-.31.43-.46.15-1.19.52-1.68ZM180,58.67a4.91,4.91,0,0,1,3.23.37,4.27,4.27,0,0,1,1.74,3.75,9.51,9.51,0,0,1-.21,2.38,19.45,19.45,0,0,1-3.41.12c-1.09,0-2.18,0-3.27,0a1.84,1.84,0,0,0,.56,2.24,4.23,4.23,0,0,0,1.84.23,19,19,0,0,0,3.34-.61c0,.7.19,1.64-.51,2.09a10.49,10.49,0,0,1-2.4.83,5,5,0,0,1-3.66-.43,3.4,3.4,0,0,1-1.86-2.56,10.94,10.94,0,0,1,1.22-6.3A4.45,4.45,0,0,1,180,58.67Zm-.64,2.7a3.1,3.1,0,0,0-.93,2c1.34,0,2.67.06,4,0a1.85,1.85,0,0,0-.26-1.77,2,2,0,0,0-2.81-.17Zm8-.95a4.72,4.72,0,0,1,4.1-1.84,5.56,5.56,0,0,1,2.53.65c.58.37.16,1.12.09,1.65s-.67.34-1,.34c-.8,0-1.53-.61-2.33-.34a2.17,2.17,0,0,0-1.5,1.29,10.5,10.5,0,0,0-.78,4.4,1.09,1.09,0,0,0,.72,1.1c1.19.38,2.41-.11,3.59-.33a3.15,3.15,0,0,1-.24,1.92,1.93,1.93,0,0,1-1.36.6c-.64.06-1.27.15-1.9.21a3.44,3.44,0,0,1-3.34-2.49A10.64,10.64,0,0,1,186,64a9.48,9.48,0,0,1,1.35-3.6ZM220,58.67a6.23,6.23,0,0,1,3.15.26,3.54,3.54,0,0,1,2,3,12.52,12.52,0,0,1-.7,4.53A5,5,0,0,1,222.77,69a5.69,5.69,0,0,1-5,.89,3.47,3.47,0,0,1-2.14-2c-.62-1.31-.27-2.79,0-4.15a6.83,6.83,0,0,1,2-4.06A4.77,4.77,0,0,1,220,58.67Zm.27,2.28a2.43,2.43,0,0,0-1.68,1.53,12.77,12.77,0,0,0-.68,3.51,1.54,1.54,0,0,0,.42,1.31,2.3,2.3,0,0,0,2.47.15,2.22,2.22,0,0,0,1.08-1.54,11.4,11.4,0,0,0,.59-3.56,1.42,1.42,0,0,0-.56-1.13A2.19,2.19,0,0,0,220.25,61Zm-17.38-2.1a4.63,4.63,0,0,1,2.25-.11c.41.06.25.56.24.85-.49,3-1.07,6-1.58,9-.08.48-.1,1.19-.7,1.29a4.39,4.39,0,0,1-1.91-.1,1.44,1.44,0,0,1-.07-.94c.45-2.63.9-5.26,1.33-7.89a17.43,17.43,0,0,1,.44-2.15Zm3.64,0a1,1,0,0,1,.67-.19,6.12,6.12,0,0,1,1.6.08c.28,0,.22.42.28.64.11,1.81.17,3.62.26,5.43a17.21,17.21,0,0,0,.31,3.13,7.42,7.42,0,0,0,1.35-2.6c.88-2.18,1.72-4.39,2.67-6.54a6,6,0,0,1,2.38-.08c.4.1.19.57.09.82-1.38,3-2.71,6.06-4.1,9.07a3,3,0,0,1-3.66,1.3,1.75,1.75,0,0,1-1-1.6c-.32-2.82-.6-5.65-.86-8.48a2.93,2.93,0,0,1,0-1Z" transform="translate(-111.73 -21.54)"/></svg>