<svg id="Layer_206" data-name="Layer 206" xmlns="http://www.w3.org/2000/svg" viewBox="0 0 274.91 47.48"><defs><style>.cls-1,.cls-2{fill:#24b47e;}.cls-1{fill-rule:evenodd;}</style></defs><path id="Fill-17" class="cls-1" d="M89.86,54.48A23.77,23.77,0,0,1,68,78.18a38.72,38.72,0,0,1-1.83-11.82c0-3.23,0-2.69,0-5.92A14.82,14.82,0,0,0,72.05,72.3a23.71,23.71,0,0,0,7.19-7.88C85,54.23,75,40.07,66.12,33.67,57.25,40.05,47.24,54.22,53,64.42A23.78,23.78,0,0,0,64.1,74.49l-.64,3.61a23.77,23.77,0,1,1,26.4-23.62" transform="translate(-42.38 -30.7)"/><path id="paymongo" class="cls-2" d="M107.65,54.78a11.64,11.64,0,1,1,11.62,11.66,9.07,9.07,0,0,1-7.14-3.25V75.12h-4.48Zm11.62,7.37A7.37,7.37,0,1,0,112,54.78,7.2,7.2,0,0,0,119.27,62.15Zm25.58,4.29a11.66,11.66,0,1,1,11.62-11.66v11.3H152V62.51C151,64.73,148.06,66.44,144.85,66.44Zm.05-4.29a7.37,7.37,0,1,0-7.28-7.37A7.24,7.24,0,0,0,144.9,62.15Zm24.68,13a10.06,10.06,0,0,1-9.63-7h5a5.16,5.16,0,0,0,4.66,2.71,5.09,5.09,0,0,0,5.47-5.33V64.27a7.45,7.45,0,0,1-5.47,2.17c-5.79,0-10-3.48-10-11.07V43.48h4.43V55.37c0,4.61,2,6.78,5.52,6.78s5.51-2.12,5.51-6.51V43.48h4.43V65A9.77,9.77,0,0,1,169.58,75.12Zm38.1-32c5.65,0,9.81,3.48,9.81,11.08V66.08h-4.43V54.2c0-4.62-1.94-6.78-5.38-6.78s-5.38,2.16-5.38,6.78V66.08h-4.43V54.2c0-4.62-1.94-6.78-5.38-6.78s-5.37,2.16-5.37,6.78V66.08h-4.43V54.2c0-7.6,4.15-11.08,9.8-11.08a8.15,8.15,0,0,1,7.6,4.2A8.14,8.14,0,0,1,207.68,43.12Zm24,0A11.66,11.66,0,1,1,220,54.78,11.63,11.63,0,0,1,231.64,43.12Zm0,4.3a7.37,7.37,0,1,0,7.19,7.36A7.13,7.13,0,0,0,231.68,47.42Zm34,18.66h-4.43V54.2c0-4.62-2-6.78-5.51-6.78s-5.51,2.16-5.51,6.78V66.08h-4.43V54.2c0-7.6,4.15-11.08,9.94-11.08s9.94,3.48,9.94,11.08Zm14.15,9a11.63,11.63,0,0,1-10.67-7h5.34a6.64,6.64,0,0,0,5.33,2.71c3.89,0,7.14-2.53,7.14-6.33v-1a9.93,9.93,0,0,1-7.14,3,11.66,11.66,0,1,1,11.66-11.66v8.68A11.63,11.63,0,0,1,279.82,75.12Zm.05-13a7.37,7.37,0,1,0-7.28-7.37A7.23,7.23,0,0,0,279.87,62.15Zm25.76-19A11.66,11.66,0,1,1,294,54.78,11.63,11.63,0,0,1,305.63,43.12Zm.05,4.3a7.37,7.37,0,1,0,7.18,7.36A7.13,7.13,0,0,0,305.68,47.42Z" transform="translate(-42.38 -30.7)"/></svg>