<svg id="PayNow" xmlns="http://www.w3.org/2000/svg" xmlns:xlink="http://www.w3.org/1999/xlink" viewBox="0 0 108.05 88.93"><defs><style>.cls-1{fill:none;}.cls-2{fill:#941c80;}.cls-3{clip-path:url(#clip-path);}.cls-4{fill:url(#linear-gradient);}</style><clipPath id="clip-path" transform="translate(-134.86 -20.99)"><path class="cls-1" d="M170.14,51.26a20.48,20.48,0,0,0,12.6,36.63,20.48,20.48,0,0,0,16.14-33.06,20,20,0,0,0-2.92-3,1.19,1.19,0,0,0-.8-.3,1.26,1.26,0,0,0-1,.52L182.82,67.55l-5.67-6.93a1.17,1.17,0,0,0-.89-.44,1.15,1.15,0,0,0-.93.49L172.92,64a1.5,1.5,0,0,0,.05,1.79L182.18,77A1.12,1.12,0,0,0,184,77l11.83-16.25a14.7,14.7,0,0,1-24.7,15.72A14.71,14.71,0,0,1,182.72,52.7a14.74,14.74,0,0,1,5.8,1.18,1.47,1.47,0,0,0,1.73-.47l1.91-2.62a1.17,1.17,0,0,0-.43-1.78,20.54,20.54,0,0,0-21.59,2.25"/></clipPath><linearGradient id="linear-gradient" x1="38.54" y1="-679.09" x2="40.07" y2="-679.09" gradientTransform="translate(-14736.21 -16666.95) rotate(135.18) scale(32.8)" gradientUnits="userSpaceOnUse"><stop offset="0" stop-color="#e83662"/><stop offset="1" stop-color="#9b1d82"/></linearGradient></defs><path class="cls-2" d="M135,21.88a.93.93,0,0,1,.21-.64.82.82,0,0,1,.64-.25h12.36a8.63,8.63,0,0,1,2.52.37,8.93,8.93,0,0,1,2.16,1,8.68,8.68,0,0,1,1.78,1.54,9.88,9.88,0,0,1,2.19,4.14,9.72,9.72,0,0,1,.29,2.33,9.64,9.64,0,0,1-2.42,6.37,9.23,9.23,0,0,1-2.78,2.1,8.28,8.28,0,0,1-3.6.82H142.5v9.21c0,.55-.3.83-.89.83h-5.75a.9.9,0,0,1-.62-.21.79.79,0,0,1-.23-.62v-27Zm14.57,8.48a3.44,3.44,0,0,0-.21-1.17,3.11,3.11,0,0,0-.59-1,3,3,0,0,0-.94-.74,2.52,2.52,0,0,0-1.24-.29h-4.1v6.46h4.1a2.79,2.79,0,0,0,2.19-1,3.16,3.16,0,0,0,.58-1,3.43,3.43,0,0,0,.21-1.19" transform="translate(-134.86 -20.99)"/><path class="cls-2" d="M165.51,21.75a.67.67,0,0,1,.13-.25,1.24,1.24,0,0,1,.26-.25,1.35,1.35,0,0,1,.33-.19,1.09,1.09,0,0,1,.33-.07h4.95a.79.79,0,0,1,.56.21,2.28,2.28,0,0,1,.35.35l.48,1.11,10.16,26.19a.58.58,0,0,1-.06.63.94.94,0,0,1-.73.24h-5.56a1.2,1.2,0,0,1-.68-.17,1,1,0,0,1-.38-.55c-.26-.66-.51-1.31-.75-2s-.5-1.31-.74-2H163.89l-.75,2c-.25.65-.5,1.3-.74,2a1,1,0,0,1-1,.72h-5.7a.93.93,0,0,1-.61-.2c-.16-.12-.19-.32-.09-.58ZM169,30c-.24.66-.49,1.36-.74,2.12l-.75,2.31c-.24.77-.49,1.53-.74,2.29s-.5,1.46-.74,2.12H172Z" transform="translate(-134.86 -20.99)"/><path class="cls-2" d="M191.64,31.59l4.67-10a1.86,1.86,0,0,1,.19-.34.41.41,0,0,1,.16-.16.44.44,0,0,1,.16-.06A.53.53,0,0,0,197,21h7.45a.29.29,0,0,1,.22.09.28.28,0,0,1,.09.2.74.74,0,0,1-.27.49L195.34,38V48.81a.8.8,0,0,1-.89.91h-5.78a.75.75,0,0,1-.6-.24,1,1,0,0,1-.21-.67V38l-9.15-16.19a.71.71,0,0,1-.25-.49.31.31,0,0,1,.07-.2.25.25,0,0,1,.21-.08h7.45l.21,0a.44.44,0,0,1,.16.06.47.47,0,0,1,.15.16,2.24,2.24,0,0,1,.22.34Z" transform="translate(-134.86 -20.99)"/><path class="cls-2" d="M134.86,54.52a.87.87,0,0,1,.22-.6.81.81,0,0,1,.64-.25H142a1.32,1.32,0,0,1,.56.14,1.15,1.15,0,0,1,.5.46q2.46,4,4.88,7.82t4.89,7.81V54.41a1,1,0,0,1,.31-.54.84.84,0,0,1,.54-.2h5.52a1.06,1.06,0,0,1,.67.22.75.75,0,0,1,.28.63V81.64a.67.67,0,0,1-.24.57.94.94,0,0,1-.64.19h-6.17a.64.64,0,0,1-.44-.18,2.76,2.76,0,0,1-.41-.46l-5.08-8.41q-2.52-4.17-5.11-8.42V81.54a.91.91,0,0,1-.2.64.86.86,0,0,1-.69.22h-5.49a.78.78,0,0,1-.65-.25.85.85,0,0,1-.21-.59Z" transform="translate(-134.86 -20.99)"/><path class="cls-2" d="M212.72,82c-.13-.22-.25-.45-.36-.68a7,7,0,0,1-.31-.69q-2.51-6.59-5-13t-5-13a.88.88,0,0,0,0-.17.41.41,0,0,1,0-.16c0-.36.23-.54.71-.54H209a1,1,0,0,1,1,.74L215.91,72l5.48-17.62a1,1,0,0,1,1.06-.74h6.29a1,1,0,0,1,.63.17.55.55,0,0,1,.18.43.78.78,0,0,1,0,.21v.06l-3.44,9.87,2.59,7.6L235,54.41a1,1,0,0,1,1.06-.74h6.09a.93.93,0,0,1,.63.17.56.56,0,0,1,.19.43,1,1,0,0,1,0,.22v0c-.88,2.27-1.78,4.54-2.69,6.79l-2.76,6.77c-.92,2.26-1.84,4.52-2.74,6.78s-1.8,4.53-2.66,6.78a1.59,1.59,0,0,1-.35.48.93.93,0,0,1-.66.26H226.3a1.09,1.09,0,0,1-.65-.17,1,1,0,0,1-.32-.43l-3.05-8c-.44,1.17-.87,2.32-1.3,3.45s-.85,2.28-1.27,3.46c-.07.18-.14.37-.23.57a3,3,0,0,1-.3.56,1.62,1.62,0,0,1-.39.43.8.8,0,0,1-.52.18h-4.73a.82.82,0,0,1-.82-.41" transform="translate(-134.86 -20.99)"/><g class="cls-3"><polygon class="cls-4" points="89.32 46.55 46.67 88.93 4.3 46.29 46.95 3.91 89.32 46.55"/></g></svg>