<svg id="Paypal" xmlns="http://www.w3.org/2000/svg" viewBox="0 0 272.29 65.97"><defs><style>.cls-1{fill:#2b98b7;}.cls-1,.cls-2,.cls-3{fill-rule:evenodd;}.cls-2{fill:#203984;}.cls-3{fill:#1e2f70;}</style></defs><path class="cls-1" d="M69.07,37.23H87.68c10,0,13.75,5.06,13.17,12.49-1,12.26-8.38,19-18.21,19h-5c-1.35,0-2.26.89-2.62,3.32L72.94,86.16c-.14.91-.62,1.44-1.34,1.51H59.91c-1.1,0-1.49-.84-1.2-2.66l7.13-45.12C66.11,38.09,67.1,37.23,69.07,37.23Z" transform="translate(-45.31 -21.7)"/><path class="cls-2" d="M149.86,36.39c6.27,0,12.07,3.41,11.27,11.9-1,10.08-6.36,15.66-14.88,15.69H138.8c-1.08,0-1.59.87-1.87,2.66l-1.44,9.16c-.22,1.39-.93,2.07-2,2.07h-6.93c-1.1,0-1.49-.71-1.24-2.29l5.72-36.71c.28-1.8,1-2.48,2.19-2.48h16.61ZM138.57,56.05h5.64c3.53-.14,5.88-2.58,6.11-7a4.26,4.26,0,0,0-4.62-4.66l-5.31,0-1.82,11.63Zm41.41,19c.63-.58,1.28-.88,1.18-.17l-.22,1.71c-.12.88.23,1.35,1.06,1.35h6.16c1,0,1.54-.41,1.79-2l3.8-23.81c.19-1.2-.1-1.78-1-1.78H186c-.61,0-.91.34-1.07,1.27l-.25,1.46c-.13.77-.48.9-.81.13-1.14-2.71-4.07-3.93-8.16-3.84-9.5.2-15.9,7.41-16.59,16.65-.52,7.15,4.6,12.76,11.35,12.76,4.9,0,7.09-1.44,9.56-3.7h0Zm-5.16-3.67a6.19,6.19,0,0,1-6.35-7.25A8.84,8.84,0,0,1,177,56.88a6.19,6.19,0,0,1,6.34,7.26,8.83,8.83,0,0,1-8.5,7.25Zm31-21.13h-6.24c-1.29,0-1.82,1-1.41,2.14l7.75,22.7-7.6,10.8c-.64.91-.14,1.73.76,1.73h7a2.17,2.17,0,0,0,2.09-1L232,52.41c.74-1.06.39-2.16-.82-2.16h-6.64c-1.14,0-1.59.45-2.25,1.4l-9.94,14.41-4.44-14.45a1.91,1.91,0,0,0-2.11-1.35Z" transform="translate(-45.31 -21.7)"/><path class="cls-1" d="M256.8,36.39c6.28,0,12.07,3.41,11.28,11.9-1,10.08-6.36,15.66-14.89,15.69h-7.44c-1.07,0-1.59.87-1.87,2.66l-1.44,9.16c-.22,1.39-.93,2.07-2,2.07h-6.93c-1.1,0-1.49-.71-1.24-2.29L238,38.86c.28-1.8,1-2.48,2.19-2.48H256.8ZM245.52,56.05h5.64c3.53-.14,5.87-2.58,6.11-7a4.27,4.27,0,0,0-4.62-4.66l-5.31,0-1.82,11.63Zm41.4,19c.64-.58,1.28-.88,1.19-.17l-.22,1.71c-.12.88.23,1.35,1.06,1.35h6.15c1,0,1.55-.41,1.8-2l3.8-23.81c.19-1.2-.11-1.78-1-1.78h-6.77c-.61,0-.9.34-1.06,1.27l-.25,1.46c-.13.77-.48.9-.81.13-1.15-2.71-4.08-3.93-8.16-3.84-9.5.2-15.9,7.41-16.59,16.65-.53,7.15,4.59,12.76,11.35,12.76,4.89,0,7.08-1.44,9.55-3.7h0Zm-5.15-3.67a6.18,6.18,0,0,1-6.34-7.25,8.83,8.83,0,0,1,8.5-7.26,6.19,6.19,0,0,1,6.34,7.26,8.83,8.83,0,0,1-8.5,7.25Zm28.4,6.6h-7.11a.84.84,0,0,1-.87-.8.86.86,0,0,1,0-.16l6.25-39.56a1.23,1.23,0,0,1,1.18-1h7.11a.85.85,0,0,1,.88.81s0,.1,0,.15L311.35,77a1.23,1.23,0,0,1-1.18,1Z" transform="translate(-45.31 -21.7)"/><path class="cls-2" d="M57.44,21.7H76.06c5.25,0,11.47.17,15.63,3.84A12.66,12.66,0,0,1,95.6,36.11C94.45,50.33,86,58.3,74.53,58.3H65.35c-1.57,0-2.6,1-3,3.84L59.75,78.47c-.17,1.06-.63,1.68-1.45,1.76H46.81c-1.27,0-1.72-1-1.39-3.08L53.68,24.8C54,22.7,55.17,21.7,57.44,21.7Z" transform="translate(-45.31 -21.7)"/><path class="cls-3" d="M62.58,60.49l3.25-20.6c.28-1.8,1.27-2.67,3.24-2.67H87.68a18.11,18.11,0,0,1,7.52,1.37c-1.87,12.66-10.06,19.7-20.78,19.7H65.25C64,58.29,63.12,58.91,62.58,60.49Z" transform="translate(-45.31 -21.7)"/></svg>