<svg id="PayPalCredit" xmlns="http://www.w3.org/2000/svg" xmlns:xlink="http://www.w3.org/1999/xlink" viewBox="0 0 163.97 55.05"><defs><style>.cls-1{fill:none;}.cls-2{clip-path:url(#clip-path);}.cls-3{fill:#009ee3;}.cls-4{fill:#222c65;}.cls-5{fill:#113984;}.cls-6{clip-path:url(#clip-path-2);}</style><clipPath id="clip-path" transform="translate(-98.22 -31.94)"><rect class="cls-1" x="98.22" y="31.94" width="46.74" height="55.05"/></clipPath><clipPath id="clip-path-2" transform="translate(-98.22 -31.94)"><rect class="cls-1" x="244.61" y="59.48" width="17.58" height="24.64"/></clipPath></defs><g id="surface1"><g class="cls-2"><path class="cls-3" d="M140.27,45.93c.67-4.28,0-7.2-2.33-9.84-2.55-2.9-7.15-4.15-13-4.15H107.78A2.44,2.44,0,0,0,105.37,34L98.24,79.19a1.47,1.47,0,0,0,1.45,1.7h10.56l-.72,4.62A1.27,1.27,0,0,0,110.79,87h8.91a2.13,2.13,0,0,0,2.11-1.8l.09-.46,1.68-10.63.11-.59a2.14,2.14,0,0,1,2.11-1.81h1.33c8.63,0,15.38-3.5,17.35-13.64.83-4.23.4-7.76-1.78-10.25a8.63,8.63,0,0,0-2.43-1.88" transform="translate(-98.22 -31.94)"/></g><path class="cls-4" d="M140.27,45.93c.67-4.28,0-7.2-2.33-9.84-2.55-2.9-7.15-4.15-13-4.15H107.78A2.44,2.44,0,0,0,105.37,34L98.24,79.19a1.47,1.47,0,0,0,1.45,1.7h10.56l2.66-16.83-.09.53a2.45,2.45,0,0,1,2.41-2.07h5c9.86,0,17.58-4,19.84-15.59.07-.34.12-.67.18-1" transform="translate(-98.22 -31.94)"/><path class="cls-5" d="M115.76,46a2.11,2.11,0,0,1,1.19-1.6,2,2,0,0,1,.92-.21h13.41a27.87,27.87,0,0,1,4.43.32c.39.06.76.13,1.13.22s.72.17,1.06.27l.51.16a12.5,12.5,0,0,1,1.86.78c.67-4.28,0-7.2-2.33-9.84-2.55-2.9-7.15-4.15-13-4.15H107.78A2.44,2.44,0,0,0,105.37,34L98.24,79.19a1.47,1.47,0,0,0,1.45,1.7h10.56l2.66-16.83L115.76,46" transform="translate(-98.22 -31.94)"/><path class="cls-5" d="M217.19,78.55h1.42c3.8,0,7.36-2.07,8.14-6.84.68-4.38-1.81-6.84-5.9-6.84h-1a.52.52,0,0,0-.51.44Zm-3.46-18.31a.89.89,0,0,1,.88-.76h8.25c6.81,0,11.58,5.35,10.51,12.23A15,15,0,0,1,219,83.94h-8.4a.53.53,0,0,1-.52-.6l3.65-23.1" transform="translate(-98.22 -31.94)"/><path class="cls-5" d="M203,65.62,202.51,69h6.56a.52.52,0,0,1,.51.6l-.63,4a.89.89,0,0,1-.88.76h-5.64a.88.88,0,0,0-.88.75L201,78.55h6.94a.53.53,0,0,1,.52.6l-.63,4a.9.9,0,0,1-.88.76H194.4a.53.53,0,0,1-.52-.6l3.65-23.1a.89.89,0,0,1,.88-.76H211a.52.52,0,0,1,.51.6l-.63,4a.88.88,0,0,1-.88.76h-6a.89.89,0,0,0-.88.75" transform="translate(-98.22 -31.94)"/><path class="cls-5" d="M238.92,83.94h-5a.52.52,0,0,1-.51-.6l3.65-23.1a.88.88,0,0,1,.88-.76h5a.53.53,0,0,1,.52.6l-3.65,23.1a.89.89,0,0,1-.88.76" transform="translate(-98.22 -31.94)"/><path class="cls-5" d="M181.23,70.44h.62c2.07,0,4.46-.39,4.9-3s-.95-3-3.17-3.05h-.9a.56.56,0,0,0-.55.46Zm10.91,13.5h-6.53a.72.72,0,0,1-.65-.41l-4.31-9h-.06l-1.4,8.8a.73.73,0,0,1-.71.61h-5.13a.53.53,0,0,1-.52-.6l3.67-23.25a.72.72,0,0,1,.71-.61h8.89c4.83,0,8.14,2.31,7.33,7.53A8.07,8.07,0,0,1,187,73.92l5.62,9.23a.52.52,0,0,1-.45.79" transform="translate(-98.22 -31.94)"/><g class="cls-6"><path class="cls-5" d="M252.4,83.94h-5a.53.53,0,0,1-.52-.6l2.92-18.47h-4.64a.53.53,0,0,1-.52-.6l.64-4a.88.88,0,0,1,.88-.76h15.49a.52.52,0,0,1,.51.6l-.63,4a.89.89,0,0,1-.88.76h-4.49l-2.9,18.31a.89.89,0,0,1-.88.76" transform="translate(-98.22 -31.94)"/></g><path class="cls-5" d="M173.16,66.43a.55.55,0,0,1-.95.29A6.1,6.1,0,0,0,167.8,65a7.81,7.81,0,0,0-7.58,6.78c-.59,3.85,1.62,6.64,5.57,6.64a8.42,8.42,0,0,0,4.8-1.66.55.55,0,0,1,.86.54l-.91,5.6a.87.87,0,0,1-.62.7,17.62,17.62,0,0,1-5.23,1c-10.54,0-12.23-9-11.69-12.84,1.53-10.73,10.24-13.19,15.58-12.89a15.47,15.47,0,0,1,4.77.89A1.09,1.09,0,0,1,174,61l-.88,5.48" transform="translate(-98.22 -31.94)"/><path class="cls-3" d="M205.45,40.16c-.3,2-1.81,2-3.27,2h-.83l.59-3.69a.44.44,0,0,1,.45-.39h.38c1,0,1.93,0,2.42.56A1.84,1.84,0,0,1,205.45,40.16ZM204.82,35h-5.51a.77.77,0,0,0-.75.65l-2.23,14.12a.46.46,0,0,0,.45.53h2.83a.54.54,0,0,0,.53-.46l.63-4a.76.76,0,0,1,.75-.64h1.75c3.62,0,5.72-1.76,6.26-5.24a4.22,4.22,0,0,0-.7-3.55,5.1,5.1,0,0,0-4-1.41" transform="translate(-98.22 -31.94)"/><path class="cls-5" d="M166.18,40.16c-.3,2-1.81,2-3.27,2h-.83l.58-3.69a.46.46,0,0,1,.46-.39h.38c1,0,1.93,0,2.41.56A1.84,1.84,0,0,1,166.18,40.16ZM165.54,35H160a.77.77,0,0,0-.76.65l-2.22,14.12a.46.46,0,0,0,.45.53h2.63a.77.77,0,0,0,.76-.65l.6-3.81a.75.75,0,0,1,.75-.64H164c3.63,0,5.72-1.76,6.27-5.24a4.22,4.22,0,0,0-.7-3.55,5.12,5.12,0,0,0-4-1.41" transform="translate(-98.22 -31.94)"/><path class="cls-5" d="M178.33,45.23a2.94,2.94,0,0,1-3,2.51,2.23,2.23,0,0,1-1.77-.71,2.25,2.25,0,0,1-.41-1.85,3,3,0,0,1,3-2.54,2.22,2.22,0,0,1,1.76.72A2.29,2.29,0,0,1,178.33,45.23ZM182,40.1h-2.63a.46.46,0,0,0-.46.38l-.11.74-.19-.27c-.57-.83-1.84-1.1-3.11-1.1a6.07,6.07,0,0,0-5.89,5.3,5,5,0,0,0,1,4.05,4.11,4.11,0,0,0,3.32,1.34A5.07,5.07,0,0,0,177.57,49l-.12.74a.46.46,0,0,0,.45.53h2.38a.77.77,0,0,0,.75-.65l1.43-9a.46.46,0,0,0-.46-.52" transform="translate(-98.22 -31.94)"/><path class="cls-3" d="M217.6,45.23a2.93,2.93,0,0,1-3,2.51,2.2,2.2,0,0,1-1.77-.71,2.25,2.25,0,0,1-.42-1.85,3,3,0,0,1,3-2.54,2.24,2.24,0,0,1,1.76.72A2.28,2.28,0,0,1,217.6,45.23Zm3.68-5.13h-2.64a.44.44,0,0,0-.45.38l-.12.74-.18-.27c-.57-.83-1.85-1.1-3.12-1.1a6,6,0,0,0-5.88,5.3,4.93,4.93,0,0,0,1,4.05,4.11,4.11,0,0,0,3.32,1.34A5,5,0,0,0,216.84,49l-.12.74a.47.47,0,0,0,.46.53h2.37a.76.76,0,0,0,.75-.65l1.43-9a.46.46,0,0,0-.45-.52" transform="translate(-98.22 -31.94)"/><path class="cls-5" d="M196.05,40.1H193.4a.77.77,0,0,0-.64.33l-3.65,5.39-1.55-5.18a.77.77,0,0,0-.73-.54h-2.61a.45.45,0,0,0-.43.6l2.91,8.57L184,53.14a.45.45,0,0,0,.37.72H187a.76.76,0,0,0,.63-.33l8.81-12.71a.46.46,0,0,0-.37-.72" transform="translate(-98.22 -31.94)"/><path class="cls-3" d="M224.39,35.39l-2.27,14.38a.47.47,0,0,0,.46.53h2.27a.77.77,0,0,0,.76-.65l2.22-14.12a.45.45,0,0,0-.45-.53h-2.54a.45.45,0,0,0-.45.39" transform="translate(-98.22 -31.94)"/></g></svg>