<svg id="PayTM_Wallet" data-name="PayTM Wallet" xmlns="http://www.w3.org/2000/svg" viewBox="0 0 200.19 62.74"><defs><style>.cls-1{fill:#4eb6d3;}.cls-2{fill:#223266;}</style></defs><path class="cls-1" d="M275.5,40.67a13.33,13.33,0,0,0-12.58-8.93h-.12a13.27,13.27,0,0,0-9.62,4.1,13.29,13.29,0,0,0-9.61-4.1h-.13A13.27,13.27,0,0,0,234.75,35V34a2,2,0,0,0-2-1.82h-8.92a2,2,0,0,0-2,2V82.55a2,2,0,0,0,2,2h8.92a2,2,0,0,0,2-1.71V48c0-.12,0-.23,0-.35a3.24,3.24,0,0,1,3.08-3h1.64a3.43,3.43,0,0,1,1.89.73,3.27,3.27,0,0,1,1.2,2.6l0,34.61a2,2,0,0,0,2,2h8.92a2,2,0,0,0,2-1.88V48a3.26,3.26,0,0,1,1.45-2.79,3.71,3.71,0,0,1,1.64-.55h1.64a3.26,3.26,0,0,1,3.1,3.34l0,34.56a2,2,0,0,0,2,2h8.93a2,2,0,0,0,2-2V45.39a12.35,12.35,0,0,0-.68-4.72Zm-60.4-8.42H210V24a1.81,1.81,0,0,0-1.8-1.8,1.86,1.86,0,0,0-.34,0c-5.66,1.55-4.53,9.39-14.85,10.05h-1a2,2,0,0,0-.43,0h0A2,2,0,0,0,190,34.22v8.93a2,2,0,0,0,2,2h5.39V83a2,2,0,0,0,2,2h8.82a2,2,0,0,0,1.95-2V45.12h5a2,2,0,0,0,2-2V34.23a2,2,0,0,0-2-2Z" transform="translate(-75.99 -22.16)"/><path class="cls-2" d="M183,32.25h-8.92a2,2,0,0,0-2,2V52.67A2.09,2.09,0,0,1,170,54.73h-3.73a2.09,2.09,0,0,1-2.1-2.09l0-18.42a2,2,0,0,0-2-2h-8.93a2,2,0,0,0-2,2V54.44c0,7.68,5.48,13.16,13.16,13.16,0,0,5.77,0,5.94,0a2.08,2.08,0,0,1,0,4.13l-.15,0-13.05,0a2,2,0,0,0-2,2v8.92a2,2,0,0,0,2,2h14.59c7.69,0,13.16-5.47,13.16-13.16V34.23a2,2,0,0,0-2-2Zm-85.57,0H77.93A1.94,1.94,0,0,0,76,34.19v8.74a.43.43,0,0,1,0,0s0,.08,0,.12V82.66a1.92,1.92,0,0,0,1.81,2h9.09a2,2,0,0,0,2-2l0-13.56h8.54c7.14,0,12.12-5,12.12-12.13V44.4c0-7.18-5-12.15-12.12-12.15Zm-.79,21.86a2.09,2.09,0,0,1-2.09,2.09H88.89v-11h5.66a2.08,2.08,0,0,1,2.09,2.09Zm35.6-21.81H119.86a1.92,1.92,0,0,0-2,1.85v3.47s0,.05,0,.07,0,.05,0,.07v4.76a2,2,0,0,0,2.1,2h11.79a2,2,0,0,1,1.77,1.89v1.15a2,2,0,0,1-1.72,1.83H126c-7.76,0-13.29,5.16-13.29,12.4V72.13c0,7.2,4.75,12.32,12.46,12.32h16.18a5.1,5.1,0,0,0,5.26-4.91V45.69c0-8.21-4.23-13.39-14.35-13.39Zm1.42,38.64a1.84,1.84,0,0,1,0,.33,1.61,1.61,0,0,1-.09.29,2.06,2.06,0,0,1-2,1.34h-3.71a2,2,0,0,1-2.11-2V63.31h0a2,2,0,0,1,2.09-1.95h3.72a2,2,0,0,1,2.1,2v7.63Z" transform="translate(-75.99 -22.16)"/></svg>