<svg xmlns="http://www.w3.org/2000/svg" xmlns:xlink="http://www.w3.org/1999/xlink" viewBox="0 0 99 68.24"><defs><linearGradient id="New_Gradient_Swatch_5" x1="168.36" y1="42.42" x2="168.36" y2="80.13" gradientUnits="userSpaceOnUse"><stop offset="0" stop-color="#a6cf2b"/><stop offset="1" stop-color="#328332"/></linearGradient></defs><g style="isolation:isolate"><g id="PayU_India" data-name="PayU India"><rect x="92.89" y="4.19" width="6.11" height="6.16" rx="0.86" style="fill:#a6cf2b"/><rect x="88.74" width="4.15" height="4.19" rx="0.59" style="fill:#a6cf2b"/><path d="M135.29,34.59h-6.37c-3.4,0-4.92,1.52-4.92,4.92V61.38c0,1.31.42,1.73,1.74,1.73h.43c1.32,0,1.74-.42,1.74-1.73V52.87h7.38c6.56,0,9.62-2.9,9.62-9.14S141.85,34.59,135.29,34.59ZM141,43.73c0,3.56-.91,5.49-5.71,5.49h-7.38V40c0-1.27.47-1.75,1.75-1.75h5.63C138.91,38.28,141,39.17,141,43.73Zm12.11-2.87a22.73,22.73,0,0,0-4.71.44c-1.06.23-1.5.52-1.5,1.73v.34a1.86,1.86,0,0,0,.22,1,.91.91,0,0,0,.83.41,2.46,2.46,0,0,0,.66-.1,23.36,23.36,0,0,1,4.67-.46c3.81,0,5.36,1,5.36,3.64V50.2h-4.8c-6.18,0-9.05,2.08-9.05,6.56s3,6.73,8.36,6.73c6.41,0,9.27-2.19,9.27-7.08V47.89C162.42,43.16,159.37,40.86,153.11,40.86Zm5.53,12.43v3c0,2.45-.9,3.86-5.53,3.86-3.06,0-4.55-1.11-4.55-3.38,0-2.5,1.49-3.47,5.32-3.47Zm25-10-4.95,19.8c-1.45,5.8-3.93,8.29-8.56,8.6h-.34c-1,0-1.31-.55-1.49-1.44l-.09-.38a1.49,1.49,0,0,1,.1-1.18c.23-.3.63-.39,1.26-.44,3.1-.32,4.15-1.75,5.19-5a5.61,5.61,0,0,1-1.72.25c-3.4,0-4.31-2.37-5.08-5.24l-4.09-15a1.6,1.6,0,0,1,0-1.38,1.61,1.61,0,0,1,1.3-.39h.35a1.8,1.8,0,0,1,2.11,1.62l4,14.85c.53,1.85,1.05,2.17,2.37,2.17,1.07,0,1.69-.34,2.14-2.16l3.57-14.85a1.77,1.77,0,0,1,2.08-1.63h.38a1.2,1.2,0,0,1,1.39,1.76Zm29.1-5.79v15a11.18,11.18,0,0,1-1.6,6.11c-2,3.2-6,4.9-11.57,4.9h0c-5.59,0-9.53-1.7-11.56-4.9a11.09,11.09,0,0,1-1.6-6.11v-15c0-2.42,1-2.86,3.65-2.86h.84c2.66,0,3.65.44,3.65,2.86v5.68s0,0,0,0v9.3a4.29,4.29,0,0,0,.57,2.34c.73,1.12,2.16,1.63,4.46,1.63s3.74-.51,4.47-1.63a4.29,4.29,0,0,0,.57-2.34v-15c0-2.42,1-2.86,3.66-2.86h.83C211.74,34.6,212.73,35,212.73,37.46Z" transform="translate(-124 -22.26)" style="fill:url(#New_Gradient_Swatch_5)"/><rect x="84.66" y="10.35" width="8.23" height="8.3" rx="1.16" style="fill:#a6cf2b;mix-blend-mode:multiply"/><text transform="translate(28.25 65.41)" style="font-size:15px;fill:#48aa33;font-family:Ubuntu-Regular, Ubuntu">India</text></g></g></svg>