<svg xmlns="http://www.w3.org/2000/svg" xmlns:xlink="http://www.w3.org/1999/xlink" viewBox="0 0 161.88 80.77"><defs><style>.cls-1{isolation:isolate;}.cls-2,.cls-4{fill:#a6d514;}.cls-3{fill:url(#New_Gradient_Swatch_5);}.cls-4{mix-blend-mode:multiply;}</style><linearGradient id="New_Gradient_Swatch_5" x1="171.98" y1="50" x2="171.98" y2="111.67" gradientUnits="userSpaceOnUse"><stop offset="0" stop-color="#a6d514"/><stop offset="1" stop-color="#39811d"/></linearGradient></defs><g class="cls-1"><g id="PayU"><rect class="cls-2" x="151.89" y="6.85" width="9.99" height="10.08" rx="1.41"/><rect class="cls-2" x="145.1" width="6.78" height="6.84" rx="0.96"/><path class="cls-3" d="M117.9,37.21H107.49c-5.57,0-8,2.48-8,8V81c0,2.15.69,2.84,2.84,2.84H103c2.15,0,2.84-.69,2.84-2.84V67.1H117.9c10.73,0,15.72-4.75,15.72-14.94S128.63,37.21,117.9,37.21Zm9.34,14.95c0,5.82-1.49,9-9.34,9H105.83v-15c0-2.08.77-2.86,2.86-2.86h9.21C123.82,43.24,127.24,44.7,127.24,52.16Zm19.8-4.7a36.9,36.9,0,0,0-7.7.72c-1.74.37-2.46.85-2.46,2.83v.56a3.06,3.06,0,0,0,.36,1.69,1.5,1.5,0,0,0,1.37.66,4.4,4.4,0,0,0,1.08-.16,37.47,37.47,0,0,1,7.63-.76c6.23,0,8.77,1.73,8.77,6v3.77h-7.86c-10.1,0-14.8,3.41-14.8,10.72,0,7.1,4.86,11,13.68,11,10.48,0,15.15-3.57,15.15-11.57V59C162.26,51.22,157.28,47.46,147,47.46Zm9.05,20.32v4.9c0,4-1.48,6.31-9.05,6.31-5,0-7.44-1.81-7.44-5.54,0-4.08,2.44-5.67,8.7-5.67Zm40.85-16.42-8.1,32.38c-2.37,9.49-6.42,13.57-14,14.06l-.55,0c-1.63,0-2.15-.9-2.45-2.36l-.14-.62a2.42,2.42,0,0,1,.16-1.92c.37-.5,1-.65,2.07-.74,5.07-.52,6.79-2.86,8.48-8.17a8.94,8.94,0,0,1-2.81.41c-5.56,0-7.06-3.88-8.31-8.56l-6.68-24.49a2.62,2.62,0,0,1,.06-2.24,2.59,2.59,0,0,1,2.13-.65h.56c2.1,0,2.91.62,3.46,2.66l6.61,24.27c.86,3,1.72,3.54,3.86,3.54,1.76,0,2.78-.54,3.51-3.53l5.84-24.27c.46-2,1.29-2.67,3.39-2.67h.63a2.63,2.63,0,0,1,2.13.64A2.65,2.65,0,0,1,196.94,51.36Zm47.58-9.46V66.45a18.26,18.26,0,0,1-2.61,10c-3.32,5.22-9.76,8-18.91,8h-.07c-9.15,0-15.59-2.78-18.91-8a18.26,18.26,0,0,1-2.61-10V41.9c0-4,1.61-4.68,6-4.68h1.37c4.35,0,6,.72,6,4.68V53.28a1.41,1.41,0,0,1,0,.21v13a6.94,6.94,0,0,0,.94,3.83c1.18,1.83,3.53,2.66,7.29,2.66s6.11-.84,7.3-2.66a6.94,6.94,0,0,0,.93-3.83v-13c0-.08,0-.14,0-.21V41.9c0-4,1.62-4.68,6-4.68h1.37C242.9,37.22,244.52,37.94,244.52,41.9Z" transform="translate(-99.44 -17.05)"/><rect class="cls-4" x="138.43" y="16.92" width="13.45" height="13.57" rx="1.9"/></g></g></svg>