<svg id="PBeBank" xmlns="http://www.w3.org/2000/svg" viewBox="0 0 150.97 65.16"><defs><style>.cls-1{fill:#c32b2c;fill-rule:evenodd;}</style></defs><path class="cls-1" d="M118.74,80.1c0,1.65-.16,2.48-.66,3.14-.82.83-1.65,1-3.47,1l-5.13-.16c-.16,0-.16.16-.33.16v2.65h-3.3V76.29h8.76c1.82,0,2.65,0,3.31.67.66.82.82,1.32.82,3.14Zm-4.3,1.49a1.22,1.22,0,0,0,1-.33,2.51,2.51,0,0,0,.33-1.16,1.24,1.24,0,0,0-.33-1,1.41,1.41,0,0,0-1-.33h-5.12c-.17.17-.17.17-.17.33v2.16c0,.16,0,.16.17.33Zm7.61,4.46a3,3,0,0,1-1-2.31V76.29h3.14v6.79c0,1.32,2.65,1.32,3.8,1.32,1,0,3.31.16,3.31-1.32V76.29h3.31v7.45a3.1,3.1,0,0,1-.83,2.14c-1,1.16-4.13,1-5.78,1-1.83,0-5.13.16-6-.83ZM149.33,77a2.86,2.86,0,0,1,.67,2,5.24,5.24,0,0,1-.33,1.82c-.5.66-1.16.66-1.16.83s.82.16,1.16.49a2.79,2.79,0,0,1,.66,1.82,3.25,3.25,0,0,1-.83,2.48c-.66.5-2.15.5-3.31.5h-9.42V76.29H146c1.32,0,2.81,0,3.3.67ZM147,79.6a1,1,0,0,0-1-1h-6.12v2H146A1,1,0,0,0,147,79.6Zm.33,4c0-.66-.33-1-1.32-1h-6.12V84.4h6.28c1,0,1.16-.33,1.16-.83Zm15.87.83v2.48H152.15V76.29h3.3V84.4Zm2.15-8.11h3.31V86.88h-3.31Zm18.69,6.62s.33,2.15-.5,3-3.63,1-5.95,1-5.29-.17-6-1a7.67,7.67,0,0,1-.83-4.29,7.84,7.84,0,0,1,1-4.47c.66-.66,3.47-.83,5.79-.83,2.48,0,5,.17,5.62.83a4.48,4.48,0,0,1,.66,2.81h-2.81a1.69,1.69,0,0,0-.33-.83,7.81,7.81,0,0,0-3.14-.33c-1.49,0-2.81,0-3.31.5a4.84,4.84,0,0,0-.49,2.32,3.72,3.72,0,0,0,.49,2.31c.33.5,1.82.5,3.31.5a7.59,7.59,0,0,0,3.14-.34,1.27,1.27,0,0,0,.33-1.15Zm21-6a2.26,2.26,0,0,1,.66,2,5,5,0,0,1-.33,1.82c-.5.66-1.16.66-1.16.83s.83.16,1.16.49a2.74,2.74,0,0,1,.66,1.82,3.25,3.25,0,0,1-.82,2.48c-.67.5-2.15.5-3.31.5h-9.26V76.29h9.09c1.33,0,2.81,0,3.31.67Zm-2.31,2.64a1,1,0,0,0-1-1h-6.11v2h6.11A1,1,0,0,0,202.75,79.6Zm.33,4c0-.66-.34-1-1.33-1h-6.12V84.4h6.29C202.91,84.4,203.08,84.07,203.08,83.57Zm4,3.31,6-10.59h4.79l5.62,10.59h-3.47l-1.15-2.15h-7.11l-1.16,2.15Zm6-4.3c0,.16,0,.16.16.16h4.3c.17,0,.17,0,.17-.16.16,0,.16-.17.16-.17L216,78.77a.16.16,0,0,0-.16-.16.17.17,0,0,0-.17-.17h-.49a.17.17,0,0,0-.17.17l-.16.16L213,82.25c0,.16-.17.16,0,.33Zm16-3.31c-.17-.33-.17-.33-.5-.33s-.33,0-.33.33v7.61h-3V76.29h5.46L236,83.9c.17.33.33.33.66.33.17,0,.17,0,.17-.33V76.29h3V86.88h-5.46L229,79.27Zm16.53,3.8v3.81h-3.14V76.29h3.14V80.1a.53.53,0,0,0,.33.16h1.66l4.13-4h4.63l-6.12,5.13,6.62,5.46h-4.63l-4.8-4.14h-1.82v.33ZM198.78,31.81,188.52,21.73H173.64L163.22,32V42.56l1.66,1.49-1.66,1.49V56.12l10.26,10.09h15.21l10.09-9.92V45.37l-1.49-1.32,1.49-1.32V31.81Zm-17.7,31.26L168.85,50.83l1.32-1.32,3.31,3.14h15.21L192,49.34l1.49,1.49L181.08,63.07Zm-5.45-19,5.45-5.46,5.63,5.46-5.63,5.46ZM192,38.59l-3.48-3.3H173.64l-3.47,3.47-1.32-1.49L181.08,25l12.41,12.24L192,38.59Z" transform="translate(-105.85 -21.73)"/></svg>