<svg id="PIX" xmlns="http://www.w3.org/2000/svg" viewBox="0 0 186.71 65.75"><defs><style>.cls-1{fill:none;stroke:#939598;stroke-linecap:round;stroke-linejoin:round;stroke-width:4.7px;}.cls-2{fill:#30aba6;}.cls-3{fill:#939598;}</style></defs><path class="cls-1" d="M159.89,82.37V44.66A12.56,12.56,0,0,1,172.45,32.1h11.14a12.55,12.55,0,0,1,12.52,12.55v8a12.57,12.57,0,0,1-12.57,12.56H167.81m31.41-33.16h4.83a5.15,5.15,0,0,1,5.15,5.16V65.42" transform="translate(-83.55 -20.97)"/><path class="cls-2" d="M208.17,27.73,206,25.54a1.38,1.38,0,0,1,0-2l2.19-2.19a1.4,1.4,0,0,1,2,0l2.19,2.19a1.4,1.4,0,0,1,0,2l-2.19,2.19a1.4,1.4,0,0,1-2,0Z" transform="translate(-83.55 -20.97)"/><path class="cls-1" d="M218.47,32.07h4.79a9.3,9.3,0,0,1,6.57,2.72L241,46a3.72,3.72,0,0,0,5.26,0l11.16-11.16A9.29,9.29,0,0,1,264,32.11h3.89M218.47,65.17h4.79a9.3,9.3,0,0,0,6.57-2.72L241,51.25a3.72,3.72,0,0,1,5.26,0l11.16,11.16A9.29,9.29,0,0,0,264,65.13h3.89" transform="translate(-83.55 -20.97)"/><path class="cls-2" d="M131.34,72.33A9,9,0,0,1,125,69.69l-9.19-9.19a1.75,1.75,0,0,0-2.41,0l-9.23,9.23a8.93,8.93,0,0,1-6.36,2.63H96L107.61,84a9.29,9.29,0,0,0,13.16,0l11.67-11.67Z" transform="translate(-83.55 -20.97)"/><path class="cls-2" d="M97.78,39.82a8.94,8.94,0,0,1,6.36,2.64l9.23,9.22a1.7,1.7,0,0,0,2.41,0L125,42.49a8.94,8.94,0,0,1,6.37-2.63h1.1L120.77,28.18a9.31,9.31,0,0,0-13.16,0L96,39.82Z" transform="translate(-83.55 -20.97)"/><path class="cls-2" d="M142.1,49.51l-7.06-7a1.35,1.35,0,0,1-.5.1h-3.2a6.35,6.35,0,0,0-4.46,1.84l-9.19,9.19a4.42,4.42,0,0,1-6.24,0l-9.22-9.22a6.34,6.34,0,0,0-4.45-1.85h-4a1.51,1.51,0,0,1-.47-.09l-7.08,7.08a9.29,9.29,0,0,0,0,13.16l7.08,7.09a1.28,1.28,0,0,1,.47-.1h4a6.33,6.33,0,0,0,4.45-1.84l9.22-9.23a4.52,4.52,0,0,1,6.24,0l9.19,9.19a6.36,6.36,0,0,0,4.46,1.85h3.2a1.18,1.18,0,0,1,.5.1l7.06-7.06a9.31,9.31,0,0,0,0-13.16Z" transform="translate(-83.55 -20.97)"/><path class="cls-3" d="M169.47,79.17a8,8,0,0,0-1.73.26v2.3a4,4,0,0,0,1.34.22c1.16,0,1.7-.39,1.7-1.4s-.45-1.38-1.31-1.38Zm-2.12,4.26V78.89h.32l0,.2a8.66,8.66,0,0,1,1.8-.29,1.78,1.78,0,0,1,1.18.34,1.75,1.75,0,0,1,.52,1.41,1.58,1.58,0,0,1-.74,1.46,2.87,2.87,0,0,1-1.34.3,5.08,5.08,0,0,1-1.38-.21v1.33Z" transform="translate(-83.55 -20.97)"/><path class="cls-3" d="M174.09,79.15c-1.15,0-1.67.36-1.67,1.38s.51,1.42,1.67,1.42,1.66-.36,1.66-1.37-.51-1.43-1.66-1.43Zm1.48,2.8a2.45,2.45,0,0,1-1.48.36A2.54,2.54,0,0,1,172.6,82a1.59,1.59,0,0,1-.59-1.4,1.63,1.63,0,0,1,.59-1.4,3.33,3.33,0,0,1,3,0,2,2,0,0,1,0,2.8Zm0,0Z" transform="translate(-83.55 -20.97)"/><polygon class="cls-3" points="97.47 61.24 96.19 58.48 96.16 58.48 94.9 61.24 94.55 61.24 93.18 57.91 93.61 57.91 94.75 60.71 94.78 60.71 96.01 57.91 96.37 57.91 97.64 60.71 97.67 60.71 98.78 57.91 99.19 57.91 97.82 61.24 97.47 61.24 97.47 61.24"/><path class="cls-3" d="M185.23,79.14c-1.07,0-1.43.48-1.5,1.16h3c0-.75-.42-1.16-1.49-1.16Zm0,3.17a2.06,2.06,0,0,1-1.39-.37,1.77,1.77,0,0,1-.52-1.39,1.75,1.75,0,0,1,.62-1.42,2.82,2.82,0,0,1,2.63,0,1.68,1.68,0,0,1,.57,1.53h-3.41c0,.69.24,1.29,1.53,1.29a10.17,10.17,0,0,0,1.72-.19v.35a10.09,10.09,0,0,1-1.75.21Z" transform="translate(-83.55 -20.97)"/><path class="cls-3" d="M188.25,82.21V78.89h.31l0,.2a5.74,5.74,0,0,1,1.65-.29h.05v.37h-.1a5.41,5.41,0,0,0-1.56.26v2.78Z" transform="translate(-83.55 -20.97)"/><path class="cls-3" d="M192.55,79.14c-1.06,0-1.43.48-1.49,1.16h3c0-.75-.42-1.16-1.5-1.16Zm0,3.17a2,2,0,0,1-1.38-.37,2,2,0,0,1,.1-2.81,2.8,2.8,0,0,1,2.62,0,1.69,1.69,0,0,1,.58,1.53h-3.41c0,.69.23,1.29,1.52,1.29a10.05,10.05,0,0,0,1.72-.19v.35a10,10,0,0,1-1.75.21Z" transform="translate(-83.55 -20.97)"/><path class="cls-3" d="M198.71,79.38a3.78,3.78,0,0,0-1.34-.23c-1.15,0-1.7.39-1.7,1.4s.45,1.39,1.32,1.39a8.66,8.66,0,0,0,1.72-.26v-2.3Zm.08,2.83,0-.19a9.4,9.4,0,0,1-1.79.29,1.53,1.53,0,0,1-1.7-1.76A1.55,1.55,0,0,1,196,79.1a2.79,2.79,0,0,1,1.35-.3,5,5,0,0,1,1.37.21V77.49h.39v4.72Z" transform="translate(-83.55 -20.97)"/><path class="cls-3" d="M204.8,79.17a8.07,8.07,0,0,0-1.73.26v2.29a3.87,3.87,0,0,0,1.35.23c1.15,0,1.7-.39,1.7-1.4s-.45-1.38-1.32-1.38Zm1,2.84a2.83,2.83,0,0,1-1.33.3,4.85,4.85,0,0,1-1.49-.25l0,.15h-.26V77.49h.38v1.58a9.41,9.41,0,0,1,1.76-.27,1.76,1.76,0,0,1,1.18.34,1.71,1.71,0,0,1,.52,1.41,1.58,1.58,0,0,1-.74,1.46Z" transform="translate(-83.55 -20.97)"/><path class="cls-3" d="M207.05,83.49v-.36l.49,0a1,1,0,0,0,1-.68l.13-.27L207,78.89h.45l1.48,2.87h0l1.42-2.87h.44l-1.87,3.73a1.35,1.35,0,0,1-1.39.9,4,4,0,0,1-.48,0Z" transform="translate(-83.55 -20.97)"/><path class="cls-3" d="M216.14,80.32h-1.29v1.16h1.3c.89,0,1.22-.1,1.22-.58s-.46-.58-1.23-.58Zm-.23-1.89h-1.06v1.18h1.06c.88,0,1.23-.1,1.23-.6s-.44-.58-1.23-.58Zm2,3.47a3.9,3.9,0,0,1-2.1.31h-2V77.7h1.92a3.71,3.71,0,0,1,1.91.29,1,1,0,0,1,.47.9,1,1,0,0,1-.72,1v0c.58.13,1,.42,1,1.06a1,1,0,0,1-.48.92Z" transform="translate(-83.55 -20.97)"/><path class="cls-3" d="M222.33,80.82a11.67,11.67,0,0,0-1.2,0c-.68,0-.92.13-.92.44s.2.45.72.45a6.75,6.75,0,0,0,1.4-.2v-.64Zm.2,1.39,0-.19a8,8,0,0,1-1.8.29,1.71,1.71,0,0,1-1-.25,1,1,0,0,1-.37-.8.92.92,0,0,1,.56-.9,3,3,0,0,1,1.24-.18c.35,0,.82,0,1.21,0v-.06c0-.52-.34-.7-1.28-.7-.36,0-.8,0-1.22.06v-.67c.46,0,1-.06,1.43-.06a2.73,2.73,0,0,1,1.54.31,1.22,1.22,0,0,1,.46,1.13v2Z" transform="translate(-83.55 -20.97)"/><path class="cls-3" d="M227.6,82.21V80.38c0-.61-.31-.83-.86-.83a6.71,6.71,0,0,0-1.36.21v2.45h-.93V78.89h.76l0,.21a7.8,7.8,0,0,1,1.78-.3,1.66,1.66,0,0,1,1.14.34,1.3,1.3,0,0,1,.36,1v2Z" transform="translate(-83.55 -20.97)"/><path class="cls-3" d="M231.15,82.31a1.88,1.88,0,0,1-1.24-.35,1.71,1.71,0,0,1-.53-1.41,1.6,1.6,0,0,1,.68-1.42,2.55,2.55,0,0,1,1.46-.33c.38,0,.76,0,1.17.06v.71c-.33,0-.73-.06-1.06-.06-.88,0-1.29.28-1.29,1s.3,1,1,1a8.19,8.19,0,0,0,1.4-.17v.69a9,9,0,0,1-1.62.21Z" transform="translate(-83.55 -20.97)"/><path class="cls-3" d="M235.51,79.49c-.88,0-1.27.28-1.27,1s.38,1.08,1.27,1.08,1.26-.27,1.26-1-.38-1.09-1.26-1.09ZM237.1,82a3.81,3.81,0,0,1-3.19,0,1.89,1.89,0,0,1,0-2.82,3.91,3.91,0,0,1,3.19,0,1.91,1.91,0,0,1,0,2.82Zm0,0Z" transform="translate(-83.55 -20.97)"/><path class="cls-3" d="M243.08,82.31a2.55,2.55,0,0,1-1.62-.47,2.33,2.33,0,0,1-.7-1.89,2.21,2.21,0,0,1,.91-1.91,3.43,3.43,0,0,1,1.91-.43c.5,0,1,0,1.58.08v.81c-.48,0-1.08-.07-1.54-.07-1.28,0-1.83.48-1.83,1.52s.51,1.54,1.46,1.54a10.71,10.71,0,0,0,2-.27V82a11.12,11.12,0,0,1-2.18.29Z" transform="translate(-83.55 -20.97)"/><path class="cls-3" d="M248,79.39c-.77,0-1.06.28-1.12.78h2.24c0-.54-.35-.78-1.12-.78Zm-.13,2.92a2.17,2.17,0,0,1-1.41-.37,2,2,0,0,1,.09-2.8A2.46,2.46,0,0,1,248,78.8a2.61,2.61,0,0,1,1.45.33,1.79,1.79,0,0,1,.58,1.64h-3.16c0,.51.29.84,1.23.84a12.79,12.79,0,0,0,1.77-.17v.65a13.3,13.3,0,0,1-2,.22Z" transform="translate(-83.55 -20.97)"/><path class="cls-3" d="M254.14,82.21V80.38c0-.61-.31-.83-.86-.83a6.71,6.71,0,0,0-1.36.21v2.45H251V78.89h.75l0,.21a7.63,7.63,0,0,1,1.77-.3,1.64,1.64,0,0,1,1.14.34,1.27,1.27,0,0,1,.37,1v2Z" transform="translate(-83.55 -20.97)"/><path class="cls-3" d="M257.71,82.31a1.2,1.2,0,0,1-1.08-.48,1.7,1.7,0,0,1-.24-1V79.58h-.68v-.69h.68l.09-1h.83v1h1.31v.69h-1.31v1.07a1.65,1.65,0,0,0,.09.63.6.6,0,0,0,.61.31,3.42,3.42,0,0,0,.66-.07v.67a5.14,5.14,0,0,1-1,.12Z" transform="translate(-83.55 -20.97)"/><path class="cls-3" d="M259.52,82.21V78.89h.76l0,.21a5.88,5.88,0,0,1,1.65-.3h.12v.79h-.32a5.18,5.18,0,0,0-1.31.17v2.45Z" transform="translate(-83.55 -20.97)"/><path class="cls-3" d="M265.45,80.82a11.47,11.47,0,0,0-1.19,0c-.68,0-.92.13-.92.44s.2.45.72.45a6.76,6.76,0,0,0,1.39-.2v-.64Zm.2,1.39,0-.19a8,8,0,0,1-1.81.29,1.73,1.73,0,0,1-1-.25.94.94,0,0,1-.36-.8.92.92,0,0,1,.55-.9,3,3,0,0,1,1.25-.18c.35,0,.82,0,1.21,0v-.06c0-.52-.35-.7-1.28-.7-.36,0-.81,0-1.23.06v-.67c.47,0,1-.06,1.43-.06a2.77,2.77,0,0,1,1.55.31,1.22,1.22,0,0,1,.45,1.13v2Z" transform="translate(-83.55 -20.97)"/><polygon class="cls-3" points="184.03 56.51 184.95 56.51 184.95 61.24 184.03 61.24 184.03 56.51 184.03 56.51"/></svg>