<svg id="Poli" xmlns="http://www.w3.org/2000/svg" viewBox="0 0 193.15 68.25"><defs><style>.cls-1{fill:#2f4396;fill-rule:evenodd;}</style></defs><path d="M80.31,85.33V26.58H95.53c5.6,0,10.85-.13,13.52.35a26.2,26.2,0,0,1,8,2.93,14,14,0,0,1,5.56,6.63A26,26,0,0,1,124.5,47c0,6.69-1.45,11.94-5,15.42s-11.36,5-18.18,5h-3.9V85.29H80.31Zm17-28.72c.23,0,.26,0,.81.07,5.31.19,6.69-1.13,7.53-2.13,1.26-1.54,1.29-5,1.29-8.24,0-2.67.1-4.86-1.84-7-1.25-1.39-4.37-1.84-7.79-1.84l0,1V56.61Z" transform="translate(-80.31 -19.62)"/><path d="M237,85.07H198.45V26.22h19V67.43H237Z" transform="translate(-80.31 -19.62)"/><rect x="159.96" y="26.91" width="18.22" height="38.63"/><rect x="159.7" y="6.86" width="18.61" height="15.97"/><path d="M266.69,79.44h-5.38v1.12h2v4.28h1.38V80.56h2Z" transform="translate(-80.31 -19.62)"/><path class="cls-1" d="M172.89,81a22.3,22.3,0,0,0,7-4.63c5.89-5.35,12.07-14.46,11.59-25.53-.52-11.65-6.76-19.12-15.07-23.79,2.42.52,4.38,2.13,6.25,3.64,5.34,4.31,9.4,11,9.56,20.44.22,12.52-6.44,21.08-13,27,2.06-1,3.67-2.93,5.22-4.8a34.4,34.4,0,0,0,8.4-22c0-13.14-7.44-20.7-16.1-25.66A21.25,21.25,0,0,1,184.19,30a27.14,27.14,0,0,1,9.27,22.63,36,36,0,0,1-11.3,24.21,40.6,40.6,0,0,1-24.37,11,24.53,24.53,0,0,1-3.64,0C139,86.55,128,76.86,126.89,62a27.65,27.65,0,0,1,0-4.64,35.91,35.91,0,0,1,10.43-22.63c6.05-6.27,13.68-11,24.33-11.75.26-1.16.58-2.51.74-3.35,3.51,3.74,7.76,7.8,12.17,12.17-5.31,2.71-10.46,5.57-15.64,8.4.12-1.06.35-2.28.41-3-8.91,1.57-16.41,8-18,17.09-1.9,11,5.47,19.51,16.1,19.57s19.83-8.21,21.44-17.67c1.32-7.66-2.06-13-6.38-16.51,4,2.67,8.4,7.46,7.82,14.64-.9,11.2-11.42,20.51-22.46,20.57a19.76,19.76,0,0,1-15.23-7.11c3.6,5.25,9.91,8,17.09,7.53a22.45,22.45,0,0,0,13.91-6.53,23.78,23.78,0,0,0,7.11-13.2,21.63,21.63,0,0,0,0-6c-.87-5.79-4.41-8.5-7.63-12.2,4.57,3.67,9.4,8.53,9.08,16.42-.48,11.52-11.49,21.7-23.05,22.47A19.86,19.86,0,0,1,143,70.45c3.8,4.8,10.91,7.28,18.41,6.09C172,74.86,181.51,66,182.67,54.94c1-9.95-4-14.58-8.82-19.48,5.12,3.9,9.5,8.18,9.82,16.13.29,6.89-3.09,13.65-7.4,18C169.38,76.44,156,81,145.52,74.64c8.89,6.79,22.67,2.9,30-3.77,5.31-4.83,9.2-11.26,8.56-20.86-.52-7.72-4.89-11.68-9.85-15.8A19.34,19.34,0,0,1,185,49.56c.93,9.85-3.61,17.16-9.14,22-6.67,5.89-16.07,9.4-26.69,6.66,17.51,5.48,33.9-7.56,36.25-22.59,1.67-10.82-3.87-17.19-9.15-21.76-.54-.46-.83-.81-1.57-1.45C182.19,36.36,188.43,45,186,57.22,183.09,71.45,168.83,83,150.45,80c2.67,1.07,5.79.84,8.5.71,8.37-.45,15.93-4.63,20-9.14,4.92-5.47,8.82-12.36,8.05-22.31-.68-9-5.7-13.29-11.85-18.06A17.23,17.23,0,0,1,181.8,36a22.31,22.31,0,0,1,6,13.61c.74,10.24-4,17.87-9.14,23.21a30.65,30.65,0,0,1-22.47,9.43c14.87.45,24.79-8.69,29.58-18.83,2.74-5.82,3.55-14,1.32-20.44-2.06-5.92-6.79-10-11.46-13.26,8.15,4.34,15,12.49,13.49,25.14a29.87,29.87,0,0,1-4.25,12.33c-4.44,7.43-11.68,12.68-19.83,15.51A31.11,31.11,0,0,0,181,73.09c5.15-5.69,9.11-12.9,8.85-22.88-.29-10.79-6.95-17-13.78-21.89a1.46,1.46,0,0,1,.26.06c7.44,3.64,13.07,10,14.23,19.8,2,15.61-8.21,26.94-17.67,32.83" transform="translate(-80.31 -19.62)"/><path d="M272.1,84.94V82.33l-.77,1.32-.87,0-.78-1.29v2.61h-1.35v-5.5h1.32l1.23,2.41,1.25-2.41h1.32v5.5Z" transform="translate(-80.31 -19.62)"/></svg>