<svg id="Przelewy24" xmlns="http://www.w3.org/2000/svg" viewBox="0 0 193.95 65.42"><defs><style>.cls-1{fill:#d13139;}.cls-2{fill:#b3b2b1;}</style></defs><polygon class="cls-1" points="40.61 37.71 56.64 37.68 56.06 41.33 42.64 54.1 53.89 54.1 53.25 58.01 36.69 58.01 37.37 53.97 50.21 41.65 39.96 41.65 40.61 37.71"/><path class="cls-1" d="M104.68,53.24a4.19,4.19,0,0,0-1.39-.88,11.92,11.92,0,0,0-1.87-.51,21.22,21.22,0,0,0-2.13-.23c-.52,0-.85,0-.85,0H86.22L81.57,79.78h4.36l1.72-10.44,8.47,0a13,13,0,0,0,5.62-1.1,6.69,6.69,0,0,0,3-4s.26-1,.48-2.33.49-3.07.58-4c.07-.38.1-.64.1-.64a3.52,3.52,0,0,0,.07-.75,5.19,5.19,0,0,0-.59-2.45A6.93,6.93,0,0,0,104.68,53.24Zm-3.36,5c0,.06-.39,2.32-.9,5A2.23,2.23,0,0,1,98.54,65a13.74,13.74,0,0,1-3.1.26l-7.08,0,1.55-9.38,6.4,0h1a19.84,19.84,0,0,1,2.36.13,2.47,2.47,0,0,1,1.32.42,1.58,1.58,0,0,1,.32.93A4,4,0,0,1,101.32,58.22Z" transform="translate(-81.57 -21.77)"/><polygon class="cls-1" points="78.33 29.82 82.54 29.82 77.85 58.01 73.65 58.01 78.33 29.82"/><polygon class="cls-1" points="100.74 37.71 104.78 37.68 106.2 52 112.38 37.68 117.36 37.68 118.81 52.06 124.99 37.68 129.19 37.68 120.3 58.01 115.35 58.01 113.93 43.79 107.66 58.01 102.81 58.01 100.74 37.71"/><path class="cls-1" d="M152.18,59.64a18.6,18.6,0,0,0-5-.46,17.82,17.82,0,0,0-3.07.23,8.08,8.08,0,0,0-4.66,2.52c-1.68,2.1-2.19,6.66-2.19,6.66s-1,5-.72,6.73.81,3.23,2.72,4a10.14,10.14,0,0,0,3.52.72,24.29,24.29,0,0,0,5.95-.33,7.17,7.17,0,0,0,3.91-2.39,9.22,9.22,0,0,0,1-1.71,10,10,0,0,0,.58-1.65l.26-1.1H150.2S150,75.71,147.62,76a20.42,20.42,0,0,1-4.08.13c-.45,0-3,.1-2.78-2V74a9.73,9.73,0,0,1,.39-3l13.68,0,.58-3.39C156.15,63.68,155.67,60.77,152.18,59.64Zm-.94,7.4h-9.38l.36-1.49a3.58,3.58,0,0,1,1-1.64,4.21,4.21,0,0,1,2.26-.65,16.87,16.87,0,0,1,4.56.13,1.48,1.48,0,0,1,1.23.9A6.67,6.67,0,0,1,151.24,67Z" transform="translate(-81.57 -21.77)"/><path class="cls-1" d="M140.86,74v.1C140.83,74.25,140.86,74,140.86,74Z" transform="translate(-81.57 -21.77)"/><path class="cls-1" d="M166.63,74v0Z" transform="translate(-81.57 -21.77)"/><path class="cls-1" d="M177.94,59.64a18.52,18.52,0,0,0-4.94-.46,17.71,17.71,0,0,0-3.07.23,8.08,8.08,0,0,0-4.66,2.52c-1.68,2.1-2.2,6.66-2.2,6.66s-1,5-.71,6.73.81,3.23,2.72,4a10.11,10.11,0,0,0,3.52.72,24.3,24.3,0,0,0,6-.33,7.42,7.42,0,0,0,3.91-2.39,9.88,9.88,0,0,0,1-1.71,11.22,11.22,0,0,0,.58-1.65l.26-1.1H176s-.22,2.88-2.59,3.13a26.84,26.84,0,0,1-4.07.17c-.45,0-3,.09-2.78-2V74a9.59,9.59,0,0,1,.39-3l13.67,0,.59-3.39C181.92,63.71,181.47,60.77,177.94,59.64ZM177,67h-9.38l.36-1.49a3.58,3.58,0,0,1,1-1.64,4.16,4.16,0,0,1,2.26-.65,16.87,16.87,0,0,1,4.56.13,1.48,1.48,0,0,1,1.23.9A6.67,6.67,0,0,1,177,67Z" transform="translate(-81.57 -21.77)"/><path class="cls-1" d="M215.58,59.48l2.68,14.87,7.6-14.87,4.26,0-11,21.24s-2,3.85-3.2,4.82a5.57,5.57,0,0,1-3,1.52,7.47,7.47,0,0,1-2.36,0l-1-.2.65-3.78A6,6,0,0,0,213,83c1-.39,1.81-2.13,1.81-2.13l.51-.87-4-20.6,4.27.07Z" transform="translate(-81.57 -21.77)"/><path class="cls-2" d="M231.71,61.48h4.39l.26-1.71s.49-3.11,1.52-3.69a5.56,5.56,0,0,1,1.52-.48,21.13,21.13,0,0,1,3.82-.2c1.84.07,2.52.1,4.39.29a1.54,1.54,0,0,1,1.39,2l-.35,2.68a6.54,6.54,0,0,1-.58,1.94,3.88,3.88,0,0,1-2,1.33c-1.46.48-6.43,1.74-6.43,1.74l-3.92,1.13a9.85,9.85,0,0,0-3.75,2.17,9.05,9.05,0,0,0-2.07,4.07c-.19.88-1.22,7-1.22,7h21.11l.71-4.21-16.68,0,.29-1.72s.19-1.78.9-2.36a3.64,3.64,0,0,1,1.68-.9c.81-.29,3.53-1,3.53-1l6.3-1.72s3.43-.87,4.79-2.78,1.87-5.46,1.87-5.46a24,24,0,0,0,.1-4.59,5.1,5.1,0,0,0-2.55-3c-1.27-.55-2.56-.9-6.37-.84s-5.69.23-7.6.94A6.09,6.09,0,0,0,233,56a25.4,25.4,0,0,0-1.26,5.5Z" transform="translate(-81.57 -21.77)"/><path class="cls-2" d="M271.44,69.34l3-17.72h-5.24L252.85,69.14l-.74,4.43h14.26l-1,6.24h4.4l1-6.24h4l.71-4.23Zm-4.33,0h-9.22l11.22-12Z" transform="translate(-81.57 -21.77)"/><path class="cls-2" d="M113.93,53.92h13.45s3-2.43,5.14-4,6-4,6-4L131,42.31s-6.44,4-9.15,5.85-7.89,5.76-7.89,5.76Z" transform="translate(-81.57 -21.77)"/><path class="cls-2" d="M142.8,43.38l-6.24-4.21A117.76,117.76,0,0,1,149.72,33c7.5-3,11.51-4.24,11.51-4.24l1.26,5.95S155.28,37.1,151.14,39a77.12,77.12,0,0,0-8.34,4.34Z" transform="translate(-81.57 -21.77)"/><path class="cls-2" d="M167.11,33.39,166,27.31s7.7-2,14.75-3.36A164.77,164.77,0,0,1,197.15,22L194,31.41a67.08,67.08,0,0,0-15.93-.06,88.72,88.72,0,0,0-11,2Z" transform="translate(-81.57 -21.77)"/><path class="cls-2" d="M199,32.22l5.2-10.44a143.76,143.76,0,0,1,21.21,1.29A147,147,0,0,1,244,27l-24.92,13A61.66,61.66,0,0,0,206,34.1c-4.08-1.2-7-1.88-7-1.88Z" transform="translate(-81.57 -21.77)"/><path class="cls-2" d="M223.56,42.89,229,47.06h45a9.06,9.06,0,0,0-1.3-3.52,22.47,22.47,0,0,0-3.52-4.08,38,38,0,0,0-4.14-3.13,62.62,62.62,0,0,0-10.31-5.43l-31.2,12Z" transform="translate(-81.57 -21.77)"/><path class="cls-1" d="M116.84,59.44a9.92,9.92,0,0,0-4.66,1.43l.23-1.43H108l-3.59,20.24h4.5l2-11.22c.42-2.26,2.1-5.07,5.43-5.07h2.33l.71-4Z" transform="translate(-81.57 -21.77)"/></svg>