<svg id="PSE" xmlns="http://www.w3.org/2000/svg" viewBox="0 0 160.61 62.67"><defs><style>.cls-1{fill:#1d3993;}.cls-2{fill:#ffb007;}</style></defs><path class="cls-1" d="M222.06,70.09H204.37a1,1,0,1,1,0-2H222a6.91,6.91,0,0,0,5.52-6.72c.21-5.37-2.89-5.91-3.39-6H212.74a6.42,6.42,0,0,1-5.38-7c0-5.62,4.76-8.14,7.29-8.68a.76.76,0,0,1,.21,0H230.8a1,1,0,0,1,0,2H215c-.77.2-5.65,1.63-5.61,6.73v.07c0,.18-.22,4.2,3.61,4.9,0,0,11.22,0,11.21,0s5.6.42,5.31,8a8.9,8.9,0,0,1-7.27,8.62Z" transform="translate(-99.82 -23.55)"/><path class="cls-1" d="M255.41,70.19H239c-2.16-.23-6.25-1.72-6.35-5.71-.09-4.25,2.77-17.14,2.89-17.69,0,0,0-.08,0-.13.1-.26,2.5-6.53,7.82-6.53h11.75a1.26,1.26,0,0,1,.27,0c.21.06,5,1.49,5,5.61a70.81,70.81,0,0,1-1.07,9.55,1,1,0,0,1-1,.83l-22.72.19a52.68,52.68,0,0,0-1,8.08c.08,3.09,4,3.7,4.5,3.77h16.27a1,1,0,1,1,0,2ZM237.47,47.3c-.11.51-.79,3.57-1.45,7.05l21.5-.18a64.82,64.82,0,0,0,.9-8.39c0-2.34-2.83-3.44-3.45-3.65H243.38C239.67,42.13,237.7,46.73,237.47,47.3Z" transform="translate(-99.82 -23.55)"/><path class="cls-1" d="M173.73,83.28h-.18a1,1,0,0,1-.81-1.16s1.6-8.79,3.21-17.58c.81-4.39,1.61-8.78,2.23-12.08.3-1.65.56-3,.74-4,.16-.79.26-1.32.37-1.66h0c1.14-3.08,4.67-6.38,7.28-6.79h.27c.67,0,7,0,11.24,0h0c1,0,6.18,1.93,5.57,6a.45.45,0,0,1,0,.11l-2.8,17,0,.1c-.06.22-1.53,5.24-6.43,6.69a1.09,1.09,0,0,1-.26,0l-10.32.29h-.13a9.53,9.53,0,0,1-6-3.65l-2.9,15.86A1,1,0,0,1,173.73,83.28Zm4.41-19.53a8,8,0,0,0,5.66,4.5L193.92,68c3.51-1.13,4.79-4.79,4.94-5.24l2.78-16.86C201.93,44,199,42,197.83,42l-5.44,0h-3.91c-.73,0-1.25,0-1.64,0-1.7.28-4.73,3-5.67,5.47C181,48.24,179.63,55.63,178.14,63.75Z" transform="translate(-99.82 -23.55)"/><path class="cls-2" d="M160.15,35.78a2.81,2.81,0,1,1-2.8-2.78A2.79,2.79,0,0,1,160.15,35.78Z" transform="translate(-99.82 -23.55)"/><ellipse class="cls-2" cx="51.18" cy="2.78" rx="2.8" ry="2.78"/><path class="cls-2" d="M147.43,35.78A2.81,2.81,0,1,1,144.62,33,2.8,2.8,0,0,1,147.43,35.78Z" transform="translate(-99.82 -23.55)"/><ellipse class="cls-2" cx="57.21" cy="50.14" rx="2.8" ry="2.78"/><ellipse class="cls-2" cx="51.17" cy="41.26" rx="2.8" ry="2.78"/><ellipse class="cls-2" cx="38.8" cy="41.26" rx="2.32" ry="2.3"/><path class="cls-2" d="M147.12,73.69a2.32,2.32,0,1,1-2.32-2.3A2.31,2.31,0,0,1,147.12,73.69Z" transform="translate(-99.82 -23.55)"/><ellipse class="cls-2" cx="38.63" cy="59.89" rx="2.32" ry="2.3"/><ellipse class="cls-2" cx="32.63" cy="50.14" rx="1.8" ry="1.78"/><ellipse class="cls-2" cx="10.54" cy="31.49" rx="1.8" ry="1.78"/><ellipse class="cls-2" cx="13.76" cy="21.98" rx="1.8" ry="1.78"/><path class="cls-2" d="M121.46,35.78a1.8,1.8,0,1,1-1.8-1.78A1.79,1.79,0,0,1,121.46,35.78Z" transform="translate(-99.82 -23.55)"/><path class="cls-2" d="M127.64,26.54a1.8,1.8,0,1,1-1.8-1.78A1.79,1.79,0,0,1,127.64,26.54Z" transform="translate(-99.82 -23.55)"/><ellipse class="cls-2" cx="26.2" cy="59.89" rx="1.8" ry="1.78"/><ellipse class="cls-2" cx="20.02" cy="50.14" rx="1.8" ry="1.78"/><ellipse class="cls-2" cx="13.67" cy="41.26" rx="1.8" ry="1.78"/><ellipse class="cls-2" cx="10.28" cy="50.14" rx="0.93" ry="0.92"/><ellipse class="cls-2" cx="4.49" cy="41.26" rx="0.93" ry="0.92"/><path class="cls-2" d="M101.67,54.87a.93.93,0,1,1-.93-.92A.92.92,0,0,1,101.67,54.87Z" transform="translate(-99.82 -23.55)"/><ellipse class="cls-2" cx="4.23" cy="22" rx="0.93" ry="0.92"/><ellipse class="cls-2" cx="10.49" cy="12.33" rx="0.93" ry="0.92"/><ellipse class="cls-2" cx="26.11" cy="41.26" rx="2.32" ry="2.3"/><ellipse class="cls-2" cx="19.59" cy="31.51" rx="2.32" ry="2.3"/><path class="cls-2" d="M128.16,45.53a2.32,2.32,0,1,1-2.32-2.3A2.31,2.31,0,0,1,128.16,45.53Z" transform="translate(-99.82 -23.55)"/><ellipse class="cls-2" cx="32.46" cy="12.24" rx="2.32" ry="2.3"/><ellipse class="cls-2" cx="38.55" cy="2.82" rx="2.32" ry="2.3"/><ellipse class="cls-2" cx="32.29" cy="31.51" rx="2.8" ry="2.78"/><ellipse class="cls-2" cx="38.55" cy="21.98" rx="2.8" ry="2.78"/><ellipse class="cls-2" cx="51.17" cy="59.89" rx="2.8" ry="2.78"/><rect class="cls-2" x="33.72" y="30.53" width="41.49" height="1.71"/><rect class="cls-2" x="40.62" y="21.13" width="13.05" height="1.71"/><polygon class="cls-2" points="59.27 32.14 52.09 21.13 54.1 21.13 61.28 32.14 59.27 32.14"/><rect class="cls-2" x="53.35" y="40.4" width="6.66" height="1.71"/><polygon class="cls-2" points="58.42 42.11 64.38 32.14 66.1 32.14 60.15 42.11 58.42 42.11"/></svg>