<svg id="QRIS" xmlns="http://www.w3.org/2000/svg" xmlns:xlink="http://www.w3.org/1999/xlink" viewBox="0 0 168.48 63.86"><defs><style>.cls-1{fill:none;}.cls-2{clip-path:url(#clip-path);}</style><clipPath id="clip-path" transform="translate(-95.47 -21.53)"><rect class="cls-1" x="92.11" y="18.23" width="176.09" height="72.43"/></clipPath></defs><g class="cls-2"><path id="path114" d="M150.69,32h43.45V58H175.91l18.23,16.69H178.65L160.77,58V74.71H150.69V48.21h31.85V41.86H150.69Z" transform="translate(-95.47 -21.53)"/><path id="path116" d="M198.65,74.71h10.62V31.87H198.65Z" transform="translate(-95.47 -21.53)"/><path id="path118" d="M113.61,64.37V32h-8.32a2.56,2.56,0,0,0-2.65,2.51c0,7.65-.09,30.16-.09,37.63a2.62,2.62,0,0,0,2.56,2.61H129.8V64.37Z" transform="translate(-95.47 -21.53)"/><path id="path120" d="M135.29,85.39h10.88V63.93H135.29Z" transform="translate(-95.47 -21.53)"/><path id="path122" d="M118.92,32V42.64h16.37v16h10.88V34.56a2.67,2.67,0,0,0-2.56-2.6Z" transform="translate(-95.47 -21.53)"/><path id="path124" d="M118.92,47.86V58.72h10.79V47.86Zm7.61,7.56H122.1V51.07h4.43Z" transform="translate(-95.47 -21.53)"/><path id="path126" d="M261.39,63.93v16a2.63,2.63,0,0,1-2.66,2.52H242.45v2.61h19A2.53,2.53,0,0,0,264,82.53V63.93Z" transform="translate(-95.47 -21.53)"/><path id="path128" d="M98.12,42.56v-16a2.41,2.41,0,0,1,2.48-2.44h16.28a.08.08,0,0,0,.09-.08V21.62a.09.09,0,0,0-.09-.09H98.12a2.58,2.58,0,0,0-2.65,2.6V42.56c0,.08.09.08.09.08H98S98.12,42.64,98.12,42.56Z" transform="translate(-95.47 -21.53)"/><path id="path130" d="M256.78,42.56V32H213.87V58.55h28.58v5.3H213.87V74.53h42.91V47.94H228.2V42.56Z" transform="translate(-95.47 -21.53)"/></g></svg>