<svg id="Rapi_Pago" data-name="Rapi Pago" xmlns="http://www.w3.org/2000/svg" viewBox="0 0 179.94 70.2"><defs><style>.cls-1{fill:#f8190d;}.cls-2{fill:#1a0a5f;}.cls-3{fill:none;}</style></defs><path class="cls-1" d="M218.15,29c2,4.75-1.79,11-8.56,13.86s-13.92,1.41-16-3.34,1.79-10.95,8.56-13.86S216.11,24.23,218.15,29Z" transform="translate(-83.55 -20.98)"/><path class="cls-2" d="M186,61.76l-18.91.07-1.95,4.91h2.1a1.18,1.18,0,0,1,.7,1.63l-7.23,18h7.16l2.8-6.77h8.63a8.21,8.21,0,0,0,6.54-4.12l3.89-9.65S191,62.61,186,61.76Zm-4.44,6.92-2,4.59s-.39,1.25-2.34,1.25l-4.59-.16,3-7.39h5S181.92,67,181.53,68.68Z" transform="translate(-83.55 -20.98)"/><path class="cls-2" d="M210.24,71.79l4-10H199.35s-6,.63-7.63,4.52L188.53,74s-1.55,5,2.73,5.37h19.3l2-4.82S208.92,75,210.24,71.79Zm-8,2.73H197s-1.09-.16-.55-2c0,0,1.63-5.6,4-5.75l4.59.15Z" transform="translate(-83.55 -20.98)"/><path class="cls-2" d="M236.12,67l-2.65-2.84a1.3,1.3,0,0,1,.1-2l1.3-.92-3.32-3.56a179,179,0,0,0-18.1,10.54,3.53,3.53,0,0,0-.09,4l6.3,6.55a1.57,1.57,0,0,1-1.2,2.16l-4.48,0-2.21,4.86c1.15,0,8-.1,8-.1,6.2-3.13,7.94-5.63,7.94-5.63a2.79,2.79,0,0,0,0-3.13c-.82-1,.53-1.44.53-1.44a39,39,0,0,0,7.56-5.15A3.12,3.12,0,0,0,236.12,67Zm-7.51,2.6L223.22,73a1,1,0,0,1-1.3-.14l-2.16-2.46c-.58-.72.33-1.78.33-1.78L224.23,66c1.83-.77,2.55,0,2.55,0l1.83,1.79A1.56,1.56,0,0,1,228.61,69.62Z" transform="translate(-83.55 -20.98)"/><path class="cls-2" d="M262.87,67.62s-5.39-5.34-6.68-5.87a7.33,7.33,0,0,0-5.68,0S242,66,238.09,68.68c0,0-2.45,1.88-1.54,4.29,0,0,5,5.82,6.54,6.54,0,0,1.93,1.35,5.3.34,0,0,9.62-3.71,14.44-8.28A3.34,3.34,0,0,0,262.87,67.62Zm-8,3.57c0,.24-4.87,2.79-4.87,2.79a2.64,2.64,0,0,1-2.64.09,14.28,14.28,0,0,1-2.31-2.31c-.58-.62,0-1.54,0-1.54a34.7,34.7,0,0,1,5.06-3c1-.62,2.5.15,2.5.15l2.22,2A1.29,1.29,0,0,1,254.89,71.19Z" transform="translate(-83.55 -20.98)"/><path class="cls-1" d="M164.07,61.85h-7.13s-4.52,11-4.95,12.51c0,0-.87,2.7.43,3.76a5,5,0,0,0,2.93,1.39l5-.05,2.12-4.91h-1.59a1.43,1.43,0,0,1-1.06-2.11Z" transform="translate(-83.55 -20.98)"/><path class="cls-1" d="M160.79,54.73s2.65-.87,4.14.14a2.07,2.07,0,0,1,.39,3.23s-1.21,2-4.53,2.06c0,0-2.79.34-3-2C157.81,58.19,157.66,55.83,160.79,54.73Z" transform="translate(-83.55 -20.98)"/><path class="cls-1" d="M151.55,63a5.22,5.22,0,0,0-3.37-1.26l-18.14,0-1.88,5h1.54s1.69,0,.72,2.45l-6.73,17.23,7.07,0,2.6-7.07,9.19,0s2.65.29,5.06-2.64c0,0,3.65-5.83,4.62-10.21C152.23,66.61,153.14,64.21,151.55,63Zm-7.36,5.82c0,1-1.83,4.43-1.83,4.43A3.21,3.21,0,0,1,140,74.46h-4.57L138.46,67h4.77C144.86,67.05,144.19,68.78,144.19,68.78Z" transform="translate(-83.55 -20.98)"/><path class="cls-1" d="M124,71.62l4-9.87-14.34,0a13,13,0,0,0-4.58,1.11,6.35,6.35,0,0,0-3.41,3.27c-1.06,1.59-3.23,7.7-3.23,7.7-1.25,3,0,4.1,0,4.1a4.58,4.58,0,0,0,3.52,1.63l18.38,0,2-4.86-2.26-.39C123,73.78,124,71.62,124,71.62Zm-8.08,2.74-4.77.1s-1.73-.1-1-2.36c0,0,.87-3,1.83-4a2.75,2.75,0,0,1,2.5-1.16l4.19.1Z" transform="translate(-83.55 -20.98)"/><path class="cls-1" d="M105.2,61.8l-2.11,5.1H97.46s-1.55-.29-2.51,1.88L90.77,79.46l-7.22.1,7-17.81Z" transform="translate(-83.55 -20.98)"/><path class="cls-2" d="M203.82,21s-7,2.35-9.34,5.1a19.3,19.3,0,0,0-5.29,9.19s-.63,5.29,2,7.89c0,0,2.41,3.08,4.77,3.9a18.94,18.94,0,0,0,8.37.92s8.38-1.06,12.76-5.88c0,0-2.12,4.48-8.86,9.05a35.54,35.54,0,0,1-12,5.06s-6.79,1.78-12.71.28c0,0-6.06-1.2-8.9-4.81a11.52,11.52,0,0,1-3.13-7.36S171,39.52,175,34c0,0,4.09-5,8.18-7.41a57,57,0,0,1,9.39-4.24A34.25,34.25,0,0,1,203.82,21Z" transform="translate(-83.55 -20.98)"/><path class="cls-3" d="M231.79,90.43s.33-.12.36.29c0,0-.06.66-.36.39C231.79,91.11,231.32,90.4,231.79,90.43Z" transform="translate(-83.55 -20.98)"/></svg>