<svg id="Razorpay" xmlns="http://www.w3.org/2000/svg" viewBox="0 0 276.04 58.31"><defs><style>.cls-1{fill:#3395ff;}.cls-2{fill:#072654;}</style></defs><path class="cls-1" d="M61,45l-2.29,8.44L71.85,45,63.26,77H72L84.67,29.7" transform="translate(-43.26 -29.7)"/><path class="cls-2" d="M46.88,63.56,43.26,77H61.14l7.32-27.41ZM109,51.7a5.67,5.67,0,0,1-2.53,3.58,10.2,10.2,0,0,1-5.28,1.14H94L96.49,47h7.21c2.27,0,3.82.38,4.67,1.15s1,1.95.61,3.58m7.47-.2q1.38-5.11-1.14-7.87c-1.67-1.82-4.61-2.74-8.81-2.74H90.41L80.72,77.05h7.82l3.9-14.57h5.13a5.72,5.72,0,0,1,2.72.55,2.49,2.49,0,0,1,1.17,2l1.4,12h8.37l-1.36-11.22c-.27-2.5-1.42-4-3.43-4.41a14.92,14.92,0,0,0,6.45-3.7,13.54,13.54,0,0,0,3.56-6.2m19,12.59a11.76,11.76,0,0,1-3,5.6,6.85,6.85,0,0,1-4.89,1.93c-1.93,0-3.24-.62-3.93-1.89s-.72-3.1-.07-5.51a11.9,11.9,0,0,1,3.08-5.64,7,7,0,0,1,5-2c1.9,0,3.19.66,3.85,2s.68,3.18,0,5.61Zm3.42-12.79-1,3.66a5.81,5.81,0,0,0-2.45-3.15,8.29,8.29,0,0,0-4.51-1.17,12.77,12.77,0,0,0-6.34,1.71,16.91,16.91,0,0,0-5.32,4.81A21.13,21.13,0,0,0,116,64.23a15.23,15.23,0,0,0-.43,7,7.61,7.61,0,0,0,2.77,4.64,8.71,8.71,0,0,0,5.48,1.64,12.14,12.14,0,0,0,5.13-1.13A12,12,0,0,0,133,73.28l-1,3.81h7.56l6.9-25.76h-7.6Zm34.77,0h-22l-1.53,5.74h12.79L146,71.67l-1.45,5.39h22.7l1.54-5.74H155.09l17.17-14.83M193,64.07a11.73,11.73,0,0,1-3,5.68,6.81,6.81,0,0,1-4.84,1.88q-5.94,0-3.91-7.56a11.65,11.65,0,0,1,3-5.66,6.92,6.92,0,0,1,4.92-1.91c1.9,0,3.18.63,3.83,1.9s.66,3.16,0,5.67m4.42-11.78a12.46,12.46,0,0,0-6.67-1.63,18,18,0,0,0-7.62,1.62,16.42,16.42,0,0,0-6,4.67,18.9,18.9,0,0,0-3.56,7.11,13.77,13.77,0,0,0-.25,7.1,7.68,7.68,0,0,0,3.47,4.66,12.65,12.65,0,0,0,6.76,1.63,17.68,17.68,0,0,0,7.55-1.63,16.72,16.72,0,0,0,5.94-4.68A18.74,18.74,0,0,0,200.63,64a13.59,13.59,0,0,0,.27-7.1,7.73,7.73,0,0,0-3.44-4.67m27,5.94,1.94-7a5.73,5.73,0,0,0-2.59-.51,10.33,10.33,0,0,0-5,1.3,10.94,10.94,0,0,0-3.54,3.08l1-3.77h-7.59L201.7,77h7.67L213,63.58A8.42,8.42,0,0,1,215.81,59a7.77,7.77,0,0,1,5.08-1.65,7.61,7.61,0,0,1,3.53.86m21.34,6a11.54,11.54,0,0,1-3,5.51,6.91,6.91,0,0,1-4.88,1.91c-1.9,0-3.19-.64-3.88-1.93s-.71-3.14-.06-5.58A11.57,11.57,0,0,1,237,58.49a6.87,6.87,0,0,1,4.91-2,3.82,3.82,0,0,1,3.79,2q1,2,0,5.64m5.36-11.86a8.48,8.48,0,0,0-5.44-1.7,11.92,11.92,0,0,0-5.5,1.32,11.44,11.44,0,0,0-4.24,3.6l0-.17,1.29-4.1h-7.49l-1.91,7.13,0,.24L219.9,88h7.68l4-14.77A5.29,5.29,0,0,0,234,76.32a8.59,8.59,0,0,0,4.53,1.11,13.32,13.32,0,0,0,6.37-1.62,15.74,15.74,0,0,0,5.26-4.64,20.36,20.36,0,0,0,3.29-7,15.43,15.43,0,0,0,.45-7.06,7.83,7.83,0,0,0-2.75-4.79m25.45,11.75a11.82,11.82,0,0,1-3,5.58,6.84,6.84,0,0,1-4.88,1.93q-2.91,0-3.93-1.89c-.7-1.27-.72-3.11-.08-5.51a11.9,11.9,0,0,1,3.08-5.64,7,7,0,0,1,5-2c1.9,0,3.18.66,3.85,1.95s.67,3.17,0,5.61ZM280,51.29,279,55a5.74,5.74,0,0,0-2.45-3.15A8.21,8.21,0,0,0,272,50.63a12.8,12.8,0,0,0-6.35,1.71,16.7,16.7,0,0,0-5.31,4.79A20.87,20.87,0,0,0,257,64.18a15,15,0,0,0-.42,7,7.57,7.57,0,0,0,2.76,4.65,8.87,8.87,0,0,0,5.48,1.62,12.23,12.23,0,0,0,9.26-4.22l-1,3.82h7.56l6.9-25.74H280Zm39.32,0h-7.47L310.59,53l-.31.41-.13.2-9.8,13.65-2-16h-8l4.07,24.28-9,12.43h8l2.17-3.08.19-.26,2.54-3.6.07-.1,11.35-16.1,9.58-13.55h0Z" transform="translate(-43.26 -29.7)"/></svg>