<svg id="Red_Pagos" data-name="Red Pagos" xmlns="http://www.w3.org/2000/svg" viewBox="0 0 198.56 66.46"><defs><style>.cls-1{fill:#c7c933;}.cls-2{fill:#fff;}.cls-3{fill:#23234b;}</style></defs><rect class="cls-1" width="198.56" height="66.46"/><rect class="cls-2" x="15.05" y="15.7" width="166.36" height="38.28"/><path class="cls-3" d="M182.2,63.07c0,1.1,1,1.61,2.05,1.61,3,0,3.94-2.09,4.6-4.59h-1.41C185.45,60.12,182.2,60.43,182.2,63.07Z" transform="translate(-80.73 -20.71)"/><path class="cls-3" d="M223.15,54.54c-3.19,0-4.8,3.53-4.8,6.34,0,2,.86,3.63,3.15,3.63,3.12,0,4.7-3.63,4.7-6.27C226.2,56.22,225.51,54.54,223.15,54.54Z" transform="translate(-80.73 -20.71)"/><path class="cls-3" d="M100.37,47.17v24h58.7l3.56-17.34c.14-.75.28-1.37.34-2h3.84l-.44,2.06h.07a5.26,5.26,0,0,1,4.66-2.4c3.87,0,5.68,2.64,5.68,6.3,0,4.87-2.67,9.94-8.08,9.94-1.79,0-3.64-.62-4.29-2.78h-.07l-1.26,6.24h32.07l.45-1.47a12.69,12.69,0,0,0,4.86,1.2c4.28,0,4.9-3,5.86-6.51h-.07A5.77,5.77,0,0,1,201,67.28c-3.77,0-5.41-3.15-5.41-6.58,0-4.62,2.84-9.32,7.88-9.32A5.34,5.34,0,0,1,208.24,54l.45-2.26h3.87c-.14.41-.31,1.17-.52,2.16l-2.46,11.65a13.27,13.27,0,0,1-2.23,5.52h50.13v-24H100.37Zm90.81,20.11h-3.4l.41-2.36h-.06c-1.37,1.75-2.78,2.74-5,2.74-2.81,0-4.79-1.58-4.79-4.42,0-5.14,5.72-5.52,9.52-5.52h1.41a4.52,4.52,0,0,0,.13-1.33c0-1.58-1.68-2-3.11-2a12,12,0,0,0-5.11,1.19l.58-3.22a15.61,15.61,0,0,1,5.28-.92c3.12,0,6,1.13,6,4.8C193.06,58.27,191.55,64.37,191.18,67.28Zm30,.38c-4.39,0-7.06-2.71-7.06-7.09a9,9,0,0,1,9.18-9.15c4.18,0,7.13,2.53,7.13,6.82C230.44,63.69,226.68,67.66,221.16,67.66Zm22.58-12.58a10.11,10.11,0,0,0-3.32-.71c-1.2,0-2.71.34-2.71,1.57,0,2,5.24,2.67,5.24,6.48,0,4-3.53,5.24-7,5.24a11.31,11.31,0,0,1-4.73-.92l.89-3.23a7.33,7.33,0,0,0,3.88,1.2c1.37,0,2.77-.44,2.77-1.71,0-2.5-5.24-2.74-5.24-6.65,0-3.63,3.53-4.93,6.71-4.93a18.89,18.89,0,0,1,4.39.61Z" transform="translate(-80.73 -20.71)"/><path class="cls-3" d="M200,60.67c0,1.88.75,3.46,2.57,3.46,3.22,0,4.55-3.39,4.55-6.37,0-1.82-1.06-3.26-2.91-3.26C201.22,54.54,200,58.37,200,60.67Z" transform="translate(-80.73 -20.71)"/><path class="cls-3" d="M168.11,64.51c3.4,0,4.46-4.22,4.46-6.65,0-1.88-1-3.32-2.85-3.32-2.74,0-4.28,3.63-4.28,6.34C165.48,62.86,166.16,64.51,168.11,64.51Z" transform="translate(-80.73 -20.71)"/><path class="cls-1" d="M257.58,40.21H100.37v7h55.75l-1.4,6.44a6.07,6.07,0,0,0-4.8-2.19c-5.28,0-7.81,5.14-7.81,9.8,0,3.36,1.64,6.44,5.34,6.44A5.74,5.74,0,0,0,152.52,65h.07l-.38,2.3H156c.11-.79.35-2.13.59-3.43L160.2,47.2h97.45l-.07-7ZM148.79,64.51c-2,0-2.47-2.13-2.47-3.67,0-2.33,1.37-6.3,4.25-6.3,2.06,0,2.91,1.88,2.91,3.66C153.48,61.08,151.74,64.51,148.79,64.51Z" transform="translate(-80.73 -20.71)"/><path class="cls-1" d="M124.08,51.42a5.59,5.59,0,0,0-4.59,3.29h-.07L120,51.8H116.1c-.14.71-.24,1.4-.38,2.09L113,67.32h4l1.44-7c.51-2.5,1.88-5.07,4.76-5.07a5.4,5.4,0,0,1,1.54.24l.86-3.94A4.38,4.38,0,0,0,124.08,51.42Z" transform="translate(-80.73 -20.71)"/><path class="cls-1" d="M133.88,51.42c-5.1,0-8.84,4.62-8.84,9.46,0,4.62,3,6.78,7.47,6.78a16.26,16.26,0,0,0,4.94-.89l.51-3.19a11.51,11.51,0,0,1-4.76,1.13c-2.78,0-4.32-1.06-4.32-3.9h10.93a16.75,16.75,0,0,0,.38-3.46C140.26,53.37,137.72,51.42,133.88,51.42ZM136.32,58h-6.86c.79-2.13,1.89-3.63,4.39-3.63a2.32,2.32,0,0,1,2.57,2.6Z" transform="translate(-80.73 -20.71)"/></svg>