<svg id="RHB_Now" data-name="RHB Now" xmlns="http://www.w3.org/2000/svg" viewBox="0 0 195.86 62.86"><defs><style>.cls-1{fill:#ed3e42;}.cls-2{fill:#1867a7;}</style></defs><path class="cls-1" d="M285.66,53.36,257,82.05,228.3,53.36,257,24.68Z" transform="translate(-89.81 -21.93)"/><path class="cls-2" d="M89.81,84.79l6.33-44.41C97.55,30.58,107.89,22,119,22c11.26,0,16.6,7.83,15.52,15.33l-.92,6.47c-.75,5.42-4.76,10.63-11.84,14.49L129,70.62a8.6,8.6,0,0,1,.84,5.63c-.75,4.69-4.26,8.54-8.09,8.54A5.35,5.35,0,0,1,117,81.88L106.31,63.42l-1.84,12.93c-.66,4.69-4.17,8.44-7.92,8.44Zm25.34-53.58c-2.42,0-4.67,2.4-5.09,5.42L108.24,50c-.42,3,1.16,5.42,3.58,5.42s4.67-2.4,5.09-5.42l1.82-13.39c.42-3-1.17-5.42-3.58-5.42m26.42.62c.75-5.42,5-9.9,9.34-9.9s7.25,4.48,6.5,9.9l-3.08,22.42h8.59l3.17-22.42c.75-5.42,5-9.9,9.34-9.9s7.25,4.48,6.5,9.9l-6,43.06c-.75,5.42-5,9.9-9.34,9.9s-7.26-4.48-6.51-9.9l1.92-14h-8.67l-1.92,14c-.75,5.42-5,9.9-9.34,9.9h-7.84ZM226,40c-.67,4.17-2.93,8.23-6.93,12a12.53,12.53,0,0,1,3.34,10.53l-.59,3.86C220.27,76.25,210,84.79,199,84.79H181.57L188,40.28c1.43-9.8,11.77-18.35,22.85-18.35,11.26,0,16.69,7.82,15.52,15.33ZM204.51,54c-2.76,0-5.34,2.81-5.84,6.26l-1.25,9c-.5,3.44,1.33,6.26,4.09,6.26s5.42-2.82,5.92-6.26l1.25-9c.5-3.45-1.42-6.26-4.17-6.26m3.33-22.83c-2.75,0-5.25,2.82-5.83,6.26l-1,6.15c-.59,3.44,1.33,6.25,4.08,6.25s5.34-2.81,5.93-6.25l1-6.15c.59-3.44-1.41-6.26-4.17-6.26" transform="translate(-89.81 -21.93)"/></svg>