<svg id="RuPay" xmlns="http://www.w3.org/2000/svg" viewBox="0 0 236.77 63.78"><defs><style>.cls-1{fill:#292a86;}.cls-2{fill:#128047;}.cls-3{fill:#ee721d;}</style></defs><path class="cls-1" d="M188.57,39.06c1.06-8.44-5.37-12-13.4-12h-21.1L141.62,72.49H155l3.77-14,10.68.07S186,59.26,188.57,39.06Zm-13.79,4.51a6.32,6.32,0,0,1-6.55,4.29h-6.56l2.59-9.64,6.9,0C174.52,38.24,175.74,40.91,174.78,43.57Z" transform="translate(-61 -22.32)"/><path class="cls-1" d="M112,39.51h12.23l-5,19.38s-1.25,4.32,2.79,4.65c3.19.26,5.57-3.55,6.35-6.13,1-3.39,5-17.9,5-17.9h12.6l-9.59,33h-11l1.36-4.71s-5.62,6.84-14,6c-7.41-.73-8-6.1-6.77-12.81C106.58,57.7,112,39.51,112,39.51Z" transform="translate(-61 -22.32)"/><path class="cls-1" d="M218.31,56.22c1.61-5.48,3.65-10.68,2-13.56-2.51-4.4-7-4.79-13.68-4.79-7.34,0-16.39,1.39-19.34,11.14h12.21a5.36,5.36,0,0,1,5.69-3.44c4.06.21,3.84,3,2.34,4.54-2.62,2.71-9.86,1.21-17.88,4-7,2.43-9.45,11.64-7.93,15.32s4.22,4,7.92,4.38c6,.58,10.52-2.73,12.64-4.68,0,2.16.06,3.37.06,3.37H215.2l0-1.21s-1.14-.3-1-1.91C214.24,68.19,216.46,62.52,218.31,56.22Zm-18.47,9.55c-2.09.53-4.63.82-5.14-1.08-1.38-5.22,10.83-6.75,10.83-6.75C205.61,62.7,201.45,65.36,199.84,65.77Z" transform="translate(-61 -22.32)"/><path class="cls-1" d="M108.94,37.67C110,29.23,102.58,27.1,94.55,27.1H73.45L61,72.49H74.4l4.19-15.41,7.52.06s3.1-.18,3.16,2.73c.07,3.11-2.3,8.82-2.15,12.62H100.9l0-1.21s-1.15-.3-1-1.91a46.35,46.35,0,0,1,1.76-5.64A17.51,17.51,0,0,0,103,57.05c-.1-3-2-4.45-4.75-5.43C106.8,49.61,108.94,37.67,108.94,37.67ZM94.72,43.46C93,47.48,87.61,47,87.61,47l-6.26,0,2.28-8.5,8.35,0C94.92,38.51,95.84,40.87,94.72,43.46Z" transform="translate(-61 -22.32)"/><path class="cls-1" d="M224.13,39.51h12.45V59.3l10.78-19.79h11.43l-23.05,40A20.36,20.36,0,0,1,231,84.65a11,11,0,0,1-5.68,1.45c-4.55,0-10,0-10,0l2.65-9.54h4.28a4.74,4.74,0,0,0,2.72-1.16,4.81,4.81,0,0,0,1.09-3.2C226,70.11,224.13,39.51,224.13,39.51Z" transform="translate(-61 -22.32)"/><polygon class="cls-2" points="213.77 9.57 199.39 59.59 226.3 34.58 213.77 9.57"/><polygon class="cls-3" points="204.55 9.57 190.17 59.59 217.09 34.58 204.55 9.57"/><path d="M292.32,33.22a5.45,5.45,0,1,1,5.45-5.45A5.46,5.46,0,0,1,292.32,33.22Zm0-10.41a5,5,0,1,0,5,5A5,5,0,0,0,292.32,22.81Z" transform="translate(-61 -22.32)"/><path d="M289.67,29.8V26.39H288.4v-.45h3.06v.45h-1.27V29.8Z" transform="translate(-61 -22.32)"/><path d="M292.24,29.8V25.94H293l.92,2.73.18.57c.05-.14.11-.34.21-.61l.92-2.69h.69V29.8h-.49V26.57l-1.13,3.23h-.46l-1.11-3.29V29.8Z" transform="translate(-61 -22.32)"/></svg>