<svg id="Santander" xmlns="http://www.w3.org/2000/svg" viewBox="0 0 271.28 47.26"><defs><style>.cls-1{fill:#e91d25;}</style></defs><path class="cls-1" d="M79.72,51.62a10.65,10.65,0,0,0-1.48-4.9L70.5,33.17a11.78,11.78,0,0,1-1.26-3.31l-.34.57a10.83,10.83,0,0,0,0,10.82l6.27,10.82a10.83,10.83,0,0,1,0,10.82l-.35.57a11.29,11.29,0,0,0-1.25-3.3l-5.69-9.91-3.65-6.38A11.58,11.58,0,0,1,63,40.57l-.34.57a10.78,10.78,0,0,0,0,10.82L68.9,62.78a10.79,10.79,0,0,1,0,10.82l-.34.57a11.76,11.76,0,0,0-1.25-3.31L59.45,57.31A12,12,0,0,1,58,51.39c-8.32,2.16-14.12,6.83-14.12,12.19,0,7.51,11.16,13.55,24.94,13.55s24.94-6,24.94-13.55c.11-5.13-5.58-9.8-14-12ZM103.3,74.74a15.45,15.45,0,0,1,.91-4.79,21.24,21.24,0,0,0,8.54,1.83c4.33,0,6.83-1.37,6.83-4.22s-1.82-4-6.15-5.92L111,60.73c-4.44-1.94-7.4-4.44-7.4-9.34,0-5.35,3.76-8.77,11.27-8.77A25.83,25.83,0,0,1,123.45,44a17.58,17.58,0,0,1-.91,4.67,24.43,24.43,0,0,0-7.74-1.37c-4.1,0-5.92,1.59-5.92,4.1s1.82,3.87,5.12,5.24l2.51,1c5.92,2.51,8.42,5.24,8.42,9.8,0,5.35-4.1,9.11-12.07,9.11a22.08,22.08,0,0,1-9.56-1.82ZM150.1,52.3V75.76h-4.78l-.23-2.85a7.26,7.26,0,0,1-6.6,3.42c-6.15,0-10.37-4.55-10.37-12.41,0-8.2,4.45-13,13.1-13a29.89,29.89,0,0,1,8.88,1.37ZM145,70.41V55.72a18.31,18.31,0,0,0-3.76-.23c-5.35,0-7.86,3.3-7.86,8.54,0,4.78,1.94,8.2,6.49,8.2A9,9,0,0,0,145,70.41ZM176.53,60V75.76H171.4V61c0-3.76-1.25-5.47-6.38-5.47a26.82,26.82,0,0,0-4.1.34V75.76H155.8V52.3a44.87,44.87,0,0,1,9.34-1.37C173.79,51.05,176.53,54.35,176.53,60Zm14.35,12a10.29,10.29,0,0,0,4-.68c-.11,1.37-.34,3-.57,4.33a11.57,11.57,0,0,1-4.32.79c-5,0-8.2-2.27-8.2-8V43.76a16,16,0,0,1,5.12-.8v8.88h8.2c-.11,1.6-.23,3.08-.46,4.45h-7.74v11.5c0,3,1.48,4.21,4,4.21Zm27.67-19.7V75.76h-4.78l-.23-2.85a7.28,7.28,0,0,1-6.61,3.42c-6.15,0-10.36-4.55-10.36-12.41,0-8.2,4.44-13,13.1-13a30.53,30.53,0,0,1,8.88,1.37Zm-5.24,18.11V55.72a18.26,18.26,0,0,0-3.76-.23c-5.35,0-7.85,3.3-7.85,8.54,0,4.78,1.93,8.2,6.49,8.2A8.64,8.64,0,0,0,213.31,70.41ZM245,60V75.76h-5.24V61c0-3.76-1.25-5.47-6.37-5.47a26.72,26.72,0,0,0-4.1.34V75.76h-5.13V52.3a44.87,44.87,0,0,1,9.34-1.37c8.66.12,11.5,3.42,11.5,9.11ZM271.05,43v32.8h-4.78l-.23-3a7.19,7.19,0,0,1-6.72,3.53c-6.15,0-10.36-4.55-10.36-12.41,0-8.2,4.44-13,13.1-13a21.1,21.1,0,0,1,3.87.35V43.53a19.34,19.34,0,0,1,5.12-.57Zm-5.12,27.45V55.94a26,26,0,0,0-4.1-.45c-5.13,0-7.52,3.19-7.52,8.54,0,4.78,1.94,8.2,6.49,8.2a9.29,9.29,0,0,0,5.13-1.82ZM297,65.74H280.51c.68,4.21,3.07,6.15,7.74,6.15a18.39,18.39,0,0,0,8.2-1.82c-.23,1.36-.45,3.19-.8,4.67A18.68,18.68,0,0,1,288,76.22c-8.65,0-12.75-4.79-12.75-12.76,0-7,3.19-12.53,11.39-12.53,7.4,0,10.59,4.79,10.59,10.71a23.24,23.24,0,0,1-.23,4.1Zm-16.51-4.33h11.61c0-3.87-2.05-6.15-5.58-6.15C282.78,55.38,280.85,57.43,280.51,61.41Zm34.62-10.13a23.05,23.05,0,0,1-.46,4.44,37.5,37.5,0,0,0-3.87-.23c-1.25,0-2.5.11-3.76.23v20h-5.12V52.3a29.39,29.39,0,0,1,8.77-1.37c1.48.12,3.3.12,4.44.35Z" transform="translate(-43.85 -29.86)"/></svg>