<svg id="Scotia_Bank" data-name="Scotia Bank" xmlns="http://www.w3.org/2000/svg" viewBox="0 0 277.08 49.47"><defs><style>.cls-1{fill:#ff0001;fill-rule:evenodd;}</style></defs><path class="cls-1" d="M51.25,56.28c-1.59-2.52-1.93-5.87-1.93-8.45,0-8.75,7.81-16.13,16-16.13H90.81l-9.91,10H65.11c-6.35,0-14,6.44-13.86,14.59ZM61,49.11a14.21,14.21,0,0,1,4.65-6.21c-3.7,0-7.86,1.76-11,6.21Zm5.11-5a16.62,16.62,0,0,0-3.85,5h7.67a17,17,0,0,0-3.82-5ZM54,50.41A14,14,0,0,0,52.37,56h7.16a16.08,16.08,0,0,1,1-5.57Zm7.8,0A21.85,21.85,0,0,0,60.65,56H71.49a21.42,21.42,0,0,0-1.1-5.57Zm15.65-1.3c-3-4.45-7.19-6.21-10.83-6.21a16,16,0,0,1,4.62,6.21Zm-5.74,1.3a15.83,15.83,0,0,1,1,5.57h7.16a12.77,12.77,0,0,0-1.59-5.57ZM54.6,63.78c3.17,4.65,7.33,6.23,11,6.23A14.74,14.74,0,0,1,61,63.78Zm11.49,5.11a17.63,17.63,0,0,0,3.82-5.11H62.24a17.21,17.21,0,0,0,3.85,5.11Zm-5.57-6.21a18,18,0,0,1-1-5.58H52.37A14.48,14.48,0,0,0,54,62.68Zm9.87,0a22.35,22.35,0,0,0,1.1-5.58H60.65a22.82,22.82,0,0,0,1.11,5.58Zm.81,1.1A16.62,16.62,0,0,1,66.58,70a12.7,12.7,0,0,0,10.83-6.23Zm7-1.1a13.21,13.21,0,0,0,1.59-5.58H72.62a17.58,17.58,0,0,1-1,5.58Zm2.71-6.23C81.07,64.9,73.43,71.29,67,71.29H51.25l-9.91,9.87H66.87c8.15,0,16-7.33,16-16.08,0-2.57-.31-5.92-1.93-8.46v-.17Z" transform="translate(-41.34 -31.7)"/><path class="cls-1" d="M155.53,70c-6.64,0-11.39-4-11.39-10.22s4.93-10.25,11.39-10.25,11.38,4.07,11.38,10.25S162.12,70,155.53,70ZM268.94,50V69.57h-6.62l-.1-2h-.15c-.73.67-2.26,2.41-6.52,2.41-4.73,0-8.88-4.11-8.88-10.24,0-5.69,3.68-10.23,9.31-10.23a7.75,7.75,0,0,1,6,2.23h.18l.06-1.77Zm-51.08,0V69.58h-6.62l-.09-2H211c-.73.66-2.26,2.41-6.53,2.41-4.73,0-8.87-4.11-8.87-10.24,0-5.69,3.67-10.23,9.31-10.23a7.77,7.77,0,0,1,6,2.23h.17l.07-1.78Zm-32.14,0h6.82v19.6h-6.82V50Zm36.54,19.55V42h6.8v9.46h.07A10.63,10.63,0,0,1,235,49.53c5.3,0,9.19,4.26,9.19,9.89,0,7-4.31,10.58-9.23,10.58a8.18,8.18,0,0,1-6.07-2.23h-.11l-.1,1.79Zm-66.73-4.48c2.76,0,4.39-2.42,4.39-5.32s-1.55-5.35-4.39-5.35-4.4,2.42-4.4,5.35,1.63,5.32,4.4,5.32Zm26.88-.84a8.57,8.57,0,0,1-1.88.33c-1.38,0-2.89-.64-2.89-3V54.91h4.28V50h-4.28V43.68h-6.81V50h-3v4.92h3v7.75c0,4.26,2,7.31,7,7.31a20.76,20.76,0,0,0,3.73-.37l.84-5.36Zm-77.47,4.61A28.45,28.45,0,0,0,112.81,70c5.82,0,11.62-2.06,11.62-8.44,0-8.76-12.08-7.55-12.08-11,0-1.79,1.86-2.17,3.68-2.17a20.16,20.16,0,0,1,6.42,1.5l.55-6a23.6,23.6,0,0,0-7-.94c-5.74,0-11.4,2.24-11.4,7.93,0,8.6,12,6.81,12,11.33,0,1.73-1.74,2.39-4,2.39-3,0-5.9-1.52-7.14-2.07l-.67,6.44Zm148.94-9.27c0,3.24,1.81,5.26,4.15,5.26,2.12,0,4.19-2,4.19-5s-1.83-5.12-4.19-5.12-4.15,2.18-4.15,4.85Zm-51.07,0c0,3.24,1.81,5.26,4.15,5.26,2.12,0,4.18-2,4.18-5s-1.83-5.11-4.18-5.11-4.15,2.17-4.15,4.84Zm-60.4-9.29a16,16,0,0,0-4.86-.79c-6.14,0-10.74,3.84-10.74,10.24,0,5.81,4.13,10.24,10.46,10.24a16.11,16.11,0,0,0,5.14-.86l-.33-5.71a8.06,8.06,0,0,1-3.45,1,4.56,4.56,0,0,1-4.76-4.69A4.61,4.61,0,0,1,138.71,55a7.77,7.77,0,0,1,3.37,1l.33-5.68ZM298,69.58h6.8V60.52h.07l6,9.06h7.56L311.14,59.2l7.1-9.18h-7.55l-5.86,8.08h-.07V42H298V69.58Zm-24.62,0H280V59.46a3.68,3.68,0,0,1,3.58-4c2.3,0,3.6,1.49,3.6,4V69.58h6.63V57.79c0-4.44-2.86-8.24-8.1-8.24a8.44,8.44,0,0,0-6.16,2.65h-.14L279.31,50h-6V69.58ZM189.13,40.09A3.83,3.83,0,1,0,193,43.92a3.84,3.84,0,0,0-3.83-3.83Zm48.05,19.68c0-2.62-1.5-5-4.1-5-2.29,0-4.13,2-4.13,5s1.51,5,4.13,5c2.37,0,4.1-2,4.1-5Z" transform="translate(-41.34 -31.7)"/></svg>