<svg id="SEPA" xmlns="http://www.w3.org/2000/svg" viewBox="0 0 184.44 66.38"><defs><style>.cls-1{fill:#0f298f;}.cls-2{fill:#ffbf00;}</style></defs><path class="cls-1" d="M87.84,81.22,89.73,81a2.36,2.36,0,0,0,.7,1.41,2,2,0,0,0,1.4.45,2.21,2.21,0,0,0,1.42-.4,1.19,1.19,0,0,0,.48-.93.92.92,0,0,0-.2-.59,1.68,1.68,0,0,0-.7-.42c-.23-.07-.75-.21-1.55-.41a5.38,5.38,0,0,1-2.19-1,2.51,2.51,0,0,1-.89-1.94,2.48,2.48,0,0,1,.42-1.37,2.65,2.65,0,0,1,1.2-1,4.93,4.93,0,0,1,1.9-.33,4.05,4.05,0,0,1,2.72.79,2.79,2.79,0,0,1,1,2.13l-2,.07a1.63,1.63,0,0,0-.54-1.06,1.92,1.92,0,0,0-1.23-.33,2.22,2.22,0,0,0-1.32.35.7.7,0,0,0-.31.6.72.72,0,0,0,.29.58,4.93,4.93,0,0,0,1.78.64,9.72,9.72,0,0,1,2.1.7,2.64,2.64,0,0,1,1.06,1,2.92,2.92,0,0,1-1.38,4.17,5.53,5.53,0,0,1-2.09.35A4.19,4.19,0,0,1,89,83.7,3.74,3.74,0,0,1,87.84,81.22Z" transform="translate(-87.79 -20.84)"/><path class="cls-1" d="M97.69,76.45v-1.7h1.86v1.7Zm0,7.93v-7h1.86v7Z" transform="translate(-87.79 -20.84)"/><path class="cls-1" d="M108.19,84.38h-1.85V80.81a5.37,5.37,0,0,0-.12-1.46,1,1,0,0,0-.38-.52,1.12,1.12,0,0,0-.64-.19,1.41,1.41,0,0,0-.85.27,1.26,1.26,0,0,0-.52.7,5.72,5.72,0,0,0-.14,1.6v3.17h-1.86v-7h1.72v1a2.79,2.79,0,0,1,2.3-1.2,2.9,2.9,0,0,1,1.12.22,2,2,0,0,1,.76.56,2.14,2.14,0,0,1,.36.78,5.63,5.63,0,0,1,.1,1.24Z" transform="translate(-87.79 -20.84)"/><path class="cls-1" d="M110.28,84.83l2.1.23a.85.85,0,0,0,.24.54,1.35,1.35,0,0,0,.83.21,2.09,2.09,0,0,0,1.09-.22.87.87,0,0,0,.37-.46,2.72,2.72,0,0,0,.09-.85v-1a2.49,2.49,0,0,1-2.08,1.12,2.58,2.58,0,0,1-2.23-1.19,4.06,4.06,0,0,1-.64-2.35,3.86,3.86,0,0,1,.84-2.68,2.74,2.74,0,0,1,2.1-.93,2.55,2.55,0,0,1,2.14,1.14v-1h1.72v6.27a6.53,6.53,0,0,1-.2,1.85,2.27,2.27,0,0,1-.58,1,2.48,2.48,0,0,1-1,.54,4.9,4.9,0,0,1-1.55.2,4,4,0,0,1-2.52-.61,1.91,1.91,0,0,1-.75-1.55A2,2,0,0,1,110.28,84.83Zm1.66-4.09a2.52,2.52,0,0,0,.43,1.63,1.32,1.32,0,0,0,1,.52,1.44,1.44,0,0,0,1.13-.53,2.35,2.35,0,0,0,.47-1.58,2.44,2.44,0,0,0-.45-1.61,1.4,1.4,0,0,0-1.12-.53,1.35,1.35,0,0,0-1.08.52A2.42,2.42,0,0,0,111.94,80.74Z" transform="translate(-87.79 -20.84)"/><path class="cls-1" d="M119.07,84.38V74.75h1.85v9.63Z" transform="translate(-87.79 -20.84)"/><path class="cls-1" d="M127.28,82.18l1.83.3A3,3,0,0,1,128,84a3.32,3.32,0,0,1-1.92.53,3.11,3.11,0,0,1-2.7-1.2,3.93,3.93,0,0,1-.7-2.41,3.87,3.87,0,0,1,.91-2.72,3,3,0,0,1,2.3-1,3.09,3.09,0,0,1,2.46,1,4.56,4.56,0,0,1,.87,3.16h-4.64a1.82,1.82,0,0,0,.45,1.28,1.38,1.38,0,0,0,1.07.46,1.21,1.21,0,0,0,.74-.23A1.44,1.44,0,0,0,127.28,82.18Zm.09-1.87a1.81,1.81,0,0,0-.41-1.24,1.3,1.3,0,0,0-1-.43,1.27,1.27,0,0,0-1,.45,1.71,1.71,0,0,0-.39,1.22Z" transform="translate(-87.79 -20.84)"/><path class="cls-1" d="M135.27,84.38V74.75h7.13v1.62h-5.18v2.14H142v1.62h-4.81v2.62h5.37v1.63Z" transform="translate(-87.79 -20.84)"/><path class="cls-1" d="M149.21,84.38v-1a2.81,2.81,0,0,1-1,.89,2.74,2.74,0,0,1-1.31.33,2.61,2.61,0,0,1-1.26-.31,1.79,1.79,0,0,1-.81-.87,3.82,3.82,0,0,1-.25-1.55V77.4h1.85v3.21a8.74,8.74,0,0,0,.1,1.8,1,1,0,0,0,.37.53,1.15,1.15,0,0,0,.69.19,1.39,1.39,0,0,0,.84-.26,1.29,1.29,0,0,0,.52-.64,7.53,7.53,0,0,0,.14-1.88V77.4h1.85v7Z" transform="translate(-87.79 -20.84)"/><path class="cls-1" d="M155,84.38h-1.85v-7h1.72v1a3.13,3.13,0,0,1,.79-.93,1.44,1.44,0,0,1,.8-.23,2.35,2.35,0,0,1,1.21.35l-.56,1.62a1.57,1.57,0,0,0-.87-.31,1,1,0,0,0-.66.22,1.43,1.43,0,0,0-.42.77,10.36,10.36,0,0,0-.16,2.34Z" transform="translate(-87.79 -20.84)"/><path class="cls-1" d="M158.42,80.79a3.86,3.86,0,0,1,.45-1.79,3.19,3.19,0,0,1,1.29-1.31,3.72,3.72,0,0,1,1.86-.46,3.46,3.46,0,0,1,2.59,1,3.56,3.56,0,0,1,1,2.61,3.6,3.6,0,0,1-1,2.63,3.44,3.44,0,0,1-2.57,1,4,4,0,0,1-1.83-.44,3,3,0,0,1-1.33-1.27A4.31,4.31,0,0,1,158.42,80.79Zm1.89.1a2.3,2.3,0,0,0,.5,1.59,1.6,1.6,0,0,0,2.43,0,2.84,2.84,0,0,0,0-3.19,1.62,1.62,0,0,0-2.43,0A2.32,2.32,0,0,0,160.31,80.89Z" transform="translate(-87.79 -20.84)"/><path class="cls-1" d="M171.66,84.38V74.75h3.12a11.94,11.94,0,0,1,2.31.14,2.52,2.52,0,0,1,1.38,1,3,3,0,0,1,.56,1.87,3.19,3.19,0,0,1-.32,1.49,2.64,2.64,0,0,1-.82,1,2.9,2.9,0,0,1-1,.46,11.33,11.33,0,0,1-2,.14h-1.26v3.63Zm2-8v2.75h1.06A5,5,0,0,0,176.2,79a1.27,1.27,0,0,0,.61-.48,1.33,1.33,0,0,0,.22-.75,1.28,1.28,0,0,0-.31-.87,1.38,1.38,0,0,0-.78-.43,8.38,8.38,0,0,0-1.4-.07Z" transform="translate(-87.79 -20.84)"/><path class="cls-1" d="M182.37,79.52l-1.66-.3a2.54,2.54,0,0,1,1-1.5,3.5,3.5,0,0,1,2-.49,4.51,4.51,0,0,1,1.84.29,1.87,1.87,0,0,1,.85.75,3.85,3.85,0,0,1,.25,1.65l0,2.16a7.43,7.43,0,0,0,.09,1.36,3.79,3.79,0,0,0,.33.94h-1.84c0-.13-.1-.3-.17-.54s-.06-.18-.07-.22a3.34,3.34,0,0,1-1,.7,3,3,0,0,1-1.15.23,2.39,2.39,0,0,1-1.7-.59,2.06,2.06,0,0,1-.33-2.53,1.9,1.9,0,0,1,.79-.72,6.81,6.81,0,0,1,1.47-.43,9.9,9.9,0,0,0,1.79-.45v-.19a1,1,0,0,0-.26-.77,1.61,1.61,0,0,0-1-.23,1.13,1.13,0,0,0-1.22.88ZM184.85,81a10.5,10.5,0,0,1-1.12.29,3.27,3.27,0,0,0-1,.32.77.77,0,0,0-.36.65.87.87,0,0,0,.29.67,1,1,0,0,0,.73.29,1.59,1.59,0,0,0,1-.33,1.19,1.19,0,0,0,.44-.61,3.65,3.65,0,0,0,.07-.91Z" transform="translate(-87.79 -20.84)"/><path class="cls-1" d="M188,77.4h2l1.68,4.95,1.63-4.95h1.91l-2.46,6.71-.45,1.23a4.44,4.44,0,0,1-.46.93,1.95,1.95,0,0,1-1.21.84,3.87,3.87,0,0,1-.95.11,5.17,5.17,0,0,1-1-.11l-.17-1.45a3.89,3.89,0,0,0,.78.09,1.19,1.19,0,0,0,1-.38,2.8,2.8,0,0,0,.48-1Z" transform="translate(-87.79 -20.84)"/><path class="cls-1" d="M196.62,77.4h1.7v1a2.76,2.76,0,0,1,2.19-1.13,2.29,2.29,0,0,1,1.16.28,2.09,2.09,0,0,1,.81.83,3.27,3.27,0,0,1,1-.83,2.4,2.4,0,0,1,1.14-.28,2.54,2.54,0,0,1,1.31.31,1.93,1.93,0,0,1,.79.92,3.93,3.93,0,0,1,.19,1.45v4.47h-1.85v-4a3.08,3.08,0,0,0-.19-1.34.89.89,0,0,0-.79-.4,1.25,1.25,0,0,0-.73.24,1.3,1.3,0,0,0-.49.7A5,5,0,0,0,202.7,81v3.36h-1.85V80.55a5.66,5.66,0,0,0-.1-1.32.86.86,0,0,0-.31-.44.93.93,0,0,0-.56-.15,1.32,1.32,0,0,0-.77.24,1.28,1.28,0,0,0-.49.66,5.35,5.35,0,0,0-.14,1.44v3.4h-1.86Z" transform="translate(-87.79 -20.84)"/><path class="cls-1" d="M213.19,82.18l1.83.3A3,3,0,0,1,213.9,84a3.32,3.32,0,0,1-1.92.53,3.11,3.11,0,0,1-2.7-1.2,4,4,0,0,1-.7-2.41,3.87,3.87,0,0,1,.91-2.72,3,3,0,0,1,2.3-1,3.09,3.09,0,0,1,2.46,1,4.56,4.56,0,0,1,.87,3.16h-4.64a1.82,1.82,0,0,0,.45,1.28,1.38,1.38,0,0,0,1.07.46,1.21,1.21,0,0,0,.74-.23A1.44,1.44,0,0,0,213.19,82.18Zm.09-1.87a1.81,1.81,0,0,0-.41-1.24,1.3,1.3,0,0,0-1-.43,1.27,1.27,0,0,0-1,.45,1.71,1.71,0,0,0-.39,1.22Z" transform="translate(-87.79 -20.84)"/><path class="cls-1" d="M223.36,84.38h-1.85V80.81a5.37,5.37,0,0,0-.12-1.46,1,1,0,0,0-.38-.52,1.12,1.12,0,0,0-.64-.19,1.41,1.41,0,0,0-.85.27,1.26,1.26,0,0,0-.52.7,5.72,5.72,0,0,0-.14,1.6v3.17H217v-7h1.72v1a2.79,2.79,0,0,1,2.3-1.2,2.9,2.9,0,0,1,1.12.22,2,2,0,0,1,.76.56,2.14,2.14,0,0,1,.36.78,5.63,5.63,0,0,1,.1,1.24Z" transform="translate(-87.79 -20.84)"/><path class="cls-1" d="M228.83,77.4v1.47h-1.26v2.82a8.33,8.33,0,0,0,0,1,.41.41,0,0,0,.17.24.49.49,0,0,0,.3.09,2.28,2.28,0,0,0,.73-.18l.16,1.43a3.51,3.51,0,0,1-1.45.28,2.28,2.28,0,0,1-.89-.17A1.37,1.37,0,0,1,226,84a1.83,1.83,0,0,1-.26-.73,11.15,11.15,0,0,1-.05-1.3v-3h-.84V77.4h.84V76l1.85-1.09V77.4Z" transform="translate(-87.79 -20.84)"/><path class="cls-1" d="M229.87,82.41l1.86-.29a1.27,1.27,0,0,0,.47.81,1.6,1.6,0,0,0,1,.28,1.87,1.87,0,0,0,1.08-.26.61.61,0,0,0,.24-.5.48.48,0,0,0-.13-.35,1.39,1.39,0,0,0-.62-.24,10.39,10.39,0,0,1-2.85-.91,1.81,1.81,0,0,1-.83-1.57,1.93,1.93,0,0,1,.72-1.53,3.39,3.39,0,0,1,2.23-.62,4,4,0,0,1,2.14.46,2.4,2.4,0,0,1,1,1.37l-1.74.33a1.08,1.08,0,0,0-.43-.62,1.54,1.54,0,0,0-.9-.22,2.16,2.16,0,0,0-1.06.2.46.46,0,0,0-.21.38.4.4,0,0,0,.19.34,6.74,6.74,0,0,0,1.73.52,5.28,5.28,0,0,1,2.07.83,1.74,1.74,0,0,1,.58,1.38,2.12,2.12,0,0,1-.8,1.65,3.52,3.52,0,0,1-2.38.7A3.83,3.83,0,0,1,231,84,2.65,2.65,0,0,1,229.87,82.41Z" transform="translate(-87.79 -20.84)"/><path class="cls-1" d="M251.24,84.38h-2.1l-.83-2.18h-3.88l-.8,2.18h-2.06l3.73-9.63h2Zm-3.58-3.81L246.32,77,245,80.57Z" transform="translate(-87.79 -20.84)"/><path class="cls-1" d="M254.42,84.38h-1.86v-7h1.72v1a3.28,3.28,0,0,1,.8-.93,1.44,1.44,0,0,1,.8-.23,2.35,2.35,0,0,1,1.21.35l-.56,1.62a1.57,1.57,0,0,0-.87-.31,1,1,0,0,0-.66.22,1.5,1.5,0,0,0-.43.77,11.26,11.26,0,0,0-.15,2.34Z" transform="translate(-87.79 -20.84)"/><path class="cls-1" d="M262.35,82.18l1.83.3A3,3,0,0,1,263.06,84a3.32,3.32,0,0,1-1.92.53,3.11,3.11,0,0,1-2.7-1.2,3.93,3.93,0,0,1-.7-2.41,3.87,3.87,0,0,1,.91-2.72,3,3,0,0,1,2.3-1,3.09,3.09,0,0,1,2.46,1,4.61,4.61,0,0,1,.87,3.16h-4.65a1.87,1.87,0,0,0,.46,1.28,1.38,1.38,0,0,0,1.07.46,1.21,1.21,0,0,0,.74-.23A1.58,1.58,0,0,0,262.35,82.18Zm.09-1.87a1.81,1.81,0,0,0-.41-1.24,1.3,1.3,0,0,0-1-.43,1.27,1.27,0,0,0-1,.45,1.71,1.71,0,0,0-.39,1.22Z" transform="translate(-87.79 -20.84)"/><path class="cls-1" d="M267.54,79.52l-1.67-.3a2.6,2.6,0,0,1,1-1.5,3.5,3.5,0,0,1,2-.49,4.54,4.54,0,0,1,1.84.29,1.92,1.92,0,0,1,.85.75,3.89,3.89,0,0,1,.24,1.65v2.16a7.64,7.64,0,0,0,.08,1.36,3.85,3.85,0,0,0,.34.94H270.4c0-.13-.11-.3-.18-.54l-.06-.22a3.47,3.47,0,0,1-1,.7,3,3,0,0,1-1.15.23,2.39,2.39,0,0,1-1.7-.59,2.06,2.06,0,0,1-.33-2.53,1.84,1.84,0,0,1,.79-.72,6.81,6.81,0,0,1,1.47-.43,9.9,9.9,0,0,0,1.79-.45v-.19a1,1,0,0,0-.26-.77,1.61,1.61,0,0,0-1-.23,1.13,1.13,0,0,0-1.22.88ZM270,81a11.2,11.2,0,0,1-1.12.29,3.17,3.17,0,0,0-1,.32.77.77,0,0,0-.36.65.89.89,0,0,0,.28.67,1,1,0,0,0,.74.29,1.59,1.59,0,0,0,.95-.33,1.19,1.19,0,0,0,.44-.61,3.65,3.65,0,0,0,.07-.91Z" transform="translate(-87.79 -20.84)"/><path class="cls-1" d="M128.76,36.92H116.14c0-2.07-.24-3.46-.73-4.17q-1.12-1.58-6.21-1.57c-3.29,0-5.48.3-6.54.9s-1.6,1.92-1.6,4c0,1.84.47,3,1.42,3.62a6,6,0,0,0,2.69.73l2.54.18q8.17.54,10.22.76,6.46.65,9.38,3.44A9.12,9.12,0,0,1,130,50.44a39.74,39.74,0,0,1,.26,4.75q0,6.08-1.16,8.91-2.11,5.18-9.47,6.55a55.54,55.54,0,0,1-9.44.58q-10.6,0-14.77-1.27a9.62,9.62,0,0,1-6.75-6.29q-.92-2.64-.91-8.79h12.62v1q0,3.28,1.88,4.22a7.33,7.33,0,0,0,3.16.69h4.64a17.08,17.08,0,0,0,4.53-.36,3.68,3.68,0,0,0,2.28-2.21,8.58,8.58,0,0,0,.29-2.43q0-3.31-2.43-4.05a74.56,74.56,0,0,0-8.44-.79q-6-.44-8.4-.84Q91.73,49,89.67,45.39q-1.82-3.07-1.82-9.3a24.17,24.17,0,0,1,1-7.6A8.39,8.39,0,0,1,92,24.15a16,16,0,0,1,8.16-2.68c2.76-.24,5.81-.36,9.18-.36q7.94,0,11.32.91,8.23,2.2,8.23,12.39C128.88,35,128.84,35.8,128.76,36.92Z" transform="translate(-87.79 -20.84)"/><path class="cls-1" d="M184.24,71.23V20.84H209.5a28.44,28.44,0,0,1,7.93.85,12.32,12.32,0,0,1,8.37,8,30.77,30.77,0,0,1,1.11,9.55q0,7.66-1.22,11c-1.62,4.42-5,7-10,7.63-.6.1-3.12.18-7.57.26l-2.25.07H197.8v13Zm13.56-24.7h8.45c2.68-.09,4.31-.3,4.9-.62a3.65,3.65,0,0,0,1.61-2.65,22.49,22.49,0,0,0,.25-3.93,16.25,16.25,0,0,0-.51-4.74,4,4,0,0,0-3.5-2.65c-.37,0-1.25-.07-2.63-.07H197.8Z" transform="translate(-87.79 -20.84)"/><path class="cls-1" d="M255.85,62.52H237.72l-2.43,8.71h-14l15.13-50.39h20.46l15.33,50.39H258.44Zm-2.69-9.81-6.35-21.85-6.17,21.85Z" transform="translate(-87.79 -20.84)"/><path class="cls-2" d="M165.52,27.93a17.87,17.87,0,0,1,13.87,6.61l2.92-6.26a25.69,25.69,0,0,0-41.24,8.6h-5.7L132,44.1h7.33c-.05.67-.09,1.34-.09,2a22.08,22.08,0,0,0,.13,2.45h-3.69l-3.37,7.22h8.93a25.73,25.73,0,0,0,37.69,10.85V57.8a17.84,17.84,0,0,1-28.37-2h18.69l3.36-7.22h-24.8a18,18,0,0,1-.11-4.47h27l3.36-7.22h-28A17.86,17.86,0,0,1,165.52,27.93Z" transform="translate(-87.79 -20.84)"/><path class="cls-1" d="M165.52,28.15a17.6,17.6,0,0,1,13.7,6.53l.22.27.14-.31,2.93-6.27.06-.14-.11-.11a26.08,26.08,0,0,0-32.32-2.64,25.12,25.12,0,0,0-9.26,11.32l.19-.14h-5.83l-.06.13L131.81,44l-.14.3h7.67l-.21-.23c-.07.75-.1,1.41-.1,2,0,.81.05,1.64.13,2.47l.22-.23h-3.83l-.06.12-3.36,7.22L132,56h9.26l-.2-.13a25.6,25.6,0,0,0,23.6,15.29,25.88,25.88,0,0,0,14.41-4.34l.1-.06V57.22l-.38.43a17.63,17.63,0,0,1-28-2l-.18.33h18.82l.06-.12,3.37-7.22.14-.3H147.82l.21.18a18.11,18.11,0,0,1-.1-4.42l-.22.19h27.14l.05-.12L178.27,37l.14-.31H150.05l.18.33A17.75,17.75,0,0,1,165.52,28.15Zm-15.47,9h28l-.19-.31L174.51,44l.2-.13H147.52l0,.2c-.06.6-.09,1.22-.09,1.83a18.72,18.72,0,0,0,.19,2.69l0,.19h25l-.19-.31-3.37,7.22.2-.13H150.17l.22.34a18.07,18.07,0,0,0,28.72,2l-.38-.14v8.84l.09-.18a25.43,25.43,0,0,1-14.17,4.27,25.16,25.16,0,0,1-23.2-15l-.06-.13h-9.07l.2.31,3.37-7.22-.2.13h3.92l0-.24c-.08-.82-.12-1.64-.12-2.43,0-.61,0-1.27.09-2l0-.23H132l.19.31L135.57,37l-.2.13h5.85l.05-.14a24.82,24.82,0,0,1,9.11-11.12,25.64,25.64,0,0,1,31.78,2.59l0-.25-2.92,6.27.36,0a18,18,0,0,0-14-6.69,18.18,18.18,0,0,0-15.66,9.05l-.19.33Z" transform="translate(-87.79 -20.84)"/></svg>