<svg id="Servipag" xmlns="http://www.w3.org/2000/svg" viewBox="0 0 181.23 67.01"><defs><style>.cls-1{fill:#f7de15;}.cls-2{fill:#fff;}.cls-3{fill:#7d868c;}</style></defs><g id="layer1"><g id="g4808"><g id="g4507"><path id="path4509" class="cls-1" d="M222.05,88.11a32.51,32.51,0,1,1,32.52-32.52,32.55,32.55,0,0,1-32.52,32.52" transform="translate(-87.13 -22.1)"/></g><g id="g4511"><path id="path4513" class="cls-2" d="M222.05,22.1a33.5,33.5,0,1,0,33.51,33.49A33.53,33.53,0,0,0,222.05,22.1m0,2a31.52,31.52,0,1,1-31.52,31.51,31.56,31.56,0,0,1,31.52-31.51" transform="translate(-87.13 -22.1)"/></g><g id="g4515"><path id="path4517" class="cls-3" d="M91.63,73.09l-.25-.62a45.28,45.28,0,0,1,0-33.74l.25-.62H194.82L194,39.6a32.18,32.18,0,0,0,0,32l.85,1.49Z" transform="translate(-87.13 -22.1)"/></g><g id="g4519"><path id="path4521" class="cls-2" d="M196.53,37.12H91l-.5,1.24a46.29,46.29,0,0,0,0,34.48l.5,1.24H196.53l-1.7-3a31.25,31.25,0,0,1,0-31Zm-3.42,2a33.2,33.2,0,0,0,0,33H92.3a44.27,44.27,0,0,1,0-33H193.11" transform="translate(-87.13 -22.1)"/></g><g id="g4523"><path id="path4525" class="cls-3" d="M249.29,73.09l.85-1.49a32.24,32.24,0,0,0,0-32l-.85-1.49h14.57l.25.62a45.28,45.28,0,0,1,0,33.74l-.25.62Z" transform="translate(-87.13 -22.1)"/></g><g id="g4527"><path id="path4529" class="cls-2" d="M264.53,37.12H247.58l1.7,3a31.22,31.22,0,0,1,0,31l-1.69,3h16.95l.5-1.24a46.29,46.29,0,0,0,0-34.48Zm-1.34,2a44.27,44.27,0,0,1,0,33H251a33.2,33.2,0,0,0,0-33h12.19" transform="translate(-87.13 -22.1)"/></g><g id="g4531"><path id="path4533" class="cls-3" d="M198.61,49.44h1.56c2.1,0,3.76.66,3.76,2.69s-1.66,2.74-3.76,2.74h-1.56Zm-6.07,16.08h6.07v-6.9H201c5.67,0,9-2.38,9-6.4,0-4.48-3.26-6.52-10.21-6.52h-7.24Z" transform="translate(-87.13 -22.1)"/></g><g id="g4535"><path id="path4537" class="cls-3" d="M221.46,57.57h-5.69l2.91-7.78h.07Zm-15,7.95h6.15l1.79-4.21h8.53l1.7,4.21h6.64L222.47,45.7h-7.42Z" transform="translate(-87.13 -22.1)"/></g><g id="g4539"><path id="path4541" class="cls-3" d="M251.57,65a38.24,38.24,0,0,1-8.79.9c-6.06,0-13.05-2.66-13.05-10.17s6-10.34,14.34-10.34a24.77,24.77,0,0,1,6.87.88l-.48,4.32a12.83,12.83,0,0,0-5.53-1.28c-4.92,0-9,1.8-9,6.43,0,3.89,3.16,6.25,7.58,6.25a5.82,5.82,0,0,0,2.14-.34V57.69h-3.54V54h9.41Z" transform="translate(-87.13 -22.1)"/></g><g id="g4543"><path id="path4545" class="cls-2" d="M100.93,60.63a14.74,14.74,0,0,0,6.23,1.31c1.93,0,3.73-.34,3.73-1.93,0-3.7-10.72-1.36-10.72-8.6,0-4.76,5.34-6.07,9.89-6.07a21.9,21.9,0,0,1,5.84.74l-.39,4.09a13.61,13.61,0,0,0-5-.91c-1.52,0-4,.11-4,1.85,0,3.21,10.72,1,10.72,8.22,0,5.13-5,6.52-10,6.52a26.74,26.74,0,0,1-6.75-.85Z" transform="translate(-87.13 -22.1)"/></g><g id="g4547"><path id="path4549" class="cls-2" d="M118.86,45.69h16v3.75h-10v4.08h9.41v3.75h-9.41v4.49h10.32V65.5H118.86Z" transform="translate(-87.13 -22.1)"/></g><g id="g4551"><path id="path4553" class="cls-2" d="M143.49,49.44h1.6c2.31,0,4.43.33,4.43,2.19,0,2.25-2.48,2.3-4.43,2.3h-1.6ZM137.42,65.5h6.07V57.68h1.27c2.25,0,3,.84,4.26,4.25l1.31,3.57h6.32l-2.22-5.39c-1.12-2.41-1.25-3.91-3.21-4.37v-.05c2.94-.6,4.37-2.35,4.37-5,0-3.4-3.29-5-7.33-5H137.42Z" transform="translate(-87.13 -22.1)"/></g><g id="g4555"><path id="path4557" class="cls-2" d="M155.68,45.69h6.45l5,15.55h.08l5.09-15.55h6.22L170.81,65.5h-7.5Z" transform="translate(-87.13 -22.1)"/></g><path id="path4559" class="cls-2" d="M179.94,45.69H186V65.5h-6.06Z" transform="translate(-87.13 -22.1)"/></g></g></svg>