<svg id="ShopeePay" xmlns="http://www.w3.org/2000/svg" viewBox="0 0 149.77 65.56"><defs><style>.cls-1{fill:#ed4c2f;}.cls-2{fill:#fff;}</style></defs><path class="cls-1" d="M149.13,21.93l-44.74,6a2.41,2.41,0,0,0-2,2.61V73s.26,5,6,5h50.7s4.52-1.09,4.52-5.61V37.3s.09-5-5.88-5H108.82A3.11,3.11,0,0,1,106.44,30c-.15-.79.17-.87,1-.87h44.9V24.31S152.18,21.71,149.13,21.93Z" transform="translate(-102.41 -21.92)"/><path class="cls-2" d="M133.91,70.76c-3.71,0-6.44-1.51-10.47-5.5a1.83,1.83,0,0,1,2.57-2.6c4.24,4.19,6.21,5.24,9.6,4.32,2-.54,3.74-3.05,3.84-5.93.08-2.24-1.5-3.7-4.69-4.33-5.73-1.15-9.12-3.34-10.06-6.52-.75-2.56.24-5.42,2.73-7.84l.1-.09c5.34-4.47,11.55-1.14,14.09,1.24a1.83,1.83,0,0,1-2.51,2.67c-.21-.2-5-4.56-9.18-1.15-1.42,1.41-2.07,2.95-1.72,4.13.51,1.72,3.09,3.13,7.27,4,7.1,1.42,7.7,6.11,7.63,8.06-.15,4.24-3.7,9-7,9.42A16.59,16.59,0,0,1,133.91,70.76Z" transform="translate(-102.41 -21.92)"/><path class="cls-1" d="M182.4,32.08A10.08,10.08,0,0,0,179.8,31a7.34,7.34,0,0,1-3.9-2.11c-.58-.77-.58-1.77.12-3a3,3,0,0,1,2.57-1.35,8.63,8.63,0,0,1,4.46,1,.83.83,0,0,0,1.12-.37A.82.82,0,0,0,183.8,24a10.22,10.22,0,0,0-5.34-1.23,4.68,4.68,0,0,0-3.93,2.2c-1.05,1.93-1,3.51,0,4.83a8.86,8.86,0,0,0,4.81,2.72,9.51,9.51,0,0,1,2.2.93,4.06,4.06,0,0,1,1.75,1.84,2.89,2.89,0,0,1,.11,2,4.05,4.05,0,0,1-.44,1s0,.09-.09.16A3.55,3.55,0,0,1,179.78,40a10.4,10.4,0,0,1-5.16-1.74,7.68,7.68,0,0,1-.76-.49.86.86,0,0,0-1.17.24.85.85,0,0,0,.24,1.16c.3.21.58.37.79.55a11.9,11.9,0,0,0,6,2,5.14,5.14,0,0,0,4.49-2.23,1.08,1.08,0,0,1,.14-.23,6.18,6.18,0,0,0,.62-1.4,4.51,4.51,0,0,0-.18-3.11A5.74,5.74,0,0,0,182.4,32.08Z" transform="translate(-102.41 -21.92)"/><path class="cls-1" d="M195.2,30.24a5.27,5.27,0,0,0-2.88.1A7.66,7.66,0,0,0,189.44,32V23.58a.84.84,0,0,0-1.67,0V40.84a.84.84,0,0,0,1.67,0V34.38l.05-.05a7.09,7.09,0,0,1,3.32-2.41,3.55,3.55,0,0,1,2-.07,2.46,2.46,0,0,1,1.32.9,3.27,3.27,0,0,1,.51,1.88v6.18a.84.84,0,1,0,1.67,0V34.63a4.77,4.77,0,0,0-.83-2.83A4.08,4.08,0,0,0,195.2,30.24Z" transform="translate(-102.41 -21.92)"/><path class="cls-1" d="M206.49,30.08a5.79,5.79,0,0,0,0,11.57,5.79,5.79,0,0,0,0-11.57Zm2.93,8.71A4.21,4.21,0,0,1,206.49,40a4.13,4.13,0,0,1-4.13-4.14,4.14,4.14,0,0,1,7.06-2.92,4.14,4.14,0,0,1,0,5.85Z" transform="translate(-102.41 -21.92)"/><path class="cls-1" d="M220.59,30.08a5.72,5.72,0,0,0-4.08,1.7,1,1,0,0,0-.19.18v-1a.84.84,0,1,0-1.67,0V47.36a.84.84,0,1,0,1.67,0V39.77a1,1,0,0,1,.19.18,5.78,5.78,0,1,0,4.08-9.87Zm2.91,8.71a4.15,4.15,0,0,1-5.86,0,4.14,4.14,0,1,1,5.86,0Z" transform="translate(-102.41 -21.92)"/><path class="cls-1" d="M237.9,31.61a5.1,5.1,0,0,0-3.67-1.53,5,5,0,0,0-3.67,1.53c-2,2.16-2,4.49-1.19,6.83a4.59,4.59,0,0,0,2,2.4,5.47,5.47,0,0,0,3.09.81,10.56,10.56,0,0,0,3.85-.88.84.84,0,0,0-.65-1.54,8.54,8.54,0,0,1-3.23.77,4,4,0,0,1-2.18-.56,3.48,3.48,0,0,1-1.3-1.62,7.72,7.72,0,0,1-.37-1.54h7.69c.41,0,1.78.1,1.06-2.25A5.53,5.53,0,0,0,237.9,31.61Zm-7.27,3a4.27,4.27,0,0,1,1.09-1.79,3.53,3.53,0,0,1,5,0,4.76,4.76,0,0,1,1.11,1.79Z" transform="translate(-102.41 -21.92)"/><path class="cls-1" d="M252,34a5.66,5.66,0,0,0-1.4-2.42,5.1,5.1,0,0,0-3.67-1.53,5,5,0,0,0-3.67,1.53c-2,2.16-2,4.49-1.18,6.83a4.58,4.58,0,0,0,1.95,2.4,5.47,5.47,0,0,0,3.09.81,10.65,10.65,0,0,0,3.86-.88.84.84,0,0,0-.66-1.54,8.45,8.45,0,0,1-3.22.77,4,4,0,0,1-2.19-.56,3.48,3.48,0,0,1-1.3-1.62,7.72,7.72,0,0,1-.37-1.54h7.69C251.33,36.28,252.7,36.38,252,34Zm-8.67.56a4.37,4.37,0,0,1,1.09-1.79,3.64,3.64,0,0,1,2.51-1,3.6,3.6,0,0,1,2.51,1,4.91,4.91,0,0,1,1.12,1.79Z" transform="translate(-102.41 -21.92)"/><path class="cls-1" d="M185.17,45.79h-12V78H178V68.36h7.67A14.36,14.36,0,0,0,193,66.43a10.05,10.05,0,0,0,5.26-9.05,10.69,10.69,0,0,0-4.76-9A14.46,14.46,0,0,0,185.17,45.79Zm1.53,17.43H178V50.61h7.84a2.68,2.68,0,0,1,.4,0c1.19.13,6.4,1,6.4,6.62C192.66,63.22,186.7,63.22,186.7,63.22Z" transform="translate(-102.41 -21.92)"/><path class="cls-1" d="M217.63,55.1v2.27a11.4,11.4,0,0,0-7.24-2.58,11.51,11.51,0,1,0,0,23,11.4,11.4,0,0,0,7.24-2.58v2.58h4.88V55.1Zm-7.24,18.44a7.24,7.24,0,1,1,7.24-7.25v0A7.24,7.24,0,0,1,210.39,73.54Z" transform="translate(-102.41 -21.92)"/><polygon class="cls-1" points="122.29 32.87 128.82 32.87 136.48 47.53 143.87 32.87 149.77 32.87 132.21 65.56 126.46 65.56 133.16 53.43 122.29 32.87"/></svg>