<svg id="Simpl" xmlns="http://www.w3.org/2000/svg" viewBox="0 0 204.16 69"><defs><style>.cls-1{fill:#00d1c1;}</style></defs><path class="cls-1" d="M165.91,63.44c-1-4.58-5.35-6.76-9.31-8.43-2.61-1.09-7.8-2.46-7.66-6.11s4.39-4.55,7.28-4a13,13,0,0,1,4.67,1.84l4.36-4.36c-3.92-3.76-10.76-4.72-15.71-2.93-5.34,1.92-9,7.91-6.56,13.44,1.82,4.07,6.45,5.79,10.26,7.44,2.92,1.27,8,3.51,5.74,7.63-1.65,2.94-5.88,2.6-8.58,1.66a15,15,0,0,1-4.3-2.34l-4.38,4.38A17.81,17.81,0,0,0,157,76.1c5.93-1.12,10.22-6.54,8.87-12.66Z" transform="translate(-67.56 -24.48)"/><path class="cls-1" d="M122.12,35.07l-1.5-1.5A31.08,31.08,0,0,0,75.21,76L68.3,82.89l1.5,1.5A31.09,31.09,0,0,0,115.21,42Zm-42.47,1.5h0a26.88,26.88,0,0,1,36.4-1.44l-3.94,3.94a21.34,21.34,0,0,0-30,30L78.21,73A26.9,26.9,0,0,1,79.65,36.57Zm31.11,44.81h0a26.89,26.89,0,0,1-36.4,1.45l3.94-3.94a21.34,21.34,0,0,0,30-30L112.2,45A26.87,26.87,0,0,1,110.76,81.38Z" transform="translate(-67.56 -24.48)"/><rect class="cls-1" x="103.1" y="25" width="6.54" height="26.28"/><path class="cls-1" d="M270.75,70.19h0c-1.7,0-2.68-.72-2.68-3.6V39.18l-6.49,6.5V67.56c0,7.53,4.48,8.45,8.08,8.45a15.38,15.38,0,0,0,2.06-.15V70.14S271.26,70.19,270.75,70.19Z" transform="translate(-67.56 -24.48)"/><path class="cls-1" d="M253.9,54.06a11.07,11.07,0,0,0-10.79-5.12A9.35,9.35,0,0,0,236,53.19V49.48h-6v38.7l6.55-6.56V72.77c2.19,3.2,6.54,4.11,10.14,3.33,9.41-2,11.74-14.67,7.2-22Zm-11,16.8c-4,0-6.27-3.68-6.52-7.32-.2-3,.62-6.66,3.48-8.27a6.23,6.23,0,0,1,7.39,1C251.41,60.48,249.9,70.86,242.89,70.86Z" transform="translate(-67.56 -24.48)"/><path class="cls-1" d="M218.25,49.29a10.43,10.43,0,0,0-12.12,5H206c-2.39-7.83-13-6.39-16.23,0V49.48h-6.28V75.75h6.54V64.22a13.59,13.59,0,0,1,.31-3.35c.69-2.83,2.59-5.59,5.67-6,3.48-.44,4.32,2.31,4.32,5.21V75.75h6.54V64.22a14,14,0,0,1,.31-3.4c.69-2.93,2.72-5.76,5.94-6s4,2.51,4,5.24V75.75h6.54V58.86C223.69,54.87,222.46,50.58,218.25,49.29Z" transform="translate(-67.56 -24.48)"/></svg>