<svg id="Skrill" xmlns="http://www.w3.org/2000/svg" xmlns:xlink="http://www.w3.org/1999/xlink" viewBox="0 0 189.77 64.82"><defs><style>.cls-1{fill-rule:evenodd;fill:url(#linear-gradient);}</style><linearGradient id="linear-gradient" x1="130.39" y1="117.91" x2="130.83" y2="117.07" gradientTransform="matrix(226.77, 0, 0, -77.46, -29436.83, 9155.55)" gradientUnits="userSpaceOnUse"><stop offset="0" stop-color="#6b195f"/><stop offset="1" stop-color="#4c255b"/></linearGradient></defs><g id="Page-1"><g id="skrill-logo-web-1-rgb"><path id="Fill-1" class="cls-1" d="M221.58,37.6a7.79,7.79,0,1,0-7.79-7.78,7.78,7.78,0,0,0,7.79,7.78Zm-59.66,4.21a55,55,0,0,1-9,15.43V25.58l-16.3,3.22V86.2h16.3V68.45C157.64,75.53,160,86.2,160,86.2H179.5c-1.93-8-10.38-22.84-10.38-22.84a71.61,71.61,0,0,0,11.44-21.55Zm42.86-.6c-14.6.47-22,7-22,20v25h15.93V65.85c0-7.79,1-11.14,10.28-11.46v-13a22.2,22.2,0,0,0-4.19-.23Zm-95.5,6.92c-2-.13-6.62-.43-6.62-4.59,0-5,6.66-5,9.15-5A54.85,54.85,0,0,1,126,41s2.26.79,4.19,1.61l.18,0V28.94l-.25-.08c-4.79-1.67-10.36-3.28-20.69-3.28C91.57,25.58,85.27,36,85.27,44.84c0,5.12,2.19,17.18,22.59,18.57,1.72.1,6.31.37,6.31,4.67,0,3.55-3.75,5.64-10.07,5.64a49.44,49.44,0,0,1-17.72-3.44V84.45a82.69,82.69,0,0,0,21.06,2.4c17.41,0,25.21-9.82,25.21-19.54,0-11-8.73-18.2-23.37-19.18ZM213.68,86.2h15.8V41.86h-15.8Zm45.55-57.8V86.2H275V25.58l-15.8,2.82Zm-23.06,0L252,25.58V86.2H236.17V28.4Z" transform="translate(-85.27 -22.03)"/></g></g></svg>