<?xml version="1.0" standalone="no"?>
<!DOCTYPE svg PUBLIC "-//W3C//DTD SVG 20010904//EN"
 "http://www.w3.org/TR/2001/REC-SVG-20010904/DTD/svg10.dtd">
<svg version="1.0" xmlns="http://www.w3.org/2000/svg"
 width="832.000000pt" height="370.000000pt" viewBox="0 0 832.000000 370.000000"
 preserveAspectRatio="xMidYMid meet">

<g transform="translate(0.000000,370.000000) scale(0.100000,-0.100000)"
fill="#000000" stroke="none">
<path d="M2575 3183 c-16 -14 -39 -33 -51 -42 -11 -10 -62 -51 -114 -92 -52
-40 -105 -84 -119 -97 -13 -12 -39 -32 -58 -43 -18 -11 -33 -25 -33 -30 0 -5
-4 -9 -10 -9 -5 0 -18 -8 -29 -17 -30 -29 -83 -73 -87 -73 -4 0 -24 -16 -93
-75 -20 -17 -79 -64 -131 -105 -52 -41 -105 -85 -119 -98 -13 -12 -39 -32 -58
-43 -18 -11 -33 -25 -33 -30 0 -5 -5 -9 -10 -9 -5 0 -18 -8 -28 -17 -27 -26
-109 -94 -142 -117 -30 -22 -116 -93 -138 -113 -7 -7 -33 -27 -57 -44 -25 -18
-45 -36 -45 -41 0 -4 -7 -8 -15 -8 -8 0 -15 -4 -15 -8 0 -5 -19 -22 -42 -39
-24 -17 -54 -41 -68 -53 -14 -11 -35 -30 -47 -41 -23 -19 -29 -45 -15 -65 4
-5 34 -18 67 -28 33 -10 71 -21 85 -25 68 -22 340 -100 485 -141 44 -12 84
-26 88 -30 5 -4 -2 -25 -15 -46 -14 -22 -28 -46 -31 -54 -4 -8 -15 -27 -25
-42 -32 -50 -137 -223 -141 -233 -2 -5 -16 -28 -30 -50 -38 -59 -42 -67 -85
-141 -22 -38 -44 -70 -48 -72 -4 -2 -8 -7 -8 -12 0 -8 -47 -89 -92 -158 -10
-15 -21 -34 -25 -42 -4 -8 -45 -77 -91 -153 -77 -125 -95 -167 -60 -140 77 61
348 278 363 291 11 10 40 33 65 52 25 19 47 38 50 42 3 4 29 24 57 45 57 42
245 193 253 203 3 3 34 28 69 55 36 28 72 57 81 65 9 8 43 36 76 61 32 26 103
82 156 125 53 44 167 135 252 203 86 68 158 132 161 141 9 27 -5 50 -34 56
-14 3 -44 12 -66 19 -22 7 -65 20 -95 28 -30 9 -102 30 -160 47 -58 17 -121
35 -140 40 -96 25 -240 73 -240 81 0 5 44 82 99 171 54 90 106 177 115 193 9
17 24 42 34 57 9 14 39 64 66 110 27 45 75 125 107 176 33 51 59 95 59 98 0 3
8 17 19 32 10 15 45 71 77 125 103 172 116 208 59 160z"/>
<path d="M3561 2644 c-102 -37 -186 -117 -222 -213 -30 -80 -24 -185 15 -263
26 -54 150 -187 261 -280 226 -189 262 -234 252 -312 -11 -83 -115 -134 -216
-106 -48 13 -110 64 -143 118 -12 21 -26 40 -31 43 -13 9 -217 -112 -217 -128
0 -23 97 -148 145 -187 24 -20 70 -49 102 -64 54 -25 67 -27 193 -27 133 0
136 0 198 33 87 45 142 99 180 174 60 120 53 264 -20 384 -33 56 -175 200
-238 244 -74 51 -203 164 -221 194 -26 42 -24 89 4 122 19 22 34 28 79 32 70
5 134 -23 187 -84 l35 -41 93 76 c50 42 92 81 92 87 1 19 -132 139 -195 175
-57 32 -64 34 -174 36 -86 2 -126 -1 -159 -13z"/>
<path d="M4302 1958 l3 -703 123 -3 122 -3 0 706 0 705 -125 0 -125 0 2 -702z"/>
<path d="M5204 2290 c-61 -9 -151 -41 -209 -75 -50 -30 -160 -139 -192 -192
-68 -111 -83 -298 -37 -439 50 -154 173 -273 344 -335 52 -19 85 -24 165 -23
118 0 200 23 292 83 68 44 167 149 193 206 61 130 54 394 -14 508 -38 65 -138
162 -210 202 -96 54 -230 80 -332 65z m169 -250 c69 -26 123 -78 154 -149 22
-48 24 -67 21 -146 -5 -131 -43 -199 -143 -256 -33 -19 -56 -23 -130 -23 -86
-1 -93 1 -142 32 -87 56 -133 145 -133 256 0 103 23 163 88 226 32 31 73 61
92 67 56 18 134 15 193 -7z"/>
<path d="M6520 2289 c-55 -10 -141 -52 -193 -95 -16 -13 -32 -24 -37 -24 -5 0
-10 21 -12 48 l-3 47 -125 0 -125 0 -3 -697 -2 -698 130 0 130 0 0 235 c0 159
3 235 11 235 5 0 27 -13 47 -29 190 -150 475 -102 635 106 56 74 60 83 83 173
42 167 12 389 -66 494 -83 114 -198 186 -327 205 -39 6 -75 10 -80 10 -4 -1
-33 -5 -63 -10z m134 -244 c105 -44 169 -151 169 -285 0 -102 -28 -173 -91
-233 -63 -58 -103 -70 -211 -65 -76 3 -92 7 -123 32 -83 63 -128 157 -128 268
0 115 48 208 138 268 41 27 53 30 127 30 52 0 96 -6 119 -15z"/>
<path d="M7670 2285 c-87 -16 -197 -69 -255 -123 -131 -122 -178 -230 -177
-412 0 -88 5 -117 27 -180 114 -313 479 -439 811 -279 66 32 154 101 154 121
0 13 -20 32 -50 48 -14 7 -46 31 -71 52 -25 21 -48 38 -51 38 -3 0 -33 -18
-66 -40 -53 -35 -71 -42 -147 -51 -109 -13 -189 -1 -247 38 -47 31 -94 100
-104 150 l-6 33 408 2 409 3 3 74 c6 140 -37 255 -132 358 -96 103 -192 153
-339 172 -43 6 -81 11 -85 10 -4 0 -41 -7 -82 -14z m229 -227 c43 -13 107 -71
132 -119 10 -21 19 -41 19 -44 0 -9 -538 -6 -544 4 -10 15 56 101 101 133 65
44 193 56 292 26z"/>
</g>
</svg>
