<svg id="Sofort" xmlns="http://www.w3.org/2000/svg" viewBox="0 0 273.31 49.56"><defs><style>.cls-1{fill:#f18121;}</style></defs><path class="cls-1" d="M119,29.53H91.44c-4.34,0-8.56,0-12.33,1.91S72,37.2,69.42,44.87a15.53,15.53,0,0,0-.89,4.31,6.48,6.48,0,0,0,.65,3.2,9.16,9.16,0,0,0,2.69,3A13.08,13.08,0,0,0,76,57.5l1.82.52c1,.27,2.08.6,2.79.82a6.12,6.12,0,0,1,1.29.54,2.66,2.66,0,0,1,1,1,2.4,2.4,0,0,1,.24,1,3.31,3.31,0,0,1-.19,1.16A3.13,3.13,0,0,1,81,64.68a14.13,14.13,0,0,1-4.78.56H47.9l-4.48,12.3H73.75c2.85,0,8.07,0,13.09-2.13S96.66,69,98.7,60.51c.76-3.2.53-5.82-.73-7.86s-3.53-3.54-6.85-4.49l-1.61-.46L87.12,47a3.2,3.2,0,0,1-1.88-1.35A2.65,2.65,0,0,1,85,43.5a3.07,3.07,0,0,1,1.57-1.89,6.4,6.4,0,0,1,3.07-.68h17.62c.13-.18.25-.38.37-.56A39,39,0,0,1,119,29.53" transform="translate(-43.42 -28.79)"/><path class="cls-1" d="M119,29.47H91.46c-4.34,0-8.56,0-12.34,1.92S72,37.14,69.44,44.82a15.12,15.12,0,0,0-.89,4.3,6.44,6.44,0,0,0,.65,3.21,9.22,9.22,0,0,0,2.68,3.05A13.33,13.33,0,0,0,76,57.44l1.81.52,2.8.82a6.36,6.36,0,0,1,1.28.54,2.55,2.55,0,0,1,1,1,2.2,2.2,0,0,1,.25,1,3.26,3.26,0,0,1-.19,1.15A3.16,3.16,0,0,1,81,64.63a13.86,13.86,0,0,1-4.78.55H47.92L43.44,77.49H73.77c2.85,0,8.07,0,13.08-2.13S96.67,69,98.71,60.45c.77-3.2.53-5.81-.72-7.86s-3.54-3.53-6.85-4.48l-1.62-.47L87.14,47a3.19,3.19,0,0,1-1.89-1.36A2.68,2.68,0,0,1,85,43.44a3.15,3.15,0,0,1,1.57-1.88,6.28,6.28,0,0,1,3.07-.69h17.63c.13-.18.24-.37.37-.55A38.83,38.83,0,0,1,119,29.47" transform="translate(-43.42 -28.79)"/><path class="cls-1" d="M268.87,29.55a12.07,12.07,0,0,1,2.43,2.57,12.43,12.43,0,0,1,2,8.83h8.84L268.81,77.58h13.31L295.46,41h17.11l4.15-11.4Z" transform="translate(-43.42 -28.79)"/><path class="cls-1" d="M268.21,34.26c-2.19-3.15-6.65-4.7-13.63-4.71H238.41l-17.48,48h14.85l6.36-16.9c.3.7,4.06,16.9,4.06,16.9h15.61S259,65.66,256.88,60.86A26.53,26.53,0,0,0,255,57.07c4.42-1.63,10.81-5.16,13.45-12.28,1.63-4.39,1.54-7.93-.27-10.53M255.29,44.87c-1.43,3.84-4,6.22-8.86,6.22h-2.54l4.31-11.61h2.45c4.48,0,6.15,1.31,4.64,5.4" transform="translate(-43.42 -28.79)"/><path class="cls-1" d="M146,34c-2.4-3.43-6.51-5.17-12.22-5.18A25,25,0,0,0,123,31.31a33.69,33.69,0,0,0-12.87,11.23A48.91,48.91,0,0,0,104.26,54c-3,8.09-2.92,14.66.1,19,1.71,2.45,5.27,5.38,12.52,5.38h0c13.2,0,23-8.65,29.28-25.7C147.83,48.13,150,39.71,146,34M131.91,53.31c-4.12,11.27-7.1,14.1-11.6,14.1h0c-4.38,0-5.91-2.77-1.82-14,3.07-8.37,7-13.72,11.83-13.72h0c4.56,0,5.6,2.64,1.6,13.6" transform="translate(-43.42 -28.79)"/><path class="cls-1" d="M198.74,29.53H170.68c-7.84,0-13.68,4-16.44,11.4L140.91,77.54h14.6l6.85-18.82h12.91l3.66-10.08H166.07l2.07-5.84a3.1,3.1,0,0,1,3-1.87h15.21c.13-.18.24-.38.37-.56a41,41,0,0,1,12-10.84" transform="translate(-43.42 -28.79)"/><path class="cls-1" d="M225.63,34c-2.4-3.43-6.51-5.17-12.23-5.18a25,25,0,0,0-10.76,2.47,33.69,33.69,0,0,0-12.87,11.23A48.91,48.91,0,0,0,183.86,54c-3,8.09-2.92,14.66.1,19,1.71,2.45,5.27,5.38,12.52,5.38h0c13.19,0,23-8.65,29.28-25.7,1.65-4.51,3.82-12.93-.15-18.62M211.51,53.31c-4.12,11.27-7.11,14.1-11.6,14.1h0c-4.38,0-5.91-2.77-1.81-14,3-8.37,7-13.72,11.81-13.72h0c4.56,0,5.6,2.64,1.6,13.6" transform="translate(-43.42 -28.79)"/><path class="cls-1" d="M268.89,29.5a12,12,0,0,1,2.43,2.56,12.54,12.54,0,0,1,2,8.84h8.84L268.83,77.53h13.31L295.47,40.9h17.11l4.15-11.4Z" transform="translate(-43.42 -28.79)"/><path class="cls-1" d="M268.23,34.21c-2.19-3.15-6.65-4.7-13.63-4.71H238.43l-17.49,48H235.8l6.35-16.9c.31.69,4.06,16.9,4.06,16.9h15.62S259,65.61,256.9,60.8A26.42,26.42,0,0,0,255.05,57c4.41-1.64,10.8-5.16,13.45-12.29,1.63-4.38,1.53-7.92-.27-10.52M255.3,44.82c-1.42,3.84-4,6.21-8.86,6.21h-2.53l4.3-11.6h2.46c4.48,0,6.15,1.3,4.63,5.4" transform="translate(-43.42 -28.79)"/><path class="cls-1" d="M146.05,34c-2.4-3.43-6.51-5.18-12.23-5.18a25.17,25.17,0,0,0-10.76,2.46,33.66,33.66,0,0,0-12.88,11.24,48.81,48.81,0,0,0-5.9,11.43c-3,8.09-2.93,14.66.1,19,1.71,2.45,5.27,5.37,12.51,5.38h0c13.19,0,23-8.65,29.28-25.7,1.64-4.52,3.82-12.94-.15-18.62M131.92,53.26c-4.11,11.26-7.1,14.1-11.59,14.1h0c-4.38,0-5.92-2.78-1.82-14,3.06-8.37,7-13.72,11.82-13.72h0c4.56,0,5.61,2.65,1.6,13.61" transform="translate(-43.42 -28.79)"/><path class="cls-1" d="M198.76,29.47H170.7c-7.85,0-13.69,4-16.44,11.4L140.93,77.49h14.6l6.85-18.82h12.9L179,48.59H166.09l2.07-5.83a3.07,3.07,0,0,1,3-1.88h15.22l.36-.55a41.11,41.11,0,0,1,12-10.85" transform="translate(-43.42 -28.79)"/><path class="cls-1" d="M225.64,34c-2.4-3.43-6.5-5.18-12.22-5.18a25.17,25.17,0,0,0-10.76,2.46,33.56,33.56,0,0,0-12.87,11.24,48.83,48.83,0,0,0-5.91,11.43c-3,8.09-2.93,14.66.1,19,1.71,2.45,5.27,5.37,12.52,5.38h0c13.19,0,23-8.65,29.27-25.7,1.66-4.52,3.83-12.94-.15-18.62M211.52,53.26c-4.11,11.26-7.1,14.1-11.59,14.1h0c-4.38,0-5.91-2.78-1.82-14,3.06-8.37,7-13.72,11.82-13.72h0c4.55,0,5.6,2.65,1.59,13.61" transform="translate(-43.42 -28.79)"/></svg>