<svg id="Speedmart" xmlns="http://www.w3.org/2000/svg" viewBox="0 0 272.95 53.7"><defs><style>.cls-1{fill:#ff6601;}</style></defs><path class="cls-1" d="M124,75a4.46,4.46,0,0,1,4.47-4.46,4.35,4.35,0,0,1,3.16,1.3,4.45,4.45,0,0,1,0,6.31A4.47,4.47,0,0,1,124,75m-1.92,0A6.4,6.4,0,1,0,133,70.47,6.39,6.39,0,0,0,122.07,75M109.33,53.07h4.81l.93-.06.35-.1.26-.13.33-.41.07-.29v-.32l-.16-.86-2.21-8-.32-.85-.19-.34-1.13-.82-.4-.1-1-.06h-6.22l-.94.06-.34.1-.26.14-.32.41-.06.27v.34l.18.85,2.21,8,.32.86.19.32,1.13.83.39.1,1,.06Zm24.89,17,0,.06a7.58,7.58,0,1,1-13.21,3.25H98.64L95.1,65.48a11.52,11.52,0,0,0,3.71,1.15,37.23,37.23,0,0,0,4.6.26H117c2.18,0,3.45-.23,2.68-2.73l-2.09-7.46h-.13l-.36,1.21-.42.82-.88.66-.87.16H102.21a12.71,12.71,0,0,1-8.5-3.16,10.51,10.51,0,0,1-3.26-5.15l-1.32-4.56L88,42.59l-.32-1.52a6.66,6.66,0,0,1,.07-2,5,5,0,0,1,1.35-2.62,6,6,0,0,1,1.94-1.33,8.07,8.07,0,0,1,2.57-.71l1.5-.09H116.4a12.67,12.67,0,0,1,8.1,2.81l5-3.92a3,3,0,0,1,1.24-3.87,3.05,3.05,0,0,1,4,.77l.63,1.4,0,.39v.21a3.13,3.13,0,0,1-.6,1.71l-.6.59a3,3,0,0,1-3.74,0l-4.82,3.79a9.76,9.76,0,0,1,2.47,4.39l6.35,22.46.3,1.48a6.38,6.38,0,0,1-.21,2.57l-.38,1M60.93,75a4.47,4.47,0,1,1,8.94,0,4.39,4.39,0,0,1-1.31,3.15,4.44,4.44,0,0,1-6.32,0A4.39,4.39,0,0,1,60.93,75M59,75a6.39,6.39,0,1,0,10.9-4.52,6.37,6.37,0,0,0-9,0A6.29,6.29,0,0,0,59,75m8.45-34.17-1-.06H60.24l-.93.06-.34.1-.27.14-.33.41-.07.27v.34l.16.85,2.26,8,.3.86.2.32,1.11.83.39.1,1,.06H70l.93-.06.35-.1.27-.13.31-.41.07-.29v-.32l-.18-.86-2.22-8-.31-.85L69,41.74l-1.14-.82-.39-.1m5.31,32.54v.06A7.57,7.57,0,1,1,58,73.36H54.41l-3.54-7.88a11.54,11.54,0,0,0,3.7,1.15,36.69,36.69,0,0,0,4.56.26h13.6c2.14,0,3.47-.25,2.73-2.73L73.32,56.7h-.08l-.37,1.21-.43.82-.9.66-.87.16H58a12.78,12.78,0,0,1-8.52-3.16,10.41,10.41,0,0,1-3.27-5.15l-2.43-8.66-.24-1.19-.07-.77v-.72a5.4,5.4,0,0,1,2.18-4.15,6.54,6.54,0,0,1,1.8-.93,9.55,9.55,0,0,1,3.44-.55h21.3a12.78,12.78,0,0,1,8.55,3.16A10.52,10.52,0,0,1,84,42.59l6.32,22.46a8.87,8.87,0,0,1,.35,2.23,5.74,5.74,0,0,1-.5,2.48,5.64,5.64,0,0,1-2.92,2.81,8.25,8.25,0,0,1-2.57.7l-1.48.09Z" transform="translate(-43.45 -28.87)"/><path class="cls-1" d="M295,55.09h6.11L302.71,62a15.18,15.18,0,0,0,.5,1.75,7.19,7.19,0,0,0,.78,1.57h-7.14l0-1.57a13.09,13.09,0,0,0-.31-1.75" transform="translate(-43.45 -28.87)"/><polyline class="cls-1" points="256.82 22.77 257.46 25.5 251.34 25.5 250.69 22.77"/><polyline class="cls-1" points="260.84 19.32 261.53 21.23 261.07 20.96 260.41 20.64 259.04 20.42 256.26 20.42 256.65 22.04 250.52 22.04 250.14 20.42 247.35 20.42 246.28 20.55 245.73 20.83 245.26 21.23 245.05 19.32"/><polyline class="cls-1" points="244.84 17.27 260.12 17.27 260.59 18.63 244.96 18.63"/><polyline class="cls-1" points="183.77 33.04 182.36 26.99 182.15 26.22 184.84 26.22 186.61 33.8 186.98 35.08 187.23 35.64 187.84 36.49 183.94 36.49 184.03 36.23 184.16 35.21 184.08 34.55 183.77 33.04"/><path class="cls-1" d="M241.35,55.09h6.16L249.14,62a15.18,15.18,0,0,0,.5,1.75,6.9,6.9,0,0,0,.82,1.57h-7.2l.06-1.57A12.79,12.79,0,0,0,243,62l-1.46-6.17" transform="translate(-43.45 -28.87)"/><polyline class="cls-1" points="184.54 25.5 182.01 25.5 181.33 22.77 184.02 22.77 184.54 25.03 184.67 25.5"/><polyline class="cls-1" points="184.54 22.77 190.74 22.77 192.2 25.5 185.86 25.5 184.54 22.98 184.41 22.77"/><polyline class="cls-1" points="193.69 26.22 196.44 26.22 195.84 36.49 191.59 36.49 186.63 26.99 186.2 26.22 192.54 26.22 192.97 26.99 193.57 28.14 193.65 26.99"/><polyline class="cls-1" points="203.24 22.77 203.89 25.5 197.72 25.5 197.08 22.77"/><polyline class="cls-1" points="193.73 25.5 193.91 22.77 196.65 22.77 196.48 25.5"/><polyline class="cls-1" points="180.3 18.63 179.44 17.27 187.88 17.27 188.61 18.63"/><polyline class="cls-1" points="194.17 18.63 194.29 17.27 202.47 17.27 202.39 18.63"/><polyline class="cls-1" points="184.06 22.04 183.67 21.36 183.85 22.04 181.19 22.04 180.86 20.71 180.65 19.8 180.51 19.32 188.95 19.32 190.4 22.04"/><polyline class="cls-1" points="193.96 22.04 194.12 19.32 202.47 19.32 202.73 20.55 203.07 22.04 196.91 22.04 196.73 21.36 196.69 22.04"/><path class="cls-1" d="M272,65.35h-7.4l.1-.5,0-.24,0-.36-.05-.17-.56-1.45-1.45-2.46H255.6l-.47,2.63.05,1.15.06.26.12.34.17.33.32.47h-4.54l.18-.41a11.4,11.4,0,0,0,.55-1.65l.31-1.43,1.11-6.77h3l-.13.77L256.11,57h4.75l-.63-1.15-.48-.77h6.5l4.43,7.62a23.46,23.46,0,0,0,2,2.64" transform="translate(-43.45 -28.87)"/><polyline class="cls-1" points="210.13 25.5 210.57 22.77 213.43 22.77 213.05 25.5"/><polyline class="cls-1" points="215.87 25.5 214.24 22.77 220.79 22.77 222.38 25.5"/><polyline class="cls-1" points="211.25 18.63 211.29 18.34 210.35 17.27 217.59 17.27 218.4 18.63"/><polyline class="cls-1" points="213.86 22.04 213.6 21.65 213.56 22.04 210.69 22.04 211.12 19.32 218.78 19.32 220.41 22.04"/><path class="cls-1" d="M271.66,55.09h16.65l-.13,1-.51.6-.43.15-.48.1-.38,0,4.89,7.62.6.73H285L280.14,57h-1.89l1.2,5a18.74,18.74,0,0,0,.53,1.89l.72,1.43h-7.12a6.49,6.49,0,0,0-.08-2.28l-.21-1-1.42-6.17" transform="translate(-43.45 -28.87)"/><polyline class="cls-1" points="233.56 22.77 234.06 24.95 237.53 24.95 237.93 24.92 238.11 24.89 238.19 24.84 238.32 24.66 238.35 24.48 238.35 24.35 238.26 23.89 238.01 22.77 244.13 22.77 244.68 25.03 244.71 25.18 244.73 25.32 244.76 25.46 244.76 25.48 244.76 25.49 244.77 25.5 228.04 25.5 227.39 22.77"/><polyline class="cls-1" points="226.32 18.63 225.47 17.27 238.69 17.27 240.07 17.37 241.25 17.72 242.49 18.63"/><path class="cls-1" d="M276.46,49.29l.39,1.62h-6.13L270,48.19h16.48a6.25,6.25,0,0,1,.68,1.65l.07.26.19.81h-6.12l-.13-.51-.13-.48-.18-.32-.36-.24-.35-.06h-.22" transform="translate(-43.45 -28.87)"/><path class="cls-1" d="M190.92,65l0,.37H176.79a6.93,6.93,0,0,0-.08-2.27l-.22-1-1.41-6.17-.21-.77h13.26l.22.77.34,1.66-.21-.07a7.53,7.53,0,0,0-2.66-.43h-4.37l1.2,5.15H188l.76,0a5.26,5.26,0,0,0,1.86-.47" transform="translate(-43.45 -28.87)"/><path class="cls-1" d="M138.31,55.09l15.47,0,.2.77,0,0h0l1.06,4.69a11.63,11.63,0,0,1,.29,1.65l-.08,1.33a2.13,2.13,0,0,1-1.45,1.55l-1.49.19h-11l-1.45-3.91.63.31a4.82,4.82,0,0,0,2,.42h5.91l.48,0,.32-.07.1-.07.12-.19,0-.18-.06-.33-.44-1.67-.39-.4-.35-.08-.48,0h-5l-1.2-.1-1-.33-1.15-1a6.92,6.92,0,0,1-.82-1.82l-.11-.46-.1-.31V55l-.13-.65-.68-2.72h6l.29.3L144,52l.41,0h4.66a7.31,7.31,0,0,1,1.67.19,4.12,4.12,0,0,1,2.69,2.11H138.18l.13.65" transform="translate(-43.45 -28.87)"/><path class="cls-1" d="M166.43,55.09h6.34l0,.48v.29l-.15,1.08a2,2,0,0,1-1.13,1.25l-.43.14-1.55.16h-6.38L164,62a17.44,17.44,0,0,0,.49,1.75,6.71,6.71,0,0,0,.76,1.57h-7.11l0-1.57a11.72,11.72,0,0,0-.33-1.75l-1.4-6.17-.21-.77h6.16l0,.21H166l.3-.09.15-.13" transform="translate(-43.45 -28.87)"/><polyline class="cls-1" points="122.33 22.26 122.46 22.77 128.58 22.77 129.22 25.5 123.06 25.5 122.96 24.97 122.93 24.82 122.46 22.77"/><polyline class="cls-1" points="178.89 22.77 179.51 25.5 173.39 25.5 172.76 22.77"/><path class="cls-1" d="M204,55.09l.56,2.43-.21-.07a7.49,7.49,0,0,0-2.65-.44h-4.37l1.2,5.16h5.31l.78,0a4.92,4.92,0,0,0,1.88-.47l.28,3.32v.37H192.58l.09-.7-.14-1.58-.2-1L190.92,56l-.06-.12-.16-.77" transform="translate(-43.45 -28.87)"/><path class="cls-1" d="M217,55.09h6.17l1.11,4.77a16.08,16.08,0,0,1,.33,2.08l-.14,1.56A2.19,2.19,0,0,1,223.16,65l-.49.18a6.89,6.89,0,0,1-1.75.18h-12.5l.09-.7-.13-1.58-.22-1L206.75,56l0-.12h0l-.18-.77h6.12l1.67,7.08h3.16c1.28,0,1-.6.82-1.58l-1.12-4.73" transform="translate(-43.45 -28.87)"/><polyline class="cls-1" points="112.66 25.5 111.98 22.77 118.14 22.77 118.78 25.5"/><polyline class="cls-1" points="162.91 25.5 162.27 22.77 168.39 22.77 169.03 25.5"/><polyline class="cls-1" points="147.08 25.5 146.44 22.77 152.56 22.77 153.07 24.95 157.43 24.95 158.81 24.84 159.91 24.51 160.09 24.43 160.34 25.5"/><polyline class="cls-1" points="131.24 25.5 130.6 22.77 136.76 22.77 137.27 24.95 141.64 24.95 142.71 24.88 144.06 24.51 144.25 24.43 144.51 25.5"/><path class="cls-1" d="M165.79,51.13l0-.17-.21-.7-.22-.48-.13-.17-.49-.28-.45,0H161l.38,1.62H155.3l-.39-1.49-.21-.91-.08-.32h16.22a9.19,9.19,0,0,1,.91,2.31l.07.32,0,.09h-6.11" transform="translate(-43.45 -28.87)"/><path class="cls-1" d="M221.75,49.68l.4,1.22H216l-.2-.66-.21-.47-.63-.44-.51,0h-3.2l.38,1.61h-6.12l-.34-1.48-.17-.67-.17-.56H221a6.25,6.25,0,0,1,.79,1.49" transform="translate(-43.45 -28.87)"/><path class="cls-1" d="M204.61,47.5l-.68-1.36h12.5a6.89,6.89,0,0,1,1.86.2l1.17.46.95.7" transform="translate(-43.45 -28.87)"/><polyline class="cls-1" points="145.37 18.63 144.79 17.5 144.63 17.27 158.54 17.27 159.06 18.63"/><path class="cls-1" d="M189.71,50.9l-.33-1.48-.18-.67-.13-.47,0-.09h13.74l.59,1.61-.65-.2a7.22,7.22,0,0,0-2.26-.31h-5l.39,1.61" transform="translate(-43.45 -28.87)"/><polyline class="cls-1" points="129.52 18.63 128.84 17.27 142.75 17.27 143.23 18.63"/><path class="cls-1" d="M173.92,50.9l-.38-1.48-.22-.91-.08-.32h13.69l.65,1.61-.68-.2a7.42,7.42,0,0,0-2.23-.31h-5L180,50.9" transform="translate(-43.45 -28.87)"/><path class="cls-1" d="M154.36,47.5l-.86-1.36h13.18l1.23.08a3.78,3.78,0,0,1,2.42,1.28" transform="translate(-43.45 -28.87)"/><path class="cls-1" d="M151.74,48.19l.7,1.73-.73-.3a5.56,5.56,0,0,0-1.93-.33h-5.69l-.48,0-.21,0-.14,0-.08.06-.13.22V50l.22.95h-5.92l-.08-.21-.21-1.38,0-1.12" transform="translate(-43.45 -28.87)"/><polyline class="cls-1" points="107.53 17.27 108.03 18.63 93.83 18.63 94.28 17.94 95.16 17.41 96.18 17.27"/><path class="cls-1" d="M310.6,49.34A2.58,2.58,0,1,1,313.19,52a2.58,2.58,0,0,1-2.59-2.69m2.59,3.22A3.21,3.21,0,1,0,310,49.34a3.2,3.2,0,0,0,3.22,3.22m-.66-3h.63l1,1.6h.61l-1-1.62a1,1,0,0,0,1-1c0-.73-.42-1-1.29-1H312v3.69h.56Zm0-.47V48h.75l.8.53c0,.58-.41.61-.89.61Z" transform="translate(-43.45 -28.87)"/></svg>