<svg id="SPEI" xmlns="http://www.w3.org/2000/svg" viewBox="0 0 211.77 64.4"><defs><style>.cls-1{fill:#ff7f0f;}.cls-2{fill:#170e79;}</style></defs><polygon class="cls-1" points="118.51 2.37 118.51 63.86 170.71 63.86 170.71 50.58 138.03 50.58 138.03 36.35 167.65 36.35 167.65 23.89 138.03 23.89 138.03 17.54 170.71 17.54 170.71 2.37 118.51 2.37"/><polygon class="cls-2" points="177.76 22.01 184.82 22.01 184.82 8.84 197.52 25.77 197.52 1.32 177.76 1.32 177.76 22.01"/><polygon class="cls-2" points="177.76 35.18 184.82 35.18 184.82 47.87 197.52 30.94 197.52 62.92 177.76 62.92 177.76 35.18"/><path class="cls-2" d="M281,28V22.9h2.15a3.78,3.78,0,0,1,1.18.13,1.22,1.22,0,0,1,.59.49,1.52,1.52,0,0,1,.22.8,1.33,1.33,0,0,1-.34.94,1.6,1.6,0,0,1-1,.47,2.42,2.42,0,0,1,.55.42,5.7,5.7,0,0,1,.58.82l.62,1h-1.22l-.74-1.1c-.27-.4-.45-.64-.54-.75a.85.85,0,0,0-.31-.21,2.05,2.05,0,0,0-.51,0H282V28ZM282,25h.76a3.94,3.94,0,0,0,.91-.06.59.59,0,0,0,.29-.22.65.65,0,0,0,.1-.38.59.59,0,0,0-.13-.41.61.61,0,0,0-.39-.2c-.08,0-.33,0-.74,0H282Z" transform="translate(-76.37 -20.54)"/><path class="cls-2" d="M283.25,30.32a4.89,4.89,0,1,1,4.89-4.89A4.9,4.9,0,0,1,283.25,30.32Zm0-8.84a3.95,3.95,0,1,0,3.95,3.95A4,4,0,0,0,283.25,21.48Z" transform="translate(-76.37 -20.54)"/><path class="cls-2" d="M189.47,38.55c0-3.76-.94-10.35-6.11-13.17s-7.06-3.29-13.64-3.29H137.27V83.7h19.28V60.65s13.64.47,16.46,0,9.41-1.41,13.17-7.52S189.47,42.31,189.47,38.55Zm-17.92,4.88a6.38,6.38,0,0,1-.71,1.65,6,6,0,0,1-2.75,2.36q-1.76.75-7,.75h-4.58V34.79s3.43-.2,6.46-.21a24,24,0,0,1,3.89.3,6.06,6.06,0,0,1,1.94.74l.09.06h0c1.35,1,2.34,2.92,2.66,6.15A5.56,5.56,0,0,1,171.55,43.43Z" transform="translate(-76.37 -20.54)"/><path class="cls-2" d="M76.37,63.24l17.87-.94c.7,3.23,1.66,6.46,3.82,8.14S101.34,73,105.22,73c4.26,0,4.65-.79,6.8-2.37a5.28,5.28,0,0,0,2.18-4.43A4.39,4.39,0,0,0,113,63a11.81,11.81,0,0,0-5.52-3.13c-13.31-3-18.92-5.65-22.48-8.09-4.93-3.39-6-7.15-6-13.18,0-5.44,2.61-9.07,6.87-12.77s9.94-4.61,18.91-4.61q12.8,0,19,4.19c4.15,2.8,5.29,8.58,6.86,14.06l-17.87.94c-.67-2.44-1.2-5-3.06-6.25A11.11,11.11,0,0,0,103.41,32a8,8,0,0,0-5.29,1.62A3.93,3.93,0,0,0,96.24,37a3.65,3.65,0,0,0,1.64,3c1.49,1.11,3.33,1.72,12.12,3.73s14,4.94,17.47,7.86,5.16,7.07,5.16,12.35q0,8.63-7.16,14.83c-4.78,4.13-10.9,6.2-20.25,6.2-8.5,0-16.16-1.73-21.11-5.2S77.89,69.19,76.37,63.24Z" transform="translate(-76.37 -20.54)"/></svg>