<svg id="Stripe" xmlns="http://www.w3.org/2000/svg" viewBox="0 0 158.96 66.15"><defs><style>.cls-1,.cls-2{fill:#626cda;}.cls-1{fill-rule:evenodd;}</style></defs><path class="cls-1" d="M253.43,55.54c0-11.3-5.48-20.22-15.94-20.22s-16.87,8.92-16.87,20.14c0,13.29,7.51,20,18.28,20a24.57,24.57,0,0,0,12.23-2.87V63.76a23.42,23.42,0,0,1-10.81,2.43c-4.29,0-8.09-1.51-8.57-6.72h21.59C253.34,58.9,253.43,56.6,253.43,55.54Zm-21.81-4.19c0-5,3-7.07,5.83-7.07S243,46.36,243,51.35Z" transform="translate(-94.47 -21.37)"/><path class="cls-1" d="M203.58,35.32a12.51,12.51,0,0,0-8.66,3.44L194.35,36h-9.72V87.51l11-2.34.05-12.49a12.42,12.42,0,0,0,7.81,2.78c7.91,0,15.1-6.36,15.1-20.36C218.59,42.3,211.3,35.32,203.58,35.32Zm-2.65,30.42a6.58,6.58,0,0,1-5.21-2.07l-.05-16.38a6.59,6.59,0,0,1,5.26-2.17c4,0,6.8,4.51,6.8,10.29S205,65.74,200.93,65.74Z" transform="translate(-94.47 -21.37)"/><polygon class="cls-1" points="74.98 11.35 86.06 8.96 86.06 0 74.98 2.34 74.98 11.35"/><rect class="cls-2" x="74.98" y="14.7" width="11.08" height="38.64"/><path class="cls-1" d="M157.57,39.34l-.71-3.27h-9.54V74.71h11V48.52c2.61-3.4,7-2.78,8.39-2.29V36.07C165.34,35.54,160.17,34.57,157.57,39.34Z" transform="translate(-94.47 -21.37)"/><path class="cls-1" d="M135.49,26.49l-10.78,2.3,0,35.36A11.09,11.09,0,0,0,136.11,75.5a17.08,17.08,0,0,0,7.72-1.45v-9c-1.41.58-8.39,2.61-8.39-3.93V45.48h8.39V36.07h-8.39Z" transform="translate(-94.47 -21.37)"/><path class="cls-1" d="M105.64,47.29c0-1.73,1.41-2.39,3.75-2.39a24.6,24.6,0,0,1,11,2.83V37.35a29,29,0,0,0-11-2c-9,0-14.92,4.68-14.92,12.5,0,12.18,16.78,10.24,16.78,15.5,0,2-1.77,2.69-4.24,2.69-3.67,0-8.35-1.5-12.06-3.53V73A30.73,30.73,0,0,0,107,75.5c9.18,0,15.5-4.55,15.5-12.45C122.46,49.89,105.64,52.23,105.64,47.29Z" transform="translate(-94.47 -21.37)"/></svg>