<svg id="Tarjeta_Naranjar" data-name="Tarjeta Naranjar" xmlns="http://www.w3.org/2000/svg" viewBox="0 0 258.89 61.97"><defs><style>.cls-1{fill:#f74f10;}.cls-2{fill:#29adc4;}.cls-3{fill:#f4be0f;}</style></defs><path class="cls-1" d="M52.82,73.14V30.84h6.49l22,29.41V30.84h7.48v42.3H82.35l-22-29.41V73.14Zm70.35,0H116v-1.8a12.35,12.35,0,0,1-7.57,2.73,14.15,14.15,0,0,1-11-4.93A14.64,14.64,0,0,1,93.6,59a14.83,14.83,0,0,1,14.67-15h.11A12.29,12.29,0,0,1,116,46.8V45h7.22ZM102.59,53.49A8.76,8.76,0,0,0,100.91,59a8.49,8.49,0,0,0,2.27,6.26,7.24,7.24,0,0,0,5.33,2.19,7,7,0,0,0,5.88-2.88A9.08,9.08,0,0,0,116,59a8.57,8.57,0,0,0-2.23-6.2,7.1,7.1,0,0,0-5.43-2.17A7,7,0,0,0,102.59,53.49Zm34.52-6.66a8.48,8.48,0,0,1,5.52-2,24,24,0,0,1,2.67.19v6.47c-1.12-.09-2-.12-2.61-.12q-3.16,0-4.37,1.77c-.81,1.2-1.21,3.35-1.21,6.48V73.14h-7.22V45h7.22Zm40,26.31h-7.22v-1.8a12.35,12.35,0,0,1-7.57,2.73,14.15,14.15,0,0,1-11-4.93A14.59,14.59,0,0,1,147.6,59a14.82,14.82,0,0,1,14.66-15h.12A12.35,12.35,0,0,1,170,46.8V45h7.22ZM156.58,53.49A8.76,8.76,0,0,0,154.9,59a8.53,8.53,0,0,0,2.26,6.26,7.28,7.28,0,0,0,5.34,2.19,7,7,0,0,0,5.88-2.88A9.08,9.08,0,0,0,170,59a8.58,8.58,0,0,0-2.24-6.2,7.56,7.56,0,0,0-11.21.67Zm34.52-7a10.25,10.25,0,0,1,6.54-2.42,12,12,0,0,1,8.73,3.75c2.2,2.33,3.1,5.37,3.1,10.18V73.14h-7.21V58.48q0-4.74-1.4-6.32a4.72,4.72,0,0,0-3.75-1.52,5.7,5.7,0,0,0-4.7,2c-.87,1.09-1.31,3.23-1.31,6.5v14h-7.22V45h7.22Zm32.57-14.16a4.45,4.45,0,0,1,0,6.29,4.46,4.46,0,0,1-3.22,1.3,4.36,4.36,0,0,1-3.2-1.3,4.27,4.27,0,0,1-1.33-3.19,4.19,4.19,0,0,1,1.33-3.13A4.66,4.66,0,0,1,220.51,31,4.44,4.44,0,0,1,223.67,32.33Zm34.9,40.81h-7.22v-1.8a12.3,12.3,0,0,1-7.56,2.73,14.15,14.15,0,0,1-11-4.93A14.59,14.59,0,0,1,229,59a14.81,14.81,0,0,1,14.65-15h.13a12.24,12.24,0,0,1,7.56,2.73V45h7.22ZM238,53.49A8.76,8.76,0,0,0,236.32,59a8.45,8.45,0,0,0,2.27,6.26,7.24,7.24,0,0,0,5.33,2.19,7,7,0,0,0,5.89-2.88A9.13,9.13,0,0,0,251.45,59a8.57,8.57,0,0,0-2.23-6.2,7.57,7.57,0,0,0-11.22.67ZM216.8,45V74.3c0,1.09-.51,6.07-7.08,6.5v7s13.7-.23,14.28-12.86V45Zm94.44-14.87a1.71,1.71,0,0,0-1.34-.6,1.74,1.74,0,0,0-1.19.46,1.71,1.71,0,0,0-.57,1.31,1.78,1.78,0,0,0,3,1.36,1.71,1.71,0,0,0,.58-1.33A1.66,1.66,0,0,0,311.24,30.13ZM311,32.27a1.41,1.41,0,0,1-2,.11,1.52,1.52,0,0,1-.47-1,1.41,1.41,0,0,1,.37-1,1.29,1.29,0,0,1,1-.46,1.25,1.25,0,0,1,.95.36,1.4,1.4,0,0,1,.11,2h0Z" transform="translate(-52.82 -25.8)"/><path class="cls-1" d="M310.21,31.91A.57.57,0,0,1,310,32a.6.6,0,0,1-.44-.19.62.62,0,0,1-.19-.46.65.65,0,0,1,.18-.46.64.64,0,0,1,.45-.19c.2,0,.31.06.51.29l.3-.29a1.1,1.1,0,0,0-.83-.41,1.06,1.06,0,0,0-1.07,1h0a1.06,1.06,0,0,0,.27.71,1,1,0,0,0,.8.35,1.08,1.08,0,0,0,.78-.34l.06-.07-.3-.29a1.55,1.55,0,0,1-.27.24Z" transform="translate(-52.82 -25.8)"/><path class="cls-2" d="M292.76,48.29,278.68,26.41a1.39,1.39,0,0,0-1.17-.61h-9.37a.47.47,0,0,0-.47.48.48.48,0,0,0,.07.24l14.68,22.79a.47.47,0,0,1,0,.51L267.74,72.55a.48.48,0,0,0,.15.66.52.52,0,0,0,.25.07h9.38a1.38,1.38,0,0,0,1.16-.63l14.08-21.8a2.37,2.37,0,0,0,0-2.56Z" transform="translate(-52.82 -25.8)"/><path class="cls-3" d="M295.65,52.75a.48.48,0,0,0-.66-.14.58.58,0,0,0-.13.14l-3.87,6a3.56,3.56,0,0,0,0,3.84l6.59,10.18a1.18,1.18,0,0,0,1,.53h9.71a.34.34,0,0,0,.35-.35.29.29,0,0,0-.05-.18Z" transform="translate(-52.82 -25.8)"/><path class="cls-1" d="M294.86,46.33a.49.49,0,0,0,.66.13.8.8,0,0,0,.13-.13l12.93-20a.35.35,0,0,0-.1-.49.41.41,0,0,0-.19-.05h-9.72a1.17,1.17,0,0,0-1,.54L291,36.51a3.52,3.52,0,0,0,0,3.84Z" transform="translate(-52.82 -25.8)"/></svg>