<svg id="Toucan" xmlns="http://www.w3.org/2000/svg" viewBox="0 0 273.5 57.89"><defs><style>.cls-1{fill:#231f20;}.cls-2{fill:#fff;}.cls-3{fill:#f3901f;}</style></defs><path class="cls-1" d="M127.12,63.66v-23H116.4V35.81h26.38v4.86H132.06v23Zm31.16,0a13.43,13.43,0,0,1-12.68-8.58,15.1,15.1,0,0,1-1-5.63,14.94,14.94,0,0,1,1-5.6,12.46,12.46,0,0,1,2.88-4.31,12.92,12.92,0,0,1,4.35-2.75,14.74,14.74,0,0,1,5.46-1h6.87a15.34,15.34,0,0,1,5.61,1,12.4,12.4,0,0,1,7.21,7.1,14.82,14.82,0,0,1,1,5.54,15.1,15.1,0,0,1-1,5.63,13.28,13.28,0,0,1-2.88,4.5,13.51,13.51,0,0,1-4.36,3,13.88,13.88,0,0,1-5.55,1.09Zm6.88-4.86a9.12,9.12,0,0,0,3.57-.69,8.38,8.38,0,0,0,4.66-4.79,9.86,9.86,0,0,0,.66-3.64,9.75,9.75,0,0,0-.66-3.62,8.22,8.22,0,0,0-4.66-4.71,9.29,9.29,0,0,0-3.57-.68h-6.88a9,9,0,0,0-3.51.68A8.31,8.31,0,0,0,152,43.2,8.4,8.4,0,0,0,150.16,46a9.62,9.62,0,0,0-.66,3.64,9.86,9.86,0,0,0,.66,3.64A8.6,8.6,0,0,0,152,56.21a8.34,8.34,0,0,0,2.78,1.9,8.79,8.79,0,0,0,3.51.69Zm43.08-23h4.82V51.37A16.46,16.46,0,0,1,212.2,57a9.09,9.09,0,0,1-2.67,4,11.73,11.73,0,0,1-4.73,2.34,32.07,32.07,0,0,1-14,0,11.69,11.69,0,0,1-4.72-2.34,9.11,9.11,0,0,1-2.68-4,16.46,16.46,0,0,1-.86-5.61V35.81h5.09V51.37a11.06,11.06,0,0,0,.52,3.6,5.47,5.47,0,0,0,1.71,2.45,7.81,7.81,0,0,0,3.17,1.4,28.08,28.08,0,0,0,9.79,0,7.68,7.68,0,0,0,3.17-1.4,5.42,5.42,0,0,0,1.7-2.45,11,11,0,0,0,.52-3.6Zm22.19,27.85A13.45,13.45,0,0,1,225,62.57a13.31,13.31,0,0,1-7.22-7.49,15.1,15.1,0,0,1-1-5.63,14.56,14.56,0,0,1,1-5.6,12.58,12.58,0,0,1,2.87-4.31A13.06,13.06,0,0,1,225,36.79a14.69,14.69,0,0,1,5.45-1h15.31v4.87H230.43a8.81,8.81,0,0,0-3.51.67,8.19,8.19,0,0,0-2.78,1.86A8.41,8.41,0,0,0,222.31,46a9.86,9.86,0,0,0-.66,3.64,10.07,10.07,0,0,0,.66,3.64,8.63,8.63,0,0,0,1.82,2.89,8.55,8.55,0,0,0,2.78,1.9,8.84,8.84,0,0,0,3.52.69h15.31v4.87Zm48.75,0-4.23-7H261.59l2.33-3.95h8.67l-6.3-10.42L253.48,63.66h-5.64L264.09,37a3.85,3.85,0,0,1,1-1.15,2.27,2.27,0,0,1,1.4-.42,2.21,2.21,0,0,1,1.38.42,3.78,3.78,0,0,1,1,1.15l16.28,26.66Zm13.57-20.38V63.66h-4.7V38.38a3.18,3.18,0,0,1,.68-2.13,2.34,2.34,0,0,1,1.85-.78,2.55,2.55,0,0,1,1.05.23,3.91,3.91,0,0,1,1.05.76L312.61,56V35.58h4.69V61.09a3.1,3.1,0,0,1-.68,2.14,2.24,2.24,0,0,1-1.77.77,3.18,3.18,0,0,1-2.25-1ZM62.92,23.84a28.81,28.81,0,0,0,0,54.26V23.84Z" transform="translate(-43.8 -22.03)"/><ellipse class="cls-2" cx="64.63" cy="40.64" rx="11.91" ry="12.07" transform="translate(-30.68 74.95) rotate(-79.72)"/><path class="cls-1" d="M61.81,27.52h3.67V54.11H61.81Z" transform="translate(-43.8 -22.03)"/><path class="cls-1" d="M85.41,72.45a1.09,1.09,0,1,1,0-2.18H95a29,29,0,0,0,2.89-3.73H81.73a1.09,1.09,0,1,1,0-2.18H99.17a28.91,28.91,0,0,0,1.65-3.74H78.06a1.09,1.09,0,1,1,0-2.17h23.45a28.58,28.58,0,0,0,1-7.46H68.25V75.07a4.86,4.86,0,0,0,4.85,4.85h.05a29.44,29.44,0,0,0,19.66-7.46Z" transform="translate(-43.8 -22.03)"/><path class="cls-3" d="M101.88,48.91c-2.6-3.17-6.78-3.7-8.65-3.78H68.84V22.93a28.72,28.72,0,0,1,32.24,21.3l.13.51A28.07,28.07,0,0,1,101.88,48.91Z" transform="translate(-43.8 -22.03)"/><path class="cls-1" d="M73.15,23.18a28,28,0,0,1,27.36,21.19l.1.38v0c.22.94.38,1.78.49,2.53a13.28,13.28,0,0,0-7.86-2.75H69.42V23.43a31,31,0,0,1,3.73-.25m0-1.15a29.82,29.82,0,0,0-4.9.41V45.71h25c2.09.08,7.14.76,9.3,5.26a21.64,21.64,0,0,0-.75-6.45l0-.17-.06-.26A29.26,29.26,0,0,0,73.15,22Z" transform="translate(-43.8 -22.03)"/><circle class="cls-1" cx="14.76" cy="13.16" r="2"/><path class="cls-1" d="M101.8,49.09a.57.57,0,0,1-.58-.55A15.17,15.17,0,0,0,86,34.2H69.05a.58.58,0,0,1-.59-.58.57.57,0,0,1,.59-.57H86a16.33,16.33,0,0,1,16.43,15.44.57.57,0,0,1-.55.6Z" transform="translate(-43.8 -22.03)"/></svg>