<svg id="Touch_n_Go" data-name="Touch n Go" xmlns="http://www.w3.org/2000/svg" viewBox="0 0 96.11 62.26"><path id="path2094" d="M131.39,86.15A4.35,4.35,0,0,1,129.76,85a3.15,3.15,0,0,1-.85-1.17,7.44,7.44,0,0,1-.4-1c-.1-.4-.11-1.42-.11-27.61s0-27.21.11-27.6a5.11,5.11,0,0,1,1.1-2,4.63,4.63,0,0,1,2.07-1.36l.46-.16h44.17c43.95,0,44.18,0,44.65.1a4.78,4.78,0,0,1,3.42,3.27l.14.43V82.62l-.14.44a4.81,4.81,0,0,1-2.8,3.09l-.43.18H131.79l-.4-.17ZM155,71.28c.05,0,.33-1.5.89-4.66.44-2.53.82-4.66.83-4.73l0-.13h6.47v.13c0,.07-.27,1.63-.59,3.46a29.83,29.83,0,0,0-.6,3.91,1.66,1.66,0,0,0,.58,1.48c.5.46.59.47,2.63.47H167l0-.13c.13-.54,2-11.46,2-11.65a3.49,3.49,0,0,0-1.46-2.57c-.63-.41-.67-.41-4-.41a15.13,15.13,0,0,0-3.44.12,4.94,4.94,0,0,0-2.5,1.56c-.16.21-.31.35-.32.32s.07-.52.18-1.1.19-1.07.18-1.09-1.38,0-3,0h-3l0,.16c0,.08-.61,3.41-1.32,7.39L149,71.11a.14.14,0,0,0,.07.16c.13.07,5.79.08,5.91,0Zm-6.5-11.86c1.18-1.67,2.16-3.08,2.17-3.12s-.25-.08-1.67-.08h-1.7s-.24,1.35-.53,3c-.52,3-.56,3.24-.48,3.24S147.29,61.09,148.48,59.42Z" transform="translate(-128.4 -24.07)" style="fill:#f5e817"/><path id="path2092" d="M131.39,86.15A4.35,4.35,0,0,1,129.76,85a3.15,3.15,0,0,1-.85-1.17,7.44,7.44,0,0,1-.4-1c-.1-.4-.11-1.42-.11-27.61s0-27.21.11-27.6a5.11,5.11,0,0,1,1.1-2,4.63,4.63,0,0,1,2.07-1.36l.46-.16h44.17c43.95,0,44.18,0,44.65.1a4.78,4.78,0,0,1,3.42,3.27l.14.43V82.62l-.14.44a4.81,4.81,0,0,1-2.8,3.09l-.43.18H131.79l-.4-.17Zm54.53-10a5.4,5.4,0,0,0,2.39-1.45,4.78,4.78,0,0,0,1.24-2.15c.16-.66,1.34-7.49,1.3-7.59s-.33-.09-2.92-.09A19.6,19.6,0,0,0,185,65s-.28,1.35-.55,2.9a24.57,24.57,0,0,1-.58,2.87s-2,0-4.43,0a35.6,35.6,0,0,1-4.42-.07s.18-1.39.72-4.46c.42-2.41.79-4.41.81-4.45s2.13-.06,7.28-.06h7.23l0-.13c.05-.12.94-5.19.94-5.35s-2.13-.06-8.41-.06c-9.13,0-8.77,0-9.62.32a5.2,5.2,0,0,0-3.09,3.33c0,.12-.55,3-1.15,6.36-1.23,6.93-1.23,6.92-.93,7.8a3.3,3.3,0,0,0,2.63,2.26c.16,0,3.38,0,7.15,0,6.84,0,6.85,0,7.3-.14Zm24.14,0a5.48,5.48,0,0,0,3.26-2.73,4.67,4.67,0,0,0,.27-.64c.06-.16.59-3.06,1.19-6.45,1.21-6.85,1.23-7,1-7.79a3.28,3.28,0,0,0-2.39-2.25c-.43-.11-.67-.11-7.24-.11-7.45,0-7.19,0-8.07.35a6.3,6.3,0,0,0-.78.39,6.55,6.55,0,0,0-1.53,1.45,5.59,5.59,0,0,0-.72,1.45c-.07.28-2.13,11.94-2.23,12.61a3.6,3.6,0,0,0,.51,2.35,3.51,3.51,0,0,0,2.39,1.49c.09,0,3.27,0,7.06,0h6.88Zm-10.94-5.46s.19-1.49.71-4.42c.42-2.4.79-4.4.81-4.45s.4-.1,4.48-.09l4.46,0,0,.22c-.05.58-1.53,8.7-1.6,8.74s-2,0-4.43,0a35.18,35.18,0,0,1-4.41-.07ZM155,71.28c.05,0,.33-1.5.89-4.66.44-2.53.82-4.66.83-4.73l0-.13h6.47v.13c0,.07-.27,1.63-.59,3.46a29.83,29.83,0,0,0-.6,3.91,1.66,1.66,0,0,0,.58,1.48c.5.46.59.47,2.63.47H167l0-.13c.13-.54,2-11.46,2-11.65a3.49,3.49,0,0,0-1.46-2.57c-.63-.41-.67-.41-4-.41a15.13,15.13,0,0,0-3.44.12,4.94,4.94,0,0,0-2.5,1.56c-.16.21-.31.35-.32.32s.07-.52.18-1.1.19-1.07.18-1.09-1.38,0-3,0h-3l0,.16c0,.08-.61,3.41-1.32,7.39L149,71.11a.14.14,0,0,0,.07.16c.13.07,5.79.08,5.91,0Zm-6.5-11.86c1.18-1.67,2.16-3.08,2.17-3.12s-.25-.08-1.67-.08h-1.7s-.24,1.35-.53,3c-.52,3-.56,3.24-.48,3.24S147.29,61.09,148.48,59.42Zm33.75-5.68s2.63-14.84,2.63-15a38.91,38.91,0,0,0-5.29,0c0,.05-.42,2.29-.89,5-.56,3.15-.89,4.9-.94,4.93s-6.42.07-6.52,0a35.26,35.26,0,0,1,.77-4.87c.47-2.66.85-4.89.85-5v-.14h-2.62c-2.45,0-2.63,0-2.66.1l-1.09,6.11c-.93,5.32-1.05,6.06-1,6.43a2.41,2.41,0,0,0,1.71,2.18c.36.11.54.12,3.45.12,3.35,0,3.49,0,4.26-.34A6.13,6.13,0,0,0,176.73,52l.59-.58.3.61c.52,1.08.9,1.44,1.64,1.6A12.62,12.62,0,0,0,182.23,53.74Zm-38.54-.22c0-.08.65-3.64,1.4-7.92s1.39-7.85,1.4-7.93l0-.13H150a25.5,25.5,0,0,0,3.55-.07c.05-.07.89-4.61.89-4.85,0-.09-.6-.1-10.12-.1-6,0-10.14,0-10.16.06s-.86,4.79-.83,4.87.45.09,3.51.09h3.48v.13c0,.08-.62,3.64-1.38,7.92s-1.37,7.84-1.37,7.92v.14h6.07Zm17.18,0a3.94,3.94,0,0,0,2.72-2.6c0-.17.45-2.34.88-4.81.73-4.14.79-4.54.77-5.08a2,2,0,0,0-.62-1.56,2.49,2.49,0,0,0-1.21-.71c-.51-.14-10.83-.13-11.4,0a4,4,0,0,0-2.67,2.34c-.17.49-1.72,9.16-1.75,9.86a2.47,2.47,0,0,0,.31,1.46,2.82,2.82,0,0,0,1.52,1.13c.12,0,2.67,0,5.65,0a55.35,55.35,0,0,0,5.8-.08Zm-7.52-4.87c-.07,0,0-.44.35-2.52l.44-2.47,2.68,0c1.47,0,2.7,0,2.72,0s-.15,1.14-.39,2.47a13.2,13.2,0,0,1-.53,2.49,51.43,51.43,0,0,1-5.27,0Zm43.59,4.94c.52-2.84.85-4.81.82-4.84s-1.69,0-3.71,0-3.71,0-3.75-.05,0-.46.34-2.43l.44-2.49c0-.09.27-.1,3.94-.1h3.91l0-.13c.08-.18.87-4.73.84-4.79s-2.38,0-5.26,0c-5.86,0-5.61,0-6.45.42a4.14,4.14,0,0,0-1.9,2.21c-.12.39-1.7,9.49-1.7,9.81a2.46,2.46,0,0,0,1.8,2.41c.21.06,1.46.08,5.45.08,2.85,0,5.18,0,5.18,0Zm8.66-.08c0-.06.39-2.15.82-4.66s.82-4.61.85-4.68l.06-.13h2.94a18.21,18.21,0,0,1,3,.07,15.43,15.43,0,0,1-.34,2.29c-.78,4.42-.88,5.05-.84,5.4a1.82,1.82,0,0,0,1,1.56l.34.16,1.59,0,1.58,0,0-.14c0-.07.5-2.76,1.06-6,1-5.42,1-5.87,1-6.38a1.82,1.82,0,0,0-.24-1,2.38,2.38,0,0,0-1.75-1.31c-.56-.1-5.68-.08-6.18,0a4.06,4.06,0,0,0-2.22,1.44l-.33.45c0,.06-.06.08-.08.07s.27-1.75.64-3.85.65-3.83.63-3.86-5.49-.07-5.53,0S200,53.36,200,53.52v.13h2.77c2.59,0,2.77,0,2.8-.1Z" transform="translate(-128.4 -24.07)" style="fill:#282c69"/></svg>