<svg id="Troy" xmlns="http://www.w3.org/2000/svg" viewBox="0 0 138.75 63.89"><defs><style>.cls-1{fill:#252f38;}.cls-1,.cls-2{fill-rule:evenodd;}.cls-2{fill:#009fae;}</style></defs><path class="cls-1" d="M235.45,31.76a5.42,5.42,0,0,0-4.92,3l-9,20.73-3.26-20.73a3.52,3.52,0,0,0-3.79-3H203l9.8,34.42a5.06,5.06,0,0,1,.08,2.17,6.49,6.49,0,0,1-6.13,5.2h-6.42c-1.63,0-2.7,1-3.22,3.29l-1.43,8.53H207c5.89,0,12.82-3,17.43-11.14L247,31.76Z" transform="translate(-108.28 -21.48)"/><path class="cls-1" d="M124.23,21.48c3.39,0,5,1.35,4.43,4.74l-1,5.53h7.78l-1.72,9.71H126l-2.12,12c-.73,4.18,3.41,4.74,5.79,4.74.47,0,.87,0,1.15,0L128.89,69a20,20,0,0,1-2.48.14c-5.9,0-17.06-1.58-14.87-14L114,41.46h-5.67L110,31.75h5.61l1.8-10.27Z" transform="translate(-108.28 -21.48)"/><path class="cls-2" d="M189.56,32.19l-2,11.32A7.59,7.59,0,0,1,185,57.81l-2,11.32c.35,0,.71,0,1.07,0a18.89,18.89,0,0,0,5.45-37" transform="translate(-108.28 -21.48)"/><path class="cls-2" d="M180.67,57a7.58,7.58,0,0,1,2.52-14.29l2-11.32c-.36,0-.72,0-1.08,0a18.89,18.89,0,0,0-5.44,37Z" transform="translate(-108.28 -21.48)"/><path class="cls-1" d="M140,31.76h6.68c3.38,0,5,1.35,4.41,4.74l-.73,4.11c2.49-5,7.89-9.22,13.42-9.22a8.3,8.3,0,0,1,1.43.14L163,43.77a12.34,12.34,0,0,0-2.48-.22A11.48,11.48,0,0,0,149.81,50a19,19,0,0,0-1.52,5l-2.42,13.75H133.43Z" transform="translate(-108.28 -21.48)"/><path class="cls-1" d="M244,69.65a.75.75,0,0,0-.23-.55.82.82,0,0,0-.6-.22h-.81v1.54h.81a.87.87,0,0,0,.6-.22.72.72,0,0,0,.23-.55m.73,3.07H244l-1-1.79h-.66v1.79h-.61V68.34h1.49a1.4,1.4,0,0,1,1,.38,1.25,1.25,0,0,1,.4.93,1.17,1.17,0,0,1-.94,1.2Zm1.69-2.19a3.27,3.27,0,0,1-1,2.41,3.32,3.32,0,0,1-4.75,0,3.44,3.44,0,0,1,0-4.81,3.32,3.32,0,0,1,4.75,0,3.27,3.27,0,0,1,1,2.4m.63,0a4,4,0,1,1-4-4,3.81,3.81,0,0,1,2.82,1.17A3.85,3.85,0,0,1,247,70.53" transform="translate(-108.28 -21.48)"/></svg>