<svg id="TrueMoney_Wallet" data-name="TrueMoney Wallet" xmlns="http://www.w3.org/2000/svg" viewBox="0 0 266.38 53.09"><path d="M298.1,41.15c-.49-4.35-3.07-8.87-8.66-8.87,0,0-7.53,0-8.13,10.2,0,.2,0,.41,0,.61,0,.53.08,1.06.16,1.58a13.16,13.16,0,0,0,.5,2.15,10.91,10.91,0,0,0,1,2.34,8.58,8.58,0,0,0,1.77,2.12,8.13,8.13,0,0,0,2.71,1.51,9,9,0,0,0,1.92.43,8.18,8.18,0,0,0,2.65-.25,9,9,0,0,0,3.74-2A7,7,0,0,0,297,49.67a2.59,2.59,0,0,0,.3-2.1,1.86,1.86,0,0,0-1.49-1.35c-.86-.07-1.35.59-1.88,1.14A5.18,5.18,0,0,1,290,49a4.06,4.06,0,0,1-3.59-2,6.26,6.26,0,0,1-.88-2.83h9.62c.29,0,.58,0,.87,0a2.78,2.78,0,0,0,.86-.07,1.74,1.74,0,0,0,.92-.68A3.48,3.48,0,0,0,298.1,41.15Zm-12.47-.55s.56-4.11,4.2-4.11S294,40.6,294,40.6Z" transform="translate(-46.96 -27.89)" style="fill:#f77b11"/><path d="M298.06,36.46c.06.19.13.38.2.56a2.83,2.83,0,0,0,.29.78l.3.83.6,1.64c.39,1.07.78,2.13,1.18,3.2s.91,2.4,1.37,3.59c.23.61.47,1.22.71,1.83l.35.89.18.45c0,.07.2.38.17.45a16.76,16.76,0,0,1-1.22,2.57,10.64,10.64,0,0,1-2.37,2.64c-.2.17-.87.68-1.08.81a5.39,5.39,0,0,0-1.31.91,2.23,2.23,0,0,0-.56,1.48,2.31,2.31,0,0,0,.35,1.28,2.16,2.16,0,0,0,.81.75,1.5,1.5,0,0,0,1.14,0,4.65,4.65,0,0,0,1-.49,16.73,16.73,0,0,0,3.65-3c.1-.12.21-.24.3-.36a4.46,4.46,0,0,0,.33-.43,22.21,22.21,0,0,0,2.71-4.8c1-2.6,2.23-6,2.23-6,.86-2.27,1.7-4.54,2.57-6.8.3-.81.61-1.62.92-2.42a4.16,4.16,0,0,0,.39-2.66c-.36-1.18-2-2-2.94-1a4.35,4.35,0,0,0-.73,1.38l-2.49,6.64c-.35,1-.7,1.9-1.06,2.85-.07.19-.53,1-.45,1.21-.44-1.14-.87-2.28-1.3-3.42-.8-2.1-1.61-4.21-2.4-6.32-.19-.51-.39-1-.59-1.53a2.1,2.1,0,0,0-.93-1.08,1.74,1.74,0,0,0-2,.31,2.38,2.38,0,0,0-.59,1.84A5.27,5.27,0,0,0,298.06,36.46Z" transform="translate(-46.96 -27.89)" style="fill:#f77b11"/><path d="M218.8,34.62a7,7,0,0,0,0,.79c0,.77,0,1.53,0,2.3V49.37a13.15,13.15,0,0,0,0,1.54,2.78,2.78,0,0,0,.62,1.51,1.85,1.85,0,0,0,1.24.61h.19a1.84,1.84,0,0,0,1.53-.81,3.31,3.31,0,0,0,.53-1.45,11.37,11.37,0,0,0,0-1.65V41a7.54,7.54,0,0,1,.11-1.64,3.88,3.88,0,0,1,1.05-2,3,3,0,0,1,1.89-.72h.18a2.89,2.89,0,0,1,1.91.66,3.51,3.51,0,0,1,1,1.52,7.57,7.57,0,0,1,.28,2.51v9.37s.18,2.27,2,2.27,2-2.09,2-2.09v-10s.05-4.22,3.53-4.22c3.24,0,2.94,4.13,2.94,4.13V51s.27,2,2.05,2,2-2,2-2V39.92s-.23-7.64-6.07-7.64a6.32,6.32,0,0,0-5.74,3.39l0-.07c0-.06-.07-.12-.1-.19s-.1-.18-.16-.27-.15-.24-.23-.35l-.29-.39A5,5,0,0,0,231,34c-.14-.14-.28-.28-.44-.42a4.91,4.91,0,0,0-.51-.39,5.2,5.2,0,0,0-.6-.35,5.29,5.29,0,0,0-2-.52l-.53,0a3.67,3.67,0,0,0-1.27.24,3.93,3.93,0,0,0-.68.34,5.27,5.27,0,0,0-.62.43,7.28,7.28,0,0,0-1.28,1.38l-.08.11s-.24-2.36-2.06-2.36a2,2,0,0,0-1.71,1,3.25,3.25,0,0,0-.32.74A2,2,0,0,0,218.8,34.62Z" transform="translate(-46.96 -27.89)" style="fill:#f77b11"/><path d="M254,32.25c-4.78,0-8.65,4.69-8.65,10.48s3.87,10.48,8.65,10.48,8.65-4.69,8.65-10.48S258.77,32.25,254,32.25Zm0,16.58c-2.55,0-4.62-2.72-4.62-6.09s2.07-6.09,4.62-6.09,4.62,2.73,4.62,6.09S256.55,48.83,254,48.83Z" transform="translate(-46.96 -27.89)" style="fill:#f77b11"/><path d="M268.11,34.83a2.46,2.46,0,0,0-.31-1.22A2.06,2.06,0,0,0,266,32.46a1.77,1.77,0,0,0-1.45.79,3.28,3.28,0,0,0-.34.64,2.63,2.63,0,0,0-.17,1V50.05a4.94,4.94,0,0,0,.08,1.33,2.17,2.17,0,0,0,2,1.67c1.75,0,2-2,2-2V41.62a5.5,5.5,0,0,1,.21-1.51c.36-1.31,1.26-3.45,3.79-3.45a3.3,3.3,0,0,1,2.26.84,4.44,4.44,0,0,1,1.11,1.74,10.65,10.65,0,0,1,.39,3.81v6.47a5.56,5.56,0,0,0,.12,1.95,2.21,2.21,0,0,0,2,1.58,1.79,1.79,0,0,0,1.59-1,3.68,3.68,0,0,0,.38-1.94c0-1.42,0-2.84,0-4.27V41.82a13.85,13.85,0,0,0-.7-4.65,8.93,8.93,0,0,0-1.63-2.94,5.52,5.52,0,0,0-3.11-1.84,5.89,5.89,0,0,0-1.18-.11,6.33,6.33,0,0,0-5.14,2.56S268.11,34.85,268.11,34.83Z" transform="translate(-46.96 -27.89)" style="fill:#f77b11"/><path d="M233.16,79.65a3.62,3.62,0,0,1,0-.57V59a1.4,1.4,0,0,1,.39-1,1.37,1.37,0,0,1,.94-.38h.07a1.37,1.37,0,0,1,1,.36,1.56,1.56,0,0,1,.45,1.12V78.77a3.77,3.77,0,0,1,0,1,1.36,1.36,0,0,1-1.36,1.07,1.44,1.44,0,0,1-1.38-1A.5.5,0,0,1,233.16,79.65Z" transform="translate(-46.96 -27.89)" style="fill:#808184"/><path d="M239.3,79.65a5.42,5.42,0,0,1,0-.57V59a1.39,1.39,0,0,1,.38-1,1.37,1.37,0,0,1,.94-.38h.07a1.38,1.38,0,0,1,1,.36,1.56,1.56,0,0,1,.45,1.12V78.77a4.3,4.3,0,0,1,0,1,1.37,1.37,0,0,1-1.37,1.07,1.42,1.42,0,0,1-1.37-1Z" transform="translate(-46.96 -27.89)" style="fill:#808184"/><path d="M210.58,75.86c0-.14-.06-.28-.1-.42s-.13-.55-.2-.83l-.39-1.67c-.29-1.28-.6-2.57-.9-3.86s-.55-2.57-.9-3.84c0-.08-.05-.15-.07-.23a1.8,1.8,0,0,0-.49-.87,2,2,0,0,0-1.53-.32,1.67,1.67,0,0,0-1,.44,2.29,2.29,0,0,0-.44,1q-1.2,5.47-2.42,11l-2.61-10.5a2.67,2.67,0,0,0-1.05-1.83,1.37,1.37,0,0,0-1.72.47,3,3,0,0,0,0,2.49q1.76,6.19,3.53,12.37a2.37,2.37,0,0,0,.66,1.25,2,2,0,0,0,1.11.32,1.76,1.76,0,0,0,1.31-.35,2,2,0,0,0,.51-1.12l2.37-10.43a0,0,0,0,1,.06,0c.78,3.06,1.49,6.14,2.22,9.21l.3,1.28a2.23,2.23,0,0,0,.39,1,1.72,1.72,0,0,0,1.27.47,2,2,0,0,0,1.07-.22,2.21,2.21,0,0,0,.85-1.42c.37-1.62.86-3.2,1.31-4.8.71-2.52,1.52-5,2.17-7.56.06-.24.12-.48.17-.71a4.63,4.63,0,0,0,.14-.8,1.46,1.46,0,0,0-.34-1.09,1.36,1.36,0,0,0-1.09-.45c-1.12.08-1.38,1.36-1.57,2.23-.77,3.42-1.64,6.89-2.49,10.24" transform="translate(-46.96 -27.89)" style="fill:#808184"/><path d="M230.78,78.2c-.25-.12-.57-.08-.76-.29a1.13,1.13,0,0,1-.17-.77q0-3.69.05-7.36a12,12,0,0,0-.21-2.81,4,4,0,0,0-1.43-2.37,5.14,5.14,0,0,0-2.08-.77,9.1,9.1,0,0,0-4.52.19,5.46,5.46,0,0,0-2.75,2,3.71,3.71,0,0,0-.75,2.3,1.64,1.64,0,0,0,.32.84,1.42,1.42,0,0,0,2,.28c.5-.46.5-1.25.83-1.84a2.86,2.86,0,0,1,2.43-1.22,3.58,3.58,0,0,1,2.62.76,2,2,0,0,1,.42,2.52,2.75,2.75,0,0,1-1.6.91c-1.23.32-2.51.43-3.74.76a5.54,5.54,0,0,0-3.2,2,5.15,5.15,0,0,0-.74,3.51,4.94,4.94,0,0,0,.92,2.57,4.58,4.58,0,0,0,3,1.56,6.69,6.69,0,0,0,5.78-2.17,2.44,2.44,0,0,0,.83,1.71,2.41,2.41,0,0,0,1.83.52,1.77,1.77,0,0,0,1.5-1.09A1.4,1.4,0,0,0,230.78,78.2ZM227,75.07a3.54,3.54,0,0,1-2,2.63,5,5,0,0,1-3.22.31,1.9,1.9,0,0,1-1.47-2.08,2.42,2.42,0,0,1,1.17-2,6.36,6.36,0,0,1,2.2-.74,14.59,14.59,0,0,0,3-.67l.31-.13v1.38A11.1,11.1,0,0,1,227,75.07Z" transform="translate(-46.96 -27.89)" style="fill:#808184"/><path d="M260.91,64V60.39a1.41,1.41,0,0,1,0-.46,1.31,1.31,0,0,1,.83-.86,1.64,1.64,0,0,1,.54-.08,1.26,1.26,0,0,1,.93.35,2.05,2.05,0,0,1,.43,1.57c0,.4,0,.8,0,1.19V64h1.47a1.47,1.47,0,0,1,.55,0,1.37,1.37,0,0,1,.88,1.22.49.49,0,0,1,0,.12,1.41,1.41,0,0,1-.62,1.21l-.21.11a1.07,1.07,0,0,1-.47.09H263.7V76.87A1.24,1.24,0,0,0,265,78.06c1.31,0,2-.09,2,1.34a1.27,1.27,0,0,1-.41,1,1.83,1.83,0,0,1-1.21.37,10.9,10.9,0,0,1-1.51-.06,4,4,0,0,1-1.3-.48,3.23,3.23,0,0,1-1.51-1.74,3.64,3.64,0,0,1-.16-1.09V66.87h-.76a3,3,0,0,1-.74,0,1.46,1.46,0,0,1-.92-.78,1.49,1.49,0,0,1,.52-1.84,1.21,1.21,0,0,1,.67-.19C260.09,64,260.51,64,260.91,64Z" transform="translate(-46.96 -27.89)" style="fill:#808184"/><path d="M258.06,71c-.4-3.6-1.85-7.33-7-7.33-4.26,0-7.4,5.27-6.37,10.75.5,2.64,1.67,5.19,4.69,6.26a8.35,8.35,0,0,0,1.66.28,6.58,6.58,0,0,0,4.56-1.36c.94-.75,2.33-2.57,1.84-3.91a1.28,1.28,0,0,0-1.2-.88c-.69-.06-1.12.69-1.28,1-.4.8-.7,2.33-3.58,2.33A3.89,3.89,0,0,1,248,76a7,7,0,0,1-.65-2.73h9a1.83,1.83,0,0,0,.7,0,1.42,1.42,0,0,0,.74-.56A2.3,2.3,0,0,0,258.06,71Zm-10.67-.45s.4-4.08,4-4.08c3.82,0,3.77,4.08,3.77,4.08Z" transform="translate(-46.96 -27.89)" style="fill:#808184"/><path d="M153.39,27.89l-6,0v4.92l-2.82,0v5.36h2.85s0,7.25,0,7.6a6.65,6.65,0,0,0,2.36,4.6A8.74,8.74,0,0,0,155.55,53l4.49,0V47.85h-3.71c-2.5,0-2.94-3-2.94-3V38.24l4,0c2.17,0,2.59-2.4,2.59-2.4v-3h-6.65Z" transform="translate(-46.96 -27.89)" style="fill:#fa0f0d"/><path d="M169.23,32.86c-.92,0-2.56,0-4.9,2a7.72,7.72,0,0,0-2.72,5.42c0,.68,0,12.66,0,12.66h5.79s0-10.13,0-11.83,2.55-2.9,3.25-2.9h3.4l0-5.38Z" transform="translate(-46.96 -27.89)" style="fill:#fa0f0d"/><path d="M193.73,32.86l-6.07,0s0,11.17,0,12.16a3.18,3.18,0,0,1-3.23,3c-2.28,0-3-2.46-3-3s0-7.57,0-9.59A2.68,2.68,0,0,0,179,32.84l-3.47,0s0,11.4,0,12.42a7.47,7.47,0,0,0,2.07,5.19c1.93,2.18,4.27,2.76,7,2.72a9.45,9.45,0,0,0,6.7-2.3c2.25-1.78,2.46-5.31,2.45-6.35S193.73,32.86,193.73,32.86Z" transform="translate(-46.96 -27.89)" style="fill:#fa0f0d"/><path d="M213.91,39.52a10.05,10.05,0,0,0-2.77-4.68,9.68,9.68,0,0,0-6.51-2.55,10,10,0,0,0-6.42,2.45c-2.53,2.09-3.42,5.63-3.49,8.42a11,11,0,0,0,3.38,7.77,10.49,10.49,0,0,0,12.14.69A10.64,10.64,0,0,0,213.46,48s-4.56-1.15-5.52-1.42a4.21,4.21,0,0,1-3.56,1.67,4.44,4.44,0,0,1-3.45-2.16,3.6,3.6,0,0,1-.33-1.22l13.66,0A18.43,18.43,0,0,0,213.91,39.52Zm-13.39,1.29a4.2,4.2,0,0,1,4.31-3.42,4,4,0,0,1,3.75,3.44Z" transform="translate(-46.96 -27.89)" style="fill:#fa0f0d"/><path d="M134.34,33.14H111a3.59,3.59,0,0,0-3.38,2.4L104,46h0l-.12.35-.08.23c-4,11.57-8.4,24.09-10.06,28.84-.19.59-.41,1.26-.68,2a6,6,0,0,1-.7,1.29,3.17,3.17,0,0,1-.21.27,3,3,0,0,1-.51.5l0,0a2.46,2.46,0,0,1-.81.45h-.07a3.52,3.52,0,0,1-.8.16h28a2,2,0,0,0,.54-.07A3.93,3.93,0,0,0,121.23,77l14.55-41.82A1.53,1.53,0,0,0,134.34,33.14Z" transform="translate(-46.96 -27.89)" style="fill:#f77b11"/><path d="M76,41.85h0v0Z" transform="translate(-46.96 -27.89)" style="fill:none"/><path d="M65.35,72.17l0,0,.06-.15.08-.25.12-.34.15-.42.17-.5.21-.58.22-.64.25-.71.27-.77.29-.83c.11-.29.21-.58.31-.87l.32-.92.34-1c.11-.33.23-.66.35-1l.36-1,.36-1,.38-1.07L70,59c.12-.36.25-.72.38-1.09s.25-.72.38-1.09.26-.73.38-1.09l.39-1.09.37-1.07.37-1.06c.13-.35.25-.69.37-1l.35-1c.12-.32.23-.65.35-1l.33-.94.31-.9c.1-.29.2-.57.31-.86s.18-.53.28-.8.17-.5.26-.75l.24-.69.22-.61.19-.55.16-.47.14-.39c.08-.21.14-.43.24-.63h0l0-.11a2.2,2.2,0,0,1,.91-.95L73.83,30.17a3.22,3.22,0,0,0-3-2.28H48.53a1.58,1.58,0,0,0-1.51,2L59.56,72a3.17,3.17,0,0,0,2.79,2.32h0A3.09,3.09,0,0,0,65.35,72.17Z" transform="translate(-46.96 -27.89)" style="fill:#fa0f10"/><polygon points="30.03 12.89 30.03 12.89 30.02 12.89 30.03 12.89" style="fill:#aa0c17"/><path d="M85.68,74.19l-.15-.53-.08-.27-5.37-18L76.32,42.72a1.8,1.8,0,0,1,.1-1.32,2.46,2.46,0,0,1,.17-.27l0,0a1.78,1.78,0,0,1,.32-.29l0,0h0a2.2,2.2,0,0,0-.91.95l-.06.11v0c-.1.2-.16.42-.24.63l-.14.39-.16.47-.19.55-.22.61-.24.69c-.09.25-.18.5-.26.75s-.19.53-.28.8-.21.57-.31.86l-.31.9-.33.94c-.12.33-.23.66-.35,1l-.35,1c-.12.35-.24.69-.37,1l-.37,1.06-.37,1.07-.39,1.09c-.12.36-.25.73-.38,1.09s-.25.73-.38,1.09-.26.73-.38,1.09l-.38,1.08-.38,1.07-.36,1-.36,1c-.12.33-.24.66-.35,1l-.34,1-.32.92c-.1.29-.2.58-.31.87l-.29.83-.27.77-.25.71-.22.64-.21.58-.17.5-.15.42-.12.34-.08.25-.06.15,0,0a3.09,3.09,0,0,1-3,2.19H85.74Z" transform="translate(-46.96 -27.89)" style="fill:#aa0c17"/><path d="M104,46c-.2-.72-.4-1.45-.59-2.17a6.48,6.48,0,0,0-.67-1.71,3.47,3.47,0,0,0-1.28-1.27,2.11,2.11,0,0,0-.46-.21,3.51,3.51,0,0,0-1-.16H78a1.77,1.77,0,0,0-1,.27h0l0,0a1.78,1.78,0,0,0-.32.29l0,0a2.46,2.46,0,0,0-.17.27,1.8,1.8,0,0,0-.1,1.32l3.76,12.63,5.37,18,.27.91,1,3.55A3.43,3.43,0,0,0,88.83,80a3.08,3.08,0,0,0,1.71,0,1,1,0,0,0,.18,0h.07a2.46,2.46,0,0,0,.81-.45,3.35,3.35,0,0,0,.37-.33l.18-.19a3.17,3.17,0,0,0,.21-.27,6,6,0,0,0,.7-1.29c.27-.69.49-1.36.68-2,.11-.33.2-.63.3-.89l.69-2,.87-2.5,1-2.88c.36-1,.73-2.08,1.09-3.13s.76-2.16,1.13-3.24L100,57.6c.36-1,.72-2.05,1.07-3.08l1-2.79.83-2.37c.21-.61.42-1.22.64-1.83.1-.31.21-.61.32-.92l.08-.23L104,46Z" transform="translate(-46.96 -27.89)" style="fill:#fdcd12"/></svg>