<svg id="UnionPay" xmlns="http://www.w3.org/2000/svg" viewBox="0 0 98.77 63.98"><defs><style>.cls-1{fill:#e11936;}.cls-2{fill:#17457c;}.cls-3{fill:#0f7c84;}.cls-4{fill:#fefefe;}</style></defs><path class="cls-1" d="M144,22.06h24.66c3.44,0,5.58,2.9,4.77,6.48L162,79.57a8.46,8.46,0,0,1-7.7,6.47H129.62c-3.44,0-5.59-2.91-4.78-6.47l11.48-51A8.42,8.42,0,0,1,144,22.06" transform="translate(-124.67 -22.06)"/><path class="cls-2" d="M166.61,22.06H195c3.44,0,1.89,2.9,1.08,6.48l-11.47,51c-.81,3.56-.56,6.47-4,6.47H152.22c-3.45,0-5.59-2.91-4.78-6.47l11.48-51a8.43,8.43,0,0,1,7.69-6.48" transform="translate(-124.67 -22.06)"/><path class="cls-3" d="M193.84,22.06h24.65c3.45,0,5.59,2.9,4.78,6.48l-11.48,51a8.45,8.45,0,0,1-7.7,6.47H179.45c-3.45,0-5.59-2.91-4.78-6.47l11.48-51a8.41,8.41,0,0,1,7.69-6.48" transform="translate(-124.67 -22.06)"/><path class="cls-4" d="M150.45,38.41a24.45,24.45,0,0,1-3.52-.06c-.09.46-1.81,8.63-1.81,8.63-.37,1.66-.64,2.84-1.55,3.6a2.69,2.69,0,0,1-1.82.65,1.7,1.7,0,0,1-1.89-1.67l0-.38.35-2.22s1.79-7.45,2.11-8.44a1,1,0,0,0,0-.11,25.27,25.27,0,0,1-4.16-.06c0,.08-.11.55-.11.55l-1.83,8.39-.16.71-.3,2.33a3.54,3.54,0,0,0,.39,1.73c.83,1.51,3.22,1.74,4.56,1.74a8.6,8.6,0,0,0,4.47-1.08c1.91-1.17,2.41-3,2.86-4.62l.2-.84s1.85-7.73,2.17-8.74A.29.29,0,0,1,150.45,38.41Zm6.29,6.24a4.64,4.64,0,0,0-2,.49c-.26.14-.52.3-.78.46l.24-.89-.13-.15c-1.55.32-1.9.37-3.34.58l-.12.08a43.29,43.29,0,0,1-.93,5.31c-.23,1-.48,2.08-.72,3.12l.07.13c1.46-.08,1.91-.08,3.19-.06l.1-.12c.16-.86.18-1.06.54-2.8.17-.83.52-2.65.7-3.29a2.22,2.22,0,0,1,.93-.31c.72,0,.63.65.6.91,0,.43-.29,1.84-.56,3.06l-.17.78c-.13.58-.26,1.14-.39,1.71l.05.12c1.45-.08,1.89-.08,3.13-.06l.15-.12c.22-1.34.29-1.7.68-3.66l.2-.9c.39-1.76.58-2.65.29-3.38A1.68,1.68,0,0,0,156.74,44.65Zm7,1.84c-.77.16-1.26.26-1.74.33l-1.7.26-.06.05-.06,0c-.07.58-.13,1.07-.23,1.66s-.22,1.29-.44,2.27a10.41,10.41,0,0,1-.35,1.28,9.93,9.93,0,0,0-.39,1.27l0,.06,0,.07c.7,0,1.15-.06,1.62-.07s.95,0,1.7,0l.06-.06.07-.06c.11-.67.13-.85.2-1.17s.17-.84.45-2.13c.13-.61.28-1.21.41-1.83s.29-1.23.43-1.83l0-.08Zm0-2.48a2.73,2.73,0,0,0-2.75.3c-.83.58-.92,1.4-.22,1.83a2.74,2.74,0,0,0,2.74-.3C164.38,45.25,164.48,44.43,163.79,44Zm4.23,9.9a5.15,5.15,0,0,0,4-1.6,7.46,7.46,0,0,0,1.36-3c.43-2,.09-2.89-.33-3.45a3.57,3.57,0,0,0-3-1.13A5.33,5.33,0,0,0,166.31,46a6.5,6.5,0,0,0-1.66,3.34c-.26,1.21-.57,3.38,1.36,4.19A5.41,5.41,0,0,0,168,53.91Zm-.11-4.44c.33-1.5.71-2.75,1.69-2.75.77,0,.83.93.49,2.43a6.59,6.59,0,0,1-.73,2.1,1.17,1.17,0,0,1-.92.63c-.11,0-.72,0-.73-1A7.09,7.09,0,0,1,167.91,49.47Zm9,4.25.11-.12c.16-.86.19-1.06.53-2.8.18-.83.54-2.65.71-3.29a2.22,2.22,0,0,1,.94-.31c.71,0,.62.65.59.91a29.9,29.9,0,0,1-.56,3.06L179,52c-.13.58-.27,1.14-.39,1.71l.05.12c1.46-.08,1.88-.08,3.13-.06l.15-.12c.21-1.34.27-1.7.68-3.66l.2-.9c.39-1.76.58-2.65.29-3.38a1.69,1.69,0,0,0-1.74-1,4.64,4.64,0,0,0-2,.49c-.26.14-.52.3-.78.46l.23-.89-.12-.15c-1.56.32-1.91.37-3.34.58l-.11.08a50.19,50.19,0,0,1-.93,5.31c-.24,1-.48,2.08-.73,3.12l.07.13C175.16,53.7,175.6,53.7,176.87,53.72Zm10.68.06c.09-.47.63-3.2.64-3.2s.46-2,.49-2.08a1,1,0,0,1,.29-.29h.21c2,0,4.3,0,6.09-1.37a6.75,6.75,0,0,0,2.41-4,6,6,0,0,0,.17-1.39,3,3,0,0,0-.48-1.77c-.91-1.32-2.73-1.35-4.82-1.36h-1c-2.68,0-3.76,0-4.2,0l-.11.56-1,4.62s-2.3,9.8-2.4,10.26C186.19,53.73,187.15,53.73,187.55,53.78Zm1.78-8.19s1-4.6,1-4.58l0-.24v-.18l.41,0,2.15.19a1.83,1.83,0,0,1,.94,2.31,3.38,3.38,0,0,1-1.68,2.3,5.2,5.2,0,0,1-2.37.38h-.55Zm6.35,4c-.27,1.2-.58,3.37,1.35,4.15a3.62,3.62,0,0,0,1.72.32,2.85,2.85,0,0,0,1.64-.78c0,.18-.09.36-.14.54l.09.12c1.38-.06,1.81-.06,3.31,0l.13-.11c.22-1.33.43-2.62,1-5.17.28-1.22.55-2.43.84-3.64l-.05-.14c-1.55.3-2,.36-3.45.58l-.11.1c0,.12,0,.24,0,.36a2.2,2.2,0,0,0-1.09-.93c-.66-.27-2.21.08-3.55,1.34A6.35,6.35,0,0,0,195.68,49.55Zm3.25.08c.33-1.47.71-2.71,1.7-2.71.62,0,1,.59.88,1.61,0,.25-.11.52-.17.82s-.21.87-.31,1.3a3,3,0,0,1-.37.76,1.64,1.64,0,0,1-1.2.61c-.1,0-.71,0-.73-.93A7.19,7.19,0,0,1,198.93,49.63Zm17-4.85-.12-.14c-1.53.32-1.81.37-3.22.57l-.1.1a.19.19,0,0,1,0,.07v0c-1.05,2.5-1,2-1.87,3.93a1.93,1.93,0,0,0,0-.24l-.21-4.27-.14-.14c-1.6.32-1.64.37-3.12.57l-.11.1a1,1,0,0,0,0,.17v0a22.21,22.21,0,0,1,.33,2.31c.08.76.2,1.52.29,2.27.14,1.26.22,1.87.4,3.79-1,1.71-1.23,2.35-2.2,3.85v0l-.68,1.11a.6.6,0,0,1-.25.23,1,1,0,0,1-.44.06h-.37l-.56,1.93,1.91,0a2.33,2.33,0,0,0,2.21-1.28l1.21-2.14h0l.13-.15C209.74,55.73,215.9,44.78,215.9,44.78ZM195.68,70h-.81l3-10.3h1l.31-1.06,0,1.18c0,.73.52,1.38,2,1.27h1.68l.58-2h-.63c-.37,0-.54-.1-.52-.3l0-1.2h-3.11a44,44,0,0,0-4.63.26,5.33,5.33,0,0,0-1.51.78l.3-1.06h-2.92l-.6,2.1-3.05,10.46h-.59l-.58,2h5.81l-.2.66h2.86l.19-.66h.81Zm-2.38-8.2a12.26,12.26,0,0,0-1.33.54l.77-2.64h2.32l-.56,1.92A7.77,7.77,0,0,0,193.3,61.83Zm0,3.76s-.73.09-1.21.2a12,12,0,0,0-1.36.62l.8-2.74h2.33Zm-1.3,4.47h-2.33l.68-2.31h2.32Zm5.59-6.39H201l-.48,1.61h-3.39l-.51,1.77h3l-2.25,3.28a.94.94,0,0,1-.46.39,1.29,1.29,0,0,1-.6.18h-.82l-.57,1.93H197a2.58,2.58,0,0,0,2.27-1.22l1.54-2.18.33,2.22a1,1,0,0,0,.55.75,1.89,1.89,0,0,0,.76.33l.74,0h1.06l.64-2.16h-.42a1.64,1.64,0,0,1-.72-.12,1,1,0,0,1-.11-.46l-.34-2.23H202l.6-.74H206l.52-1.77h-3.14l.49-1.61H207l.58-2h-9.33Zm-28.28,6.84.78-2.7h3.21l.59-2h-3.22l.49-1.66h3.14l.59-1.94h-7.87l-.57,1.94h1.79l-.48,1.66H166l-.59,2h1.78l-1,3.56a.88.88,0,0,0,.2.87.84.84,0,0,0,.57.44,3.58,3.58,0,0,0,.83.11h3.62l.65-2.22-1.61.23C170.12,70.84,169.26,70.8,169.36,70.51Zm.36-12.9-.81,1.53a1.68,1.68,0,0,1-.47.63,1.52,1.52,0,0,1-.73.12h-.43l-.56,2h1.41a3.1,3.1,0,0,0,1.45-.39c.26-.15.33-.06.54-.27l.48-.43H175l.59-2h-3.23l.57-1.11Zm6.51,12.94c-.08-.12,0-.31.09-.72l1.21-4.13h4.28c.62,0,1.08,0,1.37,0a2.66,2.66,0,0,0,1-.36,2.07,2.07,0,0,0,.75-.71,6.68,6.68,0,0,0,.74-1.74l1.51-5.22-4.44,0a14,14,0,0,0-2,.44,8.29,8.29,0,0,0-1.47,1l.4-1.43H177l-3.84,13.2a8.07,8.07,0,0,0-.25,1.11c0,.24.29.48.49.66a1.69,1.69,0,0,0,.89.18c.35,0,.83,0,1.51,0h2.11l.65-2.26-1.89.18A.51.51,0,0,1,176.23,70.55Zm2.07-7.64h4.5l-.28.93a2.64,2.64,0,0,0-.6,0H178Zm.9-3.11h4.54l-.32,1.12s-2.14,0-2.49,0a5,5,0,0,0-2.38,1.1ZM182.62,67a.56.56,0,0,1-.18.29.88.88,0,0,1-.46.08h-.64l0-1.13h-2.67l-.11,5.53c0,.39,0,.63.32.81a5.17,5.17,0,0,0,2.31.26h1.68l.6-2.07-1.46.08-.48,0a.46.46,0,0,1-.2-.13c-.06-.06-.16,0-.15-.42V68.86l1.53-.06a2,2,0,0,0,1.48-.54,1.81,1.81,0,0,0,.49-.94l.25-1.26h-2.1Z" transform="translate(-124.67 -22.06)"/></svg>