<svg id="UPI" xmlns="http://www.w3.org/2000/svg" viewBox="0 0 187.71 66.33"><defs><style>.cls-1{fill:#3d3d3c;}.cls-2{fill:#70706e;}.cls-3{fill:#138041;}.cls-4{fill:#e87625;}</style></defs><path class="cls-1" d="M80.51,78.35h1.4L80.6,83.81a2.32,2.32,0,0,0,.11,1.83,1.66,1.66,0,0,0,1.49.6,2.67,2.67,0,0,0,1.79-.6,3.42,3.42,0,0,0,1-1.83l1.31-5.46h1.43L86.37,84a4.79,4.79,0,0,1-1.56,2.72,4.49,4.49,0,0,1-2.92.91,2.93,2.93,0,0,1-2.48-.89A3.27,3.27,0,0,1,79.17,84Z" transform="translate(-79 -21.39)"/><path class="cls-1" d="M87.51,87.34,89.74,78,94,83.48c.11.15.22.31.33.49l.36.6,1.49-6.22h1.32l-2.23,9.32-4.33-5.6-.33-.47a2.4,2.4,0,0,1-.27-.53l-1.49,6.24H87.51Z" transform="translate(-79 -21.39)"/><path class="cls-1" d="M97.37,87.34l2.14-9h1.43l-2.14,9Z" transform="translate(-79 -21.39)"/><path class="cls-1" d="M100.83,87.34l2.14-9h4.88l-.29,1.25H104.1l-.53,2.23H107l-.32,1.27h-3.45l-1,4.21h-1.42Z" transform="translate(-79 -21.39)"/><path class="cls-1" d="M107.29,87.34l2.14-9h1.43l-2.14,9Z" transform="translate(-79 -21.39)"/><path class="cls-1" d="M110.75,87.34l2.14-9h4.89l-.29,1.25H114l-.54,2.25H117l-.31,1.27h-3.46l-.69,2.9H116l-.32,1.32Z" transform="translate(-79 -21.39)"/><path class="cls-1" d="M117.28,87.34l2.15-9h1.91a10.76,10.76,0,0,1,2.59.2,2.6,2.6,0,0,1,1.18.64,2.89,2.89,0,0,1,.78,1.52,5.37,5.37,0,0,1-.11,2.12,7.08,7.08,0,0,1-.89,2.12,5.24,5.24,0,0,1-1.52,1.52,4.22,4.22,0,0,1-1.47.64,9.59,9.59,0,0,1-2.32.2h-2.3ZM119,86h1.21a6.58,6.58,0,0,0,1.52-.14,3,3,0,0,0,1-.44,3.56,3.56,0,0,0,1-1.1,4.68,4.68,0,0,0,.6-1.51,4,4,0,0,0,.11-1.5,2.06,2.06,0,0,0-.49-1.09,1.55,1.55,0,0,0-.78-.45,7.21,7.21,0,0,0-1.58-.13h-1Z" transform="translate(-79 -21.39)"/><path class="cls-1" d="M132.34,83.3l-1,4H130l2.14-9h2.17a6.34,6.34,0,0,1,1.38.11,1.39,1.39,0,0,1,.69.36,1.53,1.53,0,0,1,.45.84,3.07,3.07,0,0,1-.05,1.16,3.83,3.83,0,0,1-.51,1.19,3.22,3.22,0,0,1-.85.84,3,3,0,0,1-.87.36,7.09,7.09,0,0,1-1.43.11h-.82Zm.38-1.21h.35a3.66,3.66,0,0,0,1.66-.26,1.39,1.39,0,0,0,.62-.94,1,1,0,0,0-.18-1,2.48,2.48,0,0,0-1.47-.29h-.36Z" transform="translate(-79 -21.39)"/><path class="cls-1" d="M141.66,87.34,141.22,85h-3.48l-1.56,2.32h-1.5L141.15,78l2,9.35Zm-3.08-3.55H141l-.4-2.05a3.14,3.14,0,0,1,0-.45,5.06,5.06,0,0,1,0-.56,4.92,4.92,0,0,1-.29.56,3.92,3.92,0,0,1-.27.47Z" transform="translate(-79 -21.39)"/><path class="cls-1" d="M145.21,87.34l1-4.11-1.79-4.86h1.5L147,81.43c0,.08.05.17.09.31s.07.27.11.4l.27-.4a3.75,3.75,0,0,1,.27-.36l2.61-3h1.43l-4.17,4.84-1,4.1h-1.42Z" transform="translate(-79 -21.39)"/><path class="cls-1" d="M158.79,82.9a4.92,4.92,0,0,1,.07-.58c0-.27,0-.47.06-.65-.09.2-.17.4-.29.62a3.91,3.91,0,0,1-.4.63l-3.43,4.79-1.12-4.88c0-.2-.09-.4-.11-.58a5.27,5.27,0,0,1,0-.56c-.05.18-.12.38-.18.6a5,5,0,0,1-.27.65l-2,4.42h-1.31l4.3-9.37,1.23,5.67c0,.08,0,.24.07.44s.06.47.11.78c.15-.27.35-.58.62-1a1.94,1.94,0,0,0,.16-.24L160.13,78,160,87.36h-1.31Z" transform="translate(-79 -21.39)"/><path class="cls-1" d="M161.15,87.34l2.15-9h4.88l-.29,1.25h-3.46l-.53,2.25h3.45L167,83.12h-3.45l-.7,2.9h3.46L166,87.34Z" transform="translate(-79 -21.39)"/><path class="cls-1" d="M167.67,87.34,169.9,78l4.23,5.49a4.69,4.69,0,0,1,.34.49c.11.18.22.38.36.6l1.49-6.22h1.32l-2.23,9.32-4.33-5.6-.34-.47a2,2,0,0,1-.26-.53L169,87.31h-1.31Z" transform="translate(-79 -21.39)"/><path class="cls-1" d="M182.19,79.57l-1.86,7.74h-1.42l1.85-7.74h-2.32l.29-1.25h6.06l-.29,1.25Z" transform="translate(-79 -21.39)"/><path class="cls-1" d="M183.68,85.53,185,85a1.18,1.18,0,0,0,.38.92,1.58,1.58,0,0,0,1,.31,1.67,1.67,0,0,0,1.09-.36,1.6,1.6,0,0,0,.6-1c.13-.53-.18-1-.94-1.4a1,1,0,0,0-.24-.13,4.46,4.46,0,0,1-1.61-1.32,2,2,0,0,1-.13-1.43,3.14,3.14,0,0,1,1.16-1.78,3.33,3.33,0,0,1,2.07-.69,2.76,2.76,0,0,1,1.54.38,1.47,1.47,0,0,1,.65,1.09l-1.25.58a1.45,1.45,0,0,0-.42-.63,1.13,1.13,0,0,0-.67-.2,1.54,1.54,0,0,0-1,.32,1.39,1.39,0,0,0-.54.82c-.13.54.25,1,1.12,1.52l.15.09a3.68,3.68,0,0,1,1.5,1.2,2,2,0,0,1,.13,1.47,3.51,3.51,0,0,1-1.27,2,3.72,3.72,0,0,1-2.3.76,2.58,2.58,0,0,1-1.72-.53A1.78,1.78,0,0,1,183.68,85.53Z" transform="translate(-79 -21.39)"/><path class="cls-1" d="M194.18,87.34l2.15-9h1.42l-2.14,9Z" transform="translate(-79 -21.39)"/><path class="cls-1" d="M197.66,87.34,199.89,78l4.24,5.49.34.49.35.6,1.5-6.22h1.31l-2.23,9.32-4.32-5.6c-.12-.15-.23-.31-.34-.47a2.4,2.4,0,0,1-.27-.53L199,87.31h-1.32Z" transform="translate(-79 -21.39)"/><path class="cls-1" d="M212.18,79.57l-1.85,7.74H208.9l1.86-7.74h-2.32l.29-1.25h6.06l-.29,1.25Z" transform="translate(-79 -21.39)"/><path class="cls-1" d="M213.72,87.34l2.14-9h4.91l-.29,1.25H217l-.53,2.25h3.45l-.31,1.27h-3.46l-.69,2.9h3.46l-.31,1.32Z" transform="translate(-79 -21.39)"/><path class="cls-1" d="M222.53,83.3l-1,4h-1.34l2.15-9h2a6,6,0,0,1,1.32.12,1.38,1.38,0,0,1,.73.38,1.51,1.51,0,0,1,.43.84,3,3,0,0,1-.05,1.14,3.4,3.4,0,0,1-.91,1.7,3.07,3.07,0,0,1-1.68.73l2,4.08h-1.6l-1.94-4Zm.36-1.14h.27a3.19,3.19,0,0,0,1.56-.27,1.42,1.42,0,0,0,.6-1c.11-.49.07-.84-.16-1a2.21,2.21,0,0,0-1.4-.32h-.27Z" transform="translate(-79 -21.39)"/><path class="cls-1" d="M227.1,87.34l2.14-9h4.89l-.29,1.25h-3.46l-.53,2.23h3.45L233,83.1h-3.46l-1,4.21H227.1Z" transform="translate(-79 -21.39)"/><path class="cls-1" d="M238.88,87.34,238.43,85H235l-1.56,2.32H231.9L238.37,78l2,9.35Zm-3.1-3.55h2.43l-.4-2.05a3.1,3.1,0,0,1-.05-.45,5.06,5.06,0,0,1,0-.56,4.92,4.92,0,0,1-.29.56,3.92,3.92,0,0,1-.27.47Z" transform="translate(-79 -21.39)"/><path class="cls-1" d="M249.65,80.53a2.93,2.93,0,0,0-1.09-.78,3.27,3.27,0,0,0-1.36-.27,4,4,0,0,0-2.57.94,4.42,4.42,0,0,0-1.49,2.45,2.91,2.91,0,0,0,.31,2.41,2.22,2.22,0,0,0,2,.94,4.15,4.15,0,0,0,1.53-.29,6.4,6.4,0,0,0,1.57-.85l-.41,1.65a5,5,0,0,1-1.4.63,5.81,5.81,0,0,1-1.52.2,4.32,4.32,0,0,1-1.78-.34,3,3,0,0,1-1.27-1,3.14,3.14,0,0,1-.63-1.52,4.64,4.64,0,0,1,.11-1.87,6.19,6.19,0,0,1,.79-1.85,5.78,5.78,0,0,1,1.36-1.52,5.74,5.74,0,0,1,3.63-1.34,4.2,4.2,0,0,1,1.43.23A3.73,3.73,0,0,1,250,79Z" transform="translate(-79 -21.39)"/><path class="cls-1" d="M249.79,87.34l2.14-9h4.88l-.29,1.25h-3.46l-.53,2.25H256l-.32,1.27h-3.45l-.7,2.9H255l-.31,1.32Z" transform="translate(-79 -21.39)"/><path class="cls-2" d="M223.82,70.52H214l13.61-49.13h9.79Z" transform="translate(-79 -21.39)"/><path class="cls-2" d="M218.74,22.93a3.6,3.6,0,0,0-3.15-1.41H161.8l-2.65,9.63h48.93l-2.86,10.29H166.08v0h-9.79l-8.12,29.33H158l5.45-19.67h44a6.23,6.23,0,0,0,3.88-1.4,6.59,6.59,0,0,0,2.39-3.48l5.44-19.67A4,4,0,0,0,218.74,22.93Z" transform="translate(-79 -21.39)"/><path class="cls-2" d="M142.46,67.44a4.5,4.5,0,0,1-4.32,3.3H87.67a3.54,3.54,0,0,1-3.08-1.4,3.84,3.84,0,0,1-.42-3.48L96.48,21.52h9.79l-11,39.61h39.17l11-39.61h9.79Z" transform="translate(-79 -21.39)"/><polygon class="cls-3" points="175.33 0.09 187.71 24.71 161.68 49.33 175.33 0.09"/><polygon class="cls-4" points="166.63 0.09 179.01 24.71 152.96 49.33 166.63 0.09"/></svg>