<svg id="Venmo" xmlns="http://www.w3.org/2000/svg" viewBox="0 0 274.15 52.13"><defs><style>.cls-1{fill:#3b94c3;fill-rule:evenodd;}</style></defs><path class="cls-1" d="M64.94,59.2,60.68,25,43.1,26.61l8.06,48.15H71.23C80,63.19,90.85,46.71,90.85,34a18.6,18.6,0,0,0-2.68-10.18l-16,3.24a19.1,19.1,0,0,1,1.67,8.52c0,6.94-4.91,17.12-8.89,23.6Z" transform="translate(-43.1 -23.84)"/><path class="cls-1" d="M120.57,24C102.25,24,93.36,40,93.36,55c0,11.57,5.47,20.83,20.73,20.83,6,0,12.22-1.3,16.2-3.24l2.12-14.44c-5.64,2.86-10,4-14.52,4-4.17,0-7.31-2.21-7.31-7.87,9.44-.09,25.72-4,25.72-16.66,0-7.87-5.64-13.52-15.73-13.52Zm1.76,14.91c0,4.63-8.15,6.11-11.38,6.11.46-5.56,4.71-9.44,8-9.44a3.18,3.18,0,0,1,3.43,3.33Z" transform="translate(-43.1 -23.84)"/><path class="cls-1" d="M145.47,24.86l-7.86,49.9h17.21l5.46-35A13.94,13.94,0,0,1,166.2,38c1.67,0,3.06.56,3.06,2.78,0,.93-.28,2.6-.37,3.42l-4.81,30.56h17.11l5.28-33.33a46.39,46.39,0,0,0,.56-6.3C187,28.47,184,24,175.27,24a25.64,25.64,0,0,0-14.71,4.82l-.19-4Z" transform="translate(-43.1 -23.84)"/><path class="cls-1" d="M197.77,24.86l-7.86,49.9h17.21l5.46-35A13.94,13.94,0,0,1,218.5,38c1.66,0,3.05.56,3.05,3.06,0,.65-.18,1.66-.27,2.5l-4.9,31.2h17.11l5.46-35A13.13,13.13,0,0,1,244.78,38c1.67,0,3.06.56,3.06,3.06,0,.65-.19,1.66-.28,2.5l-4.91,31.2h17.13L265,41.43a46.39,46.39,0,0,0,.56-6.3c0-6.66-3.05-11.11-11.84-11.11-6.39,0-11,1.95-15.92,5.46C236.08,26.33,232.57,24,227.2,24A23.71,23.71,0,0,0,213,29l-.46-4.16Z" transform="translate(-43.1 -23.84)"/><path class="cls-1" d="M297.54,24c-19.15,0-27.48,14.73-27.48,30.46,0,12,4.81,21.48,19.34,21.48,19.62,0,27.85-16.1,27.85-31.66C317.25,32.54,312,24,297.54,24Zm-10.08,31.2c0-6.11,1.38-18,8.14-18,3,0,4.07,2.78,4.07,6.85,0,6.11-1.48,18.7-7.87,18.7-3.05,0-4.34-2.86-4.34-7.5Z" transform="translate(-43.1 -23.84)"/></svg>