<svg id="Viettel_Money" data-name="Viettel Money" xmlns="http://www.w3.org/2000/svg" viewBox="0 0 179.75 61.8"><path d="M224.31,74h-3.92V61.28a2.34,2.34,0,0,1,2.7-2.45h10.29c3.14,0,3.93,2.94,3.93,4.41V74h-3.93V64a2.47,2.47,0,0,0-2.45-2.7h-5.15a1.42,1.42,0,0,0-1.47,1.47Z" transform="translate(-98.51 -24.25)"/><path d="M246.38,71.33h10.55a1.9,1.9,0,0,1-2,2.46H243.68c-3.13,0-3.92-3-3.92-4.42V63.49c0-3.73,3.6-4.5,5.4-4.42h7.11c3.68,0,5.15,2.94,5.15,5.64,0,2.16-1.47,2.7-2.21,2.7H243.68v2.45C243.68,71.24,245.48,71.41,246.38,71.33Z" transform="translate(-98.51 -24.25)"/><path d="M266,73.79l-8.58-15c2.94-1,4.49.41,4.9,1.22l5.4,10.55c1.63-3.11,5-9.57,5.64-10.55a2.45,2.45,0,0,1,2-1.22h2.94l-11,19.86h-4.17Z" transform="translate(-98.51 -24.25)"/><path d="M192.58,31.61s-1,.07-1,1v3.08a2.71,2.71,0,0,1,1.88-1.05h1.31s1.07-.06,1.07-.95v-1.1a1,1,0,0,0-1.09-1Zm28,.7a1.1,1.1,0,0,0-1.19,1.08v2.43h-2.63v1.64a1.08,1.08,0,0,0,1.19,1h1.44v8.16c.08,2.67,2.91,4.23,5.32,4.23h3.21c.88,0,1-1.21,1-1.21V48.13a7.39,7.39,0,0,1-2.91,0c-2.47-.72-2.39-2.59-2.39-2.59v-7H232v8.16c.08,2.67,2.91,4.23,5.32,4.23h3.22c.87,0,1-1.21,1-1.21V48.13a7.33,7.33,0,0,1-2.9,0c-2.48-.72-2.4-2.59-2.4-2.59v-7h4.07c1.19,0,1.17-1,1.17-1V35.82h-5.24V33.5a1.11,1.11,0,0,0-1-1.19h-2.05A1.1,1.1,0,0,0,232,33.39v2.43h-8.37V33.5a1.11,1.11,0,0,0-1-1.19Zm43.18,0a1.1,1.1,0,0,0-1.19,1.08V46.67c.08,2.67,2.9,4.23,5.31,4.23h3.22c.87,0,1-1.21,1-1.21V48.13a7.33,7.33,0,0,1-2.9,0c-2.47-.72-2.4-2.59-2.4-2.59v-12a1.11,1.11,0,0,0-1-1.19Zm-57.47,3.4a13,13,0,0,0-5.9,1.39c-1.48.85-2.43,2.27-2.47,5.25,0,0,0,4.42.63,5.47a6.1,6.1,0,0,0,2.37,2.4,7.69,7.69,0,0,0,3.18.68h10.39a1.21,1.21,0,0,0,1-1.35V48.19H205.19A3,3,0,0,1,202.37,45v-.44h11.69s2-.16,2-2.81a5.24,5.24,0,0,0-1.79-4.42c-2.12-1.69-5.53-1.53-7.85-1.59Zm44.37,0a13,13,0,0,0-5.9,1.39c-1.48.85-2.43,2.27-2.47,5.25,0,0,0,4.42.63,5.47a6.1,6.1,0,0,0,2.37,2.4,7.69,7.69,0,0,0,3.18.68h10.39a1.21,1.21,0,0,0,1-1.35V48.19H249.57A3,3,0,0,1,246.74,45v-.44h11.69s2-.16,2-2.81a5.24,5.24,0,0,0-1.79-4.42c-2.12-1.69-5.53-1.53-7.85-1.59Zm-79.58.16,7.24,14s.39,1.18,2.54,1.18h.77a2.73,2.73,0,0,0,2.37-1.3c.77-1.38,7.24-13.87,7.24-13.87H188a3.1,3.1,0,0,0-2.06,1.84c-.79,1.64-4.47,9.44-4.47,9.44s-.29.44-.5,0-4.79-9.95-4.79-9.95-.82-1.33-1.73-1.33Zm21.52,0a1.07,1.07,0,0,0-1,1.19V49.88a1.09,1.09,0,0,0,1.11,1H195s.82,0,.82-1.31V36.91s-.17-1-1-1ZM207,38.39c1.21,0,3,.17,4,1.11A2.11,2.11,0,0,1,211.7,41c0,.92-.58.92-.76.92h-6.52a2.89,2.89,0,0,0-2.06.85,13.24,13.24,0,0,1,.09-1.69s0-2.26,3.31-2.61a12.08,12.08,0,0,1,1.25-.06Zm44.37,0c1.21,0,3,.17,4,1.11a2.11,2.11,0,0,1,.72,1.48c0,.92-.58.92-.76.92h-6.52a2.89,2.89,0,0,0-2.06.85,13.24,13.24,0,0,1,.09-1.69s0-2.26,3.31-2.61a12.08,12.08,0,0,1,1.25-.06Z" transform="translate(-98.51 -24.25)" style="fill:#ef0032"/><circle cx="30.9" cy="30.9" r="30.9" style="fill:#ef0032"/><path d="M126,40.68h-5.39a1,1,0,0,0-1,1v27a1,1,0,0,0,1,1H126a1,1,0,0,1,1,1v2.94a1,1,0,0,1-1,1h-4.91a3.34,3.34,0,0,1-3.17-2.86,1,1,0,0,1,0-.16v-32A3.59,3.59,0,0,1,121,36h5a1,1,0,0,1,1,1v2.7A1,1,0,0,1,126,40.68Z" transform="translate(-98.51 -24.25)" style="fill:#fff"/><path d="M132.84,40.68h5.4a1,1,0,0,1,1,1v27a1,1,0,0,1-1,1h-5.4a1,1,0,0,0-1,1v2.94a1,1,0,0,0,1,1h4.91a3.35,3.35,0,0,0,3.17-2.86.92.92,0,0,0,0-.16v-32A3.59,3.59,0,0,0,137.82,36h-5a1,1,0,0,0-1,1v2.7A1,1,0,0,0,132.84,40.68Z" transform="translate(-98.51 -24.25)" style="fill:#fff"/><path d="M170.61,61V73.79h2.2c1.38,0,1.72-1.64,1.72-2.46V62.26c0-1,1-1.23,1.47-1.23h5.89V73.79h2a2,2,0,0,0,2-2.46V61h3.92a3.32,3.32,0,0,1,3.44,3.44v9.32h1.71a2,2,0,0,0,2-2.46V62.75a3.93,3.93,0,0,0-4.17-3.92H173.79C171.05,58.83,170.53,60.3,170.61,61Z" transform="translate(-98.51 -24.25)"/><path d="M218.67,66.43c0,6.62-4.39,7.85-9.81,7.85s-10.05-.49-9.81-7.85c.22-6.55,4.39-7.85,9.81-7.85S218.67,59.81,218.67,66.43Z" transform="translate(-98.51 -24.25)"/><path d="M214.5,66.43c0,2.23-.64,3.49-1.62,4.21a6.79,6.79,0,0,1-4,.94,7.49,7.49,0,0,1-4.07-.76c-1-.65-1.63-1.9-1.56-4.38.06-2.21.7-3.48,1.67-4.2a6.5,6.5,0,0,1,4-1,6.79,6.79,0,0,1,4,.94C213.86,62.94,214.5,64.2,214.5,66.43Z" transform="translate(-98.51 -24.25)" style="fill:#fff;stroke:#000"/><path d="M246.15,64.94c-1.77.19-2.37.73-2.45,1-.09-1.23.24-3.78,2.2-4.17,2.46-.49,6.38-.25,7.11,1.47.59,1.37-.4,1.72-1,1.72Z" transform="translate(-98.51 -24.25)" style="fill:#fff;stroke:#000"/></svg>