<svg id="Viettel_Pay" data-name="Viettel Pay" xmlns="http://www.w3.org/2000/svg" viewBox="0 0 70.13 64.01"><path d="M217.07,32.79a6.06,6.06,0,0,0-5.87-2.53l-57.81,8.13a6.14,6.14,0,0,0-3.49,10.43l35.3,35.43a6.1,6.1,0,0,0,4.33,1.81A6.11,6.11,0,0,0,195,82.73l22.51-43.56a6.05,6.05,0,0,0-.45-6.38ZM217,38.87l-22.5,43.57a5.47,5.47,0,0,1-4,2.91,8.54,8.54,0,0,1-.86.07,5.44,5.44,0,0,1-3.88-1.63L150.35,48.35A5.5,5.5,0,0,1,153.48,39l57.81-8.13a7.34,7.34,0,0,1,.81-.05,5.49,5.49,0,0,1,4.85,8Z" transform="translate(-148.1 -22.19)" style="fill:#e03"/><path d="M210.35,32.1l-55.6,7.82a5,5,0,0,0-2.85,8.5l34,34.07A4.93,4.93,0,0,0,189.4,84a5.25,5.25,0,0,0,.79-.06,5,5,0,0,0,3.69-2.65l21.64-41.9a5,5,0,0,0-2.15-6.75,5,5,0,0,0-3-.51Zm4.58,7L193.29,81a4.37,4.37,0,0,1-5.89,1.88,4.51,4.51,0,0,1-1.09-.8L152.35,48a4.37,4.37,0,0,1,2.49-7.41l55.6-7.82c.21,0,.42,0,.63,0a4.39,4.39,0,0,1,3.86,6.39Z" transform="translate(-148.1 -22.19)" style="fill:#e03"/><path d="M209.27,34,156.36,41.4a4,4,0,0,0-2.28,6.79L186.4,80.63a4,4,0,0,0,2.81,1.18,4.48,4.48,0,0,0,.64,0,4,4,0,0,0,2.93-2.13l20.6-39.87a4,4,0,0,0-4.1-5.79Zm3.54,5.5L192.22,79.35a3.37,3.37,0,0,1-4.53,1.45,3.43,3.43,0,0,1-.85-.62L154.53,47.74A3.36,3.36,0,0,1,156.44,42l52.92-7.42a2.63,2.63,0,0,1,.49,0,3.37,3.37,0,0,1,3,4.91Z" transform="translate(-148.1 -22.19)" style="fill:#e03"/><path d="M208.42,35.8l-50.7,7.13a2.87,2.87,0,0,0-2.44,3.24,2.91,2.91,0,0,0,.81,1.63l31,31.08a2.83,2.83,0,0,0,2,.84,3.4,3.4,0,0,0,.45,0,2.88,2.88,0,0,0,2.11-1.53L211.37,40a2.88,2.88,0,0,0-3-4.16Zm2.38,3.86L191.06,77.87a2.23,2.23,0,0,1-3.56.55l-31-31.08a2.23,2.23,0,0,1,0-3.15,2.16,2.16,0,0,1,1.26-.62l50.7-7.13A2.22,2.22,0,0,1,211,38.33a2.2,2.2,0,0,1-.22,1.33Z" transform="translate(-148.1 -22.19)" style="fill:#e03"/><path d="M207.57,37.64l-48.49,6.82a1.74,1.74,0,0,0-1.48,2,1.8,1.8,0,0,0,.49,1l29.62,29.72a1.69,1.69,0,0,0,1.22.51,1.23,1.23,0,0,0,.27,0,1.73,1.73,0,0,0,1.28-.91l18.87-36.54a1.73,1.73,0,0,0-1.78-2.51Zm1.22,2.22L189.91,76.4a1.1,1.1,0,0,1-1.48.47,1.05,1.05,0,0,1-.27-.2L158.54,47a1.1,1.1,0,0,1,0-1.55,1.05,1.05,0,0,1,.62-.31l48.49-6.82a1.11,1.11,0,0,1,1.24.94,1.13,1.13,0,0,1-.11.65Z" transform="translate(-148.1 -22.19)" style="fill:#e03"/><path d="M205.63,39.63l-44.07,6.19a1.18,1.18,0,0,0-1,1.32,1.23,1.23,0,0,0,.34.67l26.91,27a1.18,1.18,0,0,0,.82.35l.19,0a1.13,1.13,0,0,0,.86-.62l17.15-33.21a1.16,1.16,0,0,0-.5-1.57,1.22,1.22,0,0,0-.7-.12Zm.64,1.4L189.11,74.24a.53.53,0,0,1-.71.23l-.13-.1-26.91-27a.53.53,0,0,1,0-.75.51.51,0,0,1,.3-.15l44.06-6.2h.08a.53.53,0,0,1,.53.53.7.7,0,0,1-.05.25Z" transform="translate(-148.1 -22.19)" style="fill:#e03"/><path d="M212.6,46.36a8.54,8.54,0,0,0-3.07-2.93l-15.78-8.92L173.62,23.14a7.17,7.17,0,0,0-10.67,7l.88,8.6,3,29.59,1,10.13a8.63,8.63,0,0,0,14.45,5.47l0,0L203.13,64.7l8-7.4a8.65,8.65,0,0,0,1.46-10.94Z" transform="translate(-148.1 -22.19)" style="fill:#e03"/><path d="M193.41,49.69a.89.89,0,0,0-.89.89v.77a5.83,5.83,0,1,0,0,8.36v.77a.89.89,0,1,0,1.78,0v-9.9a.88.88,0,0,0-.89-.88Zm-4.95,9.9a4.06,4.06,0,1,1,2.87-1.19A4.07,4.07,0,0,1,188.46,59.59Z" transform="translate(-148.1 -22.19)" style="fill:#fff"/><path d="M175.58,49.69a5.89,5.89,0,0,0-4.07,1.66v-.76a.89.89,0,1,0-1.77,0h0V64.5a.89.89,0,1,0,1.77,0V59.71a5.83,5.83,0,1,0,4.07-10Zm0,9.9a4.06,4.06,0,1,1,2.87-1.19A4.07,4.07,0,0,1,175.58,59.59Z" transform="translate(-148.1 -22.19)" style="fill:#fff"/><path d="M206.42,49.81a.9.9,0,0,0-1.22.33h0l-4.09,7.1L197,50.14a.89.89,0,0,0-1.21-.33.91.91,0,0,0-.33,1.22l4.62,8-2.92,5a.9.9,0,0,0,.37,1.21.88.88,0,0,0,1.17-.32l8-13.92a.91.91,0,0,0,.08-.67.92.92,0,0,0-.41-.54Z" transform="translate(-148.1 -22.19)" style="fill:#fff"/><path d="M190.46,55.45a3.56,3.56,0,0,1-1.91-1.92.09.09,0,0,0-.12,0l0,0a3.59,3.59,0,0,1-1.91,1.92.09.09,0,0,0,0,.11.12.12,0,0,0,0,0,3.54,3.54,0,0,1,1.91,1.91.1.1,0,0,0,.11,0,.12.12,0,0,0,.05,0,3.54,3.54,0,0,1,1.91-1.91.09.09,0,0,0,0-.12.1.1,0,0,0,0,0Z" transform="translate(-148.1 -22.19)" style="fill:#fff"/><path d="M176.08,43.93h-.45a.33.33,0,0,0-.33.33v3.36a.32.32,0,0,0,.33.33h.45a.33.33,0,0,0,.33-.33V44.26A.33.33,0,0,0,176.08,43.93Z" transform="translate(-148.1 -22.19)" style="fill:#fff"/><path d="M172.46,48a.74.74,0,0,0,.77-.36l1.92-3.71h-.7a.71.71,0,0,0-.65.42l-1.21,2.56c0,.06-.08.16-.13.16s-.1-.1-.13-.16l-1.22-2.56a.69.69,0,0,0-.64-.42h-.7l1.91,3.71A.8.8,0,0,0,172.46,48Z" transform="translate(-148.1 -22.19)" style="fill:#fff"/><path d="M196.73,48a.32.32,0,0,0,.32-.33v-.35h-.27a1.7,1.7,0,0,1-.87-.18.94.94,0,0,1-.29-.86V43.31a.32.32,0,0,0-.33-.32h-.46a.32.32,0,0,0-.32.33h0v3.32a1.11,1.11,0,0,0,.5,1,2.18,2.18,0,0,0,1.35.3Z" transform="translate(-148.1 -22.19)" style="fill:#fff"/><path d="M182.82,46.64a1.11,1.11,0,0,0,.5,1,2.21,2.21,0,0,0,1.35.3H185a.33.33,0,0,0,.32-.33v-.36h-.27a1.8,1.8,0,0,1-.87-.17,1,1,0,0,1-.29-.87V44.61h2.31v2a1.1,1.1,0,0,0,.51,1,2.18,2.18,0,0,0,1.35.3h.36a.33.33,0,0,0,.33-.33h0v-.36h-.28a1.67,1.67,0,0,1-.86-.17.93.93,0,0,1-.29-.87V44.61h1.08a.32.32,0,0,0,.32-.33h0v-.35h-1.4v-.62A.33.33,0,0,0,187,43h-.46a.33.33,0,0,0-.33.33h0v.62h-2.31v-.62a.33.33,0,0,0-.33-.33h-.45a.33.33,0,0,0-.33.33v.62h-.69v.35a.32.32,0,0,0,.32.33h.37Z" transform="translate(-148.1 -22.19)" style="fill:#fff"/><path d="M181.65,46.08a.69.69,0,0,0,.23-.6,1.31,1.31,0,0,0-.71-1.31,3.7,3.7,0,0,0-1.66-.26,3.49,3.49,0,0,0-1.88.38c-.55.38-.6.94-.6,1.69a2.13,2.13,0,0,0,.37,1.46,1.87,1.87,0,0,0,1.53.51h2.46a.33.33,0,0,0,.33-.33v-.35h-2.46c-.4,0-.87-.05-1-.48a2.51,2.51,0,0,1-.07-.55h2.93A.82.82,0,0,0,181.65,46.08Zm-1.16-.53h-1.58c-.4,0-.73.19-.73.41v-.41a.8.8,0,0,1,.23-.68,1.5,1.5,0,0,1,1.05-.27,1.94,1.94,0,0,1,.95.18.68.68,0,0,1,.32.54c0,.1,0,.23-.24.23Z" transform="translate(-148.1 -22.19)" style="fill:#fff"/><path d="M190.93,48h2.46a.33.33,0,0,0,.33-.33h0v-.35h-2.45c-.41,0-.88-.05-1-.48a2.51,2.51,0,0,1-.07-.55h2.93a.88.88,0,0,0,.54-.16.7.7,0,0,0,.23-.61,1.29,1.29,0,0,0-.71-1.3,3.7,3.7,0,0,0-1.66-.26,3.49,3.49,0,0,0-1.88.38c-.55.38-.59.93-.59,1.68a2.14,2.14,0,0,0,.36,1.47A1.92,1.92,0,0,0,190.93,48Zm-.75-2.4a.79.79,0,0,1,.23-.68,1.53,1.53,0,0,1,1.06-.27,1.88,1.88,0,0,1,.95.18.67.67,0,0,1,.31.54c0,.11,0,.24-.25.24H190.9c-.4,0-.72.18-.72.41Z" transform="translate(-148.1 -22.19)" style="fill:#fff"/><path d="M175.85,43.55h.23a.33.33,0,0,0,.33-.33h0v-.09a.33.33,0,0,0-.33-.33h-.46a.32.32,0,0,0-.32.33v.8A.53.53,0,0,1,175.85,43.55Z" transform="translate(-148.1 -22.19)" style="fill:#fff"/></svg>