<svg id="Vimass" xmlns="http://www.w3.org/2000/svg" viewBox="0 0 93.8 63.64"><rect x="28.19" y="6.83" width="37.73" height="28.62" rx="2.6" style="fill:#266eb0"/><path d="M200.24,23.06l-30.57,6.75a.43.43,0,0,0-.34.42V31a.44.44,0,0,0,.44.44L200.34,31a.43.43,0,0,0,.43-.43V23.48A.44.44,0,0,0,200.24,23.06Z" transform="translate(-138.97 -23.05)" style="fill:#266eb0"/><rect x="58.11" y="16.37" width="8.67" height="9.54" style="fill:#fff"/><path d="M193.18,43.76a4.34,4.34,0,0,1,4.34-4.34h0V49h0a4.33,4.33,0,0,1-4.34-4.33Z" transform="translate(-138.97 -23.05)" style="fill:#fff"/><rect x="58.54" y="17.24" width="8.24" height="7.81" style="fill:#266eb0"/><path d="M194.05,44.19a3.9,3.9,0,0,1,3.9-3.9h0V48.1h0a3.9,3.9,0,0,1-3.9-3.91Z" transform="translate(-138.97 -23.05)" style="fill:#266eb0"/><path d="M169.54,34.22V32.7a.44.44,0,0,1,.44-.43h1.73a.44.44,0,0,1,.44.43v.22a.44.44,0,0,1-.44.43h-.65a.44.44,0,0,0-.43.44v.43a.44.44,0,0,1-.44.43H170A.44.44,0,0,1,169.54,34.22Z" transform="translate(-138.97 -23.05)" style="fill:#fff"/><path d="M169.33,54.17v1.52a.43.43,0,0,0,.43.43h1.74a.43.43,0,0,0,.43-.43v-.22a.43.43,0,0,0-.43-.43h-.65a.44.44,0,0,1-.44-.44v-.43a.44.44,0,0,0-.43-.44h-.22A.44.44,0,0,0,169.33,54.17Z" transform="translate(-138.97 -23.05)" style="fill:#fff"/><path d="M202.29,54.17v1.52a.44.44,0,0,1-.44.43h-1.73a.44.44,0,0,1-.44-.43v-.22a.44.44,0,0,1,.44-.43h.65a.44.44,0,0,0,.43-.44v-.43a.44.44,0,0,1,.44-.44h.21A.44.44,0,0,1,202.29,54.17Z" transform="translate(-138.97 -23.05)" style="fill:#fff"/><path d="M202.29,34V32.49a.44.44,0,0,0-.44-.44h-1.73a.44.44,0,0,0-.44.44v.21a.44.44,0,0,0,.44.44h.65a.43.43,0,0,1,.43.43V34a.44.44,0,0,0,.44.44h.21A.44.44,0,0,0,202.29,34Z" transform="translate(-138.97 -23.05)" style="fill:#fff"/><rect x="30.36" y="13.34" width="1.3" height="3.9" rx="0.43" style="fill:#fff"/><rect x="35.56" y="9" width="3.9" height="1.3" rx="0.43" style="fill:#fff"/><rect x="41.63" y="9" width="3.9" height="1.3" rx="0.43" style="fill:#fff"/><rect x="48.14" y="9" width="3.9" height="1.3" rx="0.43" style="fill:#fff"/><rect x="35.13" y="31.98" width="3.9" height="1.3" rx="0.43" style="fill:#fff"/><rect x="41.2" y="31.98" width="3.9" height="1.3" rx="0.43" style="fill:#fff"/><rect x="47.7" y="31.98" width="3.9" height="1.3" rx="0.43" style="fill:#fff"/><rect x="54.64" y="9" width="3.9" height="1.3" rx="0.43" style="fill:#fff"/><rect x="54.64" y="31.98" width="3.9" height="1.3" rx="0.43" style="fill:#fff"/><rect x="30.36" y="18.98" width="1.3" height="3.9" rx="0.43" style="fill:#fff"/><rect x="30.36" y="24.61" width="1.3" height="3.9" rx="0.43" style="fill:#fff"/><rect x="62.01" y="13.34" width="1.3" height="3.9" rx="0.43" style="fill:#fff"/><rect x="62.01" y="25.05" width="1.3" height="3.9" rx="0.43" style="fill:#fff"/><circle cx="43.37" cy="21.14" r="9.97" style="fill:#fff"/><path d="M179.61,39.42h-3a.44.44,0,0,0-.41.58L180,50.7c.22.43.44.87,2.17.87,1.58,0,2.17-.22,2.39-.87l3.7-10.7a.44.44,0,0,0-.41-.58h-3a.43.43,0,0,0-.42.32l-1.86,6.76a.43.43,0,0,1-.84,0L180,39.75A.43.43,0,0,0,179.61,39.42Z" transform="translate(-138.97 -23.05)" style="fill:#266eb0"/><circle cx="59.41" cy="21.14" r="1.3" style="fill:#fff"/><path d="M206,86.48V82.14H212c2,0,2.39-1.3,1.52-2l-3.47-2.39c-1.52-1.08-4.33-3-4.33-6.5s3.18-4.19,4.77-4.12h6.93V71.3h-5c-.87,0-1.89-.31-2.07,1.08s2,2.53,3.15,2.82c3.37,1.3,4.88,3.47,4.67,7.16-.17,2.82-3.37,4.12-4.67,4.12Z" transform="translate(-138.97 -23.05)" style="fill:#266eb0"/><path d="M220.5,86.26V81.93h6.07c2,0,2.39-1.3,1.52-2l-3.47-2.39c-1.52-1.08-4.34-3-4.34-6.5s3.18-4.2,4.77-4.12H232v4.12h-5c-.86,0-1.89-.31-2.06,1.08s2,2.53,3.15,2.82c3.36,1.3,4.88,3.47,4.67,7.15-.17,2.82-3.37,4.12-4.67,4.12Z" transform="translate(-138.97 -23.05)" style="fill:#266eb0"/><path d="M143.74,67.18H139l4.34,17.13a3.24,3.24,0,0,0,3.47,2.38,3.61,3.61,0,0,0,3.68-2.38l4.12-17.13h-4.33c-.87,3.76-2.69,11.58-3,12.79s-.72.51-.87,0Z" transform="translate(-138.97 -23.05)" style="fill:#266eb0"/><path d="M157,86.26V73a3.47,3.47,0,0,0,4.77,0V86.26Z" transform="translate(-138.97 -23.05)" style="fill:#266eb0"/><circle cx="20.38" cy="46.3" r="2.39" style="fill:#266eb0"/><path d="M169.33,86.48h-4.56c.44-5.42,1.35-16.44,1.52-17.13.22-.87,1.09-2.17,3.47-2.39A3.32,3.32,0,0,1,173,69.35c.65,2.6,2,7.93,2.17,8.45s.36.22.44,0l2.16-7.8a3.62,3.62,0,0,1,3.47-3,3.26,3.26,0,0,1,3.69,3l1.3,16.48H181.9c-.21-3.55-.69-10.93-.86-12.15s-.51-.5-.65,0l-3,10.63a2,2,0,0,1-1.73,1.52,1.86,1.86,0,0,1-2-1.52c-.72-2.89-2.29-9-2.81-10.41s-.8-.58-.87,0Z" transform="translate(-138.97 -23.05)" style="fill:#266eb0"/><path d="M193.4,86.48h-4.56l.22-13.23c0-2.17,1.39-6.51,6.94-6.51s6.94,4.34,6.94,6.51V86.48h-4.56V79.54H194.7V75.63h3.68V73.25a2.51,2.51,0,0,0-5,0Z" transform="translate(-138.97 -23.05)" style="fill:#266eb0"/></svg>