<svg id="VinID" xmlns="http://www.w3.org/2000/svg" viewBox="0 0 169.34 64.13"><path d="M183.74,49.11c-4.63.47-5.4,5.21-5.21,7.53l-5.2,7c0-5.6,2.66-17.25,13.31-19.11s12.93,5.41,12.73,9.27l-9.26,1.73C189.92,53.17,188.37,48.65,183.74,49.11Z" transform="translate(-98.34 -22.56)" style="fill:#a81323"/><path d="M120.07,80.37,99.24,31.75c-.78-1.93-.93-6.25,4.63-8.1s8.87,1.15,9.84,2.89l17.36,42.25c5-13.31,15.28-40.51,16.21-42.83,1.16-2.89,4.63-3.47,6.37-1.74,1.38,1.39,1,4.06.57,5.21L135.7,80.37c-.77,1.74-3.36,5.33-7.52,5.79S121,82.49,120.07,80.37Z" transform="translate(-98.34 -22.56)" style="fill:#a81323"/><path d="M154.22,71.69V48c0-1.16.93-3.48,4.63-3.48s4.64,2.32,4.64,3.48V71.69c.19,1.35-.47,4-4.64,4S154,73,154.22,71.69Z" transform="translate(-98.34 -22.56)" style="fill:#a81323"/><path d="M120.07,80.37,99.24,31.75c-.78-1.93-.93-6.25,4.63-8.1s8.87,1.15,9.84,2.89l17.36,42.25c5-13.31,15.28-40.51,16.21-42.83,1.16-2.89,4.63-3.47,6.37-1.74,1.38,1.39,1,4.06.57,5.21L135.7,80.37c-.77,1.74-3.36,5.33-7.52,5.79S121,82.49,120.07,80.37Z" transform="translate(-98.34 -22.56)" style="fill:none;stroke:#a81323"/><path d="M154.22,71.69V48c0-1.16.93-3.48,4.63-3.48s4.64,2.32,4.64,3.48V71.69c.19,1.35-.47,4-4.64,4S154,73,154.22,71.69Z" transform="translate(-98.34 -22.56)" style="fill:none;stroke:#a81323"/><path d="M169.3,71.69V48c0-1.16.93-3.48,4.63-3.48s4.63,2.32,4.63,3.48V71.69c.2,1.35-.46,4-4.63,4S169.11,73,169.3,71.69Z" transform="translate(-98.34 -22.56)" style="fill:#a81323"/><path d="M209.82,69.89V35.61c0-1.67.92-5,4.6-5s4.6,3.35,4.6,5V69.89c.2,2-.46,5.85-4.6,5.85S209.63,71.84,209.82,69.89Z" transform="translate(-98.34 -22.56)" style="fill:#212d45"/><path d="M190.14,72.44V53.1c0-.94.92-2.83,4.6-2.83s4.6,1.89,4.6,2.83V72.44c.2,1.1-.46,3.3-4.6,3.3S190,73.54,190.14,72.44Z" transform="translate(-98.34 -22.56)" style="fill:#a81323"/><path d="M133.39,63.59c-1.86,3.24-3.86,1.35-4.63,0l-2.9,1.73L127,72.85h6.37l3.47-8.11C136.47,63,135.24,60.34,133.39,63.59Z" transform="translate(-98.34 -22.56)" style="fill:#a81323"/><ellipse cx="60.51" cy="15.55" rx="4.63" ry="4.05" style="fill:#a81323"/><path d="M225.42,70.53V32.91a2.32,2.32,0,0,1,2.32-2.32h20.83c7,0,18.64,6.6,19.11,23.73s-12.55,21-19.11,20.84H227.74a2.31,2.31,0,0,1-2.32-2.31Z" transform="translate(-98.34 -22.56)" style="fill:#212d45"/><path d="M235.26,67.38V37.54a2.32,2.32,0,0,1,2.32-2.32h9.51a1.54,1.54,0,0,1,.43.05c3.28.78,9.49,5.57,9.73,19.06.24,13.79-6.53,16.93-9.94,16.77h-9.73a2.31,2.31,0,0,1-2.32-2.31Z" transform="translate(-98.34 -22.56)" style="fill:#fff;stroke:#212d45"/></svg>