<svg id="Virtual_Account" data-name="Virtual Account" xmlns="http://www.w3.org/2000/svg" viewBox="0 0 56.92 61.75"><defs><style>.cls-1{font-size:13px;}.cls-1,.cls-3{font-family:Arial-BoldMT, Arial;font-weight:700;}.cls-2{letter-spacing:-0.02em;}.cls-3{font-size:11.2px;}</style></defs><path d="M212.37,64.14m.34,14.46M172,51.49c0-.33,0-.73,0-1.19a13.44,13.44,0,0,1,.15-1.55,7.44,7.44,0,0,1,.35-1.84,9.43,9.43,0,0,1,.7-2c.15-.34.31-.69.48-1a11.76,11.76,0,0,1,.62-1A12.85,12.85,0,0,1,175.73,41a21.45,21.45,0,0,1,1.76-1.68,23.43,23.43,0,0,1,1.93-1.36,17.9,17.9,0,0,1,1.93-1.08c.62-.34,1.24-.57,1.8-.82.88-.34,1.65-.6,2.29-.79a13.52,13.52,0,0,1-.66-2.07,11.09,11.09,0,0,1-.35-2.39,12.24,12.24,0,0,1,2.23.93,15.9,15.9,0,0,1,1.88,1.2,18.59,18.59,0,0,1,3.07,2.93,2.43,2.43,0,0,1,.24,2.81l-.11.18a18.45,18.45,0,0,1-3,3.84,14.41,14.41,0,0,1-2,1.62c-.37.25-.75.49-1.14.71a9.86,9.86,0,0,1-1.31.61,11.47,11.47,0,0,1,0-1.44c.05-.45.11-.89.18-1.33a13.77,13.77,0,0,1,.66-2.47l.09-.24-.88.11c-.48.11-1.05.18-1.6.34a14,14,0,0,0-1.76.53,19.62,19.62,0,0,0-1.82.76,17.23,17.23,0,0,0-1.73,1,10.39,10.39,0,0,0-1.57,1.31c-.23.24-.5.46-.71.72l-.6.79a8.45,8.45,0,0,0-1,1.62,7.3,7.3,0,0,0-.69,1.6,12.27,12.27,0,0,0-.46,1.43c-.08.45-.16.83-.21,1.15l-.19,1S172,52.15,172,51.49Zm14.55,4.42c-.61.36-1.23.61-1.78.87-.86.37-1.63.65-2.26.86a14.6,14.6,0,0,1,.73,2,11.37,11.37,0,0,1,.41,2.37,11.45,11.45,0,0,1-2.25-.86,13.89,13.89,0,0,1-1.92-1.14,18.67,18.67,0,0,1-3.16-2.84,2.43,2.43,0,0,1-.32-2.8l.1-.18a18.9,18.9,0,0,1,2.9-3.93,15.61,15.61,0,0,1,1.92-1.68c.37-.25.74-.5,1.12-.74a9.14,9.14,0,0,1,1.29-.65,10,10,0,0,1,0,1.44c0,.45-.08.9-.13,1.34a15,15,0,0,1-.59,2.48l-.09.25.88-.14c.49-.12,1-.21,1.59-.39a12.68,12.68,0,0,0,1.74-.58,17.67,17.67,0,0,0,1.79-.81,16.9,16.9,0,0,0,1.7-1.09,10.41,10.41,0,0,0,1.53-1.35c.23-.25.49-.48.7-.75l.57-.8a8.43,8.43,0,0,0,1-1.66,7.17,7.17,0,0,0,.64-1.62,10,10,0,0,0,.41-1.44c.07-.45.13-.83.19-1.15.11-.65.16-1,.16-1s0,.37.06,1c0,.34,0,.74.07,1.2a12.78,12.78,0,0,1-.09,1.56,8.48,8.48,0,0,1-.3,1.84,10.32,10.32,0,0,1-.64,2l-.45,1c-.17.35-.39.67-.59,1A13.29,13.29,0,0,1,192,51.62a18.73,18.73,0,0,1-1.72,1.73,22.07,22.07,0,0,1-1.88,1.42A18.25,18.25,0,0,1,186.54,55.91Z" transform="translate(-155.79 -30.76)"/><text class="cls-1" transform="translate(0 47.83)">VIRTUA<tspan class="cls-2" x="48.39" y="0">L</tspan></text><text class="cls-3" transform="translate(0.32 57.53)">ACCOUNT</text></svg>