<svg id="Visa_Checkout" data-name="Visa Checkout" xmlns="http://www.w3.org/2000/svg" viewBox="0 0 258.82 40.35"><path d="M85.9,36.21l-9,18.4c-2,4-3.87,7.92-5.37,12h-.11c-.24-4-.54-7.87-1-12L69.48,45l-.86-8.76H47.4v1.34h.73c9.83.54,12.33,6.26,13,9.19l-1.18-9.19L61.16,47c0-.08,0-.19-.06-.27l.22,1.72v-.22l3.43,26.65h10L95.49,36.21Zm23-.13-7.63,38.7h-8.6l7.63-38.7Zm.59,29.76A19.6,19.6,0,0,0,119,68.31c3.33,0,6.39-1.5,6.39-4.54,0-2.18-1.72-3.63-5.42-5.45-4.3-2.23-8.36-5.21-8.36-10.29,0-7.82,7.09-12.57,15.88-12.57,4.89,0,7.76,1,9.48,2l-3.84,6.88c-1.32-.7-2.34-2.07-6.37-2s-6.09,2.23-6.09,4.35,2.44,3.63,5.85,5.46c4.89,2.47,8,5.61,8,10.2,0,8.63-7.42,13-16.36,13a21.77,21.77,0,0,1-12.09-3.63ZM147,64.74l-4.78,10h-9.13l19.58-38.7h11l4.73,38.7h-9l-.83-10Zm11.23-6.32-.78-8.32c-.19-2.12-.43-5.21-.59-7.58h-.11c-1,2.37-2.15,5.35-3.22,7.58l-4,8.32Zm23.34,17.3a8.73,8.73,0,0,1-6-1.9,7,7,0,0,1-2.13-5.48,13.78,13.78,0,0,1,.94-5.13,12.2,12.2,0,0,1,2.58-4,11.77,11.77,0,0,1,3.84-2.55,12.22,12.22,0,0,1,4.7-.91,15.78,15.78,0,0,1,3.68.4,12.09,12.09,0,0,1,3.07,1.18L191.09,62h-.57a8.51,8.51,0,0,0-2.44-1.94,6.4,6.4,0,0,0-2.85-.61,5.9,5.9,0,0,0-4.75,2.31,9,9,0,0,0-1.86,5.88,4.63,4.63,0,0,0,1,3.33,4,4,0,0,0,3,1,7.62,7.62,0,0,0,3.33-.73,14,14,0,0,0,3-1.82h.51L188.32,74,187,74.6a14.08,14.08,0,0,1-1.48.53,12.31,12.31,0,0,1-1.74.41,8.09,8.09,0,0,1-2.21.18Zm26.33-11.57c0,.21,0,.48-.06.8a6.28,6.28,0,0,1-.16,1l-2.17,9.42h-4.7l1.66-7.19c.11-.54.22-1,.3-1.4a4.93,4.93,0,0,0,.1-1,1.52,1.52,0,0,0-.43-1.24,2.47,2.47,0,0,0-1.55-.37,4.13,4.13,0,0,0-1.29.24,9.83,9.83,0,0,0-1.61.72L195.6,75.4h-4.67l4.62-20.09h4.67l-1.66,7.2a19.13,19.13,0,0,1,2.6-1.48,6.38,6.38,0,0,1,2.61-.54,4.36,4.36,0,0,1,3,1,3.26,3.26,0,0,1,1.08,2.69Zm9.37,11.6a8.8,8.8,0,0,1-5.72-1.64,5.54,5.54,0,0,1-2-4.54,9.3,9.3,0,0,1,.67-3.62,8.53,8.53,0,0,1,4.89-4.84,10.32,10.32,0,0,1,3.92-.7,7.67,7.67,0,0,1,4.89,1.32,4.67,4.67,0,0,1,1.64,3.87,7.62,7.62,0,0,1-.19,1.72c-.14.56-.27,1.12-.46,1.66h-10.8v.32a2.84,2.84,0,0,0,1.08,2.37,5.19,5.19,0,0,0,3.25.86,8,8,0,0,0,2.9-.51,13,13,0,0,0,2.36-1.16h.51l-.86,3.74a13.18,13.18,0,0,1-2.84.88,17.9,17.9,0,0,1-3.23.27Zm3.55-9.48a2.37,2.37,0,0,0,0-.43c0-.14,0-.27,0-.4a1.91,1.91,0,0,0-.65-1.56,2.62,2.62,0,0,0-1.82-.54,3.78,3.78,0,0,0-2.42.78,4.66,4.66,0,0,0-1.48,2.18h6.29Zm12.65,9.48a10.11,10.11,0,0,1-2.79-.38,5.76,5.76,0,0,1-2.26-1.15,5.47,5.47,0,0,1-1.48-1.91,6.31,6.31,0,0,1-.53-2.66,8.63,8.63,0,0,1,.75-3.62,8.33,8.33,0,0,1,2.09-2.93,9.63,9.63,0,0,1,3.23-1.94,11.45,11.45,0,0,1,4.11-.72,12.92,12.92,0,0,1,2.63.29,10.35,10.35,0,0,1,2.44.86l-1,4H240a4.92,4.92,0,0,0-1.72-1.37,5.08,5.08,0,0,0-2.15-.46,4.38,4.38,0,0,0-3.52,1.56,5.81,5.81,0,0,0-1.34,3.9,3.18,3.18,0,0,0,.83,2.41,3.5,3.5,0,0,0,2.55.81,5.64,5.64,0,0,0,2.45-.54A10.16,10.16,0,0,0,239,70.67h.67l-1,4a15.13,15.13,0,0,1-2.44.86,12.68,12.68,0,0,1-2.74.24Zm23-.4h-4.89L248.65,69l-2,1.83-1.07,4.59h-4.68l4.62-20.09h4.68l-2.77,12,6.5-6.39h5.35l-6.72,6.31Zm18.24-9.19A10.66,10.66,0,0,1,274,70a9,9,0,0,1-4.92,5.1,10.17,10.17,0,0,1-4,.72,7.22,7.22,0,0,1-5-1.55,5.46,5.46,0,0,1-1.71-4.3,10.47,10.47,0,0,1,.64-3.68A8.91,8.91,0,0,1,264,61.14a10,10,0,0,1,4-.75,7.26,7.26,0,0,1,5,1.53,5.48,5.48,0,0,1,1.72,4.24Zm-6.05,4.76a6.39,6.39,0,0,0,.89-2,9.51,9.51,0,0,0,.3-2.61,3,3,0,0,0-.6-2,2.2,2.2,0,0,0-1.85-.72,3.11,3.11,0,0,0-1.72.48,4.79,4.79,0,0,0-1.31,1.34,7.14,7.14,0,0,0-.84,2,9.6,9.6,0,0,0-.29,2.47,2.78,2.78,0,0,0,.67,2.12,2.51,2.51,0,0,0,1.8.64,3.24,3.24,0,0,0,1.61-.45,4,4,0,0,0,1.34-1.26Zm24.61-10.05-3.36,14.5h-4.67l.37-1.61c-.45.3-.91.59-1.37.84a6.29,6.29,0,0,1-1.26.61,6.81,6.81,0,0,1-1.37.43,6.39,6.39,0,0,1-1.23.11,4.49,4.49,0,0,1-3-.91,3.35,3.35,0,0,1-1.1-2.72,8.92,8.92,0,0,1,0-.91,7,7,0,0,1,.16-.91l2.18-9.43h4.7l-1.67,7.2c-.13.56-.21,1-.29,1.42a7.29,7.29,0,0,0-.11,1,1.67,1.67,0,0,0,.4,1.24,2.47,2.47,0,0,0,1.56.37,4.46,4.46,0,0,0,1.32-.24,12.12,12.12,0,0,0,1.61-.7l2.36-10.28h4.73Zm5.91,14.77a5.68,5.68,0,0,1-3.44-.8,2.78,2.78,0,0,1-1-2.37c0-.26,0-.53.05-.8s.11-.57.16-.92l1.59-6.87h-1.91l.7-3.06h1.91l1-4.14h4.67l-.94,4.14h4.35l-.7,3.06h-4.35L300,69.12c-.08.35-.16.72-.24,1.1a4.38,4.38,0,0,0-.11.94,1.2,1.2,0,0,0,.43,1.07,2.25,2.25,0,0,0,1.35.3,5.09,5.09,0,0,0,.94-.14,4.39,4.39,0,0,0,.94-.29h.37l-.72,3.11a9.87,9.87,0,0,1-1.67.3c-.59,0-1.32.13-2.12.13Z" transform="translate(-47.4 -35.46)" style="fill:#1f1e6f"/></svg>