<svg id="VNPAY" xmlns="http://www.w3.org/2000/svg" viewBox="0 0 199.41 60.46"><path d="M132.79,44.73,127,50.5l-.29.28-1.83,1.84L123.55,54l-1.83,1.83-.29.28-.79.81-.29.27h0l-2.7,2.69h0l-.28.28a12.12,12.12,0,0,1-2.66,2,10.53,10.53,0,0,1-1.44.68,11.54,11.54,0,0,1-3.48.76,11.34,11.34,0,0,1-2.18,0,11.77,11.77,0,0,1-4.5-1.44,7.92,7.92,0,0,1-1.73-1.21h0l-.33-.33L90.55,50l-.22-.21a4,4,0,0,1-1-2.68,1.93,1.93,0,0,1,0-.34v-.69h0A4.15,4.15,0,0,1,90,44.63c.09-.11.19-.22.29-.32l.19-.18L101.8,33h0l6.78-6.76a4,4,0,0,1,5.49-.19Z" transform="translate(-89.29 -25.02)" style="fill:#135ca3"/><path d="M112.42,69.87a6.43,6.43,0,0,1-2.63-.59l-2.15-2.14-.53-.52-.09-.1-1-1-5-5.06.33.33A8.13,8.13,0,0,0,103.1,62a11.66,11.66,0,0,0,4.5,1.44,13.1,13.1,0,0,0,2.17,0,11.61,11.61,0,0,0,3.49-.77A11.06,11.06,0,0,0,114.7,62a12.35,12.35,0,0,0,2.65-2l.29-.27h0l2.7-2.7h0l.28-.27.8-.81.28-.27,1.83-1.83,1.36-1.37,1.87-1.73.29-.29L138.65,39l4.76-5.29h0l.26-.24a3.74,3.74,0,0,1,5.29,0L151.58,36h.09a4.33,4.33,0,0,0-3.2,1.23l-8.87,8.64-.08.1L124.13,61.35h0l-5.7,5.58h0l-.34.36a10.27,10.27,0,0,1-2.64,1.84,7.26,7.26,0,0,1-1.7.58,7.11,7.11,0,0,1-1,.13Z" transform="translate(-89.29 -25.02)" style="fill:#eb1b24"/><path d="M165.79,55.53l-.29.28L153,68.55,139.73,81.94a10.18,10.18,0,0,1-1.32,1.14h0l-.19.13h0a12.14,12.14,0,0,1-15.43-1.08h0l-.35-.2-2.26-2.26-6.39-6.39-2.13-2.15-.29-.3a6,6,0,0,0,1,.09h.3a7,7,0,0,0,1.21-.16,7.87,7.87,0,0,0,2-.66,11.44,11.44,0,0,0,2.88-2l.39-.42,4.9-4.81h0l16.85-16.57.08-.12,8.28-8a3.26,3.26,0,0,1,4.07-.36l1.94,1.94h0l10.52,10.54a2.43,2.43,0,0,1,.26.29A3.74,3.74,0,0,1,165.79,55.53Z" transform="translate(-89.29 -25.02)" style="fill:#eb1b24"/><path d="M125.12,41.58a.83.83,0,0,1-1.1,0,12.79,12.79,0,1,0-18.14,18l3.89,3.92a.11.11,0,0,1,0,.08h0a10.73,10.73,0,0,1-2.12,0l-2.88-2.88a14.32,14.32,0,0,1,20.32-20.18h0A.78.78,0,0,1,125.12,41.58Z" transform="translate(-89.29 -25.02)" style="fill:#1c9ac4"/><path d="M131.09,46.48,130,47.54l-1.89-1.9a.76.76,0,0,1,0-1.08h0a.76.76,0,0,1,1.08,0h0Z" transform="translate(-89.29 -25.02)" style="fill:#1c9ac4"/><path d="M114.77,62.11h0a10.48,10.48,0,0,1-1.44.67L108,57.47A9.8,9.8,0,0,1,106.9,45a.79.79,0,0,1,1.07-.2.76.76,0,0,1,.19,1.06h0a8.27,8.27,0,0,0,1,10.51Z" transform="translate(-89.29 -25.02)" style="fill:#1c9ac4"/><path d="M127.86,49.66h0l-.79.79-.26.26-6-6a8.26,8.26,0,0,0-8.5-2,.76.76,0,0,1-1-.37.77.77,0,0,1,.37-1l.17-.05a9.75,9.75,0,0,1,10,2.42Z" transform="translate(-89.29 -25.02)" style="fill:#1c9ac4"/><path d="M124.67,52.86l-1.08,1.08-6-6a3.75,3.75,0,0,0-5.26,5.29l3.85,3.87a.76.76,0,0,1-1.08,1.08l-3.92-3.87a5.29,5.29,0,0,1,7.51-7.44Z" transform="translate(-89.29 -25.02)" style="fill:#1c9ac4"/><path d="M121.47,56.05h0l-.79.8-.26.25-6-6A.76.76,0,1,1,115.49,50Z" transform="translate(-89.29 -25.02)" style="fill:#1c9ac4"/><path d="M271.86,55.71,263,42.94l-.9-.82h8.82l5.95,9.64.48-.38L280.9,46a2.8,2.8,0,0,0-.49-3.91h8.28L279.11,55.7v9.86l1.69,2H270.45l1.44-2c0-3.28-.11-6.6,0-9.88ZM247.69,42.12a3.66,3.66,0,0,1,1,2.18,3,3,0,0,1-.19,1.44l-6.61,19.2A7.27,7.27,0,0,1,240,67.45h7.21a2.91,2.91,0,0,1-1-1.72,2.71,2.71,0,0,1,0-1.44l1.44-4.56h8.4l1.31,3.52a3.74,3.74,0,0,1,.25,1.1,3.31,3.31,0,0,1-1.34,3.15h11.31a10.3,10.3,0,0,1-2.69-3.28l-8.28-22.17Zm7.21,14.42h-6l2.88-8.31,3.1,8.31Zm-30.14-14.4h12.61a6.92,6.92,0,0,1,6.91,6.9v.85a6.92,6.92,0,0,1-6.88,6.83l-3.15.1a6.46,6.46,0,0,0,3.27-6.76c-.25-2.13-1.34-4.18-3.17-4.22h-1.16v18.9a1.52,1.52,0,0,0,.26.85,13.2,13.2,0,0,0,1.16,1.54l.33.4h-9.8l.42-.56a6.58,6.58,0,0,0,.76-1.31,2,2,0,0,0,.19-.87V44.46C226.46,43.39,225.41,42.79,224.76,42.14Z" transform="translate(-89.29 -25.02)" style="fill:#135ca3;fill-rule:evenodd"/><path d="M171.66,42h7.91l6.64,19,5.64-15.77a1.8,1.8,0,0,0-.23-1.34c-.31-.65-.64-1.27-1-1.9h5.9c-.34,1.28-.86,2.69-1.31,4l-7.64,22.22a12.42,12.42,0,0,1-6.19-2.88,10.81,10.81,0,0,1-2.5-4.48l-6.38-17A14.79,14.79,0,0,0,171.66,42Zm31.59,9v13.6c0,.55.13.65.47,1.1l1.56,2h-7.45l1.25-1.92a2,2,0,0,0,.46-1.32v-19L197.45,42h7.73l12.49,16.15V45.34a2,2,0,0,0-.44-1.34c-.42-.65-.87-1.27-1.29-1.91h7.38l-1.44,2c-.34.43-.47.53-.47,1.09V68.25a10.52,10.52,0,0,1-7.77-4Z" transform="translate(-89.29 -25.02)" style="fill:#eb1b24;fill-rule:evenodd"/><path d="M179.57,76.27a1.34,1.34,0,0,0,1.54,1.54,3.7,3.7,0,0,0,1.27-.23c.2-.09.26,0,.26.18v.12c0,.17,0,.24-.26.35a3.18,3.18,0,0,1-1.26.21c-1.52,0-2.24-.68-2.24-2.17V74.82a2,2,0,0,1,1.69-2.24,1.63,1.63,0,0,1,.54,0,3.48,3.48,0,0,1,1.23.23c.2.07.24.15.24.33v.11c0,.22-.09.28-.27.2a3.25,3.25,0,0,0-1.23-.24c-1.07,0-1.44.52-1.44,1.64Z" transform="translate(-89.29 -25.02)" style="fill:#1c9ac4"/><path d="M181.12,78.46c-1.54,0-2.26-.71-2.26-2.19V74.82a2,2,0,0,1,1.69-2.24,1.75,1.75,0,0,1,.56,0,3.48,3.48,0,0,1,1.23.23c.21.08.25.17.25.34v.33s-.11,0-.21,0a3.44,3.44,0,0,0-1.23-.23c-1,0-1.44.51-1.44,1.63v1.44c0,1.05.46,1.53,1.53,1.53a3.15,3.15,0,0,0,1.25-.23h.22s0,.1,0,.22V78c0,.19,0,.26-.26.35A3,3,0,0,1,181.12,78.46Zm0-5.87a2,2,0,0,0-2.23,1.67,1.94,1.94,0,0,0,0,.59v1.44c0,1.45.72,2.17,2.25,2.17a2.78,2.78,0,0,0,1.24-.22c.21-.09.26-.16.26-.33v-.35s-.09,0-.19,0a3.22,3.22,0,0,1-1.27.23c-1.06,0-1.55-.47-1.55-1.54V74.81c0-1.14.47-1.64,1.52-1.64a3.07,3.07,0,0,1,1.24.23h.19a.23.23,0,0,0,0-.2v-.12c0-.16,0-.24-.26-.33a3.32,3.32,0,0,0-1.21-.17Z" transform="translate(-89.29 -25.02)" style="fill:#1c9ac4"/><path d="M183.57,72.58c0-.25,0-.29.28-.29h.1c.23,0,.27,0,.27.29v2a1.54,1.54,0,0,1,1.44-.59c1,0,1.63.43,1.63,1.44v2.59c0,.23,0,.28-.27.28h-.12c-.23,0-.27,0-.27-.28V75.56c0-.69-.3-1-1.12-1s-1.21.34-1.21,1.14v2.38c0,.23,0,.27-.28.27h-.1c-.22,0-.27,0-.27-.27Z" transform="translate(-89.29 -25.02)" style="fill:#1c9ac4"/><path d="M187,78.34h-.12c-.23,0-.27,0-.27-.29V75.56c0-.71-.33-1-1.13-1s-1.19.33-1.19,1.12v2.38c0,.23,0,.29-.29.29h-.1c-.23,0-.29,0-.29-.29v-5.5c0-.26,0-.31.29-.31h.1c.23,0,.29,0,.29.31v2a1.54,1.54,0,0,1,1.44-.58c1.08,0,1.63.52,1.63,1.56v2.59C187.29,78.34,187.19,78.34,187,78.34Zm-1.52-3.82c.81,0,1.14.3,1.14,1v2.52c0,.23,0,.26.26.26H187c.23,0,.27,0,.27-.26V75.46c0-1-.55-1.53-1.61-1.53a1.44,1.44,0,0,0-1.44.59h0V72.58c0-.23,0-.28-.26-.28h-.1c-.22,0-.28,0-.28.28v5.57c0,.23,0,.26.28.26h.1c.23,0,.26,0,.26-.26V75.7c0-.8.41-1.15,1.26-1.15Z" transform="translate(-89.29 -25.02)" style="fill:#1c9ac4"/><path d="M188.16,76.6v-.81c0-1.23.65-1.85,1.93-1.85A1.68,1.68,0,0,1,192,75.79v.81c0,1.24-.64,1.84-1.92,1.84S188.16,77.81,188.16,76.6Zm3.18-.81c0-.85-.3-1.23-1.25-1.23s-1.27.38-1.27,1.23v.81c0,.85.32,1.22,1.27,1.22s1.25-.37,1.25-1.22Z" transform="translate(-89.29 -25.02)" style="fill:#1c9ac4"/><path d="M190.09,78.46c-1.33,0-1.93-.6-1.93-1.86v-.81a1.88,1.88,0,0,1,.47-1.44,2,2,0,0,1,1.44-.46c1.32,0,1.92.59,1.92,1.86v.8a1.67,1.67,0,0,1-1.4,1.91A2.09,2.09,0,0,1,190.09,78.46Zm0-4.5a2,2,0,0,0-1.44.45,1.81,1.81,0,0,0-.48,1.44v.8c0,1.26.61,1.83,1.92,1.83a2,2,0,0,0,1.44-.44A1.87,1.87,0,0,0,192,76.6v-.81c0-1.25-.62-1.77-1.92-1.77Zm0,3.88c-.92,0-1.28-.35-1.28-1.24v-.81c0-.89.34-1.24,1.28-1.24s1.27.35,1.27,1.24v.81C191.36,77.5,191,77.84,190.09,77.84Zm0-3.26c-.92,0-1.26.32-1.26,1.21v.81c0,.88.35,1.21,1.26,1.21s1.25-.32,1.25-1.21v-.81C191.34,74.9,191,74.58,190.09,74.58Z" transform="translate(-89.29 -25.02)" style="fill:#1c9ac4"/><path d="M195.19,75.76c0-1.15.62-1.82,2-1.82a2.42,2.42,0,0,1,.76.12c.22,0,.28.13.28.33v.09c0,.21,0,.29-.28.21a2.11,2.11,0,0,0-.75-.13c-1,0-1.31.39-1.31,1.22v.85c0,.87.39,1.19,1.44,1.19a2.27,2.27,0,0,0,.78-.11c.2-.08.26,0,.26.21V78c0,.19,0,.26-.27.32a2.54,2.54,0,0,1-.82.11c-1.34,0-2-.58-2-1.81Z" transform="translate(-89.29 -25.02)" style="fill:#1c9ac4"/><path d="M197.16,78.46a2.15,2.15,0,0,1-1.44-.45,1.86,1.86,0,0,1-.49-1.44V75.7a1.8,1.8,0,0,1,.49-1.34,2.06,2.06,0,0,1,1.44-.49,2.53,2.53,0,0,1,.77.12c.23,0,.27.14.27.34v.32a.2.2,0,0,1-.21,0,2.43,2.43,0,0,0-.75-.11c-.94,0-1.31.34-1.31,1.19v.85c0,.87.37,1.18,1.44,1.18a2,2,0,0,0,.77-.11h.21s.07.1.07.23V78c0,.2,0,.27-.29.33A2.9,2.9,0,0,1,197.16,78.46Zm0-4.5c-1.28,0-1.94.62-1.94,1.8v.87c0,1.23.62,1.8,2,1.8a3.23,3.23,0,0,0,.82-.1c.22,0,.27-.13.27-.32v-.3s-.1,0-.18,0a2.71,2.71,0,0,1-.8.11c-1,0-1.44-.34-1.44-1.21v-.85c0-.86.39-1.22,1.33-1.22a2,2,0,0,1,.75.13h.2s0-.11,0-.22v-.09c0-.18,0-.26-.26-.33a2.48,2.48,0,0,0-.72,0Z" transform="translate(-89.29 -25.02)" style="fill:#1c9ac4"/><path d="M199.54,76.8c0,.69.29,1,1.17,1s1.17-.32,1.17-1V74.31c0-.22,0-.28.29-.28h.08c.25,0,.29,0,.29.28V76.8c0,1.06-.53,1.64-1.83,1.64s-1.89-.55-1.89-1.64V74.31c0-.22,0-.28.29-.28h.09c.24,0,.29,0,.29.28Z" transform="translate(-89.29 -25.02)" style="fill:#1c9ac4"/><path d="M200.71,78.46c-1.21,0-1.83-.57-1.83-1.66V74.31c0-.22,0-.29.27-.29h.1c.25,0,.29,0,.29.29V76.8c0,.73.33,1,1.17,1s1.15-.28,1.15-1V74.31c0-.22,0-.29.31-.29h.08c.26,0,.29,0,.29.29V76.8a1.57,1.57,0,0,1-.42,1.22A2,2,0,0,1,200.71,78.46ZM199.15,74c-.2,0-.26,0-.26.26v2.49a1.54,1.54,0,0,0,.45,1.22,2,2,0,0,0,1.44.41,1.91,1.91,0,0,0,1.44-.42,1.55,1.55,0,0,0,.42-1.21V74.31c0-.21,0-.26-.27-.26h-.09c-.22,0-.27,0-.27.26V76.8c0,.75-.33,1-1.18,1s-1.19-.29-1.19-1V74.31c0-.21,0-.26-.27-.26Z" transform="translate(-89.29 -25.02)" style="fill:#1c9ac4"/><path d="M203.42,76.6v-.81c0-1.23.63-1.85,1.93-1.85a1.65,1.65,0,0,1,1.9,1.85v.81c0,1.24-.63,1.84-1.9,1.84A1.68,1.68,0,0,1,203.42,76.6Zm3.18-.81c0-.85-.3-1.23-1.25-1.23s-1.28.38-1.28,1.23v.81c0,.85.33,1.22,1.28,1.22s1.25-.37,1.25-1.22Zm-1.87-3c.2-.32.33-.43.62-.43s.4.09.62.43l.33.52c.1.16,0,.2-.11.2h0a.32.32,0,0,1-.36-.2l-.21-.35c-.13-.24-.27-.24-.41,0l-.19.35a.34.34,0,0,1-.36.2h-.09c-.17,0-.2,0-.1-.2Zm.32,6.43a.43.43,0,0,1,.6.62.44.44,0,0,1-.6,0,.43.43,0,0,1,0-.61Z" transform="translate(-89.29 -25.02)" style="fill:#1c9ac4"/><path d="M205.35,80a.45.45,0,0,1-.43-.43.39.39,0,0,1,.13-.32h0a.38.38,0,0,1,.3-.13.45.45,0,0,1,.45.45.43.43,0,0,1-.13.3A.48.48,0,0,1,205.35,80Zm0-.87a.43.43,0,0,0-.3.13h0a.45.45,0,0,0-.12.31.42.42,0,0,0,.12.3.43.43,0,0,0,.6,0,.39.39,0,0,0,.13-.3A.44.44,0,0,0,205.35,79.1Zm0-.64c-1.33,0-1.94-.6-1.94-1.86v-.81a1.86,1.86,0,0,1,.49-1.44,2,2,0,0,1,1.44-.46c1.31,0,1.91.59,1.91,1.86v.8a1.67,1.67,0,0,1-1.4,1.91A2.09,2.09,0,0,1,205.35,78.46Zm0-4.5a1.94,1.94,0,0,0-1.44.45,1.84,1.84,0,0,0-.48,1.44v.8c0,1.26.61,1.83,1.92,1.83a2,2,0,0,0,1.44-.44,1.83,1.83,0,0,0,.48-1.44v-.81c0-1.25-.62-1.77-1.92-1.77Zm0,3.88c-.92,0-1.28-.35-1.28-1.24v-.81c0-.89.34-1.24,1.28-1.24s1.25.35,1.25,1.24v.81C206.6,77.5,206.27,77.84,205.35,77.84Zm0-3.26c-.92,0-1.27.32-1.27,1.21v.81c0,.88.36,1.21,1.27,1.21s1.24-.32,1.24-1.21v-.81C206.59,74.9,206.26,74.58,205.35,74.58Zm.84-1h0a.33.33,0,0,1-.36-.22l-.21-.33a.21.21,0,0,0-.2-.19h0s-.14,0-.2.19l-.2.33a.33.33,0,0,1-.36.22h-.25a.76.76,0,0,1,0-.16l.34-.52c.21-.32.33-.43.63-.43s.4.08.62.43l.33.52c0,.07.09.13,0,.16S206.29,73.53,206.19,73.53Zm-.84-.75h0a.26.26,0,0,1,.22.18l.2.35a.31.31,0,0,0,.34.2h.16s0,0,0-.14l-.24-.56c-.2-.35-.33-.44-.61-.44s-.4.1-.62.44l-.33.52v.14s0,0,.15,0h0a.35.35,0,0,0,.34-.2l.2-.35C205.21,72.84,205.28,72.78,205.35,72.78Z" transform="translate(-89.29 -25.02)" style="fill:#1c9ac4"/><path d="M208.1,75.76c0-1.15.62-1.82,2-1.82a2.53,2.53,0,0,1,.77.12c.21,0,.27.13.27.33v.09c0,.21,0,.29-.27.21a2.15,2.15,0,0,0-.75-.13c-1,0-1.31.39-1.31,1.22v.85c0,.87.39,1.19,1.37,1.19a2.4,2.4,0,0,0,.79-.11c.2-.08.26,0,.26.21V78c0,.19,0,.26-.29.32a2.44,2.44,0,0,1-.81.11c-1.35,0-2-.58-2-1.81Z" transform="translate(-89.29 -25.02)" style="fill:#1c9ac4"/><path d="M210.09,78.46a2.14,2.14,0,0,1-1.44-.45,1.78,1.78,0,0,1-.49-1.44V75.7a1.8,1.8,0,0,1,.48-1.34,2,2,0,0,1,1.44-.49,2.64,2.64,0,0,1,.78.12c.21,0,.26.14.26.34v.32a.22.22,0,0,1-.22,0,2.39,2.39,0,0,0-.75-.11c-.92,0-1.31.34-1.31,1.19v.85c0,.87.37,1.18,1.37,1.18a2.08,2.08,0,0,0,.78-.11.26.26,0,0,1,.21,0V78c0,.2,0,.27-.27.33A3.38,3.38,0,0,1,210.09,78.46Zm0-4.5c-1.27,0-1.94.62-1.94,1.8v.87c0,1.23.62,1.8,2,1.8a3.15,3.15,0,0,0,.81-.1c.21,0,.27-.13.27-.32v-.3s-.1,0-.19,0a2.6,2.6,0,0,1-.79.11c-1,0-1.44-.34-1.44-1.21v-.85c0-.86.39-1.22,1.33-1.22a2,2,0,0,1,.76.13h.19s0-.11,0-.22v-.09c0-.18,0-.26-.26-.33a2.29,2.29,0,0,0-.74,0Z" transform="translate(-89.29 -25.02)" style="fill:#1c9ac4"/><path d="M214.08,77.88c0-.22,0-.27.29-.23a5.09,5.09,0,0,0,1.29.19c.67,0,1-.13,1-.51s-.15-.43-.57-.63L215,76.19c-.56-.27-.82-.53-.82-1.14s.52-1,1.55-1a3.45,3.45,0,0,1,1.1.16c.2,0,.26.13.26.33v.08c0,.22,0,.26-.28.21a3.1,3.1,0,0,0-1.09-.16c-.65,0-.89.13-.89.49s.15.43.46.57l1.12.51c.59.29.88.55.88,1.18s-.53,1.12-1.66,1.12a4,4,0,0,1-1.24-.16c-.23-.07-.29-.14-.29-.33Z" transform="translate(-89.29 -25.02)" style="fill:#1c9ac4"/><path d="M215.61,78.46a4.45,4.45,0,0,1-1.25-.18c-.22,0-.28-.13-.28-.33h0v-.21s.12,0,.24,0a4.94,4.94,0,0,0,1.28.17c.69,0,1-.13,1-.49s-.13-.42-.56-.62l-1.08-.52c-.54-.26-.83-.52-.83-1.14s.51-1.12,1.58-1.12a3.11,3.11,0,0,1,1.09.17c.22,0,.27.13.27.33v.09a.26.26,0,0,1,0,.21.3.3,0,0,1-.23,0,3.26,3.26,0,0,0-1.08-.17c-.63,0-.88.15-.88.49a.63.63,0,0,0,.45.56l1.12.52c.58.26.88.54.88,1.18S216.74,78.46,215.61,78.46Zm-1.44-.81h-.09v.2h0c0,.19,0,.26.28.32a4.69,4.69,0,0,0,1.24.16c1.14,0,1.64-.34,1.64-1.11s-.3-.91-.86-1.17l-1.13-.52a.62.62,0,0,1-.47-.58c0-.36.26-.5.9-.5a3.38,3.38,0,0,1,1.1.17h.2a.23.23,0,0,0,0-.2v-.09c0-.2,0-.24-.26-.31a3.1,3.1,0,0,0-1.09-.16c-1.06,0-1.55.34-1.55,1.09s.28.87.81,1.13l1.07.52c.43.2.57.36.57.63s-.25.51-1,.51a5.16,5.16,0,0,1-1.3-.18Z" transform="translate(-89.29 -25.02)" style="fill:#1c9ac4"/><path d="M218.11,76.6v-.81c0-1.23.64-1.85,1.93-1.85A1.67,1.67,0,0,1,222,75.79v.81c0,1.24-.63,1.84-1.91,1.84S218.11,77.81,218.11,76.6Zm3.18-.81c0-.85-.29-1.23-1.25-1.23s-1.27.38-1.27,1.23v.81c0,.85.32,1.22,1.27,1.22s1.25-.37,1.25-1.22Zm-1.87-3c.21-.32.33-.43.62-.43s.41.09.62.43l.34.52c.1.16,0,.2-.11.2h0a.32.32,0,0,1-.36-.2l-.21-.35c-.14-.24-.28-.24-.41,0l-.2.35a.34.34,0,0,1-.37.2h0c-.18,0-.21,0-.11-.2Zm2.23-.52a.36.36,0,0,1-.37.2h-.09c-.2,0-.23,0-.13-.21l.36-.71a.41.41,0,0,1,.45-.26H222c.23,0,.28,0,.15.25Z" transform="translate(-89.29 -25.02)" style="fill:#1c9ac4"/><path d="M220,78.46c-1.31,0-1.93-.6-1.93-1.86v-.81a1.88,1.88,0,0,1,.47-1.44,2.09,2.09,0,0,1,1.44-.46c1.31,0,1.93.59,1.93,1.86v.8A1.67,1.67,0,0,1,220,78.46Zm0-4.5a2,2,0,0,0-1.44.45,1.81,1.81,0,0,0-.48,1.44v.8c0,1.26.61,1.83,1.92,1.83a2,2,0,0,0,1.44-.44A1.82,1.82,0,0,0,222,76.6v-.81c-.07-1.25-.62-1.77-1.91-1.77Zm0,3.88c-.93,0-1.29-.35-1.29-1.24v-.81c0-.89.35-1.24,1.29-1.24s1.26.35,1.26,1.24v.81C221.3,77.5,221,77.84,220,77.84Zm0-3.26c-.93,0-1.26.32-1.26,1.21v.81c0,.88.35,1.21,1.26,1.21s1.25-.32,1.25-1.21v-.81C221.29,74.9,220.94,74.58,220,74.58Zm.85-1h0a.36.36,0,0,1-.38-.22l-.2-.33c-.13-.25-.26-.25-.4,0l-.19.33a.36.36,0,0,1-.38.22h-.17a.76.76,0,0,1,0-.16l.33-.52c.21-.32.33-.43.62-.43s.42.08.64.43l.33.52v.16S221,73.53,220.89,73.53Zm-.85-.75a.25.25,0,0,1,.21.18l.2.35a.35.35,0,0,0,.36.2H221s0,0,0-.14l-.33-.52c-.21-.35-.33-.43-.62-.43s-.4.1-.6.43l-.33.52v.14s0,0,.15,0h0a.34.34,0,0,0,.36-.2l.19-.35C219.89,72.84,220,72.78,220,72.78Zm1.24-.29H221a.31.31,0,0,1,0-.19l.38-.7a.41.41,0,0,1,.47-.33h.33s0,.1,0,.21l-.43.73A.45.45,0,0,1,221.28,72.49Zm.59-1.2a.43.43,0,0,0-.44.26l-.37.71v.17s0,0,.17,0h.09a.42.42,0,0,0,.37-.21l.44-.73c0-.1.08-.15,0-.18s-.09,0-.21,0Z" transform="translate(-89.29 -25.02)" style="fill:#1c9ac4"/><path d="M223.54,78.08c0,.23,0,.27-.28.27h-.1c-.21,0-.28,0-.28-.27V75.59c0-1.1.62-1.65,1.84-1.65s1.82.58,1.82,1.65v2.49c0,.23,0,.27-.28.27h-.06c-.24,0-.28,0-.28-.27V75.59c0-.71-.28-1-1.16-1s-1.18.34-1.18,1Z" transform="translate(-89.29 -25.02)" style="fill:#1c9ac4"/><path d="M226.2,78.34h0c-.24,0-.3,0-.3-.29V75.59c0-.74-.3-1-1.14-1s-1.16.27-1.16,1v2.49c0,.23,0,.29-.29.29h-.1c-.22,0-.29,0-.29-.29V75.59c0-1.1.62-1.66,1.84-1.66a2,2,0,0,1,1.44.43,1.61,1.61,0,0,1,.44,1.23v2.49C226.55,78.34,226.51,78.34,226.2,78.34Zm-1.44-3.79c.85,0,1.17.29,1.17,1v2.49c0,.23,0,.26.27.26h0c.24,0,.28,0,.28-.26V75.59a1.54,1.54,0,0,0-.43-1.21,1.91,1.91,0,0,0-1.29-.36,2,2,0,0,0-1.44.4,1.6,1.6,0,0,0-.46,1.23v2.49c0,.23,0,.26.28.26h.18c.23,0,.28,0,.28-.26V75.59C223.54,74.84,223.87,74.55,224.76,74.55Z" transform="translate(-89.29 -25.02)" style="fill:#1c9ac4"/><path d="M231.09,75.57c0,1-.59,1.53-1.82,1.53a4.71,4.71,0,0,0-.92,0,.25.25,0,0,0-.21.27c0,.12,0,.21.23.25a6.76,6.76,0,0,0,.9,0,3,3,0,0,1,1.45.27,1,1,0,0,1,.43.94,1.18,1.18,0,0,1-.43,1,2.71,2.71,0,0,1-1.45.3,2.79,2.79,0,0,1-1.44-.3,1.07,1.07,0,0,1-.41-.92,1,1,0,0,1,.5-.94.58.58,0,0,1-.36-.58c0-.39.23-.62.71-.69a1.23,1.23,0,0,1-.74-1.27h0c0-.95.68-1.44,1.82-1.44a2.12,2.12,0,0,1,.9.17l.51-.45c.14-.13.22-.13.36,0h0c.14.13.14.2,0,.35l-.39.4a1.29,1.29,0,0,1,.37,1Zm-2.67,2.68A.75.75,0,0,0,228,79c0,.58.33.73,1.26.73s1.27-.15,1.27-.74-.31-.65-1.27-.65A6.18,6.18,0,0,1,228.42,78.25Zm2-2.79c0-.62-.39-.92-1.16-.92s-1.16.3-1.16.92v.11c0,.62.29.94,1.16.94s1.16-.32,1.16-.94Z" transform="translate(-89.29 -25.02)" style="fill:#1c9ac4"/><path d="M229.27,80.27a2.69,2.69,0,0,1-1.44-.29,1.08,1.08,0,0,1-.41-.93,1,1,0,0,1,.47-.94.59.59,0,0,1-.34-.58q0-.57.69-.69a1.24,1.24,0,0,1-.72-1.27v-.11a1.41,1.41,0,0,1,.49-1.13,2.45,2.45,0,0,1,2.24-.23l.51-.43c.14-.14.22-.14.36,0h0c.09.07.11.12.11.17s0,.1-.11.19l-.39.39a1.25,1.25,0,0,1,.39,1v.12c0,1-.62,1.52-1.83,1.52a4.71,4.71,0,0,0-.92,0,.28.28,0,0,0-.21.26c0,.12.08.19.22.23a4.61,4.61,0,0,0,.91,0,2.91,2.91,0,0,1,1.51.28,1,1,0,0,1,.42.93,1.16,1.16,0,0,1-.43,1.06A2.92,2.92,0,0,1,229.27,80.27Zm0-6.31c-1.12,0-1.8.56-1.8,1.44v.12a1.23,1.23,0,0,0,.72,1.26h0c-.47.08-.7.29-.7.68a.61.61,0,0,0,.36.58h0a1,1,0,0,0-.49.92,1.09,1.09,0,0,0,.4.92,2.89,2.89,0,0,0,1.44.29,2.65,2.65,0,0,0,1.44-.29,1.19,1.19,0,0,0,.44-1,1,1,0,0,0-.42-.92,2.87,2.87,0,0,0-1.44-.27,4.82,4.82,0,0,1-.93,0,.25.25,0,0,1-.21-.25.25.25,0,0,1,.21-.27,3.62,3.62,0,0,1,.93,0,2.16,2.16,0,0,0,1.44-.37,1.45,1.45,0,0,0,.44-1.14v-.16a1.21,1.21,0,0,0-.38-1h0l.38-.4c.09,0,.12-.13.12-.17a.23.23,0,0,0-.1-.16h-.07c-.13-.13-.2-.13-.35,0l-.5.44h0a2.27,2.27,0,0,0-.93-.18Zm0,5.76c-1,0-1.26-.17-1.26-.73a.68.68,0,0,1,.41-.72h0a6,6,0,0,0,.85,0c1,0,1.29.1,1.29.66s-.32.85-1.29.85Zm-.85-1.44a.74.74,0,0,0-.4.71c0,.55.29.72,1.25.72s1.26-.17,1.26-.74-.3-.64-1.26-.64a8,8,0,0,1-.85,0Zm.85-1.74c-.83,0-1.16-.27-1.16-1v-.13c0-.64.37-.94,1.16-.94s1.17.32,1.17.94v.11c0,.68-.33,1-1.17,1Zm0-2c-.77,0-1.15.3-1.15.92v.12c0,.66.33.93,1.15.93s1.16-.27,1.16-.93v-.13c0-.61-.39-.92-1.16-.92Z" transform="translate(-89.29 -25.02)" style="fill:#1c9ac4"/><path d="M238.84,73.3c0,.18,0,.24-.24.24h-.52v3.07c0,1.23-.65,1.83-1.93,1.83s-1.92-.6-1.92-1.83v-.82A1.62,1.62,0,0,1,235.66,74a1.7,1.7,0,0,1,.39,0,1.42,1.42,0,0,1,1.44.63v-1h-1.2c-.2,0-.24,0-.24-.24h0c0-.19,0-.25.24-.25h1.2v-.54c0-.25,0-.29.27-.29h0c.22,0,.29,0,.29.29v.47h.52c.19,0,.25,0,.25.25Zm-4,3.3c0,.85.29,1.22,1.26,1.22s1.26-.37,1.26-1.22v-.81c0-.85-.3-1.23-1.26-1.23s-1.26.38-1.26,1.23Z" transform="translate(-89.29 -25.02)" style="fill:#1c9ac4"/><path d="M236.15,78.46a2,2,0,0,1-1.44-.47,1.81,1.81,0,0,1-.48-1.44v-.82a1.94,1.94,0,0,1,.46-1.44,1.82,1.82,0,0,1,1.44-.47,1.42,1.42,0,0,1,1.36.61v-1h-1.2c-.2,0-.26,0-.26-.26h0c0-.2,0-.26.26-.26h1.18v-.34c0-.25,0-.31.29-.31h0c.22,0,.29,0,.29.31V73h.52c.19,0,.26,0,.26.26h0c0,.18,0,.26-.26.26H238v3C238.08,77.84,237.43,78.46,236.15,78.46Zm-.1-4.44a1.87,1.87,0,0,0-1.36.44,1.93,1.93,0,0,0-.44,1.44v.83a1.78,1.78,0,0,0,.46,1.44,2.58,2.58,0,0,0,2.88,0,1.83,1.83,0,0,0,.48-1.44v-3.2h.53c.17,0,.24,0,.24-.23h0c0-.18,0-.23-.24-.23h-.53v-.49c0-.25,0-.28-.28-.28h-.06c-.23,0-.26,0-.26.28v.49h-1.18c-.2,0-.23,0-.23.23h0c0,.17,0,.23.23.23h1.21v1.09h0A1.43,1.43,0,0,0,236.05,74Zm.1,3.87c-.92,0-1.27-.33-1.27-1.24v-.8c0-.9.36-1.24,1.27-1.24s1.28.34,1.28,1.24v.8c0,.84-.36,1.19-1.28,1.19Zm0-3.25c-.89,0-1.25.33-1.25,1.21v.8c0,.9.34,1.21,1.25,1.21s1.25-.31,1.25-1.21v-.8c0-.95-.33-1.27-1.25-1.27Z" transform="translate(-89.29 -25.02)" style="fill:#1c9ac4"/><path d="M239,76.6v-.81c0-1.23.63-1.85,1.93-1.85,1,0,1.53.34,1.77,1,.13,0,.26-.23.26-.7,0-.13,0-.17.2-.17h.15c.16,0,.19,0,.19.17,0,.71-.28,1.06-.7,1.17a1.48,1.48,0,0,1,0,.42v.81c0,1.24-.63,1.84-1.9,1.84A1.66,1.66,0,0,1,239,76.6Zm3.18-.81c0-.85-.3-1.23-1.25-1.23s-1.28.38-1.28,1.23v.81c0,.85.33,1.22,1.28,1.22s1.25-.37,1.25-1.22Z" transform="translate(-89.29 -25.02)" style="fill:#1c9ac4"/><path d="M240.89,78.46c-1.33,0-1.95-.6-1.95-1.86v-.81a1.94,1.94,0,0,1,.49-1.44,2.06,2.06,0,0,1,1.45-.46,1.71,1.71,0,0,1,1.77,1c.17-.07.24-.3.24-.68,0-.14,0-.19.22-.19h.14c.16,0,.21,0,.21.19,0,.64-.23,1-.7,1.18a2.81,2.81,0,0,1,0,.41v.8a1.66,1.66,0,0,1-1.4,1.9A1.49,1.49,0,0,1,240.89,78.46Zm0-4.5a1.94,1.94,0,0,0-1.44.45,1.84,1.84,0,0,0-.48,1.44v.8c0,1.26.61,1.83,1.92,1.83a2,2,0,0,0,1.44-.44,1.87,1.87,0,0,0,.48-1.44v-.81a2.94,2.94,0,0,0,0-.42h0q.69-.21.69-1.17c0-.13,0-.15-.19-.15h-.14c-.15,0-.19,0-.19.15,0,.39-.09.62-.27.71h0c-.32-.65-.87-.89-1.82-.89Zm0,3.88c-.92,0-1.28-.35-1.28-1.24v-.81c0-.89.34-1.24,1.28-1.24s1.25.35,1.25,1.24v.81C242.14,77.5,241.81,77.84,240.89,77.84Zm0-3.26c-.92,0-1.27.32-1.27,1.21v.81c0,.88.36,1.21,1.27,1.21s1.24-.32,1.24-1.21v-.81C242.13,74.9,241.8,74.58,240.89,74.58Z" transform="translate(-89.29 -25.02)" style="fill:#1c9ac4"/><path d="M244.39,78.08c0,.23,0,.27-.29.27H244c-.21,0-.27,0-.27-.27V75.59c0-1.1.62-1.65,1.83-1.65s1.83.58,1.83,1.65v2.49c0,.23,0,.27-.29.27H247c-.24,0-.29,0-.29-.27V75.59c0-.71-.26-1-1.15-1s-1.17.34-1.17,1Z" transform="translate(-89.29 -25.02)" style="fill:#1c9ac4"/><path d="M247.1,78.34H247c-.24,0-.29,0-.29-.29V75.59c0-.74-.31-1-1.15-1s-1.17.27-1.17,1v2.49c0,.23,0,.29-.29.29H244c-.21,0-.28,0-.28-.29V75.59c0-1.1.61-1.66,1.84-1.66a2,2,0,0,1,1.44.43,1.56,1.56,0,0,1,.43,1.23v2.49C247.39,78.34,247.35,78.34,247.1,78.34Zm-1.54-3.82c.85,0,1.17.29,1.17,1v2.49c0,.23,0,.26.27.26h.1c.23,0,.28,0,.28-.26V75.59a1.61,1.61,0,0,0-.42-1.21,1.94,1.94,0,0,0-1.44-.42,2,2,0,0,0-1.44.4,1.57,1.57,0,0,0-.47,1.23v2.49c0,.23,0,.26.28.26h.1c.23,0,.27,0,.27-.26V75.59c.12-.75.45-1,1.3-1Z" transform="translate(-89.29 -25.02)" style="fill:#1c9ac4"/><path d="M254.28,75.57c0,1-.59,1.53-1.8,1.53a4.92,4.92,0,0,0-.94,0,.27.27,0,0,0-.22.27c0,.12,0,.21.24.25a7.06,7.06,0,0,0,.92,0,3,3,0,0,1,1.44.27,1,1,0,0,1,.42.94,1.19,1.19,0,0,1-.44,1,2.66,2.66,0,0,1-1.44.3,2.77,2.77,0,0,1-1.52-.3,1.1,1.1,0,0,1-.41-.92A1,1,0,0,1,251,78a.58.58,0,0,1-.36-.58c0-.39.23-.62.71-.69a1.23,1.23,0,0,1-.74-1.27h0c0-.95.68-1.44,1.83-1.44a2.15,2.15,0,0,1,.9.17l.5-.45c.15-.13.22-.13.36,0h0c.15.13.15.2,0,.35l-.39.4a1.33,1.33,0,0,1,.38,1Zm-2.67,2.68a.78.78,0,0,0-.42.72c0,.58.34.73,1.29.73s1.25-.15,1.25-.74-.32-.65-1.25-.65A6.36,6.36,0,0,1,251.61,78.25Zm2-2.79c0-.62-.38-.92-1.14-.92s-1.17.3-1.17.92v.11c0,.62.28.94,1.17.94s1.14-.32,1.14-.94Z" transform="translate(-89.29 -25.02)" style="fill:#1c9ac4"/><path d="M252.48,80.27A2.79,2.79,0,0,1,251,80a1.08,1.08,0,0,1-.42-.93,1,1,0,0,1,.49-.94.58.58,0,0,1-.36-.58q0-.57.69-.69a1.24,1.24,0,0,1-.72-1.27v-.11a1.48,1.48,0,0,1,.49-1.13,2.47,2.47,0,0,1,2.25-.23l.51-.43c.14-.14.21-.14.36,0h0c.08.07.11.12.11.17s0,.1-.11.19l-.38.39a1.33,1.33,0,0,1,.38,1v.12c0,1-.62,1.52-1.82,1.52a4.92,4.92,0,0,0-.94,0,.27.27,0,0,0-.2.26c0,.12,0,.19.22.23a4.71,4.71,0,0,0,.92,0,2.86,2.86,0,0,1,1.44.28,1,1,0,0,1,.43.93,1.16,1.16,0,0,1-.44,1.06A2.92,2.92,0,0,1,252.48,80.27Zm0-6.31c-1.14,0-1.82.56-1.82,1.44v.12a1.23,1.23,0,0,0,.72,1.26h0c-.47.08-.69.29-.69.68A.62.62,0,0,0,251,78h0a1,1,0,0,0-.49.92,1,1,0,0,0,.41.92,4,4,0,0,0,3,0,1.15,1.15,0,0,0,.42-1,1,1,0,0,0-.42-.92,2.73,2.73,0,0,0-1.44-.27,4.71,4.71,0,0,1-.92,0,.23.23,0,0,1-.23-.25.25.25,0,0,1,.21-.27,3.7,3.7,0,0,1,.94,0,2.19,2.19,0,0,0,1.36-.37,1.45,1.45,0,0,0,.44-1.14v-.16a1.22,1.22,0,0,0-.39-1h0l.41-.4a.3.3,0,0,0,.1-.17.23.23,0,0,0-.1-.16h0c-.15-.15-.2-.13-.36,0l-.51.44h0a2.24,2.24,0,0,0-1-.18Zm0,5.76c-1,0-1.29-.17-1.29-.73a.71.71,0,0,1,.42-.72h0a6.31,6.31,0,0,0,.87,0c.93,0,1.27.1,1.27.66s-.44.85-1.27.85Zm-.87-1.44a.74.74,0,0,0-.4.71c0,.55.29.72,1.27.72s1.24-.17,1.24-.74-.31-.64-1.24-.64a8.42,8.42,0,0,1-.87,0Zm.87-1.74c-.84,0-1.18-.27-1.18-1v-.13c0-.64.38-.94,1.18-.94s1.15.32,1.15.94v.11c0,.68-.33,1-1.15,1Zm0-2c-.8,0-1.17.3-1.17.92v.12c0,.66.33.93,1.17.93s1.14-.27,1.14-.93v-.13c0-.61-.39-.92-1.14-.92Z" transform="translate(-89.29 -25.02)" style="fill:#1c9ac4"/><path d="M256,72.68a.42.42,0,0,1-.41.43h0a.44.44,0,0,1-.45-.42h0a.46.46,0,0,1,.45-.44A.44.44,0,0,1,256,72.68Zm-.75,1.63c0-.22,0-.28.27-.28h.1c.22,0,.28,0,.28.28v3.77c0,.23,0,.27-.28.27h-.1c-.24,0-.27,0-.27-.27Z" transform="translate(-89.29 -25.02)" style="fill:#1c9ac4"/><path d="M255.66,78.34h-.1c-.24,0-.29,0-.29-.29V74.31c0-.22,0-.29.29-.29h.1c.22,0,.29,0,.29.29v3.77C256,78.34,255.88,78.34,255.66,78.34Zm-.1-4.32c-.23,0-.27,0-.27.26v3.77c0,.23,0,.26.27.26h.1c.2,0,.26,0,.26-.26V74.31c0-.21,0-.26-.26-.26Zm0-.94a.43.43,0,1,1,0-.86h0a.43.43,0,1,1,0,.86Zm0-.85a.42.42,0,0,0,0,.84h0a.42.42,0,1,0,0-.84Z" transform="translate(-89.29 -25.02)" style="fill:#1c9ac4"/><path d="M260.36,77.06c0,1-.56,1.44-1.83,1.44-1,0-1.64-.4-1.64-1.31s.59-1.29,1.78-1.29h1v-.59c0-.59-.42-.79-1.15-.79a4.5,4.5,0,0,0-1,.1c-.21,0-.28,0-.28-.21v-.08c0-.2,0-.26.27-.3a5,5,0,0,1,.95-.09c1.23,0,1.83.47,1.83,1.37Zm-.65-.69h-1c-.77,0-1.13.21-1.13.76s.33.75,1,.75,1.18-.19,1.18-.85Zm-1-2.89c-.15,0-.17,0-.2-.17s.13-.35.39-.62a.37.37,0,0,0,.12-.2c0-.16,0-.23-.16-.23a.86.86,0,0,0-.39,0c-.1,0-.17,0-.23-.09V72.1c0-.13,0-.19.13-.23a1.15,1.15,0,0,1,.52-.1.58.58,0,0,1,.62.53v.12c0,.37-.52.53-.54.82a.19.19,0,0,1-.17.17Z" transform="translate(-89.29 -25.02)" style="fill:#1c9ac4"/><path d="M258.53,78.46c-1.08,0-1.66-.47-1.66-1.33s.55-1.3,1.8-1.3h1v-.52c0-.54-.35-.77-1.14-.77a4.54,4.54,0,0,0-1,.08h-.23s0-.1,0-.2v-.07c0-.2,0-.26.28-.32a5,5,0,0,1,.95-.09c1.22,0,1.84.48,1.84,1.45v1.74C260.38,78,259.8,78.46,258.53,78.46Zm.14-2.6c-1.23,0-1.78.39-1.78,1.27s.56,1.3,1.64,1.3a2.34,2.34,0,0,0,1.44-.32,1.19,1.19,0,0,0,.45-1V75.31a1.23,1.23,0,0,0-.46-1,2.35,2.35,0,0,0-1.37-.33,4.31,4.31,0,0,0-.95.09c-.22,0-.26.08-.26.28v.26s.1,0,.21,0a5.23,5.23,0,0,1,1-.1c.81,0,1.15.25,1.15.81v.55Zm-.14,2c-.68,0-1-.25-1-.75s.34-.78,1.13-.78h1V77C259.71,77.74,259.27,77.88,258.53,77.88Zm.14-1.44c-.79,0-1.12.21-1.12.75s.32.73,1,.73,1.17-.23,1.17-.83v-.65Zm0-2.88c-.17,0-.18,0-.21-.18s.09-.31.27-.52l.13-.13a.22.22,0,0,0,.1-.18c0-.16,0-.22-.14-.23h0a.73.73,0,0,0-.33.08c-.12,0-.19,0-.26-.1v-.07c0-.14,0-.19.13-.23a1.15,1.15,0,0,1,.52-.1.56.56,0,0,1,.62.65.76.76,0,0,1-.29.49.56.56,0,0,0-.25.33.18.18,0,0,1-.17.17Zm.11-1.26h0c.08,0,.17,0,.17.25a.32.32,0,0,1-.12.2l-.13.13c-.18.19-.28.29-.27.49s0,.16.2.16h0a.2.2,0,0,0,.16-.16A.59.59,0,0,1,259,73a.7.7,0,0,0,.31-.44.56.56,0,0,0-.6-.64,1.3,1.3,0,0,0-.52.1c-.1,0-.16.09-.12.22h0c0,.13.13.13.23.1A.83.83,0,0,1,258.78,72.3Z" transform="translate(-89.29 -25.02)" style="fill:#1c9ac4"/><path d="M262,78.08c0,.23,0,.27-.29.27h-.1c-.21,0-.27,0-.27-.27V75.59c0-1.1.62-1.65,1.83-1.65s1.83.58,1.83,1.65v2.49c0,.23,0,.27-.29.27h-.1c-.25,0-.29,0-.29-.27V75.59c0-.71-.26-1-1.15-1s-1.17.34-1.17,1Z" transform="translate(-89.29 -25.02)" style="fill:#1c9ac4"/><path d="M264.67,78.34h-.1c-.25,0-.29,0-.29-.29V75.59c0-.74-.32-1-1.15-1s-1.17.27-1.17,1v2.49c0,.23,0,.29-.29.29h-.1c-.21,0-.29,0-.29-.29V75.59c0-1.1.62-1.66,1.85-1.66a2,2,0,0,1,1.44.43,1.6,1.6,0,0,1,.43,1.23v2.49C265,78.34,264.92,78.34,264.67,78.34Zm-1.54-3.82c.85,0,1.17.29,1.17,1v2.49c0,.23,0,.26.27.26h.1c.23,0,.27,0,.27-.26V75.59a1.56,1.56,0,0,0-.41-1.21,2,2,0,0,0-1.45-.42,2,2,0,0,0-1.44.4,1.6,1.6,0,0,0-.46,1.23v2.49c0,.23.07.26.28.26h.1c.23,0,.27,0,.27-.26V75.59c.12-.75.4-1,1.3-1Z" transform="translate(-89.29 -25.02)" style="fill:#1c9ac4"/><path d="M268.4,72.58c0-.25,0-.29.29-.29h.1c.23,0,.28,0,.28.29v2a1.51,1.51,0,0,1,1.44-.59c1.06,0,1.61.5,1.61,1.54v2.59c0,.23,0,.28-.27.28h-.12c-.23,0-.27,0-.27-.28V75.56c0-.69-.32-1-1.13-1s-1.21.34-1.21,1.14v2.38c0,.23,0,.27-.27.27h-.1c-.23,0-.29,0-.29-.27Z" transform="translate(-89.29 -25.02)" style="fill:#1c9ac4"/><path d="M271.79,78.34h-.12c-.23,0-.28,0-.28-.29V75.56c0-.71-.32-1-1.11-1s-1.2.33-1.2,1.12v2.38c0,.23,0,.29-.29.29h-.1c-.22,0-.29,0-.29-.29v-5.5c0-.26,0-.31.29-.31h.1c.23,0,.29,0,.29.31v2a1.54,1.54,0,0,1,1.44-.58c1.08,0,1.63.52,1.63,1.56v2.59C272.08,78.34,272,78.34,271.79,78.34Zm-1.44-3.82c.81,0,1.14.3,1.14,1v2.52c0,.23,0,.26.26.26h.11c.23,0,.26,0,.26-.26V75.46c0-1-.53-1.53-1.6-1.53a1.54,1.54,0,0,0-1.44.59h0V72.58c0-.23,0-.28-.26-.28h-.1c-.22,0-.27,0-.27.28v5.57c0,.23,0,.26.27.26h.1c.22,0,.26,0,.26-.26V75.7c0-.8.36-1.15,1.2-1.15Z" transform="translate(-89.29 -25.02)" style="fill:#1c9ac4"/><path d="M273,76.6v-.81c0-1.23.63-1.85,1.93-1.85a1.68,1.68,0,0,1,1.77,1c.13,0,.26-.23.26-.7,0-.13,0-.17.21-.17h.14c.16,0,.19,0,.19.17,0,.71-.29,1.06-.7,1.17a1.48,1.48,0,0,1,0,.42v.81c0,1.24-.63,1.84-1.9,1.84A1.66,1.66,0,0,1,273,76.6Zm3.19-.81c0-.85-.31-1.23-1.26-1.23s-1.28.38-1.28,1.23v.81c0,.85.32,1.22,1.28,1.22s1.26-.37,1.26-1.22Z" transform="translate(-89.29 -25.02)" style="fill:#1c9ac4"/><path d="M274.93,78.46c-1.32,0-1.94-.6-1.94-1.86v-.81a1.86,1.86,0,0,1,.49-1.44,2,2,0,0,1,1.44-.46c.95,0,1.51.3,1.77,1,.17-.07.24-.3.24-.68,0-.14,0-.19.22-.19h.14c.16,0,.21,0,.21.19,0,.64-.23,1-.7,1.18a2.81,2.81,0,0,1,0,.41v.8a1.66,1.66,0,0,1-1.4,1.9A1.48,1.48,0,0,1,274.93,78.46Zm0-4.5a1.94,1.94,0,0,0-1.44.45,1.84,1.84,0,0,0-.48,1.44v.8c0,1.26.61,1.83,1.92,1.83a2,2,0,0,0,1.44-.44,1.83,1.83,0,0,0,.48-1.44v-.81a2.94,2.94,0,0,0,0-.42h0c.46-.14.68-.53.68-1.17,0-.13,0-.15-.18-.15h-.14c-.15,0-.19,0-.19.15,0,.39-.09.62-.27.71h0c-.32-.65-.87-.89-1.82-.89Zm0,3.88c-.92,0-1.28-.35-1.28-1.24v-.81c0-.89.34-1.24,1.28-1.24s1.26.35,1.26,1.24v.81C276.19,77.5,275.85,77.84,274.93,77.84Zm0-3.26c-.92,0-1.27.32-1.27,1.21v.81c0,.88.36,1.21,1.27,1.21s1.24-.32,1.24-1.21v-.81C276.17,74.9,275.84,74.58,274.93,74.58Z" transform="translate(-89.29 -25.02)" style="fill:#1c9ac4"/><path d="M278.43,78.08c0,.23,0,.27-.28.27h-.06c-.22,0-.28,0-.28-.27V75.59q0-1.65,1.83-1.65c1.23,0,1.83.58,1.83,1.65v2.49c0,.23,0,.27-.28.27h-.1c-.25,0-.29,0-.29-.27V75.59c0-.71-.26-1-1.16-1s-1.16.34-1.16,1Z" transform="translate(-89.29 -25.02)" style="fill:#1c9ac4"/><path d="M281.14,78.34H281c-.24,0-.29,0-.29-.29V75.59c0-.74-.31-1-1.15-1s-1.17.27-1.17,1v2.49c0,.23,0,.29-.28.29h-.06c-.22,0-.29,0-.29-.29V75.59c0-1.1.62-1.66,1.84-1.66a2,2,0,0,1,1.45.43,1.6,1.6,0,0,1,.43,1.23v2.49C281.43,78.34,281.39,78.34,281.14,78.34Zm-1.54-3.82c.85,0,1.17.29,1.17,1v2.49c0,.23,0,.26.27.26h.1c.23,0,.28,0,.28-.26V75.59a1.61,1.61,0,0,0-.42-1.21,1.94,1.94,0,0,0-1.44-.42,2,2,0,0,0-1.44.4,1.53,1.53,0,0,0-.46,1.23v2.49c0,.23.07.26.27.26h.16c.23,0,.27,0,.27-.26V75.59c.06-.75.39-1,1.24-1Z" transform="translate(-89.29 -25.02)" style="fill:#1c9ac4"/></svg>