<svg id="Wafacash" xmlns="http://www.w3.org/2000/svg" viewBox="0 0 196.28 65.1"><defs><style>.cls-1{fill:#999;}.cls-2{fill:#ffe812;}</style></defs><path class="cls-1" d="M106.6,52.76v5.75h6.2V52.76ZM90.2,24.32l16.37,0,.06,8.94c.52,3.13,3.55,5.45,6.54,8.93,5.52,6,11.42,12.79,11.42,12.79s-3.81,4.34-8.59,9.62c-2.17,2.81-4.51,5-6.29,7s-3,3.58-3.12,5.31l0,8.68H90.2V24.32Z" transform="translate(-88.31 -22.41)"/><path d="M153.52,22.41v65.1H88.31V22.41Zm-1.79,1.91H90.2V85.59h61.53V24.32Z" transform="translate(-88.31 -22.41)"/><path class="cls-2" d="M151.73,24.32V85.59H106.51l24.82-28.16a4.16,4.16,0,0,0,1.25-2.67,3.42,3.42,0,0,0-.88-1.85,5.64,5.64,0,0,0-.87-1L106.5,24.32Z" transform="translate(-88.31 -22.41)"/><polygon points="18.3 30.34 24.49 30.34 24.49 36.1 18.3 36.1 18.3 30.34 18.3 30.34"/><path d="M124.59,55h8.06c-8.06,0-8.06,0-8.06,0Zm8.06,0a3.29,3.29,0,0,1-1,2.2c-.44.44-25.12,28.46-25.12,28.46V77.68a7.75,7.75,0,0,1,2.21-5.11c1-1.15,15.83-17.62,15.83-17.62s-14.86-16.48-15.83-17.62a7.8,7.8,0,0,1-2.21-5.12V24.29s24.68,28,25.12,28.45a3.29,3.29,0,0,1,1,2.21Z" transform="translate(-88.31 -22.41)"/><path d="M280.49,38.21c-4.79-.57-5.77,1.43-5.51,3.78h5.51V38.21ZM284,35.28v9.61c0,6-8.87,6.79-14.88,5.59V48c1.47.16,11.5,1.39,11.5-3.43H272.2s-2.44-9.07,6.28-9.34c1.51-.05,3.81-.12,5.52,0Z" transform="translate(-88.31 -22.41)"/><polygon points="175.14 3.57 179.02 3.57 179.02 6.91 175.14 6.91 175.14 3.57 175.14 3.57"/><polygon points="175.14 3.57 179.02 3.57 179.02 6.91 175.14 6.91 175.14 3.57 175.14 3.57"/><path d="M265.53,34.57c-4.79-.58-5.77,1-5.51,3.34h5.51V34.57Zm3.52,7.88a2.41,2.41,0,0,1-2.67,2.62H242.13a2.41,2.41,0,0,1-2.67-2.62v-16h3.78l0,15.85h22.29V40.53h-8.32s-2.47-9,6.28-9h5.53V42.45Z" transform="translate(-88.31 -22.41)"/><polygon points="100.17 4.07 103.89 4.07 103.89 7.25 100.17 7.25 100.17 4.07 100.17 4.07"/><polygon points="102.8 8.15 106.52 8.15 106.52 11.34 102.8 11.34 102.8 8.15 102.8 8.15"/><polygon points="97.54 8.15 101.27 8.15 101.27 11.34 97.54 11.34 97.54 8.15 97.54 8.15"/><path d="M210.72,37.82c6.52-2.65,20.57-2.2,20.57,4.06v.4H207V26.43h-3.78v16a2.41,2.41,0,0,0,2.67,2.62H235V43.61c0-8.94-6.91-10.68-14.33-10l16.44-7.2H231L210.72,34.8v3Z" transform="translate(-88.31 -22.41)"/><path d="M163.61,40.16v4.23c0,2,2.11,2.89,4.34,2.89h8.49c3.5,0,4.36-.89,4.36-3.49V36.2h3.83v5.68h3.86V36.19h3.85v5.69h3.85V36.19h3.85v5.7a2.51,2.51,0,0,1-2.62,2.78H184.61v0c0,4.24-2.75,5.4-8.09,5.4h-8.64c-3.62,0-8.09-1.16-8.09-5.83V40.16Z" transform="translate(-88.31 -22.41)"/><path d="M163.61,40.16v4.23c0,2,2.11,2.89,4.34,2.89h8.49c3.5,0,4.36-.89,4.36-3.49V36.2h3.83v5.68h3.86V36.19h3.85v5.69h3.85V36.19h3.85v5.7a2.51,2.51,0,0,1-2.62,2.78H184.61v0c0,4.24-2.75,5.4-8.09,5.4h-8.64c-3.62,0-8.09-1.16-8.09-5.83V40.16Z" transform="translate(-88.31 -22.41)"/><path d="M204.86,72.64a3.81,3.81,0,0,1-1.68,3.16,6.47,6.47,0,0,1-4,1.26,6.65,6.65,0,0,1-4.08-1.26,3.82,3.82,0,0,1-1.69-3.16,3.66,3.66,0,0,1,1.46-3.08,6.42,6.42,0,0,1,4-1.11h2.76v0a2.2,2.2,0,0,0-2.47-2.52,20.89,20.89,0,0,0-4.16.65l-.72-2.42a20,20,0,0,1,4.88-.76,6.24,6.24,0,0,1,4.18,1.33,4.54,4.54,0,0,1,1.56,3.67Zm-3.27,0V70.52h-2.76a1.88,1.88,0,0,0-2.15,2.1,1.66,1.66,0,0,0,.66,1.29,2.69,2.69,0,0,0,1.84.63,2.64,2.64,0,0,0,1.78-.61A1.68,1.68,0,0,0,201.59,72.64Z" transform="translate(-88.31 -22.41)"/><path d="M216.71,59l-.66,2.42a9.79,9.79,0,0,0-2-.27,1.66,1.66,0,0,0-1.13.4,1.38,1.38,0,0,0-.48,1.11v.86H216l-.23,2.33h-3.33v11h-3.27v-11h-2V63.55h2v-.86a3.54,3.54,0,0,1,1.55-3,5.56,5.56,0,0,1,3.36-1A11.3,11.3,0,0,1,216.71,59Z" transform="translate(-88.31 -22.41)"/><path d="M228.87,72.64a3.8,3.8,0,0,1-1.67,3.16,6.5,6.5,0,0,1-4,1.26,6.64,6.64,0,0,1-4.07-1.26,3.79,3.79,0,0,1-1.69-3.16,3.64,3.64,0,0,1,1.46-3.08,6.4,6.4,0,0,1,4-1.11h2.75v0a2.2,2.2,0,0,0-2.46-2.52,20.89,20.89,0,0,0-4.16.65l-.72-2.42a20,20,0,0,1,4.88-.76,6.19,6.19,0,0,1,4.17,1.33,4.54,4.54,0,0,1,1.56,3.67Zm-3.27,0V70.52h-2.75a1.88,1.88,0,0,0-2.15,2.1,1.66,1.66,0,0,0,.66,1.29,2.68,2.68,0,0,0,1.83.63,2.64,2.64,0,0,0,1.78-.61A1.68,1.68,0,0,0,225.6,72.64Z" transform="translate(-88.31 -22.41)"/><path d="M242.47,76.51a20,20,0,0,1-4.62.55,6.67,6.67,0,0,1-4.33-1.34,4.69,4.69,0,0,1-1.78-3.88V68.58a4.8,4.8,0,0,1,1.78-3.92,6.83,6.83,0,0,1,4.33-1.31,19.55,19.55,0,0,1,4.54.58l-.66,2.42a18.17,18.17,0,0,0-3.85-.47c-1.91,0-2.87.9-2.87,2.7v3.26c0,1.8,1,2.7,2.87,2.7a20.26,20.26,0,0,0,3.93-.48Z" transform="translate(-88.31 -22.41)"/><path d="M256.5,72.64a3.82,3.82,0,0,1-1.67,3.16,6.5,6.5,0,0,1-4,1.26,6.64,6.64,0,0,1-4.07-1.26,3.79,3.79,0,0,1-1.69-3.16,3.64,3.64,0,0,1,1.46-3.08,6.4,6.4,0,0,1,4-1.11h2.75v0a2.2,2.2,0,0,0-2.46-2.52,20.89,20.89,0,0,0-4.16.65l-.72-2.42a20,20,0,0,1,4.88-.76,6.19,6.19,0,0,1,4.17,1.33,4.54,4.54,0,0,1,1.56,3.67Zm-3.27,0V70.52h-2.75a1.88,1.88,0,0,0-2.15,2.1,1.66,1.66,0,0,0,.66,1.29,2.68,2.68,0,0,0,1.83.63,2.64,2.64,0,0,0,1.78-.61A1.68,1.68,0,0,0,253.23,72.64Z" transform="translate(-88.31 -22.41)"/><path d="M269.62,73.12a3.37,3.37,0,0,1-1.38,2.71A6.73,6.73,0,0,1,264,77.06a17.39,17.39,0,0,1-4.76-.75l.66-2.43a19.86,19.86,0,0,0,4.1.66,3,3,0,0,0,1.84-.48,1.1,1.1,0,0,0,.54-.91c0-.71-.58-1.25-1.75-1.62a17.82,17.82,0,0,1-3.5-1.36,3.4,3.4,0,0,1-1.6-3.06,3.22,3.22,0,0,1,1.43-2.7,6.11,6.11,0,0,1,3.73-1.06,16.63,16.63,0,0,1,4.45.68l-.63,2.4a17.38,17.38,0,0,0-3.82-.55q-1.92,0-1.92,1.23a1.06,1.06,0,0,0,.34.87,3.49,3.49,0,0,0,1.21.57A20.69,20.69,0,0,1,268,69.92,3.5,3.5,0,0,1,269.62,73.12Z" transform="translate(-88.31 -22.41)"/><path d="M284.59,76.83h-3.27V68.48c0-1.75-.85-2.63-2.55-2.63a8.44,8.44,0,0,0-2.87.53V76.83h-3.27v-18h3.27v5a8.62,8.62,0,0,1,2.87-.53,6.23,6.23,0,0,1,4.17,1.39,4.62,4.62,0,0,1,1.65,3.74Z" transform="translate(-88.31 -22.41)"/><path d="M190,58.35l-3.71,9.48-.13.36c-.67,1.77-1.3,3.46-1.81,5.1-.43-1.7-1-3.52-1.71-5.4l-3.43-9.54h-4.13l-3.76,9.48c-.75,1.89-1.52,3.83-2,5.53-.46-1.56-1.07-3.43-1.8-5.49l-3.34-9.52h-4.41l7.15,18.82.07.19h4.13l4-9.77a40.58,40.58,0,0,0,1.87-5,46.88,46.88,0,0,0,1.59,5l3.54,9.76h4.14l8.06-19Z" transform="translate(-88.31 -22.41)"/></svg>