<svg id="Webpay" xmlns="http://www.w3.org/2000/svg" viewBox="0 0 199.14 64.37"><defs><style>.cls-1{fill:#1b9ac4;}.cls-2{fill:#6b1a6b;}.cls-3{fill:#d6146e;}</style></defs><g id="_1.Webpay_FB_80px" data-name=" 1.Webpay FB 80px"><path class="cls-1" d="M87.05,78.06A1.1,1.1,0,1,0,86,77a1.1,1.1,0,0,0,1.09,1.1" transform="translate(-76.03 -22.41)"/><path class="cls-2" d="M171.56,86.67a1.1,1.1,0,1,0-1.09-1.1,1.09,1.09,0,0,0,1.09,1.1" transform="translate(-76.03 -22.41)"/><path class="cls-3" d="M119.86,80h0a3.89,3.89,0,0,0-1.2-3L118.6,77h0a4.37,4.37,0,0,0-2.87-1h-.29a4.37,4.37,0,0,0-2.87,1h0l-.07.06a3.9,3.9,0,0,0-1.2,2.94h0v6.31a.34.34,0,0,0,.1.23.42.42,0,0,0,.24.09h1.13a.44.44,0,0,0,.24-.09.33.33,0,0,0,.09-.23v-6.1a2.66,2.66,0,0,1,.64-1.94,2.94,2.94,0,0,1,3.69,0,2.71,2.71,0,0,1,.65,1.94v6.1a.3.3,0,0,0,.1.23.39.39,0,0,0,.24.09h1.12a.39.39,0,0,0,.24-.09.3.3,0,0,0,.1-.23Z" transform="translate(-76.03 -22.41)"/><path class="cls-3" d="M159,80h0a3.89,3.89,0,0,0-1.2-3l-.07-.06h0a4.37,4.37,0,0,0-2.87-1h-.29a4.35,4.35,0,0,0-2.87,1h0l-.07.06a3.86,3.86,0,0,0-1.2,2.94h0v6.31a.34.34,0,0,0,.1.23.39.39,0,0,0,.24.09h1.12a.39.39,0,0,0,.24-.09.3.3,0,0,0,.1-.23v-6.1a2.71,2.71,0,0,1,.65-1.94,2.94,2.94,0,0,1,3.69,0,2.71,2.71,0,0,1,.65,1.94v6.1a.33.33,0,0,0,.09.23.44.44,0,0,0,.24.09h1.13a.42.42,0,0,0,.24-.09.34.34,0,0,0,.1-.23Z" transform="translate(-76.03 -22.41)"/><path class="cls-3" d="M138,81.32v.08a5.8,5.8,0,0,1-.49,2.7,2.23,2.23,0,0,1-2.15,1.14h-.06a2.24,2.24,0,0,1-2.17-1.15,5.77,5.77,0,0,1-.5-2.7v-.07a5,5,0,0,1,.5-2.51,2.23,2.23,0,0,1,2.17-1.14h0a2.22,2.22,0,0,1,2.17,1.14A5,5,0,0,1,138,81.32Zm.34-4.22,0,0a4.21,4.21,0,0,0-2.85-1h-.07a4.1,4.1,0,0,0-2.77.92h0v-.63h0V73.23a.31.31,0,0,0-.09-.22.36.36,0,0,0-.24-.09h-1.11A.36.36,0,0,0,131,73a.32.32,0,0,0-.1.22v3.18h0v6.75h0v3.17a.32.32,0,0,0,.1.22.35.35,0,0,0,.24.1h1.11a.37.37,0,0,0,.24-.1.31.31,0,0,0,.09-.22v-.66a3.63,3.63,0,0,0,2.77,1.11h.07a4.21,4.21,0,0,0,2.85-1,6,6,0,0,0,1.47-4.46,5.64,5.64,0,0,0-1.45-4.26" transform="translate(-76.03 -22.41)"/><path class="cls-3" d="M108.17,82.8a2,2,0,0,1-.43,1.52,3,3,0,0,1-2.24.64h0a3.11,3.11,0,0,1-1.76-.38,1.24,1.24,0,0,1-.48-1.09v0a1.32,1.32,0,0,1,.48-1.12,2.91,2.91,0,0,1,1.7-.4h2.76ZM110,79.56v0a3.21,3.21,0,0,0-1.1-2.6,4.94,4.94,0,0,0-3.22-.91h-.07a4.41,4.41,0,0,0-3.49,1.25h0l0,.06-.19.23h0l-.09.11a.24.24,0,0,0-.07.23.31.31,0,0,0,.12.23l0,0,.06.07.2.16.52.46a.33.33,0,0,0,.25.08.26.26,0,0,0,.21-.11l.34-.39h0a2,2,0,0,1,.69-.51,3.79,3.79,0,0,1,1.52-.24h0a2.91,2.91,0,0,1,1.92.5,1.8,1.8,0,0,1,.52,1.45v.69h-2.88a4.57,4.57,0,0,0-2.83.82,2.83,2.83,0,0,0-1.09,2.31v0a3,3,0,0,0,.85,2.13,4.21,4.21,0,0,0,3.2,1h.77a3.85,3.85,0,0,0,3-1,4.14,4.14,0,0,0,.87-2.88Z" transform="translate(-76.03 -22.41)"/><path class="cls-3" d="M142.4,83.5v0a1.31,1.31,0,0,1,.48-1.12,2.83,2.83,0,0,1,1.7-.41h2.76v.86a2,2,0,0,1-.43,1.53,3.06,3.06,0,0,1-2.24.63h0a3.11,3.11,0,0,1-1.76-.38,1.22,1.22,0,0,1-.48-1.09m6.8-3.92v0a3.21,3.21,0,0,0-1.1-2.6,5,5,0,0,0-3.22-.9h-.07a4.43,4.43,0,0,0-3.5,1.25h0l-.05.06-.19.23h0l-.09.11a.34.34,0,0,0-.06.24.37.37,0,0,0,.12.23l.05,0,.06.07.2.16.52.45a.38.38,0,0,0,.25.09.33.33,0,0,0,.22-.11l.33-.4h0a1.94,1.94,0,0,1,.69-.5,3.77,3.77,0,0,1,1.52-.25h0a2.85,2.85,0,0,1,1.92.51,1.74,1.74,0,0,1,.52,1.45v.69h-2.88a4.51,4.51,0,0,0-2.83.81,2.85,2.85,0,0,0-1.09,2.32v0a3,3,0,0,0,.85,2.12,4.22,4.22,0,0,0,3.21,1h.76a3.85,3.85,0,0,0,3-1,4.11,4.11,0,0,0,.87-2.87Z" transform="translate(-76.03 -22.41)"/><path class="cls-3" d="M92.72,76.07h-1.9V74.14h0v-.93a.31.31,0,0,0-.32-.3H89.35a.35.35,0,0,0-.23.09.27.27,0,0,0-.09.21v1.71h0v9a2.72,2.72,0,0,0,.67,1.89,2.67,2.67,0,0,0,2,.79h1a.29.29,0,0,0,.23-.1.34.34,0,0,0,.09-.24V85.16a.38.38,0,0,0-.09-.25.32.32,0,0,0-.23-.09h-.88a1.45,1.45,0,0,1-.45-.08,1.38,1.38,0,0,1-.17-.08l-.13-.11a1.28,1.28,0,0,1-.27-.88V77.86h1.9a.33.33,0,0,0,.23-.1.34.34,0,0,0,.09-.24V76.41a.34.34,0,0,0-.09-.24.29.29,0,0,0-.23-.1" transform="translate(-76.03 -22.41)"/><path class="cls-3" d="M100.91,77.38l-.11-.11s0,0,0,0l-.07-.06h0l-.08-.09-.08-.08h0a3.08,3.08,0,0,0-2.3-1h-.07a2.38,2.38,0,0,0-1.76.8l-.29.35v-.79a.32.32,0,0,0-.1-.22.37.37,0,0,0-.24-.1H94.68a.37.37,0,0,0-.24.1.32.32,0,0,0-.1.22v9.93a.33.33,0,0,0,.1.23.36.36,0,0,0,.24.09h1.11a.36.36,0,0,0,.24-.09.33.33,0,0,0,.1-.23v-.17h0V79.74a2.46,2.46,0,0,1,.49-1.4A1.66,1.66,0,0,1,98,77.71a1.92,1.92,0,0,1,.71.11,2,2,0,0,1,.59.46l0,0,.24.27a.33.33,0,0,0,.23.1.38.38,0,0,0,.24-.09l.83-.76a.36.36,0,0,0,.11-.23.33.33,0,0,0-.07-.24" transform="translate(-76.03 -22.41)"/><path class="cls-3" d="M128.78,81.2h0a4.73,4.73,0,0,0-2.35-.68l-1.65-.14a2.54,2.54,0,0,1-1.36-.4.94.94,0,0,1-.34-.81h0v0a1.19,1.19,0,0,1,.51-1,2.87,2.87,0,0,1,1.68-.41h0a4.48,4.48,0,0,1,2.51.68h0l.42.29a.28.28,0,0,0,.23,0,.32.32,0,0,0,.21-.15l.62-.89a.39.39,0,0,0,.06-.25.5.5,0,0,0,0-.13.35.35,0,0,0-.1-.11l-.07,0a6.69,6.69,0,0,0-3.84-1.1,4.93,4.93,0,0,0-2.93.83,2.78,2.78,0,0,0-1.15,2.27v0a2.53,2.53,0,0,0,.9,2,4.55,4.55,0,0,0,2.55.86l1.7.13a2.3,2.3,0,0,1,1.24.39,1,1,0,0,1,.33.83v0a1.24,1.24,0,0,1-.6,1.12,4,4,0,0,1-2,.42h0a4.2,4.2,0,0,1-2.82-.85l-.35-.3a.3.3,0,0,0-.24-.07.3.3,0,0,0-.22.12l-.71.86a.38.38,0,0,0-.09.25.33.33,0,0,0,.11.22l.34.29h0l0,0h0a6.53,6.53,0,0,0,3.94,1.11h0a5.67,5.67,0,0,0,3.24-.84,2.82,2.82,0,0,0,1.27-2.38v-.05a2.51,2.51,0,0,0-1-2.18" transform="translate(-76.03 -22.41)"/><path class="cls-3" d="M169.52,86.19l-1.38-2-2.78-4.06,2.16-2.29,1.25-1.32.08-.09a.23.23,0,0,0,0-.35.35.35,0,0,0-.24-.1h-1.44a.43.43,0,0,0-.26.13h0l-4.84,5.16V73.2A.33.33,0,0,0,162,73a.34.34,0,0,0-.24-.09h-1.11a.33.33,0,0,0-.23.09.29.29,0,0,0-.1.23V86.31a.29.29,0,0,0,.1.23.34.34,0,0,0,.24.09h1.1a.34.34,0,0,0,.24-.09.29.29,0,0,0,.1-.23V83.66l2.1-2.27,1.41,2.11h0l2,3a.33.33,0,0,0,.28.17h1.44a.35.35,0,0,0,.24-.1.26.26,0,0,0,0-.35" transform="translate(-76.03 -22.41)"/><path class="cls-3" d="M157.13,73h.19l.3.85.29-.85h.19v1H158v-.86l-.29.86h-.13l-.29-.86V74h-.13Z" transform="translate(-76.03 -22.41)"/><path class="cls-3" d="M159.13,73.44a.24.24,0,0,0,.15,0,.17.17,0,0,0,.05-.14.16.16,0,0,0-.07-.15l-.11,0h-.33v.35Zm-.44-.46h.46a.45.45,0,0,1,.18,0,.23.23,0,0,1,.14.24.33.33,0,0,1,0,.15.24.24,0,0,1-.11.09.22.22,0,0,1,.09.07.17.17,0,0,1,0,.12v.14a.22.22,0,0,0,0,.09s0,0,0,0v0h-.17a0,0,0,0,0,0,0v-.25c0-.07,0-.12-.07-.14h-.43V74h-.13Z" transform="translate(-76.03 -22.41)"/><path class="cls-3" d="M158.4,74a.07.07,0,0,1-.07-.07.07.07,0,1,1,.14,0,.07.07,0,0,1-.07.07" transform="translate(-76.03 -22.41)"/><path class="cls-3" d="M159.78,74a.07.07,0,0,1-.07-.07.07.07,0,0,1,.07-.08c.05,0,.07,0,.07.08a.06.06,0,0,1-.07.07Z" transform="translate(-76.03 -22.41)"/><path class="cls-2" d="M181.28,47.54v.23c0,3-.32,5.94-1.47,8s-2.92,3.37-6.43,3.42h-.19c-3.53,0-5.35-1.39-6.48-3.43s-1.48-5.06-1.48-8.08v-.18c0-3,.33-5.41,1.48-7.51s2.95-3.4,6.48-3.43h.14c3.53,0,5.35,1.39,6.49,3.43A15.27,15.27,0,0,1,181.28,47.54Zm1-12.62a.46.46,0,0,0-.07-.07,12.56,12.56,0,0,0-8.5-2.85h-.19a12.17,12.17,0,0,0-8.28,2.74h0V32.86h0v-9.5a.91.91,0,0,0-.3-.67,1,1,0,0,0-.71-.28h-3.31a1,1,0,0,0-.71.28.91.91,0,0,0-.3.67v9.5h0V53h0v9.45a.93.93,0,0,0,.3.67,1,1,0,0,0,.71.28h3.31a1,1,0,0,0,.71-.28.93.93,0,0,0,.3-.67v-2a10.86,10.86,0,0,0,8.28,3.32h.2A12.61,12.61,0,0,0,182.21,61c3.57-3.38,4.38-8.55,4.39-13.35s-.82-9.35-4.32-12.71" transform="translate(-76.03 -22.41)"/><path class="cls-2" d="M211.74,48.27a15.23,15.23,0,0,1-1.46,7.5c-1.14,2-3,3.4-6.49,3.43h-.14c-3.53,0-5.36-1.38-6.48-3.42s-1.47-4.51-1.48-7.51v-.18c0-3,.33-6,1.48-8.09s3-3.39,6.48-3.43h.19c3.51.06,5.31,1.41,6.43,3.43s1.46,5,1.47,8Zm1,12.62c3.51-3.36,4.32-7.93,4.33-12.71s-.82-10-4.38-13.35a12.66,12.66,0,0,0-8.5-2.86H204a10.82,10.82,0,0,0-8.28,3.31v-2a.87.87,0,0,0-.3-.67,1,1,0,0,0-.71-.28h-3.31a1,1,0,0,0-.71.28.91.91,0,0,0-.3.67v9.45h0V63h0v9.5a.93.93,0,0,0,.3.67,1,1,0,0,0,.71.28h3.31a1,1,0,0,0,.71-.28.93.93,0,0,0,.3-.67V63h0V61.07h0A12.11,12.11,0,0,0,204,63.82h.19A12.58,12.58,0,0,0,212.68,61l0-.06" transform="translate(-76.03 -22.41)"/><path class="cls-2" d="M260.18,66.31c-.29.79-.81,2.06-1.16,2.83a9.07,9.07,0,0,1-1.52,2.27,6.52,6.52,0,0,1-2.8,1.69,9,9,0,0,1-1.73.36c-.84.06-2.06.11-2.72.11A1.39,1.39,0,0,1,249.06,72V69.8c0-.84.34-1.53.75-1.53s1.44-.07,2.28-.16a2.64,2.64,0,0,0,1.22-.51,3.25,3.25,0,0,0,.87-1.09c.35-.76.87-2,1.15-2.83l.61-1.72a5,5,0,0,0,0-2.88l-9.25-25.29a1,1,0,0,1,1-1.43h3.24a2.27,2.27,0,0,1,2,1.44L259,51.69c.27.8.7.8,1,0l5.91-17.88a2.27,2.27,0,0,1,2-1.45h3.29a1,1,0,0,1,1,1.43Z" transform="translate(-76.03 -22.41)"/><path class="cls-2" d="M225,54.3v-.07a3.8,3.8,0,0,1,1.42-3.3c1-.74,2.58-1.21,5-1.21h8.17v2.54c0,2.49-.55,3.87-1.29,4.51-1.76,1.63-3.95,1.87-6.62,1.88h-.08c-2.56,0-4.25-.44-5.21-1.14A3.58,3.58,0,0,1,225,54.3M245,42.66v0A9.53,9.53,0,0,0,241.77,35c-2.22-1.82-5.4-2.67-9.5-2.67h-.21c-4.3,0-7.72.92-10.32,3.69h0l-.15.18c-.2.21-.39.44-.58.67h0l-.27.32a.87.87,0,0,0-.2.7,1,1,0,0,0,.35.67l.15.13a1.21,1.21,0,0,0,.2.19l.58.48,1.55,1.34a1,1,0,0,0,.71.25.9.9,0,0,0,.65-.31l1-1.18h0a5.89,5.89,0,0,1,2-1.49,11.54,11.54,0,0,1,4.49-.72h.09c2.87,0,4.65.59,5.67,1.48s1.54,2.22,1.55,4.29V45H231a13.43,13.43,0,0,0-8.37,2.39,8.39,8.39,0,0,0-3.21,6.84v.11A9,9,0,0,0,222,60.65c2.17,2.15,5.07,2.93,9.46,2.93h2.27c4,0,6.89-1,8.74-3s2.6-4.89,2.6-8.48V42.66Z" transform="translate(-76.03 -22.41)"/><path class="cls-2" d="M125.76,32.42a2.25,2.25,0,0,0-2,1.53L118,54.34c-.24.84-.67.85-.94,0l-6.72-20.43a2.36,2.36,0,0,0-2.09-1.51H107a2.34,2.34,0,0,0-2.09,1.51L98.23,54.35c-.27.84-.69.83-.93,0L91.47,34a2.26,2.26,0,0,0-2-1.53H87a1.1,1.1,0,0,0-1.11,1.52l8.92,28.13a2.34,2.34,0,0,0,2.08,1.52h1.69a2.12,2.12,0,0,0,1.87-1.35l6.67-19.9c.28-.83.73-.83,1,0l6.67,19.74a2.38,2.38,0,0,0,2.11,1.51h1.63a2.14,2.14,0,0,0,1.92-1.41l8.9-28.24a1.1,1.1,0,0,0-1.12-1.52Z" transform="translate(-76.03 -22.41)"/><path class="cls-2" d="M156.13,47c0-9.25-4.91-15-12.81-15S130.51,38,130.51,47.87c0,10.22,4.83,15.85,13.6,15.85A14.26,14.26,0,0,0,155.43,59l.4-.4-3.77-3.3-.34.35c-2.41,2.4-4.36,3.25-7.48,3.25-5.2,0-8.14-3.3-8.3-9.3h20.19ZM136,45.22a11,11,0,0,1,.85-4.26,7.16,7.16,0,0,1,13,0,11.26,11.26,0,0,1,.84,4.27Z" transform="translate(-76.03 -22.41)"/><path class="cls-3" d="M79.2,38.87A3.19,3.19,0,1,0,76,35.68a3.18,3.18,0,0,0,3.17,3.19" transform="translate(-76.03 -22.41)"/><path class="cls-3" d="M272,63.57a3.2,3.2,0,1,0-3.17-3.19A3.18,3.18,0,0,0,272,63.57" transform="translate(-76.03 -22.41)"/></g></svg>