<svg id="Worldpay" xmlns="http://www.w3.org/2000/svg" viewBox="0 0 295.1 56.07"><defs><style>.cls-1{fill:#9d9d9c;}.cls-2{fill:#de1e0e;}</style></defs><g id="layer1"><g id="g8241"><path id="path8223" class="cls-1" d="M119.39,84.65l-5.61-23-6.41,23H101L92.77,59.56c-.26-.73-.52-.8-1.18-1L89.14,58l.73-3.17h11.69V58l-3.7.46,6.47,20.8L111,55.66h6.08l5.61,23.58,6.47-20.74L125.4,58l.66-3.17h11V58l-2.11.33c-1,.2-1.19.39-1.45,1.19L125.6,84.65Z" transform="translate(-36.48 -40.87)"/><path id="path8225" class="cls-1" d="M160,69.66c0-7.59-2.77-11-8.38-11s-9,3.37-9,11,3,11.42,8.71,11.42S160,77.59,160,69.66m-22.85,0c0-9.11,4.63-15.39,14.53-15.39s13.74,6.34,13.74,15c0,9.78-4.42,16-14.33,16s-13.94-6.47-13.94-15.65" transform="translate(-36.48 -40.87)"/><path id="path8227" class="cls-1" d="M168.19,84.65V81.48l2.91-.33c.79-.13.92-.26.92-1.19V60.22c0-.66-.19-1.06-.72-1.19L168,57.91l.52-3.11h7.6l.59,4,.2.07c1.92-2.18,4.76-4.63,8.72-4.63a20.18,20.18,0,0,1,4.16.53v8.78l-4.09-.19-.73-4c-.07-.46-.2-.6-.73-.6-2.64,0-5.55,2.38-6.93,3.64V79.83c0,.93.06,1.12.92,1.19l5.35.46v3.11H168.19Z" transform="translate(-36.48 -40.87)"/><path id="path8229" class="cls-1" d="M191.44,84.65V81.48l3.57-.33c.79-.06.92-.26.92-1.19V46.28c0-.66-.2-1.05-.72-1.19L191.7,44l.53-3.1h9V80c0,.93.07,1.06.93,1.19l3.5.4v3.1Z" transform="translate(-36.48 -40.87)"/><path id="path8231" class="cls-1" d="M228.16,61.74a13.43,13.43,0,0,0-7.92-3.11c-5.49,0-7.6,4.76-7.6,11.69,0,8.06,2.71,10.7,6.8,10.7,3.44,0,6.21-2.25,8.79-4.82V61.74Zm1,22.91-.46-3.83-.27-.06c-2.64,2.57-5.68,4.55-10.23,4.55-6.61,0-11-4.29-11-15,0-11.42,5.16-16.11,12.16-16.11A15.54,15.54,0,0,1,228.23,57V46.22A1.18,1.18,0,0,0,227.5,45L224.07,44l.52-3.1h8.85V80c0,.93.07,1.06.93,1.19l3,.4v3.1Z" transform="translate(-36.48 -40.87)"/><path id="path8233" class="cls-2" d="M249.43,77.26c2,1.91,4.88,3.76,7.92,3.76,5.55,0,7.6-4.56,7.6-11.89,0-7.86-3.11-10.37-6.67-10.37s-7.2,2.25-8.85,3.57Zm-8.59,19.68V93.77l2.38-.33c.79-.14,1-.27,1-1.19v-32c0-.66-.2-1.06-.73-1.19l-3.3-1.12.53-3.11h7.66l.53,3.37.2.07c3.17-2.38,6.4-4,10.36-4,6.48,0,10.9,4.16,10.9,14.39,0,8.72-3,16.71-12.08,16.71a12.61,12.61,0,0,1-8.85-3.17v10c0,.93.06,1.12.92,1.19l5.48.46v3.11Z" transform="translate(-36.48 -40.87)"/><path id="path8235" class="cls-2" d="M291.56,71.31l-6.54.6c-5,.46-6.4,1.91-6.4,5s1.32,4.42,4,4.42c3.44,0,7.07-2.77,8.85-4.49V71.31Zm1,13.34L292,80.89l-.2-.07a14.81,14.81,0,0,1-10.5,4.49c-7.26,0-8.19-5-8.19-7.92,0-5.81,3.57-8.52,10.57-9.12l7.86-.66v-3.1c0-4.23-.79-6.34-5.88-6.34-3.56,0-6.07.13-6.14,4.49l-5-.53c0-7.13,6.61-7.92,11.23-7.92,8.25,0,11,2.31,11,10.3V79.9c0,.92.06,1,.92,1.19l3,.39v3.11h-8.12Z" transform="translate(-36.48 -40.87)"/><path id="path8237" class="cls-2" d="M304,96.94V93.77l4.16-.53c.72-.07.92-.4,1.25-1.19l3.37-7.73-10.43-24.7c-.27-.72-.53-.79-1.19-1L298.76,58l.66-3.17h12V58l-3.83.46L315.34,78l8.05-19.48-4-.46.66-3.17h11.49V58l-2,.26c-.73.13-1.19.33-1.45,1L314.08,93.24s-.66,1.58-1,2.24a2.46,2.46,0,0,1-2.31,1.46Z" transform="translate(-36.48 -40.87)"/><path id="path8239" class="cls-2" d="M76.46,82.54a15.42,15.42,0,0,1-1.39,1.78,21.43,21.43,0,0,1-3.89,3.44,26.85,26.85,0,0,1-5.75,3,17,17,0,0,1-4.55,1h-.47A2.38,2.38,0,0,1,59,91.45l-.14-.06-.13-.13v-.07a.67.67,0,0,1,.07-.33,3.65,3.65,0,0,1,.59-.92,1.59,1.59,0,0,0,.27-.33c1-.27,2-.6,3.1-.93a11.64,11.64,0,0,0,3,.2,9.06,9.06,0,0,0,3.3-1,10.59,10.59,0,0,0,3.11-2.58A9.75,9.75,0,0,0,73.49,83,28.53,28.53,0,0,0,78,78.71l.59-.79a16.14,16.14,0,0,1-2.11,4.62m-6.8,3c.4-.2.73-.46,1.12-.66a9.09,9.09,0,0,1-1.85,1.72A8.68,8.68,0,0,1,66,87.82l-1.32.2a50,50,0,0,0,5-2.51M81.74,68.93a11.52,11.52,0,0,0-1.38-5.48,15.66,15.66,0,0,0-3.44-4.29,10.1,10.1,0,0,0-2.64-4.95A16.36,16.36,0,0,0,70.06,51a23.15,23.15,0,0,0-4.3-1.79,19.47,19.47,0,0,0-3.7-.72,10.57,10.57,0,0,0-2.9.06,9.62,9.62,0,0,0-2.38.86l-.13.07a15,15,0,0,0-2.91-.07h-.26c-.93.07-2.84.33-2.71,1.26,0,0,0,.52,1.19.92l1.65-1c-.13,0-.26-.07-.4-.07.53-.06,1.06-.13,1.46-.13H55l-.33.2-.53.33c-1,.6-1.32.86-2.38,1.45-.66.4-1.25.8-1.91,1.13-1.26.66-2.51,1.32-3.83,2-1.06.46-2.12,1-3.5,1.58l-.14.07c-.33.13-.66.26-.92.39h-.07a1.71,1.71,0,0,0-.92.73l-.07.27v.26a.21.21,0,0,0,.07.13l.2.2.19.13h.07a2.35,2.35,0,0,0,.73.07h1.19c.46,0,.92-.07,1.32-.07,2.18-.06,4.16-.06,6.07,0s3.7.27,5.55.46l2.77.4A13.21,13.21,0,0,0,60,58.83c-1.91-.4-3.83-.66-5.68-.86a58.26,58.26,0,0,0-6-.33h-.72c-1,0-2,0-3,.07,1-.47,1.85-.93,2.71-1.32,1.25-.66,2.5-1.39,3.76-2.18.92-.6,1.91-1.26,3-2.05l.2-.13c1.32.26,2.9.53,4.49.86l3.36.79a4.73,4.73,0,0,0-2.64-2.11c-1.12-.2-2.31-.47-3.7-.67a3.86,3.86,0,0,1,1-.59,11.68,11.68,0,0,1,2.9.66,7.47,7.47,0,0,1,1.65.86c.07.07.2.13.27.2a3.18,3.18,0,0,1,1.25,2.37,4.34,4.34,0,0,1-.53,2.32,8,8,0,0,1-.86,1.38,9.59,9.59,0,0,1-2,2.12,26.55,26.55,0,0,1-4.62,3.36c-.66.4-1.25.73-1.92,1.06s-1.58.79-2.24,1.06a41.59,41.59,0,0,1-5.09,1.91c-1.18.33-2.31.66-3.43.86a19.41,19.41,0,0,1-3,.4A14.78,14.78,0,0,1,43,67.81a33,33,0,0,0,6.34-2.11c-1.38,0-2.77.06-4.22.2a27.55,27.55,0,0,0-6,1.18c-1,.34-2.31.86-2.64,1.72a2,2,0,0,0,.13,1.12,2,2,0,0,0,1.65.93,9.37,9.37,0,0,0,2.38-.07,27.32,27.32,0,0,0,5.87-1.32,49.06,49.06,0,0,0,5.29-2,36.75,36.75,0,0,1,5.48.59,27.39,27.39,0,0,1,5.15,1.39A21.06,21.06,0,0,1,67,71.64c.46-.33.86-.66,1.19-.92-.07,0-.07-.07-.14-.07a25.81,25.81,0,0,0-5.41-2.71,39,39,0,0,0-5.42-1.45,19.82,19.82,0,0,0-2.84-.4,27.92,27.92,0,0,0,4.23-2.7,29.22,29.22,0,0,0,2.91-2.58,44,44,0,0,1,5.87,1.92,25.35,25.35,0,0,1,5.35,3l.14.06a10.78,10.78,0,0,0,.79-1.38,30.55,30.55,0,0,0-4.56-2.64A36.8,36.8,0,0,0,63,59.56c-.07,0-.13-.07-.27-.07a8.46,8.46,0,0,0,1.72-4,3.07,3.07,0,0,0,0-1.13,45.53,45.53,0,0,1,5.48,2.12,21.8,21.8,0,0,1,4.43,2.64l.06.07A7.22,7.22,0,0,0,73,56.32c-.79-.46-1.65-.86-2.57-1.32a43.09,43.09,0,0,0-5.29-2,8.24,8.24,0,0,0-1.25-.33h-.07a5.42,5.42,0,0,0-2.24-2,10.2,10.2,0,0,0-2.78-.92,8.45,8.45,0,0,1,1.32-.14h.14a8.86,8.86,0,0,1,1.32.07.58.58,0,0,1,.33.07,18.47,18.47,0,0,1,3.5.79,18.92,18.92,0,0,1,4,1.78,14.62,14.62,0,0,1,3.76,3c.33.4.66.8.92,1.19a.34.34,0,0,1,.14.27.06.06,0,0,0,.06.06,6.84,6.84,0,0,1,1,3.11,8.32,8.32,0,0,1-.53,3.69,11.4,11.4,0,0,1-1.45,2.84,20.7,20.7,0,0,1-3.7,4.1,20.12,20.12,0,0,1-2.7,2.11,42.79,42.79,0,0,1-4.17,2.58A40.09,40.09,0,0,1,59,77.06c-.59.26-1.45.59-2.44.92a40.95,40.95,0,0,1-11.1,2.45,14,14,0,0,1-2.24,0,4.79,4.79,0,0,1-2.84-.8l-.14-.13v-.13a2.23,2.23,0,0,1,.8-.93,7.47,7.47,0,0,1,1.65-.85,19,19,0,0,1,5.22-1.19,25.56,25.56,0,0,1,5.54.19,21.59,21.59,0,0,1,2.78.67A17,17,0,0,0,58,76.59a27.24,27.24,0,0,0-3.7-1.18,24.23,24.23,0,0,0-5.81-.47,21.84,21.84,0,0,0-5.68.93A7.8,7.8,0,0,0,39,78.11a2.19,2.19,0,0,0-.46,1.79,2.38,2.38,0,0,0,1.12,1.52,6.53,6.53,0,0,0,2.64.85,14.85,14.85,0,0,0,2.58.2h.46a35.29,35.29,0,0,0,6.41-.86A42.69,42.69,0,0,0,58,79.7c.59-.27,1.25-.46,1.85-.73a6.8,6.8,0,0,1,2.17,2.18,4.34,4.34,0,0,1,.66,2.31,4.07,4.07,0,0,1-.59,2.12,2.85,2.85,0,0,1-.33.53c.46-.14.92-.34,1.39-.53l.2-.4a5.25,5.25,0,0,0,.33-2.64,5.67,5.67,0,0,0-1.33-2.84,7.83,7.83,0,0,0-1.25-1.26,46.24,46.24,0,0,0,5.75-3.17c.85-.59,1.71-1.18,2.51-1.78a9.83,9.83,0,0,1,2.77,4.16,7.72,7.72,0,0,1,.4,2.45c.52-.47,1-.86,1.32-1.19a8.68,8.68,0,0,0-1.19-3.44,12.52,12.52,0,0,0-2.25-2.84,21.79,21.79,0,0,0,4.29-4.75c.07-.07.14-.2.2-.27a14.58,14.58,0,0,1,3,4.23v.07c.14.26.2.59.33.85A8.69,8.69,0,0,0,79,70.19a12.64,12.64,0,0,0-2-2.91c-.33-.39-.72-.72-1.12-1.12a13,13,0,0,0,1.32-4.36c.33.4.66.79.93,1.19a10.31,10.31,0,0,1,1.78,4.62,14.22,14.22,0,0,1,.07,1.72,7.83,7.83,0,0,1-.2,1.59,1.33,1.33,0,0,1-.13.46,16.82,16.82,0,0,1-1,2.64c-.06.07-.06.2-.13.26s-.06.2-.13.27a19,19,0,0,1-3.57,4.62,4.3,4.3,0,0,1-.66.59,18.4,18.4,0,0,1-2,1.72,31.21,31.21,0,0,1-4.69,3,37.8,37.8,0,0,1-4,1.85,29,29,0,0,1-3.9,1.32,38.35,38.35,0,0,1-5.75,1.13,18.15,18.15,0,0,1-4.29-.07,6.53,6.53,0,0,1-1.91-.59,1.44,1.44,0,0,1-.34-.27c0-.06-.06-.06-.06-.13v-.13c.26-.66,1.12-1,2-1.26A9.33,9.33,0,0,1,52,85.91h.13a12.62,12.62,0,0,1,3,.39,18.13,18.13,0,0,1,2.84.86c.07,0,.07.07.13.07a10,10,0,0,0,1.45-.4c-.06,0-.13-.06-.26-.06-.4-.14-.79-.33-1.19-.47a27.84,27.84,0,0,0-3-1,15,15,0,0,0-3.3-.46,11,11,0,0,0-3.3.33A5.48,5.48,0,0,0,46,86.44a2,2,0,0,0-.6,1.45,2,2,0,0,0,.73,1.45,7.63,7.63,0,0,0,4.62,1.39A26.2,26.2,0,0,0,57,90.27l.86-.2a2.9,2.9,0,0,0-.46,1.05,1.52,1.52,0,0,0,.92,1.52,5,5,0,0,0,2.44.53h.6A16.43,16.43,0,0,0,66.62,92,24.76,24.76,0,0,0,72,89.21a22.26,22.26,0,0,0,4.16-3.7,17.07,17.07,0,0,0,3-4.69,12,12,0,0,0,1-5.28,3,3,0,0,0-.07-.79,10.85,10.85,0,0,0,1.65-5.82" transform="translate(-36.48 -40.87)"/></g></g></svg>