<svg id="xendit" xmlns="http://www.w3.org/2000/svg" viewBox="0 0 201.57 58.37"><defs><style>.cls-1,.cls-2{fill:#446cb3;}.cls-1{fill-rule:evenodd;}.cls-3{fill:#d24d57;}</style></defs><g id="xendit_logotype" data-name="xendit logotype"><polygon id="Fill-1" class="cls-1" points="89.23 18.71 83.08 27.65 76.89 18.71 71.98 18.71 80.55 30.72 71.54 43.32 76.45 43.32 83.08 33.83 89.63 43.32 94.54 43.32 85.53 30.72 94.1 18.71 89.23 18.71"/><path id="Fill-2" class="cls-1" d="M180.08,50.52a5.16,5.16,0,0,1,4.14,1.72A7.58,7.58,0,0,1,185.68,57h-11.9a8.2,8.2,0,0,1,1.9-4.68,5.65,5.65,0,0,1,4.4-1.8m0-3.66a9.76,9.76,0,0,0-7.91,3.52c-1.94,2.3-2.93,5.49-2.93,9.41s1.06,7,3.15,9.19a11.45,11.45,0,0,0,8.64,3.33,19.71,19.71,0,0,0,4.21-.37,20.86,20.86,0,0,0,3.7-1.2l.18-.08V66.74l-.44.19a19.19,19.19,0,0,1-7.54,1.61,7.17,7.17,0,0,1-5.5-2.09,9.05,9.05,0,0,1-2.05-5.89h16.56V58a11.69,11.69,0,0,0-2.71-8,9.35,9.35,0,0,0-7.36-3.08" transform="translate(-72.25 -28.59)"/><path id="Fill-5" class="cls-1" d="M207.43,46.86a10.5,10.5,0,0,0-4.61,1,7.71,7.71,0,0,0-3,2.42l-.55-3h-3.51V71.87H200V59c0-3,.54-5.24,1.68-6.52s2.89-1.94,5.27-1.94a5.13,5.13,0,0,1,4,1.36,6,6,0,0,1,1.24,4.17V71.87h4.25v-16c0-3.15-.77-5.46-2.27-6.93s-3.77-2.12-6.74-2.12" transform="translate(-72.25 -28.59)"/><path id="Fill-7" class="cls-1" d="M232.7,68.65a5.38,5.38,0,0,1-4.69-2.2c-1.06-1.5-1.61-3.77-1.61-6.74a12.09,12.09,0,0,1,1.65-6.84,5.22,5.22,0,0,1,4.65-2.35c2.38,0,4.1.7,5.16,2s1.65,3.77,1.65,7.07v.77c0,2.93-.55,5-1.61,6.33s-2.82,1.91-5.2,1.91Zm6.73-21.35.08,1.68.11,1.1a10,10,0,0,0-14.94.15c-1.8,2.23-2.71,5.38-2.71,9.41s.91,7.14,2.67,9.34a9.34,9.34,0,0,0,7.58,3.33,8.88,8.88,0,0,0,7.51-3.41l.44,3h3.55V37.23h-4.25Z" transform="translate(-72.25 -28.59)"/><path id="Fill-10" class="cls-1" d="M253,38.37a2.48,2.48,0,0,0-1.76.66,2.64,2.64,0,0,0-.7,2,2.73,2.73,0,0,0,.7,2.05,2.54,2.54,0,0,0,3.48,0,2.78,2.78,0,0,0,.73-2.05,2.75,2.75,0,0,0-.73-2,2.47,2.47,0,0,0-1.72-.66" transform="translate(-72.25 -28.59)"/><polygon id="Fill-12" class="cls-1" points="178.53 43.32 182.82 43.32 182.82 18.71 178.53 18.71 178.53 43.32"/><path id="Fill-14" class="cls-1" d="M273.41,68.28a12,12,0,0,1-1.39.29,13,13,0,0,1-1.83.15,3.23,3.23,0,0,1-2.6-1.06,4.61,4.61,0,0,1-.95-3.11V50.74h7V47.3h-7V41.73H264l-1.57,5.2L259,48.47v2.27h3.44V64.69c0,5.06,2.46,7.66,7.29,7.66a16.1,16.1,0,0,0,2.12-.19,6.63,6.63,0,0,0,1.83-.51l.19-.07V68.17Z" transform="translate(-72.25 -28.59)"/></g><polygon class="cls-2" points="33.17 0 16.84 0 0 29.18 16.84 58.37 20.18 52.62 6.66 29.18 20.18 5.79 29.84 5.79 33.17 0"/><polygon class="cls-3" points="21.68 19.81 24.97 14.1 20.18 5.79 16.84 11.5 21.68 19.81"/><polygon class="cls-3" points="40.57 5.79 43.9 11.53 20.18 52.62 16.84 46.87 40.57 5.79"/><polygon class="cls-2" points="27.61 58.37 30.91 52.62 40.57 52.62 54.08 29.18 40.57 5.79 43.9 0 60.75 29.18 43.9 58.37 27.61 58.37"/><polygon class="cls-3" points="39 38.45 35.66 44.2 40.57 52.62 43.9 46.91 39 38.45"/></svg>