<svg id="ZaloPay" xmlns="http://www.w3.org/2000/svg" viewBox="0 0 221.37 63.41"><path d="M130.9,45.94a4.46,4.46,0,0,0-3.31-1.33,4.53,4.53,0,0,0-4.33,2.84A9.87,9.87,0,0,0,115.33,44a13.05,13.05,0,0,0-10.16,4.66,16.59,16.59,0,0,0-4.11,11.37,16.55,16.55,0,0,0,4.11,11.36,13,13,0,0,0,10.16,4.66,9.84,9.84,0,0,0,7.93-3.41,4.51,4.51,0,0,0,4.33,2.84,4.42,4.42,0,0,0,3.31-1.33,4.5,4.5,0,0,0,1.3-3.27V49.21a4.51,4.51,0,0,0-1.3-3.27m-9.62,19.51a6,6,0,0,1-9.3,0,9.47,9.47,0,0,1,0-10.77,6.07,6.07,0,0,1,9.3,0,9.42,9.42,0,0,1,0,10.77" transform="translate(-65.79 -22.07)" style="fill:#0fa8e0"/><path d="M142.66,74.19a4.8,4.8,0,0,1-6.63,0,4.5,4.5,0,0,1-1.3-3.27V32.07A4.5,4.5,0,0,1,136,28.8a4.8,4.8,0,0,1,6.63,0,4.5,4.5,0,0,1,1.3,3.27V70.92a4.5,4.5,0,0,1-1.3,3.27" transform="translate(-65.79 -22.07)" style="fill:#0fa8e0"/><path d="M173.26,48.7A15,15,0,0,0,162,44a14.77,14.77,0,0,0-11.22,4.6,16,16,0,0,0-4.35,11.43,16,16,0,0,0,4.35,11.42A14.74,14.74,0,0,0,162,76.09a14.93,14.93,0,0,0,11.31-4.66,15.94,15.94,0,0,0,4.27-11.36,15.94,15.94,0,0,0-4.27-11.37M166.6,65.45a6,6,0,0,1-9.3,0,9.47,9.47,0,0,1,0-10.77,6.07,6.07,0,0,1,9.3,0,9.42,9.42,0,0,1,0,10.77" transform="translate(-65.79 -22.07)" style="fill:#0fa8e0"/><path d="M96,45.12q4.89-6.32,4.89-8.51,0-5.07-6.37-5.07H72A6.1,6.1,0,0,0,68,32.79a4.37,4.37,0,0,0,0,6.5A6.1,6.1,0,0,0,72,40.54h15.4L67.73,66a7.64,7.64,0,0,0-1.94,4.43q0,5.57,7.35,5.56H96.27q5.53,0,5.54-4.65c0-3.1-1.85-4.66-5.54-4.66h-17Z" transform="translate(-65.79 -22.07)" style="fill:#0fa8e0"/><path d="M207.15,40.45H201V53.31h6.19a6,6,0,0,0,4.52-1.82,7,7,0,0,0,0-9.22,6,6,0,0,0-4.52-1.82" transform="translate(-65.79 -22.07)" style="fill:#32b34a"/><path d="M238,52.55a5.54,5.54,0,0,0-4.63,2.16,9.37,9.37,0,0,0,0,10.71,6,6,0,0,0,9.25,0,9.37,9.37,0,0,0,0-10.71A5.53,5.53,0,0,0,238,52.55" transform="translate(-65.79 -22.07)" style="fill:#32b34a"/><path d="M281.74,22.07H192a5.41,5.41,0,0,0-5.42,5.42V80.06A5.42,5.42,0,0,0,192,85.48h70.82A3.32,3.32,0,0,1,261.73,83a6.38,6.38,0,0,1,.52-2.44l3.34-7.43-9.24-23.06a5.63,5.63,0,0,1-.4-2.15,3.19,3.19,0,0,1,1.27-2.56,4.18,4.18,0,0,1,2.68-1,4.13,4.13,0,0,1,4.18,3L269.83,63,276,47.27a4.19,4.19,0,0,1,4.18-3,4.14,4.14,0,0,1,2.67,1,3.2,3.2,0,0,1,1.28,2.56,5.63,5.63,0,0,1-.4,2.15L270,83.28a6.56,6.56,0,0,1-1.35,2.2h13.06a5.42,5.42,0,0,0,5.42-5.42V27.49a5.42,5.42,0,0,0-5.42-5.42M218.38,57.44a15.24,15.24,0,0,1-10.68,3.88H201v9.95a4.65,4.65,0,0,1-1.27,3.49,4.94,4.94,0,0,1-6.55,0,4.65,4.65,0,0,1-1.28-3.49V37.17q0-4.72,4.74-4.73h10.74a15.86,15.86,0,0,1,11.13,4,13.54,13.54,0,0,1,4.4,10.46,13.44,13.44,0,0,1-4.49,10.5m35.13,13.42a4.5,4.5,0,0,1-1.29,3.25,4.43,4.43,0,0,1-3.3,1.32,4.5,4.5,0,0,1-4.3-2.82A9.81,9.81,0,0,1,236.73,76a13,13,0,0,1-10.1-4.63,16.47,16.47,0,0,1-4.09-11.31,16.47,16.47,0,0,1,4.09-11.3,13,13,0,0,1,10.1-4.64,9.81,9.81,0,0,1,7.89,3.39,4.5,4.5,0,0,1,4.3-2.82,4.4,4.4,0,0,1,3.3,1.33,4.48,4.48,0,0,1,1.29,3.25Z" transform="translate(-65.79 -22.07)" style="fill:#32b34a"/></svg>